<svg width="298" height="221" viewBox="0 0 298 221" fill="none" xmlns="http://www.w3.org/2000/svg">
<g filter="url(#filter0_d_1998_25316)">
<rect x="20" y="46" width="258" height="151.114" rx="2.76429" fill="white" shape-rendering="crispEdges"/>
<rect x="19.5393" y="45.5393" width="258.921" height="152.036" rx="3.225" stroke="#E9E9E9" stroke-width="0.921429" shape-rendering="crispEdges"/>
<path d="M31.417 55.356H99.1875C99.8918 55.356 100.463 55.9271 100.463 56.6313V124.402C100.463 125.106 99.8919 125.677 99.1875 125.677H31.417C30.7127 125.677 30.1417 125.106 30.1416 124.402V56.6313C30.1418 55.9271 30.7128 55.3561 31.417 55.356Z" fill="#F9F9F9" stroke="#E9E9E9" stroke-width="0.283464"/>
<path d="M78.6876 73.3066H51.9166C49.8045 73.3066 48.0922 75.0189 48.0922 77.1311V103.902C48.0922 106.014 49.8045 107.726 51.9166 107.726H78.6876C80.7997 107.726 82.512 106.014 82.512 103.902V77.1311C82.512 75.0189 80.7997 73.3066 78.6876 73.3066Z" stroke="#828282" stroke-width="0.566929" stroke-linecap="round" stroke-linejoin="round"/>
<path d="M58.6093 86.6922C60.1935 86.6922 61.4777 85.408 61.4777 83.8239C61.4777 82.2398 60.1935 80.9556 58.6093 80.9556C57.0252 80.9556 55.741 82.2398 55.741 83.8239C55.741 85.408 57.0252 86.6922 58.6093 86.6922Z" stroke="#828282" stroke-width="0.566929" stroke-linecap="round" stroke-linejoin="round"/>
<path d="M82.5121 96.2532L72.9511 86.6921L51.9167 107.726" stroke="#828282" stroke-width="0.566929" stroke-linecap="round" stroke-linejoin="round"/>
<line x1="30.9221" y1="148.075" x2="98.8625" y2="148.075" stroke="#E9E9E9" stroke-width="1.84417" stroke-linecap="round"/>
<line x1="30.9221" y1="167.327" x2="79.6116" y2="167.327" stroke="#E9E9E9" stroke-width="1.84417" stroke-linecap="round"/>
<path d="M114.022 55.356H181.792C182.496 55.356 183.067 55.9271 183.068 56.6313V124.402C183.067 125.106 182.497 125.677 181.792 125.677H114.022C113.317 125.677 112.746 125.106 112.746 124.402V56.6313C112.746 55.9271 113.317 55.3561 114.022 55.356Z" fill="#F9F9F9" stroke="#E9E9E9" stroke-width="0.283464"/>
<path d="M161.292 73.3064H134.521C132.409 73.3064 130.697 75.0186 130.697 77.1308V103.902C130.697 106.014 132.409 107.726 134.521 107.726H161.292C163.404 107.726 165.116 106.014 165.116 103.902V77.1308C165.116 75.0186 163.404 73.3064 161.292 73.3064Z" stroke="#828282" stroke-width="0.566929" stroke-linecap="round" stroke-linejoin="round"/>
<path d="M141.214 86.692C142.798 86.692 144.082 85.4078 144.082 83.8236C144.082 82.2395 142.798 80.9553 141.214 80.9553C139.63 80.9553 138.346 82.2395 138.346 83.8236C138.346 85.4078 139.63 86.692 141.214 86.692Z" stroke="#828282" stroke-width="0.566929" stroke-linecap="round" stroke-linejoin="round"/>
<path d="M165.117 96.2529L155.556 86.6919L134.521 107.726" stroke="#828282" stroke-width="0.566929" stroke-linecap="round" stroke-linejoin="round"/>
<line x1="113.527" y1="148.075" x2="181.467" y2="148.075" stroke="#E9E9E9" stroke-width="1.84417" stroke-linecap="round"/>
<line x1="113.527" y1="167.327" x2="162.217" y2="167.327" stroke="#E9E9E9" stroke-width="1.84417" stroke-linecap="round"/>
<path d="M196.627 55.356H264.398C265.102 55.356 265.673 55.9271 265.673 56.6313V124.402C265.673 125.106 265.102 125.677 264.398 125.677H196.627C195.923 125.677 195.352 125.106 195.352 124.402V56.6313C195.352 55.9271 195.923 55.3561 196.627 55.356Z" fill="#F9F9F9" stroke="#E9E9E9" stroke-width="0.283464"/>
<path d="M243.899 73.3064H217.128C215.016 73.3064 213.303 75.0186 213.303 77.1308V103.902C213.303 106.014 215.016 107.726 217.128 107.726H243.899C246.011 107.726 247.723 106.014 247.723 103.902V77.1308C247.723 75.0186 246.011 73.3064 243.899 73.3064Z" stroke="#828282" stroke-width="0.566929" stroke-linecap="round" stroke-linejoin="round"/>
<path d="M223.82 86.692C225.405 86.692 226.689 85.4078 226.689 83.8236C226.689 82.2395 225.405 80.9553 223.82 80.9553C222.236 80.9553 220.952 82.2395 220.952 83.8236C220.952 85.4078 222.236 86.692 223.82 86.692Z" stroke="#828282" stroke-width="0.566929" stroke-linecap="round" stroke-linejoin="round"/>
<path d="M247.723 96.2529L238.162 86.6919L217.128 107.726" stroke="#828282" stroke-width="0.566929" stroke-linecap="round" stroke-linejoin="round"/>
<line x1="196.131" y1="148.075" x2="264.072" y2="148.075" stroke="#E9E9E9" stroke-width="1.84417" stroke-linecap="round"/>
<line x1="196.131" y1="167.327" x2="244.821" y2="167.327" stroke="#E9E9E9" stroke-width="1.84417" stroke-linecap="round"/>
</g>
<rect x="20.4607" y="0.460714" width="257.079" height="35.9357" rx="2.30357" fill="white" stroke="#E9E9E9" stroke-width="0.921429"/>
<path d="M43.1886 23.804C46.5812 23.804 49.3315 21.0538 49.3315 17.6612C49.3315 14.2686 46.5812 11.5183 43.1886 11.5183C39.796 11.5183 37.0458 14.2686 37.0458 17.6612C37.0458 21.0538 39.796 23.804 43.1886 23.804Z" stroke="#828282" stroke-width="1.84286" stroke-linecap="round" stroke-linejoin="round"/>
<path d="M50.8672 25.3399L47.527 21.9998" stroke="#828282" stroke-width="1.84286" stroke-linecap="round" stroke-linejoin="round"/>
<path d="M73.2589 16.1785C73.204 15.7143 72.981 15.3539 72.5901 15.0974C72.1992 14.8408 71.7197 14.7126 71.1517 14.7126C70.7364 14.7126 70.3729 14.7798 70.0614 14.9141C69.753 15.0485 69.5117 15.2333 69.3376 15.4684C69.1666 15.7036 69.0811 15.9708 69.0811 16.2701C69.0811 16.5205 69.1407 16.7358 69.2598 16.916C69.3819 17.0931 69.5377 17.2413 69.727 17.3604C69.9164 17.4764 70.1149 17.5726 70.3225 17.649C70.5302 17.7223 70.7211 17.7818 70.8952 17.8276L71.848 18.0842C72.0923 18.1483 72.3641 18.2369 72.6634 18.3499C72.9658 18.4629 73.2544 18.6171 73.5292 18.8125C73.8071 19.0049 74.0362 19.2523 74.2164 19.5547C74.3966 19.857 74.4866 20.2281 74.4866 20.6678C74.4866 21.1748 74.3538 21.6329 74.0881 22.0421C73.8255 22.4513 73.4407 22.7766 72.9337 23.0179C72.4298 23.2591 71.8175 23.3798 71.0967 23.3798C70.4249 23.3798 69.8431 23.2713 69.3514 23.0545C68.8627 22.8377 68.4779 22.5353 68.197 22.1475C67.9191 21.7596 67.7618 21.3092 67.7251 20.7961H68.8979C68.9284 21.1504 69.0475 21.4435 69.2552 21.6756C69.4659 21.9047 69.7316 22.0757 70.0523 22.1887C70.376 22.2987 70.7241 22.3536 71.0967 22.3536C71.5304 22.3536 71.9198 22.2834 72.2649 22.1429C72.61 21.9994 72.8833 21.8009 73.0849 21.5474C73.2864 21.2908 73.3872 20.9915 73.3872 20.6495C73.3872 20.338 73.3002 20.0845 73.1261 19.8891C72.952 19.6936 72.723 19.5348 72.439 19.4126C72.1549 19.2905 71.848 19.1836 71.5182 19.092L70.3638 18.7621C69.6308 18.5514 69.0506 18.2506 68.623 17.8597C68.1955 17.4688 67.9817 16.9572 67.9817 16.3251C67.9817 15.7998 68.1237 15.3417 68.4077 14.9508C68.6948 14.5568 69.0796 14.2514 69.5621 14.0346C70.0477 13.8147 70.5898 13.7048 71.1884 13.7048C71.793 13.7048 72.3305 13.8132 72.8009 14.03C73.2712 14.2438 73.6438 14.537 73.9186 14.9096C74.1965 15.2821 74.3431 15.7051 74.3584 16.1785H73.2589ZM77.2891 18.982V23.2148H76.2079V13.833H77.2891V17.2779H77.3807C77.5456 16.9145 77.793 16.6259 78.1228 16.4121C78.4557 16.1953 78.8985 16.0869 79.4513 16.0869C79.9307 16.0869 80.3507 16.1831 80.711 16.3755C81.0714 16.5648 81.3508 16.8565 81.5494 17.2504C81.7509 17.6413 81.8517 18.1391 81.8517 18.7438V23.2148H80.7706V18.8171C80.7706 18.2582 80.6255 17.8261 80.3354 17.5207C80.0483 17.2123 79.6498 17.058 79.1398 17.058C78.7855 17.058 78.4679 17.1328 78.1869 17.2825C77.909 17.4321 77.6891 17.6505 77.5273 17.9376C77.3685 18.2246 77.2891 18.5728 77.2891 18.982ZM86.6881 23.3614C86.0528 23.3614 85.4955 23.2103 85.016 22.9079C84.5396 22.6056 84.167 22.1826 83.8982 21.639C83.6325 21.0954 83.4997 20.4602 83.4997 19.7333C83.4997 19.0004 83.6325 18.3605 83.8982 17.8139C84.167 17.2672 84.5396 16.8427 85.016 16.5404C85.4955 16.238 86.0528 16.0869 86.6881 16.0869C87.3233 16.0869 87.8791 16.238 88.3555 16.5404C88.835 16.8427 89.2076 17.2672 89.4733 17.8139C89.742 18.3605 89.8764 19.0004 89.8764 19.7333C89.8764 20.4602 89.742 21.0954 89.4733 21.639C89.2076 22.1826 88.835 22.6056 88.3555 22.9079C87.8791 23.2103 87.3233 23.3614 86.6881 23.3614ZM86.6881 22.3903C87.1706 22.3903 87.5676 22.2666 87.8791 22.0192C88.1906 21.7718 88.4212 21.4466 88.5708 21.0435C88.7205 20.6403 88.7953 20.2036 88.7953 19.7333C88.7953 19.263 88.7205 18.8248 88.5708 18.4186C88.4212 18.0124 88.1906 17.6841 87.8791 17.4337C87.5676 17.1832 87.1706 17.058 86.6881 17.058C86.2055 17.058 85.8085 17.1832 85.497 17.4337C85.1855 17.6841 84.9549 18.0124 84.8053 18.4186C84.6556 18.8248 84.5808 19.263 84.5808 19.7333C84.5808 20.2036 84.6556 20.6403 84.8053 21.0435C84.9549 21.4466 85.1855 21.7718 85.497 22.0192C85.8085 22.2666 86.2055 22.3903 86.6881 22.3903ZM94.4768 23.3614C93.7989 23.3614 93.214 23.2118 92.7223 22.9125C92.2337 22.6102 91.8565 22.1887 91.5908 21.6482C91.3282 21.1045 91.1969 20.4724 91.1969 19.7516C91.1969 19.0309 91.3282 18.3957 91.5908 17.846C91.8565 17.2932 92.2261 16.8626 92.6994 16.5541C93.1758 16.2426 93.7317 16.0869 94.3669 16.0869C94.7334 16.0869 95.0953 16.1479 95.4526 16.2701C95.8099 16.3923 96.1351 16.5908 96.4283 16.8656C96.7215 17.1374 96.9551 17.4978 97.1292 17.9467C97.3033 18.3957 97.3903 18.9484 97.3903 19.605V20.0631H91.9665V19.1286H96.2909C96.2909 18.7316 96.2115 18.3773 96.0527 18.0658C95.8969 17.7543 95.674 17.5085 95.3839 17.3283C95.0968 17.1481 94.7578 17.058 94.3669 17.058C93.9363 17.058 93.5637 17.1649 93.2491 17.3787C92.9376 17.5894 92.6979 17.8643 92.5299 18.2033C92.362 18.5423 92.278 18.9057 92.278 19.2935V19.9165C92.278 20.4479 92.3696 20.8984 92.5528 21.2679C92.7391 21.6344 92.9972 21.9138 93.327 22.1063C93.6568 22.2956 94.0401 22.3903 94.4768 22.3903C94.7609 22.3903 95.0174 22.3506 95.2464 22.2712C95.4785 22.1887 95.6786 22.0665 95.8465 21.9047C96.0145 21.7398 96.1443 21.5352 96.2359 21.2908L97.2804 21.584C97.1704 21.9383 96.9857 22.2498 96.7261 22.5185C96.4665 22.7842 96.1458 22.9919 95.7641 23.1415C95.3823 23.2881 94.9533 23.3614 94.4768 23.3614Z" fill="#828282"/>
<path d="M100.611 10.8096V26.2383H99.6946V10.8096H100.611Z" fill="#25252D"/>
<defs>
<filter id="filter0_d_1998_25316" x="0.649981" y="32.1786" width="296.7" height="189.814" filterUnits="userSpaceOnUse" color-interpolation-filters="sRGB">
<feFlood flood-opacity="0" result="BackgroundImageFix"/>
<feColorMatrix in="SourceAlpha" type="matrix" values="0 0 0 0 0 0 0 0 0 0 0 0 0 0 0 0 0 0 127 0" result="hardAlpha"/>
<feOffset dy="5.52857"/>
<feGaussianBlur stdDeviation="9.21429"/>
<feComposite in2="hardAlpha" operator="out"/>
<feColorMatrix type="matrix" values="0 0 0 0 0 0 0 0 0 0 0 0 0 0 0 0 0 0 0.08 0"/>
<feBlend mode="normal" in2="BackgroundImageFix" result="effect1_dropShadow_1998_25316"/>
<feBlend mode="normal" in="SourceGraphic" in2="effect1_dropShadow_1998_25316" result="shape"/>
</filter>
</defs>
</svg>
