<svg width="172" height="138" viewBox="0 0 172 138" fill="none" xmlns="http://www.w3.org/2000/svg">
<path d="M1.69336 0.168945H32.1787C33.0204 0.169059 33.703 0.851726 33.7031 1.69336V32.1787C33.703 33.0204 33.0204 33.703 32.1787 33.7031H1.69336C0.851725 33.703 0.169057 33.0204 0.168945 32.1787V1.69336C0.169081 0.851739 0.851739 0.169078 1.69336 0.168945Z" fill="#F9F9F9" stroke="#E9E9E9" stroke-width="0.338721"/>
<path d="M22.8401 8.16211H9.99697C8.98367 8.16211 8.16223 8.98355 8.16223 9.99685V22.84C8.16223 23.8533 8.98367 24.6748 9.99697 24.6748H22.8401C23.8534 24.6748 24.6749 23.8533 24.6749 22.84V9.99685C24.6749 8.98355 23.8534 8.16211 22.8401 8.16211Z" stroke="#828282" stroke-width="0.677442" stroke-linecap="round" stroke-linejoin="round"/>
<path d="M13.2077 14.5841C13.9677 14.5841 14.5838 13.9681 14.5838 13.2081C14.5838 12.4481 13.9677 11.832 13.2077 11.832C12.4477 11.832 11.8317 12.4481 11.8317 13.2081C11.8317 13.9681 12.4477 14.5841 13.2077 14.5841Z" stroke="#828282" stroke-width="0.677442" stroke-linecap="round" stroke-linejoin="round"/>
<path d="M24.675 19.1708L20.0881 14.584L9.99707 24.6751" stroke="#828282" stroke-width="0.677442" stroke-linecap="round" stroke-linejoin="round"/>
<line x1="42.9998" y1="4.8259" x2="137.705" y2="4.8259" stroke="#E9E9E9" stroke-width="2.20367" stroke-linecap="round"/>
<line x1="42.9998" y1="13.9997" x2="110.113" y2="13.9997" stroke="#E9E9E9" stroke-width="2.20367" stroke-linecap="round"/>
<line x1="46.3053" y1="26.954" x2="53.8792" y2="26.954" stroke="#E9E9E9" stroke-width="8.81466" stroke-linecap="round"/>
<rect y="56.6426" width="122" height="28" rx="5" fill="#7047EB"/>
<g clip-path="url(#clip0_1998_33757)">
<path d="M16.875 70.0176H18.75C19.0815 70.0176 19.3995 70.1493 19.6339 70.3837C19.8683 70.6181 20 70.9361 20 71.2676V73.1426C20 73.4741 19.8683 73.792 19.6339 74.0265C19.3995 74.2609 19.0815 74.3926 18.75 74.3926H18.125C17.7935 74.3926 17.4755 74.2609 17.2411 74.0265C17.0067 73.792 16.875 73.4741 16.875 73.1426V70.0176ZM16.875 70.0176C16.875 69.2789 17.0205 68.5474 17.3032 67.865C17.5859 67.1825 18.0002 66.5624 18.5225 66.0401C19.0449 65.5178 19.6649 65.1034 20.3474 64.8208C21.0299 64.5381 21.7613 64.3926 22.5 64.3926C23.2387 64.3926 23.9701 64.5381 24.6526 64.8208C25.3351 65.1034 25.9551 65.5178 26.4775 66.0401C26.9998 66.5624 27.4141 67.1825 27.6968 67.865C27.9795 68.5474 28.125 69.2789 28.125 70.0176M28.125 70.0176V73.1426M28.125 70.0176H26.25C25.9185 70.0176 25.6005 70.1493 25.3661 70.3837C25.1317 70.6181 25 70.9361 25 71.2676V73.1426C25 73.4741 25.1317 73.792 25.3661 74.0265C25.6005 74.2609 25.9185 74.3926 26.25 74.3926H26.875C27.2065 74.3926 27.5245 74.2609 27.7589 74.0265C27.9933 73.792 28.125 73.4741 28.125 73.1426M28.125 73.1426V74.3926C28.125 75.0556 27.8616 75.6915 27.3928 76.1603C26.9239 76.6292 26.288 76.8926 25.625 76.8926H22.5" stroke="white" stroke-width="2" stroke-linecap="round" stroke-linejoin="round"/>
</g>
<path d="M43.3494 68.6724C43.267 68.4139 43.1563 68.1824 43.017 67.9778C42.8807 67.7704 42.7173 67.5943 42.527 67.4494C42.3366 67.3017 42.1193 67.1895 41.875 67.1127C41.6335 67.036 41.3679 66.9977 41.0781 66.9977C40.5866 66.9977 40.1435 67.1241 39.7486 67.377C39.3537 67.6298 39.0412 68.0005 38.8111 68.4892C38.5838 68.975 38.4702 69.5701 38.4702 70.2747C38.4702 70.9821 38.5852 71.5801 38.8153 72.0687C39.0455 72.5574 39.3608 72.9281 39.7614 73.1809C40.1619 73.4338 40.6179 73.5602 41.1293 73.5602C41.6037 73.5602 42.017 73.4636 42.3693 73.2704C42.7244 73.0772 42.9986 72.8045 43.1918 72.4522C43.3878 72.0971 43.4858 71.6795 43.4858 71.1994L43.8267 71.2633H41.3295V70.1767H44.7599V71.1696C44.7599 71.9025 44.6037 72.5389 44.2912 73.0787C43.9815 73.6156 43.5526 74.0304 43.0043 74.323C42.4588 74.6156 41.8338 74.7619 41.1293 74.7619C40.3395 74.7619 39.6463 74.5801 39.0497 74.2164C38.456 73.8528 37.9929 73.3372 37.6605 72.6696C37.3281 71.9991 37.1619 71.2037 37.1619 70.2832C37.1619 69.5872 37.2585 68.9622 37.4517 68.4082C37.6449 67.8542 37.9162 67.3841 38.2656 66.9977C38.6179 66.6085 39.0312 66.3116 39.5057 66.1071C39.983 65.8997 40.5043 65.796 41.0696 65.796C41.5412 65.796 41.9801 65.8656 42.3864 66.0048C42.7955 66.144 43.1591 66.3414 43.4773 66.5971C43.7983 66.8528 44.0639 67.1568 44.2741 67.5091C44.4844 67.8585 44.6264 68.2463 44.7003 68.6724H43.3494ZM49.1502 74.7747C48.5053 74.7747 47.9499 74.6369 47.484 74.3613C47.021 74.0829 46.663 73.6923 46.4102 73.1895C46.1602 72.6838 46.0352 72.0914 46.0352 71.4125C46.0352 70.742 46.1602 70.1511 46.4102 69.6397C46.663 69.1284 47.0153 68.7292 47.467 68.4423C47.9215 68.1554 48.4528 68.0119 49.0607 68.0119C49.43 68.0119 49.788 68.073 50.1346 68.1951C50.4812 68.3173 50.7923 68.5091 51.0678 68.7704C51.3434 69.0318 51.5607 69.3713 51.7198 69.7889C51.8789 70.2037 51.9585 70.7079 51.9585 71.3017V71.7534H46.7553V70.7988H50.7099C50.7099 70.4636 50.6417 70.1667 50.5053 69.9082C50.369 69.6468 50.1772 69.4409 49.93 69.2903C49.6857 69.1397 49.3988 69.0645 49.0692 69.0645C48.7113 69.0645 48.3988 69.1525 48.1317 69.3287C47.8675 69.502 47.663 69.7292 47.5181 70.0105C47.3761 70.2889 47.305 70.5914 47.305 70.9181V71.6639C47.305 72.1014 47.3817 72.4735 47.5352 72.7804C47.6914 73.0872 47.9087 73.3216 48.1871 73.4835C48.4656 73.6426 48.7908 73.7221 49.163 73.7221C49.4045 73.7221 49.6246 73.688 49.8235 73.6199C50.0224 73.5488 50.1942 73.4437 50.3391 73.3045C50.484 73.1653 50.5948 72.9934 50.6715 72.7889L51.8775 73.0062C51.7809 73.3613 51.6076 73.6724 51.3576 73.9395C51.1104 74.2037 50.7994 74.4096 50.4244 74.5574C50.0522 74.7022 49.6275 74.7747 49.1502 74.7747ZM56.4276 68.0971V69.1199H52.8523V68.0971H56.4276ZM53.8111 66.5289H55.0852V72.7207C55.0852 72.9679 55.1222 73.1539 55.196 73.2789C55.2699 73.4011 55.3651 73.4849 55.4815 73.5304C55.6009 73.573 55.7301 73.5943 55.8693 73.5943C55.9716 73.5943 56.0611 73.5872 56.1378 73.573C56.2145 73.5588 56.2741 73.5474 56.3168 73.5389L56.5469 74.5914C56.473 74.6199 56.3679 74.6483 56.2315 74.6767C56.0952 74.7079 55.9247 74.725 55.7202 74.7278C55.3849 74.7335 55.0724 74.6738 54.7827 74.5488C54.4929 74.4238 54.2585 74.2306 54.0795 73.9693C53.9006 73.7079 53.8111 73.3798 53.8111 72.9849V66.5289ZM65.875 68.2079C65.8295 67.8045 65.642 67.492 65.3125 67.2704C64.983 67.046 64.5682 66.9338 64.0682 66.9338C63.7102 66.9338 63.4006 66.9906 63.1392 67.1042C62.8778 67.215 62.6747 67.3684 62.5298 67.5645C62.3878 67.7576 62.3168 67.9778 62.3168 68.225C62.3168 68.4324 62.3651 68.6113 62.4616 68.7619C62.5611 68.9125 62.6903 69.0389 62.8494 69.1412C63.0114 69.2406 63.1847 69.3244 63.3693 69.3926C63.554 69.4579 63.7315 69.5119 63.902 69.5545L64.7543 69.7761C65.0327 69.8443 65.3182 69.9366 65.6108 70.0531C65.9034 70.1696 66.1747 70.323 66.4247 70.5133C66.6747 70.7037 66.8764 70.9395 67.0298 71.2207C67.1861 71.502 67.2642 71.8386 67.2642 72.2306C67.2642 72.725 67.1364 73.1639 66.8807 73.5474C66.6278 73.9309 66.2599 74.2335 65.777 74.4551C65.2969 74.6767 64.7159 74.7875 64.0341 74.7875C63.3807 74.7875 62.8153 74.6838 62.3381 74.4764C61.8608 74.269 61.4872 73.975 61.2173 73.5943C60.9474 73.2108 60.7983 72.7562 60.7699 72.2306H62.0909C62.1165 72.546 62.2188 72.8088 62.3977 73.019C62.5795 73.2264 62.8111 73.3812 63.0923 73.4835C63.3764 73.5829 63.6875 73.6326 64.0256 73.6326C64.3977 73.6326 64.7287 73.5744 65.0185 73.4579C65.3111 73.3386 65.5412 73.1738 65.7088 72.9636C65.8764 72.7505 65.9602 72.502 65.9602 72.2179C65.9602 71.9593 65.8864 71.7477 65.7386 71.5829C65.5938 71.4181 65.3963 71.2818 65.1463 71.1738C64.8991 71.0659 64.6193 70.9707 64.3068 70.8883L63.2756 70.6071C62.5767 70.4167 62.0227 70.1369 61.6136 69.7676C61.2074 69.3983 61.0043 68.9096 61.0043 68.3017C61.0043 67.7988 61.1406 67.3599 61.4134 66.9849C61.6861 66.6099 62.0554 66.3187 62.5213 66.1113C62.9872 65.9011 63.5128 65.796 64.098 65.796C64.6889 65.796 65.2102 65.8997 65.6619 66.1071C66.1165 66.3145 66.4744 66.6 66.7358 66.9636C66.9972 67.3244 67.1335 67.7392 67.1449 68.2079H65.875ZM72.8817 71.9281V68.0971H74.1602V74.6426H72.9073V73.5091H72.8391C72.6886 73.8585 72.4471 74.1497 72.1147 74.3826C71.7852 74.6127 71.3746 74.7278 70.8832 74.7278C70.4627 74.7278 70.0906 74.6355 69.7667 74.4508C69.4457 74.2633 69.1928 73.9863 69.0082 73.6199C68.8263 73.2534 68.7354 72.8002 68.7354 72.2605V68.0971H70.0096V72.1071C70.0096 72.5531 70.1332 72.9082 70.3803 73.1724C70.6275 73.4366 70.9485 73.5687 71.3434 73.5687C71.582 73.5687 71.8192 73.5091 72.055 73.3897C72.2937 73.2704 72.4911 73.09 72.6474 72.8485C72.8065 72.6071 72.8846 72.3002 72.8817 71.9281ZM75.8722 77.0971V68.0971H77.1165V69.1582H77.223C77.2969 69.0218 77.4034 68.8642 77.5426 68.6852C77.6818 68.5062 77.875 68.35 78.1222 68.2164C78.3693 68.0801 78.696 68.0119 79.1023 68.0119C79.6307 68.0119 80.1023 68.1454 80.517 68.4125C80.9318 68.6795 81.2571 69.0645 81.4929 69.5673C81.7315 70.0701 81.8509 70.6752 81.8509 71.3826C81.8509 72.09 81.733 72.6966 81.4972 73.2022C81.2614 73.7051 80.9375 74.0929 80.5256 74.3656C80.1136 74.6355 79.6435 74.7704 79.1151 74.7704C78.7173 74.7704 78.392 74.7037 78.1392 74.5701C77.8892 74.4366 77.6932 74.2804 77.5511 74.1014C77.4091 73.9224 77.2997 73.7633 77.223 73.6241H77.1463V77.0971H75.8722ZM77.1207 71.3699C77.1207 71.8301 77.1875 72.2335 77.321 72.5801C77.4545 72.9267 77.6477 73.198 77.9006 73.394C78.1534 73.5872 78.4631 73.6838 78.8295 73.6838C79.2102 73.6838 79.5284 73.5829 79.7841 73.3812C80.0398 73.1767 80.233 72.8997 80.3636 72.5502C80.4972 72.2008 80.5639 71.8074 80.5639 71.3699C80.5639 70.938 80.4986 70.5502 80.3679 70.2065C80.2401 69.8627 80.0469 69.5914 79.7884 69.3926C79.5327 69.1937 79.2131 69.0943 78.8295 69.0943C78.4602 69.0943 78.1477 69.1895 77.892 69.3798C77.6392 69.5701 77.4474 69.8358 77.3168 70.1767C77.1861 70.5176 77.1207 70.9153 77.1207 71.3699ZM83.2784 77.0971V68.0971H84.5227V69.1582H84.6293C84.7031 69.0218 84.8097 68.8642 84.9489 68.6852C85.0881 68.5062 85.2813 68.35 85.5284 68.2164C85.7756 68.0801 86.1023 68.0119 86.5085 68.0119C87.0369 68.0119 87.5085 68.1454 87.9233 68.4125C88.3381 68.6795 88.6634 69.0645 88.8991 69.5673C89.1378 70.0701 89.2571 70.6752 89.2571 71.3826C89.2571 72.09 89.1392 72.6966 88.9034 73.2022C88.6676 73.7051 88.3438 74.0929 87.9318 74.3656C87.5199 74.6355 87.0497 74.7704 86.5213 74.7704C86.1236 74.7704 85.7983 74.7037 85.5455 74.5701C85.2955 74.4366 85.0994 74.2804 84.9574 74.1014C84.8153 73.9224 84.706 73.7633 84.6293 73.6241H84.5526V77.0971H83.2784ZM84.527 71.3699C84.527 71.8301 84.5938 72.2335 84.7273 72.5801C84.8608 72.9267 85.054 73.198 85.3068 73.394C85.5597 73.5872 85.8693 73.6838 86.2358 73.6838C86.6165 73.6838 86.9347 73.5829 87.1903 73.3812C87.446 73.1767 87.6392 72.8997 87.7699 72.5502C87.9034 72.2008 87.9702 71.8074 87.9702 71.3699C87.9702 70.938 87.9048 70.5502 87.7741 70.2065C87.6463 69.8627 87.4531 69.5914 87.1946 69.3926C86.9389 69.1937 86.6193 69.0943 86.2358 69.0943C85.8665 69.0943 85.554 69.1895 85.2983 69.3798C85.0455 69.5701 84.8537 69.8358 84.723 70.1767C84.5923 70.5176 84.527 70.9153 84.527 71.3699ZM93.4418 74.7747C92.8281 74.7747 92.2926 74.6341 91.8352 74.3528C91.3778 74.0716 91.0227 73.6781 90.7699 73.1724C90.517 72.6667 90.3906 72.0758 90.3906 71.3997C90.3906 70.7207 90.517 70.127 90.7699 69.6184C91.0227 69.1099 91.3778 68.715 91.8352 68.4338C92.2926 68.1525 92.8281 68.0119 93.4418 68.0119C94.0554 68.0119 94.5909 68.1525 95.0483 68.4338C95.5057 68.715 95.8608 69.1099 96.1136 69.6184C96.3665 70.127 96.4929 70.7207 96.4929 71.3997C96.4929 72.0758 96.3665 72.6667 96.1136 73.1724C95.8608 73.6781 95.5057 74.0716 95.0483 74.3528C94.5909 74.6341 94.0554 74.7747 93.4418 74.7747ZM93.446 73.7051C93.8438 73.7051 94.1733 73.6 94.4347 73.3897C94.696 73.1795 94.8892 72.8997 95.0142 72.5502C95.142 72.2008 95.206 71.8159 95.206 71.3954C95.206 70.9778 95.142 70.5943 95.0142 70.2449C94.8892 69.8926 94.696 69.6099 94.4347 69.3968C94.1733 69.1838 93.8438 69.0772 93.446 69.0772C93.0455 69.0772 92.7131 69.1838 92.4489 69.3968C92.1875 69.6099 91.9929 69.8926 91.8651 70.2449C91.7401 70.5943 91.6776 70.9778 91.6776 71.3954C91.6776 71.8159 91.7401 72.2008 91.8651 72.5502C91.9929 72.8997 92.1875 73.1795 92.4489 73.3897C92.7131 73.6 93.0455 73.7051 93.446 73.7051ZM97.9151 74.6426V68.0971H99.1467V69.1369H99.2148C99.3342 68.7846 99.5444 68.5076 99.8455 68.3059C100.15 68.1014 100.493 67.9991 100.877 67.9991C100.956 67.9991 101.05 68.002 101.158 68.0076C101.269 68.0133 101.355 68.0204 101.418 68.0289V69.2477C101.367 69.2335 101.276 69.2179 101.145 69.2008C101.015 69.1809 100.884 69.171 100.753 69.171C100.452 69.171 100.184 69.2349 99.9478 69.3627C99.7148 69.4877 99.5302 69.6625 99.3938 69.8869C99.2575 70.1085 99.1893 70.3613 99.1893 70.6454V74.6426H97.9151ZM105.963 68.0971V69.1199H102.387V68.0971H105.963ZM103.346 66.5289H104.62V72.7207C104.62 72.9679 104.657 73.1539 104.731 73.2789C104.805 73.4011 104.9 73.4849 105.017 73.5304C105.136 73.573 105.265 73.5943 105.404 73.5943C105.507 73.5943 105.596 73.5872 105.673 73.573C105.75 73.5588 105.809 73.5474 105.852 73.5389L106.082 74.5914C106.008 74.6199 105.903 74.6483 105.767 74.6767C105.63 74.7079 105.46 74.725 105.255 74.7278C104.92 74.7335 104.608 74.6738 104.318 74.5488C104.028 74.4238 103.794 74.2306 103.615 73.9693C103.436 73.7079 103.346 73.3798 103.346 72.9849V66.5289Z" fill="white"/>
<line opacity="0.5" x1="1.83639" y1="105.578" x2="20.2003" y2="105.578" stroke="#828282" stroke-width="3.67277" stroke-linecap="round"/>
<line opacity="0.5" x1="29.015" y1="105.578" x2="47.3788" y2="105.578" stroke="#828282" stroke-width="3.67277" stroke-linecap="round"/>
<line opacity="0.5" x1="56.1934" y1="105.578" x2="74.5573" y2="105.578" stroke="#828282" stroke-width="3.67277" stroke-linecap="round"/>
<line opacity="0.5" x1="83.372" y1="105.578" x2="95.9761" y2="105.578" stroke="#828282" stroke-width="3.67277" stroke-linecap="round"/>
<line opacity="0.5" x1="104.791" y1="105.578" x2="123.155" y2="105.578" stroke="#828282" stroke-width="3.67277" stroke-linecap="round"/>
<line x1="0.734555" y1="116.68" x2="171.265" y2="116.68" stroke="#D3D3D3" stroke-width="1.46911" stroke-linecap="round"/>
<line x1="0.734555" y1="126.68" x2="139.528" y2="126.68" stroke="#D3D3D3" stroke-width="1.46911" stroke-linecap="round"/>
<line x1="0.734555" y1="136.68" x2="139.528" y2="136.68" stroke="#D3D3D3" stroke-width="1.46911" stroke-linecap="round"/>
<defs>
<clipPath id="clip0_1998_33757">
<rect width="15" height="15" fill="white" transform="translate(15 63.1426)"/>
</clipPath>
</defs>
</svg>
