<svg width="298" height="221" viewBox="0 0 298 221" fill="none" xmlns="http://www.w3.org/2000/svg">
<g filter="url(#filter0_d_1998_25296)">
<rect x="20" y="46.0723" width="258" height="151.114" rx="2.76429" fill="white" shape-rendering="crispEdges"/>
<rect x="19.5393" y="45.6116" width="258.921" height="152.036" rx="3.225" stroke="#E9E9E9" stroke-width="0.921429" shape-rendering="crispEdges"/>
<path d="M35.7996 75.658V66.9307H38.7485C39.4303 66.9307 39.99 67.0472 40.4275 67.2801C40.865 67.5102 41.1888 67.827 41.399 68.2304C41.6093 68.6338 41.7144 69.0926 41.7144 69.6068C41.7144 70.121 41.6093 70.577 41.399 70.9747C41.1888 71.3724 40.8664 71.6849 40.4317 71.9122C39.9971 72.1367 39.4417 72.2489 38.7655 72.2489H36.3792V71.2943H38.7314C39.1973 71.2943 39.5723 71.2261 39.8564 71.0898C40.1434 70.9534 40.3508 70.7602 40.4786 70.5102C40.6093 70.2574 40.6746 69.9563 40.6746 69.6068C40.6746 69.2574 40.6093 68.952 40.4786 68.6906C40.3479 68.4293 40.1391 68.2276 39.8522 68.0855C39.5652 67.9406 39.186 67.8682 38.7144 67.8682H36.8564V75.658H35.7996ZM39.9076 71.7375L42.0553 75.658H40.828L38.7144 71.7375H39.9076ZM47.464 72.9818V69.1125H48.4697V75.658H47.464V74.55H47.3959C47.2424 74.8824 47.0038 75.1651 46.6799 75.398C46.3561 75.6281 45.947 75.7432 45.4527 75.7432C45.0436 75.7432 44.6799 75.6537 44.3618 75.4747C44.0436 75.2929 43.7936 75.0202 43.6118 74.6565C43.4299 74.2901 43.339 73.8284 43.339 73.2716V69.1125H44.3447V73.2034C44.3447 73.6807 44.4782 74.0614 44.7453 74.3455C45.0152 74.6295 45.3589 74.7716 45.7765 74.7716C46.0265 74.7716 46.2808 74.7077 46.5393 74.5798C46.8007 74.452 47.0194 74.256 47.1956 73.9918C47.3745 73.7276 47.464 73.3909 47.464 72.9818ZM51.3174 71.7205V75.658H50.3117V69.1125H51.2833V70.1352H51.3685C51.5219 69.8028 51.7549 69.5358 52.0674 69.3341C52.3799 69.1295 52.7833 69.0273 53.2776 69.0273C53.7208 69.0273 54.1086 69.1182 54.441 69.3C54.7733 69.479 55.0319 69.7517 55.2165 70.1182C55.4012 70.4818 55.4935 70.942 55.4935 71.4989V75.658H54.4878V71.567C54.4878 71.0528 54.3543 70.6523 54.0873 70.3653C53.8202 70.0756 53.4537 69.9307 52.9878 69.9307C52.6668 69.9307 52.3799 70.0003 52.127 70.1395C51.877 70.2787 51.6796 70.4818 51.5347 70.7489C51.3898 71.0159 51.3174 71.3398 51.3174 71.7205ZM58.3369 71.7205V75.658H57.3312V69.1125H58.3028V70.1352H58.388C58.5414 69.8028 58.7744 69.5358 59.0869 69.3341C59.3994 69.1295 59.8028 69.0273 60.2971 69.0273C60.7403 69.0273 61.1281 69.1182 61.4605 69.3C61.7929 69.479 62.0514 69.7517 62.2361 70.1182C62.4207 70.4818 62.513 70.942 62.513 71.4989V75.658H61.5074V71.567C61.5074 71.0528 61.3738 70.6523 61.1068 70.3653C60.8397 70.0756 60.4733 69.9307 60.0074 69.9307C59.6863 69.9307 59.3994 70.0003 59.1466 70.1395C58.8966 70.2787 58.6991 70.4818 58.5542 70.7489C58.4093 71.0159 58.3369 71.3398 58.3369 71.7205ZM64.3508 75.658V69.1125H65.3564V75.658H64.3508ZM64.8621 68.0216C64.6661 68.0216 64.4971 67.9548 64.355 67.8213C64.2158 67.6878 64.1462 67.5273 64.1462 67.3398C64.1462 67.1523 64.2158 66.9918 64.355 66.8582C64.4971 66.7247 64.6661 66.658 64.8621 66.658C65.0581 66.658 65.2258 66.7247 65.365 66.8582C65.507 66.9918 65.578 67.1523 65.578 67.3398C65.578 67.5273 65.507 67.6878 65.365 67.8213C65.2258 67.9548 65.0581 68.0216 64.8621 68.0216ZM68.2041 71.7205V75.658H67.1984V69.1125H68.17V70.1352H68.2552C68.4086 69.8028 68.6416 69.5358 68.9541 69.3341C69.2666 69.1295 69.67 69.0273 70.1643 69.0273C70.6075 69.0273 70.9953 69.1182 71.3277 69.3C71.6601 69.479 71.9186 69.7517 72.1032 70.1182C72.2879 70.4818 72.3802 70.942 72.3802 71.4989V75.658H71.3745V71.567C71.3745 71.0528 71.241 70.6523 70.974 70.3653C70.7069 70.0756 70.3405 69.9307 69.8745 69.9307C69.5535 69.9307 69.2666 70.0003 69.0137 70.1395C68.7637 70.2787 68.5663 70.4818 68.4214 70.7489C68.2765 71.0159 68.2041 71.3398 68.2041 71.7205ZM76.86 78.2489C76.3742 78.2489 75.9566 78.1864 75.6071 78.0614C75.2577 77.9392 74.9665 77.7773 74.7336 77.5756C74.5035 77.3767 74.3202 77.1636 74.1838 76.9364L74.985 76.3739C75.0759 76.4932 75.191 76.6295 75.3302 76.783C75.4694 76.9392 75.6597 77.0742 75.9012 77.1878C76.1455 77.3043 76.4651 77.3625 76.86 77.3625C77.3884 77.3625 77.8245 77.2347 78.1682 76.979C78.512 76.7233 78.6838 76.3227 78.6838 75.7773V74.4477H78.5986C78.5248 74.567 78.4196 74.7148 78.2833 74.8909C78.1498 75.0642 77.9566 75.219 77.7037 75.3554C77.4537 75.4889 77.1157 75.5557 76.6895 75.5557C76.1611 75.5557 75.6867 75.4307 75.2662 75.1807C74.8486 74.9307 74.5177 74.567 74.2733 74.0898C74.0319 73.6125 73.9111 73.033 73.9111 72.3511C73.9111 71.6807 74.029 71.0969 74.2648 70.5997C74.5006 70.0997 74.8287 69.7134 75.2492 69.4406C75.6696 69.1651 76.1554 69.0273 76.7066 69.0273C77.1327 69.0273 77.4708 69.0983 77.7208 69.2403C77.9736 69.3795 78.1668 69.5386 78.3003 69.7176C78.4367 69.8938 78.5418 70.0386 78.6157 70.1523H78.7179V69.1125H79.6895V75.8455C79.6895 76.408 79.5617 76.8653 79.306 77.2176C79.0532 77.5727 78.7123 77.8327 78.2833 77.9974C77.8571 78.1651 77.3827 78.2489 76.86 78.2489ZM76.8259 74.6523C77.2293 74.6523 77.5702 74.5599 77.8486 74.3753C78.127 74.1906 78.3387 73.925 78.4836 73.5784C78.6285 73.2318 78.7009 72.817 78.7009 72.3341C78.7009 71.8625 78.6299 71.4463 78.4878 71.0855C78.3458 70.7247 78.1356 70.442 77.8571 70.2375C77.5787 70.033 77.235 69.9307 76.8259 69.9307C76.3998 69.9307 76.0446 70.0386 75.7606 70.2545C75.4793 70.4705 75.2677 70.7602 75.1256 71.1239C74.9864 71.4875 74.9168 71.8909 74.9168 72.3341C74.9168 72.7886 74.9878 73.1906 75.1299 73.5401C75.2748 73.8867 75.4878 74.1594 75.7691 74.3582C76.0532 74.5543 76.4054 74.6523 76.8259 74.6523Z" fill="#828282"/>
<path d="M89.8145 69.1125C89.7634 68.6807 89.556 68.3455 89.1924 68.1068C88.8287 67.8682 88.3827 67.7489 87.8543 67.7489C87.4679 67.7489 87.1299 67.8114 86.8401 67.9364C86.5532 68.0614 86.3287 68.2332 86.1668 68.452C86.0077 68.6707 85.9282 68.9193 85.9282 69.1977C85.9282 69.4307 85.9836 69.631 86.0944 69.7986C86.208 69.9634 86.3529 70.1011 86.529 70.2119C86.7052 70.3199 86.8898 70.4094 87.083 70.4804C87.2762 70.5486 87.4537 70.604 87.6157 70.6466L88.502 70.8852C88.7293 70.9449 88.9821 71.0273 89.2606 71.1324C89.5418 71.2375 89.8103 71.381 90.066 71.5628C90.3245 71.7418 90.5375 71.9719 90.7052 72.2531C90.8728 72.5344 90.9566 72.8795 90.9566 73.2886C90.9566 73.7602 90.833 74.1864 90.5858 74.567C90.3415 74.9477 89.9836 75.2503 89.512 75.4747C89.0432 75.6992 88.4736 75.8114 87.8032 75.8114C87.1782 75.8114 86.637 75.7105 86.1796 75.5088C85.725 75.3071 85.3671 75.0259 85.1057 74.6651C84.8472 74.3043 84.7009 73.8852 84.6668 73.408H85.7577C85.7861 73.7375 85.8969 74.0102 86.0901 74.2261C86.2861 74.4392 86.5333 74.5983 86.8316 74.7034C87.1327 74.8057 87.4566 74.8568 87.8032 74.8568C88.2066 74.8568 88.5688 74.7915 88.8898 74.6608C89.2108 74.5273 89.4651 74.3426 89.6526 74.1068C89.8401 73.8682 89.9338 73.5898 89.9338 73.2716C89.9338 72.9818 89.8529 72.746 89.691 72.5642C89.529 72.3824 89.316 72.2347 89.0517 72.121C88.7875 72.0074 88.502 71.908 88.1952 71.8227L87.1213 71.5159C86.4395 71.3199 85.8998 71.0401 85.502 70.6764C85.1043 70.3128 84.9054 69.8369 84.9054 69.2489C84.9054 68.7602 85.0375 68.3341 85.3017 67.9705C85.5688 67.604 85.9267 67.3199 86.3756 67.1182C86.8273 66.9136 87.3316 66.8114 87.8884 66.8114C88.4509 66.8114 88.9509 66.9122 89.3884 67.1139C89.8259 67.3128 90.1725 67.5855 90.4282 67.9321C90.6867 68.2787 90.8231 68.6722 90.8373 69.1125H89.8145ZM93.5635 71.7205V75.658H92.5578V66.9307H93.5635V70.1352H93.6487C93.8021 69.7972 94.0322 69.5287 94.339 69.3298C94.6487 69.1281 95.0606 69.0273 95.5748 69.0273C96.0209 69.0273 96.4115 69.1168 96.7467 69.2957C97.0819 69.4719 97.3419 69.7432 97.5265 70.1097C97.714 70.4733 97.8078 70.9364 97.8078 71.4989V75.658H96.8021V71.567C96.8021 71.0472 96.6672 70.6452 96.3973 70.3611C96.1302 70.0742 95.7595 69.9307 95.2851 69.9307C94.9555 69.9307 94.6601 70.0003 94.3987 70.1395C94.1402 70.2787 93.9356 70.4818 93.7851 70.7489C93.6373 71.0159 93.5635 71.3398 93.5635 71.7205ZM102.307 75.7943C101.716 75.7943 101.197 75.6537 100.751 75.3724C100.308 75.0912 99.9615 74.6977 99.7115 74.192C99.4644 73.6864 99.3408 73.0955 99.3408 72.4193C99.3408 71.7375 99.4644 71.1423 99.7115 70.6338C99.9615 70.1253 100.308 69.7304 100.751 69.4492C101.197 69.1679 101.716 69.0273 102.307 69.0273C102.898 69.0273 103.415 69.1679 103.858 69.4492C104.304 69.7304 104.65 70.1253 104.898 70.6338C105.148 71.1423 105.273 71.7375 105.273 72.4193C105.273 73.0955 105.148 73.6864 104.898 74.192C104.65 74.6977 104.304 75.0912 103.858 75.3724C103.415 75.6537 102.898 75.7943 102.307 75.7943ZM102.307 74.8909C102.756 74.8909 103.125 74.7759 103.415 74.5457C103.704 74.3156 103.919 74.0131 104.058 73.6381C104.197 73.2631 104.267 72.8568 104.267 72.4193C104.267 71.9818 104.197 71.5742 104.058 71.1963C103.919 70.8185 103.704 70.5131 103.415 70.2801C103.125 70.0472 102.756 69.9307 102.307 69.9307C101.858 69.9307 101.489 70.0472 101.199 70.2801C100.909 70.5131 100.695 70.8185 100.555 71.1963C100.416 71.5742 100.346 71.9818 100.346 72.4193C100.346 72.8568 100.416 73.2631 100.555 73.6381C100.695 74.0131 100.909 74.3156 101.199 74.5457C101.489 74.7759 101.858 74.8909 102.307 74.8909ZM109.552 75.7943C108.921 75.7943 108.377 75.6551 107.92 75.3767C107.465 75.0955 107.115 74.7034 106.867 74.2006C106.623 73.6949 106.501 73.1068 106.501 72.4364C106.501 71.7659 106.623 71.175 106.867 70.6636C107.115 70.1494 107.458 69.7489 107.899 69.4619C108.342 69.1722 108.859 69.0273 109.45 69.0273C109.791 69.0273 110.127 69.0841 110.46 69.1977C110.792 69.3114 111.095 69.496 111.367 69.7517C111.64 70.0045 111.857 70.3398 112.019 70.7574C112.181 71.175 112.262 71.6892 112.262 72.3V72.7261H107.217V71.8568H111.24C111.24 71.4875 111.166 71.158 111.018 70.8682C110.873 70.5784 110.666 70.3497 110.396 70.1821C110.129 70.0145 109.813 69.9307 109.45 69.9307C109.049 69.9307 108.703 70.0301 108.41 70.229C108.12 70.425 107.897 70.6807 107.741 70.996C107.585 71.3114 107.507 71.6494 107.507 72.0102V72.5898C107.507 73.0841 107.592 73.5031 107.762 73.8469C107.936 74.1878 108.176 74.4477 108.482 74.6267C108.789 74.8028 109.146 74.8909 109.552 74.8909C109.816 74.8909 110.055 74.854 110.268 74.7801C110.484 74.7034 110.67 74.5898 110.826 74.4392C110.982 74.2858 111.103 74.0955 111.188 73.8682L112.16 74.1409C112.058 74.4705 111.886 74.7602 111.644 75.0102C111.403 75.2574 111.105 75.4506 110.75 75.5898C110.394 75.7261 109.995 75.7943 109.552 75.7943Z" fill="#25252D"/>
<rect width="258" height="31.7429" transform="translate(20 87.0293)" fill="#EFEAFF"/>
<path d="M40.5723 100.855C40.5212 100.424 40.3138 100.088 39.9502 99.8497C39.5865 99.6111 39.1405 99.4918 38.6121 99.4918C38.2258 99.4918 37.8877 99.5543 37.5979 99.6793C37.311 99.8043 37.0865 99.9762 36.9246 100.195C36.7655 100.414 36.686 100.662 36.686 100.941C36.686 101.174 36.7414 101.374 36.8522 101.542C36.9658 101.706 37.1107 101.844 37.2868 101.955C37.463 102.063 37.6476 102.152 37.8408 102.223C38.034 102.292 38.2115 102.347 38.3735 102.39L39.2598 102.628C39.4871 102.688 39.74 102.77 40.0184 102.875C40.2996 102.98 40.5681 103.124 40.8238 103.306C41.0823 103.485 41.2954 103.715 41.463 103.996C41.6306 104.277 41.7144 104.622 41.7144 105.032C41.7144 105.503 41.5908 105.929 41.3437 106.31C41.0993 106.691 40.7414 106.993 40.2698 107.218C39.801 107.442 39.2314 107.554 38.561 107.554C37.936 107.554 37.3948 107.453 36.9374 107.252C36.4829 107.05 36.1249 106.769 35.8635 106.408C35.605 106.047 35.4587 105.628 35.4246 105.151H36.5155C36.5439 105.48 36.6547 105.753 36.8479 105.969C37.0439 106.182 37.2911 106.341 37.5894 106.446C37.8905 106.549 38.2144 106.6 38.561 106.6C38.9644 106.6 39.3266 106.534 39.6476 106.404C39.9687 106.27 40.2229 106.086 40.4104 105.85C40.5979 105.611 40.6917 105.333 40.6917 105.015C40.6917 104.725 40.6107 104.489 40.4488 104.307C40.2868 104.125 40.0738 103.978 39.8096 103.864C39.5454 103.75 39.2598 103.651 38.953 103.566L37.8792 103.259C37.1973 103.063 36.6576 102.783 36.2598 102.419C35.8621 102.056 35.6633 101.58 35.6633 100.992C35.6633 100.503 35.7954 100.077 36.0596 99.7134C36.3266 99.3469 36.6846 99.0628 37.1334 98.8611C37.5851 98.6566 38.0894 98.5543 38.6462 98.5543C39.2087 98.5543 39.7087 98.6551 40.1462 98.8568C40.5837 99.0557 40.9303 99.3284 41.186 99.675C41.4445 100.022 41.5809 100.415 41.5951 100.855H40.5723ZM43.3156 109.855V100.855H44.2872V101.895H44.4065C44.4804 101.782 44.5826 101.637 44.7133 101.461C44.8468 101.282 45.0372 101.122 45.2843 100.983C45.5343 100.841 45.8724 100.77 46.2986 100.77C46.8497 100.77 47.3355 100.908 47.7559 101.184C48.1764 101.459 48.5045 101.85 48.7403 102.355C48.9761 102.861 49.094 103.458 49.094 104.145C49.094 104.838 48.9761 105.439 48.7403 105.948C48.5045 106.453 48.1778 106.845 47.7602 107.124C47.3426 107.399 46.8611 107.537 46.3156 107.537C45.8951 107.537 45.5585 107.468 45.3057 107.328C45.0528 107.186 44.8582 107.026 44.7218 106.847C44.5855 106.665 44.4804 106.515 44.4065 106.395H44.3213V109.855H43.3156ZM44.3042 104.128C44.3042 104.622 44.3767 105.059 44.5216 105.436C44.6664 105.811 44.8781 106.105 45.1565 106.318C45.4349 106.529 45.7758 106.634 46.1792 106.634C46.5997 106.634 46.9505 106.523 47.2318 106.301C47.5159 106.077 47.7289 105.776 47.871 105.398C48.0159 105.017 48.0883 104.594 48.0883 104.128C48.0883 103.668 48.0173 103.253 47.8753 102.884C47.7361 102.512 47.5244 102.218 47.2403 102.002C46.9591 101.783 46.6054 101.674 46.1792 101.674C45.7701 101.674 45.4264 101.777 45.148 101.985C44.8696 102.189 44.6593 102.476 44.5173 102.845C44.3753 103.212 44.3042 103.64 44.3042 104.128ZM53.2872 107.537C52.6963 107.537 52.1778 107.397 51.7318 107.115C51.2886 106.834 50.942 106.441 50.692 105.935C50.4449 105.429 50.3213 104.838 50.3213 104.162C50.3213 103.48 50.4449 102.885 50.692 102.377C50.942 101.868 51.2886 101.473 51.7318 101.192C52.1778 100.911 52.6963 100.77 53.2872 100.77C53.8781 100.77 54.3951 100.911 54.8383 101.192C55.2843 101.473 55.6309 101.868 55.8781 102.377C56.1281 102.885 56.2531 103.48 56.2531 104.162C56.2531 104.838 56.1281 105.429 55.8781 105.935C55.6309 106.441 55.2843 106.834 54.8383 107.115C54.3951 107.397 53.8781 107.537 53.2872 107.537ZM53.2872 106.634C53.7361 106.634 54.1054 106.519 54.3951 106.289C54.6849 106.059 54.8994 105.756 55.0386 105.381C55.1778 105.006 55.2474 104.6 55.2474 104.162C55.2474 103.725 55.1778 103.317 55.0386 102.939C54.8994 102.561 54.6849 102.256 54.3951 102.023C54.1054 101.79 53.7361 101.674 53.2872 101.674C52.8383 101.674 52.469 101.79 52.1792 102.023C51.8895 102.256 51.675 102.561 51.5358 102.939C51.3966 103.317 51.327 103.725 51.327 104.162C51.327 104.6 51.3966 105.006 51.5358 105.381C51.675 105.756 51.8895 106.059 52.1792 106.289C52.469 106.519 52.8383 106.634 53.2872 106.634ZM57.7883 107.401V100.855H58.7598V101.844H58.828C58.9473 101.52 59.1633 101.257 59.4758 101.056C59.7883 100.854 60.1405 100.753 60.5326 100.753C60.6064 100.753 60.6988 100.755 60.8096 100.757C60.9204 100.76 61.0042 100.765 61.061 100.77V101.793C61.0269 101.784 60.9488 101.772 60.8266 101.755C60.7073 101.735 60.5809 101.725 60.4473 101.725C60.1292 101.725 59.8451 101.792 59.5951 101.925C59.3479 102.056 59.1519 102.238 59.007 102.47C58.865 102.701 58.7939 102.963 58.7939 103.259V107.401H57.7883ZM65.5098 100.855V101.708H62.1178V100.855H65.5098ZM63.1064 99.2872H64.1121V105.526C64.1121 105.81 64.1533 106.023 64.2357 106.165C64.3209 106.304 64.4289 106.398 64.5596 106.446C64.6931 106.492 64.8337 106.515 64.9814 106.515C65.0922 106.515 65.1831 106.509 65.2542 106.497C65.3252 106.483 65.382 106.472 65.4246 106.463L65.6292 107.367C65.561 107.392 65.4658 107.418 65.3437 107.443C65.2215 107.472 65.0667 107.486 64.8792 107.486C64.5951 107.486 64.3167 107.425 64.0439 107.303C63.774 107.181 63.5496 106.995 63.3706 106.745C63.1945 106.495 63.1064 106.179 63.1064 105.799V99.2872ZM71.5418 102.321L70.6384 102.577C70.5816 102.426 70.4978 102.28 70.387 102.138C70.279 101.993 70.1313 101.874 69.9438 101.78C69.7563 101.686 69.5162 101.64 69.2236 101.64C68.8231 101.64 68.4892 101.732 68.2222 101.917C67.958 102.098 67.8259 102.33 67.8259 102.611C67.8259 102.861 67.9168 103.059 68.0986 103.203C68.2804 103.348 68.5645 103.469 68.9509 103.566L69.9225 103.804C70.5077 103.946 70.9438 104.164 71.2307 104.456C71.5177 104.746 71.6611 105.12 71.6611 105.577C71.6611 105.952 71.5532 106.287 71.3373 106.583C71.1242 106.878 70.8259 107.111 70.4424 107.282C70.0588 107.452 69.6128 107.537 69.1043 107.537C68.4367 107.537 67.8841 107.392 67.4466 107.103C67.0091 106.813 66.7321 106.39 66.6157 105.833L67.5702 105.594C67.6611 105.946 67.833 106.211 68.0858 106.387C68.3415 106.563 68.6753 106.651 69.0873 106.651C69.556 106.651 69.9282 106.551 70.2037 106.353C70.4821 106.151 70.6213 105.909 70.6213 105.628C70.6213 105.401 70.5418 105.211 70.3827 105.057C70.2236 104.901 69.9793 104.784 69.6498 104.708L68.5588 104.452C67.9594 104.31 67.5191 104.09 67.2378 103.792C66.9594 103.49 66.8202 103.114 66.8202 102.662C66.8202 102.293 66.9239 101.966 67.1313 101.682C67.3415 101.398 67.627 101.175 67.9878 101.013C68.3515 100.851 68.7634 100.77 69.2236 100.77C69.8713 100.77 70.3799 100.912 70.7492 101.196C71.1213 101.48 71.3856 101.855 71.5418 102.321ZM81.4591 100.855C81.4079 100.424 81.2005 100.088 80.8369 99.8497C80.4733 99.6111 80.0272 99.4918 79.4988 99.4918C79.1125 99.4918 78.7744 99.5543 78.4846 99.6793C78.1977 99.8043 77.9733 99.9762 77.8113 100.195C77.6522 100.414 77.5727 100.662 77.5727 100.941C77.5727 101.174 77.6281 101.374 77.7389 101.542C77.8525 101.706 77.9974 101.844 78.1736 101.955C78.3497 102.063 78.5343 102.152 78.7275 102.223C78.9207 102.292 79.0983 102.347 79.2602 102.39L80.1466 102.628C80.3738 102.688 80.6267 102.77 80.9051 102.875C81.1863 102.98 81.4548 103.124 81.7105 103.306C81.969 103.485 82.1821 103.715 82.3497 103.996C82.5173 104.277 82.6011 104.622 82.6011 105.032C82.6011 105.503 82.4775 105.929 82.2304 106.31C81.9861 106.691 81.6281 106.993 81.1565 107.218C80.6878 107.442 80.1182 107.554 79.4477 107.554C78.8227 107.554 78.2815 107.453 77.8241 107.252C77.3696 107.05 77.0116 106.769 76.7503 106.408C76.4917 106.047 76.3454 105.628 76.3113 105.151H77.4022C77.4307 105.48 77.5414 105.753 77.7346 105.969C77.9307 106.182 78.1778 106.341 78.4761 106.446C78.7772 106.549 79.1011 106.6 79.4477 106.6C79.8511 106.6 80.2133 106.534 80.5343 106.404C80.8554 106.27 81.1096 106.086 81.2971 105.85C81.4846 105.611 81.5784 105.333 81.5784 105.015C81.5784 104.725 81.4974 104.489 81.3355 104.307C81.1736 104.125 80.9605 103.978 80.6963 103.864C80.4321 103.75 80.1466 103.651 79.8397 103.566L78.7659 103.259C78.0841 103.063 77.5443 102.783 77.1466 102.419C76.7488 102.056 76.55 101.58 76.55 100.992C76.55 100.503 76.6821 100.077 76.9463 99.7134C77.2133 99.3469 77.5713 99.0628 78.0201 98.8611C78.4718 98.6566 78.9761 98.5543 79.5329 98.5543C80.0954 98.5543 80.5954 98.6551 81.0329 98.8568C81.4704 99.0557 81.817 99.3284 82.0727 99.675C82.3312 100.022 82.4676 100.415 82.4818 100.855H81.4591ZM85.208 103.463V107.401H84.2023V98.6736H85.208V101.878H85.2932C85.4466 101.54 85.6767 101.272 85.9836 101.073C86.2932 100.871 86.7052 100.77 87.2194 100.77C87.6654 100.77 88.056 100.86 88.3912 101.039C88.7265 101.215 88.9864 101.486 89.1711 101.853C89.3586 102.216 89.4523 102.679 89.4523 103.242V107.401H88.4466V103.31C88.4466 102.79 88.3117 102.388 88.0418 102.104C87.7748 101.817 87.404 101.674 86.9296 101.674C86.6 101.674 86.3046 101.743 86.0432 101.882C85.7847 102.022 85.5802 102.225 85.4296 102.492C85.2819 102.759 85.208 103.083 85.208 103.463ZM93.9512 107.537C93.3603 107.537 92.8419 107.397 92.3959 107.115C91.9527 106.834 91.6061 106.441 91.3561 105.935C91.1089 105.429 90.9853 104.838 90.9853 104.162C90.9853 103.48 91.1089 102.885 91.3561 102.377C91.6061 101.868 91.9527 101.473 92.3959 101.192C92.8419 100.911 93.3603 100.77 93.9512 100.77C94.5422 100.77 95.0592 100.911 95.5024 101.192C95.9484 101.473 96.295 101.868 96.5422 102.377C96.7922 102.885 96.9172 103.48 96.9172 104.162C96.9172 104.838 96.7922 105.429 96.5422 105.935C96.295 106.441 95.9484 106.834 95.5024 107.115C95.0592 107.397 94.5422 107.537 93.9512 107.537ZM93.9512 106.634C94.4001 106.634 94.7694 106.519 95.0592 106.289C95.349 106.059 95.5635 105.756 95.7027 105.381C95.8419 105.006 95.9115 104.6 95.9115 104.162C95.9115 103.725 95.8419 103.317 95.7027 102.939C95.5635 102.561 95.349 102.256 95.0592 102.023C94.7694 101.79 94.4001 101.674 93.9512 101.674C93.5024 101.674 93.1331 101.79 92.8433 102.023C92.5535 102.256 92.339 102.561 92.1998 102.939C92.0606 103.317 91.991 103.725 91.991 104.162C91.991 104.6 92.0606 105.006 92.1998 105.381C92.339 105.756 92.5535 106.059 92.8433 106.289C93.1331 106.519 93.5024 106.634 93.9512 106.634ZM101.197 107.537C100.566 107.537 100.022 107.398 99.5645 107.12C99.11 106.838 98.7591 106.446 98.512 105.943C98.2677 105.438 98.1455 104.85 98.1455 104.179C98.1455 103.509 98.2677 102.918 98.512 102.407C98.7591 101.892 99.1029 101.492 99.5432 101.205C99.9864 100.915 100.503 100.77 101.094 100.77C101.435 100.77 101.772 100.827 102.104 100.941C102.437 101.054 102.739 101.239 103.012 101.495C103.285 101.747 103.502 102.083 103.664 102.5C103.826 102.918 103.907 103.432 103.907 104.043V104.469H98.8614V103.6H102.884C102.884 103.23 102.81 102.901 102.663 102.611C102.518 102.321 102.31 102.093 102.04 101.925C101.773 101.757 101.458 101.674 101.094 101.674C100.694 101.674 100.347 101.773 100.055 101.972C99.7648 102.168 99.5418 102.424 99.3856 102.739C99.2293 103.054 99.1512 103.392 99.1512 103.753V104.333C99.1512 104.827 99.2364 105.246 99.4069 105.59C99.5802 105.931 99.8202 106.191 100.127 106.37C100.434 106.546 100.79 106.634 101.197 106.634C101.461 106.634 101.699 106.597 101.913 106.523C102.128 106.446 102.315 106.333 102.471 106.182C102.627 106.029 102.748 105.838 102.833 105.611L103.805 105.884C103.702 106.213 103.53 106.503 103.289 106.753C103.047 107 102.749 107.193 102.394 107.333C102.039 107.469 101.64 107.537 101.197 107.537Z" fill="#461ACA"/>
<path d="M35.7996 139.144V130.416H36.8564V138.206H40.9133V139.144H35.7996ZM45.1576 139.28C44.5269 139.28 43.9829 139.141 43.5255 138.862C43.0709 138.581 42.7201 138.189 42.4729 137.686C42.2286 137.18 42.1064 136.592 42.1064 135.922C42.1064 135.252 42.2286 134.661 42.4729 134.149C42.7201 133.635 43.0638 133.234 43.5042 132.948C43.9473 132.658 44.4644 132.513 45.0553 132.513C45.3962 132.513 45.7329 132.57 46.0652 132.683C46.3976 132.797 46.7002 132.982 46.9729 133.237C47.2456 133.49 47.463 133.825 47.6249 134.243C47.7868 134.661 47.8678 135.175 47.8678 135.786V136.212H42.8223V135.342H46.8451C46.8451 134.973 46.7712 134.644 46.6235 134.354C46.4786 134.064 46.2712 133.835 46.0013 133.668C45.7343 133.5 45.4189 133.416 45.0553 133.416C44.6547 133.416 44.3081 133.516 44.0155 133.715C43.7258 133.911 43.5027 134.166 43.3465 134.482C43.1902 134.797 43.1121 135.135 43.1121 135.496V136.075C43.1121 136.57 43.1973 136.989 43.3678 137.332C43.5411 137.673 43.7812 137.933 44.088 138.112C44.3948 138.288 44.7513 138.377 45.1576 138.377C45.4218 138.377 45.6604 138.34 45.8735 138.266C46.0894 138.189 46.2755 138.075 46.4317 137.925C46.588 137.771 46.7087 137.581 46.7939 137.354L47.7655 137.627C47.6633 137.956 47.4914 138.246 47.2499 138.496C47.0084 138.743 46.7101 138.936 46.355 139.075C45.9999 139.212 45.6008 139.28 45.1576 139.28ZM51.3238 139.297C50.909 139.297 50.5326 139.219 50.1945 139.063C49.8564 138.903 49.588 138.675 49.3891 138.377C49.1902 138.075 49.0908 137.712 49.0908 137.286C49.0908 136.911 49.1647 136.607 49.3124 136.374C49.4601 136.138 49.6576 135.953 49.9047 135.82C50.1519 135.686 50.4246 135.587 50.7229 135.521C51.024 135.453 51.3266 135.399 51.6306 135.359C52.0283 135.308 52.3508 135.27 52.5979 135.244C52.8479 135.216 53.0297 135.169 53.1434 135.104C53.2598 135.038 53.3181 134.925 53.3181 134.763V134.729C53.3181 134.308 53.203 133.982 52.9729 133.749C52.7456 133.516 52.4005 133.399 51.9374 133.399C51.4573 133.399 51.0809 133.504 50.8081 133.715C50.5354 133.925 50.3437 134.149 50.2329 134.388L49.2783 134.047C49.4488 133.649 49.676 133.34 49.9601 133.118C50.2471 132.894 50.5596 132.737 50.8976 132.649C51.2385 132.558 51.5738 132.513 51.9033 132.513C52.1135 132.513 52.355 132.538 52.6277 132.59C52.9033 132.638 53.1689 132.739 53.4246 132.892C53.6831 133.046 53.8976 133.277 54.0681 133.587C54.2385 133.896 54.3238 134.311 54.3238 134.831V139.144H53.3181V138.257H53.2669C53.1988 138.399 53.0851 138.551 52.926 138.713C52.7669 138.875 52.5553 139.013 52.2911 139.127C52.0269 139.24 51.7044 139.297 51.3238 139.297ZM51.4772 138.394C51.8749 138.394 52.2101 138.315 52.4829 138.159C52.7584 138.003 52.9658 137.801 53.105 137.554C53.2471 137.307 53.3181 137.047 53.3181 136.774V135.854C53.2755 135.905 53.1817 135.952 53.0368 135.994C52.8948 136.034 52.73 136.07 52.5425 136.101C52.3579 136.129 52.1775 136.155 52.0013 136.178C51.828 136.198 51.6874 136.215 51.5794 136.229C51.3181 136.263 51.0738 136.318 50.8465 136.395C50.6221 136.469 50.4402 136.581 50.301 136.732C50.1647 136.879 50.0965 137.081 50.0965 137.337C50.0965 137.686 50.2258 137.95 50.4843 138.129C50.7456 138.305 51.0766 138.394 51.4772 138.394ZM59.0059 132.598V133.45H55.6139V132.598H59.0059ZM56.6025 131.03H57.6082V137.269C57.6082 137.553 57.6494 137.766 57.7318 137.908C57.817 138.047 57.925 138.141 58.0557 138.189C58.1892 138.234 58.3298 138.257 58.4775 138.257C58.5883 138.257 58.6792 138.252 58.7503 138.24C58.8213 138.226 58.8781 138.215 58.9207 138.206L59.1253 139.109C59.0571 139.135 58.9619 139.161 58.8397 139.186C58.7176 139.215 58.5628 139.229 58.3753 139.229C58.0912 139.229 57.8128 139.168 57.54 139.046C57.2701 138.923 57.0457 138.737 56.8667 138.487C56.6906 138.237 56.6025 137.922 56.6025 137.541V131.03ZM61.665 135.206V139.144H60.6593V130.416H61.665V133.621H61.7503C61.9037 133.283 62.1338 133.014 62.4406 132.815C62.7503 132.614 63.1622 132.513 63.6764 132.513C64.1224 132.513 64.513 132.602 64.8483 132.781C65.1835 132.957 65.4434 133.229 65.6281 133.595C65.8156 133.959 65.9093 134.422 65.9093 134.984V139.144H64.9037V135.053C64.9037 134.533 64.7687 134.131 64.4988 133.847C64.2318 133.56 63.8611 133.416 63.3866 133.416C63.0571 133.416 62.7616 133.486 62.5003 133.625C62.2417 133.764 62.0372 133.967 61.8866 134.234C61.7389 134.502 61.665 134.825 61.665 135.206ZM70.4935 139.28C69.8628 139.28 69.3188 139.141 68.8614 138.862C68.4069 138.581 68.056 138.189 67.8088 137.686C67.5645 137.18 67.4424 136.592 67.4424 135.922C67.4424 135.252 67.5645 134.661 67.8088 134.149C68.056 133.635 68.3998 133.234 68.8401 132.948C69.2833 132.658 69.8003 132.513 70.3912 132.513C70.7321 132.513 71.0688 132.57 71.4012 132.683C71.7336 132.797 72.0361 132.982 72.3088 133.237C72.5816 133.49 72.7989 133.825 72.9608 134.243C73.1228 134.661 73.2037 135.175 73.2037 135.786V136.212H68.1583V135.342H72.181C72.181 134.973 72.1071 134.644 71.9594 134.354C71.8145 134.064 71.6071 133.835 71.3373 133.668C71.0702 133.5 70.7549 133.416 70.3912 133.416C69.9907 133.416 69.6441 133.516 69.3515 133.715C69.0617 133.911 68.8387 134.166 68.6824 134.482C68.5262 134.797 68.4481 135.135 68.4481 135.496V136.075C68.4481 136.57 68.5333 136.989 68.7037 137.332C68.877 137.673 69.1171 137.933 69.4239 138.112C69.7307 138.288 70.0873 138.377 70.4935 138.377C70.7577 138.377 70.9963 138.34 71.2094 138.266C71.4253 138.189 71.6114 138.075 71.7677 137.925C71.9239 137.771 72.0446 137.581 72.1299 137.354L73.1015 137.627C72.9992 137.956 72.8273 138.246 72.5858 138.496C72.3444 138.743 72.0461 138.936 71.691 139.075C71.3358 139.212 70.9367 139.28 70.4935 139.28ZM74.7336 139.144V132.598H75.7052V133.587H75.7733C75.8927 133.263 76.1086 133 76.4211 132.798C76.7336 132.597 77.0858 132.496 77.4779 132.496C77.5517 132.496 77.6441 132.497 77.7549 132.5C77.8657 132.503 77.9495 132.507 78.0063 132.513V133.536C77.9722 133.527 77.8941 133.514 77.7719 133.497C77.6526 133.477 77.5262 133.467 77.3927 133.467C77.0745 133.467 76.7904 133.534 76.5404 133.668C76.2932 133.798 76.0972 133.98 75.9523 134.213C75.8103 134.443 75.7392 134.706 75.7392 135.002V139.144H74.7336Z" fill="#828282"/>
<path d="M87.4825 132.598C87.4314 132.166 87.224 131.831 86.8603 131.592C86.4967 131.354 86.0507 131.234 85.5223 131.234C85.1359 131.234 84.7978 131.297 84.5081 131.422C84.2211 131.547 83.9967 131.719 83.8348 131.938C83.6757 132.156 83.5961 132.405 83.5961 132.683C83.5961 132.916 83.6515 133.117 83.7623 133.284C83.876 133.449 84.0209 133.587 84.197 133.698C84.3731 133.805 84.5578 133.895 84.751 133.966C84.9441 134.034 85.1217 134.09 85.2836 134.132L86.17 134.371C86.3973 134.43 86.6501 134.513 86.9285 134.618C87.2098 134.723 87.4782 134.867 87.7339 135.048C87.9924 135.227 88.2055 135.457 88.3731 135.739C88.5407 136.02 88.6245 136.365 88.6245 136.774C88.6245 137.246 88.501 137.672 88.2538 138.053C88.0095 138.433 87.6515 138.736 87.1799 138.96C86.7112 139.185 86.1416 139.297 85.4711 139.297C84.8461 139.297 84.3049 139.196 83.8476 138.994C83.393 138.793 83.0351 138.511 82.7737 138.151C82.5152 137.79 82.3689 137.371 82.3348 136.894H83.4257C83.4541 137.223 83.5649 137.496 83.7581 137.712C83.9541 137.925 84.2012 138.084 84.4995 138.189C84.8007 138.291 85.1245 138.342 85.4711 138.342C85.8745 138.342 86.2368 138.277 86.5578 138.146C86.8788 138.013 87.1331 137.828 87.3206 137.592C87.5081 137.354 87.6018 137.075 87.6018 136.757C87.6018 136.467 87.5209 136.232 87.3589 136.05C87.197 135.868 86.9839 135.72 86.7197 135.607C86.4555 135.493 86.17 135.394 85.8632 135.308L84.7893 135.002C84.1075 134.805 83.5677 134.526 83.17 134.162C82.7723 133.798 82.5734 133.323 82.5734 132.734C82.5734 132.246 82.7055 131.82 82.9697 131.456C83.2368 131.09 83.5947 130.805 84.0436 130.604C84.4953 130.399 84.9995 130.297 85.5564 130.297C86.1189 130.297 86.6189 130.398 87.0564 130.6C87.4939 130.798 87.8405 131.071 88.0961 131.418C88.3547 131.764 88.491 132.158 88.5052 132.598H87.4825ZM91.2314 135.206V139.144H90.2258V130.416H91.2314V133.621H91.3167C91.4701 133.283 91.7002 133.014 92.007 132.815C92.3167 132.614 92.7286 132.513 93.2428 132.513C93.6888 132.513 94.0794 132.602 94.4147 132.781C94.7499 132.957 95.0098 133.229 95.1945 133.595C95.382 133.959 95.4758 134.422 95.4758 134.984V139.144H94.4701V135.053C94.4701 134.533 94.3351 134.131 94.0652 133.847C93.7982 133.56 93.4275 133.416 92.953 133.416C92.6235 133.416 92.328 133.486 92.0667 133.625C91.8081 133.764 91.6036 133.967 91.453 134.234C91.3053 134.502 91.2314 134.825 91.2314 135.206ZM99.9747 139.28C99.3838 139.28 98.8653 139.139 98.4193 138.858C97.9761 138.577 97.6295 138.183 97.3795 137.678C97.1324 137.172 97.0088 136.581 97.0088 135.905C97.0088 135.223 97.1324 134.628 97.3795 134.119C97.6295 133.611 97.9761 133.216 98.4193 132.935C98.8653 132.653 99.3838 132.513 99.9747 132.513C100.566 132.513 101.083 132.653 101.526 132.935C101.972 133.216 102.318 133.611 102.566 134.119C102.816 134.628 102.941 135.223 102.941 135.905C102.941 136.581 102.816 137.172 102.566 137.678C102.318 138.183 101.972 138.577 101.526 138.858C101.083 139.139 100.566 139.28 99.9747 139.28ZM99.9747 138.377C100.424 138.377 100.793 138.261 101.083 138.031C101.372 137.801 101.587 137.499 101.726 137.124C101.865 136.749 101.935 136.342 101.935 135.905C101.935 135.467 101.865 135.06 101.726 134.682C101.587 134.304 101.372 133.999 101.083 133.766C100.793 133.533 100.424 133.416 99.9747 133.416C99.5258 133.416 99.1565 133.533 98.8667 133.766C98.577 133.999 98.3625 134.304 98.2233 134.682C98.0841 135.06 98.0145 135.467 98.0145 135.905C98.0145 136.342 98.0841 136.749 98.2233 137.124C98.3625 137.499 98.577 137.801 98.8667 138.031C99.1565 138.261 99.5258 138.377 99.9747 138.377ZM107.22 139.28C106.589 139.28 106.045 139.141 105.588 138.862C105.133 138.581 104.783 138.189 104.535 137.686C104.291 137.18 104.169 136.592 104.169 135.922C104.169 135.252 104.291 134.661 104.535 134.149C104.783 133.635 105.126 133.234 105.567 132.948C106.01 132.658 106.527 132.513 107.118 132.513C107.459 132.513 107.795 132.57 108.128 132.683C108.46 132.797 108.763 132.982 109.035 133.237C109.308 133.49 109.525 133.825 109.687 134.243C109.849 134.661 109.93 135.175 109.93 135.786V136.212H104.885V135.342H108.908C108.908 134.973 108.834 134.644 108.686 134.354C108.541 134.064 108.334 133.835 108.064 133.668C107.797 133.5 107.481 133.416 107.118 133.416C106.717 133.416 106.371 133.516 106.078 133.715C105.788 133.911 105.565 134.166 105.409 134.482C105.253 134.797 105.175 135.135 105.175 135.496V136.075C105.175 136.57 105.26 136.989 105.43 137.332C105.604 137.673 105.844 137.933 106.15 138.112C106.457 138.288 106.814 138.377 107.22 138.377C107.484 138.377 107.723 138.34 107.936 138.266C108.152 138.189 108.338 138.075 108.494 137.925C108.65 137.771 108.771 137.581 108.856 137.354L109.828 137.627C109.726 137.956 109.554 138.246 109.312 138.496C109.071 138.743 108.773 138.936 108.418 139.075C108.062 139.212 107.663 139.28 107.22 139.28Z" fill="#25252D"/>
<path d="M42.8223 164.886H41.7655C41.703 164.582 41.5937 164.315 41.4374 164.085C41.284 163.855 41.0965 163.662 40.8749 163.506C40.6562 163.347 40.4133 163.227 40.1462 163.148C39.8792 163.068 39.6008 163.029 39.311 163.029C38.7826 163.029 38.3039 163.162 37.8749 163.429C37.4488 163.696 37.1093 164.09 36.8564 164.609C36.6064 165.129 36.4814 165.767 36.4814 166.523C36.4814 167.279 36.6064 167.916 36.8564 168.436C37.1093 168.956 37.4488 169.35 37.8749 169.617C38.3039 169.884 38.7826 170.017 39.311 170.017C39.6008 170.017 39.8792 169.977 40.1462 169.898C40.4133 169.818 40.6562 169.7 40.8749 169.544C41.0965 169.385 41.284 169.19 41.4374 168.96C41.5937 168.727 41.703 168.46 41.7655 168.159H42.8223C42.7428 168.605 42.5979 169.004 42.3877 169.357C42.1775 169.709 41.9161 170.009 41.6036 170.256C41.2911 170.5 40.9402 170.686 40.551 170.814C40.1647 170.942 39.7513 171.006 39.311 171.006C38.5667 171.006 37.9047 170.824 37.3252 170.46C36.7456 170.097 36.2897 169.58 35.9573 168.909C35.6249 168.239 35.4587 167.443 35.4587 166.523C35.4587 165.602 35.6249 164.807 35.9573 164.136C36.2897 163.466 36.7456 162.949 37.3252 162.585C37.9047 162.222 38.5667 162.04 39.311 162.04C39.7513 162.04 40.1647 162.104 40.551 162.232C40.9402 162.359 41.2911 162.547 41.6036 162.794C41.9161 163.038 42.1775 163.337 42.3877 163.689C42.5979 164.038 42.7428 164.438 42.8223 164.886ZM46.3199 171.04C45.9051 171.04 45.5287 170.962 45.1906 170.806C44.8525 170.646 44.5841 170.418 44.3852 170.119C44.1863 169.818 44.0869 169.455 44.0869 169.029C44.0869 168.654 44.1608 168.35 44.3085 168.117C44.4562 167.881 44.6537 167.696 44.9008 167.563C45.148 167.429 45.4207 167.33 45.719 167.264C46.0201 167.196 46.3227 167.142 46.6267 167.102C47.0244 167.051 47.3468 167.013 47.594 166.987C47.844 166.959 48.0258 166.912 48.1395 166.847C48.2559 166.781 48.3142 166.668 48.3142 166.506V166.472C48.3142 166.051 48.1991 165.725 47.969 165.492C47.7417 165.259 47.3966 165.142 46.9335 165.142C46.4534 165.142 46.077 165.247 45.8042 165.457C45.5315 165.668 45.3397 165.892 45.2289 166.131L44.2744 165.79C44.4449 165.392 44.6721 165.082 44.9562 164.861C45.2432 164.636 45.5557 164.48 45.8937 164.392C46.2346 164.301 46.5699 164.256 46.8994 164.256C47.1096 164.256 47.3511 164.281 47.6238 164.332C47.8994 164.381 48.165 164.482 48.4207 164.635C48.6792 164.788 48.8937 165.02 49.0642 165.33C49.2346 165.639 49.3199 166.054 49.3199 166.574V170.886H48.3142V170H48.263C48.1949 170.142 48.0812 170.294 47.9221 170.456C47.763 170.618 47.5514 170.756 47.2872 170.869C47.023 170.983 46.7005 171.04 46.3199 171.04ZM46.4733 170.136C46.871 170.136 47.2062 170.058 47.4789 169.902C47.7545 169.746 47.9619 169.544 48.1011 169.297C48.2432 169.05 48.3142 168.79 48.3142 168.517V167.597C48.2716 167.648 48.1778 167.695 48.0329 167.737C47.8909 167.777 47.7261 167.813 47.5386 167.844C47.3539 167.872 47.1736 167.898 46.9974 167.921C46.8241 167.94 46.6835 167.957 46.5755 167.972C46.3142 168.006 46.0699 168.061 45.8426 168.138C45.6182 168.212 45.4363 168.324 45.2971 168.475C45.1608 168.622 45.0926 168.824 45.0926 169.08C45.0926 169.429 45.2218 169.693 45.4804 169.872C45.7417 170.048 46.0727 170.136 46.4733 170.136ZM55.7918 165.807L54.8884 166.063C54.8316 165.912 54.7478 165.766 54.637 165.624C54.529 165.479 54.3813 165.359 54.1938 165.266C54.0063 165.172 53.7662 165.125 53.4736 165.125C53.0731 165.125 52.7392 165.217 52.4722 165.402C52.208 165.584 52.0759 165.815 52.0759 166.097C52.0759 166.347 52.1668 166.544 52.3486 166.689C52.5304 166.834 52.8145 166.955 53.2009 167.051L54.1725 167.29C54.7577 167.432 55.1938 167.649 55.4807 167.942C55.7677 168.232 55.9111 168.605 55.9111 169.063C55.9111 169.438 55.8032 169.773 55.5873 170.068C55.3742 170.364 55.0759 170.597 54.6924 170.767C54.3088 170.938 53.8628 171.023 53.3543 171.023C52.6867 171.023 52.1341 170.878 51.6966 170.588C51.2591 170.298 50.9821 169.875 50.8657 169.318L51.8202 169.08C51.9111 169.432 52.083 169.696 52.3358 169.872C52.5915 170.048 52.9253 170.136 53.3373 170.136C53.806 170.136 54.1782 170.037 54.4537 169.838C54.7321 169.636 54.8713 169.395 54.8713 169.114C54.8713 168.886 54.7918 168.696 54.6327 168.543C54.4736 168.386 54.2293 168.27 53.8998 168.193L52.8088 167.938C52.2094 167.796 51.7691 167.575 51.4878 167.277C51.2094 166.976 51.0702 166.6 51.0702 166.148C51.0702 165.779 51.1739 165.452 51.3813 165.168C51.5915 164.884 51.877 164.661 52.2378 164.499C52.6015 164.337 53.0134 164.256 53.4736 164.256C54.1213 164.256 54.6299 164.398 54.9992 164.682C55.3713 164.966 55.6356 165.341 55.7918 165.807ZM61.55 168.21V164.341H62.5557V170.886H61.55V169.779H61.4818C61.3284 170.111 61.0897 170.394 60.7659 170.627C60.442 170.857 60.0329 170.972 59.5386 170.972C59.1295 170.972 58.7659 170.882 58.4477 170.703C58.1295 170.521 57.8795 170.249 57.6977 169.885C57.5159 169.519 57.425 169.057 57.425 168.5V164.341H58.4307V168.432C58.4307 168.909 58.5642 169.29 58.8312 169.574C59.1011 169.858 59.4449 170 59.8625 170C60.1125 170 60.3667 169.936 60.6253 169.808C60.8866 169.681 61.1054 169.484 61.2815 169.22C61.4605 168.956 61.55 168.619 61.55 168.21ZM66.3238 171.04C65.909 171.04 65.5326 170.962 65.1945 170.806C64.8564 170.646 64.588 170.418 64.3891 170.119C64.1902 169.818 64.0908 169.455 64.0908 169.029C64.0908 168.654 64.1647 168.35 64.3124 168.117C64.4601 167.881 64.6576 167.696 64.9047 167.563C65.1519 167.429 65.4246 167.33 65.7229 167.264C66.024 167.196 66.3266 167.142 66.6306 167.102C67.0283 167.051 67.3508 167.013 67.5979 166.987C67.8479 166.959 68.0297 166.912 68.1434 166.847C68.2598 166.781 68.3181 166.668 68.3181 166.506V166.472C68.3181 166.051 68.203 165.725 67.9729 165.492C67.7456 165.259 67.4005 165.142 66.9374 165.142C66.4573 165.142 66.0809 165.247 65.8081 165.457C65.5354 165.668 65.3437 165.892 65.2329 166.131L64.2783 165.79C64.4488 165.392 64.676 165.082 64.9601 164.861C65.2471 164.636 65.5596 164.48 65.8976 164.392C66.2385 164.301 66.5738 164.256 66.9033 164.256C67.1135 164.256 67.355 164.281 67.6277 164.332C67.9033 164.381 68.1689 164.482 68.4246 164.635C68.6831 164.788 68.8976 165.02 69.0681 165.33C69.2385 165.639 69.3238 166.054 69.3238 166.574V170.886H68.3181V170H68.2669C68.1988 170.142 68.0851 170.294 67.926 170.456C67.7669 170.618 67.5553 170.756 67.2911 170.869C67.0269 170.983 66.7044 171.04 66.3238 171.04ZM66.4772 170.136C66.8749 170.136 67.2101 170.058 67.4829 169.902C67.7584 169.746 67.9658 169.544 68.105 169.297C68.2471 169.05 68.3181 168.79 68.3181 168.517V167.597C68.2755 167.648 68.1817 167.695 68.0368 167.737C67.8948 167.777 67.73 167.813 67.5425 167.844C67.3579 167.872 67.1775 167.898 67.0013 167.921C66.828 167.94 66.6874 167.957 66.5794 167.972C66.3181 168.006 66.0738 168.061 65.8465 168.138C65.6221 168.212 65.4402 168.324 65.301 168.475C65.1647 168.622 65.0965 168.824 65.0965 169.08C65.0965 169.429 65.2258 169.693 65.4843 169.872C65.7456 170.048 66.0766 170.136 66.4772 170.136ZM72.165 162.159V170.886H71.1593V162.159H72.165Z" fill="#828282"/>
<path d="M82.2911 164.341C82.24 163.909 82.0326 163.574 81.6689 163.335C81.3053 163.097 80.8593 162.977 80.3309 162.977C79.9445 162.977 79.6064 163.04 79.3167 163.165C79.0297 163.29 78.8053 163.462 78.6434 163.681C78.4843 163.899 78.4047 164.148 78.4047 164.426C78.4047 164.659 78.4601 164.859 78.5709 165.027C78.6846 165.192 78.8294 165.33 79.0056 165.44C79.1817 165.548 79.3664 165.638 79.5596 165.709C79.7527 165.777 79.9303 165.832 80.0922 165.875L80.9786 166.114C81.2059 166.173 81.4587 166.256 81.7371 166.361C82.0184 166.466 82.2868 166.609 82.5425 166.791C82.801 166.97 83.0141 167.2 83.1817 167.482C83.3493 167.763 83.4331 168.108 83.4331 168.517C83.4331 168.989 83.3096 169.415 83.0624 169.796C82.8181 170.176 82.4601 170.479 81.9885 170.703C81.5198 170.928 80.9502 171.04 80.2797 171.04C79.6547 171.04 79.1135 170.939 78.6562 170.737C78.2016 170.536 77.8437 170.254 77.5823 169.894C77.3238 169.533 77.1775 169.114 77.1434 168.636H78.2343C78.2627 168.966 78.3735 169.239 78.5667 169.455C78.7627 169.668 79.0098 169.827 79.3081 169.932C79.6093 170.034 79.9331 170.085 80.2797 170.085C80.6831 170.085 81.0454 170.02 81.3664 169.889C81.6874 169.756 81.9417 169.571 82.1292 169.335C82.3167 169.097 82.4104 168.818 82.4104 168.5C82.4104 168.21 82.3294 167.975 82.1675 167.793C82.0056 167.611 81.7925 167.463 81.5283 167.35C81.2641 167.236 80.9786 167.136 80.6718 167.051L79.5979 166.744C78.9161 166.548 78.3763 166.269 77.9786 165.905C77.5809 165.541 77.382 165.065 77.382 164.477C77.382 163.989 77.5141 163.563 77.7783 163.199C78.0454 162.832 78.4033 162.548 78.8522 162.347C79.3039 162.142 79.8081 162.04 80.365 162.04C80.9275 162.04 81.4275 162.141 81.865 162.342C82.3025 162.541 82.649 162.814 82.9047 163.161C83.1633 163.507 83.2996 163.901 83.3138 164.341H82.2911ZM86.04 166.949V170.886H85.0343V162.159H86.04V165.364H86.1253C86.2787 165.026 86.5088 164.757 86.8156 164.558C87.1253 164.357 87.5372 164.256 88.0514 164.256C88.4974 164.256 88.888 164.345 89.2233 164.524C89.5585 164.7 89.8184 164.972 90.0031 165.338C90.1906 165.702 90.2843 166.165 90.2843 166.727V170.886H89.2787V166.796C89.2787 166.276 89.1437 165.874 88.8738 165.59C88.6068 165.303 88.2361 165.159 87.7616 165.159C87.4321 165.159 87.1366 165.229 86.8753 165.368C86.6167 165.507 86.4122 165.71 86.2616 165.977C86.1139 166.244 86.04 166.568 86.04 166.949ZM94.7833 171.023C94.1924 171.023 93.6739 170.882 93.2279 170.601C92.7847 170.32 92.4381 169.926 92.1881 169.421C91.941 168.915 91.8174 168.324 91.8174 167.648C91.8174 166.966 91.941 166.371 92.1881 165.862C92.4381 165.354 92.7847 164.959 93.2279 164.678C93.6739 164.396 94.1924 164.256 94.7833 164.256C95.3742 164.256 95.8912 164.396 96.3344 164.678C96.7804 164.959 97.127 165.354 97.3742 165.862C97.6242 166.371 97.7492 166.966 97.7492 167.648C97.7492 168.324 97.6242 168.915 97.3742 169.421C97.127 169.926 96.7804 170.32 96.3344 170.601C95.8912 170.882 95.3742 171.023 94.7833 171.023ZM94.7833 170.119C95.2321 170.119 95.6015 170.004 95.8912 169.774C96.181 169.544 96.3955 169.242 96.5347 168.867C96.6739 168.492 96.7435 168.085 96.7435 167.648C96.7435 167.21 96.6739 166.803 96.5347 166.425C96.3955 166.047 96.181 165.742 95.8912 165.509C95.6015 165.276 95.2321 165.159 94.7833 165.159C94.3344 165.159 93.9651 165.276 93.6753 165.509C93.3856 165.742 93.1711 166.047 93.0319 166.425C92.8927 166.803 92.8231 167.21 92.8231 167.648C92.8231 168.085 92.8927 168.492 93.0319 168.867C93.1711 169.242 93.3856 169.544 93.6753 169.774C93.9651 170.004 94.3344 170.119 94.7833 170.119ZM102.029 171.023C101.398 171.023 100.854 170.884 100.397 170.605C99.942 170.324 99.5912 169.932 99.344 169.429C99.0997 168.923 98.9775 168.335 98.9775 167.665C98.9775 166.994 99.0997 166.404 99.344 165.892C99.5912 165.378 99.9349 164.977 100.375 164.69C100.818 164.401 101.335 164.256 101.926 164.256C102.267 164.256 102.604 164.313 102.936 164.426C103.269 164.54 103.571 164.725 103.844 164.98C104.117 165.233 104.334 165.568 104.496 165.986C104.658 166.404 104.739 166.918 104.739 167.529V167.955H99.6934V167.085H103.716C103.716 166.716 103.642 166.386 103.495 166.097C103.35 165.807 103.142 165.578 102.872 165.411C102.605 165.243 102.29 165.159 101.926 165.159C101.526 165.159 101.179 165.259 100.887 165.457C100.597 165.654 100.374 165.909 100.218 166.225C100.061 166.54 99.9832 166.878 99.9832 167.239V167.818C99.9832 168.313 100.068 168.732 100.239 169.075C100.412 169.416 100.652 169.676 100.959 169.855C101.266 170.031 101.622 170.119 102.029 170.119C102.293 170.119 102.532 170.082 102.745 170.009C102.96 169.932 103.147 169.818 103.303 169.668C103.459 169.514 103.58 169.324 103.665 169.097L104.637 169.369C104.534 169.699 104.362 169.989 104.121 170.239C103.88 170.486 103.581 170.679 103.226 170.818C102.871 170.955 102.472 171.023 102.029 171.023Z" fill="#25252D"/>
</g>
<rect x="20.4607" y="0.460714" width="257.079" height="35.9357" rx="2.30357" fill="white" stroke="#E9E9E9" stroke-width="0.921429"/>
<path d="M43.1886 23.804C46.5812 23.804 49.3315 21.0538 49.3315 17.6612C49.3315 14.2686 46.5812 11.5183 43.1886 11.5183C39.796 11.5183 37.0458 14.2686 37.0458 17.6612C37.0458 21.0538 39.796 23.804 43.1886 23.804Z" stroke="#828282" stroke-width="1.84286" stroke-linecap="round" stroke-linejoin="round"/>
<path d="M50.8672 25.3399L47.527 21.9998" stroke="#828282" stroke-width="1.84286" stroke-linecap="round" stroke-linejoin="round"/>
<path d="M73.2589 16.1785C73.204 15.7143 72.981 15.3539 72.5901 15.0974C72.1992 14.8408 71.7197 14.7126 71.1517 14.7126C70.7364 14.7126 70.3729 14.7798 70.0614 14.9141C69.753 15.0485 69.5117 15.2333 69.3376 15.4684C69.1666 15.7036 69.0811 15.9708 69.0811 16.2701C69.0811 16.5205 69.1407 16.7358 69.2598 16.916C69.3819 17.0931 69.5377 17.2413 69.727 17.3604C69.9164 17.4764 70.1149 17.5726 70.3225 17.649C70.5302 17.7223 70.7211 17.7818 70.8952 17.8276L71.848 18.0842C72.0923 18.1483 72.3641 18.2369 72.6634 18.3499C72.9658 18.4629 73.2544 18.6171 73.5292 18.8125C73.8071 19.0049 74.0362 19.2523 74.2164 19.5547C74.3966 19.857 74.4866 20.2281 74.4866 20.6678C74.4866 21.1748 74.3538 21.6329 74.0881 22.0421C73.8255 22.4513 73.4407 22.7766 72.9337 23.0179C72.4298 23.2591 71.8175 23.3798 71.0967 23.3798C70.4249 23.3798 69.8431 23.2713 69.3514 23.0545C68.8627 22.8377 68.4779 22.5353 68.197 22.1475C67.9191 21.7596 67.7618 21.3092 67.7251 20.7961H68.8979C68.9284 21.1504 69.0475 21.4435 69.2552 21.6756C69.4659 21.9047 69.7316 22.0757 70.0523 22.1887C70.376 22.2987 70.7241 22.3536 71.0967 22.3536C71.5304 22.3536 71.9198 22.2834 72.2649 22.1429C72.61 21.9994 72.8833 21.8009 73.0849 21.5474C73.2864 21.2908 73.3872 20.9915 73.3872 20.6495C73.3872 20.338 73.3002 20.0845 73.1261 19.8891C72.952 19.6936 72.723 19.5348 72.439 19.4126C72.1549 19.2905 71.848 19.1836 71.5182 19.092L70.3638 18.7621C69.6308 18.5514 69.0506 18.2506 68.623 17.8597C68.1955 17.4688 67.9817 16.9572 67.9817 16.3251C67.9817 15.7998 68.1237 15.3417 68.4077 14.9508C68.6948 14.5568 69.0796 14.2514 69.5621 14.0346C70.0477 13.8147 70.5898 13.7048 71.1884 13.7048C71.793 13.7048 72.3305 13.8132 72.8009 14.03C73.2712 14.2438 73.6438 14.537 73.9186 14.9096C74.1965 15.2821 74.3431 15.7051 74.3584 16.1785H73.2589ZM77.2891 18.982V23.2148H76.2079V13.833H77.2891V17.2779H77.3807C77.5456 16.9145 77.793 16.6259 78.1228 16.4121C78.4557 16.1953 78.8985 16.0869 79.4513 16.0869C79.9307 16.0869 80.3507 16.1831 80.711 16.3755C81.0714 16.5648 81.3508 16.8565 81.5494 17.2504C81.7509 17.6413 81.8517 18.1391 81.8517 18.7438V23.2148H80.7706V18.8171C80.7706 18.2582 80.6255 17.8261 80.3354 17.5207C80.0483 17.2123 79.6498 17.058 79.1398 17.058C78.7855 17.058 78.4679 17.1328 78.1869 17.2825C77.909 17.4321 77.6891 17.6505 77.5273 17.9376C77.3685 18.2246 77.2891 18.5728 77.2891 18.982ZM86.6881 23.3614C86.0528 23.3614 85.4955 23.2103 85.016 22.9079C84.5396 22.6056 84.167 22.1826 83.8982 21.639C83.6325 21.0954 83.4997 20.4602 83.4997 19.7333C83.4997 19.0004 83.6325 18.3605 83.8982 17.8139C84.167 17.2672 84.5396 16.8427 85.016 16.5404C85.4955 16.238 86.0528 16.0869 86.6881 16.0869C87.3233 16.0869 87.8791 16.238 88.3555 16.5404C88.835 16.8427 89.2076 17.2672 89.4733 17.8139C89.742 18.3605 89.8764 19.0004 89.8764 19.7333C89.8764 20.4602 89.742 21.0954 89.4733 21.639C89.2076 22.1826 88.835 22.6056 88.3555 22.9079C87.8791 23.2103 87.3233 23.3614 86.6881 23.3614ZM86.6881 22.3903C87.1706 22.3903 87.5676 22.2666 87.8791 22.0192C88.1906 21.7718 88.4212 21.4466 88.5708 21.0435C88.7205 20.6403 88.7953 20.2036 88.7953 19.7333C88.7953 19.263 88.7205 18.8248 88.5708 18.4186C88.4212 18.0124 88.1906 17.6841 87.8791 17.4337C87.5676 17.1832 87.1706 17.058 86.6881 17.058C86.2055 17.058 85.8085 17.1832 85.497 17.4337C85.1855 17.6841 84.9549 18.0124 84.8053 18.4186C84.6556 18.8248 84.5808 19.263 84.5808 19.7333C84.5808 20.2036 84.6556 20.6403 84.8053 21.0435C84.9549 21.4466 85.1855 21.7718 85.497 22.0192C85.8085 22.2666 86.2055 22.3903 86.6881 22.3903ZM94.4768 23.3614C93.7989 23.3614 93.214 23.2118 92.7223 22.9125C92.2337 22.6102 91.8565 22.1887 91.5908 21.6482C91.3282 21.1045 91.1969 20.4724 91.1969 19.7516C91.1969 19.0309 91.3282 18.3957 91.5908 17.846C91.8565 17.2932 92.2261 16.8626 92.6994 16.5541C93.1758 16.2426 93.7317 16.0869 94.3669 16.0869C94.7334 16.0869 95.0953 16.1479 95.4526 16.2701C95.8099 16.3923 96.1351 16.5908 96.4283 16.8656C96.7215 17.1374 96.9551 17.4978 97.1292 17.9467C97.3033 18.3957 97.3903 18.9484 97.3903 19.605V20.0631H91.9665V19.1286H96.2909C96.2909 18.7316 96.2115 18.3773 96.0527 18.0658C95.8969 17.7543 95.674 17.5085 95.3839 17.3283C95.0968 17.1481 94.7578 17.058 94.3669 17.058C93.9363 17.058 93.5637 17.1649 93.2491 17.3787C92.9376 17.5894 92.6979 17.8643 92.5299 18.2033C92.362 18.5423 92.278 18.9057 92.278 19.2935V19.9165C92.278 20.4479 92.3696 20.8984 92.5528 21.2679C92.7391 21.6344 92.9972 21.9138 93.327 22.1063C93.6568 22.2956 94.0401 22.3903 94.4768 22.3903C94.7609 22.3903 95.0174 22.3506 95.2464 22.2712C95.4785 22.1887 95.6786 22.0665 95.8465 21.9047C96.0145 21.7398 96.1443 21.5352 96.2359 21.2908L97.2804 21.584C97.1704 21.9383 96.9857 22.2498 96.7261 22.5185C96.4665 22.7842 96.1458 22.9919 95.7641 23.1415C95.3823 23.2881 94.9533 23.3614 94.4768 23.3614Z" fill="#828282"/>
<path d="M100.611 10.8096V26.2383H99.6946V10.8096H100.611Z" fill="#25252D"/>
<defs>
<filter id="filter0_d_1998_25296" x="0.650042" y="32.2509" width="296.7" height="189.814" filterUnits="userSpaceOnUse" color-interpolation-filters="sRGB">
<feFlood flood-opacity="0" result="BackgroundImageFix"/>
<feColorMatrix in="SourceAlpha" type="matrix" values="0 0 0 0 0 0 0 0 0 0 0 0 0 0 0 0 0 0 127 0" result="hardAlpha"/>
<feOffset dy="5.52857"/>
<feGaussianBlur stdDeviation="9.21429"/>
<feComposite in2="hardAlpha" operator="out"/>
<feColorMatrix type="matrix" values="0 0 0 0 0 0 0 0 0 0 0 0 0 0 0 0 0 0 0.08 0"/>
<feBlend mode="normal" in2="BackgroundImageFix" result="effect1_dropShadow_1998_25296"/>
<feBlend mode="normal" in="SourceGraphic" in2="effect1_dropShadow_1998_25296" result="shape"/>
</filter>
</defs>
</svg>
