<svg width="173" height="142" viewBox="0 0 173 142" fill="none" xmlns="http://www.w3.org/2000/svg">
<path d="M2.18945 0.733398H32.6748C33.5164 0.733512 34.1991 1.41618 34.1992 2.25781V32.7432C34.1991 33.5848 33.5165 34.2675 32.6748 34.2676H2.18945C1.34782 34.2674 0.66515 33.5848 0.665039 32.7432V2.25781C0.665174 1.41619 1.34783 0.733531 2.18945 0.733398Z" fill="#F9F9F9" stroke="#E9E9E9" stroke-width="0.338721"/>
<path d="M23.8527 9.24414H11.0095C9.99625 9.24414 9.1748 10.0656 9.1748 11.0789V23.9221C9.1748 24.9354 9.99625 25.7568 11.0095 25.7568H23.8527C24.866 25.7568 25.6875 24.9354 25.6875 23.9221V11.0789C25.6875 10.0656 24.866 9.24414 23.8527 9.24414Z" stroke="#828282" stroke-width="0.677442" stroke-linecap="round" stroke-linejoin="round"/>
<path d="M14.2208 15.6662C14.9808 15.6662 15.5968 15.0501 15.5968 14.2901C15.5968 13.5301 14.9808 12.9141 14.2208 12.9141C13.4608 12.9141 12.8447 13.5301 12.8447 14.2901C12.8447 15.0501 13.4608 15.6662 14.2208 15.6662Z" stroke="#828282" stroke-width="0.677442" stroke-linecap="round" stroke-linejoin="round"/>
<path d="M25.6877 20.2529L21.1008 15.666L11.0098 25.7571" stroke="#828282" stroke-width="0.677442" stroke-linecap="round" stroke-linejoin="round"/>
<line x1="43.4973" y1="5.39035" x2="138.202" y2="5.39036" stroke="#E9E9E9" stroke-width="2.20367" stroke-linecap="round"/>
<line x1="43.4973" y1="14.5652" x2="110.611" y2="14.5652" stroke="#E9E9E9" stroke-width="2.20367" stroke-linecap="round"/>
<line x1="46.8028" y1="27.5185" x2="54.3768" y2="27.5185" stroke="#E9E9E9" stroke-width="8.81466" stroke-linecap="round"/>
<line opacity="0.5" x1="2.33248" y1="51.9019" x2="20.6964" y2="51.9019" stroke="#828282" stroke-width="3.67277" stroke-linecap="round"/>
<line opacity="0.5" x1="29.5112" y1="51.9019" x2="47.8751" y2="51.9019" stroke="#828282" stroke-width="3.67277" stroke-linecap="round"/>
<line opacity="0.5" x1="56.6899" y1="51.9019" x2="75.0538" y2="51.9019" stroke="#828282" stroke-width="3.67277" stroke-linecap="round"/>
<line opacity="0.5" x1="83.8676" y1="51.9019" x2="96.4717" y2="51.9019" stroke="#828282" stroke-width="3.67277" stroke-linecap="round"/>
<line opacity="0.5" x1="105.287" y1="51.9019" x2="123.65" y2="51.9019" stroke="#828282" stroke-width="3.67277" stroke-linecap="round"/>
<line x1="1.23065" y1="64.5594" x2="171.762" y2="64.5594" stroke="#D3D3D3" stroke-width="1.46911" stroke-linecap="round"/>
<line x1="1.23065" y1="73.657" x2="171.647" y2="73.657" stroke="#D3D3D3" stroke-width="1.46911" stroke-linecap="round"/>
<line x1="1.23065" y1="82.7713" x2="116.787" y2="82.7713" stroke="#D3D3D3" stroke-width="1.46911" stroke-linecap="round"/>
<rect x="0.863371" y="103.176" width="171.151" height="38.0828" rx="3.3055" fill="white" stroke="black" stroke-width="0.734555"/>
<path d="M28.824 118.98L27.7145 114.389C27.6535 114.133 27.4305 113.954 27.1764 113.954H12.7531C12.499 113.954 12.276 114.133 12.215 114.389L11.1055 118.98C11.0944 119.025 11.0889 119.072 11.0889 119.119C11.0889 120.081 11.5293 120.929 12.1984 121.45V129.449C12.1984 129.765 12.4469 130.022 12.7531 130.022H18.3005C18.6067 130.022 18.8553 129.765 18.8553 129.449V125.432H21.0742V129.449C21.0742 129.765 21.3227 130.022 21.629 130.022H27.1764C27.4826 130.022 27.7311 129.765 27.7311 129.449V121.45C28.4001 120.929 28.8406 120.081 28.8406 119.119C28.8406 119.072 28.8351 119.025 28.824 118.98ZM26.6216 128.875H22.1837V124.858C22.1837 124.541 21.9352 124.284 21.629 124.284H18.3005C17.9943 124.284 17.7458 124.541 17.7458 124.858V128.875H13.3078V121.942C13.4443 121.966 13.5819 121.988 13.7239 121.988C14.5693 121.988 15.3215 121.553 15.8042 120.878C16.2868 121.553 17.039 121.988 17.8845 121.988C18.7299 121.988 19.4821 121.553 19.9647 120.878C20.4474 121.553 21.1996 121.988 22.045 121.988C22.8905 121.988 23.6427 121.553 24.1253 120.878C24.6079 121.553 25.3602 121.988 26.2056 121.988C26.3476 121.988 26.4852 121.966 26.6216 121.942V128.875ZM26.2056 120.841C25.3646 120.841 24.68 120.068 24.68 119.119C24.68 118.802 24.4315 118.545 24.1253 118.545C23.8191 118.545 23.5706 118.802 23.5706 119.119C23.5706 120.068 22.886 120.841 22.045 120.841C21.204 120.841 20.5195 120.068 20.5195 119.119C20.5195 118.802 20.271 118.545 19.9647 118.545C19.6585 118.545 19.41 118.802 19.41 119.119C19.41 120.068 18.7254 120.841 17.8845 120.841C17.0435 120.841 16.3589 120.068 16.3589 119.119C16.3589 118.802 16.1104 118.545 15.8042 118.545C15.498 118.545 15.2494 118.802 15.2494 119.119C15.2494 120.068 14.5649 120.841 13.7239 120.841C12.9029 120.841 12.2305 120.104 12.1995 119.186L13.1869 115.102H26.7437L27.7311 119.186C27.699 120.104 27.0266 120.841 26.2056 120.841Z" fill="#828282"/>
<path opacity="0.85" d="M43.184 126.982H41.2359L44.7829 116.907H47.036L50.5879 126.982H48.6397L45.9488 118.974H45.8701L43.184 126.982ZM43.248 123.032H48.561V124.498H43.248V123.032ZM57.6387 119.426L54.9477 126.982H52.98L50.289 119.426H52.1879L53.9245 125.039H54.0032L55.7447 119.426H57.6387ZM60.829 127.135C60.3502 127.135 59.9189 127.05 59.5352 126.879C59.1547 126.705 58.853 126.449 58.63 126.112C58.4102 125.774 58.3004 125.357 58.3004 124.862C58.3004 124.436 58.3791 124.083 58.5365 123.804C58.6939 123.526 58.9087 123.303 59.181 123.135C59.4532 122.968 59.7598 122.842 60.1009 122.757C60.4453 122.668 60.8011 122.604 61.1684 122.565C61.6112 122.519 61.9703 122.478 62.2458 122.442C62.5213 122.402 62.7213 122.343 62.846 122.265C62.9739 122.183 63.0378 122.056 63.0378 121.886V121.856C63.0378 121.486 62.928 121.199 62.7082 120.995C62.4885 120.792 62.172 120.69 61.7588 120.69C61.3226 120.69 60.9766 120.786 60.7208 120.976C60.4682 121.166 60.2977 121.391 60.2091 121.65L58.5463 121.414C58.6775 120.954 58.894 120.571 59.1957 120.262C59.4974 119.951 59.8664 119.718 60.3026 119.564C60.7388 119.406 61.2209 119.328 61.7489 119.328C62.113 119.328 62.4754 119.37 62.8361 119.456C63.1969 119.541 63.5265 119.682 63.8249 119.879C64.1234 120.072 64.3628 120.336 64.5432 120.671C64.7268 121.005 64.8187 121.423 64.8187 121.925V126.982H63.1067V125.944H63.0477C62.9394 126.154 62.7869 126.351 62.5902 126.535C62.3967 126.715 62.1523 126.861 61.8572 126.973C61.5653 127.081 61.2225 127.135 60.829 127.135ZM61.2914 125.826C61.6489 125.826 61.9588 125.756 62.2212 125.615C62.4836 125.471 62.6853 125.28 62.8263 125.044C62.9706 124.808 63.0427 124.551 63.0427 124.272V123.381C62.987 123.427 62.8919 123.47 62.7574 123.509C62.6262 123.549 62.4786 123.583 62.3147 123.613C62.1507 123.642 61.9883 123.668 61.8276 123.691C61.6669 123.714 61.5275 123.734 61.4095 123.75C61.1438 123.786 60.9061 123.845 60.6962 123.927C60.4863 124.009 60.3206 124.124 60.1993 124.272C60.0779 124.416 60.0173 124.603 60.0173 124.833C60.0173 125.161 60.137 125.408 60.3764 125.575C60.6158 125.743 60.9208 125.826 61.2914 125.826ZM66.6094 126.982V119.426H68.3902V126.982H66.6094ZM67.5047 118.354C67.2227 118.354 66.98 118.26 66.7766 118.073C66.5733 117.883 66.4716 117.655 66.4716 117.389C66.4716 117.121 66.5733 116.893 66.7766 116.706C66.98 116.515 67.2227 116.42 67.5047 116.42C67.79 116.42 68.0327 116.515 68.2328 116.706C68.4361 116.893 68.5378 117.121 68.5378 117.389C68.5378 117.655 68.4361 117.883 68.2328 118.073C68.0327 118.26 67.79 118.354 67.5047 118.354ZM72.0023 116.907V126.982H70.2215V116.907H72.0023ZM76.008 127.135C75.5292 127.135 75.0979 127.05 74.7142 126.879C74.3338 126.705 74.032 126.449 73.809 126.112C73.5893 125.774 73.4794 125.357 73.4794 124.862C73.4794 124.436 73.5581 124.083 73.7156 123.804C73.873 123.526 74.0878 123.303 74.36 123.135C74.6322 122.968 74.9389 122.842 75.28 122.757C75.6243 122.668 75.9802 122.604 76.3475 122.565C76.7902 122.519 77.1494 122.478 77.4248 122.442C77.7003 122.402 77.9004 122.343 78.025 122.265C78.1529 122.183 78.2169 122.056 78.2169 121.886V121.856C78.2169 121.486 78.107 121.199 77.8873 120.995C77.6675 120.792 77.3511 120.69 76.9378 120.69C76.5016 120.69 76.1556 120.786 75.8998 120.976C75.6473 121.166 75.4767 121.391 75.3882 121.65L73.7254 121.414C73.8566 120.954 74.073 120.571 74.3748 120.262C74.6765 119.951 75.0455 119.718 75.4817 119.564C75.9178 119.406 76.4 119.328 76.928 119.328C77.292 119.328 77.6544 119.37 78.0152 119.456C78.3759 119.541 78.7055 119.682 79.004 119.879C79.3024 120.072 79.5419 120.336 79.7222 120.671C79.9059 121.005 79.9977 121.423 79.9977 121.925V126.982H78.2858V125.944H78.2267C78.1185 126.154 77.966 126.351 77.7692 126.535C77.5757 126.715 77.3314 126.861 77.0362 126.973C76.7443 127.081 76.4016 127.135 76.008 127.135ZM76.4705 125.826C76.8279 125.826 77.1379 125.756 77.4002 125.615C77.6626 125.471 77.8643 125.28 78.0053 125.044C78.1496 124.808 78.2218 124.551 78.2218 124.272V123.381C78.166 123.427 78.0709 123.47 77.9365 123.509C77.8053 123.549 77.6577 123.583 77.4937 123.613C77.3297 123.642 77.1674 123.668 77.0067 123.691C76.846 123.714 76.7066 123.734 76.5885 123.75C76.3229 123.786 76.0851 123.845 75.8752 123.927C75.6653 124.009 75.4997 124.124 75.3783 124.272C75.257 124.416 75.1963 124.603 75.1963 124.833C75.1963 125.161 75.316 125.408 75.5554 125.575C75.7949 125.743 76.0999 125.826 76.4705 125.826ZM81.8671 126.982V116.907H83.648V120.676H83.7218C83.8136 120.492 83.9432 120.297 84.1104 120.09C84.2777 119.88 84.504 119.702 84.7893 119.554C85.0746 119.403 85.4387 119.328 85.8814 119.328C86.4652 119.328 86.9916 119.477 87.4606 119.775C87.9329 120.071 88.3067 120.508 88.5822 121.089C88.861 121.666 89.0004 122.375 89.0004 123.214C89.0004 124.044 88.8643 124.749 88.5921 125.329C88.3198 125.91 87.9492 126.353 87.4803 126.658C87.0113 126.963 86.48 127.115 85.8863 127.115C85.4534 127.115 85.0943 127.043 84.809 126.899C84.5237 126.754 84.2941 126.581 84.1203 126.377C83.9497 126.171 83.8169 125.976 83.7218 125.792H83.6185V126.982H81.8671ZM83.6135 123.204C83.6135 123.693 83.6824 124.121 83.8202 124.488C83.9612 124.856 84.1629 125.143 84.4253 125.349C84.6909 125.552 85.0123 125.654 85.3895 125.654C85.783 125.654 86.1126 125.549 86.3783 125.339C86.6439 125.126 86.844 124.836 86.9785 124.469C87.1162 124.098 87.1851 123.677 87.1851 123.204C87.1851 122.735 87.1179 122.319 86.9834 121.955C86.8489 121.591 86.6489 121.305 86.3832 121.099C86.1176 120.892 85.7863 120.789 85.3895 120.789C85.009 120.789 84.686 120.889 84.4203 121.089C84.1547 121.289 83.953 121.569 83.8152 121.93C83.6808 122.291 83.6135 122.716 83.6135 123.204ZM92.2952 116.907V126.982H90.5143V116.907H92.2952ZM97.4717 127.13C96.7141 127.13 96.0598 126.973 95.5088 126.658C94.9611 126.34 94.5397 125.89 94.2445 125.31C93.9494 124.726 93.8018 124.039 93.8018 123.249C93.8018 122.471 93.9494 121.789 94.2445 121.202C94.543 120.612 94.9595 120.153 95.4941 119.825C96.0287 119.493 96.6567 119.328 97.3783 119.328C97.844 119.328 98.2834 119.403 98.6967 119.554C99.1132 119.702 99.4805 119.931 99.7986 120.243C100.12 120.554 100.373 120.951 100.556 121.433C100.74 121.912 100.832 122.483 100.832 123.145V123.691H94.6381V122.491H99.1247C99.1214 122.15 99.0476 121.846 98.9033 121.581C98.759 121.312 98.5573 121.1 98.2982 120.946C98.0424 120.792 97.7439 120.715 97.4028 120.715C97.0388 120.715 96.719 120.804 96.4436 120.981C96.1681 121.154 95.9532 121.384 95.7991 121.669C95.6482 121.951 95.5712 122.261 95.5679 122.599V123.647C95.5679 124.086 95.6482 124.464 95.8089 124.778C95.9696 125.09 96.1943 125.329 96.4829 125.497C96.7715 125.661 97.1093 125.743 97.4963 125.743C97.7554 125.743 97.9899 125.707 98.1998 125.634C98.4097 125.559 98.5917 125.449 98.7459 125.305C98.9 125.161 99.0164 124.982 99.0951 124.769L100.758 124.956C100.653 125.395 100.453 125.779 100.158 126.107C99.8659 126.431 99.492 126.684 99.0361 126.864C98.5802 127.041 98.0588 127.13 97.4717 127.13ZM107.201 116.907L109.823 124.838H109.927L112.544 116.907H114.551L110.999 126.982H108.746L105.199 116.907H107.201ZM118.333 127.13C117.575 127.13 116.921 126.973 116.37 126.658C115.822 126.34 115.401 125.89 115.106 125.31C114.81 124.726 114.663 124.039 114.663 123.249C114.663 122.471 114.81 121.789 115.106 121.202C115.404 120.612 115.821 120.153 116.355 119.825C116.89 119.493 117.518 119.328 118.239 119.328C118.705 119.328 119.144 119.403 119.558 119.554C119.974 119.702 120.342 119.931 120.66 120.243C120.981 120.554 121.234 120.951 121.417 121.433C121.601 121.912 121.693 122.483 121.693 123.145V123.691H115.499V122.491H119.986C119.982 122.15 119.909 121.846 119.764 121.581C119.62 121.312 119.418 121.1 119.159 120.946C118.903 120.792 118.605 120.715 118.264 120.715C117.9 120.715 117.58 120.804 117.305 120.981C117.029 121.154 116.814 121.384 116.66 121.669C116.509 121.951 116.432 122.261 116.429 122.599V123.647C116.429 124.086 116.509 124.464 116.67 124.778C116.831 125.09 117.055 125.329 117.344 125.497C117.633 125.661 117.97 125.743 118.357 125.743C118.616 125.743 118.851 125.707 119.061 125.634C119.271 125.559 119.453 125.449 119.607 125.305C119.761 125.161 119.877 124.982 119.956 124.769L121.619 124.956C121.514 125.395 121.314 125.779 121.019 126.107C120.727 126.431 120.353 126.684 119.897 126.864C119.441 127.041 118.92 127.13 118.333 127.13ZM124.98 122.555V126.982H123.199V119.426H124.902V120.71H124.99C125.164 120.287 125.441 119.951 125.821 119.702C126.205 119.452 126.679 119.328 127.243 119.328C127.765 119.328 128.219 119.439 128.606 119.662C128.996 119.885 129.298 120.208 129.511 120.631C129.728 121.054 129.834 121.568 129.831 122.171V126.982H128.05V122.447C128.05 121.942 127.919 121.546 127.656 121.261C127.397 120.976 127.038 120.833 126.579 120.833C126.267 120.833 125.99 120.902 125.748 121.04C125.508 121.174 125.32 121.369 125.182 121.625C125.047 121.881 124.98 122.191 124.98 122.555ZM134.445 127.115C133.852 127.115 133.32 126.963 132.851 126.658C132.382 126.353 132.012 125.91 131.74 125.329C131.467 124.749 131.331 124.044 131.331 123.214C131.331 122.375 131.469 121.666 131.744 121.089C132.023 120.508 132.399 120.071 132.871 119.775C133.343 119.477 133.87 119.328 134.45 119.328C134.893 119.328 135.257 119.403 135.542 119.554C135.828 119.702 136.054 119.88 136.221 120.09C136.388 120.297 136.518 120.492 136.61 120.676H136.684V116.907H138.469V126.982H136.718V125.792H136.61C136.518 125.976 136.385 126.171 136.211 126.377C136.038 126.581 135.808 126.754 135.523 126.899C135.237 127.043 134.878 127.115 134.445 127.115ZM134.942 125.654C135.319 125.654 135.641 125.552 135.906 125.349C136.172 125.143 136.374 124.856 136.511 124.488C136.649 124.121 136.718 123.693 136.718 123.204C136.718 122.716 136.649 122.291 136.511 121.93C136.377 121.569 136.177 121.289 135.911 121.089C135.649 120.889 135.326 120.789 134.942 120.789C134.545 120.789 134.214 120.892 133.948 121.099C133.683 121.305 133.483 121.591 133.348 121.955C133.214 122.319 133.147 122.735 133.147 123.204C133.147 123.677 133.214 124.098 133.348 124.469C133.486 124.836 133.688 125.126 133.953 125.339C134.222 125.549 134.552 125.654 134.942 125.654ZM143.663 127.13C142.925 127.13 142.286 126.968 141.745 126.643C141.203 126.318 140.784 125.864 140.485 125.28C140.19 124.697 140.042 124.014 140.042 123.234C140.042 122.453 140.19 121.769 140.485 121.182C140.784 120.595 141.203 120.139 141.745 119.815C142.286 119.49 142.925 119.328 143.663 119.328C144.401 119.328 145.041 119.49 145.582 119.815C146.123 120.139 146.541 120.595 146.836 121.182C147.135 121.769 147.284 122.453 147.284 123.234C147.284 124.014 147.135 124.697 146.836 125.28C146.541 125.864 146.123 126.318 145.582 126.643C145.041 126.968 144.401 127.13 143.663 127.13ZM143.673 125.703C144.073 125.703 144.408 125.593 144.677 125.374C144.946 125.151 145.146 124.852 145.277 124.478C145.411 124.105 145.478 123.688 145.478 123.229C145.478 122.766 145.411 122.348 145.277 121.974C145.146 121.597 144.946 121.297 144.677 121.074C144.408 120.851 144.073 120.74 143.673 120.74C143.263 120.74 142.922 120.851 142.65 121.074C142.381 121.297 142.179 121.597 142.045 121.974C141.913 122.348 141.848 122.766 141.848 123.229C141.848 123.688 141.913 124.105 142.045 124.478C142.179 124.852 142.381 125.151 142.65 125.374C142.922 125.593 143.263 125.703 143.673 125.703ZM148.795 126.982V119.426H150.522V120.685H150.601C150.739 120.249 150.975 119.913 151.309 119.677C151.647 119.438 152.032 119.318 152.465 119.318C152.564 119.318 152.674 119.323 152.795 119.333C152.92 119.339 153.023 119.351 153.105 119.367V121.005C153.029 120.979 152.91 120.956 152.746 120.936C152.585 120.913 152.429 120.902 152.278 120.902C151.954 120.902 151.662 120.972 151.403 121.113C151.147 121.251 150.945 121.443 150.798 121.689C150.65 121.935 150.576 122.219 150.576 122.54V126.982H148.795Z" fill="#575757"/>
</svg>
