<svg width="173" height="108" viewBox="0 0 173 108" fill="none" xmlns="http://www.w3.org/2000/svg">
<path d="M2.18945 1.01074H32.6748C33.5164 1.01086 34.1991 1.69352 34.1992 2.53516V33.0205C34.1991 33.8622 33.5165 34.5448 32.6748 34.5449H2.18945C1.34782 34.5448 0.66515 33.8621 0.665039 33.0205V2.53516C0.665174 1.69354 1.34783 1.01088 2.18945 1.01074Z" fill="#F9F9F9" stroke="#E9E9E9" stroke-width="0.338721"/>
<path d="M23.8527 9.52051H11.0095C9.99625 9.52051 9.1748 10.3419 9.1748 11.3552V24.1984C9.1748 25.2117 9.99625 26.0332 11.0095 26.0332H23.8527C24.866 26.0332 25.6875 25.2117 25.6875 24.1984V11.3552C25.6875 10.3419 24.866 9.52051 23.8527 9.52051Z" stroke="#828282" stroke-width="0.677442" stroke-linecap="round" stroke-linejoin="round"/>
<path d="M14.2208 15.9425C14.9808 15.9425 15.5968 15.3265 15.5968 14.5665C15.5968 13.8065 14.9808 13.1904 14.2208 13.1904C13.4608 13.1904 12.8447 13.8065 12.8447 14.5665C12.8447 15.3265 13.4608 15.9425 14.2208 15.9425Z" stroke="#828282" stroke-width="0.677442" stroke-linecap="round" stroke-linejoin="round"/>
<path d="M25.6877 20.5292L21.1008 15.9424L11.0098 26.0334" stroke="#828282" stroke-width="0.677442" stroke-linecap="round" stroke-linejoin="round"/>
<line x1="43.4973" y1="5.66672" x2="138.202" y2="5.66672" stroke="#E9E9E9" stroke-width="2.20367" stroke-linecap="round"/>
<line x1="43.4973" y1="14.8415" x2="110.611" y2="14.8415" stroke="#E9E9E9" stroke-width="2.20367" stroke-linecap="round"/>
<line x1="46.8028" y1="27.7948" x2="54.3768" y2="27.7948" stroke="#E9E9E9" stroke-width="8.81466" stroke-linecap="round"/>
<line opacity="0.5" x1="2.33443" y1="55.649" x2="20.6983" y2="55.649" stroke="#828282" stroke-width="3.67277" stroke-linecap="round"/>
<line opacity="0.5" x1="29.5131" y1="55.649" x2="47.877" y2="55.649" stroke="#828282" stroke-width="3.67277" stroke-linecap="round"/>
<line opacity="0.5" x1="56.6919" y1="55.649" x2="75.0557" y2="55.649" stroke="#828282" stroke-width="3.67277" stroke-linecap="round"/>
<line opacity="0.5" x1="83.8696" y1="55.649" x2="96.4737" y2="55.649" stroke="#828282" stroke-width="3.67277" stroke-linecap="round"/>
<line x1="106.915" y1="54.022" x2="122.025" y2="54.022" stroke="#131317" stroke-width="6.92663" stroke-linecap="round"/>
<rect x="0.863371" y="69.3966" width="171.151" height="38.0828" rx="3.3055" fill="white" stroke="black" stroke-width="0.734555"/>
<path d="M28.824 85.2008L27.7145 80.6098C27.6535 80.3539 27.4305 80.1748 27.1764 80.1748H12.7531C12.499 80.1748 12.276 80.3539 12.215 80.6098L11.1055 85.2008C11.0944 85.2455 11.0889 85.2926 11.0889 85.3396C11.0889 86.3015 11.5293 87.1496 12.1984 87.6707V95.6693C12.1984 95.9861 12.4469 96.2432 12.7531 96.2432H18.3005C18.6067 96.2432 18.8553 95.9861 18.8553 95.6693V91.6522H21.0742V95.6693C21.0742 95.9861 21.3227 96.2432 21.629 96.2432H27.1764C27.4826 96.2432 27.7311 95.9861 27.7311 95.6693V87.6707C28.4001 87.1496 28.8406 86.3015 28.8406 85.3396C28.8406 85.2926 28.8351 85.2455 28.824 85.2008ZM26.6216 95.0955H22.1837V91.0784C22.1837 90.7616 21.9352 90.5045 21.629 90.5045H18.3005C17.9943 90.5045 17.7458 90.7616 17.7458 91.0784V95.0955H13.3078V88.1631C13.4443 88.1872 13.5819 88.209 13.7239 88.209C14.5693 88.209 15.3215 87.774 15.8042 87.0991C16.2868 87.774 17.039 88.209 17.8845 88.209C18.7299 88.209 19.4821 87.774 19.9647 87.0991C20.4474 87.774 21.1996 88.209 22.045 88.209C22.8905 88.209 23.6427 87.774 24.1253 87.0991C24.6079 87.774 25.3602 88.209 26.2056 88.209C26.3476 88.209 26.4852 88.1872 26.6216 88.1631V95.0955ZM26.2056 87.0613C25.3646 87.0613 24.68 86.2888 24.68 85.3396C24.68 85.0229 24.4315 84.7658 24.1253 84.7658C23.8191 84.7658 23.5706 85.0229 23.5706 85.3396C23.5706 86.2888 22.886 87.0613 22.045 87.0613C21.204 87.0613 20.5195 86.2888 20.5195 85.3396C20.5195 85.0229 20.271 84.7658 19.9647 84.7658C19.6585 84.7658 19.41 85.0229 19.41 85.3396C19.41 86.2888 18.7254 87.0613 17.8845 87.0613C17.0435 87.0613 16.3589 86.2888 16.3589 85.3396C16.3589 85.0229 16.1104 84.7658 15.8042 84.7658C15.498 84.7658 15.2494 85.0229 15.2494 85.3396C15.2494 86.2888 14.5649 87.0613 13.7239 87.0613C12.9029 87.0613 12.2305 86.3244 12.1995 85.4062L13.1869 81.3225H26.7437L27.7311 85.4062C27.699 86.3244 27.0266 87.0613 26.2056 87.0613Z" fill="#828282"/>
<path opacity="0.85" d="M43.184 93.2031H41.2359L44.7829 83.128H47.036L50.5879 93.2031H48.6397L45.9488 85.1942H45.8701L43.184 93.2031ZM43.248 89.2528H48.561V90.7188H43.248V89.2528ZM57.6387 85.6468L54.9477 93.2031H52.98L50.289 85.6468H52.1879L53.9245 91.2599H54.0032L55.7447 85.6468H57.6387ZM60.829 93.3556C60.3502 93.3556 59.9189 93.2704 59.5352 93.0998C59.1547 92.926 58.853 92.6702 58.63 92.3324C58.4102 91.9946 58.3004 91.5781 58.3004 91.0828C58.3004 90.6565 58.3791 90.3039 58.5365 90.0251C58.6939 89.7464 58.9087 89.5234 59.181 89.3561C59.4532 89.1888 59.7598 89.0626 60.1009 88.9773C60.4453 88.8887 60.8011 88.8248 61.1684 88.7854C61.6112 88.7395 61.9703 88.6985 62.2458 88.6624C62.5213 88.6231 62.7213 88.5641 62.846 88.4853C62.9739 88.4034 63.0378 88.2771 63.0378 88.1065V88.077C63.0378 87.7064 62.928 87.4195 62.7082 87.2161C62.4885 87.0128 62.172 86.9111 61.7588 86.9111C61.3226 86.9111 60.9766 87.0062 60.7208 87.1964C60.4682 87.3867 60.2977 87.6113 60.2091 87.8704L58.5463 87.6343C58.6775 87.1751 58.894 86.7914 59.1957 86.4831C59.4974 86.1715 59.8664 85.9387 60.3026 85.7846C60.7388 85.6271 61.2209 85.5484 61.7489 85.5484C62.113 85.5484 62.4754 85.5911 62.8361 85.6763C63.1969 85.7616 63.5265 85.9026 63.8249 86.0994C64.1234 86.2929 64.3628 86.5569 64.5432 86.8914C64.7268 87.226 64.8187 87.6441 64.8187 88.1459V93.2031H63.1067V92.1651H63.0477C62.9394 92.375 62.7869 92.5718 62.5902 92.7555C62.3967 92.9358 62.1523 93.0818 61.8572 93.1933C61.5653 93.3015 61.2225 93.3556 60.829 93.3556ZM61.2914 92.047C61.6489 92.047 61.9588 91.9765 62.2212 91.8355C62.4836 91.6912 62.6853 91.501 62.8263 91.2649C62.9706 91.0287 63.0427 90.7713 63.0427 90.4925V89.6021C62.987 89.648 62.8919 89.6906 62.7574 89.73C62.6262 89.7693 62.4786 89.8038 62.3147 89.8333C62.1507 89.8628 61.9883 89.889 61.8276 89.912C61.6669 89.935 61.5275 89.9546 61.4095 89.971C61.1438 90.0071 60.9061 90.0661 60.6962 90.1481C60.4863 90.2301 60.3206 90.3449 60.1993 90.4925C60.0779 90.6368 60.0173 90.8237 60.0173 91.0533C60.0173 91.3813 60.137 91.6289 60.3764 91.7962C60.6158 91.9634 60.9208 92.047 61.2914 92.047ZM66.6094 93.2031V85.6468H68.3902V93.2031H66.6094ZM67.5047 84.5744C67.2227 84.5744 66.98 84.4809 66.7766 84.2939C66.5733 84.1037 66.4716 83.8758 66.4716 83.6101C66.4716 83.3412 66.5733 83.1133 66.7766 82.9263C66.98 82.7361 67.2227 82.641 67.5047 82.641C67.79 82.641 68.0327 82.7361 68.2328 82.9263C68.4361 83.1133 68.5378 83.3412 68.5378 83.6101C68.5378 83.8758 68.4361 84.1037 68.2328 84.2939C68.0327 84.4809 67.79 84.5744 67.5047 84.5744ZM72.0023 83.128V93.2031H70.2215V83.128H72.0023ZM76.008 93.3556C75.5292 93.3556 75.0979 93.2704 74.7142 93.0998C74.3338 92.926 74.032 92.6702 73.809 92.3324C73.5893 91.9946 73.4794 91.5781 73.4794 91.0828C73.4794 90.6565 73.5581 90.3039 73.7156 90.0251C73.873 89.7464 74.0878 89.5234 74.36 89.3561C74.6322 89.1888 74.9389 89.0626 75.28 88.9773C75.6243 88.8887 75.9802 88.8248 76.3475 88.7854C76.7902 88.7395 77.1494 88.6985 77.4248 88.6624C77.7003 88.6231 77.9004 88.5641 78.025 88.4853C78.1529 88.4034 78.2169 88.2771 78.2169 88.1065V88.077C78.2169 87.7064 78.107 87.4195 77.8873 87.2161C77.6675 87.0128 77.3511 86.9111 76.9378 86.9111C76.5016 86.9111 76.1556 87.0062 75.8998 87.1964C75.6473 87.3867 75.4767 87.6113 75.3882 87.8704L73.7254 87.6343C73.8566 87.1751 74.073 86.7914 74.3748 86.4831C74.6765 86.1715 75.0455 85.9387 75.4817 85.7846C75.9178 85.6271 76.4 85.5484 76.928 85.5484C77.292 85.5484 77.6544 85.5911 78.0152 85.6763C78.3759 85.7616 78.7055 85.9026 79.004 86.0994C79.3024 86.2929 79.5419 86.5569 79.7222 86.8914C79.9059 87.226 79.9977 87.6441 79.9977 88.1459V93.2031H78.2858V92.1651H78.2267C78.1185 92.375 77.966 92.5718 77.7692 92.7555C77.5757 92.9358 77.3314 93.0818 77.0362 93.1933C76.7443 93.3015 76.4016 93.3556 76.008 93.3556ZM76.4705 92.047C76.8279 92.047 77.1379 91.9765 77.4002 91.8355C77.6626 91.6912 77.8643 91.501 78.0053 91.2649C78.1496 91.0287 78.2218 90.7713 78.2218 90.4925V89.6021C78.166 89.648 78.0709 89.6906 77.9365 89.73C77.8053 89.7693 77.6577 89.8038 77.4937 89.8333C77.3297 89.8628 77.1674 89.889 77.0067 89.912C76.846 89.935 76.7066 89.9546 76.5885 89.971C76.3229 90.0071 76.0851 90.0661 75.8752 90.1481C75.6653 90.2301 75.4997 90.3449 75.3783 90.4925C75.257 90.6368 75.1963 90.8237 75.1963 91.0533C75.1963 91.3813 75.316 91.6289 75.5554 91.7962C75.7949 91.9634 76.0999 92.047 76.4705 92.047ZM81.8671 93.2031V83.128H83.648V86.8964H83.7218C83.8136 86.7127 83.9432 86.5176 84.1104 86.3109C84.2777 86.101 84.504 85.9223 84.7893 85.7747C85.0746 85.6238 85.4387 85.5484 85.8814 85.5484C86.4652 85.5484 86.9916 85.6976 87.4606 85.9961C87.9329 86.2913 88.3067 86.7291 88.5822 87.3096C88.861 87.8868 89.0004 88.5952 89.0004 89.4348C89.0004 90.2646 88.8643 90.9697 88.5921 91.5502C88.3198 92.1307 87.9492 92.5734 87.4803 92.8784C87.0113 93.1834 86.48 93.336 85.8863 93.336C85.4534 93.336 85.0943 93.2638 84.809 93.1195C84.5237 92.9752 84.2941 92.8014 84.1203 92.598C83.9497 92.3914 83.8169 92.1963 83.7218 92.0126H83.6185V93.2031H81.8671ZM83.6135 89.425C83.6135 89.9136 83.6824 90.3416 83.8202 90.7089C83.9612 91.0763 84.1629 91.3632 84.4253 91.5699C84.6909 91.7732 85.0123 91.8749 85.3895 91.8749C85.783 91.8749 86.1126 91.7699 86.3783 91.56C86.6439 91.3468 86.844 91.0566 86.9785 90.6893C87.1162 90.3187 87.1851 89.8972 87.1851 89.425C87.1851 88.956 87.1179 88.5395 86.9834 88.1754C86.8489 87.8114 86.6489 87.526 86.3832 87.3194C86.1176 87.1128 85.7863 87.0095 85.3895 87.0095C85.009 87.0095 84.686 87.1095 84.4203 87.3096C84.1547 87.5096 83.953 87.7901 83.8152 88.1508C83.6808 88.5116 83.6135 88.9363 83.6135 89.425ZM92.2952 83.128V93.2031H90.5143V83.128H92.2952ZM97.4717 93.3507C96.7141 93.3507 96.0598 93.1933 95.5088 92.8784C94.9611 92.5603 94.5397 92.111 94.2445 91.5305C93.9494 90.9467 93.8018 90.2596 93.8018 89.4692C93.8018 88.692 93.9494 88.0098 94.2445 87.4227C94.543 86.8324 94.9595 86.3732 95.4941 86.0453C96.0287 85.714 96.6567 85.5484 97.3783 85.5484C97.844 85.5484 98.2834 85.6238 98.6967 85.7747C99.1132 85.9223 99.4805 86.1519 99.7986 86.4634C100.12 86.775 100.373 87.1718 100.556 87.654C100.74 88.1328 100.832 88.7034 100.832 89.3659V89.912H94.6381V88.7116H99.1247C99.1214 88.3706 99.0476 88.0672 98.9033 87.8015C98.759 87.5326 98.5573 87.3211 98.2982 87.1669C98.0424 87.0128 97.7439 86.9357 97.4028 86.9357C97.0388 86.9357 96.719 87.0243 96.4436 87.2014C96.1681 87.3752 95.9532 87.6048 95.7991 87.8901C95.6482 88.1721 95.5712 88.4821 95.5679 88.8199V89.8677C95.5679 90.3072 95.6482 90.6844 95.8089 90.9992C95.9696 91.3108 96.1943 91.5502 96.4829 91.7174C96.7715 91.8814 97.1093 91.9634 97.4963 91.9634C97.7554 91.9634 97.9899 91.9273 98.1998 91.8552C98.4097 91.7798 98.5917 91.6699 98.7459 91.5256C98.9 91.3813 99.0164 91.2025 99.0951 90.9894L100.758 91.1763C100.653 91.6158 100.453 91.9995 100.158 92.3275C99.8659 92.6521 99.492 92.9047 99.0361 93.0851C98.5802 93.2622 98.0588 93.3507 97.4717 93.3507ZM107.201 83.128L109.823 91.0582H109.927L112.544 83.128H114.551L110.999 93.2031H108.746L105.199 83.128H107.201ZM118.333 93.3507C117.575 93.3507 116.921 93.1933 116.37 92.8784C115.822 92.5603 115.401 92.111 115.106 91.5305C114.81 90.9467 114.663 90.2596 114.663 89.4692C114.663 88.692 114.81 88.0098 115.106 87.4227C115.404 86.8324 115.821 86.3732 116.355 86.0453C116.89 85.714 117.518 85.5484 118.239 85.5484C118.705 85.5484 119.144 85.6238 119.558 85.7747C119.974 85.9223 120.342 86.1519 120.66 86.4634C120.981 86.775 121.234 87.1718 121.417 87.654C121.601 88.1328 121.693 88.7034 121.693 89.3659V89.912H115.499V88.7116H119.986C119.982 88.3706 119.909 88.0672 119.764 87.8015C119.62 87.5326 119.418 87.3211 119.159 87.1669C118.903 87.0128 118.605 86.9357 118.264 86.9357C117.9 86.9357 117.58 87.0243 117.305 87.2014C117.029 87.3752 116.814 87.6048 116.66 87.8901C116.509 88.1721 116.432 88.4821 116.429 88.8199V89.8677C116.429 90.3072 116.509 90.6844 116.67 90.9992C116.831 91.3108 117.055 91.5502 117.344 91.7174C117.633 91.8814 117.97 91.9634 118.357 91.9634C118.616 91.9634 118.851 91.9273 119.061 91.8552C119.271 91.7798 119.453 91.6699 119.607 91.5256C119.761 91.3813 119.877 91.2025 119.956 90.9894L121.619 91.1763C121.514 91.6158 121.314 91.9995 121.019 92.3275C120.727 92.6521 120.353 92.9047 119.897 93.0851C119.441 93.2622 118.92 93.3507 118.333 93.3507ZM124.98 88.7756V93.2031H123.199V85.6468H124.902V86.9308H124.99C125.164 86.5077 125.441 86.1715 125.821 85.9223C126.205 85.673 126.679 85.5484 127.243 85.5484C127.765 85.5484 128.219 85.6599 128.606 85.8829C128.996 86.106 129.298 86.429 129.511 86.8521C129.728 87.2752 129.834 87.7884 129.831 88.3919V93.2031H128.05V88.6674C128.05 88.1623 127.919 87.7671 127.656 87.4818C127.397 87.1964 127.038 87.0538 126.579 87.0538C126.267 87.0538 125.99 87.1226 125.748 87.2604C125.508 87.3949 125.32 87.59 125.182 87.8458C125.047 88.1016 124.98 88.4116 124.98 88.7756ZM134.445 93.336C133.852 93.336 133.32 93.1834 132.851 92.8784C132.382 92.5734 132.012 92.1307 131.74 91.5502C131.467 90.9697 131.331 90.2646 131.331 89.4348C131.331 88.5952 131.469 87.8868 131.744 87.3096C132.023 86.7291 132.399 86.2913 132.871 85.9961C133.343 85.6976 133.87 85.5484 134.45 85.5484C134.893 85.5484 135.257 85.6238 135.542 85.7747C135.828 85.9223 136.054 86.101 136.221 86.3109C136.388 86.5176 136.518 86.7127 136.61 86.8964H136.684V83.128H138.469V93.2031H136.718V92.0126H136.61C136.518 92.1963 136.385 92.3914 136.211 92.598C136.038 92.8014 135.808 92.9752 135.523 93.1195C135.237 93.2638 134.878 93.336 134.445 93.336ZM134.942 91.8749C135.319 91.8749 135.641 91.7732 135.906 91.5699C136.172 91.3632 136.374 91.0763 136.511 90.7089C136.649 90.3416 136.718 89.9136 136.718 89.425C136.718 88.9363 136.649 88.5116 136.511 88.1508C136.377 87.7901 136.177 87.5096 135.911 87.3096C135.649 87.1095 135.326 87.0095 134.942 87.0095C134.545 87.0095 134.214 87.1128 133.948 87.3194C133.683 87.526 133.483 87.8114 133.348 88.1754C133.214 88.5395 133.147 88.956 133.147 89.425C133.147 89.8972 133.214 90.3187 133.348 90.6893C133.486 91.0566 133.688 91.3468 133.953 91.56C134.222 91.7699 134.552 91.8749 134.942 91.8749ZM143.663 93.3507C142.925 93.3507 142.286 93.1884 141.745 92.8637C141.203 92.539 140.784 92.0848 140.485 91.501C140.19 90.9172 140.042 90.235 140.042 89.4545C140.042 88.6739 140.19 87.9901 140.485 87.4031C140.784 86.816 141.203 86.3601 141.745 86.0354C142.286 85.7108 142.925 85.5484 143.663 85.5484C144.401 85.5484 145.041 85.7108 145.582 86.0354C146.123 86.3601 146.541 86.816 146.836 87.4031C147.135 87.9901 147.284 88.6739 147.284 89.4545C147.284 90.235 147.135 90.9172 146.836 91.501C146.541 92.0848 146.123 92.539 145.582 92.8637C145.041 93.1884 144.401 93.3507 143.663 93.3507ZM143.673 91.9241C144.073 91.9241 144.408 91.8142 144.677 91.5945C144.946 91.3714 145.146 91.073 145.277 90.6991C145.411 90.3252 145.478 89.9087 145.478 89.4496C145.478 88.9871 145.411 88.569 145.277 88.1951C145.146 87.8179 144.946 87.5178 144.677 87.2948C144.408 87.0718 144.073 86.9603 143.673 86.9603C143.263 86.9603 142.922 87.0718 142.65 87.2948C142.381 87.5178 142.179 87.8179 142.045 88.1951C141.913 88.569 141.848 88.9871 141.848 89.4496C141.848 89.9087 141.913 90.3252 142.045 90.6991C142.179 91.073 142.381 91.3714 142.65 91.5945C142.922 91.8142 143.263 91.9241 143.673 91.9241ZM148.795 93.2031V85.6468H150.522V86.9062H150.601C150.739 86.47 150.975 86.1338 151.309 85.8977C151.647 85.6583 152.032 85.5386 152.465 85.5386C152.564 85.5386 152.674 85.5435 152.795 85.5533C152.92 85.5599 153.023 85.5714 153.105 85.5878V87.226C153.029 87.1997 152.91 87.1768 152.746 87.1571C152.585 87.1341 152.429 87.1226 152.278 87.1226C151.954 87.1226 151.662 87.1932 151.403 87.3342C151.147 87.4719 150.945 87.6638 150.798 87.9098C150.65 88.1557 150.576 88.4394 150.576 88.7608V93.2031H148.795Z" fill="#575757"/>
</svg>
