<svg width="172" height="139" viewBox="0 0 172 139" fill="none" xmlns="http://www.w3.org/2000/svg">
<path d="M1.69336 0.168945H32.1787C33.0204 0.169059 33.703 0.851726 33.7031 1.69336V32.1787C33.703 33.0204 33.0204 33.703 32.1787 33.7031H1.69336C0.851725 33.703 0.169057 33.0204 0.168945 32.1787V1.69336C0.169081 0.851739 0.851739 0.169078 1.69336 0.168945Z" fill="#F9F9F9" stroke="#E9E9E9" stroke-width="0.338721"/>
<path d="M22.84 8.16211H9.99685C8.98355 8.16211 8.16211 8.98355 8.16211 9.99685V22.84C8.16211 23.8533 8.98355 24.6748 9.99685 24.6748H22.84C23.8533 24.6748 24.6748 23.8533 24.6748 22.84V9.99685C24.6748 8.98355 23.8533 8.16211 22.84 8.16211Z" stroke="#828282" stroke-width="0.677442" stroke-linecap="round" stroke-linejoin="round"/>
<path d="M13.2081 14.5841C13.9681 14.5841 14.5841 13.9681 14.5841 13.2081C14.5841 12.4481 13.9681 11.832 13.2081 11.832C12.4481 11.832 11.832 12.4481 11.832 13.2081C11.832 13.9681 12.4481 14.5841 13.2081 14.5841Z" stroke="#828282" stroke-width="0.677442" stroke-linecap="round" stroke-linejoin="round"/>
<path d="M24.675 19.1708L20.0881 14.584L9.99707 24.6751" stroke="#828282" stroke-width="0.677442" stroke-linecap="round" stroke-linejoin="round"/>
<line x1="43.0003" y1="4.8259" x2="137.705" y2="4.8259" stroke="#E9E9E9" stroke-width="2.20367" stroke-linecap="round"/>
<line x1="43.0003" y1="14.0007" x2="110.114" y2="14.0007" stroke="#E9E9E9" stroke-width="2.20367" stroke-linecap="round"/>
<line x1="46.3058" y1="26.954" x2="53.8797" y2="26.954" stroke="#E9E9E9" stroke-width="8.81466" stroke-linecap="round"/>
<rect x="0.367277" y="57.0108" width="171.151" height="38.0828" rx="3.3055" fill="white" stroke="black" stroke-width="0.734555"/>
<path d="M27.5574 71.7252L26.4479 67.1342C26.3869 66.8783 26.1639 66.6992 25.9098 66.6992H11.4865C11.2324 66.6992 11.0094 66.8783 10.9484 67.1342L9.83891 71.7252C9.82781 71.7699 9.82227 71.817 9.82227 71.8641C9.82227 72.8259 10.2627 73.674 10.9317 74.1951V82.1937C10.9317 82.5105 11.1803 82.7676 11.4865 82.7676H17.0339C17.3401 82.7676 17.5887 82.5105 17.5887 82.1937V78.1766H19.8076V82.1937C19.8076 82.5105 20.0561 82.7676 20.3624 82.7676H25.9098C26.216 82.7676 26.4645 82.5105 26.4645 82.1937V74.1951C27.1335 73.674 27.574 72.8259 27.574 71.8641C27.574 71.817 27.5685 71.7699 27.5574 71.7252ZM25.355 81.6199H20.9171V77.6028C20.9171 77.286 20.6686 77.0289 20.3624 77.0289H17.0339C16.7277 77.0289 16.4792 77.286 16.4792 77.6028V81.6199H12.0412V74.6875C12.1777 74.7116 12.3153 74.7334 12.4573 74.7334C13.3027 74.7334 14.0549 74.2984 14.5376 73.6235C15.0202 74.2984 15.7724 74.7334 16.6179 74.7334C17.4633 74.7334 18.2155 74.2984 18.6981 73.6235C19.1808 74.2984 19.933 74.7334 20.7784 74.7334C21.6238 74.7334 22.3761 74.2984 22.8587 73.6235C23.3413 74.2984 24.0936 74.7334 24.939 74.7334C25.081 74.7334 25.2186 74.7116 25.355 74.6875V81.6199ZM24.939 73.5857C24.098 73.5857 23.4134 72.8132 23.4134 71.8641C23.4134 71.5473 23.1649 71.2902 22.8587 71.2902C22.5525 71.2902 22.304 71.5473 22.304 71.8641C22.304 72.8132 21.6194 73.5857 20.7784 73.5857C19.9374 73.5857 19.2529 72.8132 19.2529 71.8641C19.2529 71.5473 19.0044 71.2902 18.6981 71.2902C18.3919 71.2902 18.1434 71.5473 18.1434 71.8641C18.1434 72.8132 17.4588 73.5857 16.6179 73.5857C15.7769 73.5857 15.0923 72.8132 15.0923 71.8641C15.0923 71.5473 14.8438 71.2902 14.5376 71.2902C14.2314 71.2902 13.9828 71.5473 13.9828 71.8641C13.9828 72.8132 13.2983 73.5857 12.4573 73.5857C11.6363 73.5857 10.9639 72.8488 10.9329 71.9306L11.9203 67.847H25.4771L26.4645 71.9306C26.4324 72.8488 25.76 73.5857 24.939 73.5857Z" fill="#828282"/>
<path opacity="0.85" d="M42.3819 79.6436H40.6944L43.7669 70.9163H45.7186L48.7953 79.6436H47.1078L44.7768 72.7061H44.7086L42.3819 79.6436ZM42.4373 76.2217H47.0396V77.4916H42.4373V76.2217ZM54.9029 73.0981L52.5719 79.6436H50.8674L48.5364 73.0981H50.1813L51.6855 77.9603H51.7537L53.2623 73.0981H54.9029ZM57.6664 79.7757C57.2516 79.7757 56.878 79.7018 56.5456 79.5541C56.2161 79.4035 55.9547 79.1819 55.7615 78.8893C55.5712 78.5967 55.476 78.2359 55.476 77.8069C55.476 77.4376 55.5442 77.1322 55.6806 76.8907C55.8169 76.6492 56.003 76.4561 56.2388 76.3112C56.4746 76.1663 56.7402 76.0569 57.0357 75.983C57.334 75.9063 57.6422 75.8509 57.9604 75.8168C58.3439 75.7771 58.655 75.7416 58.8936 75.7103C59.1323 75.6762 59.3056 75.6251 59.4135 75.5569C59.5243 75.4859 59.5797 75.3765 59.5797 75.2288V75.2032C59.5797 74.8822 59.4846 74.6336 59.2942 74.4575C59.1039 74.2813 58.8297 74.1933 58.4718 74.1933C58.0939 74.1933 57.7942 74.2757 57.5726 74.4404C57.3539 74.6052 57.2061 74.7998 57.1294 75.0242L55.6891 74.8197C55.8027 74.422 55.9902 74.0896 56.2516 73.8225C56.513 73.5526 56.8326 73.3509 57.2104 73.2174C57.5882 73.0811 58.0059 73.0129 58.4632 73.0129C58.7786 73.0129 59.0925 73.0498 59.405 73.1237C59.7175 73.1975 60.003 73.3197 60.2615 73.4901C60.5201 73.6578 60.7275 73.8865 60.8837 74.1762C61.0428 74.466 61.1223 74.8282 61.1223 75.2629V79.6436H59.6394V78.7444H59.5882C59.4945 78.9262 59.3624 79.0967 59.1919 79.2558C59.0243 79.412 58.8127 79.5384 58.557 79.635C58.3042 79.7288 58.0073 79.7757 57.6664 79.7757ZM58.0669 78.6421C58.3766 78.6421 58.6451 78.5811 58.8723 78.4589C59.0996 78.3339 59.2743 78.1691 59.3965 77.9646C59.5215 77.76 59.584 77.537 59.584 77.2955V76.5242C59.5357 76.564 59.4533 76.6009 59.3368 76.635C59.2232 76.6691 59.0953 76.699 58.9533 76.7245C58.8113 76.7501 58.6706 76.7728 58.5314 76.7927C58.3922 76.8126 58.2715 76.8296 58.1692 76.8438C57.9391 76.8751 57.7331 76.9262 57.5513 76.9972C57.3695 77.0683 57.226 77.1677 57.1209 77.2955C57.0158 77.4205 56.9632 77.5825 56.9632 77.7813C56.9632 78.0654 57.0669 78.2799 57.2743 78.4248C57.4817 78.5697 57.7459 78.6421 58.0669 78.6421ZM62.6735 79.6436V73.0981H64.2161V79.6436H62.6735ZM63.449 72.1691C63.2047 72.1691 62.9945 72.0882 62.8184 71.9262C62.6422 71.7615 62.5542 71.564 62.5542 71.3339C62.5542 71.1009 62.6422 70.9035 62.8184 70.7416C62.9945 70.5768 63.2047 70.4944 63.449 70.4944C63.6962 70.4944 63.9064 70.5768 64.0797 70.7416C64.2559 70.9035 64.3439 71.1009 64.3439 71.3339C64.3439 71.564 64.2559 71.7615 64.0797 71.9262C63.9064 72.0882 63.6962 72.1691 63.449 72.1691ZM67.345 70.9163V79.6436H65.8024V70.9163H67.345ZM70.8148 79.7757C70.4 79.7757 70.0265 79.7018 69.6941 79.5541C69.3645 79.4035 69.1032 79.1819 68.91 78.8893C68.7196 78.5967 68.6245 78.2359 68.6245 77.8069C68.6245 77.4376 68.6926 77.1322 68.829 76.8907C68.9654 76.6492 69.1515 76.4561 69.3873 76.3112C69.623 76.1663 69.8887 76.0569 70.1841 75.983C70.4824 75.9063 70.7907 75.8509 71.1088 75.8168C71.4924 75.7771 71.8034 75.7416 72.0421 75.7103C72.2807 75.6762 72.454 75.6251 72.562 75.5569C72.6728 75.4859 72.7282 75.3765 72.7282 75.2288V75.2032C72.7282 74.8822 72.633 74.6336 72.4426 74.4575C72.2523 74.2813 71.9782 74.1933 71.6202 74.1933C71.2424 74.1933 70.9426 74.2757 70.7211 74.4404C70.5023 74.6052 70.3546 74.7998 70.2779 75.0242L68.8375 74.8197C68.9512 74.422 69.1387 74.0896 69.4 73.8225C69.6614 73.5526 69.981 73.3509 70.3588 73.2174C70.7367 73.0811 71.1543 73.0129 71.6117 73.0129C71.927 73.0129 72.2409 73.0498 72.5534 73.1237C72.8659 73.1975 73.1515 73.3197 73.41 73.4901C73.6685 73.6578 73.8759 73.8865 74.0321 74.1762C74.1912 74.466 74.2708 74.8282 74.2708 75.2629V79.6436H72.7878V78.7444H72.7367C72.6429 78.9262 72.5108 79.0967 72.3404 79.2558C72.1728 79.412 71.9611 79.5384 71.7054 79.635C71.4526 79.7288 71.1557 79.7757 70.8148 79.7757ZM71.2154 78.6421C71.525 78.6421 71.7935 78.5811 72.0208 78.4589C72.248 78.3339 72.4228 78.1691 72.5449 77.9646C72.6699 77.76 72.7324 77.537 72.7324 77.2955V76.5242C72.6841 76.564 72.6017 76.6009 72.4853 76.635C72.3716 76.6691 72.2438 76.699 72.1017 76.7245C71.9597 76.7501 71.8191 76.7728 71.6799 76.7927C71.5407 76.8126 71.4199 76.8296 71.3176 76.8438C71.0875 76.8751 70.8816 76.9262 70.6998 76.9972C70.5179 77.0683 70.3745 77.1677 70.2694 77.2955C70.1642 77.4205 70.1117 77.5825 70.1117 77.7813C70.1117 78.0654 70.2154 78.2799 70.4228 78.4248C70.6301 78.5697 70.8944 78.6421 71.2154 78.6421ZM75.8901 79.6436V70.9163H77.4327V74.1805H77.4966C77.5762 74.0214 77.6884 73.8524 77.8333 73.6734C77.9782 73.4916 78.1742 73.3367 78.4213 73.2089C78.6685 73.0782 78.9838 73.0129 79.3674 73.0129C79.873 73.0129 80.329 73.1421 80.7353 73.4007C81.1444 73.6563 81.4682 74.0356 81.7069 74.5384C81.9483 75.0384 82.0691 75.6521 82.0691 76.3793C82.0691 77.0981 81.9512 77.7089 81.7154 78.2117C81.4796 78.7146 81.1586 79.0981 80.7523 79.3623C80.3461 79.6265 79.8858 79.7586 79.3716 79.7586C78.9966 79.7586 78.6855 79.6961 78.4384 79.5711C78.1912 79.4461 77.9924 79.2955 77.8418 79.1194C77.6941 78.9404 77.579 78.7714 77.4966 78.6123H77.4071V79.6436H75.8901ZM77.4029 76.3708C77.4029 76.7941 77.4625 77.1649 77.5819 77.483C77.704 77.8012 77.8787 78.0498 78.106 78.2288C78.3361 78.4049 78.6145 78.493 78.9412 78.493C79.2821 78.493 79.5676 78.4021 79.7978 78.2203C80.0279 78.0356 80.2012 77.7842 80.3176 77.466C80.437 77.145 80.4966 76.7799 80.4966 76.3708C80.4966 75.9646 80.4384 75.6038 80.3219 75.2884C80.2054 74.9731 80.0321 74.7259 79.802 74.547C79.5719 74.368 79.285 74.2785 78.9412 74.2785C78.6117 74.2785 78.3319 74.3651 78.1017 74.5384C77.8716 74.7117 77.6969 74.9546 77.5776 75.2671C77.4611 75.5796 77.4029 75.9475 77.4029 76.3708ZM84.9231 70.9163V79.6436H83.3805V70.9163H84.9231ZM89.4071 79.7714C88.7509 79.7714 88.1841 79.635 87.7069 79.3623C87.2324 79.0867 86.8674 78.6975 86.6117 78.1947C86.356 77.689 86.2282 77.0938 86.2282 76.4092C86.2282 75.7359 86.356 75.145 86.6117 74.6365C86.8702 74.1251 87.231 73.7274 87.6941 73.4433C88.1571 73.1563 88.7012 73.0129 89.3262 73.0129C89.7296 73.0129 90.1103 73.0782 90.4682 73.2089C90.829 73.3367 91.1472 73.5356 91.4228 73.8055C91.7012 74.0754 91.9199 74.4191 92.079 74.8367C92.2381 75.2515 92.3176 75.7458 92.3176 76.3197V76.7927H86.9526V75.7529H90.839C90.8361 75.4575 90.7722 75.1947 90.6472 74.9646C90.5222 74.7316 90.3475 74.5484 90.123 74.4149C89.9015 74.2813 89.6429 74.2146 89.3475 74.2146C89.0321 74.2146 88.7551 74.2913 88.5165 74.4447C88.2779 74.5953 88.0918 74.7941 87.9583 75.0413C87.8276 75.2856 87.7608 75.5541 87.758 75.8467V76.7544C87.758 77.135 87.8276 77.4617 87.9668 77.7345C88.106 78.0044 88.3006 78.2117 88.5506 78.3566C88.8006 78.4987 89.0932 78.5697 89.4284 78.5697C89.6529 78.5697 89.856 78.5384 90.0378 78.4759C90.2196 78.4106 90.3773 78.3154 90.5108 78.1904C90.6444 78.0654 90.7452 77.9106 90.8134 77.7259L92.2537 77.8879C92.1628 78.2686 91.9895 78.6009 91.7338 78.885C91.481 79.1663 91.1571 79.385 90.7623 79.5413C90.3674 79.6947 89.9157 79.7714 89.4071 79.7714ZM97.835 70.9163L100.106 77.7856H100.196L102.463 70.9163H104.202L101.125 79.6436H99.1731L96.1007 70.9163H97.835ZM107.477 79.7714C106.821 79.7714 106.254 79.635 105.777 79.3623C105.303 79.0867 104.938 78.6975 104.682 78.1947C104.426 77.689 104.298 77.0938 104.298 76.4092C104.298 75.7359 104.426 75.145 104.682 74.6365C104.941 74.1251 105.301 73.7274 105.764 73.4433C106.227 73.1563 106.771 73.0129 107.396 73.0129C107.8 73.0129 108.181 73.0782 108.539 73.2089C108.899 73.3367 109.218 73.5356 109.493 73.8055C109.771 74.0754 109.99 74.4191 110.149 74.8367C110.308 75.2515 110.388 75.7458 110.388 76.3197V76.7927H105.023V75.7529H108.909C108.906 75.4575 108.843 75.1947 108.718 74.9646C108.593 74.7316 108.418 74.5484 108.193 74.4149C107.972 74.2813 107.713 74.2146 107.418 74.2146C107.102 74.2146 106.825 74.2913 106.587 74.4447C106.348 74.5953 106.162 74.7941 106.029 75.0413C105.898 75.2856 105.831 75.5541 105.828 75.8467V76.7544C105.828 77.135 105.898 77.4617 106.037 77.7345C106.176 78.0044 106.371 78.2117 106.621 78.3566C106.871 78.4987 107.164 78.5697 107.499 78.5697C107.723 78.5697 107.926 78.5384 108.108 78.4759C108.29 78.4106 108.448 78.3154 108.581 78.1904C108.715 78.0654 108.816 77.9106 108.884 77.7259L110.324 77.8879C110.233 78.2686 110.06 78.6009 109.804 78.885C109.551 79.1663 109.227 79.385 108.833 79.5413C108.438 79.6947 107.986 79.7714 107.477 79.7714ZM113.236 75.8083V79.6436H111.693V73.0981H113.167V74.2103H113.244C113.395 73.8438 113.635 73.5526 113.964 73.3367C114.297 73.1208 114.707 73.0129 115.196 73.0129C115.648 73.0129 116.041 73.1095 116.376 73.3026C116.714 73.4958 116.976 73.7757 117.16 74.1421C117.348 74.5086 117.44 74.9532 117.437 75.4759V79.6436H115.895V75.7146C115.895 75.2771 115.781 74.9347 115.554 74.6876C115.329 74.4404 115.018 74.3168 114.621 74.3168C114.351 74.3168 114.111 74.3765 113.9 74.4958C113.693 74.6123 113.53 74.7813 113.41 75.0029C113.294 75.2245 113.236 75.493 113.236 75.8083ZM121.434 79.7586C120.92 79.7586 120.46 79.6265 120.054 79.3623C119.648 79.0981 119.327 78.7146 119.091 78.2117C118.855 77.7089 118.737 77.0981 118.737 76.3793C118.737 75.6521 118.856 75.0384 119.095 74.5384C119.336 74.0356 119.662 73.6563 120.071 73.4007C120.48 73.1421 120.936 73.0129 121.439 73.0129C121.822 73.0129 122.138 73.0782 122.385 73.2089C122.632 73.3367 122.828 73.4916 122.973 73.6734C123.118 73.8524 123.23 74.0214 123.309 74.1805H123.373V70.9163H124.92V79.6436H123.403V78.6123H123.309C123.23 78.7714 123.115 78.9404 122.964 79.1194C122.814 79.2955 122.615 79.4461 122.368 79.5711C122.121 79.6961 121.809 79.7586 121.434 79.7586ZM121.865 78.493C122.192 78.493 122.47 78.4049 122.7 78.2288C122.93 78.0498 123.105 77.8012 123.224 77.483C123.344 77.1649 123.403 76.7941 123.403 76.3708C123.403 75.9475 123.344 75.5796 123.224 75.2671C123.108 74.9546 122.934 74.7117 122.704 74.5384C122.477 74.3651 122.197 74.2785 121.865 74.2785C121.521 74.2785 121.234 74.368 121.004 74.547C120.774 74.7259 120.601 74.9731 120.484 75.2884C120.368 75.6038 120.309 75.9646 120.309 76.3708C120.309 76.7799 120.368 77.145 120.484 77.466C120.604 77.7842 120.778 78.0356 121.008 78.2203C121.241 78.4021 121.527 78.493 121.865 78.493ZM129.419 79.7714C128.78 79.7714 128.226 79.6308 127.757 79.3495C127.289 79.0683 126.925 78.6748 126.666 78.1691C126.411 77.6634 126.283 77.0725 126.283 76.3964C126.283 75.7203 126.411 75.1279 126.666 74.6194C126.925 74.1109 127.289 73.716 127.757 73.4347C128.226 73.1535 128.78 73.0129 129.419 73.0129C130.058 73.0129 130.612 73.1535 131.081 73.4347C131.55 73.716 131.912 74.1109 132.168 74.6194C132.426 75.1279 132.556 75.7203 132.556 76.3964C132.556 77.0725 132.426 77.6634 132.168 78.1691C131.912 78.6748 131.55 79.0683 131.081 79.3495C130.612 79.6308 130.058 79.7714 129.419 79.7714ZM129.428 78.5356C129.774 78.5356 130.064 78.4404 130.297 78.2501C130.53 78.0569 130.703 77.7984 130.817 77.4745C130.933 77.1507 130.992 76.7899 130.992 76.3921C130.992 75.9916 130.933 75.6293 130.817 75.3055C130.703 74.9788 130.53 74.7188 130.297 74.5257C130.064 74.3325 129.774 74.2359 129.428 74.2359C129.073 74.2359 128.777 74.3325 128.541 74.5257C128.308 74.7188 128.134 74.9788 128.017 75.3055C127.904 75.6293 127.847 75.9916 127.847 76.3921C127.847 76.7899 127.904 77.1507 128.017 77.4745C128.134 77.7984 128.308 78.0569 128.541 78.2501C128.777 78.4404 129.073 78.5356 129.428 78.5356ZM133.865 79.6436V73.0981H135.361V74.189H135.429C135.548 73.8112 135.753 73.52 136.042 73.3154C136.335 73.108 136.669 73.0043 137.044 73.0043C137.129 73.0043 137.224 73.0086 137.329 73.0171C137.437 73.0228 137.527 73.0328 137.598 73.047V74.466C137.532 74.4433 137.429 74.4234 137.287 74.4063C137.148 74.3865 137.013 74.3765 136.882 74.3765C136.601 74.3765 136.348 74.4376 136.123 74.5597C135.902 74.6791 135.727 74.8453 135.599 75.0583C135.471 75.2714 135.407 75.5171 135.407 75.7955V79.6436H133.865ZM143.796 74.8282L142.39 74.9816C142.35 74.8396 142.28 74.7061 142.181 74.5811C142.084 74.4561 141.954 74.3552 141.789 74.2785C141.624 74.2018 141.422 74.1634 141.184 74.1634C140.863 74.1634 140.593 74.233 140.374 74.3722C140.158 74.5115 140.052 74.6919 140.055 74.9134C140.052 75.1038 140.121 75.2586 140.263 75.3779C140.408 75.4972 140.647 75.5953 140.979 75.672L142.096 75.9106C142.715 76.0441 143.175 76.2558 143.476 76.5455C143.78 76.8353 143.934 77.2146 143.937 77.6833C143.934 78.0953 143.813 78.4589 143.574 78.7742C143.339 79.0867 143.01 79.3311 142.59 79.5072C142.17 79.6833 141.687 79.7714 141.141 79.7714C140.34 79.7714 139.695 79.6038 139.206 79.2686C138.718 78.9305 138.427 78.4603 138.333 77.858L139.837 77.7132C139.905 78.0086 140.05 78.2316 140.272 78.3822C140.493 78.5328 140.782 78.608 141.137 78.608C141.503 78.608 141.797 78.5328 142.019 78.3822C142.243 78.2316 142.356 78.0455 142.356 77.824C142.356 77.6365 142.283 77.4816 142.138 77.3595C141.996 77.2373 141.775 77.1436 141.474 77.0782L140.357 76.8438C139.729 76.7132 139.265 76.493 138.964 76.1833C138.662 75.8708 138.513 75.4759 138.516 74.9987C138.513 74.5953 138.623 74.2458 138.844 73.9504C139.069 73.6521 139.38 73.422 139.778 73.26C140.178 73.0953 140.64 73.0129 141.162 73.0129C141.93 73.0129 142.533 73.1762 142.974 73.5029C143.417 73.8296 143.691 74.2714 143.796 74.8282Z" fill="#575757"/>
<line opacity="0.5" x1="1.83639" y1="116.395" x2="20.2003" y2="116.395" stroke="#828282" stroke-width="3.67277" stroke-linecap="round"/>
<line opacity="0.5" x1="29.0151" y1="116.395" x2="47.379" y2="116.395" stroke="#828282" stroke-width="3.67277" stroke-linecap="round"/>
<line opacity="0.5" x1="56.1938" y1="116.395" x2="74.5577" y2="116.395" stroke="#828282" stroke-width="3.67277" stroke-linecap="round"/>
<line opacity="0.5" x1="83.3715" y1="116.395" x2="95.9756" y2="116.395" stroke="#828282" stroke-width="3.67277" stroke-linecap="round"/>
<line opacity="0.5" x1="104.79" y1="116.395" x2="123.154" y2="116.395" stroke="#828282" stroke-width="3.67277" stroke-linecap="round"/>
<line x1="0.734555" y1="129.053" x2="171.265" y2="129.053" stroke="#D3D3D3" stroke-width="1.46911" stroke-linecap="round"/>
<line x1="0.734555" y1="138.15" x2="139.528" y2="138.15" stroke="#D3D3D3" stroke-width="1.46911" stroke-linecap="round"/>
</svg>
