<svg width="44" height="44" viewBox="0 0 44 44" fill="none" xmlns="http://www.w3.org/2000/svg">
<rect x="0.513158" y="0.513158" width="42.8225" height="42.9737" rx="2.56579" fill="white" stroke="#E9E9E9" stroke-width="1.02632"/>
<g clip-path="url(#clip0_3640_18294)">
<path d="M24.3501 33.0479L24.4389 33.2318L24.4422 33.2306C24.3578 33.3998 23.9274 34.2469 23.4105 34.9037C23.1641 35.2171 22.8982 35.4869 22.6408 35.6189L22.587 35.6577C22.587 35.6577 22.5834 35.6601 22.5756 35.6638C22.5756 35.6638 21.8943 35.9671 21.2707 35.6638L21.2593 35.6577L21.2052 35.6189C20.9482 35.4869 20.6822 35.2167 20.4358 34.9037C19.9194 34.2469 19.4885 33.3998 19.4046 33.2306L19.4075 33.2318L19.4962 33.0479L19.5101 33.0405C19.6152 33.2391 19.7154 33.4149 19.8111 33.5747C20.0611 33.9927 20.2831 34.3042 20.4932 34.6454C20.4941 34.6479 20.4957 34.6495 20.4969 34.6515C20.8199 35.1734 21.2137 35.4489 21.2137 35.4489C21.2137 35.4489 21.4112 35.6409 21.7472 35.6728H21.7489C21.803 35.6781 21.8613 35.6785 21.9232 35.6736C21.9843 35.6785 22.0425 35.6777 22.0971 35.6728H22.0991C22.4347 35.6409 22.6322 35.4489 22.6322 35.4489C22.6322 35.4489 23.0261 35.1734 23.349 34.6519L23.3531 34.6458C23.5629 34.3042 23.7848 33.9927 24.0349 33.5747C24.131 33.4145 24.2308 33.2396 24.3363 33.0405L24.3501 33.0479Z" fill="#FDFDFD"/>
<path d="M35.7488 23.5225C35.8221 23.5805 35.9089 23.6222 36.0038 23.6418C35.9744 24.0614 35.9262 24.4795 35.8592 24.8948L35.79 24.8838C35.68 25.3893 35.4674 25.9668 35.2198 26.5315C35.5067 25.5513 35.6841 24.5421 35.7488 23.5225Z" fill="#DC01FF"/>
<path d="M35.7891 24.8838L35.8583 24.8944C35.6797 26.0079 35.3676 27.0956 34.9289 28.134C34.2203 29.816 33.1929 31.3439 31.9037 32.6327C31.2431 33.296 30.5187 33.892 29.7411 34.4121H29.7403C29.4462 34.5408 29.1937 34.6348 28.9958 34.663L29.3228 34.363C32.1322 32.5763 34.2598 29.8038 35.2177 26.534L35.2181 26.5324L35.2185 26.5312C35.4665 25.9664 35.6795 25.3889 35.7891 24.8838Z" fill="#DC01FF"/>
<path d="M35.2186 26.5342C34.2607 29.8036 32.1335 32.5765 29.3237 34.3636L30.4132 33.3632C30.787 33.084 31.1552 32.7501 31.4574 32.404C32.535 31.4142 33.3903 30.1645 34.011 29.0729C34.7738 27.7324 35.1839 26.6302 35.2173 26.5374C35.2173 26.5362 35.2181 26.5354 35.2186 26.5342Z" fill="#FF8D02"/>
<path d="M35.2164 26.5376C35.1826 26.63 34.7733 27.7326 34.0105 29.073C34.077 28.9577 34.1132 28.8274 34.1156 28.6942C34.4088 28.1825 34.8503 27.3733 35.2164 26.5376Z" fill="#EAEAEC"/>
<path d="M35.7481 23.5216C35.6832 24.5414 35.5056 25.5507 35.2186 26.5311V26.5319L35.2178 26.5336C35.2178 26.5348 35.217 26.5356 35.2166 26.5368C34.85 27.3726 34.4089 28.1813 34.1157 28.693C34.1186 28.5566 34.0861 28.4218 34.0216 28.3017C33.9571 28.1815 33.8627 28.0803 33.7475 28.0077C34.5002 26.3322 34.8876 24.5147 34.8838 22.6769C34.8877 20.6542 34.418 18.6588 33.5125 16.8516C33.6415 16.8134 33.7585 16.7424 33.8522 16.6457C33.946 16.5489 34.0133 16.4295 34.0477 16.2991C34.081 16.1767 34.0841 16.0481 34.0567 15.9243C35.1705 17.9432 35.7617 20.2103 35.7762 22.5179" fill="#EAEAEC"/>
<path d="M33.747 28.0083C33.9161 28.1146 34.037 28.278 34.0887 28.473C34.1083 28.5461 34.1173 28.6201 34.1152 28.6937C34.0105 28.8774 33.9029 29.0596 33.7927 29.2401L33.7059 29.3704C33.601 29.4282 33.4843 29.4612 33.3648 29.467C33.2453 29.4728 33.126 29.4513 33.016 29.4039C33.0669 29.3197 33.1166 29.2351 33.1659 29.1497C33.1954 29.1599 33.2258 29.1672 33.2567 29.1714L33.286 29.1747C33.3626 29.1812 33.4396 29.1698 33.511 29.1414C33.5825 29.1129 33.6463 29.0682 33.6975 29.0107C33.7488 28.9532 33.786 28.8846 33.8062 28.8102C33.8265 28.7358 33.8292 28.6577 33.8142 28.5821V28.5813C33.8128 28.5723 33.8108 28.5634 33.8081 28.5547C33.8073 28.5523 33.8073 28.549 33.8061 28.5465L33.798 28.5196C33.7916 28.5 33.784 28.4809 33.7751 28.4623L33.7743 28.4595C33.7654 28.4405 33.755 28.4222 33.7434 28.4047L33.7426 28.4043C33.7369 28.3949 33.7303 28.3859 33.7238 28.3773C33.7185 28.3704 33.7136 28.3638 33.7075 28.3569C33.7035 28.3518 33.6991 28.3468 33.6945 28.3422C33.6921 28.3385 33.6888 28.3357 33.686 28.3324C33.6809 28.3267 33.6754 28.3214 33.6697 28.3164C33.6688 28.3156 33.6684 28.3144 33.6672 28.314L33.657 28.3042C33.6538 28.3005 33.6497 28.2981 33.646 28.2948C33.6386 28.2884 33.6308 28.2824 33.6228 28.2768L33.6224 28.2764C33.6648 28.1877 33.7067 28.0982 33.747 28.0083Z" fill="#FDFDFD"/>
<path d="M33.7928 29.2402C33.7928 29.2402 33.9219 29.0318 34.1157 28.6938C34.1126 28.8326 34.0731 28.9682 34.0014 29.0869C33.9296 29.2056 33.8281 29.3033 33.7068 29.3702L33.7928 29.2402Z" fill="#FDFDFD"/>
<path d="M34.0111 29.0728C33.3904 30.1647 32.5351 31.4141 31.4575 32.4039C32.3918 31.3331 33.4018 29.8292 33.4018 29.8292L33.7069 29.3707C33.8319 29.302 33.9382 29.2003 34.0111 29.0728Z" fill="#F05601"/>
<path d="M33.7219 27.9927L33.7475 28.0078C33.7072 28.0977 33.6656 28.1876 33.6233 28.2763L33.6221 28.2751L33.6115 28.2669L33.6009 28.26C33.593 28.2545 33.5849 28.2495 33.5765 28.2449C33.5663 28.2391 33.5561 28.2334 33.5459 28.2285C33.5267 28.2186 33.5067 28.2104 33.486 28.204L33.471 28.1995C33.458 28.1937 33.444 28.1903 33.4298 28.1893V27.8926C33.5321 27.9069 33.6318 27.9404 33.7219 27.9927Z" fill="#FDFDFD"/>
<path d="M33.4714 28.2002C33.4767 28.2014 33.4816 28.2035 33.4861 28.2051C33.4812 28.2033 33.4763 28.2017 33.4714 28.2002Z" fill="#22245C"/>
<path d="M33.866 17.6191C33.7567 17.3597 33.6389 17.1038 33.5129 16.8521C33.4856 16.8603 33.4579 16.867 33.4298 16.8721V27.8929C33.5325 27.9063 33.6318 27.9403 33.7223 27.9926L33.7479 28.0081C34.5006 26.3326 34.888 24.5152 34.8842 22.6773C34.8842 20.9229 34.5413 19.2207 33.866 17.6191Z" fill="#202541"/>
<path d="M33.4489 28.1944L33.466 28.1989L33.4709 28.2002C33.497 28.207 33.5221 28.2169 33.5459 28.2296C33.5565 28.2345 33.5662 28.2402 33.5768 28.2459C33.585 28.25 33.5931 28.2553 33.6008 28.2606L33.6114 28.268C33.6151 28.2709 33.6188 28.2729 33.622 28.2762C33.6228 28.2762 33.6228 28.2762 33.6232 28.277C33.5609 28.4082 33.497 28.5381 33.4298 28.6673V28.1899C33.4363 28.1906 33.4427 28.1919 33.4489 28.194V28.1944ZM33.4306 28.6669V28.6987H33.4139C33.4196 28.6877 33.4257 28.6775 33.4306 28.6669Z" fill="#22245C"/>
<path d="M33.4295 27.8613V27.8932L33.403 27.8903L33.4295 27.8613Z" fill="#FEFEFE"/>
<path d="M33.4298 27.7519C33.385 27.7139 33.3158 27.6539 33.2262 27.5721V16.9731L33.2828 16.8852H33.2873C33.3349 16.8852 33.3834 16.8811 33.4298 16.8726V27.7519Z" fill="#F1CF25"/>
<path d="M33.2262 27.5728C33.3158 27.6537 33.385 27.7142 33.4302 27.7522V27.8617L33.4038 27.8903C33.3446 27.8849 33.2851 27.8861 33.2262 27.894V27.5728Z" fill="#FEFEFE"/>
<path d="M33.4298 28.1893L33.4106 28.186C33.417 28.1866 33.4236 28.1877 33.4298 28.1893ZM33.3793 28.7635L33.4241 28.855L33.2962 28.9172C33.3247 28.8665 33.352 28.8154 33.3793 28.7635ZM33.4135 28.6989C33.4026 28.7204 33.3914 28.7418 33.3801 28.7631L33.3487 28.6989H33.4135Z" fill="#22245C"/>
<path d="M33.2967 28.18C33.3068 28.1792 33.3174 28.1792 33.328 28.1792C33.3424 28.179 33.3568 28.1797 33.3712 28.1813L33.3834 28.1821C33.3895 28.1829 33.3956 28.1833 33.4013 28.1845C33.4109 28.1858 33.4204 28.1874 33.4298 28.1894V28.6668L33.4135 28.6987H33.3484L33.3349 28.6713L33.2783 28.6987H33.2262V28.1899C33.2331 28.1882 33.24 28.1866 33.2474 28.1858C33.2498 28.185 33.2523 28.1849 33.2543 28.1849L33.2702 28.1829C33.2789 28.1813 33.2878 28.1803 33.2967 28.18Z" fill="#22245C"/>
<path d="M33.3355 28.6719L33.349 28.6993H33.2787L33.3355 28.6719Z" fill="#22245C"/>
<path d="M33.328 29.4683C33.4624 29.4683 33.5924 29.4335 33.7068 29.3706L33.4017 29.8287C33.4017 29.8287 32.3917 31.3327 31.4574 32.4038L30.4132 33.363C29.6341 33.9449 28.8293 34.2907 28.541 34.0258C28.5654 33.9654 28.5951 33.8885 28.6285 33.8039H28.6289C29.6239 33.2 30.5332 32.4643 31.3324 31.6167L31.3365 31.6126C31.3635 31.5845 31.3901 31.5561 31.4163 31.5272L31.424 31.519C32.026 30.8707 32.5601 30.162 33.0177 29.4041C33.1154 29.4462 33.2213 29.4683 33.328 29.4683Z" fill="#F05601"/>
<path d="M33.7169 15.8457C33.7521 15.9069 33.774 15.9748 33.781 16.0451C33.7881 16.1154 33.7801 16.1864 33.7578 16.2534C33.7354 16.3204 33.6991 16.3818 33.6512 16.4336C33.6034 16.4854 33.5451 16.5265 33.4802 16.5539L33.4562 16.5633C33.4495 16.566 33.4427 16.5683 33.4359 16.5703L33.4302 16.5723H33.4289C33.4115 16.5781 33.3937 16.5824 33.3756 16.5854L33.3536 16.5887L33.3385 16.5903C33.3291 16.5919 33.3196 16.5926 33.31 16.5924C33.3019 16.5932 33.2937 16.5932 33.2856 16.5932C33.2655 16.593 33.2456 16.5917 33.2257 16.5891C33.2184 16.5883 33.2106 16.5875 33.2029 16.5858H33.2009L33.1838 16.5821C33.1789 16.5813 33.174 16.5805 33.1691 16.5789L33.1618 16.5772L33.1544 16.5756C33.0984 16.5601 33.0455 16.5349 32.998 16.5012L32.9948 16.4988C32.9919 16.4972 32.9891 16.4952 32.9866 16.493L32.9793 16.4873C32.9543 16.4693 32.9318 16.448 32.9125 16.424C32.9075 16.4189 32.9029 16.4134 32.8987 16.4076C32.8946 16.4027 32.8905 16.3978 32.8873 16.3925C32.8757 16.3772 32.8651 16.3613 32.8555 16.3447L32.8433 16.321C32.8337 16.3026 32.8255 16.2834 32.8188 16.2638C32.8164 16.2585 32.8148 16.2532 32.8131 16.2483C32.8105 16.2412 32.8083 16.234 32.8066 16.2266L32.8034 16.2143C32.8019 16.2097 32.8008 16.2049 32.8001 16.2L32.7977 16.1882C32.7936 16.173 32.7913 16.1573 32.7907 16.1416C32.7899 16.1341 32.7893 16.1266 32.7891 16.1191L32.7887 16.0946C32.7887 16.0745 32.7899 16.0544 32.7924 16.0345C32.7928 16.0292 32.7932 16.0243 32.7944 16.019C32.7957 16.0044 32.7986 15.99 32.803 15.9761C32.803 15.9757 32.803 15.9753 32.8038 15.9748C32.8046 15.9699 32.8062 15.9642 32.8078 15.9597C32.8091 15.954 32.8111 15.9483 32.8131 15.9426C32.8166 15.9308 32.8206 15.9192 32.8254 15.9078L32.8359 15.8833C32.8449 15.8635 32.8555 15.8445 32.8677 15.8265C32.8788 15.8074 32.8919 15.7896 32.9068 15.7734C32.9101 15.7697 32.9129 15.7656 32.9166 15.7623L32.9316 15.746C32.939 15.7384 32.9466 15.731 32.9545 15.7239L32.9577 15.7211C32.9639 15.7154 32.9704 15.71 32.9773 15.7051C32.9963 15.6893 33.0167 15.6754 33.0384 15.6634C33.1524 15.5974 33.288 15.5795 33.4152 15.6136C33.5424 15.6478 33.6509 15.7313 33.7169 15.8457Z" fill="#1E205D"/>
<path d="M33.0425 16.6239L32.928 16.7984C32.7598 16.7121 32.628 16.5681 32.5566 16.3926C32.5093 16.2743 32.491 16.1464 32.5032 16.0195C32.5154 15.8926 32.5577 15.7706 32.6267 15.6635C32.698 15.5532 32.7958 15.4626 32.9111 15.3999C33.0263 15.3372 33.1554 15.3045 33.2864 15.3047C33.4248 15.3052 33.5606 15.342 33.6805 15.4114C33.8003 15.4808 33.9001 15.5804 33.9698 15.7003L33.9702 15.7011C34.011 15.7718 34.0407 15.8478 34.0574 15.9251V15.9259C34.0935 16.0899 34.0764 16.2611 34.0088 16.4147C33.9412 16.5683 33.8266 16.6963 33.6815 16.78C33.562 16.8494 33.4265 16.886 33.2885 16.8863H33.2836L33.297 16.865L33.0425 16.6239ZM32.838 16.3092C32.8432 16.3215 32.8494 16.3334 32.8564 16.3448C32.8723 16.3731 32.8913 16.3995 32.913 16.4236C32.9307 16.4445 32.9503 16.4637 32.9716 16.4809L32.9798 16.4874L32.9875 16.4931C32.9911 16.4961 32.9949 16.4988 32.9989 16.5013L33.0176 16.514C33.0316 16.5235 33.0464 16.532 33.0616 16.5393L33.0808 16.5487C33.1052 16.5597 33.1296 16.5687 33.1549 16.5757L33.1622 16.5773L33.1695 16.5789L33.1842 16.5826C33.19 16.584 33.1958 16.5851 33.2017 16.5859H33.2038C33.2313 16.5895 33.2591 16.5919 33.2868 16.5928H33.3113C33.3166 16.592 33.3227 16.5916 33.3284 16.5916L33.3394 16.5904C33.3615 16.5886 33.3834 16.5849 33.405 16.5794C33.4131 16.5773 33.4216 16.5753 33.4298 16.5724H33.4306C33.4326 16.5716 33.4347 16.5716 33.4367 16.5704C33.4436 16.5684 33.4504 16.5661 33.4571 16.5634C33.4844 16.5536 33.5107 16.5413 33.5357 16.5266C33.6114 16.4827 33.6742 16.4195 33.7178 16.3434C33.7614 16.2673 33.7841 16.181 33.7837 16.0932C33.7834 16.0054 33.7599 15.9193 33.7157 15.8436C33.6715 15.7678 33.6081 15.7051 33.532 15.6619C33.4458 15.6129 33.347 15.5909 33.2482 15.5987C33.1494 15.6064 33.0552 15.6437 32.9777 15.7056C32.9708 15.7105 32.9647 15.7158 32.9582 15.7211L32.9549 15.724C32.9413 15.7358 32.9287 15.7487 32.917 15.7624C32.8986 15.782 32.8822 15.8035 32.8682 15.8266L32.8551 15.847C32.8346 15.8824 32.8187 15.9203 32.8079 15.9598L32.8038 15.9749V15.9757L32.7981 16.0003L32.7949 16.0191C32.792 16.0337 32.7903 16.0486 32.79 16.0636C32.7892 16.0738 32.7892 16.0844 32.7892 16.0947L32.7896 16.1192L32.7912 16.1417L32.7936 16.1633C32.7944 16.1715 32.7961 16.1805 32.7977 16.1882C32.7985 16.1923 32.7989 16.1964 32.8002 16.2001C32.8017 16.2091 32.8039 16.218 32.8067 16.2267C32.8083 16.234 32.8105 16.2413 32.8132 16.2483C32.82 16.2691 32.8285 16.2895 32.838 16.3092Z" fill="#FEFCFD"/>
<path d="M33.2254 16.8831C33.1214 16.8751 33.0201 16.8463 32.9273 16.7985L33.0413 16.624L33.2951 16.8647L33.282 16.8856C33.2629 16.8856 33.2442 16.8848 33.2254 16.8831Z" fill="#FEFCFD"/>
<path d="M33.2262 16.8828C33.245 16.8844 33.2638 16.8853 33.283 16.8853L33.2262 16.9731V16.8828Z" fill="#F1CF25"/>
<path d="M33.2262 27.975C33.2576 27.9779 33.2889 27.9807 33.3203 27.9828L33.2262 28.087V27.975Z" fill="#FDFDFD"/>
<path d="M33.2262 27.8934C33.2851 27.8858 33.3446 27.8847 33.4038 27.8901L33.3207 27.9825C33.2893 27.9804 33.2579 27.9777 33.2266 27.9743L33.2262 27.8934Z" fill="#FDFDFD"/>
<path d="M33.2702 28.1823L33.2547 28.1848C33.2523 28.1848 33.2498 28.1848 33.2474 28.1856C33.2405 28.1868 33.2331 28.1877 33.2262 28.1897V28.0867L33.3203 27.9825L33.4034 27.8901L33.4302 27.893V28.1897H33.429C33.4199 28.1873 33.4107 28.1857 33.4013 28.1848C33.3772 28.1802 33.3526 28.1782 33.328 28.1791C33.3087 28.179 33.2894 28.1801 33.2702 28.1823Z" fill="#FDFDFD"/>
<path d="M33.2262 27.573C32.6935 27.0875 31.4778 25.8557 30.8628 24.2382C30.5541 23.4249 30.3297 22.5749 30.1541 21.7547L33.2262 16.9731V27.573Z" fill="#202541"/>
<path d="M32.9278 16.7983C33.0194 16.8457 33.1212 16.8748 33.2263 16.8829V16.9728L30.1542 21.7544C30.1017 21.5093 30.0524 21.2635 30.0064 21.0171L32.8422 16.9283L32.9278 16.7983Z" fill="#00E9BF"/>
<path d="M33.2263 27.8937C33.1579 27.9027 33.0919 27.9207 33.0296 27.946C31.3003 27.6244 30.1913 25.5324 29.9286 24.666C29.648 23.7424 29.2676 22.417 29.0538 20.2751L29.0517 20.2547C28.8644 18.3989 28.4083 16.964 28.293 16.624C28.8265 16.7103 29.2073 16.7045 29.2073 16.7045C29.2073 16.7045 29.2542 16.9285 29.5413 18.3474C29.6838 19.0532 29.8133 19.9919 30.006 21.0173L29.6183 21.5772L30.0186 21.9654L30.1538 21.7545C30.3294 22.5744 30.5542 23.4252 30.8625 24.2377C31.4775 25.8556 32.6936 27.087 33.2259 27.5725L33.2263 27.8937Z" fill="#FEFEFE"/>
<path d="M33.0291 27.9464C33.0914 27.9206 33.1574 27.903 33.2258 27.894V27.975C33.1599 27.9678 33.0943 27.9583 33.0291 27.9464Z" fill="#FDFDFD"/>
<path d="M33.029 27.9463C33.0941 27.9585 33.1593 27.9679 33.2261 27.9749V28.0873L33.0868 28.2414C33.077 28.2471 33.0673 28.2524 33.0579 28.2585C33.0294 28.2755 33.0034 28.2962 32.9805 28.3202C32.9337 28.3653 32.8966 28.4196 32.8714 28.4796V28.4804L32.871 28.4812L32.8587 28.4943C32.7602 28.5005 32.66 28.5025 32.5594 28.4996C32.5876 28.3764 32.6451 28.2617 32.7268 28.1654C32.8085 28.0691 32.9122 27.9939 33.029 27.9463Z" fill="#FDFDFD"/>
<path d="M33.7447 28.4048C33.7565 28.4223 33.7669 28.4406 33.7761 28.4596L33.7769 28.4625L33.7891 28.4898C33.7932 28.4996 33.7973 28.5095 33.7997 28.5197C33.8028 28.5285 33.8055 28.5375 33.8079 28.5466L33.8099 28.5548C33.8123 28.5634 33.814 28.5728 33.816 28.5818L33.8213 28.6137C33.8294 28.6766 33.8254 28.7416 33.8091 28.8049L33.7997 28.836C33.7889 28.8676 33.7753 28.8981 33.759 28.9271C33.7132 29.0069 33.6462 29.0724 33.5655 29.1162C33.4849 29.1601 33.3936 29.1806 33.302 29.1756L33.2878 29.1748C33.2699 29.1739 33.2522 29.1714 33.2348 29.1674C33.2332 29.1674 33.2328 29.1674 33.232 29.1666L33.2027 29.1605L33.1986 29.1593C33.1909 29.1573 33.1833 29.155 33.1758 29.1523C33.1729 29.1519 33.1701 29.1507 33.1676 29.1499C33.2112 29.073 33.2548 28.9958 33.2967 28.9181L33.4246 28.856L33.3798 28.7641C33.3913 28.7426 33.4026 28.7211 33.4136 28.6995H33.4299V28.6676C33.4971 28.5389 33.5615 28.4089 33.6238 28.2777H33.6246L33.6474 28.2961L33.658 28.3051C33.6621 28.3088 33.6653 28.3112 33.6686 28.3149C33.6697 28.3157 33.6707 28.3167 33.6714 28.3178C33.6771 28.3227 33.682 28.328 33.6873 28.3333C33.6904 28.3364 33.6932 28.3397 33.6959 28.3431C33.7135 28.3625 33.7296 28.3833 33.7439 28.4052C33.7447 28.4044 33.7447 28.404 33.7447 28.4048Z" fill="#22245C"/>
<path d="M33.0795 29.1095C33.0888 29.1151 33.0983 29.1202 33.108 29.125L33.1096 29.1254C33.128 29.1347 33.1471 29.1426 33.1666 29.1491C33.1177 29.235 33.0676 29.3196 33.0167 29.4037C32.9061 29.3566 32.8079 29.2844 32.7296 29.1929L33.0066 29.058C33.0119 29.0629 33.0175 29.0676 33.0233 29.0719L33.0461 29.0887L33.0538 29.094L33.0795 29.1095ZM33.0876 28.2415L33.2269 28.0874V28.1896C33.2209 28.1907 33.2149 28.192 33.209 28.1937L33.1963 28.1973C33.1885 28.1993 33.1808 28.2016 33.1731 28.2043C33.1723 28.2043 33.1719 28.2043 33.1715 28.2051C33.1543 28.2108 33.1374 28.2174 33.121 28.2251C33.1153 28.2272 33.1096 28.2304 33.1039 28.2333C33.0994 28.2353 33.0941 28.2374 33.09 28.2402L33.0876 28.2415Z" fill="#FDFDFD"/>
<path d="M33.0238 29.072C33.0179 29.0675 33.0122 29.0629 33.0067 29.0581L33.2958 28.9175C33.2539 28.9951 33.2103 29.0724 33.1663 29.1492L33.139 29.139C33.1285 29.1347 33.1181 29.13 33.1081 29.1247C33.0984 29.12 33.0889 29.115 33.0796 29.1096C33.071 29.1042 33.062 29.0993 33.0543 29.094C33.0517 29.0925 33.0491 29.0908 33.0466 29.0891L33.0238 29.072Z" fill="#22245C"/>
<path d="M32.8799 28.8931C32.8808 28.8959 32.8824 28.8984 32.884 28.9012C32.8873 28.9089 32.8911 28.9162 32.8954 28.9233C32.8995 28.9315 32.904 28.9384 32.9093 28.9454C32.9266 28.9732 32.9468 28.9991 32.9695 29.0226L32.9769 29.0308C32.9806 29.0348 32.9846 29.0383 32.9891 29.0414C32.9948 29.0475 33.0013 29.0533 33.0074 29.0578L32.7305 29.193C32.6859 29.1406 32.6482 29.0827 32.6185 29.0206L32.8799 28.8931Z" fill="#FDFDFD"/>
<path d="M32.933 29.3626C32.9599 29.3781 32.988 29.392 33.0165 29.4042C32.5366 30.1987 31.973 30.9389 31.3353 31.6123L31.3312 31.6164C30.4584 32.5085 28.8721 33.1796 28.8721 33.1796L28.9413 33.0014C29.1515 32.4852 29.4822 31.513 29.7721 30.6344L32.7298 29.1934C32.786 29.2587 32.8536 29.316 32.933 29.3626Z" fill="#202541"/>
<path d="M32.9146 28.9557C32.9074 28.9455 32.901 28.9349 32.8955 28.9238L32.8951 28.9234C32.8908 28.9162 32.8869 28.9088 32.8832 28.9013L32.8792 28.8931L33.2783 28.699H33.3479L33.3793 28.7632C33.352 28.8151 33.3243 28.8666 33.2962 28.9172L33.0071 29.0578L32.9883 29.0415C32.9869 29.0402 32.9855 29.0388 32.9842 29.0374C32.9814 29.0354 32.9785 29.0329 32.9761 29.03L32.9688 29.0227C32.9488 29.0018 32.9307 28.9797 32.9146 28.9557ZM33.0865 28.2417L32.8714 28.4804C32.8744 28.4726 32.8778 28.4649 32.8816 28.4575L32.8971 28.4281C32.9307 28.3689 32.9765 28.3176 33.0315 28.2777C33.0396 28.2707 33.049 28.265 33.058 28.2589C33.0671 28.2526 33.0766 28.2468 33.0865 28.2417Z" fill="#22245C"/>
<path d="M32.856 28.8359C32.8534 28.8286 32.8511 28.8213 32.8491 28.8138L32.8433 28.7922C32.8423 28.789 32.8416 28.7857 32.8413 28.7824L32.8385 28.7677L32.8356 28.7513C32.8344 28.746 32.8344 28.7411 32.8336 28.7358C32.8293 28.7005 32.8289 28.6649 32.8324 28.6295L32.8328 28.6242L32.8344 28.6095C32.8355 28.6001 32.8372 28.5909 32.8393 28.5817C32.8422 28.5626 32.847 28.5439 32.8535 28.5257C32.8545 28.5225 32.8555 28.5194 32.8568 28.5163L32.86 28.5065L32.8621 28.5008C32.8645 28.4938 32.8674 28.487 32.8706 28.4804V28.4795L33.0861 28.2409L33.0885 28.2396C33.0926 28.2368 33.0979 28.2347 33.1028 28.2323C33.1148 28.2257 33.1274 28.2199 33.1403 28.2151C33.15 28.211 33.1598 28.2069 33.1704 28.2041L33.1716 28.2037C33.1792 28.201 33.187 28.1987 33.1948 28.1967L33.2075 28.1931C33.2134 28.1914 33.2193 28.1901 33.2254 28.189V28.6982H33.2779L32.8788 28.8927C32.8788 28.8911 32.878 28.8898 32.8776 28.8886C32.8735 28.8804 32.8702 28.8727 32.867 28.8645C32.8626 28.8552 32.8589 28.8457 32.856 28.8359Z" fill="#22245C"/>
<path d="M32.5604 28.4998C32.661 28.5027 32.7603 28.5011 32.8593 28.4945L32.8715 28.4814C32.8677 28.4898 32.8644 28.4984 32.8617 28.5072L32.8585 28.5162L32.8552 28.526C32.8489 28.5442 32.8441 28.5629 32.841 28.582C32.8381 28.5962 32.8359 28.6105 32.8345 28.6249L32.8336 28.6302L32.8324 28.6506C32.8308 28.6797 32.8316 28.7079 32.8353 28.7365C32.8357 28.7414 32.8361 28.7463 32.8373 28.7516L32.8402 28.7679C32.8408 28.7729 32.8417 28.7778 32.843 28.7826L32.845 28.7924C32.848 28.8075 32.8522 28.8223 32.8577 28.8366C32.8633 28.8548 32.8704 28.8726 32.8788 28.8897L32.8805 28.8938L32.619 29.0209C32.5414 28.8588 32.5207 28.6752 32.5604 28.4998Z" fill="#FDFDFD"/>
<path d="M32.7987 16.1884C32.7987 16.1917 32.7995 16.1962 32.8007 16.1998C32.7994 16.196 32.7986 16.192 32.7982 16.188L32.7987 16.1884Z" fill="#1E205D"/>
<path d="M31.0884 13.488C31.7075 14.1079 32.2626 14.7889 32.7452 15.5208C32.6996 15.5637 32.6597 15.6119 32.6263 15.6638L26.3188 12.6257C26.2198 12.5156 26.1167 12.4093 26.0097 12.3069L24.3855 9.91455C26.7526 10.3709 28.9449 11.4837 30.7137 13.1267C30.8408 13.244 30.9654 13.3646 31.0884 13.488Z" fill="#1F2A48"/>
<path d="M32.6181 29.0205C32.6475 29.0818 32.6849 29.1398 32.7301 29.193L29.7725 30.634L29.8613 30.3638L32.6181 29.0205Z" fill="#FDFDFD"/>
<path d="M31.824 13.1601C32.1417 13.5406 33.0377 14.6338 33.438 15.3195C33.3147 15.2951 33.1874 15.3007 33.0667 15.3356C32.946 15.3706 32.8354 15.434 32.744 15.5206C32.1657 14.6432 31.4836 13.8393 30.7126 13.1266C31.1219 13.0865 31.5214 13.1172 31.8244 13.1597L31.824 13.1601Z" fill="#986F09"/>
<path d="M26.3189 12.626L32.6259 15.6633C32.5888 15.7205 32.5595 15.783 32.5379 15.8476L26.6398 13.0073C26.538 12.8781 26.4317 12.7506 26.3189 12.626ZM32.5037 16.1884C32.5119 16.2571 32.529 16.3261 32.5559 16.3927H29.325C29.2517 16.326 29.1798 16.2579 29.1091 16.1884H32.5037Z" fill="#F9B309"/>
<path d="M32.4939 13.2421L32.085 13.1923C31.0808 12.1043 29.9103 11.1837 28.6175 10.4652L28.8383 10.2812C29.9621 10.915 30.9939 11.7004 31.905 12.6156C32.1087 12.8199 32.3046 13.0284 32.4939 13.2421Z" fill="#01FF94"/>
<path d="M36.0371 22.4138C36.0139 20.5922 35.6377 18.7926 34.9293 17.1153C34.3333 15.6995 33.5103 14.3912 32.493 13.2422L32.0837 13.1924L32.0959 13.2046C32.7489 13.9127 33.3269 14.6868 33.8207 15.5145C33.8786 15.5676 33.9287 15.6297 33.969 15.7C34.0097 15.7707 34.0394 15.8471 34.0561 15.9248L34.0565 15.9252C35.1878 17.9753 35.7799 20.2808 35.7769 22.6242C35.7771 22.9237 35.7676 23.2232 35.7483 23.5221C35.8217 23.5801 35.9088 23.6218 36.0033 23.6414C36.0271 23.3028 36.039 22.9633 36.0387 22.6238C36.0387 22.5543 36.0383 22.4841 36.0371 22.4138Z" fill="#FF7801"/>
<path d="M31.8248 13.1606L32.0846 13.1924L32.0969 13.2047C32.0195 13.1904 31.9274 13.1749 31.8248 13.1606Z" fill="#E5E2E5"/>
<path d="M31.8248 13.1606C31.9274 13.1745 32.0195 13.1904 32.0965 13.2055C32.7492 13.9133 33.3271 14.6871 33.8208 15.5145C33.7137 15.4157 33.5815 15.3482 33.4388 15.3196C33.0381 14.6343 32.1425 13.541 31.8248 13.1606Z" fill="#986F09"/>
<path d="M31.088 31.8676C30.3489 32.6103 29.5229 33.2605 28.6281 33.8039C28.7095 33.5976 28.8073 33.3462 28.8724 33.1795C28.8724 33.1795 30.4588 32.5088 31.3316 31.6167C31.2517 31.7013 31.1703 31.7855 31.088 31.8676Z" fill="#202541"/>
<path d="M30.4137 33.363L31.4575 32.4038C31.1435 32.7589 30.7937 33.0803 30.4137 33.363Z" fill="#F05601"/>
<path d="M30.3619 28.8023C30.3619 28.8023 30.1404 29.5073 29.861 30.3635L29.3112 30.6307C29.5612 29.793 29.7095 29.0479 29.7673 28.7275C30.1082 28.7901 30.3619 28.8023 30.3619 28.8023Z" fill="#FFE9B6"/>
<path d="M30.1538 21.7543L30.0186 21.9648L29.6182 21.5766L30.0059 21.0171C30.0516 21.259 30.1004 21.505 30.1538 21.7543Z" fill="#FEFEFE"/>
<path d="M29.3111 30.631L29.8609 30.3633L29.7718 30.6338L29.2285 30.8986C29.257 30.8083 29.2851 30.7188 29.3111 30.631Z" fill="#FDFDFD"/>
<path d="M28.7424 28.4053C28.8158 28.4396 28.8887 28.4719 28.9603 28.5017C29.2324 28.6129 29.5228 28.6836 29.768 28.7285C29.6491 29.3705 29.4968 30.0057 29.3118 30.6317L28.2655 31.141C28.4757 30.1172 28.6769 28.834 28.7424 28.4053Z" fill="#F6515B"/>
<path d="M29.3244 16.3928H29.0373V16.1885H29.109C29.2006 16.2784 29.2744 16.3466 29.3249 16.3928H29.3244Z" fill="#FEFEFE"/>
<path d="M28.9963 34.6632C28.9312 34.673 28.8721 34.675 28.8196 34.6689C28.9898 34.5704 29.1576 34.4686 29.323 34.3628L28.9963 34.6632Z" fill="#FF8D02"/>
<path d="M28.872 33.1794C28.8524 33.1884 28.5397 32.9641 28.3914 32.8566C28.4126 32.8214 28.433 32.7867 28.4525 32.7516C28.7706 32.1904 29.028 31.5284 29.228 30.8986L29.7717 30.6338C29.4817 31.5124 29.151 32.4847 28.9412 33.0008C28.9412 33.0008 28.9139 33.0724 28.872 33.1794Z" fill="#FDE5D0"/>
<path d="M28.8386 10.2811L28.6175 10.465C26.5695 9.32607 24.2659 8.72997 21.9244 8.73299V8.47021C23.83 8.47021 25.6782 8.84456 27.4185 9.58263C27.9044 9.78877 28.3786 10.0219 28.8386 10.2811ZM28.5397 34.026C28.828 34.2908 29.6328 33.9451 30.4119 33.3631L29.3225 34.3635C29.1567 34.469 28.9889 34.5707 28.8187 34.6692C28.7508 34.6641 28.6864 34.6372 28.635 34.5924C28.4509 34.4228 28.4212 34.3182 28.503 34.1163L28.5397 34.026Z" fill="#FF8D02"/>
<path d="M28.743 28.405C28.6774 28.8342 28.4762 30.1174 28.2664 31.1407L27.3623 31.5809C27.5904 29.9576 27.5725 27.7271 27.5725 27.7271C27.5725 27.7271 28.1569 28.1292 28.743 28.405Z" fill="#A70D75"/>
<path d="M29.928 24.6662C29.6474 23.7426 29.267 22.4168 29.0532 20.2753L29.0512 20.2549C28.8638 18.3987 28.4077 16.9638 28.292 16.6238C27.9336 16.5662 27.5064 16.4673 27.0787 16.2969C27.2131 16.5118 27.4738 16.9785 27.6872 17.6647C27.9898 18.6374 28.0432 19.9055 28.0432 19.9055C28.0432 19.9055 28.0489 20.0444 28.0603 20.2672C28.0806 20.6648 28.1185 21.3305 28.1723 21.9619C28.2566 22.9485 28.4191 24.566 29.0398 26.119C29.6193 27.5682 31.1474 28.464 32.559 28.5004C32.5872 28.377 32.6445 28.2622 32.7263 28.1658C32.808 28.0695 32.9117 27.9942 33.0286 27.9466C31.2997 27.6246 30.1907 25.5326 29.928 24.6662Z" fill="#FECA3C"/>
<path d="M24.0879 12.5884C24.2549 12.6869 24.4166 12.7952 24.5762 12.906C24.7359 13.0171 24.8906 13.1357 25.0422 13.2595C25.3456 13.5051 25.6351 13.7703 25.9072 14.0548C25.6746 13.736 25.4034 13.4463 25.1167 13.1733C24.8277 12.9004 24.5156 12.6532 24.184 12.4344C24.017 12.3257 23.8448 12.2239 23.6668 12.1328C23.4876 12.0437 23.3035 11.9623 23.1149 11.8933C23.0677 11.8761 23.0192 11.8606 22.9716 11.8455C22.9471 11.8373 22.9239 11.8291 22.8995 11.8222L22.8262 11.8026C22.7773 11.7899 22.7293 11.7744 22.6796 11.7645L22.5313 11.7319C22.4816 11.7212 22.4315 11.7155 22.3814 11.7073L22.3061 11.6959C22.2813 11.6922 22.256 11.6902 22.2308 11.6877C22.1802 11.6836 22.1302 11.6775 22.0792 11.6738L22.0312 11.6722V10.814C23.5642 10.8446 24.6328 11.2512 25.4388 11.832L26.0428 12.7208L26.6395 13.0077C26.9221 13.3661 27.1689 13.7376 27.4047 14.0973C27.8982 14.8526 28.4694 15.5536 29.1092 16.1889H29.0375V16.3932H29.325C29.3706 16.4349 29.3975 16.4578 29.4004 16.4606C28.8934 16.3929 28.3947 16.2724 27.9126 16.101C27.4056 15.8358 26.9009 15.4733 26.2566 14.9678C25.6127 14.4622 25.1884 14.0372 24.1938 13.3678C23.3145 12.776 22.2633 12.7078 22.0312 12.6992V11.9047L22.0658 11.9059C22.1131 11.9092 22.1599 11.9141 22.2071 11.9182C22.2308 11.9207 22.2544 11.9219 22.278 11.9252L22.3485 11.9354C22.3953 11.9435 22.4429 11.948 22.4894 11.9579C22.6767 11.9914 22.8608 12.0429 23.0433 12.1009C23.2245 12.1622 23.4025 12.2345 23.5768 12.3159C23.6635 12.3588 23.7503 12.4009 23.835 12.4466C23.9205 12.4908 24.004 12.5406 24.0879 12.5884Z" fill="#FEFEFE"/>
<path d="M27.3614 31.5808L28.2651 31.1406C28.2476 31.2277 28.2293 31.3123 28.2114 31.394L27.3235 31.8264C27.3374 31.7467 27.3496 31.6645 27.361 31.5812L27.3614 31.5808Z" fill="#FDFDFD"/>
<path d="M28.2119 31.3943C28.2294 31.3122 28.2477 31.2276 28.2652 31.141L29.3111 30.6313C29.2846 30.7196 29.2573 30.8087 29.2284 30.899L28.2119 31.3943Z" fill="#FDFDFD"/>
<path d="M27.3249 31.8259L28.2128 31.3936C28.1924 31.4884 28.1716 31.5803 28.1513 31.6674C27.8576 32.9167 26.9584 34.0054 25.7659 34.7459C24.5734 35.4865 22.6421 35.618 22.6421 35.618C22.8991 35.486 23.165 35.2163 23.4114 34.9029C24.7342 35.1219 26.7735 33.967 27.1811 32.506C27.2369 32.3069 27.2846 32.076 27.3253 31.8259H27.3249Z" fill="url(#paint0_linear_3640_18294)"/>
<path d="M29.8214 27.6939C29.4142 27.3281 28.778 26.2459 28.5064 25.1482C28.2351 24.0505 28.1419 23.4616 28.0881 22.0603C28.0646 21.4626 28.0499 20.8647 28.0441 20.2666C28.0421 20.0287 28.0437 19.9061 28.0437 19.9061C28.0437 19.9061 27.9904 18.638 27.6877 17.6654C27.4739 16.9788 27.2141 16.5125 27.0793 16.2971L27.028 16.2763C25.9634 15.8382 25.6074 15.6306 25.5964 15.624C25.6147 15.6485 26.806 17.2514 27.0911 19.0573C27.1501 19.4304 27.1831 19.7864 27.1982 20.1293C27.2581 21.4591 27.0512 22.5866 27.0512 23.7093C27.0512 25.1217 27.6584 27.7723 30.4152 28.2403C30.4157 28.2403 30.2287 28.0596 29.8214 27.6939Z" fill="url(#paint1_linear_3640_18294)"/>
<path d="M24.4417 33.2304L27.3244 31.8262C27.2837 32.0763 27.236 32.3072 27.1802 32.5062C26.7721 33.9676 24.7333 35.1221 23.4101 34.9035C23.9273 34.2468 24.3578 33.3996 24.4417 33.2304Z" fill="#202541"/>
<path d="M24.1938 13.3678C25.1884 14.0368 25.6123 14.4622 26.2562 14.9674C26.9001 15.4733 27.4056 15.835 27.9122 16.1002C26.4965 15.6057 25.256 14.7565 24.2875 14.0908C22.9923 13.2003 22.0312 13.0151 22.0312 13.0151V12.6992C22.2629 12.7074 23.3141 12.7765 24.1938 13.3678Z" fill="#FFBB01"/>
<path d="M32.5379 15.848C32.5025 15.9567 32.4903 16.0728 32.5041 16.1881H29.1095C28.4698 15.553 27.8985 14.852 27.4051 14.0969C27.1689 13.7372 26.9225 13.3657 26.6398 13.0073L32.5379 15.8476V15.848Z" fill="#202541"/>
<path d="M25.4555 18.9422C25.8961 19.0836 26.2708 19.3468 26.4594 19.4947C26.5172 19.6933 26.5636 19.8736 26.5889 20.0113L25.4815 19.9091C25.5144 19.8723 25.5454 19.8338 25.5744 19.7939C25.6102 19.7407 25.5943 19.6803 25.5377 19.6803L25.5597 19.6051C25.6562 19.6398 25.7019 19.632 25.7133 19.5863C25.7279 19.5262 25.666 19.4972 25.3459 19.3218C25.0258 19.1461 24.8722 19.0909 24.6116 19.104C24.3513 19.1175 23.9543 19.3071 23.6651 19.6868C23.5437 19.8454 23.4044 19.9708 23.2794 20.0783C23.1189 20.2164 22.9809 20.3251 22.9357 20.4371C22.822 20.3975 22.6131 20.3554 22.4926 20.3668V20.0195C22.4926 19.2013 22.7308 18.9479 23.0025 18.8813C23.2737 18.8139 24.1571 18.7918 24.994 18.8498C25.1516 18.8609 25.3072 18.8948 25.4555 18.9422Z" fill="url(#paint2_radial_3640_18294)"/>
<path d="M26.3193 12.6261L26.1816 12.5599L26.0098 12.3073C26.1185 12.4103 26.2211 12.5174 26.3193 12.6261ZM26.0098 12.3073C25.8346 12.1398 25.6448 11.9796 25.4392 11.8316L24.1041 9.86426C24.1978 9.87979 24.2915 9.89695 24.3847 9.91493L26.0089 12.3073H26.0098Z" fill="#FEFEFE"/>
<path d="M26.6405 13.0073L26.0439 12.72L25.4403 11.8315C25.646 11.9795 25.835 12.1393 26.0097 12.3072L26.1815 12.5602L26.3192 12.6264C26.432 12.7507 26.5383 12.8782 26.6405 13.0073Z" fill="#FEFEFE"/>
<path d="M24.3366 33.0406C24.3798 32.9597 24.4234 32.8747 24.4682 32.7852C24.6893 32.3434 24.8575 32.0541 24.9915 31.8216V31.8207C25.1239 31.5907 25.2216 31.4166 25.3031 31.2057C25.466 30.7807 25.7429 29.7863 25.8166 28.9195C25.8737 28.2489 25.6945 27.5656 25.4049 26.953C25.3202 26.7744 25.2257 26.6015 25.1259 26.4364C24.682 25.7069 23.0802 24.6162 22.8932 24.5189C22.7063 24.4221 22.7597 24.3554 22.8134 24.3146C22.8664 24.2745 23.3942 23.9668 23.3942 23.9668C23.3942 23.9668 24.2018 24.2377 24.8555 24.8234C25.5096 25.409 25.7136 25.7973 25.7136 25.7973C25.7136 25.7973 25.0563 24.0972 25.1695 24.0604C25.2827 24.0236 26.197 24.5958 26.5176 25.4499C26.8381 26.3028 26.768 28.0699 26.5176 29.054C26.2671 30.0377 25.7132 30.8481 25.3629 31.5343C25.1213 32.0002 24.872 32.462 24.6152 32.9197L24.3505 33.0484L24.3366 33.0406Z" fill="#FFFDFE"/>
<path d="M24.1836 12.4345C24.5152 12.6534 24.8272 12.9006 25.1163 13.1734C25.403 13.4464 25.6742 13.7362 25.9068 14.0549C25.6356 13.7716 25.3467 13.506 25.0417 13.2597C24.891 13.1358 24.7356 13.0179 24.5758 12.9062C24.4172 12.7942 24.2544 12.6883 24.0879 12.5886C24.004 12.5404 23.9209 12.4909 23.8346 12.4472C23.7499 12.401 23.6631 12.3589 23.5768 12.3164C23.4028 12.2348 23.2244 12.163 23.0424 12.1015C22.8604 12.0434 22.6759 11.9911 22.489 11.9584C22.4425 11.9486 22.3953 11.9433 22.348 11.936L22.278 11.9257C22.2544 11.9225 22.2308 11.9208 22.2067 11.9188C22.1595 11.9147 22.1131 11.9098 22.0654 11.9065L22.0312 11.9053V11.6724L22.0792 11.674C22.1302 11.6773 22.1802 11.683 22.2308 11.6875C22.256 11.6903 22.2813 11.6924 22.3061 11.6957L22.3814 11.7071C22.4315 11.7153 22.482 11.7214 22.5313 11.7316L22.6796 11.7643C22.7293 11.7745 22.7773 11.7901 22.8262 11.8023L22.8995 11.8219C22.9239 11.8293 22.9471 11.8375 22.9716 11.8452C23.0192 11.8604 23.0677 11.8763 23.1149 11.893C23.3035 11.9621 23.4876 12.0434 23.6664 12.1325C23.8448 12.2241 24.0166 12.3258 24.1836 12.435V12.4345Z" fill="#15134A"/>
<path d="M24.9904 29.5239C24.9904 29.5239 25.1289 29.9628 25.1423 30.5967C25.1533 31.1341 25.1391 31.3863 25.0478 31.6666C25.0308 31.7186 25.0119 31.77 24.9912 31.8207V31.8215C24.8572 32.0544 24.689 32.3434 24.4679 32.7852C24.3342 33.054 24.1899 33.3174 24.0353 33.5747C23.7332 33.5514 22.7451 33.4717 22.561 33.4345C22.3427 33.3896 22.2759 33.2249 22.561 32.9973C22.8457 32.7696 24.7281 30.967 24.8474 30.4001C24.9635 29.8484 24.8536 29.2922 24.8474 29.2632C24.9053 29.3604 24.9525 29.4483 24.99 29.5235L24.9904 29.5239Z" fill="#250EF0"/>
<path d="M25.0481 31.6663C25.4004 31.1085 25.6052 28.0434 25.5075 27.3164C25.4895 27.1912 25.4525 27.0697 25.3975 26.9559L25.4044 26.9526C25.6944 27.5657 25.8732 28.2485 25.8166 28.9196C25.7433 29.786 25.4663 30.7799 25.3026 31.2053C25.2212 31.4166 25.1234 31.5907 24.9915 31.8204C25.013 31.7673 25.0322 31.7166 25.0485 31.6663H25.0481Z" fill="#F9DB00"/>
<path d="M25.508 27.3162C25.6057 28.0436 25.4004 31.1083 25.0486 31.6662C25.1398 31.3858 25.1545 31.1337 25.1426 30.5962C25.1296 29.9624 24.9907 29.5231 24.9907 29.5231C24.9899 29.5079 24.9643 28.9762 24.9296 28.3424C24.8938 27.7 24.8136 27.1871 24.4311 26.6022C24.4098 26.5694 24.3877 26.5371 24.3648 26.5054C23.9766 25.9639 23.3694 25.5205 22.7935 25.5626C22.1842 25.6075 21.9244 25.8752 21.9244 25.8752V25.4334C21.9244 25.4334 22.3064 25.1519 22.8155 25.1519C23.3254 25.1519 23.8992 25.5626 24.2377 25.7967C24.5175 25.9909 25.1378 26.4065 25.3984 26.9562C25.4522 27.0706 25.4909 27.1911 25.508 27.3162Z" fill="#162653"/>
<path d="M24.6987 20.0876C24.2882 20.0631 23.986 19.6883 23.986 19.6748C23.986 19.6609 24.3244 19.4072 24.605 19.3548C24.8861 19.3029 25.2762 19.4738 25.4497 19.5576C25.4925 19.578 25.5287 19.5935 25.5597 19.605L25.5381 19.6802C25.5231 19.6806 25.5083 19.6839 25.4945 19.69C25.4049 19.7267 25.1092 20.1125 24.6987 20.0876Z" fill="#071C50"/>
<path d="M27.3241 31.8261L24.4414 33.2303L24.4565 33.2001L24.6141 32.9185L27.3611 31.5801C27.3497 31.6643 27.3371 31.7464 27.3241 31.8261Z" fill="#FDFDFD"/>
<path d="M24.4393 33.2316L24.3505 33.0477L24.6152 32.9189L24.4572 33.2005L24.4422 33.2304L24.4393 33.2316Z" fill="#FFFDFE"/>
<path d="M23.9363 9.25391L24.3855 9.91514C24.2921 9.89677 24.1984 9.87987 24.1045 9.86447L23.7681 9.36915L23.9363 9.25391Z" fill="#ECEDF6"/>
<path d="M23.7998 22.4206C24.0503 22.7855 24.0922 23.063 24.1541 23.3793C24.2006 23.6184 24.2283 23.9433 24.2389 24.0876C24.1931 24.0585 24.1458 24.032 24.0971 24.0083C23.8031 23.8677 23.7632 23.8191 23.7766 23.7909C23.79 23.7623 23.9949 23.62 23.9334 23.3573C23.8719 23.0945 23.4895 22.3801 22.9193 22.5035C22.9193 22.5035 22.8676 20.6719 22.9254 20.4622C22.9279 20.4534 22.9311 20.4448 22.9348 20.4365C22.9796 20.3241 23.118 20.2158 23.2781 20.0776L23.3168 20.0989C23.3327 20.0887 23.3779 20.0797 23.4785 20.0776C23.3653 20.1606 23.2105 20.3016 23.2056 20.3216C23.2003 20.3437 23.1555 21.1986 23.2423 21.5231C23.3294 21.848 23.5497 22.0556 23.7998 22.4206Z" fill="url(#paint3_linear_3640_18294)"/>
<path d="M24.1045 9.86454C23.6433 9.786 23.1782 9.73279 22.7112 9.70515C22.6992 9.50384 22.6111 9.31472 22.4649 9.17636C22.3187 9.03799 22.1254 8.96081 21.9244 8.96054V8.73291C24.3505 8.73291 26.6324 9.36145 28.6175 10.4649C29.9102 11.1838 31.0806 12.1044 32.085 13.1924L31.8256 13.1601C31.5226 13.1176 31.1234 13.0869 30.7141 13.1274C28.945 11.4847 26.7529 10.372 24.3859 9.91521L23.9371 9.25397L23.7685 9.36881L24.1045 9.86454Z" fill="#ECEDF6"/>
<path d="M26.597 20.0611L26.588 20.0109L25.4811 19.9087C25.3674 20.037 25.1687 20.2315 24.9532 20.3358C24.6478 20.4829 24.2055 20.2254 24.0218 20.1016C23.8381 19.9778 23.6231 19.979 23.5095 20.0566L23.4785 20.0783C23.7563 20.0726 23.9045 20.2446 24.1937 20.4698C24.4828 20.6954 24.7545 20.7779 25.1304 20.6169C25.5067 20.4563 26.3258 20.142 26.3258 20.142C26.3258 20.142 26.0052 20.856 25.4135 21.9762C24.8217 23.096 24.6967 23.7613 24.6612 23.9795C24.6388 24.1197 24.702 24.2386 24.7504 24.3052C24.7887 24.1626 24.8751 24.0081 25.0143 23.7862C25.0734 23.6926 25.141 23.5872 25.2188 23.4654C25.556 22.9362 26.1869 21.8855 26.3502 21.5577C26.4626 21.3317 26.5754 20.9529 26.608 20.5695C26.6245 20.4002 26.6208 20.2296 26.597 20.0611Z" fill="url(#paint4_linear_3640_18294)"/>
<path d="M26.3261 20.1412C26.3261 20.1412 26.0056 20.8552 25.4138 21.9753C24.8221 23.0955 24.697 23.7604 24.6616 23.9791C24.6392 24.1193 24.7023 24.2378 24.7508 24.3044C24.7353 24.3612 24.7279 24.42 24.7288 24.4789C24.7288 24.4789 24.4901 24.2459 24.2401 24.0882C24.2291 23.9439 24.2014 23.619 24.1546 23.3796C24.0935 23.0636 24.0511 22.7857 23.8006 22.4208C23.5506 22.0558 23.3306 21.8487 23.2435 21.5238C23.1571 21.1993 23.2015 20.3443 23.2068 20.3222C23.2117 20.3026 23.3665 20.1616 23.4797 20.0783C23.7571 20.0725 23.9057 20.2442 24.1949 20.4698C24.484 20.6954 24.7553 20.7775 25.1316 20.6169C25.5071 20.4559 26.3261 20.1412 26.3261 20.1412Z" fill="#F6F6F6"/>
<path d="M23.9853 19.6748C23.9853 19.6879 24.2871 20.0627 24.698 20.0876C25.1085 20.1129 25.4038 19.7267 25.4938 19.6895C25.5074 19.6835 25.5221 19.6802 25.537 19.6797C25.5936 19.6797 25.6095 19.7398 25.5736 19.7933C25.5614 19.8125 25.5288 19.8546 25.4808 19.9082C25.3672 20.0369 25.1684 20.2314 24.953 20.3356C24.6475 20.4828 24.2052 20.2253 24.0219 20.1015C23.8379 19.9772 23.6228 19.9789 23.5096 20.0565C23.4994 20.0631 23.4892 20.0704 23.4786 20.0782C23.3776 20.0802 23.3328 20.0888 23.3165 20.0994L23.2783 20.0782C23.4037 19.9707 23.543 19.8452 23.6639 19.6867C23.9531 19.3074 24.3506 19.1178 24.6104 19.1039C24.8711 19.0908 25.0246 19.1456 25.3452 19.3213C25.6649 19.497 25.7272 19.5257 25.7117 19.5861C25.7007 19.6311 25.6551 19.6397 25.5586 19.6049C25.5211 19.5912 25.4843 19.5754 25.4486 19.5575C25.2751 19.4737 24.8845 19.3029 24.6039 19.3548C24.3241 19.4071 23.9853 19.6617 23.9853 19.6748Z" fill="url(#paint5_linear_3640_18294)"/>
<path d="M28.1732 21.9618C28.2575 22.9484 28.42 24.5655 29.0406 26.1189C29.6206 27.5681 31.1487 28.4639 32.5603 28.4998C32.5196 28.6768 32.542 28.8603 32.6185 29.0201L29.8613 30.3634C30.1415 29.5068 30.3631 28.8023 30.3631 28.8023C30.3631 28.8023 30.1093 28.79 29.7684 28.7279C29.4925 28.6797 29.222 28.6037 28.9612 28.5011C28.8878 28.4708 28.8151 28.4387 28.7433 28.4046C28.1569 28.1288 27.5728 27.7266 27.5728 27.7266C27.5728 27.7266 27.5912 29.9576 27.3627 31.5804L24.6156 32.9189C24.8062 32.5772 25.13 31.9899 25.3634 31.5334C25.7136 30.8477 26.2675 30.0377 26.518 29.0532C26.7685 28.0699 26.8385 26.3024 26.518 25.4487C26.1975 24.5953 25.2832 24.0232 25.1699 24.06C25.0563 24.0968 25.714 25.7969 25.714 25.7969C25.714 25.7969 25.5104 25.4086 24.8559 24.823C24.2018 24.2369 23.3946 23.9664 23.3946 23.9664C23.2012 23.9161 22.934 23.9995 22.7438 24.1769C22.5536 24.3542 22.2396 24.6182 21.946 24.6256C21.9388 24.6258 21.9316 24.6257 21.9244 24.6252V24.3391C22.1814 24.3093 22.5365 23.9876 22.6119 23.8691C22.6872 23.7502 22.6917 23.635 22.7218 23.635C22.752 23.635 23.0395 23.7228 23.1886 23.6991C23.338 23.6758 23.4879 23.543 23.5388 23.4731C23.5901 23.4028 23.5844 23.3423 23.4464 23.1584C23.3087 22.9745 23.1307 22.9173 22.9601 23.0403C22.7902 23.1629 22.5935 23.2332 22.5935 23.2332C22.5935 23.2332 22.4901 23.2201 22.4901 22.5005C22.4901 21.8805 22.4921 21.0946 22.4929 20.366C22.6143 20.3541 22.8228 20.3966 22.936 20.4362C22.9324 20.4447 22.9294 20.4535 22.9271 20.4624C22.8692 20.6721 22.9206 22.5037 22.9206 22.5037C23.4907 22.3799 23.8736 23.0947 23.9351 23.3575C23.9966 23.6202 23.7917 23.7621 23.7783 23.7907C23.7648 23.8193 23.8048 23.8675 24.0988 24.0081C24.1452 24.0306 24.1933 24.0575 24.2405 24.0878C24.4914 24.2455 24.7293 24.4785 24.7293 24.4785C24.7284 24.4197 24.7358 24.3611 24.7513 24.3044C24.7895 24.1613 24.8763 24.0069 25.0156 23.7853C25.0746 23.6914 25.1418 23.5859 25.22 23.4641C25.5572 22.9353 26.1881 21.8846 26.3514 21.5564C26.4638 21.3308 26.5766 20.9516 26.6092 20.5687C26.6243 20.3958 26.6231 20.2209 26.5982 20.0603L26.5897 20.01C26.555 19.8358 26.5117 19.6634 26.4602 19.4934C26.2899 18.9102 26.0219 18.1669 25.9108 17.8718C25.7572 17.4631 25.4237 16.0172 24.1754 14.9735C23.1645 14.1275 22.2392 14.0315 21.9244 14.0253V11.9019H21.9252L22.0327 11.9051V13.0151C22.0327 13.0151 22.9939 13.2002 24.289 14.0907C25.2575 14.7565 26.498 15.6049 27.9137 16.1002C28.391 16.2673 28.8879 16.3944 29.4015 16.4602L29.3261 16.3928H32.557C32.6283 16.5684 32.7601 16.7125 32.9285 16.7986L32.8429 16.9286L30.0067 21.0174C29.8141 19.992 29.6845 19.0533 29.542 18.3475C29.2549 16.9286 29.208 16.7046 29.208 16.7046C29.208 16.7046 28.8276 16.7103 28.2937 16.6241C27.9353 16.5661 27.5077 16.4672 27.08 16.2972L27.0287 16.2759C25.9641 15.8378 25.6082 15.6302 25.5972 15.6237C25.6159 15.6482 26.8068 17.251 27.0918 19.057C27.1509 19.4301 27.1839 19.786 27.199 20.1289C27.2588 21.4592 27.0519 22.5863 27.0519 23.7089C27.0519 25.1213 27.6596 27.772 30.416 28.2403C30.416 28.2403 30.2295 28.0593 29.8218 27.6939C29.4145 27.3278 28.7784 26.2456 28.5071 25.1479C28.2355 24.0506 28.1422 23.4613 28.0888 22.0603C28.0571 21.2242 28.0379 20.2707 28.044 19.916" fill="url(#paint6_radial_3640_18294)"/>
<path d="M24.1049 9.86438L25.4408 11.8313C24.6344 11.251 23.5653 10.8444 22.0327 10.8137V11.672L21.9284 11.6687H21.9244V10.5407C22.0316 10.5406 22.1378 10.5186 22.2363 10.4759C22.3347 10.4333 22.4235 10.3709 22.4972 10.2926C22.5708 10.2144 22.6278 10.1218 22.6646 10.0207C22.7014 9.91964 22.7173 9.81206 22.7112 9.70459C23.1783 9.73226 23.6436 9.78587 24.1049 9.86438Z" fill="#15134A"/>
<path d="M21.4267 9.75083C21.4267 9.88312 21.4791 10.01 21.5723 10.1035C21.6655 10.1971 21.792 10.2496 21.9238 10.2496C22.0556 10.2496 22.1821 10.1971 22.2753 10.1035C22.3685 10.01 22.4209 9.88312 22.4209 9.75083C22.4209 9.6186 22.3685 9.49178 22.2754 9.39828C22.1822 9.30477 22.0558 9.25224 21.924 9.25224C21.7922 9.25224 21.6659 9.30477 21.5727 9.39828C21.4795 9.49178 21.4267 9.6186 21.4267 9.75083ZM21.9244 8.96045C22.1333 8.96067 22.3336 9.04399 22.4813 9.19216C22.629 9.34033 22.7122 9.54124 22.7125 9.75083C22.7123 9.96056 22.6291 10.1616 22.4813 10.3099C22.3335 10.4582 22.133 10.5415 21.924 10.5416C21.8167 10.5415 21.7106 10.5194 21.612 10.4768C21.5135 10.4341 21.4247 10.3717 21.3511 10.2934C21.2774 10.2151 21.2205 10.1225 21.1837 10.0213C21.1469 9.92018 21.1311 9.81256 21.1372 9.70506C21.1494 9.50375 21.2376 9.31468 21.3839 9.17634C21.5301 9.03801 21.7234 8.9608 21.9244 8.96045Z" fill="#FEFEFE"/>
<path d="M22.6412 35.6182C22.6412 35.6182 24.5728 35.4866 25.7649 34.7461C26.9582 34.0056 27.8567 32.9165 28.1507 31.6676C28.1711 31.5805 28.1915 31.4886 28.2122 31.3938L29.2288 30.8984C29.0284 31.5286 28.7714 32.1903 28.4533 32.7514C28.4335 32.7867 28.4132 32.8217 28.3922 32.8564C27.8669 33.7293 27.0104 34.5295 25.8973 35.0518C25.8973 35.0526 25.8969 35.0522 25.8969 35.0522C24.8251 35.399 23.7125 35.6025 22.5878 35.6575L22.6416 35.6182H22.6412Z" fill="url(#paint7_linear_3640_18294)"/>
<path d="M22.5883 35.658L22.7117 35.6506C23.7944 35.5874 24.8647 35.3865 25.897 35.0527C24.9578 35.4941 23.8358 35.7389 22.5769 35.6641C22.5806 35.6623 22.5843 35.6598 22.5879 35.6576L22.5883 35.658Z" fill="url(#paint8_linear_3640_18294)"/>
<path d="M21.9243 9.25244C22.0561 9.25255 22.1824 9.30518 22.2755 9.39876C22.3686 9.49234 22.4209 9.6192 22.4208 9.75144C22.4207 9.88367 22.3682 10.0104 22.275 10.1039C22.1817 10.1973 22.0553 10.2497 21.9235 10.2496C21.7917 10.2495 21.6654 10.1969 21.5723 10.1033C21.4792 10.0097 21.4269 9.88285 21.427 9.75062C21.4271 9.61839 21.4796 9.49161 21.5729 9.39818C21.6661 9.30476 21.7925 9.25233 21.9243 9.25244Z" fill="#1E205D"/>
<path d="M21.9284 11.6684L22.0327 11.6716V11.9046L21.9252 11.9013H21.9244V11.668L21.9284 11.6684Z" fill="#15134A"/>
<path d="M21.9232 8.73291V8.96054C21.5037 8.96054 21.1595 9.29075 21.1363 9.70515C20.6692 9.73278 20.204 9.78598 19.7426 9.86454L20.079 9.36922L19.9104 9.25438L19.4616 9.91562C17.0946 10.3721 14.9023 11.4848 13.1334 13.1278C12.7245 13.0874 12.325 13.118 12.0224 13.1605C11.9314 13.1731 11.8409 13.188 11.7507 13.2055C14.2823 10.4563 17.9054 8.73291 21.9228 8.73291H21.9232Z" fill="#ECEDF6"/>
<path d="M21.9232 8.47024V8.73302C17.9059 8.73302 14.2828 10.4564 11.75 13.2052C11.356 13.6326 10.9891 14.0844 10.6516 14.5579L10.3999 14.4459C10.8618 13.7936 11.3777 13.1815 11.9422 12.6163C13.2282 11.3234 14.752 10.2933 16.4291 9.58307C18.1672 8.84486 20.0359 8.46636 21.9232 8.47024Z" fill="#2702FF"/>
<path d="M19.7426 9.86446C20.2037 9.78593 20.6689 9.73272 21.1358 9.70508C21.1298 9.81255 21.1457 9.92012 21.1825 10.0212C21.2193 10.1223 21.2762 10.2148 21.3499 10.2931C21.4235 10.3714 21.5123 10.4337 21.6108 10.4764C21.7093 10.5191 21.8154 10.5411 21.9227 10.5412V11.6688H21.9186L21.8148 11.6724V10.8142C20.2818 10.8449 19.2127 11.2515 18.4067 11.8318L19.7426 9.86487V9.86446Z" fill="#15134A"/>
<path d="M21.9187 11.6684H21.9227V11.9017L21.8148 11.905V11.6721L21.9187 11.6684Z" fill="#15134A"/>
<path d="M26.4585 19.494C26.2883 18.9104 26.0203 18.1674 25.9091 17.8719C25.7556 17.4637 25.422 16.0178 24.1737 14.974C23.1629 14.128 22.2375 14.032 21.9227 14.0259C21.6079 14.032 20.683 14.128 19.6717 14.974C18.4234 16.0178 18.0899 17.4637 17.9363 17.8719C17.8252 18.1674 17.5576 18.9104 17.3869 19.494C17.5751 19.3464 17.9498 19.0828 18.3909 18.9414C18.331 18.8041 18.208 18.4457 18.2931 17.9688C18.4035 17.3533 18.8173 16.4665 19.4086 15.7905C19.9776 15.1391 21.1322 14.6679 21.9231 14.6491C22.7141 14.6679 23.8687 15.1395 24.4376 15.7905C25.0286 16.4665 25.4424 17.3533 25.5527 17.9688C25.6383 18.4457 25.5153 18.8041 25.455 18.9414C25.8957 19.0833 26.2704 19.346 26.4585 19.494Z" fill="url(#paint9_linear_3640_18294)"/>
<path d="M25.5533 17.9691C25.4429 17.3536 25.0291 16.4668 24.4377 15.7908C23.8688 15.1394 22.7142 14.6682 21.9232 14.6494V18.5318C21.8821 18.9675 21.797 19.2617 21.7257 19.905C21.628 20.7939 21.685 22.711 21.685 23.3338C21.6841 23.6813 21.7658 24.0239 21.9232 24.3334V24.3391C22.1802 24.3093 22.5354 23.9877 22.6107 23.8692C22.6861 23.7502 22.6905 23.635 22.7207 23.635C22.7508 23.635 23.0384 23.7228 23.1874 23.6991C23.3365 23.6759 23.4868 23.543 23.5377 23.4731C23.589 23.4029 23.5833 23.3424 23.4452 23.1585C23.3076 22.9746 23.1296 22.9173 22.9589 23.0404C22.7891 23.163 22.5924 23.2333 22.5924 23.2333C22.5924 23.2333 22.4889 23.2202 22.4889 22.5005C22.4889 21.8805 22.491 21.0946 22.4918 20.366V20.0186C22.4918 19.2004 22.7305 18.9471 23.0017 18.8804C23.2734 18.813 24.1563 18.7913 24.9933 18.849C25.1513 18.8596 25.3069 18.8939 25.4555 18.9413C25.5154 18.8044 25.6384 18.446 25.5533 17.9691Z" fill="#FDFDFD"/>
<path d="M18.7041 30.5967C18.6927 31.1341 18.7069 31.3862 18.7982 31.6666C18.4463 31.1087 18.241 28.0436 18.3392 27.3166C18.3559 27.1912 18.3945 27.0714 18.4491 26.9562C18.7098 26.4065 19.3301 25.9909 19.6098 25.7967C19.9479 25.5626 20.5221 25.1519 21.032 25.1519C21.5411 25.1519 21.9232 25.433 21.9232 25.433V25.8752C21.9232 25.8752 21.6633 25.6071 21.0536 25.5626C20.4782 25.5205 19.8709 25.9639 19.4828 26.5054C19.46 26.5369 19.438 26.5696 19.4164 26.6022C19.0336 27.1867 18.9537 27.7 18.9179 28.3424C18.8829 28.9758 18.8572 29.5079 18.8568 29.5227C18.8568 29.5227 18.7175 29.9628 18.7041 30.5967Z" fill="#162653"/>
<path d="M22.7919 25.5628C22.1826 25.6078 21.9227 25.8755 21.9227 25.8755C21.9227 25.8755 21.6629 25.6074 21.0532 25.5628C20.4777 25.5207 19.8705 25.9641 19.4824 26.5056C19.5553 26.5939 19.7544 26.7721 20.1747 26.7856C20.7266 26.8028 21.2536 26.5338 21.2695 26.5261L21.2699 26.5257C21.2699 26.5257 21.544 26.7525 21.9227 26.7831C22.1598 26.7593 22.3857 26.6702 22.5756 26.5257C22.5919 26.5338 23.1189 26.8028 23.6712 26.7856C24.0906 26.7721 24.2902 26.5939 24.3631 26.5056C23.975 25.9641 23.3677 25.5207 22.7919 25.5628Z" fill="#FEFEFE"/>
<path d="M22.4103 27.4508C22.3313 27.3638 22.1876 27.2375 21.9241 27.2109C21.6601 27.2375 21.5168 27.3638 21.4378 27.4508C21.3726 27.5223 21.318 27.5698 21.2423 27.6503H22.6066C22.5301 27.5698 22.4755 27.5223 22.4103 27.4508Z" fill="url(#paint10_linear_3640_18294)"/>
<path d="M21.9232 34.1929C22.0466 34.1941 22.192 34.2341 22.4523 34.3347C22.8962 34.5063 23.2424 34.6187 23.3491 34.6518C23.0265 35.1737 22.6323 35.4491 22.6323 35.4491C22.6323 35.4491 22.4347 35.6412 22.0987 35.6731H22.0975C22.0396 35.6786 21.9812 35.6788 21.9232 35.6739C21.8621 35.6788 21.8035 35.678 21.7489 35.6731H21.7473C21.4117 35.6412 21.2141 35.4491 21.2141 35.4491C21.2141 35.4491 20.8199 35.1737 20.4973 34.6522C20.7994 34.5554 21.0984 34.4495 21.3942 34.3347C21.654 34.2341 21.7994 34.1941 21.9232 34.1929Z" fill="#4F00EC"/>
<path d="M21.8156 12.6992V13.0151C21.8156 13.0151 20.8545 13.2003 19.5594 14.0908C18.5909 14.7565 17.3503 15.6049 15.9346 16.1002C16.4413 15.835 16.9463 15.4733 17.5902 14.9674C18.2345 14.4622 18.6585 14.0368 19.653 13.3678C20.5319 12.7761 21.5835 12.707 21.8156 12.6992Z" fill="#FF8701"/>
<path d="M18.8046 13.2597C18.4996 13.5061 18.2105 13.7717 17.9392 14.0549C18.1721 13.7362 18.443 13.4468 18.7297 13.1734C19.0187 12.9006 19.3308 12.6533 19.6623 12.4345C19.8293 12.3258 20.0016 12.2241 20.18 12.1329C20.3592 12.0439 20.5425 11.9625 20.7314 11.8935C20.7787 11.8763 20.8271 11.8608 20.8748 11.8456C20.8992 11.8379 20.9224 11.8293 20.9469 11.8223L21.0202 11.8027C21.0691 11.7905 21.1171 11.7749 21.1668 11.7647L21.3151 11.732C21.3647 11.7218 21.4148 11.7157 21.4649 11.7075L21.5403 11.6961C21.5651 11.6928 21.5904 11.6908 21.6156 11.6879C21.6661 11.6838 21.7162 11.6777 21.7671 11.6744L21.8152 11.6724V11.9053L21.781 11.9065L21.6392 11.9188C21.616 11.9212 21.592 11.9229 21.5684 11.9262L21.4983 11.9364C21.4515 11.9441 21.4038 11.949 21.3574 11.9588C21.1701 11.9924 20.986 12.0439 20.8035 12.1019C20.6223 12.1632 20.4443 12.2355 20.2696 12.3168C20.1828 12.3598 20.0965 12.4019 20.0118 12.4476C19.9254 12.4914 19.8424 12.5408 19.7589 12.589C19.5915 12.6875 19.4302 12.7958 19.2706 12.9066C19.1105 13.0173 18.9561 13.1362 18.8046 13.2597Z" fill="#15134A"/>
<path d="M22.8745 27.9568C22.8317 27.9094 22.782 27.8506 22.7185 27.7762C22.682 27.733 22.6442 27.6909 22.6053 27.6499H21.2401C21.2011 27.6911 21.1632 27.7333 21.1265 27.7766C21.0633 27.8506 21.0137 27.9094 20.9709 27.9568C20.9709 27.9568 20.8634 28.8089 20.9729 29.2907C21.0829 29.773 21.3932 30.1306 21.614 30.6361C21.6622 30.7474 21.7022 30.8622 21.7337 30.9794C21.8478 31.3836 21.8738 31.7657 21.9223 31.8384C21.9712 31.7657 21.9976 31.384 22.1104 30.9798C22.1198 30.9463 22.13 30.9132 22.1402 30.8801C22.1662 30.7979 22.196 30.7158 22.2306 30.6357C22.4513 30.1306 22.7613 29.7726 22.8716 29.2903C22.982 28.8089 22.8745 27.9568 22.8745 27.9568Z" fill="#FFFDFE"/>
<path d="M23.5514 29.0887C23.4268 28.5485 23.1022 28.1512 23.0199 28.0932C22.9668 28.0535 22.9183 28.008 22.8754 27.9575C22.8754 27.9575 22.9829 28.8092 22.8729 29.2914C22.7629 29.7733 22.4526 30.1313 22.2323 30.6364C22.1839 30.748 22.1438 30.863 22.1121 30.9805C21.9989 31.3847 21.972 31.7664 21.924 31.8391C21.8751 31.7664 21.8486 31.3839 21.7354 30.9797C21.7037 30.8625 21.6637 30.7478 21.6157 30.6364C21.3949 30.1317 21.085 29.7737 20.9746 29.2918C20.8647 28.8096 20.9722 27.9579 20.9722 27.9579C20.9176 28.0188 20.874 28.0609 20.8276 28.0936C20.7461 28.1516 20.4207 28.5489 20.2961 29.0887C20.2638 29.2284 20.2567 29.3728 20.2749 29.515C20.3047 29.7541 20.3987 29.978 20.5054 30.202C20.5576 30.3123 20.613 30.4227 20.6651 30.5346C20.8581 30.9527 21.7297 32.3741 21.9236 32.69C22.1178 32.3741 22.9894 30.9527 23.1824 30.5346C23.2346 30.4227 23.29 30.3123 23.3425 30.202C23.4488 29.9784 23.5433 29.7545 23.573 29.5154C23.5901 29.3789 23.5856 29.2375 23.5514 29.0887Z" fill="url(#paint11_linear_3640_18294)"/>
<path d="M18.1335 19.5863C18.1457 19.6337 18.1946 19.6406 18.3013 19.6002L18.3086 19.6803C18.2524 19.6803 18.2374 19.7403 18.2724 19.7935C18.285 19.8127 18.3176 19.8548 18.3652 19.9083L17.2583 20.0109C17.2831 19.8731 17.33 19.6929 17.3878 19.4943C17.5759 19.3468 17.9506 19.0832 18.3917 18.9422C18.54 18.8944 18.6955 18.8604 18.854 18.8498C19.6905 18.7918 20.5739 18.8139 20.8455 18.8813C21.1168 18.9479 21.3546 19.2017 21.3546 20.0199C21.3546 20.1331 21.3546 20.2491 21.3554 20.3668C21.2341 20.355 21.0255 20.3975 20.9119 20.4371C20.8691 20.3313 20.7441 20.2287 20.5942 20.1012C20.4631 19.9888 20.312 19.8568 20.1821 19.6868C19.8929 19.3075 19.4958 19.1179 19.2356 19.1044C18.9749 19.0909 18.8218 19.1461 18.5013 19.3218C18.1803 19.4976 18.1184 19.5262 18.1335 19.5863Z" fill="url(#paint12_radial_3640_18294)"/>
<path d="M18.9994 30.4005C19.1183 30.967 21.0011 32.7696 21.2858 32.9973C21.5709 33.2253 21.5041 33.39 21.2858 33.4345C21.1017 33.4721 20.1133 33.5514 19.8115 33.5747C19.657 33.3173 19.5127 33.054 19.379 32.7852C19.1578 32.3438 18.9896 32.0544 18.8556 31.8219V31.8207C18.8349 31.77 18.8159 31.7186 18.7986 31.6666C18.7078 31.3863 18.6931 31.1341 18.7049 30.5967C18.718 29.9632 18.8564 29.5235 18.8564 29.5235C18.8939 29.4483 18.9412 29.36 18.999 29.2632C18.9933 29.2922 18.8833 29.8488 18.999 30.4005H18.9994Z" fill="#250EF0"/>
<path d="M15.8056 19.8784C15.8154 20.234 15.7914 21.2242 15.7596 22.0603C15.7059 23.4613 15.6126 24.0506 15.3413 25.1483C15.0697 26.2456 14.4335 27.3278 14.0259 27.6939C13.6186 28.0597 13.4321 28.2403 13.4321 28.2403C16.1889 27.7716 16.7961 25.1213 16.7961 23.7089C16.7961 22.5863 16.5896 21.4592 16.6491 20.1289C16.6642 19.7865 16.6976 19.4301 16.7562 19.057C17.0413 17.2506 18.2326 15.6486 18.2509 15.6241C18.2403 15.6298 17.8844 15.8378 16.8197 16.2759L16.768 16.2972C16.3404 16.4672 15.9128 16.5661 15.5544 16.6241C15.0208 16.7103 14.64 16.7046 14.64 16.7046C14.64 16.7046 14.5936 16.9286 14.3061 18.3475C14.1668 19.0369 14.0401 19.9483 13.8548 20.9455L11.0691 16.9286L10.9664 16.7725C11.1128 16.6846 11.2267 16.5513 11.291 16.3928H14.5223C14.4726 16.4378 14.4462 16.4602 14.4462 16.4602C14.9533 16.3925 15.4521 16.272 15.9343 16.1006C17.35 15.6053 18.591 14.7561 19.5591 14.0907C20.8542 13.2002 21.8153 13.0151 21.8153 13.0151V11.9051L21.9233 11.9019L21.9237 14.0262C21.6089 14.0319 20.6844 14.1279 19.6731 14.9739C18.4248 16.018 18.0908 17.4635 17.9373 17.8722C17.8261 18.1673 17.5585 18.9102 17.3883 19.4938C17.3301 19.6925 17.2836 19.8727 17.2588 20.0104C17.2551 20.028 17.2527 20.0447 17.2498 20.0607C17.2259 20.2289 17.2222 20.3995 17.2388 20.5687C17.2718 20.952 17.3846 21.3308 17.4966 21.5568C17.6604 21.885 18.2908 22.9357 18.628 23.4645C18.7054 23.5863 18.7738 23.6922 18.8325 23.7853C18.9718 24.0073 19.0585 24.1617 19.0968 24.3044C19.1123 24.3636 19.1196 24.42 19.1188 24.4789C19.1188 24.4789 19.3571 24.2459 19.6075 24.0882C19.6548 24.0579 19.7028 24.0314 19.7497 24.0085C20.0433 23.8679 20.0836 23.8197 20.0702 23.7911C20.0567 23.7625 19.8515 23.6207 19.913 23.3579C19.9749 23.0947 20.3569 22.3803 20.9275 22.5037C20.9275 22.5037 20.9788 20.6721 20.921 20.4628C20.9186 20.4539 20.9156 20.4452 20.912 20.4367C21.0256 20.397 21.2342 20.3549 21.3551 20.3664C21.3559 21.095 21.3584 21.8809 21.3584 22.5009C21.3584 23.2201 21.2549 23.2336 21.2549 23.2336C21.2549 23.2336 21.0578 23.1633 20.888 23.0407C20.7177 22.9181 20.5398 22.9745 20.4017 23.1593C20.264 23.3432 20.2583 23.4036 20.3097 23.4739C20.3606 23.5434 20.5104 23.6762 20.6595 23.6995C20.8086 23.7236 21.0961 23.6354 21.1266 23.6354C21.1564 23.6354 21.1613 23.7506 21.2366 23.8695C21.3116 23.9881 21.6667 24.3097 21.9237 24.3395V24.6256C21.9165 24.6259 21.9093 24.6259 21.9021 24.6256C21.6085 24.619 21.2944 24.355 21.1047 24.1773C20.9141 23.9999 20.6473 23.9165 20.4538 23.9664C20.4538 23.9664 19.6462 24.2373 18.9921 24.8234C18.3381 25.4086 18.134 25.7973 18.134 25.7973C18.134 25.7973 18.7918 24.0972 18.6785 24.0604C18.5653 24.0236 17.6506 24.5958 17.3305 25.4495C17.0099 26.3028 17.0796 28.0699 17.3305 29.054C17.5805 30.0377 18.1344 30.8481 18.4851 31.5339C18.7267 31.9997 18.976 32.4616 19.2328 32.9193L16.4854 31.5809C16.2573 29.958 16.2752 27.727 16.2752 27.727C16.2752 27.727 15.6912 28.1292 15.1051 28.405C15.0318 28.4394 14.9593 28.4716 14.8872 28.5015C14.6263 28.6041 14.3557 28.6801 14.0796 28.7283C13.7391 28.7904 13.485 28.8031 13.485 28.8031C13.485 28.8031 13.707 29.5076 13.9864 30.3638L11.2291 29.0205C11.3061 28.8607 11.3285 28.6768 11.2882 28.5002C12.6998 28.4643 14.2279 27.5685 14.807 26.1189C15.4277 24.5659 15.5902 22.9484 15.6745 21.9627" fill="url(#paint13_radial_3640_18294)"/>
<path d="M20.4004 23.1593C20.5385 22.975 20.7165 22.9182 20.8867 23.0408C21.0565 23.1634 21.2536 23.2341 21.2536 23.2341C21.2536 23.2341 21.3571 23.2206 21.3571 22.5009C21.3571 21.8809 21.3547 21.0955 21.3542 20.3664L21.3538 20.0194C21.3538 19.2013 21.1156 18.9479 20.8443 18.8809C20.5727 18.8138 19.6893 18.7918 18.8528 18.8498C18.6956 18.8617 18.5404 18.8926 18.3905 18.9417C18.3307 18.804 18.2077 18.446 18.2928 17.9691C18.4032 17.3536 18.8169 16.4668 19.4079 15.7908C19.9773 15.1394 21.1315 14.6682 21.9228 14.6494V18.5318C21.8813 18.9675 21.7965 19.2617 21.7253 19.905C21.6275 20.7939 21.6845 22.711 21.6845 23.3338C21.6837 23.6813 21.7653 24.0239 21.9228 24.3334V24.3391C21.6654 24.3093 21.3107 23.9877 21.2353 23.8692C21.16 23.7502 21.1551 23.635 21.1254 23.635C21.0948 23.635 20.8077 23.7228 20.6582 23.6991C20.5092 23.6759 20.3593 23.543 20.308 23.4731C20.2571 23.4037 20.2623 23.3428 20.4004 23.1593Z" fill="#DDD3C0"/>
<path d="M21.2708 35.6641C20.0115 35.7389 18.8895 35.4941 17.9503 35.0527C19.0221 35.3994 20.1347 35.6027 21.2594 35.6576L21.2708 35.6641Z" fill="url(#paint14_linear_3640_18294)"/>
<path d="M15.6342 31.3936L16.522 31.8259C16.5623 32.076 16.6104 32.3069 16.6658 32.506C17.0739 33.9674 19.1127 35.1219 20.4359 34.9033C20.6823 35.2163 20.9482 35.486 21.2052 35.6185C21.2052 35.6185 19.2735 35.4864 18.0815 34.7459C16.8886 34.0054 15.9897 32.9163 15.6961 31.6674C15.6757 31.5799 15.6545 31.4884 15.6342 31.3936Z" fill="url(#paint15_linear_3640_18294)"/>
<path d="M18.3012 19.6C18.1953 19.6405 18.1457 19.6335 18.1334 19.5861C18.1188 19.5257 18.1807 19.497 18.5008 19.3213C18.8209 19.1456 18.9745 19.0908 19.2351 19.1039C19.4954 19.1174 19.8924 19.307 20.1816 19.6867C20.3119 19.8567 20.4626 19.9883 20.5942 20.1011L20.5331 20.1023C20.5201 20.09 20.4769 20.0802 20.3673 20.0778C20.3567 20.0696 20.3466 20.0631 20.3364 20.0561C20.2232 19.9785 20.0077 19.9772 19.8244 20.1011C19.6408 20.2249 19.1985 20.4824 18.893 20.3352C18.6776 20.2314 18.4788 20.0365 18.3652 19.9078C18.3324 19.8712 18.3014 19.833 18.2723 19.7933C18.2369 19.7394 18.2524 19.6797 18.3082 19.6793C18.3208 19.6793 18.3354 19.6826 18.3521 19.6891C18.4426 19.7259 18.7374 20.1125 19.148 20.0876C19.5585 20.0627 19.8607 19.6879 19.8607 19.674C19.8607 19.6609 19.5222 19.4067 19.2416 19.3544C18.9606 19.3025 18.5704 19.4733 18.3969 19.5571C18.3656 19.5727 18.3337 19.587 18.3012 19.6Z" fill="url(#paint16_linear_3640_18294)"/>
<path d="M20.595 20.1006C20.7441 20.2277 20.8691 20.3307 20.9123 20.4365C20.916 20.4447 20.9188 20.4541 20.9213 20.4627C20.9791 20.6723 20.9278 22.504 20.9278 22.504C20.3576 22.3802 19.9748 23.095 19.9137 23.3578C19.8518 23.6205 20.057 23.7623 20.0705 23.791C20.0835 23.8196 20.0436 23.8678 19.75 24.0084C19.7031 24.0308 19.6555 24.0578 19.6078 24.0881C19.6188 23.9438 19.6465 23.6189 19.6929 23.3798C19.7544 23.0635 19.7964 22.7856 20.0473 22.4207C20.2973 22.0557 20.5173 21.8485 20.6044 21.5236C20.6908 21.1991 20.6464 20.3442 20.6411 20.3221C20.6362 20.3029 20.4814 20.1615 20.3682 20.0781C20.4778 20.0802 20.5209 20.0904 20.5331 20.1026L20.595 20.1006Z" fill="url(#paint17_linear_3640_18294)"/>
<path d="M20.6399 20.3221C20.6452 20.3442 20.69 21.1991 20.6032 21.5236C20.5169 21.8481 20.2961 22.0553 20.0461 22.4202C19.7956 22.7856 19.7536 23.0631 19.6917 23.3794C19.6453 23.6185 19.6176 23.9434 19.607 24.0876C19.3561 24.2454 19.1183 24.4783 19.1183 24.4783C19.1192 24.4195 19.1118 24.3609 19.0963 24.3042C19.1444 24.2376 19.2079 24.1191 19.1851 23.9785C19.1493 23.7599 19.0246 23.0945 18.4329 21.9748C17.8411 20.855 17.5206 20.1406 17.5206 20.1406C17.5206 20.1406 18.3396 20.4553 18.7159 20.6159C19.0918 20.7769 19.3635 20.694 19.6526 20.4688C19.9418 20.2432 20.0905 20.0716 20.3678 20.0773C20.4802 20.1607 20.6354 20.3021 20.6399 20.3221Z" fill="#C8C090"/>
<path d="M22.5613 32.9978C22.846 32.7697 24.7284 30.967 24.8477 30.4006C24.9634 29.8489 24.8538 29.2923 24.8477 29.2637C24.7531 29.1033 24.6475 28.9492 24.5317 28.8035C24.4759 28.734 24.4209 28.6642 24.3655 28.5935L24.2389 28.4341C23.942 28.0634 23.6137 27.6756 23.1266 27.2366C22.7193 26.8709 22.6053 26.6449 22.5768 26.5264H22.576C22.576 26.5264 22.3019 26.7532 21.9235 26.7838C21.5448 26.7532 21.2707 26.5264 21.2707 26.5264C21.2422 26.6449 21.1269 26.8705 20.7204 27.2371C20.2329 27.6756 19.9047 28.0634 19.6078 28.4345C19.5654 28.4876 19.5231 28.5407 19.4815 28.5939C19.4257 28.6633 19.3707 28.734 19.3149 28.8035C19.1991 28.9493 19.0935 29.1029 18.9989 29.2633C18.9932 29.2927 18.8832 29.8485 18.9989 30.4002C19.1178 30.967 21.0006 32.7697 21.2853 32.9973C21.5704 33.2254 21.5036 33.3901 21.2853 33.4346C21.1012 33.4722 20.1132 33.5515 19.8114 33.5748C20.0615 33.9929 20.2834 34.3043 20.4936 34.646L20.4972 34.6521C20.7994 34.5552 21.0986 34.4493 21.3945 34.3345C21.6547 34.234 21.8001 34.1944 21.9235 34.1931C22.0465 34.194 22.1923 34.234 22.4522 34.3345C22.8965 34.5062 23.2423 34.6186 23.3494 34.6521L23.3534 34.646C23.5632 34.3043 23.7852 33.9929 24.0352 33.5752C23.7338 33.5515 22.7454 33.4722 22.5609 33.4346C22.343 33.3897 22.2762 33.2254 22.5609 32.9973L22.5613 32.9978ZM21.9235 32.6896C21.7292 32.3737 20.8581 30.9523 20.665 30.5343C20.6129 30.4223 20.5571 30.3115 20.505 30.2016C20.3983 29.978 20.3038 29.7541 20.2745 29.515C20.2558 29.3726 20.2628 29.2279 20.2952 29.088C20.4199 28.5481 20.7445 28.1509 20.8267 28.0928C20.8732 28.0601 20.9167 28.0176 20.9713 27.9571C21.0141 27.9097 21.0638 27.8509 21.1273 27.7761C21.1709 27.725 21.2079 27.6846 21.2409 27.6498C21.3171 27.5701 21.3713 27.5219 21.4364 27.4508C21.5154 27.3637 21.6596 27.2375 21.9231 27.2109C22.1866 27.2375 22.3304 27.3637 22.4094 27.4508C22.4746 27.5223 22.5287 27.5697 22.6049 27.6498C22.6379 27.6846 22.6749 27.7254 22.7189 27.7765C22.782 27.8509 22.8313 27.9097 22.8745 27.9571C22.9291 28.0184 22.9727 28.0601 23.0191 28.0928C23.1009 28.1509 23.4264 28.5481 23.5506 29.088C23.5848 29.2375 23.5889 29.3781 23.5722 29.5142C23.5424 29.7533 23.4479 29.9772 23.3416 30.2012C23.2891 30.3115 23.2337 30.4219 23.1816 30.5338C22.9885 30.9519 22.117 32.3737 21.9231 32.6892L21.9235 32.6896Z" fill="#252842"/>
<path d="M20.4358 34.9035C19.113 35.1221 17.0737 33.9676 16.6661 32.5062C16.6057 32.2823 16.5574 32.0553 16.5215 31.8262L19.4042 33.2304C19.4881 33.3992 19.9194 34.2468 20.4358 34.9035Z" fill="#24254B"/>
<path d="M17.951 35.0522H17.9502C16.8376 34.5291 15.9807 33.7293 15.4557 32.8564C15.4346 32.8218 15.4143 32.7868 15.3946 32.7514C15.0761 32.1903 14.8191 31.5286 14.6191 30.8984L15.6353 31.3938C15.6561 31.4886 15.6768 31.5805 15.6972 31.6676C15.9908 32.9169 16.8897 34.0056 18.0826 34.7461C19.2747 35.4866 21.2064 35.6182 21.2064 35.6182L21.2601 35.6571C21.219 35.655 21.1774 35.653 21.1367 35.6501C20.0539 35.5871 18.9834 35.3861 17.951 35.0522Z" fill="url(#paint18_linear_3640_18294)"/>
<path d="M20.0795 9.36915L19.7427 9.86447C19.6486 9.88 19.5553 9.89716 19.4617 9.91514L19.9105 9.25391L20.0795 9.36915Z" fill="#ECEDF6"/>
<path d="M19.7426 9.86426L18.4067 11.8316C18.201 11.9796 18.0121 12.1394 17.8373 12.3073L19.4615 9.91493C19.5552 9.89654 19.6485 9.87979 19.7426 9.86426Z" fill="#FFFFFB"/>
<path d="M19.2429 19.3547C19.5231 19.407 19.862 19.6612 19.862 19.6743C19.862 19.6878 19.5598 20.0626 19.1492 20.0879C18.7387 20.1128 18.443 19.7266 18.353 19.6894C18.3391 19.6836 18.3241 19.6804 18.309 19.68L18.3017 19.5999C18.3302 19.5893 18.362 19.5754 18.3982 19.5574C18.5721 19.4737 18.9623 19.3032 19.2429 19.3547Z" fill="#071C50"/>
<path d="M24.99 29.5231C24.9891 29.5084 24.9635 28.9767 24.9289 28.3429C24.8926 27.7004 24.8128 27.1875 24.4304 26.6027C24.409 26.5699 24.3869 26.5376 24.364 26.5059C24.2907 26.5945 24.0919 26.7723 23.6716 26.7858C23.1198 26.803 22.5924 26.5341 22.5769 26.5263C22.6054 26.6444 22.7198 26.87 23.1267 27.2366C23.6138 27.6751 23.9425 28.0629 24.239 28.434C24.2817 28.4871 24.3241 28.5402 24.3652 28.5934C24.421 28.6637 24.476 28.7336 24.5318 28.803C24.6597 28.9628 24.7647 29.1218 24.8482 29.2628C24.9052 29.3605 24.9525 29.4483 24.99 29.5231Z" fill="#F7B41E"/>
<path d="M20.1757 26.7858C19.7554 26.7723 19.5566 26.5945 19.4833 26.5059C19.4605 26.5377 19.4385 26.57 19.4169 26.6027C19.0341 27.1871 18.9543 27.7004 18.9184 28.3429C18.8834 28.9763 18.8577 29.5084 18.8573 29.5231C18.8948 29.4483 18.9416 29.3596 18.9995 29.2632C19.0942 29.1026 19.1999 28.9489 19.3159 28.803L19.4821 28.5934C19.5236 28.5402 19.566 28.4871 19.6083 28.434C19.9056 28.0629 20.2339 27.6751 20.721 27.2366C21.1279 26.8704 21.2423 26.6444 21.2708 26.5263C21.2545 26.5345 20.7279 26.8034 20.1757 26.7858Z" fill="url(#paint19_linear_3640_18294)"/>
<path d="M19.4971 33.0476L19.4083 33.2315L19.4055 33.2303C19.4003 33.2204 19.3953 33.2104 19.3904 33.2004L19.2328 32.9185L19.4971 33.0476Z" fill="#FDFDFD"/>
<path d="M19.4611 9.91545L17.8369 12.3074C17.7286 12.4108 17.6259 12.5175 17.5278 12.6262L11.2204 15.6635C11.1867 15.6112 11.1468 15.5633 11.1014 15.5209C11.6798 14.6436 12.3619 13.8399 13.1329 13.1272C14.902 11.4846 17.0942 10.3722 19.4611 9.91545Z" fill="#272742"/>
<path d="M19.2323 32.9193L19.39 33.2013L19.405 33.2311L16.5224 31.8269C16.5091 31.7453 16.4967 31.6635 16.4853 31.5817L19.2323 32.9193ZM20.4529 23.9668C20.4529 23.9668 20.9808 24.2745 21.0341 24.315C21.0875 24.355 21.1408 24.4221 20.9539 24.5189C20.7673 24.6162 19.1651 25.7069 18.7212 26.4364C18.621 26.6015 18.5269 26.7744 18.4422 26.953C18.1527 27.566 17.9739 28.2485 18.0305 28.9195C18.1038 29.7864 18.3807 30.7803 18.5445 31.2057C18.6259 31.417 18.7237 31.5911 18.8556 31.8207V31.8216C18.9892 32.0545 19.1574 32.3434 19.379 32.7852C19.4238 32.8743 19.4677 32.9597 19.5105 33.0406L19.4971 33.048L19.2323 32.9193C18.9756 32.4616 18.7263 31.9997 18.4846 31.5339C18.1343 30.8477 17.5804 30.0381 17.33 29.0536C17.0795 28.0699 17.0094 26.3028 17.33 25.4491C17.6505 24.5957 18.5648 24.0236 18.678 24.0604C18.7917 24.0972 18.1339 25.7973 18.1339 25.7973C18.1339 25.7973 18.3376 25.409 18.992 24.823C19.6453 24.2377 20.4529 23.9668 20.4529 23.9668Z" fill="#FDFDFD"/>
<path d="M19.6517 20.4692C19.9409 20.2436 20.0895 20.072 20.3669 20.0777C20.3563 20.0696 20.3461 20.063 20.3359 20.0557C20.2223 19.9788 20.0073 19.9768 19.824 20.1006C19.6403 20.2248 19.198 20.4823 18.8926 20.3352C18.6767 20.231 18.4784 20.0364 18.3647 19.9077L17.2574 20.0103L17.2492 20.0606C17.224 20.2216 17.2228 20.3957 17.2378 20.5685C17.2708 20.9519 17.3836 21.3307 17.4956 21.5567C17.6593 21.8849 18.2898 22.9352 18.627 23.4644C18.7044 23.5858 18.7728 23.6917 18.8315 23.7852C18.9708 24.0071 19.0575 24.1616 19.0958 24.3043C19.1443 24.2381 19.2078 24.1195 19.1846 23.979C19.1487 23.7599 19.0241 23.095 18.4328 21.9752C17.8406 20.855 17.5205 20.1411 17.5205 20.1411C17.5205 20.1411 18.3391 20.4558 18.7154 20.6164C19.0909 20.7774 19.3622 20.6948 19.6517 20.4692Z" fill="#05B5CC"/>
<path d="M25.1248 26.4362C24.6809 25.7067 23.0791 24.616 22.8922 24.5187C22.7052 24.4218 22.7586 24.3552 22.8119 24.3143C22.8653 24.2743 23.3931 23.9666 23.3931 23.9666C23.1996 23.9163 22.9325 24.0001 22.7423 24.1774C22.5521 24.3548 22.2381 24.6188 21.9444 24.6258H21.9013C21.6076 24.6192 21.2936 24.3548 21.1034 24.1774C20.9128 24.0001 20.6461 23.9163 20.4526 23.9666C20.4526 23.9666 20.9804 24.2743 21.0338 24.3148C21.0871 24.3548 21.1405 24.4218 20.9535 24.5187C20.7666 24.616 19.1648 25.7067 18.7209 26.4362C18.619 26.6034 18.5259 26.7758 18.4419 26.9528L18.4488 26.956C18.7095 26.4064 19.3297 25.9907 19.61 25.7966C19.948 25.5624 20.5222 25.1517 21.0317 25.1517C21.5416 25.1517 21.9233 25.4329 21.9233 25.4329C21.9233 25.4329 22.3053 25.1517 22.8144 25.1517C23.3239 25.1517 23.8981 25.5624 24.2362 25.7966C24.5164 25.9907 25.1362 26.4064 25.3973 26.956L25.4042 26.9528C25.3191 26.7742 25.225 26.6013 25.1248 26.4362Z" fill="url(#paint20_linear_3640_18294)"/>
<path d="M18.34 27.3168C18.2422 28.0434 18.4475 31.1085 18.799 31.6663C18.8153 31.7162 18.834 31.7673 18.856 31.8204C18.7236 31.5903 18.6259 31.4162 18.5444 31.2053C18.3815 30.7803 18.1046 29.7864 18.0308 28.9196C17.9738 28.2485 18.153 27.5652 18.4426 26.9526L18.4495 26.9559C18.3944 27.0696 18.3573 27.1912 18.3396 27.3164L18.34 27.3168Z" fill="url(#paint21_linear_3640_18294)"/>
<path d="M18.4076 11.8315L17.804 12.72L17.2073 13.0073C17.3092 12.8782 17.4159 12.7507 17.5291 12.6264L17.6663 12.5602L17.8382 12.3072C18.0133 12.1397 18.2019 11.9795 18.4076 11.8315Z" fill="#FEFEFE"/>
<path d="M16.8185 16.2758C17.8831 15.8377 18.2391 15.6301 18.2501 15.6235C18.2313 15.6481 17.0401 17.2509 16.7554 19.0568C16.6995 19.4118 16.6636 19.7697 16.6479 20.1288C16.3949 20.2089 16.094 20.2489 15.8028 20.2661C15.8044 20.0278 15.8028 19.9056 15.8028 19.9056C15.8028 19.9056 15.8561 18.6375 16.1591 17.6649C16.3725 16.9783 16.6328 16.512 16.7672 16.2966L16.8185 16.2758Z" fill="#8E485F"/>
<path d="M17.8382 12.3076L17.6664 12.5602L17.5287 12.6264C17.6269 12.5177 17.7299 12.4106 17.8382 12.3076Z" fill="#FEFEFE"/>
<path d="M11.3085 15.8476L17.2066 13.0073C16.9239 13.3657 16.6771 13.7372 16.4409 14.0969C15.9476 14.8521 15.3764 15.5532 14.7369 16.1885H11.3423C11.3561 16.0737 11.3445 15.9574 11.3085 15.8476Z" fill="#272742"/>
<path d="M15.5547 16.6238C15.9131 16.5662 16.3403 16.4673 16.7684 16.2969C16.6336 16.5118 16.3733 16.9785 16.1599 17.6647C15.8569 18.6374 15.8039 19.9055 15.8039 19.9055C15.8039 19.9055 15.7982 20.0444 15.7864 20.2672C15.3816 20.2905 14.9996 20.2704 14.7955 20.2549C14.9829 18.3987 15.4398 16.9638 15.5547 16.6238Z" fill="#DD5A79"/>
<path d="M16.649 20.1284C16.5895 21.4591 16.7964 22.5862 16.7964 23.7088C16.7964 25.1216 16.1888 27.7719 13.4323 28.2402C13.4323 28.2402 13.6189 28.0596 14.0261 27.6938C14.4334 27.3277 15.07 26.2455 15.3412 25.1482C15.6129 24.0505 15.7061 23.4612 15.7595 22.0602C15.7913 21.2241 15.801 20.6188 15.8039 20.2661C16.0947 20.249 16.3957 20.2085 16.649 20.1284Z" fill="#2B66AB"/>
<path d="M16.5227 31.8265L15.6348 31.3945C15.6173 31.3119 15.599 31.2278 15.5815 31.1411L16.4856 31.5808C16.497 31.6646 16.51 31.7468 16.5227 31.8265Z" fill="#FDFDFD"/>
<path d="M16.4852 31.5805L15.5811 31.1403C15.371 30.117 15.1698 28.8337 15.1042 28.405C15.6907 28.1292 16.2747 27.7271 16.2747 27.7271C16.2747 27.7271 16.2568 29.9572 16.4852 31.5805Z" fill="#2B21EB"/>
<path d="M15.6352 31.3943L14.6187 30.899C14.5898 30.8091 14.5621 30.7192 14.536 30.6313L15.5815 31.1406L15.6352 31.3943Z" fill="#FDFDFD"/>
<path d="M14.64 16.7045C14.64 16.7045 15.0204 16.7103 15.5543 16.624C15.4394 16.964 14.9825 18.3989 14.7951 20.2551L14.7935 20.2755C14.5797 22.417 14.1989 23.7428 13.9187 24.666C13.656 25.5324 12.547 27.6244 10.8177 27.946C10.7547 27.9202 10.6885 27.9026 10.621 27.8937V27.5729C11.1537 27.087 12.3694 25.8556 12.984 24.2377C13.3021 23.4003 13.5306 22.5225 13.7085 21.6802L13.8918 21.9654L14.2926 21.5772L13.8543 20.9458C14.0401 19.9486 14.1663 19.0373 14.3064 18.3478C14.5931 16.9285 14.64 16.7045 14.64 16.7045Z" fill="#FEFCFD"/>
<path d="M15.3942 32.7512C15.4138 32.7864 15.4345 32.8215 15.4553 32.8563C15.3071 32.9641 14.9947 33.1885 14.9747 33.1795L14.9055 33.0013C14.6953 32.4848 14.3646 31.5125 14.0746 30.6343L14.6184 30.8987C14.8187 31.5281 15.0757 32.1901 15.3942 32.7512Z" fill="#FFE3B4"/>
<path d="M14.7959 20.2549C14.9995 20.27 15.382 20.2904 15.7868 20.2671C15.7664 20.6644 15.7286 21.3305 15.6748 21.9619C15.5905 22.9481 15.428 24.5656 14.8073 26.1186C14.2274 27.5681 12.6993 28.464 11.2881 28.4999C11.2598 28.3765 11.2023 28.2618 11.1205 28.1654C11.0387 28.069 10.935 27.9938 10.8181 27.9462C12.5474 27.6241 13.6564 25.5325 13.9191 24.6661C14.1997 23.7425 14.5801 22.4172 14.7939 20.2753C14.7939 20.2684 14.7951 20.2614 14.7959 20.2549Z" fill="url(#paint22_linear_3640_18294)"/>
<path d="M15.1049 28.4053C15.1701 28.834 15.3713 30.1176 15.5815 31.1405L14.5364 30.6313C14.3507 30.0056 14.1982 29.3704 14.0794 28.7285C14.325 28.6836 14.615 28.6125 14.8871 28.5013C14.9587 28.4719 15.0316 28.4396 15.1049 28.4053Z" fill="#3858D6"/>
<path d="M14.0741 30.6344C14.3637 31.513 14.6944 32.4852 14.9046 33.0014L14.9738 33.18C14.9738 33.18 13.3875 32.5089 12.5147 31.6168C12.4865 31.5872 12.4586 31.5573 12.4308 31.5273L12.4231 31.5191C11.821 30.8708 11.287 30.1622 10.8294 29.4042C10.94 29.3571 11.0383 29.2849 11.1165 29.1934L14.0741 30.6344Z" fill="#15134A"/>
<path d="M14.8094 16.1885V16.3928H14.5219C14.572 16.347 14.6457 16.2784 14.7378 16.1885H14.8094Z" fill="#FEFEFE"/>
<path d="M11.3431 16.1885H14.7377C14.6457 16.2784 14.5723 16.3466 14.5218 16.3928H11.291C11.3182 16.3262 11.3358 16.2571 11.3431 16.1885Z" fill="#FF7F16"/>
<path d="M14.6179 30.8982L14.0746 30.6338L13.9858 30.3633L14.5356 30.631C14.5621 30.7196 14.5898 30.8087 14.6183 30.8982H14.6179Z" fill="#FDFDFD"/>
<path d="M15.9335 16.1001C15.4514 16.2715 14.9528 16.392 14.4457 16.4598C14.4457 16.4598 14.4722 16.4373 14.5215 16.3923H14.809V16.188H14.7373C15.108 15.8247 15.7791 15.107 16.4418 14.0968C16.678 13.7371 16.9244 13.3653 17.207 13.0073L17.8037 12.72L18.4073 11.8311C19.2137 11.2508 20.2828 10.8441 21.8153 10.8135V11.6717L21.7673 11.6733C21.7164 11.6766 21.6663 11.6827 21.6158 11.6868C21.5905 11.6897 21.5653 11.6917 21.5404 11.695L21.4651 11.7068C21.415 11.715 21.3645 11.7207 21.3152 11.7314L21.167 11.7641C21.1173 11.7743 21.0692 11.7894 21.0203 11.8021L20.947 11.8217C20.9226 11.8286 20.899 11.8368 20.8749 11.8446C20.8273 11.8601 20.7788 11.8756 20.7316 11.8924C20.5426 11.9619 20.3589 12.0432 20.1801 12.1323C20.0013 12.223 19.8299 12.3248 19.6625 12.4339C19.3309 12.6526 19.0189 12.8996 18.7298 13.1724C18.4431 13.4458 18.1719 13.7351 17.9393 14.0539C18.2105 13.7705 18.4994 13.5049 18.8044 13.2586C18.9559 13.1352 19.1106 13.0167 19.2703 12.9055C19.4299 12.7943 19.5912 12.6864 19.7582 12.588C19.8421 12.5397 19.9252 12.4899 20.0115 12.4465C20.2654 12.3091 20.5304 12.1935 20.8037 12.1008C20.9857 12.0428 21.1702 11.9905 21.3571 11.9578C21.4036 11.948 21.4508 11.9426 21.4981 11.9353L21.5681 11.9247C21.5917 11.9214 21.6154 11.9202 21.639 11.9177C21.6866 11.9136 21.7335 11.9087 21.7807 11.9055L21.8149 11.9042V12.6983C21.5832 12.7065 20.5312 12.7751 19.6523 13.3669C18.6577 14.0363 18.2338 14.4613 17.5899 14.9669C16.9456 15.4728 16.4402 15.8345 15.9335 16.1001Z" fill="#FEFEFE"/>
<path d="M13.8548 20.9453L14.293 21.5767L13.8922 21.965L13.709 21.6801C13.7619 21.4316 13.81 21.1856 13.8548 20.9453Z" fill="#FEFCFD"/>
<path d="M14.0786 28.728C14.1373 29.0484 14.2855 29.793 14.5356 30.6312L13.9858 30.3636C13.706 29.5074 13.4848 28.8028 13.4848 28.8028C13.4848 28.8028 13.7382 28.7906 14.0786 28.728Z" fill="#FFE3B4"/>
<path d="M14.0754 30.634L11.1174 29.193C11.1622 29.1403 11.2 29.0822 11.2294 29.0205L13.9866 30.3634L14.0754 30.634Z" fill="#FDFDFD"/>
<path d="M12.0224 13.1603C12.325 13.1174 12.7242 13.0868 13.1335 13.1276C12.3625 13.8402 11.6803 14.644 11.102 15.5212C11.0108 15.4345 10.9001 15.371 10.7794 15.336C10.6586 15.301 10.5313 15.2956 10.408 15.3202C10.5241 15.1216 10.6817 14.8886 10.8544 14.6487C11.2792 14.0602 11.7968 13.4313 12.0224 13.1603Z" fill="#E03528"/>
<path d="M12.5156 31.6172C13.3888 32.5089 14.9751 33.18 14.9751 33.18L15.219 33.8044C14.224 33.2005 13.3147 32.4648 12.5156 31.6172Z" fill="#069EBF"/>
<path d="M11.7503 13.2051C11.8276 13.19 11.9193 13.1745 12.0219 13.1602C11.7967 13.4307 11.279 14.0605 10.8543 14.649L10.651 14.5578C10.989 14.0844 11.3561 13.6326 11.7503 13.2051Z" fill="#FF5B32"/>
<path d="M10.9541 15.4104C11.122 15.5071 11.2483 15.6629 11.3084 15.8477C11.3639 16.0178 11.3602 16.2019 11.298 16.3697C11.2358 16.5375 11.1187 16.6792 10.9659 16.7717L10.8681 16.6233L10.6144 16.864L10.6258 16.8816C10.5559 16.8883 10.4854 16.885 10.4165 16.8718C10.3281 16.8559 10.2431 16.8245 10.1656 16.779C10.0759 16.7273 9.99739 16.6583 9.93447 16.5759C9.87156 16.4936 9.82553 16.3996 9.79904 16.2992C9.76583 16.177 9.76276 16.0486 9.79008 15.9249V15.9241C9.80719 15.8464 9.83651 15.7708 9.87724 15.7001V15.6993C9.94699 15.5794 10.0467 15.4798 10.1666 15.4104C10.2864 15.3411 10.4223 15.3043 10.5606 15.3037C10.6979 15.3045 10.8343 15.3409 10.9541 15.4104ZM10.3114 16.5269C10.3293 16.5371 10.3476 16.5465 10.3664 16.5539L10.39 16.5633C10.3987 16.5666 10.4075 16.5696 10.4165 16.5722H10.4177C10.4258 16.5751 10.434 16.5771 10.4421 16.5792C10.4516 16.5819 10.4613 16.584 10.471 16.5853C10.4783 16.5867 10.4857 16.5878 10.493 16.5886L10.5081 16.5902C10.5357 16.5946 10.5638 16.5952 10.5916 16.5919C10.6014 16.591 10.6111 16.5906 10.6205 16.589L10.6437 16.5857H10.6458C10.6515 16.5846 10.6572 16.5834 10.6629 16.5821C10.6678 16.5812 10.6726 16.5804 10.6775 16.5788C10.68 16.5788 10.6824 16.578 10.6849 16.5771L10.6922 16.5755C10.7177 16.5685 10.7426 16.5595 10.7667 16.5485L10.7855 16.5391C10.8077 16.5286 10.8289 16.5159 10.8486 16.5011L10.8518 16.4987C10.8573 16.495 10.8625 16.4909 10.8673 16.4864C10.8922 16.4683 10.9147 16.447 10.9341 16.4231C10.939 16.4181 10.9435 16.4128 10.9476 16.4071L10.9598 16.392C10.9708 16.3769 10.9814 16.3605 10.9911 16.3442C10.9952 16.336 10.9997 16.3283 11.0033 16.3201C11.0129 16.3017 11.0211 16.2825 11.0278 16.2629L11.0335 16.2478C11.0362 16.2407 11.0383 16.2335 11.04 16.2261L11.0433 16.2138C11.0445 16.2089 11.0461 16.2044 11.0465 16.1995L11.049 16.1877C11.0519 16.1723 11.0541 16.1567 11.0555 16.1411C11.0567 16.1329 11.0571 16.126 11.0575 16.1186L11.0579 16.0941C11.0579 16.074 11.0567 16.0539 11.0543 16.034C11.0538 16.0287 11.0534 16.0238 11.0518 16.0185C11.0504 16.0038 11.0476 15.9893 11.0433 15.9752V15.9743L11.0392 15.9592C11.0347 15.9413 11.0287 15.9238 11.0213 15.9069L11.0107 15.8828C11.0018 15.863 10.9911 15.844 10.9789 15.826C10.9678 15.8069 10.9547 15.7891 10.9398 15.7729L10.93 15.7618L10.915 15.7455C10.9077 15.7378 10.9001 15.7304 10.8922 15.7234L10.8889 15.7206C10.8719 15.7051 10.8537 15.6912 10.8343 15.6789C10.7788 15.6444 10.7171 15.6213 10.6527 15.6107C10.5883 15.6002 10.5225 15.6025 10.459 15.6175C10.3954 15.6325 10.3355 15.66 10.2825 15.6982C10.2296 15.7365 10.1847 15.7848 10.1503 15.8405C10.116 15.8962 10.0929 15.9581 10.0824 16.0227C10.0719 16.0874 10.0742 16.1534 10.0892 16.2172C10.1041 16.2809 10.1315 16.3411 10.1696 16.3942C10.2077 16.4473 10.2559 16.4924 10.3114 16.5269Z" fill="#FEFCFD"/>
<path d="M10.8173 27.9463C10.9339 27.9944 11.0373 28.0698 11.119 28.1661C11.2007 28.2624 11.2582 28.3769 11.2869 28.5001C11.3242 28.6651 11.308 28.8377 11.2406 28.9928C11.1733 29.1479 11.0584 29.2774 10.9126 29.3624C10.7954 29.4307 10.6626 29.4674 10.5271 29.4688C10.3917 29.4702 10.2581 29.4364 10.1396 29.3706C10.0134 29.3006 9.90832 29.1974 9.83534 29.0726C9.76853 28.9573 9.73235 28.8268 9.73026 28.6934C9.72633 28.4985 9.79424 28.309 9.92096 28.1613C10.0477 28.0135 10.2243 27.9179 10.4169 27.8928L10.4434 27.8899C10.5707 27.8785 10.6989 27.8978 10.8173 27.9463ZM10.2231 28.2765L10.2227 28.2774C10.2146 28.2829 10.2069 28.289 10.1994 28.2953C10.1909 28.3021 10.1827 28.3093 10.175 28.317C10.1662 28.3248 10.1581 28.3333 10.1506 28.3423C10.1329 28.3617 10.1169 28.3825 10.1025 28.4045L10.1021 28.4053C10.0905 28.4228 10.0801 28.4411 10.0712 28.46L10.0699 28.4625L10.0577 28.4899C10.054 28.5001 10.05 28.5099 10.0471 28.5201C10.044 28.529 10.0413 28.538 10.039 28.5471L10.0369 28.5553C10.0343 28.564 10.0324 28.5728 10.0312 28.5818C10.0168 28.6556 10.0192 28.7322 10.0382 28.805C10.0499 28.8477 10.0667 28.8889 10.0883 28.9276C10.134 29.0073 10.2009 29.0727 10.2815 29.1166C10.3621 29.1604 10.4533 29.181 10.5448 29.176L10.5595 29.1752C10.5693 29.1745 10.5791 29.1733 10.5888 29.1715C10.5967 29.1705 10.6046 29.1691 10.6124 29.1675L10.6149 29.1671C10.625 29.1654 10.6344 29.163 10.6442 29.1609L10.6483 29.1597C10.656 29.1577 10.6636 29.1554 10.6711 29.1527L10.6792 29.1499L10.7073 29.1397C10.7177 29.1356 10.7279 29.1309 10.7379 29.1258C10.7566 29.117 10.7745 29.1068 10.7916 29.0951L10.7998 29.0898L10.8222 29.0735L10.823 29.0722L10.8389 29.0596V29.0583C10.8471 29.0522 10.8547 29.0454 10.8617 29.0379C10.8967 29.0043 10.9266 28.9658 10.9505 28.9235C10.9548 28.9161 10.9589 28.9086 10.9627 28.901L10.9663 28.8928C10.9671 28.892 10.9671 28.8904 10.968 28.8892C10.9716 28.881 10.9753 28.8736 10.9781 28.865C10.9855 28.8484 10.9915 28.8312 10.9961 28.8135L11.0018 28.7919C11.0027 28.7888 11.0034 28.7857 11.0038 28.7825L11.0067 28.7678L11.0095 28.751C11.0107 28.7461 11.0107 28.7408 11.0115 28.7359C11.0158 28.7006 11.0162 28.665 11.0128 28.6296L11.0124 28.6243L11.0107 28.6096C11.0072 28.5742 10.9986 28.5395 10.9851 28.5066C10.9822 28.498 10.9788 28.4895 10.9749 28.4813L10.9745 28.4801C10.9517 28.4266 10.9198 28.3776 10.88 28.3354L10.8727 28.3272L10.8649 28.3199C10.8494 28.304 10.8325 28.2895 10.8144 28.2765C10.7969 28.2635 10.7785 28.2516 10.7594 28.241L10.757 28.2398C10.7525 28.2369 10.7476 28.2345 10.7427 28.2324C10.7307 28.2258 10.7182 28.22 10.7053 28.2152C10.6951 28.2112 10.6857 28.2071 10.6751 28.2042C10.6747 28.2042 10.6743 28.2042 10.6739 28.2034C10.6663 28.2007 10.6585 28.1984 10.6507 28.1964L10.6381 28.1932C10.632 28.1915 10.6259 28.1902 10.6197 28.1891C10.6128 28.1874 10.6057 28.1862 10.5986 28.1854C10.5961 28.1846 10.5941 28.1846 10.5916 28.1846C10.5778 28.1817 10.5638 28.18 10.5497 28.1797C10.5391 28.1789 10.5285 28.1789 10.5179 28.1789C10.5036 28.1788 10.4894 28.1794 10.4752 28.1809L10.4625 28.1817L10.4446 28.1846C10.4418 28.1846 10.4389 28.1846 10.4361 28.1858C10.4296 28.1864 10.4232 28.1875 10.4169 28.1891L10.4161 28.1895C10.4096 28.1904 10.4032 28.1918 10.397 28.1936C10.3894 28.1949 10.3821 28.1969 10.375 28.1997C10.3693 28.2009 10.3644 28.203 10.3599 28.2046C10.3391 28.2109 10.3189 28.2191 10.2996 28.2291C10.2722 28.2416 10.2464 28.2575 10.2231 28.2765Z" fill="#FDFDFD"/>
<path d="M11.221 15.6633L17.5284 12.626C17.4156 12.7506 17.3089 12.8781 17.2071 13.0073L11.3089 15.8476C11.2875 15.7828 11.258 15.7206 11.221 15.6633Z" fill="#FFF3BF"/>
<path d="M10.9549 15.7912C10.9689 15.8085 10.9811 15.8271 10.9916 15.8467C10.9989 15.8586 11.0046 15.8704 11.0107 15.8827C11.0226 15.9072 11.0321 15.9328 11.0392 15.9591L11.0433 15.9742V15.9755L11.049 16C11.0502 16.0061 11.0515 16.0123 11.0519 16.0184C11.0549 16.033 11.0567 16.048 11.0572 16.0629C11.0579 16.0734 11.0582 16.0839 11.058 16.0944C11.058 16.1026 11.058 16.1103 11.0572 16.1189C11.0561 16.142 11.0534 16.1649 11.049 16.1876C11.0482 16.1917 11.0478 16.1958 11.0466 16.1994C11.0449 16.2084 11.0427 16.2173 11.04 16.226C11.0384 16.2334 11.0362 16.2406 11.0335 16.2477C11.0323 16.2534 11.0303 16.2583 11.0282 16.2632C11.0217 16.2829 11.0135 16.302 11.0038 16.3204C10.9856 16.3578 10.9623 16.3925 10.9346 16.4234C10.9203 16.4397 10.9048 16.4553 10.8885 16.4696C10.8845 16.4737 10.8804 16.4769 10.8759 16.4802L10.8678 16.4867L10.8515 16.499C10.831 16.515 10.8087 16.5285 10.7851 16.5394L10.7668 16.5484C10.7427 16.5594 10.7177 16.5684 10.6922 16.5754L10.6849 16.577C10.6825 16.5779 10.6801 16.5784 10.6776 16.5787L10.6629 16.5824C10.6573 16.5838 10.6516 16.5848 10.6458 16.5856H10.6438L10.6206 16.5893C10.6111 16.5903 10.6016 16.5911 10.592 16.5918C10.5815 16.593 10.5717 16.593 10.5607 16.593C10.5525 16.593 10.5444 16.593 10.5363 16.5922L10.5191 16.5913C10.5151 16.5913 10.5114 16.5905 10.5082 16.5901C10.4958 16.5893 10.4836 16.5877 10.4715 16.5852C10.4532 16.5823 10.4353 16.578 10.4177 16.5721H10.4169C10.3997 16.5671 10.3829 16.5609 10.3664 16.5538C10.2834 16.5186 10.2115 16.4615 10.1583 16.3885C10.1052 16.3155 10.0729 16.2294 10.0648 16.1393C10.0567 16.0493 10.0732 15.9588 10.1125 15.8774C10.1518 15.7961 10.2124 15.727 10.2878 15.6775C10.3789 15.6175 10.4871 15.5892 10.5958 15.597C10.7045 15.6047 10.8077 15.6481 10.8894 15.7205L10.8926 15.7233L10.9154 15.7454C10.9207 15.7506 10.9257 15.756 10.9305 15.7617L10.9403 15.7728L10.9549 15.7912Z" fill="#1E205D"/>
<path d="M11.0462 16.1998L11.0482 16.188C11.0476 16.192 11.0468 16.1959 11.0458 16.1998H11.0462Z" fill="#1E205D"/>
<path d="M10.8682 16.624L10.9659 16.7724C10.8641 16.8337 10.7476 16.8729 10.6263 16.8827L10.6144 16.8651L10.8682 16.624Z" fill="#FEFCFD"/>
<path d="M10.8402 29.0581C10.8352 29.0627 10.83 29.067 10.8246 29.0712L10.8402 29.0581Z" fill="#22245C"/>
<path d="M10.4005 14.4458L10.6518 14.5578C10.4301 14.8676 10.2214 15.1867 10.0263 15.5141C9.96843 15.5672 9.91833 15.6297 9.87801 15.6996V15.7004C9.83729 15.7711 9.80756 15.8472 9.79086 15.9244V15.9252C8.66955 17.9571 8.07768 20.2403 8.07013 22.5629C7.99569 22.4964 7.90624 22.449 7.80948 22.4248C7.8467 19.5631 8.75006 16.7804 10.3997 14.4458H10.4005Z" fill="#06C6FC"/>
<path d="M10.6258 16.8823C10.7467 16.8725 10.8632 16.8341 10.9654 16.772L11.0681 16.9281L13.8538 20.945C13.8082 21.1906 13.7598 21.4357 13.7084 21.6802L10.6258 16.8823Z" fill="#FF5359"/>
<path d="M12.984 24.2373C12.369 25.8552 11.1533 27.0866 10.621 27.5725V16.8831C10.6226 16.8831 10.6243 16.8831 10.6263 16.8823L13.7089 21.6802C13.531 22.5229 13.3025 23.4007 12.984 24.2377V24.2373Z" fill="#15134A"/>
<path d="M10.6214 27.5728V27.8936C10.5626 27.886 10.5032 27.8849 10.4442 27.8903L10.4174 27.8613V27.7518C10.4626 27.7142 10.5322 27.6537 10.6214 27.5728Z" fill="#FEFCFD"/>
<path d="M10.6001 28.186C10.6071 28.1873 10.6144 28.1881 10.6214 28.1901C10.6143 28.1886 10.6072 28.1872 10.6001 28.186Z" fill="#22245C"/>
<path d="M10.5599 16.8852C10.5803 16.8852 10.6006 16.8844 10.621 16.8828V27.5725C10.5322 27.6534 10.4622 27.7139 10.4174 27.7519V16.8726C10.4642 16.8807 10.5123 16.8852 10.5599 16.8852Z" fill="#F89120"/>
<path d="M10.5207 29.1765C10.4472 29.1769 10.3745 29.1608 10.3079 29.1296C10.2413 29.0983 10.1825 29.0525 10.1357 28.9956C10.0889 28.9387 10.0553 28.872 10.0374 28.8004C10.0195 28.7289 10.0176 28.6542 10.032 28.5819L10.0381 28.5545L10.0401 28.5463L10.0483 28.5197C10.0546 28.5 10.0622 28.4808 10.0711 28.4621L10.0723 28.4597C10.0816 28.4407 10.092 28.4223 10.1033 28.4045L10.1037 28.4041C10.1094 28.3951 10.1159 28.3861 10.1224 28.3771C10.1277 28.3702 10.1326 28.3636 10.1387 28.3567C10.1427 28.3515 10.1471 28.3465 10.1517 28.342L10.1603 28.3322C10.1655 28.3267 10.1709 28.3215 10.1766 28.3166L10.179 28.3138C10.1931 28.3004 10.208 28.2882 10.2238 28.277C10.2238 28.2762 10.2238 28.2762 10.2242 28.2766V28.2762L10.2259 28.2749C10.2328 28.2696 10.24 28.2647 10.2474 28.2602C10.2552 28.2548 10.2632 28.2497 10.2715 28.2451C10.2817 28.2394 10.2918 28.2337 10.302 28.2288C10.3327 28.2124 10.3654 28.2005 10.3994 28.1932C10.4055 28.1914 10.4118 28.19 10.4181 28.1891H10.4193L10.4381 28.1854C10.4649 28.1797 10.4924 28.1774 10.5199 28.1785C10.5394 28.1785 10.5588 28.1795 10.5782 28.1818L10.5936 28.1842C10.6093 28.1862 10.6248 28.1891 10.6401 28.1928L10.6523 28.1961C10.6604 28.1981 10.6686 28.2006 10.6759 28.2034L10.6771 28.2038C10.6945 28.2096 10.7115 28.2164 10.728 28.2243L10.7447 28.232C10.7496 28.2345 10.7545 28.2365 10.759 28.2394L10.7614 28.2402C10.7808 28.2503 10.7993 28.2626 10.8164 28.2762C10.8347 28.289 10.8517 28.3035 10.8673 28.3195C10.8698 28.3223 10.8726 28.3244 10.8746 28.3273L10.882 28.335C10.922 28.3771 10.954 28.4261 10.9765 28.4797L10.9769 28.4809C10.9808 28.4892 10.9841 28.4976 10.9871 28.5063C10.9899 28.5124 10.9915 28.5185 10.9936 28.5251C11.0001 28.5434 11.005 28.5622 11.0082 28.5814C11.0115 28.5972 11.0138 28.6132 11.0152 28.6293L11.0164 28.6501C11.018 28.6787 11.0172 28.7073 11.0135 28.7359L11.0119 28.7506L11.0086 28.767C11.008 28.7721 11.007 28.7771 11.0058 28.7821C11.0006 28.8107 10.9921 28.8385 10.9805 28.8651L10.9699 28.8888L10.9683 28.8929C10.9675 28.8957 10.9659 28.8982 10.9642 28.901C10.961 28.9087 10.9572 28.916 10.9528 28.9231C10.9489 28.9309 10.944 28.9384 10.939 28.9456C10.9217 28.9734 10.9015 28.9993 10.8787 29.0228C10.8742 29.0273 10.8694 29.033 10.8637 29.0375L10.8596 29.0416L10.8408 29.058L10.8254 29.071L10.8241 29.0719L10.8013 29.0886L10.794 29.0935L10.7688 29.1091C10.7595 29.1145 10.7499 29.1195 10.7402 29.1242L10.7386 29.125C10.7177 29.1358 10.6959 29.1447 10.6735 29.1516C10.6645 29.1548 10.6554 29.1575 10.6462 29.1597C10.6365 29.1621 10.6267 29.1641 10.6168 29.1659C10.6164 29.1667 10.6156 29.1667 10.6148 29.1667C10.6067 29.1684 10.5986 29.1698 10.5904 29.1708L10.5615 29.174C10.548 29.176 10.5343 29.1768 10.5207 29.1765Z" fill="#22245C"/>
<path d="M10.4423 16.5792C10.4341 16.5772 10.4255 16.5751 10.4178 16.5723L10.4423 16.5792Z" fill="#1E205D"/>
<path d="M10.4174 27.8613L10.4439 27.8899L10.4174 27.8932V27.8613Z" fill="#FEFCFD"/>
<path d="M10.3346 16.8521C9.42887 18.6593 8.95915 20.6548 8.96328 22.6777C8.95974 24.5154 9.34714 26.3327 10.0996 28.0081C10.1961 27.9473 10.3046 27.9081 10.4177 27.8933V16.8725C10.3896 16.8672 10.3619 16.8604 10.3346 16.8521Z" fill="#272742"/>
<path d="M10.3981 28.1943L10.3806 28.1988C10.3863 28.1969 10.3921 28.1954 10.3981 28.1943Z" fill="#22245C"/>
<path d="M10.1404 29.3706C10.2452 29.4283 10.3618 29.4613 10.4813 29.4671C10.6007 29.4729 10.7199 29.4513 10.8299 29.4041C11.3712 30.3007 12.019 31.1281 12.7591 31.868C13.4982 32.6106 14.3242 33.2606 15.219 33.8039L15.3066 34.0258C14.8798 34.4182 13.3224 33.4721 12.3905 32.4038C12.1682 32.1475 11.9528 31.8851 11.7446 31.6171L11.7434 31.6159C11.0425 30.7184 10.4454 29.8291 10.4454 29.8291L10.1404 29.3706Z" fill="#069EBF"/>
<path d="M11.7431 31.615C11.0771 30.8609 10.4717 30.055 9.93234 29.2051C9.99199 29.2713 10.0622 29.3271 10.1401 29.3702L10.4455 29.8283C10.4455 29.8283 11.0422 30.7176 11.7427 31.615H11.7431Z" fill="#069EBF"/>
<path d="M10.026 15.5144C10.221 15.187 10.4298 14.8679 10.6516 14.5581L10.8548 14.6488C10.6958 14.8656 10.5467 15.0895 10.408 15.3199C10.2655 15.3481 10.1327 15.4163 10.026 15.5148V15.5144Z" fill="#FF5B32"/>
<path d="M8.07059 22.563C8.07788 20.2404 8.66947 17.9573 9.7905 15.9253C9.75441 16.0893 9.77145 16.2606 9.83914 16.4143C9.90683 16.5679 10.0216 16.6958 10.1668 16.7794C10.2198 16.8105 10.2764 16.8346 10.3346 16.8522C9.42885 18.6595 8.95912 20.6552 8.96333 22.6783C8.95973 24.5161 9.34712 26.3335 10.0996 28.009C9.9306 28.1153 9.80964 28.2788 9.75792 28.4737C9.73837 28.5469 9.72941 28.6208 9.73144 28.6944C9.43821 28.1819 8.9955 27.3711 8.62896 26.5337V26.5329L8.62814 26.5317C8.33705 25.5361 8.15863 24.5108 8.09625 23.4752" fill="#ECE8E7"/>
<path d="M8.65622 26.626C8.745 26.9022 9.05535 27.7662 9.78599 28.9697C9.82019 29.0564 9.86957 29.1363 9.9318 29.2055C10.4714 30.0553 11.0768 30.8612 11.7425 31.6155L11.7437 31.6167C11.9539 31.8865 12.1738 32.1562 12.3893 32.4034C13.3215 33.4713 14.8789 34.4178 15.3058 34.0251C15.3208 34.0627 15.333 34.0937 15.3424 34.1158C15.4239 34.3177 15.3945 34.4223 15.21 34.5919C15.1587 34.6367 15.0943 34.6637 15.0264 34.6687C11.9954 32.9176 9.68417 30.0478 8.65622 26.626Z" fill="#03B9FF"/>
<path d="M8.05668 24.8838C8.16665 25.3893 8.37965 25.9664 8.62727 26.5316L8.62768 26.5324L8.62809 26.5332C8.6302 26.5412 8.63251 26.5491 8.63501 26.5569L8.63705 26.5639C8.64041 26.5764 8.64421 26.5888 8.64845 26.601L8.65211 26.6133C8.65293 26.6174 8.65456 26.6215 8.65619 26.6256C9.68414 30.0482 11.9958 32.9176 15.0267 34.6691C14.8137 34.6932 14.4961 34.5833 14.1063 34.4129H14.1055L14.1047 34.4121C13.327 33.892 12.6026 33.296 11.9421 32.6327C9.84472 30.5357 8.46086 27.8276 7.98785 24.8948L8.05668 24.8838Z" fill="#0165FE"/>
<path d="M9.78684 28.9703C9.0562 27.7667 8.74626 26.9024 8.65707 26.6265L8.653 26.6139L8.64933 26.6016L8.64567 26.5894C8.64302 26.5811 8.64058 26.5728 8.63833 26.5644C8.63711 26.562 8.63671 26.5595 8.6363 26.5575L8.63141 26.5424L8.62897 26.5342C8.99551 27.3711 9.43822 28.182 9.73145 28.6944C9.73308 28.7884 9.75182 28.8816 9.78684 28.9703Z" fill="#ECE8E7"/>
<path d="M8.62808 26.5315C8.38005 25.9663 8.16704 25.3893 8.05749 24.8837L7.98825 24.8944C7.92079 24.4745 7.87241 24.0517 7.84326 23.6275C7.93938 23.5972 8.02613 23.5445 8.09577 23.4746C8.15971 24.5294 8.34176 25.5527 8.62808 26.5315Z" fill="#0165FE"/>
<path d="M8.0723 22.8584C8.07095 22.7805 8.07028 22.7026 8.07026 22.6246V22.5633C7.99695 22.4971 7.90776 22.4493 7.80961 22.4248C7.80785 22.5497 7.80785 22.6746 7.80961 22.7996C7.81246 23.0766 7.82386 23.3529 7.843 23.6279C7.93953 23.5973 8.02628 23.5446 8.09592 23.4747C8.0837 23.2704 8.07556 23.0652 8.0723 22.8588V22.8584Z" fill="#06C6FC"/>
</g>
<defs>
<linearGradient id="paint0_linear_3640_18294" x1="22.6421" y1="33.506" x2="28.2128" y2="33.506" gradientUnits="userSpaceOnUse">
<stop stop-color="#9D21A4"/>
<stop offset="0.52" stop-color="#F51C90"/>
<stop offset="1" stop-color="#9801CA"/>
</linearGradient>
<linearGradient id="paint1_linear_3640_18294" x1="24.4858" y1="16.2669" x2="31.166" y2="27.806" gradientUnits="userSpaceOnUse">
<stop stop-color="#FF7300"/>
<stop offset="0.681" stop-color="#FFB933"/>
<stop offset="1" stop-color="#FFDB4C"/>
</linearGradient>
<radialGradient id="paint2_radial_3640_18294" cx="0" cy="0" r="1" gradientUnits="userSpaceOnUse" gradientTransform="translate(23.2301 19.2278) scale(4.18097 4.19245)">
<stop stop-color="#202646"/>
<stop offset="0.349" stop-color="#0025C6"/>
<stop offset="0.833" stop-color="#182948"/>
</radialGradient>
<linearGradient id="paint3_linear_3640_18294" x1="19.9201" y1="25.9189" x2="23.9203" y2="21.9296" gradientUnits="userSpaceOnUse">
<stop stop-color="#F1D003"/>
<stop offset="0.561" stop-color="#EB583F"/>
<stop offset="0.923" stop-color="#E4D494"/>
</linearGradient>
<linearGradient id="paint4_linear_3640_18294" x1="26.2801" y1="22.7702" x2="23.5293" y2="20.0269" gradientUnits="userSpaceOnUse">
<stop stop-color="#FBB03B"/>
<stop offset="0.168" stop-color="#F3BC58"/>
<stop offset="0.441" stop-color="#E8CD82"/>
<stop offset="0.581" stop-color="#E4D492"/>
<stop offset="1" stop-color="#E4D494"/>
</linearGradient>
<linearGradient id="paint5_linear_3640_18294" x1="24.4968" y1="20.3532" x2="24.4968" y2="18.808" gradientUnits="userSpaceOnUse">
<stop stop-color="#C7B299"/>
<stop offset="0.723" stop-color="#F89B23"/>
</linearGradient>
<radialGradient id="paint6_radial_3640_18294" cx="0" cy="0" r="1" gradientUnits="userSpaceOnUse" gradientTransform="translate(23.2309 19.2278) scale(4.18097 4.19245)">
<stop stop-color="#202646"/>
<stop offset="0.349" stop-color="#0025C6"/>
<stop offset="0.833" stop-color="#182948"/>
</radialGradient>
<linearGradient id="paint7_linear_3640_18294" x1="22.5874" y1="33.2778" x2="29.2288" y2="33.2778" gradientUnits="userSpaceOnUse">
<stop stop-color="#9800CE"/>
<stop offset="0.479" stop-color="#FF288B"/>
<stop offset="1" stop-color="#F84690"/>
</linearGradient>
<linearGradient id="paint8_linear_3640_18294" x1="22.5769" y1="35.365" x2="25.8974" y2="35.365" gradientUnits="userSpaceOnUse">
<stop stop-color="#F84690"/>
<stop offset="0.52" stop-color="#FF288B"/>
<stop offset="1" stop-color="#9800CE"/>
</linearGradient>
<linearGradient id="paint9_linear_3640_18294" x1="21.9227" y1="14.0259" x2="21.9227" y2="19.494" gradientUnits="userSpaceOnUse">
<stop stop-color="#FF7300"/>
<stop offset="0.958" stop-color="#F7AA46"/>
<stop offset="1" stop-color="#F7AD49"/>
</linearGradient>
<linearGradient id="paint10_linear_3640_18294" x1="20.207" y1="27.4304" x2="23.8716" y2="27.4304" gradientUnits="userSpaceOnUse">
<stop stop-color="#FF7300"/>
<stop offset="0.681" stop-color="#FFB933"/>
<stop offset="1" stop-color="#FFDB4C"/>
</linearGradient>
<linearGradient id="paint11_linear_3640_18294" x1="20.2069" y1="30.3233" x2="23.8715" y2="30.3233" gradientUnits="userSpaceOnUse">
<stop stop-color="#FF7300"/>
<stop offset="0.681" stop-color="#FFB933"/>
<stop offset="1" stop-color="#FFDB4C"/>
</linearGradient>
<radialGradient id="paint12_radial_3640_18294" cx="0" cy="0" r="1" gradientUnits="userSpaceOnUse" gradientTransform="translate(20.7335 19.5491) scale(3.2641 3.27307)">
<stop stop-color="#202646"/>
<stop offset="0.349" stop-color="#0025C6"/>
<stop offset="0.833" stop-color="#182948"/>
</radialGradient>
<radialGradient id="paint13_radial_3640_18294" cx="0" cy="0" r="1" gradientUnits="userSpaceOnUse" gradientTransform="translate(20.7349 19.549) scale(3.2641 3.27307)">
<stop stop-color="#202646"/>
<stop offset="0.349" stop-color="#0025C6"/>
<stop offset="0.833" stop-color="#182948"/>
</radialGradient>
<linearGradient id="paint14_linear_3640_18294" x1="17.9503" y1="35.365" x2="21.2708" y2="35.365" gradientUnits="userSpaceOnUse">
<stop stop-color="#F84690"/>
<stop offset="0.52" stop-color="#FF288B"/>
<stop offset="1" stop-color="#9800CE"/>
</linearGradient>
<linearGradient id="paint15_linear_3640_18294" x1="15.6342" y1="33.506" x2="21.2048" y2="33.506" gradientUnits="userSpaceOnUse">
<stop stop-color="#9D21A4"/>
<stop offset="0.52" stop-color="#F51C90"/>
<stop offset="1" stop-color="#9801CA"/>
</linearGradient>
<linearGradient id="paint16_linear_3640_18294" x1="17.3055" y1="18.7058" x2="21.4356" y2="20.9588" gradientUnits="userSpaceOnUse">
<stop stop-color="#F1D003"/>
<stop offset="0.561" stop-color="#EB583F"/>
<stop offset="0.923" stop-color="#848D73"/>
</linearGradient>
<linearGradient id="paint17_linear_3640_18294" x1="23.843" y1="12.4886" x2="19.8582" y2="23.407" gradientUnits="userSpaceOnUse">
<stop stop-color="#F1D003"/>
<stop offset="0.609" stop-color="#E65B42"/>
<stop offset="1" stop-color="#818E93"/>
</linearGradient>
<linearGradient id="paint18_linear_3640_18294" x1="14.6187" y1="33.2778" x2="21.2601" y2="33.2778" gradientUnits="userSpaceOnUse">
<stop stop-color="#F84690"/>
<stop offset="0.52" stop-color="#FF288B"/>
<stop offset="1" stop-color="#9800CE"/>
</linearGradient>
<linearGradient id="paint19_linear_3640_18294" x1="18.8569" y1="28.0147" x2="21.2708" y2="28.0147" gradientUnits="userSpaceOnUse">
<stop stop-color="#FF8F01"/>
<stop offset="0.561" stop-color="#FF9800"/>
<stop offset="1" stop-color="#FFAF00"/>
</linearGradient>
<linearGradient id="paint20_linear_3640_18294" x1="18.4415" y1="25.4541" x2="25.4038" y2="25.4541" gradientUnits="userSpaceOnUse">
<stop stop-color="#FF7300"/>
<stop offset="0.681" stop-color="#FFB933"/>
<stop offset="1" stop-color="#FFDB4C"/>
</linearGradient>
<linearGradient id="paint21_linear_3640_18294" x1="17.7637" y1="29.3867" x2="23.4911" y2="29.3867" gradientUnits="userSpaceOnUse">
<stop stop-color="#FF8F01"/>
<stop offset="0.561" stop-color="#FF9800"/>
<stop offset="1" stop-color="#FFAF00"/>
</linearGradient>
<linearGradient id="paint22_linear_3640_18294" x1="11.958" y1="28.1591" x2="15.143" y2="22.658" gradientUnits="userSpaceOnUse">
<stop stop-color="#009BB6"/>
<stop offset="0.561" stop-color="#2D6DB2"/>
<stop offset="0.923" stop-color="#585CA4"/>
</linearGradient>
<clipPath id="clip0_3640_18294">
<rect width="28.509" height="27.79" fill="white" transform="translate(7.66983 8.10498)"/>
</clipPath>
</defs>
</svg>
