<svg xmlns="http://www.w3.org/2000/svg" xmlns:xlink="http://www.w3.org/1999/xlink" width="619" height="410" xmlns:v="https://vecta.io/nano"><defs><linearGradient x1="50%" y1="0%" x2="50%" y2="127.887286%" id="A"><stop stop-color="#d7cbff" offset="0%"/><stop stop-color="#5f58ff" offset="100%"/></linearGradient><path id="B" d="M0 0h618.904v409.514H0z"/><linearGradient x1="27.8341449%" y1="21.5050837%" x2="100%" y2="100%" id="C"><stop stop-color="#8fa1d1" stop-opacity="0" offset="0%"/><stop stop-color="#e0e8ff" offset="100%"/></linearGradient><linearGradient x1="35.8644134%" y1="40.2367777%" x2="134.279342%" y2="142.390744%" id="D"><stop stop-color="#8fa1d1" stop-opacity="0" offset="0%"/><stop stop-color="#7d74ff" offset="100%"/></linearGradient><filter x="-18.5%" y="-216.2%" width="137.1%" height="532.4%" ><feOffset dy="2" in="SourceAlpha"/><feGaussianBlur stdDeviation="2.5"/><feColorMatrix values="0 0 0 0 0   0 0 0 0 0   0 0 0 0 0  0 0 0 0.09 0" result="C"/><feMerge><feMergeNode in="C"/><feMergeNode in="SourceGraphic"/></feMerge></filter><linearGradient x1="40.8183727%" y1="14.672865%" x2="40.8183727%" y2="117.167878%" id="F"><stop stop-color="#fff" offset="0%"/><stop stop-color="#cfccf9" offset="59.2282771%"/><stop stop-color="#867ffe" offset="100%"/></linearGradient><path d="M164.453 144.53l-36.623-36.622c-.195-.195-.423-.331-.626-.512 7.206-10.931 11.412-24.016 11.412-38.088C138.616 31.03 107.585 0 69.308 0S0 31.03 0 69.308s31.03 69.308 69.307 69.308a68.96 68.96 0 0 0 38.088-11.412c.181.203.317.431.511.626l36.624 36.624c5.502 5.501 14.421 5.501 19.923 0a14.09 14.09 0 0 0 0-19.923z" id="G"/><filter x="-35.0%" y="-40.9%" width="170.0%" height="170.0%" id="H"><feOffset dy="-10" in="SourceAlpha"/><feGaussianBlur stdDeviation="18"/><feColorMatrix values="0 0 0 0 0.295610614   0 0 0 0 0.239611329   0 0 0 0 0.654664855  0 0 0 0.206129808 0"/></filter></defs><g fill="none" fill-rule="evenodd"><use fill="url(#A)" xlink:href="#B"/><circle fill="url(#C)" opacity=".212" cx="457.868" cy="282.005" r="20.812"/><circle fill="url(#D)" opacity=".503" cx="152.97" cy="108.223" r="20.812"/><g fill-rule="nonzero"><g transform="translate(235.178 131.117)"><use fill="#000" filter="url(#H)" xlink:href="#G"/><use fill="url(#F)" xlink:href="#G"/><path d="M69.721 109.264c-6.656 0-12.927-1.595-18.431-4.501-12.555-6.63-21.113-19.823-21.113-35.016 0-21.854 17.704-39.569 39.543-39.569s39.543 17.716 39.543 39.569c0 16.56-10.167 30.745-24.596 36.644-4.611 1.885-9.658 2.874-14.947 2.874z" fill="#ada3ff"/><path d="M44.746 100.425c3.275-10.532 13.505-18.216 25.616-18.216 11.827 0 21.86 7.328 25.374 17.481-6.832 5.946-15.935 9.575-25.93 9.575-9.576 0-18.334-3.331-25.06-8.839zm25.495-22.379c-8.33 0-15.089-6.525-15.089-14.569s6.758-14.569 15.089-14.569S85.33 55.434 85.33 63.477s-6.758 14.569-15.089 14.569z" fill="#fff" opacity=".799"/></g><g transform="matrix(-1 0 0 -1 455.786802 324.67005)"><circle fill="#12ebf3" opacity=".749" cx="275.241" cy="116.028" r="8.845"/><ellipse fill="#cce948" opacity=".866" cx="54.112" cy="203.959" rx="5.203" ry="5.723"/><path fill="#ad3bf4" opacity=".994" d="M21.137 112.386l5.918 24.975L0 132.527z"/><path fill="#0ff073" d="M196.675 4.325L217.487 0l-4.028 19.772z"/><path fill-opacity=".675" fill="#430ff1" opacity=".9" d="M204.435 223.464l-16.936 16.575-9.02-23.717z"/></g></g></g></svg>