<svg xmlns="http://www.w3.org/2000/svg" xmlns:xlink="http://www.w3.org/1999/xlink" width="620" height="410" xmlns:v="https://vecta.io/nano"><defs><linearGradient x1="98.2376512%" y1="28.0755596%" x2="8.47575699%" y2="95.8557407%" id="A"><stop stop-color="#b05cba" offset="0%"/><stop stop-color="#ed639e" offset="100%"/></linearGradient><linearGradient x1="61.3999722%" y1="135.889388%" x2="61.3999722%" y2="22.2646496%" id="B"><stop stop-color="#ffd3a5" stop-opacity="0" offset="0%"/><stop stop-color="#ff7491" offset="100%"/></linearGradient><linearGradient x1="50%" y1="0%" x2="50%" y2="100%" id="C"><stop stop-color="#d7d1f5" offset="0%"/><stop stop-color="#d360aa" offset="100%"/></linearGradient><linearGradient x1="50%" y1="0%" x2="50%" y2="100%" id="D"><stop stop-color="#d7d1f5" offset="0%"/><stop stop-color="#fff" offset="100%"/></linearGradient><linearGradient x1="50%" y1="0%" x2="50%" y2="100%" id="E"><stop stop-color="#febadb" offset="0%"/><stop stop-color="#ff64cf" offset="100%"/></linearGradient><linearGradient x1="0%" y1="0%" x2="100%" y2="100%" id="F"><stop stop-color="#a1f6ff" offset="0%"/><stop stop-color="#00aec1" offset="100%"/></linearGradient><linearGradient x1="50%" y1="0%" x2="50%" y2="100%" id="G"><stop stop-color="#fff2a8" offset="0%"/><stop stop-color="#fccc7c" offset="100%"/></linearGradient><linearGradient x1="4.31476358%" y1="57.5808489%" x2="100%" y2="45.3954383%" id="H"><stop stop-color="#d060ab" offset="0%"/><stop stop-color="#fff" offset="100%"/></linearGradient><path d="M30.015 52.697c12.448 0 22.538-10.09 22.538-22.538S42.463 7.621 30.015 7.621 7.477 17.713 7.477 30.159s10.092 22.538 22.538 22.538m0 7.284C13.571 59.982.192 46.603.192 30.159S13.571.337 30.015.337s29.822 13.378 29.822 29.822-13.378 29.822-29.822 29.822z" id="I"/><filter x="-102.3%" y="-98.9%" width="304.5%" height="304.5%" id="J"><feOffset dy="2" in="SourceAlpha"/><feGaussianBlur stdDeviation="20"/><feColorMatrix values="0 0 0 0 0   0 0 0 0 0   0 0 0 0 0  0 0 0 0.5 0"/></filter><path d="M53.4 30.862C53.4 43.31 43.31 53.4 30.862 53.4S8.325 43.31 8.325 30.862 18.415 8.325 30.862 8.325A22.54 22.54 0 0 1 53.4 30.862z" id="K"/><linearGradient x1="50%" y1="0%" x2="50%" y2="100%" id="L"><stop stop-color="#ffba67" offset="0%"/><stop stop-color="#ff635e" offset="100%"/></linearGradient><linearGradient x1="50%" y1="0%" x2="50%" y2="100%" id="M"><stop stop-color="#fedb4d" offset="0%"/><stop stop-color="#ffb84e" offset="100%"/></linearGradient></defs><g fill="none" fill-rule="evenodd"><path fill="url(#A)" fill-rule="nonzero" d="M0 0h619.162v410H0z"/><g transform="translate(151.929 79.086)"><g fill-rule="nonzero"><path d="M109.139 207.332v44.693H90.717v-44.693h18.422zm53.806-19.606v64.299h-18.422v-64.299h18.422zm26.903-4.386v68.685h-18.422V183.34h18.422zm27.979-5.934v74.619h-18.422v-74.619h18.422zm26.903 3.612v71.007h-18.422v-71.007h18.422zm26.903-21.118v92.125H253.21V159.9h18.422zm26.903-17.056v109.181h-18.422V142.844h18.422zM81.16 216.361v35.663H62.738v-35.663H81.16zm54.882-18.575v54.238H117.62v-54.238h18.422z" fill="url(#B)"/><g transform="translate(40.187 143.05)"><path d="M4.93 93.771c-.167 0-.315-.108-.367-.267s.004-.333.139-.432l.937-.684c.111-.091.263-.113.395-.057s.223.18.235.323-.055.281-.175.359l-.937.683c-.066.049-.146.076-.228.076z" fill="url(#C)"/><path d="M9.012 90.8c-.167 0-.315-.108-.367-.267s.004-.333.139-.432l1.885-1.373c.172-.112.402-.069.523.097s.092.398-.067.528L9.24 90.726a.39.39 0 0 1-.228.075h0zm5.027-3.659c-.168 0-.317-.108-.369-.267s.005-.334.141-.433l1.886-1.372c.111-.093.264-.116.398-.061s.225.181.237.325-.057.283-.18.36l-1.886 1.373c-.066.049-.146.075-.228.075h.001zm5.027-3.659c-.167 0-.315-.108-.367-.267s.004-.333.139-.432l1.886-1.373c.172-.112.402-.069.523.097s.092.398-.067.528l-1.886 1.373c-.066.049-.147.075-.229.075h.001zm5.027-3.659c-.168 0-.317-.108-.369-.267s.005-.334.141-.433l1.885-1.373c.111-.091.263-.113.395-.057s.223.18.235.323-.055.281-.175.359l-1.885 1.373a.39.39 0 0 1-.229.075l.001.001zm5.027-3.66c-.167 0-.315-.108-.367-.267s.004-.333.139-.432l1.886-1.373c.172-.108.399-.065.519.1s.092.394-.064.525l-1.886 1.372a.38.38 0 0 1-.228.075l.001.001zm5.027-3.659c-.168 0-.317-.108-.369-.267s.005-.334.141-.433l1.886-1.373c.111-.091.263-.113.395-.057s.223.18.235.323-.055.281-.175.359l-1.891 1.374a.39.39 0 0 1-.224.074l.001.001zm5.027-3.66c-.167 0-.315-.108-.367-.267s.004-.333.139-.432l1.886-1.373c.172-.112.402-.069.523.097s.092.398-.067.528l-1.886 1.373c-.067.049-.147.075-.23.074l.002.001zm5.027-3.66c-.167 0-.315-.108-.367-.267s.004-.333.139-.432l1.886-1.373c.172-.108.399-.065.519.1s.092.394-.064.525l-1.886 1.373c-.066.048-.146.074-.228.074l.001.001zm5.027-3.659c-.167 0-.315-.108-.367-.267s.004-.333.139-.432l1.886-1.373c.172-.112.402-.069.523.097s.092.398-.067.528l-1.886 1.372c-.067.049-.147.075-.23.074l.002.002zm5.027-3.659c-.167 0-.315-.108-.367-.267s.004-.333.139-.432l1.886-1.373c.111-.091.263-.113.395-.057s.223.18.235.323-.055.281-.175.359l-1.886 1.374a.39.39 0 0 1-.23.072l.002.002zm5.027-3.659c-.167 0-.315-.108-.367-.267s.004-.333.139-.432l1.886-1.373c.172-.112.402-.069.523.097s.092.398-.067.528l-1.886 1.373c-.067.048-.148.073-.23.072l.002.003zm5.027-3.66c-.167 0-.315-.108-.367-.267s.004-.333.139-.432l1.886-1.372c.172-.108.399-.065.519.1s.092.394-.064.525l-1.885 1.373a.39.39 0 0 1-.23.071l.002.003zm5.027-3.659c-.167 0-.315-.108-.367-.267s.004-.333.139-.432l1.886-1.373c.172-.112.402-.069.523.097s.092.398-.067.528l-1.886 1.373c-.067.049-.148.074-.231.073l.003.002zm5.027-3.66c-.167 0-.315-.108-.367-.267s.004-.333.139-.432l1.886-1.373c.111-.091.263-.113.395-.057s.223.18.235.323-.055.281-.175.359l-1.886 1.374a.39.39 0 0 1-.231.071l.003.003zm5.027-3.659c-.167 0-.315-.108-.367-.267s.004-.333.139-.432l1.885-1.373c.172-.112.402-.069.523.097s.092.398-.067.528l-1.885 1.372c-.067.048-.147.074-.23.073l.002.003zm5.027-3.66c-.167 0-.315-.108-.367-.267s.004-.333.139-.432l1.886-1.373c.111-.093.264-.116.398-.061s.225.181.237.325-.057.283-.18.36l-1.885 1.373a.39.39 0 0 1-.231.072l.003.003z" fill="url(#D)"/><path d="M89.445 32.251c-.167 0-.315-.108-.367-.267s.004-.333.139-.432l.937-.684a.39.39 0 0 1 .325-.061l1.125.29c.201.059.319.266.266.468s-.256.327-.46.281l-.947-.245-.791.575c-.066.048-.145.074-.227.074h0z" fill="url(#C)"/><path d="M175.802 53.612a.32.32 0 0 1-.065-.006l-2.2-.568c-.207-.053-.332-.265-.278-.472s.265-.332.472-.278l2.136.552c.135 0 .26.069.33.184.055.083.073.184.051.281s-.083.18-.169.231-.181.073-.278.077zm-5.931-1.534c-.033 0-.065-.004-.097-.012l-2.26-.584c-.201-.059-.319-.266-.266-.468s.256-.327.46-.281l2.26.584c.188.049.311.23.286.423s-.189.338-.383.338h0zm9.398-.427c-.176.001-.33-.117-.376-.287s.03-.349.183-.436l2.025-1.161c.12-.074.271-.077.394-.008s.198.201.196.342-.081.27-.206.337l-2.025 1.161c-.06.034-.127.052-.196.051h.003zm-15.425-1.129c-.033 0-.065-.004-.097-.011l-2.26-.584c-.207-.053-.332-.265-.278-.472s.265-.332.472-.278l2.26.584c.188.049.311.23.286.423s-.189.338-.383.338h0zm-6.027-1.556c-.033 0-.065-.004-.097-.011l-2.26-.584c-.207-.053-.332-.265-.278-.472s.265-.332.472-.278l2.261.584c.188.049.311.23.286.423s-.189.338-.383.338h-.001zm26.853-.411c-.175-.001-.328-.118-.373-.287s.029-.347.18-.435l2.025-1.161c.12-.074.271-.077.394-.008s.198.201.196.342-.081.27-.206.337l-2.025 1.161c-.06.034-.127.052-.196.051h.003zm-32.883-1.145c-.033 0-.065-.004-.097-.012l-2.261-.583c-.207-.053-.332-.265-.278-.472s.265-.332.472-.278l2.261.583c.19.047.315.23.291.424s-.191.34-.387.338h0zm-6.028-1.556c-.033 0-.065-.004-.097-.012l-2.26-.583c-.138-.031-.248-.135-.287-.27s-.001-.282.099-.382.246-.137.382-.097l2.26.583c.188.049.311.23.286.423s-.189.338-.383.338h0zm44.31-.395c-.175-.001-.328-.118-.373-.287s.029-.347.18-.435l2.025-1.161c.12-.074.271-.077.394-.008s.198.201.196.342-.081.27-.206.337l-2.025 1.161c-.059.034-.125.051-.193.051h0zm-50.338-1.16c-.033 0-.065-.004-.097-.012l-2.26-.582c-.134-.035-.239-.138-.276-.271s0-.276.097-.375.239-.138.373-.104l2.26.583c.188.049.311.23.286.423s-.189.338-.383.338zm-6.027-1.556c-.033 0-.065-.004-.097-.011l-2.26-.584c-.207-.053-.332-.265-.278-.472s.265-.332.472-.278l2.26.584c.188.049.311.23.286.423s-.189.338-.383.338h0zm61.766-.38c-.175-.001-.328-.118-.373-.287s.029-.347.18-.435l2.025-1.161c.185-.107.422-.043.529.143s.043.422-.143.529l-2.026 1.161c-.059.034-.126.051-.194.051h.001zm-67.794-1.175a.39.39 0 0 1-.098-.012l-2.26-.584c-.207-.053-.332-.265-.278-.472s.265-.332.472-.278l2.26.584c.19.047.315.229.291.424s-.19.34-.386.339h0zm-6.027-1.556a.38.38 0 0 1-.098-.012l-2.26-.584c-.138-.031-.248-.135-.287-.27s-.001-.282.099-.382.246-.137.382-.097l2.26.584c.188.049.311.23.287.423s-.188.338-.382.339h0zm79.223-.365c-.175-.001-.328-.118-.373-.287s.029-.347.18-.435l2.025-1.161c.12-.074.271-.077.394-.008s.198.201.196.342-.081.27-.206.337l-2.025 1.161c-.059.034-.126.051-.194.051h.001zm-85.251-1.19a.38.38 0 0 1-.097-.012l-2.261-.583c-.207-.053-.332-.265-.278-.472s.265-.332.472-.278l2.26.584c.188.049.311.23.286.423s-.189.338-.383.338h.001zm-6.027-1.556c-.033 0-.066-.004-.098-.011l-2.26-.584c-.134-.035-.239-.138-.276-.271s0-.276.097-.375.239-.138.373-.104l2.26.584c.188.049.311.23.287.423s-.188.338-.382.339h0zm96.679-.35c-.175-.001-.328-.118-.373-.287s.029-.347.18-.435l2.025-1.161c.185-.107.422-.043.529.143s.043.422-.143.529l-2.025 1.161a.39.39 0 0 1-.195.051h.001zm-102.708-1.205c-.033 0-.066-.004-.098-.012l-2.26-.584c-.207-.053-.332-.265-.278-.472s.265-.332.472-.278l2.26.584c.19.047.315.229.291.424s-.19.34-.386.339zm-6.028-1.556c-.033 0-.065-.004-.097-.012l-2.261-.584c-.138-.031-.248-.135-.287-.27s-.001-.282.099-.382.246-.137.382-.097l2.261.583c.19.047.315.23.291.424s-.191.34-.387.338h0zm114.135-.335c-.175-.001-.328-.118-.373-.287s.029-.347.18-.435l2.025-1.161c.12-.074.271-.077.394-.008s.198.201.196.342-.081.27-.206.337l-2.025 1.161c-.058.033-.124.051-.191.051h-.001zm5.401-3.096c-.175-.001-.328-.118-.373-.287s.029-.347.18-.435l2.026-1.161c.184-.098.413-.032.517.149s.045.412-.132.522l-2.026 1.161c-.058.033-.124.051-.191.051h-.001zm5.402-3.096c-.175-.001-.328-.118-.373-.287s.029-.347.18-.435l2.025-1.161c.12-.074.271-.077.394-.008s.198.201.196.342-.081.27-.206.337l-2.025 1.161c-.059.034-.125.051-.193.051h0zm5.401-3.096c-.175-.001-.328-.118-.373-.287s.029-.347.18-.435l2.025-1.161c.12-.069.267-.069.387.001s.193.197.193.336-.074.266-.194.335l-2.022 1.161c-.06.034-.128.052-.197.051h0zm5.402-3.096c-.175-.001-.328-.118-.373-.287s.029-.347.18-.435l2.025-1.161c.12-.074.271-.077.394-.008s.198.201.196.342-.081.27-.206.337l-2.025 1.161c-.059.034-.126.051-.195.051h.002zm5.401-3.096c-.175-.001-.328-.118-.373-.287s.029-.347.18-.435l2.025-1.161c.184-.098.413-.032.517.149s.045.412-.132.522l-2.025 1.161c-.059.034-.125.051-.193.051h0zm5.401-3.096c-.175-.001-.328-.118-.373-.287s.029-.347.18-.435l2.025-1.161c.12-.074.271-.077.394-.008s.198.201.196.342-.081.27-.206.337l-2.025 1.161c-.059.033-.125.051-.193.051h0zm5.401-3.096c-.175-.001-.328-.118-.373-.287s.029-.347.18-.435l2.026-1.161c.184-.098.413-.032.517.149s.045.412-.132.522l-2.026 1.161c-.059.033-.125.051-.193.051h0zm5.402-3.096c-.176.001-.33-.117-.376-.287s.03-.349.183-.436l2.025-1.161c.12-.074.271-.077.394-.008s.198.201.196.342-.081.27-.206.337l-2.025 1.161c-.059.034-.126.051-.194.051h.001z" fill="url(#D)"/><path d="M260.279 5.216c-.175-.001-.328-.118-.373-.287s.029-.347.18-.435l1.007-.578c.12-.074.271-.077.394-.008s.198.201.196.342-.081.27-.206.337l-1.007.578c-.059.034-.125.051-.193.051h0z" fill="url(#C)"/><path d="M9.863 93.384c-.001 2.723-2.209 4.931-4.932 4.93S0 96.106 0 93.383s2.208-4.931 4.931-4.931a4.93 4.93 0 0 1 4.931 4.932h0z" fill="url(#E)"/><circle fill="url(#F)" cx="90.383" cy="31.181" r="4.252"/><circle fill="url(#G)" cx="175.835" cy="53.232" r="4.252"/><circle fill="url(#E)" cx="261.287" cy="4.252" r="4.252"/></g><path d="M314.341 40.815l-3.454 50.053-7.74-.535 2.446-35.444-73.771 71.536-73.382-44.717-64.819 43.213-46.579-22.722-42.785 34.007L0 130.849l46.164-36.694 46.931 22.893 65.182-43.455 72.584 44.231 68.88-66.791-38.626 6.223-1.235-7.66 54.462-8.782z" fill="url(#H)"/><path d="M266.076 204.539l-65.871-63.086c-32.925 24.781-79.397 19.939-106.506-11.099S68.045 52.616 97.03 23.324s75.669-31.237 106.99-4.456 36.652 73.199 12.219 106.383l65.963 63.169c4.45 4.454 4.447 11.672-.007 16.122s-11.672 4.447-16.122-.007l.004.004zM94.001 78.625c-.019 23.8 14.302 45.267 36.285 54.388s47.295 4.099 64.131-12.723 21.878-42.131 12.774-64.121-30.559-36.328-54.359-36.328a58.81 58.81 0 0 0-58.831 58.786v-.002z" fill="url(#E)"/></g><g transform="translate(124.035 47.503)"><g transform="translate(.844 .708)" fill-rule="nonzero"><path d="M30.015 56.339a26.02 26.02 0 0 1-10.191-2.059 26.09 26.09 0 0 1-8.321-5.609c-2.403-2.403-4.291-5.203-5.61-8.32a26.02 26.02 0 0 1-2.059-10.192c0-3.532.693-6.961 2.059-10.191a26.09 26.09 0 0 1 5.609-8.32 26.09 26.09 0 0 1 8.32-5.609c3.23-1.366 6.659-2.059 10.191-2.059s6.962.693 10.192 2.059a26.09 26.09 0 0 1 8.32 5.61 26.09 26.09 0 0 1 5.609 8.321c1.366 3.23 2.059 6.659 2.059 10.191a26.02 26.02 0 0 1-2.059 10.192c-1.319 3.118-3.206 5.917-5.609 8.321s-5.203 4.29-8.321 5.609a26.02 26.02 0 0 1-10.192 2.059z" fill="url(#F)"/><use fill="#000" filter="url(#J)" xlink:href="#I"/><use fill="#fff" xlink:href="#I"/></g><mask id="N" fill="#fff"><use xlink:href="#K"/></mask><g mask="url(#N)"><g transform="translate(14.57 5.203)" fill-rule="nonzero"><path fill="url(#L)" d="M0 4.06l15.838 21.523V0z" transform="translate(.457 .077)"/><path fill="url(#M)" d="M29.239 23.147L-.002 25.583V0l15.431 2.03z" transform="translate(16.295 .077)"/></g></g></g></g></g></svg>