<svg xmlns="http://www.w3.org/2000/svg" xmlns:xlink="http://www.w3.org/1999/xlink" width="620" height="411" xmlns:v="https://vecta.io/nano"><style><![CDATA[.B{fill-rule:nonzero}]]></style><defs><linearGradient x1="50%" y1="-24.640316%" x2="50%" y2="100%" id="A"><stop stop-color="#d395ff" offset="0%"/><stop stop-color="#8f1ef7" offset="100%"/></linearGradient><linearGradient x1="-8.84659289%" y1="35.0604697%" x2="51.6648016%" y2="84.8190779%" id="B"><stop stop-color="#5923c6" offset="0%"/><stop stop-color="#982ff8" stop-opacity=".199" offset="100%"/></linearGradient><path d="M116.9 177.8c64.562 0 116.9 3.662 116.9-60.9S181.462 0 116.9 0 0 52.338 0 116.9s52.338 60.9 116.9 60.9z" id="C"/><linearGradient x1="10.5860686%" y1="-848.690504%" x2="10.5860686%" y2="100%" id="D"><stop stop-color="#ff6fd8" offset="0%"/><stop stop-color="#3813c2" offset="100%"/></linearGradient><linearGradient x1="50%" y1="0%" x2="50%" y2="100%" id="E"><stop stop-color="#fee5ac" offset="0%"/><stop stop-color="#ffb181" offset="100%"/></linearGradient><linearGradient x1="50%" y1="0%" x2="50%" y2="100%" id="F"><stop stop-color="#ffa8e6" offset="0%"/><stop stop-color="#e850ff" offset="100%"/></linearGradient><linearGradient x1="0%" y1="16.105507%" x2="142.1153%" y2="90.562347%" id="G"><stop stop-color="#ff4e73" offset="0%"/><stop stop-color="#ffd3a5" offset="100%"/></linearGradient><linearGradient x1="0%" y1="13.8388855%" x2="142.1153%" y2="93.2748668%" id="H"><stop stop-color="#ff4e73" offset="0%"/><stop stop-color="#ffd3a5" offset="100%"/></linearGradient><linearGradient x1="50%" y1="0%" x2="50%" y2="100%" id="I"><stop stop-color="#c1e3ff" offset="0%"/><stop stop-color="#6f88fc" offset="100%"/></linearGradient><linearGradient x1="29.4556393%" y1="71.3726451%" x2="41.9155724%" y2="39.8099504%" id="J"><stop stop-color="#00c592" offset="0%"/><stop stop-color="#e2ffe1" offset="100%"/></linearGradient><linearGradient x1="308.577595%" y1="-182.733168%" x2="10.5860686%" y2="100%" id="K"><stop stop-color="#ff6fd8" offset="0%"/><stop stop-color="#3813c2" offset="100%"/></linearGradient><linearGradient x1="50%" y1="0%" x2="50%" y2="100%" id="L"><stop stop-color="#338dff" offset="0%"/><stop stop-color="#4a2efd" offset="100%"/></linearGradient><path id="M" d="M26.608 21.633c1.181 0 2.085-.28 2.713-.839s.941-1.33.941-2.313c0-.585-.154-1.092-.463-1.521s-.724-.742-1.247-.941a2.63 2.63 0 0 0 1.137-.964c.277-.423.416-.923.416-1.497 0-.899-.311-1.633-.933-2.203s-1.544-.855-2.768-.855h0H21.7v11.133h4.908zm-.22-6.664h-2.462v-2.415h2.462c.47 0 .823.112 1.058.337s.353.515.353.87c0 .397-.123.698-.368.902s-.593.306-1.043.306h0zm.157 4.61h-2.619v-2.54h2.619c.47 0 .823.115 1.058.345s.353.538.353.925c0 .847-.47 1.27-1.411 1.27h0zm8.014 2.054V10.5H32.27v11.133h2.289zm6.493 0c1.85 0 3.29-.512 4.32-1.537s1.544-2.368 1.544-4.03-.515-3.005-1.544-4.03-2.47-1.537-4.32-1.537h0-3.998v11.133h3.998zm-.063-2.101h-1.646v-6.931h1.646c1.181 0 2.062.306 2.642.917s.87 1.461.87 2.548-.293 1.939-.878 2.556c-.575.606-1.453.909-2.634.909h0z"/></defs><g fill="none" fill-rule="evenodd"><path fill="url(#A)" d="M0 0h619.741v410.068H0z"/><g transform="translate(131 96)"><g transform="translate(15 42)"><g transform="translate(26.6)"><mask id="N" fill="#fff"><use xlink:href="#C"/></mask><use fill="url(#B)" opacity=".413" xlink:href="#C"/><g mask="url(#N)"><g transform="translate(80.5 143.5)"><path fill="url(#D)" d="M5.32 0h80.15l5.32 9.31H0z"/><path fill="url(#D)" d="M0 7.7h90.79V21H0z"/><path fill="#0052ff" d="M0 7.98h90.79v6.65H0z"/></g></g><g mask="url(#N)"><g transform="translate(-76.3 44.8)"><path d="M126.074 71.97l48.713-44.526h0l8.44 8.132-49.521 45.118c-2.317 2.111-5.906 1.944-8.017-.373l-.076-.086a5.92 5.92 0 0 1 .462-8.265z" fill="url(#E)" class="B"/><path fill="#ce87e5" opacity=".65" transform="matrix(.707107 .707107 -.707107 .707107 73.327975 -121.160522)" d="M177.662 14.619l11.707.141-1.197 26.489-11.706-.005z"/><path d="M0 18.129c8.127 20.389 20.37 34.079 36.729 41.069s39.822 8.105 70.391 3.343v18.011c-13.307 8.981-29.093 16.941-47.358 23.879S21.576 116.972 0 121.24V18.129z" fill="url(#F)"/><path fill="#fff" d="M107.119 63.868h3.057v15.447l-3.057 1.238z"/><path d="M160.25 15.229l6.608.052a1.33 1.33 0 0 1 1.145.671l.294.516c.211.371.683.5 1.054.288.121-.069.221-.169.29-.291l.324-.573a1.33 1.33 0 0 1 1.158-.675h26.145a1.33 1.33 0 0 1 1.139.644l.394.653a.67.67 0 0 0 1.194-.084l.17-.402a1.33 1.33 0 0 1 1.225-.811h8.061a1.33 1.33 0 0 1 1.33 1.33v18.62a1.33 1.33 0 0 1-1.329 1.33l-8.05-.008a1.33 1.33 0 0 1-1.215-.791l-.203-.457a.64.64 0 0 0-1.156-.023l-.258.525a1.33 1.33 0 0 1-1.194.743l-26.397-.022a1.33 1.33 0 0 1-1.171-.702l-.285-.531c-.194-.362-.645-.499-1.007-.305-.131.07-.237.177-.307.308l-.307.582a1.33 1.33 0 0 1-1.181.709l-6.485-.023a1.33 1.33 0 0 1-1.325-1.33V16.558a1.33 1.33 0 0 1 1.33-1.33z" fill="url(#E)" transform="matrix(.707107 .707107 -.707107 .707107 72.434693 -123.126455)" class="B"/><path d="M200.383 31.491a1 1 0 0 1 0 1.414l-8.485 8.485a1 1 0 1 1-1.414-1.414l8.485-8.485a1 1 0 0 1 1.414 0zM178.286 9.394a1 1 0 0 1 0 1.414l-8.485 8.485a1 1 0 0 1-1.414-1.414l8.485-8.485a1 1 0 0 1 1.414 0z" fill="#000" opacity=".524"/><path d="M110.176 63.868c5.619-3.164 9.4-5.577 11.342-7.238 6.852-5.859 6.852-8.833 11.779-10.123 3.85-1.008 11.26 3.958 15.211-1.026s7.09-2.79 6.225 0c-1.37 4.422-9.655 12.659-10.973 12.659-.882 0-3.249 6.446-6.561 9.583-4.757 4.505-10.893 6.207-12.552 6.207-1.876 0-6.7 1.795-14.47 5.384V63.868z" fill="url(#G)"/><path d="M136.621 76.722c4.947-.456 8.406-1.096 10.378-1.918s3.766-2.095 5.383-3.819l6.667-7.117c3.097-2.428 4.964-4.187 5.604-5.274 2.495-4.245 1.227-6.929 0-6.929-1.313 0-4.722.111-8.978 4.575-1.199 1.258-2.589 3.288-4.17 6.09-1.169 2.305-3.098 4.757-5.785 7.356s-5.72 4.945-9.099 7.038z" fill="url(#H)"/><path d="M77.99 65.387c2.005 16.847 5.348 25.649 10.028 26.406-6.157 3.316-12.981 6.593-20.471 9.831V65.387H77.99z" fill="#6f0372" opacity=".174"/></g></g></g><g transform="translate(182 77.7)"><g opacity=".619" transform="translate(42 28.7)"><path fill="#3813c2" d="M24.5 8.4h5.88v49.84H24.5z"/><rect fill="url(#I)" width="55.272" height="25.872" rx="4.48"/><path d="M21.286 17.306c.945 0 1.668-.224 2.17-.671s.753-1.064.753-1.85c0-.468-.123-.874-.37-1.217s-.579-.594-.997-.753c.385-.176.688-.433.909-.771s.332-.738.332-1.198c0-.719-.249-1.307-.746-1.762S22.102 8.4 21.123 8.4h0-3.763v8.906h3.926zm-.176-5.331h-1.969v-1.932h1.969c.376 0 .659.09.847.27a.92.92 0 0 1 .282.696c0 .318-.098.558-.295.721s-.475.245-.834.245h0zm.125 3.688h-2.095v-2.032h2.095c.376 0 .659.092.847.276s.282.431.282.74c0 .677-.376 1.016-1.129 1.016h0zm6.411 1.643V8.4h-1.831v8.906h1.831zm5.194 0c1.48 0 2.632-.41 3.456-1.229s1.236-1.894 1.236-3.224-.412-2.404-1.236-3.224S34.322 8.4 32.842 8.4h0-3.199v8.906h3.199zm-.05-1.681h-1.317v-5.544h1.317c.945 0 1.65.245 2.114.734s.696 1.169.696 2.038-.234 1.551-.702 2.045c-.46.485-1.162.728-2.107.728h0z" fill="#fff" class="B"/></g><g transform="translate(0 14.7)"><path fill="#6426dd" d="M30.8 9.8h7.35v62.3H30.8z"/><rect fill="url(#J)" width="69.09" height="32.34" rx="5.6"/><use xlink:href="#M" fill="#37ad83" class="B"/></g><g transform="translate(79.1)"><path fill="#5f22d7" d="M30.8 7.7h7.35v79.1H30.8z"/><g class="B"><rect fill="url(#E)" width="69.09" height="32.34" rx="5.6"/><use xlink:href="#M" fill="#fff"/></g></g></g><path d="M1.05 163.1h340.9a1.05 1.05 0 1 1 0 2.1H1.05a1.05 1.05 0 0 1 0-2.1z" fill="#811edc"/></g><g fill="url(#K)"><circle opacity=".092" cx="15" cy="57" r="15"/><circle opacity=".092" cx="282" cy="9" r="9"/></g><g class="B"><circle fill="#12f3d4" opacity=".778" cx="281.874" cy="73.151" r="8.857"/><circle fill="url(#L)" cx="91.21" cy="21.21" r="5.21"/><path fill="#f4aa3b" opacity=".994" d="M58.166 95.034l5.926 25.008L37 115.202z"/></g><path fill="url(#F)" transform="matrix(0 -1 1 0 169.478992 234.319328)" d="M207.467 22l4.331 20.84L192 38.807z"/></g></g></svg>