<svg xmlns="http://www.w3.org/2000/svg" xmlns:xlink="http://www.w3.org/1999/xlink" width="595" height="394" xmlns:v="https://vecta.io/nano"><defs><linearGradient x1="52.182207%" y1="0%" x2="52.182207%" y2="100%" id="A"><stop stop-color="#9279ff" offset="0%"/><stop stop-color="#7749f0" offset="100%"/></linearGradient><path id="B" d="M0 0h594.752v393.533H0z"/><linearGradient x1="153.730693%" y1="96.2950077%" x2="34.7454335%" y2="-47.8673094%" id="C"><stop stop-color="#d3d6d8" offset="0%"/><stop stop-color="#8f73fd" stop-opacity="0" offset="100%"/></linearGradient><linearGradient x1="55.7340982%" y1="5.67859595%" x2="55.7340982%" y2="242.669014%" id="D"><stop stop-color="#f8f6ff" offset="0%"/><stop stop-color="#7549e9" offset="100%"/></linearGradient><linearGradient x1="55.7340982%" y1="-184.994099%" x2="55.7340982%" y2="405.126648%" id="E"><stop stop-color="#f8f6ff" offset="0%"/><stop stop-color="#7549e9" offset="100%"/></linearGradient><linearGradient x1="0%" y1="5.4061372%" x2="67.4475161%" y2="76.0261941%" id="F"><stop stop-color="#c2e998" offset="0%"/><stop stop-color="#02cc87" offset="100%"/></linearGradient><rect id="G" x="102.128" y="60.574" width="25.532" height="22.079" rx="4.024"/><filter x="-103.8%" y="-129.1%" width="385.9%" height="430.6%" id="H"><feOffset dx="10" dy="8" in="SourceAlpha"/><feGaussianBlur stdDeviation="10.5"/><feColorMatrix values="0 0 0 0 0.0158549066   0 0 0 0 0.272361866   0 0 0 0 0.184743152  0 0 0 0.230332168 0"/></filter><rect id="I" x="67.518" y="90.579" width="25.532" height="22.079" rx="4.024"/><linearGradient x1="166.319222%" y1="-35.2787806%" x2="22.1569047%" y2="83.7064789%" id="J"><stop stop-color="#d3d6d8" offset="0%"/><stop stop-color="#8f73fd" stop-opacity="0" offset="100%"/></linearGradient><linearGradient x1="73.7453174%" y1="33.4796563%" x2="-152.78505%" y2="228.639741%" id="K"><stop stop-color="#3cc2ff" stop-opacity="0" offset="0%"/><stop stop-color="#3d69ff" offset="100%"/></linearGradient><path id="L" d="M119.4 68.805a1.11 1.11 0 0 0-1.529 0l-4.122 3.973-1.266-1.221a1.11 1.11 0 0 0-1.529 0c-.422.407-.422 1.066 0 1.473l2.03 1.958a1.1 1.1 0 0 0 .764.305c.286 0 .562-.11.764-.305l4.886-4.71c.422-.407.422-1.066 0-1.473z"/></defs><g fill="none" fill-rule="evenodd"><use fill="url(#A)" xlink:href="#B"/><circle fill="url(#C)" opacity=".441" cx="222" cy="258" r="20"/><g transform="translate(218 129)"><path d="M30.07 23.777l.001 3.651a12.77 12.77 0 0 0 12.766 12.766 12.77 12.77 0 0 0 12.762-12.46l.004-.306-.001-3.651h46.525l.001 3.651a12.77 12.77 0 0 0 12.46 12.762l.306.004a12.77 12.77 0 0 0 12.762-12.46l.004-.306-.001-3.651h26.667c3.134 0 5.674 2.54 5.674 5.674v101.876c0 3.134-2.54 5.674-5.674 5.674H5.674C2.54 137 0 134.46 0 131.326V29.451c0-3.134 2.54-5.674 5.674-5.674H30.07zm104.644 25.74H25.286c-2.155 0-3.914 1.694-4.019 3.823l-.005.201v65.018c0 2.155 1.694 3.914 3.823 4.019l.201.005h109.427c2.155 0 3.914-1.694 4.019-3.823l.005-.201V53.54c0-2.222-1.802-4.024-4.024-4.024zM42.837 0a9.93 9.93 0 0 1 9.929 9.929v16.939a9.93 9.93 0 0 1-9.929 9.929 9.93 9.93 0 0 1-9.929-9.929V9.929A9.93 9.93 0 0 1 42.837 0zm72.057 0a9.93 9.93 0 0 1 9.929 9.929v16.939a9.93 9.93 0 0 1-9.929 9.929 9.93 9.93 0 0 1-9.929-9.929V9.929A9.93 9.93 0 0 1 114.894 0z" fill="url(#D)"/><g fill="url(#E)"><rect x="32.908" y="60.574" width="25.532" height="22.079" rx="4.024"/><rect x="67.518" y="60.574" width="25.532" height="22.079" rx="4.024"/></g><use fill="#000" filter="url(#H)" xlink:href="#G"/><use fill="url(#F)" xlink:href="#G"/><use xlink:href="#L" fill="#fff"/><rect fill="url(#E)" x="32.908" y="90.579" width="25.532" height="22.079" rx="4.024"/><use fill="#000" filter="url(#H)" xlink:href="#I"/><use fill="url(#F)" xlink:href="#I"/><use xlink:href="#L" x="-34.61" y="30.005" fill="#fff"/><rect fill="url(#E)" x="102.128" y="90.579" width="25.532" height="22.079" rx="4.024"/></g><circle fill="url(#J)" opacity=".696" cx="123" cy="92" r="20"/><circle fill="url(#K)" transform="matrix(-.898794 -.438371 .438371 -.898794 616.507285 318.331922)" cx="345" cy="88" r="10"/><g transform="matrix(0 1 -1 0 424 72)" fill-rule="nonzero"><circle fill="#f3d012" opacity=".778" cx="231" cy="85" r="8.5"/><ellipse fill="#fb4aff" opacity=".866" cx="50.5" cy="219" rx="5" ry="5.5"/><path fill="#693bf4" opacity=".994" d="M20.313 106L26 130l-26-4.645z"/><path fill="#59b6a4" d="M110 4.156L130 0l-3.871 19z"/><path fill-opacity=".675" fill="#0ff1ef" opacity=".9" d="M160.522 231.245L142.891 248.5l-9.39-24.69z"/></g></g></svg>