<svg xmlns="http://www.w3.org/2000/svg" xmlns:xlink="http://www.w3.org/1999/xlink" width="619" height="410" xmlns:v="https://vecta.io/nano"><defs><linearGradient x1="104.603111%" y1="25.491644%" x2="-5.56609929%" y2="72.6267237%" id="A"><stop stop-color="#757cfe" offset="0%"/><stop stop-color="#515af8" offset="100%"/></linearGradient><path id="B" d="M0 0h618.904v409.514H0z"/><linearGradient x1="73.7453174%" y1="33.4796563%" x2="-152.78505%" y2="228.639741%" id="C"><stop stop-color="#3cc2ff" stop-opacity="0" offset="0%"/><stop stop-color="#3d69ff" offset="100%"/></linearGradient><filter x="-18.5%" y="-216.2%" width="137.1%" height="532.4%" ><feOffset dy="2" in="SourceAlpha"/><feGaussianBlur stdDeviation="2.5"/><feColorMatrix values="0 0 0 0 0   0 0 0 0 0   0 0 0 0 0  0 0 0 0.09 0" result="C"/><feMerge><feMergeNode in="C"/><feMergeNode in="SourceGraphic"/></feMerge></filter><linearGradient x1="50%" y1="-10.1923804%" x2="50%" y2="100%" id="E"><stop stop-color="#c1e3ff" offset="0%"/><stop stop-color="#6f88fc" offset="100%"/></linearGradient><path d="M383.367 139.442c4.144-.006 7.325 1.424 9.172 5.268.65 1.352.801 2.807.801 4.286l.007 96.858-.011 16.026c-.023 6.077-3.561 9.693-9.617 9.697l-95.51.021c-17.184.002-34.368-.023-51.551.002-3.997.006-7.087-1.415-8.919-5.101-.64-1.289-.884-2.669-.884-4.089l-.002-113.412c0-3.998 1.621-7.021 5.321-8.781 1.588-.755 3.306-.766 5.013-.766l58.084-.001h14.83 0v.011l73.267-.019zm-145.494 35.741c-1.485-.002-1.978.272-1.973 1.893l.033 57.24-.007 26.594c-.004 1.101.109 1.717 1.478 1.68 3.47-.094 6.944-.062 10.416-.02.28.004.5-.028.681-.09h0 25.087c.331.079.823.08 1.555.08l17.468-.001h0l17.468-.003h0 10.41 0l12.528-.004 12.528.034c.405.002.741-.025 1.005-.106h0 25.103c.191.069.427.101.731.096 3.236-.048 6.48-.138 9.709.022 1.833.091 2.209-.51 2.205-2.246l-.047-82.777c0-2.236-.015-2.36-1.939-2.367H310.09c-24.072.007-48.144.02-72.216-.025zm30.191 47.954c2.127 0 3.851 1.72 3.851 3.842v18.918c0 2.122-1.724 3.842-3.851 3.842h-18.727c-2.127 0-3.851-1.72-3.851-3.842v-18.918c0-2.122 1.724-3.842 3.851-3.842h18.727zm34.555 0c2.127 0 3.851 1.72 3.851 3.842v18.918c0 2.122-1.724 3.842-3.851 3.842h-18.727c-2.127 0-3.851-1.72-3.851-3.842v-18.918c0-2.122 1.724-3.842 3.851-3.842h18.727zm34.555 0c2.127 0 3.851 1.72 3.851 3.842v18.918c0 2.122-1.724 3.842-3.851 3.842h-18.727c-2.127 0-3.851-1.72-3.851-3.842v-18.918c0-2.122 1.724-3.842 3.851-3.842h18.727zm34.555 0c2.127 0 3.851 1.72 3.851 3.842v18.918c0 2.122-1.724 3.842-3.851 3.842h-18.727c-2.127 0-3.851-1.72-3.851-3.842v-18.918c0-2.122 1.724-3.842 3.851-3.842h18.727zm-103.664-36.003c2.127 0 3.851 1.72 3.851 3.841v18.918c0 2.122-1.724 3.842-3.851 3.842h-18.727c-2.127 0-3.851-1.72-3.851-3.842v-18.918c0-2.122 1.724-3.841 3.851-3.841h18.727zm34.555 0c2.127 0 3.851 1.72 3.851 3.841v18.918c0 2.122-1.724 3.842-3.851 3.842h-18.727c-2.127 0-3.851-1.72-3.851-3.842v-18.918c0-2.122 1.724-3.841 3.851-3.841h18.727zm34.555 0c2.127 0 3.851 1.72 3.851 3.841v18.918c0 2.122-1.724 3.842-3.851 3.842h-18.727c-2.127 0-3.851-1.72-3.851-3.842v-18.918c0-2.122 1.724-3.841 3.851-3.841h18.727zm34.555 0c2.127 0 3.851 1.72 3.851 3.841v18.918c0 2.122-1.724 3.842-3.851 3.842h-18.727c-2.127 0-3.851-1.72-3.851-3.842v-18.918c0-2.122 1.724-3.841 3.851-3.841h18.727zm2.055-35.521c-3.153-.018-5.745 2.517-5.776 5.649-.032 3.228 2.563 5.835 5.787 5.812a5.69 5.69 0 0 0 5.678-5.733c-.007-3.161-2.539-5.711-5.689-5.729zm-37.49-.008c-3.136-.091-5.764 2.387-5.881 5.544-.119 3.186 2.267 5.752 5.494 5.908a5.76 5.76 0 0 0 5.993-5.426c.15-3.184-2.407-5.933-5.605-6.026zm18.687-.002a5.75 5.75 0 0 0-5.747 5.67c-.032 3.211 2.416 5.74 5.593 5.777 3.318.038 5.814-2.412 5.828-5.72.013-3.142-2.531-5.71-5.674-5.727z" id="F"/><filter x="-12.3%" y="-17.0%" width="124.6%" height="131.0%" id="G"><feOffset dy="-2" in="SourceAlpha"/><feGaussianBlur stdDeviation="6.5"/><feColorMatrix values="0 0 0 0 0   0 0 0 0 0   0 0 0 0 0  0 0 0 0.16911604 0"/></filter><circle id="H" cx="26.536" cy="26.536" r="26.536"/><filter x="-117.8%" y="-91.4%" width="335.5%" height="335.5%" id="I"><feOffset dy="14" in="SourceAlpha"/><feGaussianBlur stdDeviation="18.5"/><feColorMatrix values="0 0 0 0 0   0 0 0 0 0   0 0 0 0 0  0 0 0 0.108186141 0"/></filter><linearGradient x1="77.6761106%" y1="0%" x2="0%" y2="100%" id="J"><stop stop-color="#ff9137" offset="0%"/><stop stop-color="#fb435c" offset="100%"/></linearGradient><path d="M20.825 27.55c.02 3.153 2.592 5.71 5.721 5.688 3.109-.022 5.66-2.596 5.651-5.7a5.72 5.72 0 0 0-5.736-5.673c-3.077.015-5.656 2.616-5.636 5.685m-1.712 10.828l.392-2.461c.054-.308-.052-.503-.221-.773-.508-.814-1.194-.505-1.855-.415l-1.662.267c-.16.028-.249-.015-.338-.151-.904-1.384-1.519-2.888-1.881-4.499-.045-.2.005-.318.175-.438l2.131-1.547c.135-.097.207-.198.18-.365-.009-.058-.014-.121-.002-.177.154-.701-.175-1.119-.757-1.467-.565-.338-1.071-.772-1.609-1.156-.122-.087-.156-.17-.126-.319.342-1.66.991-3.19 1.911-4.611.123-.189.272-.115.417-.094l2.568.401c.185.031.293-.023.405-.154.134-.157.271-.32.436-.441.249-.181.294-.396.243-.685l-.4-2.449c-.031-.186.013-.299.184-.408 1.366-.874 2.838-1.488 4.421-1.841.213-.047.35-.026.491.176l1.545 2.132c.092.129.186.182.341.169s.321-.031.472-.001c.477.093.749-.132 1-.512l1.313-1.825c.108-.153.218-.192.393-.153 1.633.358 3.153.986 4.552 1.902.116.076.151.159.13.293l-.428 2.684a.38.38 0 0 0 .141.407c.156.135.329.267.44.436.2.306.459.29.765.237l2.421-.39c.191-.032.281.055.375.202.889 1.381 1.502 2.875 1.852 4.479.039.18-.008.283-.159.391l-2.13 1.549a.4.4 0 0 0-.198.388c.019.354-.093.764.052 1.048s.535.443.82.653l1.483 1.079c.135.095.171.196.138.349a13.54 13.54 0 0 1-1.893 4.557c-.089.136-.182.176-.341.15l-2.712-.437c-.122-.02-.203-.002-.285.091-.137.155-.269.324-.436.441-.329.231-.368.513-.296.886l.393 2.39c.022.134-.016.218-.131.294-1.407.925-2.939 1.55-4.581 1.91-.174.038-.268-.031-.364-.166l-1.566-2.154c-.091-.126-.184-.181-.341-.174-.364.016-.782-.095-1.078.05-.284.139-.444.534-.654.82l-1.063 1.458c-.107.153-.212.197-.392.158-1.605-.349-3.099-.961-4.477-1.855-.213-.138-.212-.139-.202-.333" id="K"/><filter x="-40.4%" y="-28.8%" width="180.7%" height="180.7%" id="L"><feOffset dy="3" in="SourceAlpha"/><feGaussianBlur stdDeviation="3"/><feColorMatrix values="0 0 0 0 0   0 0 0 0 0   0 0 0 0 0  0 0 0 0.128059441 0"/></filter><circle id="M" cx="30.698" cy="30.698" r="30.698"/><filter x="-161.2%" y="-127.0%" width="422.5%" height="422.5%" id="N"><feOffset dy="21" in="SourceAlpha"/><feGaussianBlur stdDeviation="29.5"/><feColorMatrix values="0 0 0 0 0   0 0 0 0 0   0 0 0 0 0  0 0 0 0.108186141 0"/></filter><linearGradient x1="-111.908004%" y1="209.896359%" x2="67.0494023%" y2="32.2543153%" id="O"><stop stop-color="#fff" offset="0%"/><stop stop-color="#02cc87" offset="100%"/></linearGradient><path d="M32.854 30.82l-5.431 5.618c-.219.228-.435.401-.769.399l-5.78-.004 8.763-9.606c.35-.385.561-.181.819.087l2.41 2.463c.404.391.365.657-.013 1.043m11.249-10.749c-.385-1.955-1.526-3.276-3.343-3.864-1.787-.578-3.419-.111-4.762 1.226l-4.764 4.932c-.403.427-.663.471-1.059-.003-.488-.585-1.062-1.092-1.579-1.652-.27-.293-.445-.38-.81-.06-1.459 1.277-1.475 1.257-.141 2.647.237.248.442.541.714.738.662.481.458.843-.025 1.335l-4.848 4.971c-1.28 1.357-2.76 2.494-3.94 3.956-.849 1.051-1.399 2.219-1.838 3.514l-.273.814-1.279 3.983c-.28.832-.309 1.597.301 2.274.627.697 1.397.628 2.18.366l3.772-1.276c1.198-.411 2.297-1.105 3.262-1.94.882-.763 1.586-1.68 2.475-2.417 1.149-.952 2.157-2.184 3.197-3.263l3.122-3.243c1.332-1.377 1.332-1.376 2.697.053l.798.817c.195.204.342.325.657.114 1.352-.902 1.436-1.512.306-2.671-.293-.3-.561-.633-.885-.89-.529-.42-.434-.719.012-1.165a230.43 230.43 0 0 0 4.695-4.84c1.168-1.237 1.703-2.718 1.36-4.456" id="P"/><filter x="-44.3%" y="-28.8%" width="188.5%" height="184.8%" id="Q"><feOffset dy="4" in="SourceAlpha"/><feGaussianBlur stdDeviation="3.5"/><feColorMatrix values="0 0 0 0 0   0 0 0 0 0   0 0 0 0 0  0 0 0 0.10585118 0"/></filter></defs><g fill="none" fill-rule="evenodd"><use fill="url(#A)" xlink:href="#B"/><g fill="url(#C)"><circle cx="231.015" cy="268.477" r="20.812"/><circle transform="matrix(.438371 -.898794 .898794 .438371 -16.763946 495.557865)" cx="388.147" cy="261.193" r="10.406"/><circle cx="127.995" cy="95.736" r="20.812"/><circle transform="matrix(-.898794 -.438371 .438371 -.898794 641.543113 331.259106)" cx="359.01" cy="91.574" r="10.406"/></g><use fill="#000" filter="url(#G)" xlink:href="#F"/><use fill="url(#E)" xlink:href="#F"/><g transform="translate(191.472 155.051)"><use fill="#000" filter="url(#I)" xlink:href="#H"/><use fill="#fff" xlink:href="#H"/><use fill="#000" filter="url(#L)" xlink:href="#K"/><use fill="url(#J)" xlink:href="#K"/></g><g transform="translate(359.01 109.264)"><use fill="#000" filter="url(#N)" xlink:href="#M"/><use fill="#fff" xlink:href="#M"/><use fill="#000" filter="url(#Q)" xlink:href="#P"/><use fill="url(#O)" xlink:href="#P"/></g><g fill-rule="nonzero"><circle fill="#f39c12" cx="423.007" cy="219.048" r="8.845"/><ellipse fill="#e9485e" opacity=".866" cx="236.218" cy="305.418" rx="5.203" ry="5.723"/><path fill="#f33bf4" opacity=".994" d="M180.35 210.203l5.918 24.975-27.056-4.834z"/><path fill="#9b59b6" d="M273.68 104.223l20.812-4.325-4.028 19.772z"/><path fill-opacity=".675" fill="#66f10f" opacity=".9" d="M324.693 311.549l-18.347 17.956-9.771-25.693z"/><circle fill="#651cf3" opacity=".024" cx="516.142" cy="67.64" r="13.528"/></g></g></svg>