<svg xmlns="http://www.w3.org/2000/svg" width="595" height="394" xmlns:v="https://vecta.io/nano"><defs><linearGradient x1="107.132137%" y1="13.997283%" x2="4.29293172%" y2="81.1028305%" id="A"><stop stop-color="#fb0" offset="0%"/><stop stop-color="#ff4a09" offset="100%"/></linearGradient><linearGradient x1="39.042013%" y1="-10.5148464%" x2="39.042013%" y2="95.0596822%" id="B"><stop stop-color="#fff" offset="0%"/><stop stop-color="#ffefea" stop-opacity=".868" offset="33.4698085%"/><stop stop-color="#ffbaa1" stop-opacity=".424" offset="100%"/></linearGradient><linearGradient x1="82.2075708%" y1="24.437421%" x2="33.2595113%" y2="73.1754698%" id="C"><stop stop-color="#f84040" offset="0%"/><stop stop-color="#ef6e6e" stop-opacity="0" offset="100%"/></linearGradient></defs><g fill="none" fill-rule="evenodd"><path fill="url(#A)" d="M0 0h594.752v393.533H0z"/><g transform="translate(178 74)"><path d="M172.324 142.681c20.775 0 37.676 16.894 37.676 37.66S193.099 218 172.324 218s-37.676-16.894-37.676-37.66 16.902-37.66 37.676-37.66zm12.487-52.004v43.186a48.05 48.05 0 0 0-12.486-1.645c-26.546 0-48.143 21.587-48.143 48.122 0 4.294.569 8.457 1.63 12.422h0-58.205A12.62 12.62 0 0 1 55 180.162h0V90.677h129.81zm-12.487 67.562c-2.818 0-5.103 2.284-5.103 5.1h0v17.001c0 2.817 2.285 5.1 5.103 5.1h0 15.989c2.818 0 5.103-2.283 5.103-5.1s-2.285-5.1-5.103-5.1h0-10.886v-11.901c0-2.817-2.285-5.1-5.103-5.1zM155.159 44c3.228 0 6.236 1.735 7.851 4.528h0l18.221 31.949h-56.076V44zm-40.209 0v36.477H58.761l18.036-31.939C78.412 45.739 81.423 44 84.655 44h0 30.295z" fill="url(#B)"/><g transform="matrix(-1 0 0 -1 264 249)" fill-rule="nonzero"><g fill="#fff"><circle opacity=".778" cx="254.874" cy="78.151" r="8.857"/><circle fill-opacity=".566" cx="61.899" cy="230.723" r="5.21"/></g><path fill="#fdff4a" opacity=".994" d="M15.625 107.042l4.375 18-20-3.484z"/><path fill="#4aff9a" d="M128.79 4.331L149.63 0l-4.034 19.798z"/><path fill="#ff152f" opacity=".9" d="M181.435 230.541l-18.372 17.98-9.785-25.728z"/></g></g><g fill="url(#C)"><circle opacity=".24" transform="matrix(-1 0 0 -1 914 522)" cx="457" cy="261" r="20"/><circle opacity=".281" cx="174" cy="122" r="20"/></g></g></svg>