<svg xmlns="http://www.w3.org/2000/svg" xmlns:xlink="http://www.w3.org/1999/xlink" width="620" height="411" xmlns:v="https://vecta.io/nano"><defs><linearGradient x1="50%" y1="-30.5819148%" x2="50%" y2="100%" id="A"><stop stop-color="#52fff6" offset="0%"/><stop stop-color="#00a59d" offset="100%"/></linearGradient><path id="B" d="M0 0h619.741v410.068H0z"/><linearGradient x1="60.4083691%" y1="0%" x2="18.5763648%" y2="100%" id="C"><stop stop-color="#52fff6" stop-opacity="0" offset="0%"/><stop stop-color="#00a59d" offset="100%"/></linearGradient><linearGradient x1="50%" y1="11.033377%" x2="50%" y2="132.718205%" id="D"><stop stop-color="#fffbfb" offset="0%"/><stop stop-color="#12c8bf" offset="100%"/></linearGradient><path d="M69.767 42.985l37.685 14.02v44.856l-37.685-14.02V42.985zm80.233 0v44.856l-37.685 14.02V57.005L150 42.985zm-40.116-19.961L150 38.045l-40.116 15.021-40.116-15.021 40.116-15.021z" id="E"/><filter x="-43.0%" y="-51.4%" width="186.0%" height="187.5%" id="F"><feOffset dy="-6" in="SourceAlpha"/><feGaussianBlur stdDeviation="10.5"/><feColorMatrix values="0 0 0 0 0   0 0 0 0 0   0 0 0 0 0  0 0 0 0.11994646 0"/></filter><path d="M0 25.766l48.401 18.12v57.974L0 83.74V25.766zm103.256 0V83.74l-48.401 18.12V43.886l48.401-18.12zM51.628 0l51.628 19.325-51.628 19.325L0 19.325 51.628 0z" id="G"/><filter x="-38.7%" y="-56.0%" width="177.5%" height="178.5%" id="H"><feOffset dy="-17" in="SourceAlpha"/><feGaussianBlur stdDeviation="10.5"/><feColorMatrix values="0 0 0 0 0   0 0 0 0 0   0 0 0 0 0  0 0 0 0.11994646 0"/></filter><circle id="I" cx="32" cy="32" r="32"/><filter x="-160.2%" y="-125.8%" width="420.3%" height="420.3%" id="J"><feOffset dy="22" in="SourceAlpha"/><feGaussianBlur stdDeviation="30.5"/><feColorMatrix values="0 0 0 0 0.527117301   0 0 0 0 0.0543790599   0 0 0 0 0.521683528  0 0 0 0.373743444 0"/></filter><linearGradient x1="50%" y1="0%" x2="50%" y2="100%" id="K"><stop stop-color="#d7cbff" offset="0%"/><stop stop-color="#5f58ff" offset="100%"/></linearGradient></defs><g fill="none" fill-rule="evenodd"><use fill="url(#A)" xlink:href="#B"/><g fill="url(#C)"><circle cx="213.84" cy="286.84" r="20.84"/><circle cx="127.84" cy="99.84" r="20.84"/></g><circle fill="#651cf3" fill-rule="nonzero" opacity=".024" cx="508" cy="82" r="13"/><g transform="translate(235 155)"><g opacity=".62"><use fill="#000" filter="url(#F)" xlink:href="#E"/><use fill="url(#D)" xlink:href="#E"/></g><use fill="#000" filter="url(#H)" xlink:href="#G"/><use fill="url(#D)" xlink:href="#G"/></g><g transform="matrix(0 -1 1 0 180.5 336.5)" fill-rule="nonzero"><circle fill="#b612f3" opacity=".778" cx="229.643" cy="91.357" r="8.857"/><circle fill="#b4ff4a" opacity=".938" cx="57.899" cy="230.723" r="5.21"/><path fill="#f4a43b" opacity=".994" d="M21.616 78.542l5.926 25.008L.45 98.71z"/><path fill="#d84aff" d="M124.79 4.331L145.63 0l-4.034 19.798z"/><path fill="red" d="M177.435 230.541l-18.372 17.98-9.785-25.728z"/></g><g transform="translate(287 225)"><use fill="#000" filter="url(#J)" xlink:href="#I"/><use fill="#fff" xlink:href="#I"/><path d="M29.392 24.242v-5.207c0-.572-.464-1.035-1.036-1.035-.293 0-.573.125-.769.343L18.265 28.7c-.341.38-.355.951-.032 1.346l9.322 11.393c.362.443 1.015.508 1.457.146.24-.196.379-.49.38-.799v-5.161c8.182.266 13.289 3.764 15.59 10.668.141.422.537.707.982.707.056 0 .112-.004.167-.013.501-.082.869-.515.869-1.022 0-12.197-7.342-21.157-17.608-21.722z" fill="url(#K)"/></g></g></svg>