<svg xmlns="http://www.w3.org/2000/svg" xmlns:xlink="http://www.w3.org/1999/xlink" width="620" height="411" xmlns:v="https://vecta.io/nano"><defs><linearGradient x1="41.3986023%" y1="7.15404007%" x2="41.7774447%" y2="71.9468185%" id="A"><stop stop-color="#c96eff" offset="0%"/><stop stop-color="#7e58ff" offset="100%"/></linearGradient><path id="B" d="M0 0h619.741v410.068H0z"/><linearGradient x1="50%" y1="-20.2851017%" x2="50%" y2="166.388798%" id="C"><stop stop-color="#fff" offset="0%"/><stop stop-color="#835aff" stop-opacity=".522" offset="100%"/></linearGradient><path d="M87.324 48.73l21.411.031c1.457.014 1.894-.391 1.882-1.869l.003-25.339c.013-1.528-.519-1.855-1.925-1.851a6639.28 6639.28 0 0 1-42.625-.005c-1.528-.005-2.016.423-2.003 1.986l-.01 24.946c-.022 1.817.602 2.155 2.249 2.136l21.018-.036M17.262.488c1.544 3.946 3.891 5.611 8.136 5.378 4.35-.239 8.378-1.43 11.106-5.571 1.651 4.618 5.325 5.574 9.446 5.426 4.036-.145 7.556-1.527 9.895-5.412 1.974 4.175 5.494 5.419 9.547 5.424 4.06.005 7.649-1.107 9.709-5.444 1.534 2.73 3.882 4.257 6.742 4.972 3.702.925 7.271.745 10.524-1.536.606-.425 1.19-.899 1.391-1.602.426-1.488.92-1.369 1.885-.348 3.518 3.719 8.036 4.467 12.816 3.798 2.238-.314 4.229-1.47 4.951-3.919.33-1.12.854-.789 1.325-.209 1.504 1.85 3.415 3.027 5.737 3.468 1.462.277 1.178 1.346 1.178 2.279l.008 34.378-.023 17.092c-.013 1.318.322 1.931 1.75 1.815 1.301-.106 2.62-.064 3.927-.007 1.842.079 2.937 1.109 3.079 2.907.077.976.096 1.972-.011 2.942-.193 1.732-1.21 2.697-2.979 2.793-.457.025-.917.01-1.375.01l-74.46.018c-1.143 0-1.975.028-1.968-1.586l.028-41.999c0-1.441-.066-2.885.017-4.321.074-1.281-.551-1.521-1.657-1.517-7.597.026-15.193.04-22.79-.015-1.386-.01-1.804.455-1.79 1.812l.024 16.699.044 28.684c.018 1.851-.563 2.296-2.327 2.264L3.86 69.115c-2.694-.008-3.636-.958-3.666-3.681-.012-1.104-.21-2.249.296-3.295.613-1.266 1.724-1.617 3.068-1.711 1.721-.121 4.015.876 5.003-.487.821-1.133.275-3.28.28-4.979l.106-44.201c.001-.393.012-.786-.006-1.178-.177-3.9-.163-3.862 3.357-5.368.945-.405 1.793-1.069 2.626-1.695.777-.584 1.475-1.274 2.338-2.032" id="D"/><filter x="-25.7%" y="-42.8%" width="151.4%" height="197.3%" id="E"><feOffset dy="4" in="SourceAlpha"/><feGaussianBlur stdDeviation="10.5"/><feColorMatrix values="0 0 0 0 0   0 0 0 0 0   0 0 0 0 0  0 0 0 0.11994646 0"/></filter><linearGradient x1="50%" y1="-32.3807931%" x2="50%" y2="362.40368%" id="F"><stop stop-color="#fff" offset="0%"/><stop stop-color="#7858ff" offset="100%"/></linearGradient><path d="M75.711 11.489l5.301.024 5.302-.012c.915-.023 1.401.24 1.641 1.217l7.327 28.904c1.003 4.002-1.599 6.487-4.648 7.231-3.498.853-6.914.489-10.108-1.198-2.392-1.264-3.864-3.172-4.09-6.029l-2.423-28.362c-.13-1.43.33-1.848 1.699-1.775zm-27.372-.011c3.462.106 6.929.061 10.393.02 1.069-.012 1.507.255 1.401 1.445l-2.399 27.739c-.431 4.82-2.746 7.269-7.661 8.259-1.02.206-2.07.266-2.654.337-1.969-.049-3.449-.183-4.877-.755-3.548-1.423-4.621-3.518-3.668-7.242l7.105-27.917c.346-1.39.883-1.931 2.359-1.886zm-27.836.015c1.764.062 3.532.017 5.299.017l5.299-.012c1.095-.029 1.635.163 1.094 1.423L19.302 42.816c-1.731 3.754-5.667 5.303-9.605 6.065-1.94.375-3.967.593-6.009-.028-3.586-1.09-4.623-3.35-2.822-6.582 2.786-4.999 5.705-9.92 8.646-14.827l3.534-5.886 5.249-8.859c.543-.933 1.182-1.243 2.206-1.207zm95.86 2.142c2.58 5.745 6.237 10.88 9.347 16.325l7.281 12.567c1.653 2.956.415 5.567-2.892 6.409-4.971 1.265-13.883-1.402-16.374-8.094-3.444-9.252-7.618-18.232-11.537-27.305-.654-1.515-.689-2.236 1.296-2.057 1.624.147 3.272.03 4.909.031 1.441.001 2.898.136 4.318-.033 1.853-.22 2.919.524 3.653 2.157zM116.141.001c3.909 0 5.91 3.514 4.012 7.054-.426.794-1.108 1.303-2.006 1.42-.71.092-1.434.113-2.151.113l-98.156.003-.787.004c-.262-.002-.523-.012-.782-.043-.448-.054-.916-.147-1.316-.343-1.493-.732-2.068-3.042-1.447-5.885C13.873.657 15.036-.001 16.674 0l13.349.005h0l13.349.001L66.897.003l49.244-.002z" id="G"/><filter x="-52.3%" y="-83.2%" width="204.7%" height="384.0%" id="H"><feOffset dy="29" in="SourceAlpha"/><feGaussianBlur stdDeviation="18.5"/><feColorMatrix values="0 0 0 0 0.541176471   0 0 0 0 0.360784314   0 0 0 0 1  0 0 0 0.367160184 0"/></filter><circle id="I" cx="382" cy="182" r="32"/><filter x="-160.2%" y="-125.8%" width="420.3%" height="420.3%" id="J"><feOffset dy="22" in="SourceAlpha"/><feGaussianBlur stdDeviation="30.5"/><feColorMatrix values="0 0 0 0 0.527117301   0 0 0 0 0.0543790599   0 0 0 0 0.521683528  0 0 0 0.373743444 0"/></filter><linearGradient x1="50%" y1="-45.6687008%" x2="50%" y2="100%" id="K"><stop stop-color="#88f3e2" offset="0%"/><stop stop-color="#11d5a9" offset="100%"/></linearGradient><linearGradient x1="158.211718%" y1="-143.774023%" x2="50%" y2="100%" id="L"><stop stop-color="#c96eff" stop-opacity="0" offset="0%"/><stop stop-color="#7e58ff" offset="100%"/></linearGradient><linearGradient x1="100%" y1="0%" x2="25.8985808%" y2="100%" id="M"><stop stop-color="#c96eff" stop-opacity="0" offset="0%"/><stop stop-color="#7e58ff" offset="100%"/></linearGradient></defs><g fill="none" fill-rule="evenodd"><use fill="url(#A)" xlink:href="#B"/><g transform="translate(249 135)"><g transform="translate(1.572 47.025)" opacity=".882"><use fill="#000" filter="url(#E)" xlink:href="#D"/><use fill="url(#C)" xlink:href="#D"/></g><use fill="#000" filter="url(#H)" xlink:href="#G"/><use fill="url(#F)" xlink:href="#G"/></g><use fill="#000" filter="url(#J)" xlink:href="#I"/><use fill="#fff" xlink:href="#I"/><path d="M388.528 183.826l2.96.759.264.073-1.789 1.795c-.115.115-.203.005-.293-.034-1.894-.827-4.083.112-4.733 2.074-.445 1.342-.155 2.557.823 3.583l1.875 1.877c-.103.072-.205.039-.299.039l-16.425.002c-1.028 0-1.58-.416-1.871-1.406-.007-.025-.027-.047-.041-.07v-.601l.383-2.088.542-2.507a2.68 2.68 0 0 1 1.943-2.024l5.195-1.375c.507-.143.81-.059 1.194.311 2.721 2.623 7.097 2.495 9.756-.258a.45.45 0 0 1 .515-.15zm8.071 5.963c.153.777.339 1.565.386 2.371.059 1.022-.722 1.826-1.746 1.833l-2.845.001 4.204-4.205zm.302-4.212c.211.655.083 1.26-.396 1.745l-5.314 5.314c-.682.673-1.723.652-2.415-.016a53.81 53.81 0 0 1-1.795-1.799c-.516-.548-.626-1.199-.338-1.898.268-.649.91-1.057 1.75-1.052.411.009.843.244 1.212.63.382.398.389.391.78 0l3.596-3.592c.96-.949 2.514-.59 2.92.668zM383.598 166l1.306.264c2.949.83 5.049 3.545 5.085 6.6.003.219.041.379.227.534.358.3.49.735.568 1.181.154.879.142 1.741-.298 2.551-.163.299-.364.566-.624.787-.154.131-.323.284-.519.282-.379-.005-.494.236-.608.52-.07.177-.15.357-.263.507-.436.579-.612 1.248-.709 1.947-.017.12-.057.228-.115.333-1 1.818-2.528 2.833-4.61 2.85-2.093.016-3.645-.98-4.666-2.8-.236-.421-.215-.916-.343-1.37-.035-.124-.065-.244-.139-.352-.305-.444-.553-.919-.775-1.409l-.036-.088c-.026-.057-.063-.102-.16-.098-.343.017-.613-.156-.848-.38-.811-.774-1.03-1.748-.928-2.823.031-.326.081-.65.195-.96.079-.216.157-.455.341-.581.324-.221.315-.521.328-.852.137-3.377 2.818-6.233 6.176-6.596.071-.008.14-.033.21-.049h1.203z" fill="url(#K)"/><circle fill="url(#L)" cx="218.84" cy="273.84" r="20.84"/><circle fill="url(#M)" cx="127.84" cy="99.84" r="20.84"/><g fill-rule="nonzero"><g transform="matrix(1 0 0 1 189 72)"><circle fill="#12f3d4" opacity=".778" cx="244.874" cy="78.151" r="8.857"/><circle fill="#c9ff4a" cx="51.899" cy="230.723" r="5.21"/><path fill="#f4aa3b" opacity=".994" d="M21.166 100.034l5.926 25.008L0 120.202z"/><path fill="#c2ff4a" d="M118.79 4.331L139.63 0l-4.034 19.798z"/><path fill="#15ff64" opacity=".9" d="M171.435 230.541l-18.372 17.98-9.785-25.728z"/></g><circle fill="#651cf3" opacity=".024" cx="508" cy="82" r="13"/></g></g></svg>