<svg xmlns="http://www.w3.org/2000/svg" xmlns:xlink="http://www.w3.org/1999/xlink" width="620" height="410" xmlns:v="https://vecta.io/nano"><defs><linearGradient x1="51.4030958%" y1="28.1092348%" x2="50%" y2="71.8907652%" id="A"><stop stop-color="#48e8b3" offset="0%"/><stop stop-color="#3ad59e" offset="100%"/></linearGradient><path id="B" d="M0 0h619.638v410H0z"/><linearGradient x1="51.1485411%" y1="0%" x2="51.1485411%" y2="187.813366%" id="C"><stop stop-color="#f8fcfa" offset="0%"/><stop stop-color="#e9fff7" stop-opacity=".917" offset="49.3123001%"/><stop stop-color="#bcffe7" stop-opacity="0" offset="100%"/></linearGradient><path d="M276.356 199.735l3.888 5.479c9.507 12.741 19.173 21.362 20.243 22.303a15.12 15.12 0 0 0 9.983 3.759c3.678 0 7.222-1.335 9.982-3.758.436-.383 2.292-2.036 4.981-4.718l.443-.444c3.903-3.926 9.387-9.861 14.82-17.142a141.93 141.93 0 0 0 3.888-5.479h0 33.919a6.29 6.29 0 0 1 6.051 4.555h0l.916 3.202 1.87 6.536 1.511 5.28a17.07 17.07 0 0 0 .237.758c.359 1.066.795 2.092 1.092 3.181h0l.835 3.054 2.031 7.429 1.529 5.591h0l9.419 32.931a6.27 6.27 0 0 1-1.027 5.504c-1.189 1.572-3.049 2.496-5.023 2.496h0-51.371l-.006.004-123.57-.005c-1.974 0-3.834-.924-5.023-2.496s-1.569-3.61-1.028-5.504h0l2.36-8.249-.076-.333 6.802-23.181 2.261-7.906.056.01c.073.013 1.141-3.889 1.219-4.155h0l.86-2.933c.086-.293.164-.587.239-.881l.428-1.769h0l.234-.883.648-2.264 1.633-5.708 2.777-9.708a6.29 6.29 0 0 1 6.051-4.555h0zm81.682 14.146c-3.307 0-5.998 1.578-5.998 3.517-.001 2.44 3.921 4.802 5.077 5.446.384 8.158.208 23.641-5.875 30.771-1.366-.425-2.92-.668-4.57-.668-4.774 0-8.753 2.015-9.61 4.669-4.536-.378-9.449-1.515-14.53-2.697-7.765-1.805-16.24-3.774-24.933-3.425-1.924-2.334-5.991-3.952-10.702-3.952-6.557 0-11.891 3.127-11.891 6.971 0 .236.025.471.06.706-9.646-.154-19.953-4.135-24.079-11.708-1.829-3.356-1.773-6.758.062-9.938 1.688 1.258 3.283 2.091 3.424 2.164.244.126.548.188.852.188s.609-.062.852-.188c.309-.159 7.556-3.945 7.556-7.871 0-2.718-3.772-4.929-8.409-4.929s-8.409 2.211-8.409 4.929c0 1.422.952 2.824 2.178 4.043-2.513 4.04-2.677 8.493-.328 12.805 4.1 7.525 15.424 13.385 27.362 13.146 2.671 4.184 9.214 7.605 9.562 7.784s.775.267 1.205.267.861-.089 1.205-.267c.436-.225 10.686-5.579 10.686-11.131 0-.176-.023-.35-.045-.524 8.035-.144 15.945 1.694 23.216 3.385 5.292 1.23 10.406 2.409 15.204 2.774 1.448 4.005 8.197 7.531 8.517 7.697.284.146.638.22.993.22s.708-.074.991-.22c.36-.185 8.795-4.591 8.795-9.161 0-1.572-1.085-2.997-2.838-4.034 6.327-8.224 6.451-24.02 6.025-32.21 1.561-.955 4.39-2.97 4.39-5.043 0-1.939-2.691-3.517-5.998-3.517zm-11.156 43.676c1.423 0 2.578.682 2.578 1.523s-1.155 1.523-2.578 1.523-2.578-.682-2.578-1.523 1.154-1.523 2.578-1.523zm-59.985-4.865c1.702 0 3.083.815 3.083 1.822s-1.38 1.821-3.083 1.821-3.083-.815-3.083-1.821 1.38-1.822 3.083-1.822zm-31.571-26.113c1.204 0 2.18.576 2.18 1.288s-.976 1.288-2.18 1.288-2.18-.577-2.18-1.288.976-1.288 2.18-1.288zm55.145-111.976c22.623 0 41.028 18.367 41.028 40.943 0 30.979-31.916 60.906-36.398 64.956l-.246.221-.225.2a6.29 6.29 0 0 1-4.159 1.566c-1.486 0-2.97-.523-4.159-1.566-1.506-1.323-36.871-32.767-36.869-65.377 0-22.576 18.405-40.943 41.029-40.943zm47.567 101.876c.859 0 1.555.411 1.555.919s-.696.918-1.555.918-1.555-.411-1.555-.918.696-.919 1.555-.919zm-47.567-71.63c-5.875 0-10.638 4.788-10.638 10.698s4.762 10.698 10.638 10.698 10.636-4.789 10.636-10.698-4.763-10.698-10.636-10.698z" id="D"/><filter x="-36.8%" y="-50.7%" width="173.6%" height="183.3%" id="E"><feOffset dy="-15" in="SourceAlpha"/><feGaussianBlur stdDeviation="20.5"/><feColorMatrix values="0 0 0 0 0.0401859007   0 0 0 0 0.406193388   0 0 0 0 0.276319763  0 0 0 0.151906687 0"/></filter><linearGradient x1="17.563392%" y1="100%" x2="77.8094909%" y2="21.985385%" id="F"><stop stop-color="#1ddc99" stop-opacity="0" offset="0%"/><stop stop-color="#5affc8" offset="100%"/></linearGradient></defs><g fill="none" fill-rule="evenodd"><use fill="url(#A)" xlink:href="#B"/><use fill="#000" filter="url(#E)" xlink:href="#D"/><use fill="url(#C)" xlink:href="#D"/><circle fill="url(#F)" opacity=".487" cx="209.411" cy="119.812" r="20.837"/><g fill-rule="nonzero"><circle fill="#b7f312" opacity=".749" cx="430.802" cy="183.365" r="8.856"/><ellipse fill="#ff5f4a" opacity=".518" cx="210.452" cy="319.325" rx="5.209" ry="5.73"/><path fill="#7384e6" opacity=".994" d="M187.857 192.741l5.925 25.004-27.088-4.84z"/><path fill="#19b363" d="M359.436 105.389l20.837-4.33-4.033 19.795z"/><path fill="#fe408e" opacity=".9" d="M384.464 319.734l-18.369 17.977-9.783-25.723z"/></g></g></svg>