<svg xmlns="http://www.w3.org/2000/svg" xmlns:xlink="http://www.w3.org/1999/xlink" width="1240" height="822" xmlns:v="https://vecta.io/nano"><defs><linearGradient x1="50%" y1="28.0279657%" x2="51.7553318%" y2="101.394212%" id="A"><stop stop-color="#8591ff" offset="0%"/><stop stop-color="#5600ff" offset="100%"/></linearGradient><linearGradient x1="50%" y1="0%" x2="50%" y2="100%" id="B"><stop stop-color="#fee5ac" offset="0%"/><stop stop-color="#ffb181" offset="100%"/></linearGradient><linearGradient x1="50%" y1="0%" x2="50%" y2="100%" id="C"><stop stop-color="#c1e3ff" offset="0%"/><stop stop-color="#6f88fc" offset="100%"/></linearGradient><ellipse id="D" cx="36.773" cy="36.852" rx="36.773" ry="36.852"/><filter x="-130.5%" y="-97.7%" width="361.1%" height="360.5%" id="E"><feOffset dy="24" in="SourceAlpha"/><feGaussianBlur stdDeviation="28"/><feColorMatrix values="0 0 0 0 0   0 0 0 0 0.124340032   0 0 0 0 0.359488225  0 0 0 0.248060533 0"/></filter><linearGradient x1="50%" y1="-8.07840109%" x2="50%" y2="100%" id="F"><stop stop-color="#a3a8ff" offset="0%"/><stop stop-color="#6870ff" offset="100%"/></linearGradient><linearGradient x1="50%" y1="4.47344783%" x2="50%" y2="109.38138%" id="G"><stop stop-color="#c7daff" offset="0%"/><stop stop-color="#455dfb" stop-opacity="0" offset="100%"/></linearGradient><linearGradient x1="50%" y1="0%" x2="50%" y2="100%" id="H"><stop stop-color="#3f39b0" offset="0%"/><stop stop-color="#251a8f" offset="100%"/></linearGradient><rect id="I" width="230.078" height="64.49" rx="13.8"/><filter x="-41.7%" y="-111.6%" width="183.4%" height="397.7%" id="J"><feOffset dy="24" in="SourceAlpha"/><feGaussianBlur stdDeviation="28"/><feColorMatrix values="0 0 0 0 0.0687604676   0 0 0 0 0   0 0 0 0 0.403136322  0 0 0 0.412751311 0"/></filter><ellipse id="K" cx="63.532" cy="63.669" rx="63.532" ry="63.669"/><filter x="-75.6%" y="-56.5%" width="251.1%" height="250.8%" id="L"><feOffset dy="24" in="SourceAlpha"/><feGaussianBlur stdDeviation="28"/><feColorMatrix values="0 0 0 0 0   0 0 0 0 0.124340032   0 0 0 0 0.359488225  0 0 0 0.248060533 0"/></filter><linearGradient x1="50%" y1="0%" x2="50%" y2="100%" id="M"><stop stop-color="#febadb" offset="0%"/><stop stop-color="#ff5de1" offset="100%"/></linearGradient><ellipse id="N" cx="52.861" cy="52.974" rx="52.861" ry="52.974"/><filter x="-90.8%" y="-68.0%" width="281.6%" height="281.2%" id="O"><feOffset dy="24" in="SourceAlpha"/><feGaussianBlur stdDeviation="28"/><feColorMatrix values="0 0 0 0 0   0 0 0 0 0.124340032   0 0 0 0 0.359488225  0 0 0 0.248060533 0"/></filter></defs><g fill="none" fill-rule="evenodd"><path fill="url(#A)" d="M0 0h1240v822H0z"/><g transform="translate(277.886 112)"><g transform="matrix(-1 0 0 1 623.545172 0)"><path fill="url(#B)" opacity=".272" d="M59.208 513.394l9.615 41.458-45.546-9.327z"/><path fill="#62d5d6" opacity=".272" d="M288.011 561.558l41.004 11.15L302.47 600z"/><path fill="url(#C)" opacity=".272" d="M395.023 9.128L443.176 0l-7.131 43.371z"/><g transform="translate(550 168)" fill-rule="nonzero"><use fill="#000" filter="url(#E)" xlink:href="#D"/><use fill="url(#B)" xlink:href="#D"/><path d="M44.046 35.716a5.35 5.35 0 0 1-2.054-.406 5.16 5.16 0 0 1-1.73-1.16c-.496-.503-.892-1.112-1.189-1.826s-.445-1.515-.445-2.402c0-.909.135-1.731.404-2.467s.647-1.358 1.132-1.866 1.059-.901 1.722-1.176S43.27 24 44.046 24s1.493.138 2.151.414a4.95 4.95 0 0 1 1.706 1.176c.48.508.854 1.13 1.124 1.866s.404 1.558.404 2.467c0 .887-.135 1.688-.404 2.402a5.34 5.34 0 0 1-1.124 1.826 4.91 4.91 0 0 1-1.706 1.16c-.658.27-1.375.406-2.151.406zm1.197 11.992c-.28 0-.52-.057-.72-.17s-.364-.257-.493-.43h0L26.661 24.243h2.895c.345 0 .615.065.809.195s.356.276.485.438h0l17.369 22.832h-2.976zM44.046 33.12c.323 0 .625-.054.906-.162a1.75 1.75 0 0 0 .728-.535c.205-.249.364-.576.477-.982s.17-.911.17-1.517c0-.627-.057-1.152-.17-1.574s-.272-.763-.477-1.022-.447-.446-.728-.56a2.39 2.39 0 0 0-.906-.17 2.45 2.45 0 0 0-.914.17c-.286.114-.534.3-.744.56s-.375.6-.493 1.022-.178.947-.178 1.574c0 .606.059 1.112.178 1.517s.283.733.493.982a1.8 1.8 0 0 0 .744.535 2.56 2.56 0 0 0 .914.162zM30.849 48a5.26 5.26 0 0 1-2.054-.414c-.658-.276-1.235-.665-1.73-1.168s-.892-1.112-1.189-1.826-.445-1.515-.445-2.402c0-.909.135-1.731.404-2.467s.647-1.358 1.132-1.866 1.059-.901 1.722-1.176 1.383-.414 2.159-.414 1.493.138 2.151.414a4.95 4.95 0 0 1 1.706 1.176c.48.508.854 1.13 1.124 1.866s.404 1.558.404 2.467c0 .887-.135 1.688-.404 2.402a5.34 5.34 0 0 1-1.124 1.826c-.48.503-1.049.892-1.706 1.168S31.626 48 30.849 48zm0-2.596c.323 0 .625-.054.906-.162s.52-.287.72-.535.358-.579.477-.99.178-.92.178-1.525c0-.627-.059-1.152-.178-1.574s-.278-.763-.477-1.022a1.71 1.71 0 0 0-.72-.56 2.39 2.39 0 0 0-.906-.17 2.45 2.45 0 0 0-.914.17c-.286.114-.534.3-.744.56s-.377.6-.501 1.022-.186.947-.186 1.574c0 .606.062 1.114.186 1.525s.291.741.501.99a1.8 1.8 0 0 0 .744.535 2.56 2.56 0 0 0 .914.162z" fill="#fff"/></g><ellipse fill="url(#F)" cx="15.583" cy="162.754" rx="15.583" ry="15.617"/></g><rect fill="url(#G)" x="124.484" y="118.324" width="397.977" height="355.584" rx="21.57"/><g transform="translate(186.818 204.817)"><path d="M268.517 175.39a7.19 7.19 0 0 1 7.19 7.19v19.257a7.19 7.19 0 0 1-7.19 7.19H7.19a7.19 7.19 0 0 1-7.19-7.19V182.58a7.19 7.19 0 0 1 7.19-7.19h261.327zm0-79.286a7.19 7.19 0 0 1 7.19 7.19v19.257a7.19 7.19 0 0 1-7.19 7.19H7.19A7.19 7.19 0 0 1 0 122.55v-19.257a7.19 7.19 0 0 1 7.19-7.19h261.327zm0-79.286a7.19 7.19 0 0 1 7.19 7.19v19.257a7.19 7.19 0 0 1-7.19 7.19H7.19A7.19 7.19 0 0 1 0 43.265V24.008a7.19 7.19 0 0 1 7.19-7.19h261.327z" fill="url(#H)" opacity=".188"/><g fill="#c5bdff"><rect width="50.346" height="4.805" rx="2.403"/><rect opacity=".753" y="79.286" width="50.346" height="4.805" rx="2.403"/><rect opacity=".513" y="158.571" width="50.346" height="4.805" rx="2.403"/></g></g><g fill-rule="nonzero"><g transform="translate(264.793 85.441)"><use fill="#000" filter="url(#J)" xlink:href="#I"/><use fill="#fff" xlink:href="#I"/><path d="M40.993 40.147v-2.72h-8.109v-5.174h6.388v-2.619h-6.388v-5.073h8.109v-2.707H29.456v18.292h11.537zm10.535.202c1.172 0 2.226-.188 3.163-.563s1.733-.898 2.391-1.569 1.162-1.467 1.512-2.391.525-1.929.525-3.017h0V21.855h-3.403V32.81c0 .7-.095 1.332-.285 1.898s-.464 1.046-.822 1.442-.797.704-1.316.923-1.107.329-1.765.329-1.246-.11-1.765-.329a3.58 3.58 0 0 1-1.309-.93c-.354-.401-.626-.883-.816-1.448s-.285-1.198-.285-1.898h0V21.855H43.95V32.81c0 1.088.175 2.094.525 3.017s.852 1.72 1.505 2.391a6.83 6.83 0 0 0 2.385 1.569c.936.375 1.99.563 3.163.563z" fill="#000"/><path d="M75.671 40.349c1.518 0 2.819-.245 3.903-.734s1.997-1.193 2.739-2.113h0l-1.341-1.455c-.135-.143-.295-.215-.481-.215a.67.67 0 0 0-.304.07 1.2 1.2 0 0 0-.266.183 5.61 5.61 0 0 1-.841.639c-.283.173-.582.314-.898.424s-.662.19-1.037.24-.795.076-1.259.076c-.776 0-1.501-.145-2.176-.436a5.05 5.05 0 0 1-1.758-1.259c-.498-.548-.892-1.223-1.183-2.024s-.436-1.716-.436-2.745c0-.995.145-1.891.436-2.688s.696-1.474 1.214-2.03a5.27 5.27 0 0 1 1.86-1.284c.721-.299 1.512-.449 2.372-.449.734 0 1.339.076 1.815.228a6.29 6.29 0 0 1 1.183.493 7.36 7.36 0 0 1 .772.493c.202.152.401.228.595.228.186 0 .331-.038.436-.114s.192-.164.259-.266h0l1.138-1.581c-.725-.717-1.596-1.292-2.612-1.727s-2.203-.651-3.561-.651c-1.392 0-2.663.23-3.814.689s-2.14 1.103-2.966 1.929-1.467 1.811-1.923 2.954-.683 2.401-.683 3.776c0 1.358.205 2.61.614 3.757s.997 2.134 1.765 2.96 1.693 1.472 2.777 1.935 2.304.696 3.662.696zm14.798-.013c.97 0 1.849-.156 2.638-.468s1.461-.759 2.018-1.341.987-1.286 1.29-2.113.455-1.754.455-2.783c0-1.02-.152-1.944-.455-2.77s-.734-1.526-1.29-2.1-1.229-1.016-2.018-1.328-1.668-.468-2.638-.468-1.851.156-2.644.468-1.47.755-2.03 1.328-.995 1.273-1.303 2.1-.462 1.75-.462 2.77c0 1.029.154 1.957.462 2.783s.742 1.531 1.303 2.113 1.238 1.029 2.03 1.341 1.674.468 2.644.468zm0-2.404c-1.096 0-1.906-.365-2.429-1.094s-.784-1.79-.784-3.181.261-2.456.784-3.194 1.332-1.107 2.429-1.107c1.079 0 1.879.367 2.397 1.101s.778 1.801.778 3.2-.259 2.463-.778 3.188-1.318 1.088-2.397 1.088zm12.192 2.214v-9.5a4.24 4.24 0 0 1 1.094-.917 2.5 2.5 0 0 1 1.259-.335c.683 0 1.2.198 1.55.595s.525 1.029.525 1.897h0v8.26h3.137v-8.26c0-.405.059-.763.177-1.075s.28-.571.487-.778.447-.365.721-.474a2.38 2.38 0 0 1 .892-.164c.7 0 1.231.209 1.594.626s.544 1.039.544 1.866h0v8.26h3.125v-8.26c0-.784-.099-1.48-.297-2.087s-.487-1.122-.867-1.543-.848-.742-1.404-.961-1.193-.329-1.91-.329a5.56 5.56 0 0 0-1.233.139 4.6 4.6 0 0 0-1.157.43 4.15 4.15 0 0 0-.999.753 3.96 3.96 0 0 0-.759 1.107c-.261-.734-.656-1.322-1.183-1.765s-1.2-.664-2.018-.664c-.388 0-.744.044-1.069.133s-.628.209-.911.361a4.59 4.59 0 0 0-.797.544 7.39 7.39 0 0 0-.715.696h0l-.202-.961c-.127-.38-.392-.569-.797-.569h0-1.91v12.979h3.125zm21.527 4.238v-5.313c.405.396.862.706 1.373.93s1.132.335 1.866.335c.852 0 1.621-.171 2.309-.512a5.17 5.17 0 0 0 1.758-1.423c.485-.607.858-1.324 1.12-2.151s.392-1.725.392-2.694c0-1.063-.116-2.005-.348-2.827s-.561-1.514-.987-2.075-.932-.989-1.518-1.284-1.233-.443-1.942-.443c-.911 0-1.706.186-2.385.557a6.55 6.55 0 0 0-1.803 1.455h0l-.253-1.202a.65.65 0 0 0-.278-.43c-.143-.093-.316-.139-.519-.139h0-1.91v17.217h3.125zm2.505-6.426c-.481 0-.93-.086-1.347-.259s-.803-.479-1.157-.917h0v-5.819c.396-.498.824-.883 1.284-1.157s1.014-.411 1.663-.411c.413 0 .782.076 1.107.228s.601.392.829.721.403.757.525 1.284.183 1.17.183 1.929c0 .751-.072 1.402-.215 1.954s-.348 1.01-.614 1.373a2.49 2.49 0 0 1-.974.81c-.384.177-.812.266-1.284.266zm12.23 2.188V21.349h-3.125v18.798h3.125zm5.525-14.801a1.96 1.96 0 0 0 .784-.158c.245-.105.458-.247.639-.424s.327-.384.436-.62a1.78 1.78 0 0 0 .164-.759c0-.278-.055-.54-.164-.784a2.04 2.04 0 0 0-.436-.633c-.181-.177-.394-.318-.639-.424a1.96 1.96 0 0 0-.784-.158c-.27 0-.525.053-.765.158s-.449.247-.626.424-.318.388-.424.633a1.96 1.96 0 0 0-.158.784 1.84 1.84 0 0 0 .158.759 2.05 2.05 0 0 0 .424.62c.177.177.386.318.626.424s.495.158.765.158zm1.556 14.801V27.168h-3.125v12.979h3.125zm6.879.202a6.47 6.47 0 0 0 1.265-.114 5 5 0 0 0 1.075-.342c.337-.152.664-.339.98-.563s.639-.483.968-.778h0l.278.923c.084.27.211.449.379.538s.401.133.696.133h0 1.404V31.95a6.1 6.1 0 0 0-.323-2.024 4.44 4.44 0 0 0-.942-1.588c-.413-.443-.917-.789-1.512-1.037s-1.271-.373-2.03-.373c-2.108 0-3.909.683-5.402 2.049h0l.569.999c.093.16.215.295.367.405s.333.164.544.164a1.4 1.4 0 0 0 .696-.177l.689-.398c.249-.148.542-.28.879-.398s.759-.177 1.265-.177c.7 0 1.233.209 1.6.626s.55 1.06.55 1.929h0v.759c-1.476.034-2.711.177-3.706.43s-1.792.571-2.391.955-1.027.814-1.284 1.29-.386.959-.386 1.448c0 .582.093 1.092.278 1.531s.445.805.778 1.101.732.517 1.195.664.97.221 1.518.221zm.974-2.151c-.523 0-.947-.118-1.271-.354s-.487-.628-.487-1.176a1.37 1.37 0 0 1 .234-.772c.156-.236.42-.443.791-.62s.862-.323 1.474-.436 1.373-.192 2.283-.234h0v2.188c-.228.236-.453.441-.677.614a4.07 4.07 0 0 1-.696.436c-.24.118-.495.207-.765.266s-.565.089-.886.089zm12.495 1.948v-9.386a5.44 5.44 0 0 1 1.341-.999c.472-.245.978-.367 1.518-.367.734 0 1.284.217 1.651.651s.55 1.048.55 1.841h0v8.26h3.125v-8.26c0-.725-.095-1.389-.285-1.992s-.468-1.122-.835-1.556-.824-.772-1.373-1.012-1.176-.361-1.885-.361a5.48 5.48 0 0 0-1.214.127c-.371.084-.719.207-1.044.367s-.632.35-.923.569-.567.464-.829.734h0l-.215-1.025c-.126-.38-.392-.569-.797-.569h0-1.91v12.979h3.125zm16.442.19a9.57 9.57 0 0 0 1.379-.101 6.39 6.39 0 0 0 1.347-.348c.434-.164.854-.384 1.259-.658a5.65 5.65 0 0 0 1.126-1.018h0l-.898-1.139c-.126-.194-.316-.291-.569-.291a.83.83 0 0 0-.525.183l-.55.405c-.211.148-.47.283-.778.405s-.711.183-1.208.183-.945-.095-1.341-.285a2.75 2.75 0 0 1-1.012-.835c-.278-.367-.491-.82-.639-1.36s-.221-1.155-.221-1.847c0-.666.067-1.263.202-1.79s.339-.976.614-1.347.618-.656 1.031-.854.894-.297 1.442-.297c.43 0 .791.048 1.082.145s.542.207.753.329l.544.329a.86.86 0 0 0 .468.145c.169 0 .297-.034.386-.101s.179-.16.272-.278h0l.822-1.138c-.582-.582-1.238-1.029-1.967-1.341s-1.579-.468-2.549-.468c-1.02 0-1.923.169-2.707.506s-1.442.803-1.973 1.398-.934 1.299-1.208 2.113-.411 1.697-.411 2.65c0 1.063.154 2.009.462 2.84s.725 1.533 1.252 2.106 1.145 1.01 1.853 1.309 1.463.449 2.264.449zm12.85 0c.455 0 .926-.034 1.41-.101s.961-.183 1.429-.348.917-.384 1.347-.658.818-.614 1.164-1.018h0l-.911-1.139c-.067-.093-.148-.164-.24-.215s-.202-.076-.329-.076a1.21 1.21 0 0 0-.601.177l-.721.392a6.14 6.14 0 0 1-.961.392c-.367.118-.803.177-1.309.177-1.029 0-1.855-.312-2.479-.936s-.982-1.602-1.075-2.935h0 8.02c.143 0 .261-.019.354-.057a.46.46 0 0 0 .221-.19c.055-.089.093-.211.114-.367a4.52 4.52 0 0 0 .032-.588c0-.936-.139-1.769-.417-2.498a5.23 5.23 0 0 0-1.164-1.847c-.498-.502-1.09-.883-1.777-1.145s-1.44-.392-2.258-.392c-.97 0-1.841.169-2.612.506s-1.425.795-1.961 1.373-.947 1.257-1.233 2.037-.43 1.613-.43 2.498c0 1.139.164 2.14.493 3.004s.78 1.59 1.354 2.176 1.248 1.029 2.024 1.328 1.615.449 2.517.449zm2.657-8.172h-5.87c.143-.945.472-1.674.987-2.188s1.227-.772 2.138-.772c.464 0 .869.078 1.214.234s.632.369.86.639a2.64 2.64 0 0 1 .506.942c.11.358.164.74.164 1.145h0z" fill="#4848d1"/></g><g transform="translate(62.151 404.233)"><use fill="#000" filter="url(#L)" xlink:href="#K"/><use fill="url(#C)" xlink:href="#K"/><path d="M67.928 38.442v14.807c0 .858.639 1.563 1.453 1.639l.145.007h14.385v32.357c0 .858-.639 1.563-1.453 1.639l-.145.007H47.15c-.833 0-1.518-.657-1.592-1.496l-.007-.15V40.087c0-.858.639-1.563 1.453-1.639l.145-.007h20.778zM66.005 75.79H55.766c-.882 0-1.598.737-1.598 1.645 0 .858.639 1.563 1.453 1.639l.145.007h10.239c.882 0 1.598-.737 1.598-1.645s-.716-1.645-1.598-1.645zm7.659-6.602H55.766c-.882 0-1.598.737-1.598 1.645 0 .858.639 1.563 1.453 1.639l.145.007h17.898c.882 0 1.598-.737 1.598-1.645s-.716-1.645-1.598-1.645zm0-6.602H55.766c-.882 0-1.598.737-1.598 1.645 0 .858.639 1.563 1.453 1.639l.145.007h17.898c.882 0 1.598-.737 1.598-1.645s-.716-1.645-1.598-1.645zm-2.572-23.179l11.85 12.198h-11.85V39.406z" fill="#fff"/></g></g><g transform="translate(574.392 285.947)"><g fill-rule="nonzero"><use fill="#000" filter="url(#O)" xlink:href="#N"/><use fill="url(#M)" xlink:href="#N"/></g><path d="M67.065 65.962c.311 0 .512.118.725.336.55.562 1.068 1.11.919 1.993-.056.333.217.376.488.39 1.016.053 2.045 1.144 2.045 2.156l.01 2.514c.023.511-.16.651-.663.649l-13.374-.01c-4.423 0-8.845 0-13.268 0-.706 0-.708-.003-.709-.697l-.007-2.671c-.009-.381.104-.674.394-.921a5.3 5.3 0 0 0 .597-.592c.27-.317.588-.48 1.015-.432.362.041.614-.1.543-.495-.129-.711.212-1.178.619-1.612l.207-.216.207-.216c.162-.174.375-.171.588-.171h9.832 0zM49.361 49.154c.336-.297.558-.363.904.007a53.21 53.21 0 0 0 2.351 2.335c.319.301.298.491.011.808l-8.691 9.642-9.101 10.121c-.783.871-1.757 1.314-2.936 1.308-1.563-.007-3.094-1.059-3.645-2.507-.576-1.515-.155-3.129 1.103-4.228h0l14.736-12.88h0l3.516-3.066h0zm19.908-3.502c.491-.481 1.217-.611 1.802-.328.602.292.945.766.929 1.533.009.339-.141.705-.351 1.057-1.491 2.49-3.509 4.529-5.647 6.461a29.93 29.93 0 0 1-3.802 2.902c-.22.143-.448.281-.689.383-.805.342-1.556.13-2.05-.56-.423-.59-.33-1.485.249-2.056l9.56-9.394zM57.375 34.069c.23-.227.377-.22.602.004l9.898 9.816c.085.085.157.183.225.262-.023.223-.187.317-.307.436L60.42 51.87l-2.051 2.04c-.256.264-.432.257-.691 0l-9.903-9.812c-.259-.256-.208-.409.024-.635l9.575-9.394zm-2.853-3.987c1.122-.331 2.135.371 2.145 1.523.026.405-.137.777-.454 1.089l-9.55 9.431c-.63.62-1.473.683-2.116.206-.702-.521-.892-1.319-.455-2.148.45-.854 1.053-1.612 1.654-2.365 2.152-2.701 4.568-5.13 7.479-7.039.41-.269.817-.555 1.297-.697z" fill="#fff"/></g></g></g></svg>