<svg xmlns="http://www.w3.org/2000/svg" xmlns:xlink="http://www.w3.org/1999/xlink" width="620" height="411" xmlns:v="https://vecta.io/nano"><defs><linearGradient x1="52.182207%" y1="0%" x2="52.182207%" y2="100%" id="A"><stop stop-color="#f866ff" offset="0%"/><stop stop-color="#d623d2" offset="100%"/></linearGradient><path id="B" d="M0 0h619.741v410.068H0z"/><linearGradient x1="157.64859%" y1="-17.3943464%" x2="24.8639418%" y2="84.9532859%" id="C"><stop stop-color="#f661fc" stop-opacity="0" offset="0%"/><stop stop-color="#da2bd8" offset="100%"/></linearGradient><linearGradient x1="50%" y1="0%" x2="50%" y2="109.346765%" id="D"><stop stop-color="#fff" offset="0%"/><stop stop-color="#ed42ec" stop-opacity=".738" offset="100%"/></linearGradient><path d="M0 34.223l64.331 24.065v77.007L0 111.233v-77.01zm137.233.001v20.532l-.101.007.101.108.009 54.435c-22.909 10.033-38.726 16.581-47.452 19.643l.011.025-16.899 6.32V58.287l21.449-8.021v21.438l11.239-4.21-.424.36h0l.212-.164.212-.16a67.26 67.26 0 0 1 5.914-4.588V43.847l25.727-9.623zM17.154 95.957v9.134l17.155 6.412v-9.121l-17.155-6.425zM68.622 0l68.621 25.673-25.784 9.633-25.685-11.473v.032l-17.152 7.288v.026l25.685 10.558-25.685 9.609L0 25.674 68.622 0z" id="E"/><filter x="-24.4%" y="-21.8%" width="148.8%" height="149.5%" id="F"><feOffset dy="4" in="SourceAlpha"/><feGaussianBlur stdDeviation="10.5"/><feColorMatrix values="0 0 0 0 0   0 0 0 0 0   0 0 0 0 0  0 0 0 0.11994646 0"/></filter><ellipse id="G" cx="34.376" cy="34.294" rx="34.376" ry="34.294"/><filter x="-158.5%" y="-125.4%" width="417.1%" height="417.8%" id="H"><feOffset dy="23" in="SourceAlpha"/><feGaussianBlur stdDeviation="32.5"/><feColorMatrix values="0 0 0 0 0.527117301   0 0 0 0 0.0543790599   0 0 0 0 0.521683528  0 0 0 0.373743444 0"/></filter><linearGradient x1="58.7506174%" y1="-14.9272455%" x2="37.1499654%" y2="131.131828%" id="I"><stop stop-color="#28cc70" offset="0%"/><stop stop-color="#23b2d1" offset="100%"/></linearGradient><path d="M17.156 14.734c-.064-.207-.213-.342-.379-.342h-4.489V.554c0-.306-.184-.554-.41-.554H5.325c-.226 0-.41.248-.41.554v13.838H.41c-.165 0-.315.135-.379.341s-.029.445.088.603l8.172 11.079c.077.104.181.163.29.163s.213-.059.29-.162l8.196-11.079a.7.7 0 0 0 .088-.603z" id="J"/><filter x="-49.5%" y="-24.5%" width="198.9%" height="164.0%" id="K"><feOffset dy="2" in="SourceAlpha"/><feGaussianBlur stdDeviation="2.5"/><feColorMatrix values="0 0 0 0 0   0 0 0 0 0   0 0 0 0 0  0 0 0 0.0892974213 0"/></filter><linearGradient x1="50%" y1="0%" x2="50%" y2="100%" id="L"><stop stop-color="#ffba67" offset="0%"/><stop stop-color="#ff635e" offset="100%"/></linearGradient><filter x="-58.2%" y="-30.1%" width="216.4%" height="175.3%" id="M"><feOffset dy="2" in="SourceAlpha"/><feGaussianBlur stdDeviation="3"/><feColorMatrix values="0 0 0 0 0   0 0 0 0 0   0 0 0 0 0  0 0 0 0.103119537 0"/></filter><linearGradient x1="100%" y1="12.5161951%" x2="0%" y2="100%" id="N"><stop stop-color="#f661fc" stop-opacity="0" offset="0%"/><stop stop-color="#da2bd8" offset="100%"/></linearGradient></defs><g fill="none" fill-rule="evenodd"><use fill="url(#A)" xlink:href="#B"/><circle fill="url(#C)" opacity=".967" cx="231.328" cy="268.84" r="20.84"/><g transform="translate(227.16 137.546)"><use fill="#000" filter="url(#F)" xlink:href="#E"/><use fill="url(#D)" xlink:href="#E"/><g transform="translate(97.971 54.871)"><use fill="#000" filter="url(#H)" xlink:href="#G"/><use fill="#fff" xlink:href="#G"/><g transform="translate(18.047 21.434)"><use fill="#000" filter="url(#K)" xlink:href="#J"/><use fill="url(#I)" xlink:href="#J"/></g><g transform="matrix(-1 0 0 -1 51.563718 48.011914)"><use fill="#000" filter="url(#M)" xlink:href="#M" href="#J"/><use fill="url(#L)" xlink:href="#M" href="#J"/></g></g></g><circle fill="url(#N)" opacity=".643" cx="128.168" cy="95.866" r="20.84"/><g transform="matrix(1 0 0 1 181.310924 86.487395)" fill-rule="nonzero"><circle fill="#32f312" opacity=".778" cx="244.874" cy="78.151" r="8.857"/><circle fill="#4a95ff" cx="56.79" cy="217.261" r="5.21"/><path fill="#3bf0f4" opacity=".994" d="M21.166 100.034l5.926 25.008L0 120.202z"/><path fill="#ffbd4a" d="M118.79 4.331L139.63 0l-4.034 19.798z"/><path fill="#7ed321" opacity=".9" d="M171.435 230.541l-18.372 17.98-9.785-25.728z"/></g></g></svg>