<svg xmlns="http://www.w3.org/2000/svg" xmlns:xlink="http://www.w3.org/1999/xlink" width="620" height="411" xmlns:v="https://vecta.io/nano"><defs><linearGradient x1="50%" y1="117.481397%" x2="50%" y2="-12.8777162%" id="A"><stop stop-color="#8fa1d1" offset="0%"/><stop stop-color="#e0e8ff" offset="100%"/></linearGradient><path id="B" d="M0 0h619.741v410.068H0z"/><linearGradient x1="50%" y1="117.481397%" x2="50%" y2="-12.8777162%" id="C"><stop stop-color="#8fa1d1" stop-opacity="0" offset="0%"/><stop stop-color="#e0e8ff" offset="100%"/></linearGradient><linearGradient x1="50%" y1="11.033377%" x2="51.9572175%" y2="152.468846%" id="D"><stop stop-color="#fffbfb" offset="0%"/><stop stop-color="#aebce2" offset="60.0309305%"/><stop stop-color="#28e6ab" stop-opacity="0" offset="100%"/></linearGradient><path d="M354.908 221.592h-90.824a6.21 6.21 0 0 1-6.21-6.202c0-3.425 2.782-6.201 6.21-6.201h90.825c3.43 0 6.21 2.777 6.21 6.201s-2.781 6.202-6.211 6.202m0 26.1h-90.824a6.21 6.21 0 0 1-6.21-6.202c0-3.425 2.782-6.201 6.21-6.201h90.825c3.43 0 6.21 2.777 6.21 6.201s-2.781 6.202-6.211 6.202m-64.479-83.458a7.13 7.13 0 0 1 10.171.39c2.206 2.431 5.706 3.883 9.362 3.883 3.21 0 5.255-1.877 5.496-3.231.206-1.146-1.529-2.605-4.314-3.631-6.573-2.42-12.413-5.017-12.658-5.126-.343-.152-.673-.332-.988-.536-5.046-3.285-7.646-9.043-6.785-15.028.868-6.035 5.099-10.988 11.127-13.132v-4.348c0-3.927 3.189-7.11 7.121-7.11s7.122 3.183 7.122 7.11v4.084c4.24 1.202 7.695 3.288 9.712 4.982.487.456.998.888 1.448 1.384 2.64 2.91 2.418 7.406-.496 10.043a7.13 7.13 0 0 1-9.361.177c-1.036-.871-2.131-1.674-3.364-2.233-1.871-.85-4.507-1.578-7.18-.774-1.174.353-1.913 1.023-2.031 1.839-.061.456.208.877.618 1.054 1.955.844 6.165 2.624 10.644 4.273 11.682 4.301 14.585 12.878 13.406 19.472-1.211 6.77-6.489 12.089-13.396 14.091v3.893c0 3.927-3.188 7.11-7.122 7.11s-7.121-3.183-7.121-7.11v-4.226c-4.45-1.342-8.46-3.778-11.576-7.122-2.692-2.89-2.709-7.466.164-10.177m84.255-84.833l-10.541 7.129c-1.035.52-2.255.52-3.29 0l-14.212-7.14c-1.036-.52-2.255-.52-3.291 0l-14.21 7.14c-1.036.52-2.255.52-3.29 0l-14.211-7.14a3.66 3.66 0 0 0-3.291 0l-14.209 7.14c-1.036.52-2.255.52-3.291 0l-14.209-7.14a3.66 3.66 0 0 0-3.291 0l-14.207 7.14c-1.036.52-2.255.52-3.291 0l-10.535-7.128c-2.441-1.227-5.316.553-5.316 3.29V288.31c0 2.736 2.874 4.515 5.316 3.289l10.54-7.129a3.67 3.67 0 0 1 3.291 0l14.212 7.141c1.036.52 2.255.52 3.292 0l14.209-7.141a3.67 3.67 0 0 1 3.291 0l14.21 7.141c1.037.52 2.255.52 3.291 0l14.209-7.141c1.037-.52 2.255-.52 3.292 0l14.208 7.14a3.66 3.66 0 0 0 3.292 0l14.206-7.14c1.036-.52 2.255-.52 3.291 0l10.534 7.128c2.442 1.227 5.317-.553 5.317-3.29V82.691c0-2.737-2.875-4.516-5.316-3.29" id="E"/><filter x="-24.6%" y="-19.0%" width="149.3%" height="132.4%" id="F"><feOffset dy="-6" in="SourceAlpha"/><feGaussianBlur stdDeviation="10.5"/><feColorMatrix values="0 0 0 0 0.44517906   0 0 0 0 0.541062919   0 0 0 0 0.822322237  0 0 0 0.32345389 0"/></filter></defs><g fill="none" fill-rule="evenodd"><use fill="url(#A)" xlink:href="#B"/><g fill="url(#C)"><circle cx="447.84" cy="262.84" r="20.84"/><circle cx="127.84" cy="79.84" r="20.84"/></g><g opacity=".882"><use fill="#000" filter="url(#F)" xlink:href="#E"/><use fill="url(#D)" xlink:href="#E"/></g><g transform="matrix(1 0 0 1 183 45)" fill-rule="nonzero"><circle fill="#127cf3" opacity=".778" cx="244.874" cy="95.151" r="8.857"/><circle fill="#ffdd4a" cx="51.899" cy="247.723" r="5.21"/><path fill="#f4523b" opacity=".994" d="M21.166 117.034l5.926 25.008L0 137.202z"/><path fill-opacity=".469" fill="#fd4aff" d="M118.479 4.852l20.84-4.331-4.034 19.798z"/><path fill="#7815ff" opacity=".469" d="M171.435 247.541l-18.372 17.98-9.785-25.728z"/></g></g></svg>