<svg xmlns="http://www.w3.org/2000/svg" xmlns:xlink="http://www.w3.org/1999/xlink" width="595" height="394" xmlns:v="https://vecta.io/nano"><defs><linearGradient x1="52.182207%" y1="0%" x2="52.182207%" y2="100%" id="A"><stop stop-color="#6482ff" offset="0%"/><stop stop-color="#1749e9" offset="100%"/></linearGradient><path id="B" d="M0 0h594.752v393.533H0z"/><linearGradient x1="52.182207%" y1="0%" x2="52.182207%" y2="100%" id="C"><stop stop-color="#6482ff" stop-opacity="0" offset="0%"/><stop stop-color="#1749e9" offset="100%"/></linearGradient><linearGradient x1="52.182207%" y1="0%" x2="52.182207%" y2="100%" id="D"><stop stop-color="#f3f6ff" offset="0%"/><stop stop-color="#9fb6ff" offset="100%"/></linearGradient><path d="M77.549 137.465c-22.528 0-41.507.025-60.484-.027-2.916-.008-5.789.446-8.693.459-5.545.023-7.762-2.153-7.436-7.627.162-2.706-.312-5.406.168-8.111.886-4.983 3.135-8.811 7.912-11.154l36.484-18.261c2.781-1.387 4.768-3.708 7.042-5.691 1.04-.907.712-6.187-.322-7.008-7.248-5.747-11.665-13.315-14.198-22.078-.318-1.101-.886-1.896-1.651-2.73-3.985-4.344-5.446-9.588-4.851-15.352.204-1.959.918-3.973 3.451-4.302.855-.112.619-.873.726-1.381 1.8-8.584 5.577-16.213 11.442-22.701 4.667-5.162 10.217-9.136 17.272-10.371 8.646-1.513 16.638-.034 23.716 5.465 8.994 6.985 14.417 16.15 16.865 27.175.223 1.004.377 1.736 1.749 2.041 1.537.339 2.227 1.995 2.387 3.485.659 6.044-.819 11.509-4.874 16.141-.608.694-1.099 1.328-1.36 2.245-2.52 8.835-6.895 16.505-14.219 22.278-.619.488-.789 1.033-.891 1.791-.436 3.31.547 5.743 3.278 7.963 4.434 3.605 9.619 5.724 14.594 8.25 8.269 4.203 16.636 8.222 25.029 12.179 5.922 2.791 9.055 7.265 9.015 13.839-.017 2.898.335 5.813-.181 8.687-.611 3.407-2.229 4.678-5.693 4.823-19.943.844-39.886-.568-56.28-.032" id="E"/><filter x="-33.1%" y="-27.7%" width="166.2%" height="167.0%" id="F"><feOffset dy="8" in="SourceAlpha"/><feGaussianBlur stdDeviation="14"/><feColorMatrix values="0 0 0 0 0.0376878627   0 0 0 0 0.18451108   0 0 0 0 0.658627717  0 0 0 0.291001967 0"/></filter><ellipse id="G" cx="32.99" cy="32.911" rx="32.99" ry="32.911"/><filter x="-157.6%" y="-124.6%" width="415.2%" height="416.0%" id="H"><feOffset dy="22" in="SourceAlpha"/><feGaussianBlur stdDeviation="31"/><feColorMatrix values="0 0 0 0 0.527117301   0 0 0 0 0.0543790599   0 0 0 0 0.521683528  0 0 0 0.373743444 0"/></filter><linearGradient x1="50%" y1="-54.5642653%" x2="50%" y2="100%" id="I"><stop stop-color="#a75bff" offset="0%"/><stop stop-color="#e2cbff" offset="100%"/></linearGradient><linearGradient x1="50%" y1="-40.6538321%" x2="50%" y2="100%" id="J"><stop stop-color="#c2e998" offset="0%"/><stop stop-color="#02cc87" offset="100%"/></linearGradient></defs><g fill="none" fill-rule="evenodd"><use fill="url(#A)" xlink:href="#B"/><circle fill="url(#C)" cx="222" cy="258" r="20"/><g transform="translate(218 112)"><g transform="translate(0 24)"><g transform="translate(18.947 .53)"><use fill="#000" filter="url(#F)" xlink:href="#E"/><use fill="url(#D)" xlink:href="#E"/></g><path d="M51.024 32.506c-4.804 4.832-5.314 12.884-1.333 19.675.099.166.175.358.307.49 4.535 4.495 4.745 11.183 8.238 16.202.436.627.038 1.103-.244 1.591-1.36 2.365-3.038 4.474-5.082 6.292-1.644 1.463-1.543 3.874-.038 5.531 2.524 2.776 6.023 3.897 9.131 5.682.482.278 1.124.301 1.463.884-.368.604-1.042.709-1.585.979L25.46 107.749c-1.347.661-2.644 1.479-3.516 2.666-1.145 1.557-2.587 1.81-4.352 1.776-4.257-.082-8.518-.004-12.775-.034-3.771-.029-4.848-1.153-4.808-4.876l.002-3.096c.112-3.919 1.638-6.854 5.373-8.641l20.779-10.299c1.794-.882 3.099-2.307 4.44-3.679.909-.928.606-3.7-.4-4.554-4.006-3.401-6.604-7.7-8.101-12.69-.234-.781-.669-1.351-1.152-1.963a12.35 12.35 0 0 1-2.716-8.081c.032-1.461.175-3.03 2.061-3.508.869-.221.613-1.067.726-1.629 1.223-6.036 4.168-11.156 8.798-15.1 6.017-5.129 13.038-6.406 21.204-1.536" fill="url(#D)" opacity=".655"/></g><g transform="translate(7)"><use fill="#000" filter="url(#H)" xlink:href="#G"/><use fill="#fff" xlink:href="#G"/><g transform="translate(15 20)"><path d="M23.496.001h9.051c1.537.001 2.446.904 2.449 2.453v10.51c-.002 1.339-.959 2.292-2.295 2.307-.857.01-.853.01-.846.86l.017 3.28a2.07 2.07 0 0 1-.036.406c-.041.205-.178.225-.332.125-.081-.051-.146-.132-.211-.206l-3.73-4.198c-.171-.193-.337-.274-.598-.274l-12.538.005c-1.526-.001-2.424-.896-2.424-2.422V2.373c.001-1.445.925-2.37 2.369-2.372h9.126" fill="url(#I)"/><path d="M14.547 24.316c-2.077-.001-4.154.006-6.23-.008-.278-.002-.45.096-.627.297l-3.606 4.076c-.074.083-.146.172-.233.239-.197.152-.324.079-.364-.15-.023-.134-.017-.274-.017-.41l-.007-3.63c.002-.267-.058-.378-.347-.367-.344.012-.691-.032-1.036-.053-1.137-.069-2.062-.991-2.067-2.146L.012 11.162c.006-1.179.967-2.14 2.14-2.148L10.385 9c.308-.001.293.159.292.374l-.002 6.324c.001 1.454.922 2.385 2.363 2.386l9.567-.011c.346-.002.4.108.395.42l-.006 3.517c-.001 1.348-.948 2.304-2.291 2.306l-6.156.001" fill="url(#J)"/></g></g></g><circle fill="url(#C)" opacity=".386" cx="123" cy="92" r="20"/><g fill-rule="nonzero"><circle fill="#651cf3" opacity=".024" cx="496" cy="65" r="13"/><g transform="matrix(-1 0 0 -1 404 322)"><circle fill="#ffdb4a" opacity=".778" cx="220.5" cy="66.5" r="8.5"/><circle fill="#4a95ff" cx="79" cy="218" r="5"/><path fill="#3bf0f4" opacity=".994" d="M20.313 129L26 153l-26-4.645z"/><path fill="#fe408e" d="M108 4.156L128 0l-3.871 19z"/><path fill="#7ed321" opacity=".9" d="M226.059 160.745L208.428 178l-9.39-24.69z"/></g></g></g></svg>