<svg xmlns="http://www.w3.org/2000/svg" xmlns:xlink="http://www.w3.org/1999/xlink" width="1240" height="822" fill="none" xmlns:v="https://vecta.io/nano"><path fill="#fff" d="M0 0h1240v822H0z"/><path fill="url(#A)" d="M0 0h1240v822H0z"/><path opacity=".3" d="M215.182 501.533c1.959-42.229 10.948-83.816 23.356-124.132l1.342-4.248c16.353-50.548 46.103-98.116 89.541-126.642 17.508-11.498 37.239-19.904 59.212-24.167 33.076-6.414 65.739-7.236 98.318-5.636 37.649 1.849 75.182 6.931 113.105 10.354 34.059 3.075 70.455-14.725 103.692-22.662 39.257-9.376 76.872-14.098 117.199-6.921 37.781 6.724 72.852 23.295 104.217 45.095 51.193 35.584 91.026 88.826 97.646 152.698 5.32 51.296-3.42 104.704-30.76 148.887-10.252 16.563-22.847 31.511-37.216 44.534-9.957 9.028-20.77 17.129-32.241 24.208-33.598 20.735-63.537 26.895-102.653 27.072-70.642.32-141.213 11.302-208.654 32.307-23.799 7.413-48.843 22.419-73.679 27.138-4.932.937-9.853 1.467-14.753 1.455-28.6-.082-72.427 5.758-97.801-8.795-21.528-12.349-40.698-20.847-65.017-26.36-11.637-2.64-23.426-5.129-34.955-8.373-12.679-3.566-25.049-8.05-36.563-14.65-50.354-28.867-75.95-84.838-73.336-141.162z" fill="url(#B)"/><path fill-rule="evenodd" d="M628.229 221l-141.228 52.837 141.228 52.838 52.86-19.776-52.86-21.73v-.053l35.299-14.999v-.066l52.861 23.612 53.066-19.826L628.229 221zM487 449.924l132.397 49.521V340.96L487 291.434v158.49zm35.305-12.642v-18.798l35.307 13.223v18.772l-35.307-13.197zm115.094 62.163l132.397-49.521v-158.49L637.399 340.96v158.485zm97.092-80.961v18.798l-35.307 13.197v-18.772l35.307-13.223z" fill="url(#C)"/><circle cx="594" cy="586" r="8" fill="#fffc07"/><circle cx="355" cy="427" r="15" fill="#fff" fill-opacity=".566"/><ellipse opacity=".281" cx="390" cy="220.5" rx="20" ry="20.5" fill="url(#D)"/><circle cx="936" cy="401" r="11" fill="#fff" fill-opacity=".566"/><path opacity=".994" d="M542 127.562L573 121l-6 30-25-23.438z" fill="#fdff4a"/><path opacity=".9" d="M832.438 533.035l-26.393 25.83-14.056-36.96 40.449 11.13z" fill="#15e0ff"/><path fill-rule="evenodd" d="M832.075 194l-43.495 62.003 35.893-14.959c-.711 45.077-15.502 83.644-44.568 109.687-29.78 26.681-75.627 41.184-139.711 34.802-61.903-6.165-103.064 9.91-130.208 31.758-26.953 21.695-39.391 48.523-44.999 62.759l13.026 5.131c5.225-13.264 16.538-37.494 40.751-56.983 24.023-19.336 61.446-34.569 120.043-28.734 66.783 6.651 116.936-8.288 150.44-38.306 32.392-29.023 48.207-71.235 49.203-118.73l34.822 14.031L832.075 194z" fill="url(#E)"/><circle cx="811" cy="315.617" r="50" fill="url(#F)"/><path d="M807.673 341v-5.818c-4.207-.185-8.285-1.287-10.673-2.635l1.886-7.169c2.638 1.406 6.339 2.694 10.423 2.694 3.578 0 6.026-1.347 6.026-3.797 0-2.33-2.009-3.803-6.656-5.334-6.716-2.205-11.303-5.269-11.303-11.212 0-5.393 3.895-9.62 10.613-10.907V291h6.149v5.393c4.208.185 7.033 1.044 9.104 2.021l-1.82 6.925c-1.631-.673-4.519-2.085-9.043-2.085-4.08 0-5.398 1.716-5.398 3.433 0 2.021 2.197 3.308 7.534 5.268 7.469 2.575 10.485 5.942 10.485 11.461 0 5.454-3.957 10.109-11.175 11.337V341h-6.152z" fill="#fff"/><circle cx="471" cy="483.617" r="42" fill="url(#G)"/><path d="M468.862 500v-3.724c-2.705-.118-5.327-.823-6.862-1.686l1.213-4.588c1.696.9 4.075 1.724 6.7 1.724 2.3 0 3.874-.862 3.874-2.43 0-1.491-1.291-2.434-4.279-3.414-4.318-1.411-7.266-3.372-7.266-7.175 0-3.452 2.504-6.157 6.822-6.981V468h3.953v3.452c2.705.118 4.522.668 5.853 1.293l-1.17 4.432c-1.049-.431-2.905-1.334-5.814-1.334-2.622 0-3.47 1.098-3.47 2.197 0 1.293 1.413 2.117 4.844 3.371 4.801 1.648 6.74 3.803 6.74 7.335 0 3.491-2.544 6.47-7.184 7.256V500h-3.954z" fill="#fff"/><defs><linearGradient id="A" x1="0" y1="0" x2="0" y2="822" xlink:href="#H"><stop stop-color="#7001e3"/><stop offset="1" stop-color="#4600cf"/></linearGradient><linearGradient id="B" x1="619.645" y1="702.046" x2="619.645" y2="236.904" xlink:href="#H"><stop stop-color="#1000b3"/><stop offset="1" stop-color="#1000b3" stop-opacity="0"/></linearGradient><linearGradient id="C" x1="628.398" y1="285.5" x2="628.398" y2="507.5" xlink:href="#H"><stop stop-color="#fff"/><stop offset="1" stop-color="#5000d3" stop-opacity="0"/></linearGradient><linearGradient id="D" x1="393.135" y1="199.985" x2="373.075" y2="219.472" xlink:href="#H"><stop stop-color="#86a3ff"/><stop offset="1" stop-color="#6edbef" stop-opacity=".01"/></linearGradient><linearGradient id="E" x1="815.548" y1="219.334" x2="192.5" y2="658.117" xlink:href="#H"><stop stop-color="#fff"/><stop offset="1" stop-color="#5000d3" stop-opacity="0"/></linearGradient><linearGradient id="F" x1="761" y1="245.338" x2="761" y2="390.822" xlink:href="#H"><stop stop-color="#fae000"/><stop offset="1" stop-color="#f2557a"/></linearGradient><linearGradient id="G" x1="429" y1="424.582" x2="429" y2="546.789" xlink:href="#H"><stop stop-color="#fae000"/><stop offset="1" stop-color="#f2557a"/></linearGradient><linearGradient id="H" gradientUnits="userSpaceOnUse"/></defs></svg>