<svg xmlns="http://www.w3.org/2000/svg" xmlns:xlink="http://www.w3.org/1999/xlink" width="620" height="411" xmlns:v="https://vecta.io/nano"><defs><linearGradient x1="50%" y1="0" x2="50%" y2="100%" id="A"><stop stop-color="#3cc2ff" offset="0"/><stop stop-color="#3d69ff" offset="100%"/></linearGradient><linearGradient x1="50%" y1="12.2520762%" x2="50.0503859%" y2="87.7479238%" id="B"><stop stop-color="#b7fdff" offset="0"/><stop stop-color="#96ebff" stop-opacity=".822" offset="42.7089196%"/><stop stop-color="#0093ff" stop-opacity="0" offset="100%"/></linearGradient><path d="M81.32 50.183c1.627 2.895 4.118 4.515 7.15 5.273 3.926.982 7.711.79 11.162-1.63.643-.451 1.262-.954 1.476-1.7.451-1.578.975-1.452 1.999-.369 3.731 3.944 8.523 4.738 13.593 4.028 2.373-.333 4.485-1.559 5.251-4.156.351-1.188.906-.836 1.406-.222 1.595 1.962 3.622 3.211 6.085 3.678 1.551.294 1.249 1.427 1.25 2.417l.008 36.461-.025 18.128c-.013 1.397.342 2.048 1.856 1.925 1.38-.113 2.779-.068 4.165-.008 1.954.084 3.115 1.176 3.265 3.083.081 1.035.102 2.092-.012 3.121-.205 1.837-1.283 2.86-3.16 2.962-.485.027-.972.01-1.458.01l-78.972.02h-.254c-1.079-.004-1.84-.092-1.833-1.682l.029-44.545c0-1.528-.07-3.06.018-4.583.079-1.359-.585-1.613-1.757-1.609-8.057.028-16.114.043-24.171-.016-1.47-.01-1.913.483-1.898 1.922l.025 17.711.047 30.422c.019 1.963-.597 2.435-2.468 2.401l-18.336-.047c-2.857-.008-3.857-1.016-3.888-3.904-.013-1.171-.223-2.385.314-3.494.65-1.343 1.829-1.715 3.254-1.815 1.825-.128 4.258.929 5.306-.517.871-1.202.292-3.479.297-5.281l.113-46.88c.001-.417.013-.834-.007-1.249-.188-4.137-.173-4.097 3.561-5.694 1.002-.429 1.902-1.134 2.785-1.798.824-.619 1.564-1.351 2.479-2.155 1.638 4.185 4.127 5.952 8.629 5.704 4.614-.253 8.885-1.516 11.779-5.909 1.751 4.898 5.648 5.912 10.018 5.755 4.28-.153 8.014-1.62 10.495-5.74 2.094 4.428 5.827 5.747 10.126 5.752 4.306.005 8.113-1.174 10.297-5.774zm-9.578 20.584c-1.621-.006-2.138.449-2.124 2.107l-.01 26.458c-.024 1.927.638 2.286 2.385 2.266l22.291-.038 22.708.033c1.545.015 2.008-.415 1.996-1.982l.003-26.875c.014-1.62-.55-1.968-2.041-1.963a7023.26 7023.26 0 0 1-45.208-.005zM80.3 12.186c1.869.099 3.747.024 5.622.025l2.812.012 2.811-.025c.971-.024 1.486.255 1.74 1.291l7.771 30.656c1.064 4.244-1.696 6.881-4.93 7.669-3.71.905-7.333.519-10.72-1.27-2.537-1.34-4.099-3.364-4.338-6.395l-2.57-30.081c-.138-1.516.35-1.96 1.802-1.883zm-29.031-.012c3.671.113 7.349.065 11.023.021 1.134-.013 1.598.27 1.485 1.532l-2.544 29.42c-.458 5.112-2.912 7.71-8.125 8.76-1.082.218-2.195.282-2.815.358-2.088-.052-3.658-.194-5.173-.801-3.763-1.509-4.901-3.731-3.89-7.681l3.036-11.838 4.499-17.771c.367-1.474.936-2.048 2.502-2zm-29.523.016c1.871.066 3.746.018 5.62.018l5.62-.013c1.162-.03 1.734.173 1.16 1.509L20.472 45.411c-1.835 3.981-6.01 5.625-10.187 6.433-2.058.398-4.207.629-6.373-.029C.109 50.658-.991 48.261.919 44.833c5.909-10.604 12.383-20.875 18.486-31.365.576-.989 1.254-1.319 2.34-1.28zm101.67 2.272c2.737 6.093 6.615 11.539 9.913 17.315l7.722 13.329c1.753 3.135.441 5.904-3.067 6.797-5.272 1.342-14.724-1.487-17.367-8.585-3.652-9.812-8.08-19.337-12.236-28.96-.694-1.607-.731-2.371 1.374-2.181 1.723.155 3.47.032 5.207.033 1.528.001 3.073.144 4.58-.035 1.966-.233 3.096.556 3.874 2.287zM123.18.001c4.146 0 6.268 3.727 4.255 7.482-.451.842-1.175 1.382-2.128 1.506-.753.098-1.52.12-2.281.12l-104.105.003c-.555 0-1.115.025-1.663-.041-.475-.058-.972-.155-1.396-.363-1.584-.776-2.193-3.226-1.535-6.242.386-1.77 1.62-2.467 3.356-2.466l28.316.006L70.951.003 123.18.001z" id="C"/><filter x="-24.7%" y="-25.2%" width="149.4%" height="156.8%" id="D"><feOffset dy="4" in="SourceAlpha"/><feGaussianBlur stdDeviation="11"/><feColorMatrix values="0 0 0 0 0 0 0 0 0 0 0 0 0 0 0 0 0 0 0.11994646 0"/></filter><circle id="E" cx="31.943" cy="31.943" r="31.943"/><filter x="-160.4%" y="-126%" width="420.9%" height="420.9%" id="F"><feOffset dy="22" in="SourceAlpha"/><feGaussianBlur stdDeviation="30.5"/><feColorMatrix values="0 0 0 0 0.055528523 0 0 0 0 0.0603678861 0 0 0 0 0.129840353 0 0 0 0.373743444 0"/></filter><linearGradient x1="182.22634%" y1="-142.558496%" x2="26.4831171%" y2="100%" id="G"><stop stop-color="#72d0ff" offset="0"/><stop stop-color="#349efa" stop-opacity="0" offset="100%"/></linearGradient><linearGradient x1="50%" y1="-15.337865%" x2="50%" y2="100%" id="H"><stop stop-color="#72d0ff" offset="0"/><stop stop-color="#349efa" stop-opacity="0" offset="100%"/></linearGradient></defs><g fill="none" fill-rule="evenodd"><path fill="url(#A)" d="M0 0h619.741v410.068H0z"/><g transform="translate(238 142)"><g opacity=".882"><use fill="#000" filter="url(#D)" xlink:href="#C"/><use fill="url(#B)" xlink:href="#C"/></g><g transform="translate(106 21)"><use fill="#000" filter="url(#F)" xlink:href="#E"/><use fill="#fff" xlink:href="#E"/><g fill-rule="nonzero"><path d="M26.892 45.719l.533-3.301-1.188-.027h-5.674l3.943-24.356a.32.32 0 0 1 .11-.191c.058-.049.133-.076.21-.076h9.567c3.176 0 5.368.644 6.512 1.915.536.596.878 1.219 1.043 1.905.173.719.176 1.579.007 2.627l-.012.077v.672l.536.296c.452.233.811.501 1.086.807.459.51.756 1.158.881 1.926.13.79.087 1.73-.125 2.794-.245 1.224-.64 2.29-1.175 3.163a6.57 6.57 0 0 1-1.861 1.987c-.71.491-1.553.863-2.507 1.102-.924.234-1.978.353-3.133.353H34.9c-.532 0-1.049.187-1.455.522-.407.342-.676.809-.759 1.32l-.056.297-.942 5.818-.043.214c-.011.068-.031.101-.059.124a.16.16 0 0 1-.098.035h-4.597 0z" fill="#253b80"/><path d="M42.715 24.956h0 0l-.099.546c-1.274 6.309-5.632 8.488-11.197 8.488h-2.834c-.681.0-1.254.477-1.36 1.124h0 0l-1.451 8.876-.411 2.516c-.069.425.271.809.716.809h5.026c.595.0 1.101-.417 1.194-.983l.049-.246.946-5.793.061-.318c.093-.568.599-.985 1.194-.985h.752c4.87.0 8.682-1.907 9.796-7.426.465-2.306.224-4.231-1.007-5.585-.373-.408-.835-.747-1.376-1.023z" fill="#179bd7"/><path d="M41.549 23.802l-.62-.15-.657-.117a17.22 17.22 0 0 0-2.576-.177H29.89a1.3 1.3 0 0 0-.538.115c-.36.163-.627.484-.692.876L27 34.25l-.048.289c.109-.652.701-1.131 1.403-1.131h2.922c5.739 0 10.232-2.194 11.545-8.54a13.43 13.43 0 0 0 .102-.55 7.21 7.21 0 0 0-1.08-.429c-.096-.03-.194-.059-.294-.087h0z" fill="#222d65"/><path d="M28.901 24.761c.063-.398.323-.723.674-.886a1.23 1.23.0 0 1 .524-.116h7.597c.9.0 1.74.058 2.507.179l.64.118.603.152.287.087c.377.122.727.267 1.051.434.38-2.375-.003-3.992-1.314-5.457-1.446-1.612-4.055-2.302-7.394-2.302h-9.693c-.682.0-1.264.486-1.369 1.147l-4.037 25.062c-.08.496.311.943.822.943h5.984l1.502-9.336 1.616-10.025z" fill="#253b80"/></g></g></g><circle fill="url(#G)" cx="184" cy="288" r="13"/><circle fill="url(#H)" cx="162.84" cy="109.84" r="20.84"/><g fill-rule="nonzero"><circle fill="#651cf3" opacity=".024" cx="508" cy="82" r="13"/><circle fill="#4bbdff" opacity=".778" cx="443.874" cy="160.151" r="8.857"/><circle fill="#c9ff4a" cx="250.899" cy="312.723" r="5.21"/><path fill="#ff5f4a" opacity=".994" d="M204.625 189.042l4.375 18-20-3.484z"/><path fill="#f9ff4a" d="M317.79 86.331L338.63 82l-4.034 19.798z"/><path fill="#15ff64" opacity=".9" d="M370.435 312.541l-18.372 17.98-9.785-25.728z"/></g></g></svg>