<svg xmlns="http://www.w3.org/2000/svg" width="620" height="411" fill="none"><script xmlns=""/><g clip-path="url(#A)"><path fill="#dcf6f3" d="M0 0h619.74v410.07H0z"/><g opacity=".5" fill="#fff"><path opacity=".5" d="M299.856 256.476c-.285 70.107-30.409 142.484-92.646 175.409C163.445 455.159 60 473.04 60 397.257v-282.13c0-42.007 35.524-55.915 71.047-53.928 52.859 2.838 103.445 27.532 134.138 72.945 19.609 28.951 30.408 63.862 33.818 99.058.284 7.947.853 15.61.853 23.274z"/><path d="M397.911 231.809c-5.967-57.902-41.491-106.437-90.656-135.672-32.065-19.215-72.064-24.222-93.692 12.589-.822 1.399-1.534 2.76-2.304 4.189L68.821 374.577c-12.504 22.992-9.662 42.008 1.705 57.618 17.051 23.274 50.869 33.776 78.436 36.614 25.577 2.838 51.438 0 76.162-5.676 74.742-17.03 140.958-67.836 163.409-141.633 8.81-28.951 12.505-59.321 9.378-89.691z"/></g><g clip-path="url(#B)"><g fill="#000"><path d="M160.227 265.497v-47.306h20.142c2.26 0 4.321.477 6.225 1.391a15.26 15.26 0 0 1 4.837 3.654c1.348 1.51 2.419 3.217 3.212 5.124a14.97 14.97 0 0 1 1.149 5.799c0 2.105-.356 4.091-1.11 5.997-.713 1.907-1.744 3.615-3.053 5.124s-2.894 2.701-4.758 3.614c-1.863.874-3.925 1.351-6.185 1.351h-9.595v15.252h-10.864zm10.903-24.785h8.921c1.269 0 2.379-.556 3.331-1.668s1.388-2.741 1.388-4.885c0-1.113-.159-2.066-.436-2.86s-.674-1.47-1.15-1.986-1.031-.914-1.665-1.152a5.18 5.18 0 0 0-1.864-.358h-8.525v12.909zm27.675 24.785v-47.306h21.292c2.22 0 4.282.477 6.145 1.391a15.41 15.41 0 0 1 4.877 3.654c1.388 1.509 2.459 3.217 3.212 5.124a14.97 14.97 0 0 1 1.15 5.799c0 1.469-.159 2.899-.516 4.249s-.872 2.622-1.546 3.814a14.83 14.83 0 0 1-2.419 3.217c-.952.953-2.022 1.747-3.211 2.423l10.824 17.595h-12.331l-9.516-15.252h-7.137v15.252h-10.824v.04zm10.943-24.785h9.992c1.269 0 2.379-.596 3.33-1.827.912-1.231 1.388-2.78 1.388-4.687 0-1.946-.515-3.495-1.586-4.687-1.07-1.151-2.22-1.747-3.449-1.747h-9.675v12.948zm31.682 24.785v-47.306h10.903v47.346H241.43v-.04zm26.88-27.049v27.049h-10.904v-47.306h8.525l22.045 27.804v-27.804h10.904v47.346h-8.763l-21.807-27.089zm72.919-10.645h-14.393v37.734h-10.903v-37.734H301.5v-9.612h39.729v9.612zm2.732 37.694v-47.306h32.077v9.612h-21.173v10.208h17.446v8.858h-17.446v18.668h-10.904v-.04zm55.154-9.295c1.863 0 3.449-.397 4.718-1.152 1.269-.794 2.339-1.827 3.132-3.098s1.349-2.78 1.705-4.448c.318-1.669.516-3.377.516-5.085V218.23h10.904v24.189c0 3.297-.397 6.356-1.23 9.215s-2.101 5.323-3.806 7.468-3.886 3.813-6.503 5.044c-2.656 1.231-5.788 1.827-9.436 1.827-3.767 0-6.979-.636-9.635-1.946-2.657-1.271-4.837-3.019-6.503-5.164s-2.894-4.647-3.647-7.507c-.793-2.86-1.15-5.838-1.15-8.937V218.23h10.903v24.189c0 1.828.159 3.535.516 5.204s.951 3.098 1.744 4.408c.793 1.272 1.824 2.304 3.093 3.059 1.269.715 2.815 1.112 4.679 1.112zm26.69 9.295v-47.306h10.903v37.734h22.878v9.612h-33.781v-.04z"/></g><use href="#C" fill="#f2c994"/><path d="M192.898 207.427l36.201-62.2 36.16 62.2h-72.361z" fill="#ed4642"/><path d="M225.727 207.427l36.2-62.2 36.16 62.2h-72.36z" fill="#17bcb5"/><path d="M192.898 207.427h39.848l-19.983-34.079-19.865 34.079z" fill="#df392f"/><path d="M225.492 207.427h39.69l-19.706-33.999-19.984 33.999z" fill="#16342f"/><path d="M225.492 207.426h7.296l-3.648-6.156-3.648 6.156z" fill="#15291a"/></g></g><defs><clipPath id="A"><path fill="#fff" d="M0 0h619.74v410.07H0z"/></clipPath><clipPath id="B"><path fill="#fff" transform="translate(113 98)" d="M0 0h394v215H0z"/></clipPath><path id="C" d="M160.227 207.427l36.2-62.2 36.16 62.2h-72.36z"/></defs><script xmlns=""/></svg>
