<svg xmlns="http://www.w3.org/2000/svg" width="560" height="370" xmlns:v="https://vecta.io/nano"><defs><linearGradient x1="50%" y1="0%" x2="50%" y2="100%" id="A"><stop stop-color="#d17aff" offset="0%"/><stop stop-color="#816dff" offset="100%"/></linearGradient><linearGradient x1="50%" y1="0%" x2="50%" y2="24.3413598%" id="B"><stop stop-color="#7001e3" offset="0%"/><stop stop-color="#4600cf" stop-opacity="0" offset="100%"/></linearGradient><linearGradient x1="32.692156%" y1="21.5507952%" x2="63.2395479%" y2="67.376476%" id="C"><stop stop-color="#7001e3" offset="0%"/><stop stop-color="#4600cf" stop-opacity="0" offset="100%"/></linearGradient><linearGradient x1="18.3626033%" y1="11.383123%" x2="81.6373967%" y2="135.760286%" id="D"><stop stop-color="#c2e998" offset="0%"/><stop stop-color="#02cc87" offset="100%"/></linearGradient><linearGradient x1="50%" y1="0%" x2="50%" y2="100%" id="E"><stop stop-color="#fee5ac" offset="0%"/><stop stop-color="#ffb181" offset="100%"/></linearGradient><linearGradient x1="45.3645332%" y1="1.90983402%" x2="45.3645332%" y2="37.7296143%" id="F"><stop stop-color="#d17aff" offset="0%"/><stop stop-color="#7662f4" offset="100%"/></linearGradient><linearGradient x1="50%" y1="-6.03231107%" x2="50%" y2="35.4507547%" id="G"><stop stop-color="#f482e6" offset="0%"/><stop stop-color="#9b5eeb" offset="100%"/></linearGradient><linearGradient x1="50%" y1="0%" x2="50%" y2="100%" id="H"><stop stop-color="#8646dd" offset="0%"/><stop stop-color="#5d00ff" offset="100%"/></linearGradient><linearGradient x1="50%" y1="0%" x2="50%" y2="109.538236%" id="I"><stop stop-color="#ffd1ee" offset="0%"/><stop stop-color="#ff6baf" offset="100%"/></linearGradient><linearGradient x1="37.5214934%" y1="29.2708482%" x2="50%" y2="78.125%" id="J"><stop stop-color="#7001e3" offset="0%"/><stop stop-color="#4600cf" offset="100%"/></linearGradient></defs><g transform="translate(-8)" fill-rule="evenodd"><path fill="url(#A)" d="M8 0h560v370H8z"/><circle fill="url(#B)" opacity=".205" cx="284" cy="501" r="284"/><path d="M172 138.545c1.157-4.574 2.591-9.013 5.576-12.797 4.526-5.737 10.358-9.374 17.561-10.204 5.023-.576 9.857 1.084 14.536 2.859 2.452.925 4.798 2.136 7.479 3.351-.103-1.771-.087-3.391-.312-4.979l-6.026-41.88c-1.52-9.553 5.118-17.883 14.738-17.883L266.574 57c3.973-.016 7.104 1.422 9.079 4.896 2.018 3.561 1.698 7.107-.549 10.522-3.562 5.412-5.631 11.387-6.437 17.799-.45 3.546.81 6.579 3.116 9.184 7.669 8.652 24.199 8.763 32.101.306 3.763-4.026 4.123-8.779 2.583-13.603-1.485-4.653-3.428-9.199-5.635-13.559-1.773-3.498-2.598-6.813-.679-10.363 1.943-3.597 5.055-5.193 9.142-5.177l41.697.016c9.201.012 15.8 8.465 14.335 17.585l-6.54 44.794c-.095.663-.012 1.354-.012 2.343l2.286-1.147c5.438-2.791 11.187-4.729 17.265-5.09 6.78-.397 12.506 2.533 17.324 7.111 5.584 5.308 8.573 11.895 8.336 19.705-.126 4.07.013 8.334-1.141 12.153-3.262 10.772-10.836 17.216-21.877 18.879-3.207.48-6.769-.469-9.995-1.382-4.032-1.136-7.882-2.918-12.123-4.542.316 3.355.494 6.781.983 10.168l5.588 37.346c1.287 8.397-5.264 16.771-13.794 16.898-14.501.218-29.009.202-43.51.004-7.353-.099-11.428-8.556-7.377-14.957 3.38-5.332 5.56-11.042 6.543-17.295.699-4.407-.758-7.937-3.779-10.899-7.598-7.46-22.213-7.699-30.174-.584-3.842 3.434-5.157 7.655-4.202 12.725 1.078 5.741 3.163 11.03 6.235 15.993 3.748 6.039.833 13.241-5.896 14.857-.798.191-1.643.23-2.468.23-13.75.008-27.501.016-41.247-.004-10.101-.016-16.491-8.08-14.896-18.046 2.361-14.75 4.316-29.568 6.425-44.354.095-.663.012-1.354.012-2.323l-2.267 1.108c-5.414 2.871-11.191 4.602-17.249 5.15-5.011.449-9.513-1.449-13.616-4.149-6.156-4.05-9.983-9.795-11.634-17.005-.115-.496-.351-.965-.529-1.445v-12.304z" fill="url(#C)" opacity=".13"/><path d="M294.962 119.61h-13.706c-1.47 0-2.539-.759-2.924-2.195l-1.497-6.025c-.307-1.332.314-2.552 1.52-3.167 1.251-.639 2.542-.414 3.481.606l.149.173c1.433 2.018 3.431 2.094 5.316 1.517 2.511-.769 4.206-3.28 4.045-5.877-.167-2.702-2.101-4.952-4.718-5.446-1.855-.35-3.451.055-4.631 1.673-1.098 1.506-2.892 1.391-4.046.56-.996-.716-1.369-1.733-1.116-2.894l1.501-6.072c.378-1.404 1.465-2.175 2.896-2.176l7.058-.002c2.028-.006 3.369-1.638 2.963-3.629-.073-.36-.279-.702-.473-1.021a1.82 1.82 0 0 0-.538-.553c-2.72-1.778-2.007-5.702-.319-7.523 1.732-1.869 4.383-2.472 6.66-1.467 2.348 1.035 3.745 3.432 3.498 6.022-.094.996-.485 1.851-1.259 2.506a21.02 21.02 0 0 0-.62.54c-.994.902-1.269 2.008-.805 3.227.461 1.21 1.459 1.899 2.781 1.899l8.516.002c1.831.001 3.061 1.218 3.062 3.058l-.002 23.365c-.002 1.615-1.286 2.896-2.901 2.897l-13.889.001" fill="url(#D)" transform="matrix(.906308 .422618 -.422618 .906308 68.821696 -115.212598)"/><path d="M384.486 206.875l-7.808-3.641c-.838-.391-1.242-1.112-1.076-2.043l.767-3.873c.183-.85.865-1.388 1.717-1.423a1.73 1.73 0 0 1 1.82 1.274l.038.14c.274 1.545 1.392 2.119 2.62 2.287 1.637.224 3.278-.774 3.885-2.315.631-1.603.135-3.414-1.223-4.394-.963-.695-1.981-.885-3.088-.265-1.031.577-2.021.034-2.455-.751-.375-.678-.314-1.363.143-1.966l2.488-3.103c.593-.709 1.419-.865 2.235-.485l4.021 1.874c1.157.535 2.36-.05 2.664-1.306.055-.227.03-.479.005-.715a1.15 1.15 0 0 0-.158-.462c-1.072-1.748.39-3.822 1.842-4.424 1.49-.618 3.162-.261 4.189.923 1.059 1.221 1.21 2.974.373 4.402-.322.549-.774.939-1.391 1.111l-.498.147c-.809.256-1.263.821-1.327 1.647s.321 1.483 1.073 1.834l4.851 2.263c1.043.487 1.416 1.515.922 2.577l-6.285 13.475c-.435.931-1.512 1.328-2.432.9l-7.912-3.689M416 153v-6.979l.682.32c.665.289 1.334.526 2.087.464 1.661-.136 3.216-1.617 3.407-3.289.248-2.168-1.037-3.966-3.145-4.393a2.93 2.93 0 0 0-1.686.159l-1.333.56V133h19.747v6.897l1.283-.546c1.981-.847 4.53.634 4.909 3.034.333 2.107-1.105 4.033-3.069 4.437-.883.181-1.669-.075-2.451-.422l-.663-.316V153H416z" fill-opacity=".13" fill="#fff"/><path d="M213.003 118.97l.005-5.313c.005-.626-.018-1.27.111-1.878.356-1.662 1.79-2.869 3.504-2.91l6.738-.028h.592l-1.207-2.982c-.364-1.054-.509-2.156-.245-3.258.407-1.704 1.55-2.751 3.191-3.277 1.384-.444 2.787-.427 4.17.026 2.503.821 3.724 3.083 3.018 5.792-.297 1.137-.851 2.209-1.29 3.31-.043.107-.098.21-.183.389h.631l6.261-.014c2.39-.076 4.238 1.712 4.172 4.149l-.006 5.622v.467l3.026-1.071c.919-.279 1.876-.361 2.829-.148a4.26 4.26 0 0 1 3.082 2.498 6.3 6.3 0 0 1 .158 5.006c-.82 2.18-2.847 3.359-5.145 2.893-1.179-.239-2.308-.725-3.458-1.104-.144-.048-.278-.124-.497-.223v.696l-.005 6.411c-.017 2.016-1.213 3.515-3.097 3.905-.307.064-.632.067-.949.068l-6.42.003h-.535l.264-.506c.712-1.249 1.152-2.586 1.326-4.009.302-2.471-1.415-4.626-4.032-5.06-1.006-.167-2.003-.156-2.996.101-2.641.68-4.018 2.834-3.533 5.496.253 1.389.769 2.677 1.535 3.978h-.793c-2.087 0-4.175.008-6.262-.002-2.338-.011-3.954-1.626-3.959-3.943l-.001-6.515v-.42l3.019.993c3.888.98 6.288-1.643 6.266-5.096-.009-1.441-.369-2.776-1.384-3.863-1.375-1.474-3.112-1.619-4.937-1.18-1 .241-1.957.655-2.964 1.001" fill="url(#E)"/><path d="M130.002 198.826l.003-3.678c.003-.434-.013-.879.08-1.3.256-1.151 1.285-1.986 2.516-2.015l4.838-.02h.425l-.866-2.064c-.262-.73-.365-1.492-.176-2.256.292-1.18 1.113-1.905 2.291-2.269a4.93 4.93 0 0 1 2.994.018c1.797.569 2.674 2.134 2.167 4.01-.213.787-.611 1.529-.926 2.291-.031.074-.07.145-.131.269h.453l4.495-.01c1.716-.053 3.043 1.185 2.995 2.873l-.005 3.892v.323l2.172-.742c.66-.193 1.347-.25 2.031-.103 1.038.223 1.779.816 2.213 1.73a4.22 4.22 0 0 1 .114 3.466c-.589 1.509-2.044 2.326-3.694 2.003-.847-.165-1.657-.502-2.483-.765-.104-.033-.2-.086-.357-.155v.482l-.003 4.438c-.012 1.395-.871 2.433-2.224 2.703-.22.044-.453.046-.681.047l-4.609.002h-.384l.189-.35a7.17 7.17 0 0 0 .952-2.776c.217-1.711-1.016-3.202-2.895-3.503-.722-.115-1.438-.108-2.151.07-1.896.471-2.885 1.962-2.536 3.805.182.962.552 1.853 1.102 2.754h-.569c-1.499 0-2.997.006-4.496-.001-1.679-.008-2.839-1.126-2.842-2.73l-.001-4.51v-.291l2.167.687c2.791.678 4.514-1.137 4.499-3.528-.007-.998-.265-1.922-.994-2.674-.987-1.02-2.234-1.121-3.544-.817-.718.167-1.405.453-2.128.693" fill-opacity=".13" fill="#fff"/><path fill="url(#F)" d="M287 176.724l51 18.223v62.509l-51-12.911z"/><path fill="url(#G)" transform="matrix(-1 0 0 1 523 0)" d="M236 176.724l51 18.223v62.509l-51-12.911z"/><path d="M339.912 226.56v30.723c-.008 3.659-1.817 6.229-5.265 7.427l-42.883 14.824c-3.338 1.148-6.75 1.116-10.083-.032l-42.875-14.848c-3.299-1.148-5.128-3.72-5.134-7.198v-41.598c.008-3.831 1.819-5.034 5.468-3.725l34.635 12.376c3.499 1.243 6.071.153 7.693-3.207 1.069-2.219 2.056-4.481 3.243-6.637.411-.75 1.337-1.74 1.977-1.706.761.042 1.719.932 2.148 1.698 1.227 2.19 2.222 4.507 3.32 6.769 1.561 3.217 4.231 4.312 7.629 3.099l34.638-12.387.711-.245c2.83-.921 4.731.387 4.76 3.338l.008 11.328h.011z" fill="url(#H)"/><path d="M286.699 177.252l-50.744 17.689 7.037 2.501 42.438 14.753c.737.255 1.706.332 2.425.087l48.135-16.744c.416-.142.816-.337 1.53-.632l-50.673-17.668 5.647-12.653 3.846-8.522c1.293-2.814 3.933-3.996 6.871-2.983l41.011 14.272c3.141 1.098 4.117 3.528 2.738 6.618l-8.854 19.669c-.442.969-.408 1.722.026 2.672l8.783 19.534c1.464 3.27.487 5.568-2.891 6.753l-40.137 14.027c-3.815 1.329-6.208.245-7.885-3.496l-8.393-18.718-.835-1.772-3.475 7.695-5.839 13.084c-1.503 3.351-4.041 4.481-7.482 3.286L229.26 222.51c-2.943-1.027-3.999-3.486-2.712-6.382l8.898-19.813c.432-.948.466-1.711.024-2.677l-8.854-19.671c-1.414-3.167-.374-5.539 2.872-6.666l40.301-14.019c3.694-1.285 6.121-.234 7.706 3.304l8.704 19.405.5 1.261" fill="url(#I)"/><path d="M261 176.115c.173-.68.387-1.339.833-1.901.676-.852 1.548-1.393 2.624-1.516.751-.086 1.473.161 2.172.425.366.137.717.317 1.118.498l-.047-.74-.9-6.222c-.227-1.419.765-2.657 2.202-2.657l6.13-.002c.594-.002 1.062.211 1.357.727.302.529.254 1.056-.082 1.563a6.11 6.11 0 0 0-.962 2.644c-.067.527.121.977.466 1.364 1.146 1.285 3.616 1.302 4.797.045.562-.598.616-1.304.386-2.021-.222-.691-.512-1.367-.842-2.014-.265-.52-.388-1.012-.101-1.54.29-.534.755-.772 1.366-.769l6.231.002c1.375.002 2.361 1.258 2.142 2.613l-.977 6.655c-.014.099-.002.201-.002.348l.342-.17c.813-.415 1.672-.703 2.58-.756 1.013-.059 1.869.376 2.589 1.056.834.789 1.281 1.767 1.246 2.928-.019.605.002 1.238-.171 1.806-.487 1.6-1.619 2.558-3.269 2.805-.479.071-1.011-.07-1.493-.205-.602-.169-1.178-.434-1.812-.675l.147 1.511.835 5.549c.192 1.248-.787 2.492-2.061 2.511l-6.501.001c-1.099-.015-1.708-1.271-1.102-2.222.505-.792.831-1.64.978-2.57.104-.655-.113-1.179-.565-1.619-1.135-1.108-3.319-1.144-4.509-.087-.574.51-.771 1.137-.628 1.891.161.853.473 1.639.932 2.376.56.897.125 1.967-.881 2.207-.119.028-.245.034-.369.034-2.055.001-4.109.002-6.163-.001-1.509-.002-2.464-1.2-2.226-2.681l.96-6.59c.014-.099.002-.201.002-.345l-.339.165c-.809.426-1.672.684-2.577.765-.749.067-1.421-.215-2.035-.616-.92-.602-1.492-1.455-1.738-2.527-.017-.074-.053-.143-.079-.215v-1.828z" fill="url(#J)"/><path d="M115 113.251c.15-.575.335-1.133.721-1.609.585-.721 1.339-1.178 2.271-1.283.65-.072 1.275.136 1.88.359.317.116.62.269.967.421l-.04-.626-.779-5.265c-.197-1.201.662-2.248 1.906-2.248l5.305-.002c.514-.002.919.179 1.174.615.261.448.22.893-.071 1.323-.461.68-.728 1.432-.832 2.238-.058.446.105.827.403 1.155.992 1.088 3.129 1.102 4.151.038.487-.506.533-1.104.334-1.71-.192-.585-.443-1.157-.729-1.705-.229-.44-.336-.857-.088-1.303.251-.452.654-.653 1.182-.651l5.392.002c1.19.001 2.043 1.064 1.854 2.211l-.846 5.631c-.012.083-.002.17-.002.294l.296-.144c.703-.351 1.447-.594 2.233-.64.877-.05 1.617.318 2.24.894.722.667 1.109 1.495 1.078 2.477-.016.512.002 1.048-.148 1.528-.422 1.354-1.401 2.164-2.829 2.373-.415.06-.875-.059-1.292-.174-.521-.143-1.019-.367-1.568-.571l.127 1.278.723 4.695c.166 1.056-.681 2.108-1.784 2.124h-5.626c-.951-.012-1.478-1.076-.954-1.88.437-.67.719-1.388.846-2.174.09-.554-.098-.998-.489-1.37-.982-.938-2.872-.968-3.902-.073-.497.432-.667.962-.543 1.6.139.722.409 1.387.806 2.011.485.759.108 1.665-.762 1.868a1.42 1.42 0 0 1-.319.029c-1.778.001-3.556.002-5.334 0-1.306-.002-2.132-1.016-1.926-2.269l.831-5.576c.012-.083.002-.17.002-.292l-.293.139a5.98 5.98 0 0 1-2.23.647c-.648.056-1.23-.182-1.761-.522a3.36 3.36 0 0 1-1.504-2.138c-.015-.062-.045-.121-.068-.182v-1.547z" fill-opacity=".13" fill="#fff"/></g></svg>