<svg width="595" height="394" fill="none" xmlns="http://www.w3.org/2000/svg"><rect width="594.752" height="393.533" rx="20" fill="url(#a)"/><circle opacity=".778" cx="187.126" cy="244.849" r="8.857" transform="rotate(-180 187.126 244.849)" fill="#fff"/><circle cx="380.101" cy="92.277" r="5.21" transform="rotate(-180 380.101 92.277)" fill="#fff" fill-opacity=".566"/><path opacity=".994" d="m426.375 215.958-4.375-18 20 3.484-15.625 14.516z" fill="#FDFF4A"/><path opacity=".9" d="m260.565 92.46 18.372-17.981 9.785 25.728-28.157-7.748z" fill="#15E0FF"/><circle opacity=".281" cx="457" cy="261" r="20" transform="rotate(-180 457 261)" fill="url(#b)"/><circle opacity=".281" cx="174" cy="122" r="20" fill="url(#c)"/><path fill-rule="evenodd" clip-rule="evenodd" d="m368.063 125-90.386 34.123h-42.135a6 6 0 0 0-6 6v11.171S223 182.723 223 189.878v12.4h6.542v6.816a6 6 0 0 0 6 6h42.135l90.386 34.948a2.403 2.403 0 0 0 2.402-2.402v-45.629c4.07-2.726 6.841-8.126 6.841-14.343 0-6.216-2.771-11.616-6.841-14.343v-45.923a2.402 2.402 0 0 0-2.402-2.402zM244.33 218.452a4 4 0 0 0-3.947 4.65l6.781 41.17a5.999 5.999 0 0 0 5.627 5.018l11.364.556a3 3 0 0 0 3.147-2.996v-29.367h1.659a2 2 0 0 0 2-2v-8.314a2 2 0 0 0-2-2h-1.659v-4.717a2 2 0 0 0-2-2H244.33z" fill="url(#d)"/><defs><linearGradient id="a" x1="112.141" y1="-74.964" x2="86.647" y2="376.183" gradientUnits="userSpaceOnUse"><stop stop-color="#7F6FFF"/><stop offset="1" stop-color="#06F"/></linearGradient><linearGradient id="b" x1="460.135" y1="240.985" x2="440.556" y2="260.481" gradientUnits="userSpaceOnUse"><stop stop-color="#86A3FF"/><stop offset="1" stop-color="#6EDBEF" stop-opacity=".01"/></linearGradient><linearGradient id="c" x1="177.135" y1="101.985" x2="157.556" y2="121.481" gradientUnits="userSpaceOnUse"><stop stop-color="#86A3FF"/><stop offset="1" stop-color="#6EDBEF" stop-opacity=".01"/></linearGradient><linearGradient id="d" x1="223" y1="125" x2="223" y2="269.85" gradientUnits="userSpaceOnUse"><stop stop-color="#EDEFFF"/><stop offset="1" stop-color="#0B67FF"/></linearGradient></defs></svg>