<svg xmlns="http://www.w3.org/2000/svg" xmlns:xlink="http://www.w3.org/1999/xlink" width="620" height="410" xmlns:v="https://vecta.io/nano"><style><![CDATA[.B{mask:url(#O)}]]></style><defs><linearGradient x1="87.2414247%" y1="100%" x2="23.9228513%" y2="10.4778368%" id="A"><stop stop-color="#d7cbff" stop-opacity="0" offset="0%"/><stop stop-color="#5f58ff" offset="100%"/></linearGradient><linearGradient x1="51.4030958%" y1="28.0755596%" x2="50%" y2="71.9244404%" id="B"><stop stop-color="#89c5ff" offset="0%"/><stop stop-color="#6fb5fd" offset="100%"/></linearGradient><path id="C" d="M0 0h619.162v410H0z"/><path id="D" d="M1.007 133.198l149.848-2.945-72.575 43.469z"/><filter x="-31.0%" y="-93.2%" width="162.1%" height="313.9%" id="E"><feOffset dy="6" in="SourceAlpha"/><feGaussianBlur stdDeviation="14.5"/><feColorMatrix values="0 0 0 0 0.0676629318   0 0 0 0 0.384374986   0 0 0 0 0.705814085  0 0 0 0.459544362 0"/></filter><linearGradient x1="39.8647537%" y1="-7.01458784%" x2="39.8647537%" y2="100%" id="F"><stop stop-color="#f1f7ff" offset="0%"/><stop stop-color="#73b7fd" offset="100%"/></linearGradient><linearGradient x1="37.0905427%" y1="17.8247045%" x2="34.6146936%" y2="92.196124%" id="G"><stop stop-color="#e1eeff" offset="0%"/><stop stop-color="#5faaf7" offset="100%"/></linearGradient><linearGradient x1="50%" y1="40.0531821%" x2="52.8994751%" y2="65.0208547%" id="H"><stop stop-color="#f1f7ff" offset="0%"/><stop stop-color="#73b7fd" offset="100%"/></linearGradient><linearGradient x1="50%" y1="0%" x2="50%" y2="100%" id="I"><stop stop-color="#fff" offset="0%"/></linearGradient><circle id="J" cx="153.49" cy="40.063" r="40.063"/><filter x="-34.9%" y="-17.5%" width="169.9%" height="169.9%" id="K"><feOffset dy="14" in="SourceAlpha"/><feGaussianBlur stdDeviation="7"/><feColorMatrix values="0 0 0 0 0   0 0 0 0 0   0 0 0 0 0  0 0 0 0.127021416 0"/></filter><linearGradient x1="50%" y1="0%" x2="50%" y2="100%" id="L"><stop stop-color="#ffa9c1" offset="0%"/><stop stop-color="#ff3bc3" offset="100%"/></linearGradient><linearGradient x1="69.4268817%" y1="2.57963193%" x2="-2.57963193%" y2="69.4268817%" id="M"><stop stop-color="#86c3fe" stop-opacity="0" offset="0%"/><stop stop-color="#4999e6" offset="100%"/></linearGradient><linearGradient x1="66.8472498%" y1="72.0065136%" x2="0%" y2="0%" id="N"><stop stop-color="#86c3fe" stop-opacity="0" offset="0%"/><stop stop-color="#4999e6" offset="100%"/></linearGradient></defs><g fill="none" fill-rule="evenodd"><circle fill="url(#A)" opacity=".392" cx="352.246" cy="337.678" r="8.845"/><mask id="O" fill="#fff"><use xlink:href="#C"/></mask><use fill="url(#B)" xlink:href="#C"/><g class="B"><g transform="translate(217.487 119.67)"><use fill="#000" filter="url(#E)" xlink:href="#D"/><use fill="#d8d8d8" xlink:href="#D"/><path fill="url(#F)" d="M0 53.071l78.046 33.835.257 87.874L0 136.302z"/><path fill="url(#G)" d="M78.046 86.906l73.883-33.835v80.136l-73.646 41.568z"/><path fill="url(#H)" d="M78.088 87.492L.097 53.971l75.169-34.2 76.663 32.649z"/><use fill="#000" filter="url(#K)" xlink:href="#J"/><use fill="url(#I)" xlink:href="#J"/><path d="M154.53 57.234a2.6 2.6 0 1 1 0 5.203 2.6 2.6 0 1 1 0-5.203zm6.311-31.336c.847.748 1.606 1.654 2.258 2.692 1.843 2.938 1.256 7.344 1.12 8.198-.277 1.735-.899 3.424-1.852 5.021a17.54 17.54 0 0 1-1.917 2.608l-.455.51c-.877.975-1.348 1.522-1.632 2.35-.411 1.197-.514 2.524-.29 3.737.265 1.436-.737 2.805-2.237 3.058-.162.028-.324.041-.483.041-1.314 0-2.477-.901-2.714-2.181-.384-2.084-.218-4.263.481-6.302.641-1.866 1.684-3.026 2.693-4.148l.419-.469c.528-.599.98-1.211 1.341-1.819.616-1.032 1.016-2.11 1.19-3.202.289-1.812.115-3.869-.397-4.685-.381-.608-.808-1.122-1.268-1.528-1.785-1.575-5.512-2.091-7.823-1.082-2.862 1.252-4.12 4.491-4.327 6.884-.125 1.453-1.457 2.537-2.976 2.413s-2.648-1.396-2.522-2.848c.346-3.998 2.507-9.053 7.532-11.251 4.345-1.899 10.431-1.02 13.858 2.003z" fill="url(#L)" transform="matrix(.997564 .069756 -.069756 .997564 3.346249 -10.494097)"/></g><circle fill="url(#M)" opacity=".3" cx="402.716" cy="265.355" r="20.812"/><circle fill="url(#N)" opacity=".619" cx="193.553" cy="113.426" r="20.812"/></g><g fill-rule="nonzero" class="B"><circle fill="#b7f312" opacity=".749" cx="427.17" cy="222.17" r="8.845"/><circle fill="#48e9d6" opacity=".866" cx="297.614" cy="330.914" r="5.203"/><circle fill="#8848e9" opacity=".866" cx="173.782" cy="198.756" r="5.203"/><path fill="#b83bf4" opacity=".994" d="M276.087 95.736l5.918 24.975-27.056-4.834z"/><path fill-opacity=".787" fill="#f14a4a" transform="matrix(0 -1 1 0 -106.662437 496.890863)" d="M200.675 291.371L205 312.183l-19.772-4.028z"/><path fill-opacity=".675" fill="#0f4bf1" opacity=".9" transform="matrix(.515038 .857167 -.857167 .515038 452.376844 -162.047025)" d="M376.983 306.276l5.942 24.975-27.056-4.857z"/></g></g></svg>