<svg width="102" height="68" viewBox="0 0 102 68" fill="none" xmlns="http://www.w3.org/2000/svg">
<g clip-path="url(#clip0_8600_3085)">
<rect x="0.387695" y="0.746094" width="101.542" height="67.0898" rx="3" fill="url(#paint0_linear_8600_3085)"/>
<g filter="url(#filter0_d_8600_3085)">
<rect x="31.6489" y="17.9521" width="35.1374" height="35.1374" rx="17.5687" fill="white"/>
</g>
<g filter="url(#filter1_d_8600_3085)">
<path d="M41.6533 46.7122L41.141 45.9462C41.1069 45.9507 41.077 45.9507 41.0428 45.9507H40.4751V46.7122H40.0098V44.0938H41.0428C41.7045 44.0938 42.1143 44.4455 42.1143 45.0244C42.1143 45.4208 41.9222 45.7147 41.5807 45.8527L42.1613 46.7122H41.6533ZM41.0215 44.5034H40.4751V45.5499H41.0215C41.4313 45.5499 41.6405 45.354 41.6405 45.0244C41.6405 44.6949 41.4313 44.5034 41.0215 44.5034Z" fill="#737BF3"/>
<path d="M44.1759 45.5415V46.7126H43.7533V46.4677C43.6466 46.6414 43.4374 46.7393 43.1514 46.7393C42.716 46.7393 42.4385 46.49 42.4385 46.1426C42.4385 45.8086 42.6562 45.5459 43.2368 45.5459H43.732V45.5147C43.732 45.2431 43.574 45.0783 43.2538 45.0783C43.0404 45.0783 42.8184 45.154 42.6733 45.2787L42.4982 44.9403C42.7031 44.7755 43.002 44.6954 43.3093 44.6954C43.8558 44.6909 44.1759 44.967 44.1759 45.5415ZM43.7277 46.0892V45.8576H43.2666C42.9636 45.8576 42.8782 45.9779 42.8782 46.1248C42.8782 46.294 43.0148 46.4009 43.2453 46.4009C43.463 46.3965 43.6508 46.294 43.7277 46.0892Z" fill="#737BF3"/>
<path d="M46.6393 45.5677V46.7121H46.1911V45.6256C46.1911 45.2693 46.0203 45.0957 45.7343 45.0957C45.4141 45.0957 45.2007 45.2961 45.2007 45.6968V46.7077H44.7524V44.7127H45.1793V44.971C45.3287 44.7884 45.5593 44.6904 45.841 44.6904C46.2978 44.6904 46.6393 44.9665 46.6393 45.5677Z" fill="#737BF3"/>
<path d="M47.9926 45.8573L47.6597 46.1869V46.7123H47.2114V43.9336H47.6597V45.6124L48.5903 44.7129H49.1282L48.3256 45.5501L49.2007 46.7079H48.6543L47.9926 45.8573Z" fill="#737BF3"/>
<path d="M51.8389 46.7122L51.8346 44.9755L51.0107 46.4138H50.8016L49.9777 44.9977V46.7122H49.5337V44.0938H49.9179L50.9168 45.8305L51.8987 44.0938H52.2829L52.2871 46.7122H51.8389Z" fill="#737BF3"/>
<path d="M54.5197 45.5415V46.7126H54.097V46.4677C53.9903 46.6414 53.7812 46.7393 53.4951 46.7393C53.0597 46.7393 52.7822 46.49 52.7822 46.1426C52.7822 45.8086 52.9999 45.5504 53.5805 45.5504H54.0757V45.5192C54.0757 45.2476 53.9178 45.0828 53.5976 45.0828C53.3841 45.0828 53.1622 45.1585 53.017 45.2832L52.842 44.9403C53.0469 44.7755 53.3457 44.6954 53.6531 44.6954C54.1995 44.6909 54.5197 44.967 54.5197 45.5415ZM54.0714 46.0892V45.8576H53.6104C53.3073 45.8576 53.2219 45.9779 53.2219 46.1248C53.2219 46.294 53.3585 46.4009 53.5891 46.4009C53.8068 46.3965 53.9946 46.294 54.0714 46.0892Z" fill="#737BF3"/>
<path d="M56.2442 46.6059C56.1375 46.695 55.9752 46.7395 55.813 46.7395C55.3947 46.7395 55.1513 46.5079 55.1513 46.0671V45.1052H54.8354V44.7311H55.1513V44.2725H55.5996V44.7267H56.1119V45.1007H55.5996V46.0537C55.5996 46.2496 55.6935 46.3521 55.8643 46.3521C55.9539 46.3565 56.0436 46.3253 56.1161 46.2719L56.2442 46.6059Z" fill="#737BF3"/>
<path d="M58.5026 45.5679V46.7123H58.0543V45.6258C58.0543 45.2695 57.8836 45.0959 57.5976 45.0959C57.2774 45.0959 57.064 45.2962 57.064 45.697V46.7079H56.6157V43.9336H57.064V44.9444C57.2134 44.7797 57.4396 44.6906 57.7043 44.6906C58.1611 44.6906 58.5026 44.9667 58.5026 45.5679Z" fill="#737BF3"/>
<path d="M61.4014 35.043L57.3867 35.2264L58.09 36.3727L51.4087 40.8357L44.786 37.9317L37.0791 41.2789L37.6066 42.6239L44.7714 39.5059L51.5406 42.4711L58.8373 37.6107L59.5406 38.7723L61.4014 35.043Z" fill="url(#paint1_linear_8600_3085)"/>
<path d="M39.9214 39.323L44.7712 37.2138L45.0056 37.3208V34.3251H39.9214V39.323ZM51.0276 27.0498V39.9496L51.4085 40.1178L56.1118 36.9845V27.0498H51.0276ZM45.4745 37.5195L50.5587 39.751V30.6874H45.4745V37.5195Z" fill="url(#paint2_linear_8600_3085)"/>
</g>
<rect x="43.0635" y="10.7295" width="11.05" height="11.05" rx="5.525" fill="url(#paint3_linear_8600_3085)"/>
<rect x="43.0635" y="10.7295" width="11.05" height="11.05" rx="5.525" fill="url(#paint4_linear_8600_3085)"/>
<path opacity="0.5" d="M49.6464 16.1197C49.6421 17.1753 49.1892 18.265 48.2532 18.7608C47.5951 19.1112 46.0396 19.3804 46.0396 18.2394C46.0396 18.2394 46.0396 13.9958 46.0396 13.9915C46.0396 13.359 46.5737 13.1496 47.1079 13.1795C47.9028 13.2223 48.6635 13.5941 49.1251 14.2778C49.4199 14.7137 49.5823 15.2394 49.6336 15.7693C49.6379 15.8889 49.6464 16.0043 49.6464 16.1197Z" fill="white"/>
<path d="M51.1206 15.7482C51.0309 14.8764 50.4967 14.1456 49.7573 13.7054C48.8325 13.1505 48.0611 14.4245 47.5458 15.372C46.9372 16.4913 46.193 17.8589 46.1723 17.897C46.1712 17.899 46.1713 17.8988 46.1702 17.9009C45.9841 18.2456 46.027 18.531 46.1975 18.7653C46.4539 19.1158 46.9624 19.2739 47.377 19.3166C47.7616 19.3594 48.1505 19.3166 48.5223 19.2311C49.6462 18.9747 50.642 18.2098 50.9796 17.0986C51.1121 16.6627 51.1676 16.2055 51.1206 15.7482Z" fill="white"/>
<g filter="url(#filter2_d_8600_3085)">
<circle cx="65.8021" cy="52.8567" r="4.40069" fill="white"/>
</g>
<path d="M65.8793 53.2152H65.3777L65.3777 52.6339L65.8793 52.6339L65.8793 52.3622H65.3777L65.3777 51.9618L64.4248 51.9618C63.9793 51.9618 63.6145 52.3291 63.5941 52.7887L62.8661 52.7887L62.8661 53.0604L63.5941 53.0604C63.6035 53.2769 63.6888 53.479 63.8367 53.6333C63.9938 53.7971 64.2026 53.8874 64.4248 53.8874L65.3777 53.8874V53.4869L65.8793 53.4869L65.8793 53.2152ZM64.4248 53.6157C64.2722 53.6157 64.1288 53.5537 64.0209 53.4412C63.913 53.3286 63.8536 53.179 63.8536 53.0198L63.8536 52.8293C63.8536 52.5007 64.1098 52.2334 64.4248 52.2334L65.1172 52.2334L65.1172 53.6157L64.4248 53.6157Z" fill="url(#paint5_linear_8600_3085)"/>
<path d="M68.7127 53.0927L68.7127 52.8211L67.9848 52.8211C67.9753 52.6046 67.89 52.4025 67.7421 52.2482C67.585 52.0843 67.3762 51.9941 67.154 51.9941L66.2012 51.9941L66.2012 53.9197L67.154 53.9197C67.5996 53.9197 67.9643 53.5523 67.9847 53.0927L68.7127 53.0927ZM67.154 53.648L66.4616 53.648L66.4616 52.2658L67.154 52.2658C67.3066 52.2658 67.4501 52.3278 67.558 52.4403C67.6659 52.5528 67.7253 52.7025 67.7253 52.8616L67.7253 53.0522C67.7253 53.3807 67.469 53.648 67.154 53.648Z" fill="url(#paint6_linear_8600_3085)"/>
</g>
<defs>
<filter id="filter0_d_8600_3085" x="0.0229893" y="8.6504" width="98.3891" height="98.3896" filterUnits="userSpaceOnUse" color-interpolation-filters="sRGB">
<feFlood flood-opacity="0" result="BackgroundImageFix"/>
<feColorMatrix in="SourceAlpha" type="matrix" values="0 0 0 0 0 0 0 0 0 0 0 0 0 0 0 0 0 0 127 0" result="hardAlpha"/>
<feOffset dy="22.3242"/>
<feGaussianBlur stdDeviation="15.813"/>
<feComposite in2="hardAlpha" operator="out"/>
<feColorMatrix type="matrix" values="0 0 0 0 0 0 0 0 0 0 0 0 0 0 0 0 0 0 0.12 0"/>
<feBlend mode="normal" in2="BackgroundImageFix" result="effect1_dropShadow_8600_3085"/>
<feBlend mode="normal" in="SourceGraphic" in2="effect1_dropShadow_8600_3085" result="shape"/>
</filter>
<filter id="filter1_d_8600_3085" x="24.9868" y="14.9575" width="65.2499" height="60.6171" filterUnits="userSpaceOnUse" color-interpolation-filters="sRGB">
<feFlood flood-opacity="0" result="BackgroundImageFix"/>
<feColorMatrix in="SourceAlpha" type="matrix" values="0 0 0 0 0 0 0 0 0 0 0 0 0 0 0 0 0 0 127 0" result="hardAlpha"/>
<feOffset dx="8.37157" dy="8.37157"/>
<feGaussianBlur stdDeviation="10.2319"/>
<feComposite in2="hardAlpha" operator="out"/>
<feColorMatrix type="matrix" values="0 0 0 0 0 0 0 0 0 0 0 0 0 0 0 0 0 0 0.1 0"/>
<feBlend mode="normal" in2="BackgroundImageFix" result="effect1_dropShadow_8600_3085"/>
<feBlend mode="normal" in="SourceGraphic" in2="effect1_dropShadow_8600_3085" result="shape"/>
</filter>
<filter id="filter2_d_8600_3085" x="41.4014" y="28.4561" width="28.8013" height="28.8018" filterUnits="userSpaceOnUse" color-interpolation-filters="sRGB">
<feFlood flood-opacity="0" result="BackgroundImageFix"/>
<feColorMatrix in="SourceAlpha" type="matrix" values="0 0 0 0 0 0 0 0 0 0 0 0 0 0 0 0 0 0 127 0" result="hardAlpha"/>
<feOffset dx="-10" dy="-10"/>
<feGaussianBlur stdDeviation="5"/>
<feComposite in2="hardAlpha" operator="out"/>
<feColorMatrix type="matrix" values="0 0 0 0 0 0 0 0 0 0 0 0 0 0 0 0 0 0 0.1 0"/>
<feBlend mode="normal" in2="BackgroundImageFix" result="effect1_dropShadow_8600_3085"/>
<feBlend mode="normal" in="SourceGraphic" in2="effect1_dropShadow_8600_3085" result="shape"/>
</filter>
<linearGradient id="paint0_linear_8600_3085" x1="51.1586" y1="0.746094" x2="51.1586" y2="67.8359" gradientUnits="userSpaceOnUse">
<stop stop-color="#C27EFD"/>
<stop offset="1" stop-color="#3478EB"/>
</linearGradient>
<linearGradient id="paint1_linear_8600_3085" x1="49.2402" y1="35.043" x2="49.2402" y2="42.6239" gradientUnits="userSpaceOnUse">
<stop stop-color="#C17EFD"/>
<stop offset="1" stop-color="#3B79EC"/>
</linearGradient>
<linearGradient id="paint2_linear_8600_3085" x1="48.0166" y1="27.0498" x2="48.0166" y2="40.1178" gradientUnits="userSpaceOnUse">
<stop stop-color="#C17EFD"/>
<stop offset="1" stop-color="#3B79EC"/>
</linearGradient>
<linearGradient id="paint3_linear_8600_3085" x1="48.5885" y1="10.7295" x2="48.5885" y2="21.7795" gradientUnits="userSpaceOnUse">
<stop stop-color="#FF7D92"/>
<stop offset="0.229167" stop-color="#E3397D"/>
<stop offset="0.635417" stop-color="#800CD2"/>
<stop offset="1" stop-color="#5812D0"/>
</linearGradient>
<linearGradient id="paint4_linear_8600_3085" x1="48.5885" y1="10.7295" x2="48.5885" y2="21.7795" gradientUnits="userSpaceOnUse">
<stop stop-color="#FF7D92"/>
<stop offset="0.229167" stop-color="#E3397D"/>
<stop offset="0.635417" stop-color="#800CD2"/>
<stop offset="1" stop-color="#5812D0"/>
</linearGradient>
<linearGradient id="paint5_linear_8600_3085" x1="65.4978" y1="51.9642" x2="63.5788" y2="53.8038" gradientUnits="userSpaceOnUse">
<stop stop-color="#28CC70"/>
<stop offset="1" stop-color="#23B2D1"/>
</linearGradient>
<linearGradient id="paint6_linear_8600_3085" x1="67.9517" y1="52.0273" x2="66.0941" y2="53.808" gradientUnits="userSpaceOnUse">
<stop stop-color="#28CC70"/>
<stop offset="1" stop-color="#23B2D1"/>
</linearGradient>
<clipPath id="clip0_8600_3085">
<rect width="101.542" height="67.0898" fill="white" transform="translate(0.387695 0.746094)"/>
</clipPath>
</defs>
</svg>
