<svg xmlns="http://www.w3.org/2000/svg" xmlns:xlink="http://www.w3.org/1999/xlink" width="620" height="411" fill="none" xmlns:v="https://vecta.io/nano"><path d="M598.901 0H20.84C9.331 0 0 9.331 0 20.84v368.388c0 11.509 9.331 20.84 20.84 20.84h578.061c11.51 0 20.84-9.331 20.84-20.84V20.84c0-11.51-9.33-20.84-20.84-20.84z" fill="url(#C)"/><path d="M176 243c7.18 0 13-5.82 13-13s-5.82-13-13-13-13 5.82-13 13 5.82 13 13 13z" fill="#fff" fill-opacity=".566"/><path opacity=".281" d="M162.84 130.681c11.51 0 20.841-9.331 20.841-20.841S174.35 89 162.84 89 142 98.331 142 109.84s9.331 20.841 20.84 20.841z" fill="url(#D)"/><path opacity=".024" d="M508 95c7.18 0 13-5.82 13-13s-5.82-13-13-13-13 5.82-13 13 5.82 13 13 13z" fill="#651cf3"/><path d="M443.874 169.008a8.86 8.86 0 0 0 8.857-8.857 8.86 8.86 0 0 0-8.857-8.857 8.86 8.86 0 0 0-8.857 8.857 8.86 8.86 0 0 0 8.857 8.857z" fill="#fff" fill-opacity=".566"/><path d="M250.9 317.933a5.21 5.21 0 1 0 0-10.42 5.21 5.21 0 1 0 0 10.42z" fill="#fffc07"/><path opacity=".994" d="M317.79 86.33L338.63 82l-4.033 19.799L317.79 86.33z" fill="#fdff4a"/><path opacity=".9" d="M370.435 312.541l-18.372 17.98-9.784-25.728 28.156 7.748z" fill="#15e0ff"/><path fill-rule="evenodd" d="M258.163 181.846l49.612 16.607c.97.324 1.668.493 1.2 1.92l-16.47 50.664c-.056.172-.173.325-.445.821l-4.145-8.07-3.806-7.736c-.551-1.212-1.139-1.52-2.471-1.138-22.07 6.331-37.41 19.336-42.463 42.613l-.082.304-.203.6-2.111-4.934c-.77-3.546-2.046-6.962-2.675-10.547-4.341-24.725 4.209-44.191 24.079-59.025 1.735-1.295 3.524-2.587 5.461-3.521 1.782-.86 1.697-1.694.89-3.212-2.485-4.681-4.834-9.435-7.229-14.164-.201-.397-.354-.818-.531-1.233.499-.54.967-.09 1.389.051zm76.007-47.499c2.829-3.289 6.243-4.141 10.273-2.612 6.828 2.591 13.07 6.19 18.751 10.779 3.771 3.046 4.678 6.14 3.138 10.735-1.45 4.326-1.415 8.649.408 12.846 2.581 5.937 7.107 9.546 13.485 10.742 4.418.83 6.84 3.143 7.592 7.547.43 2.521.721 5.067 1.074 7.601v7.442l-1.136 7.746c-.645 4.06-3.414 6.797-7.432 7.403-11.709 1.767-18.443 13.186-14.303 24.254 1.569 4.194.64 7.637-2.82 10.457a68.64 68.64 0 0 1-17.374 10.35c-3.96 1.626-7.682.68-10.363-2.65-7.888-9.797-21.275-9.605-28.944.416-2.536 3.314-6.064 4.4-9.949 3.092l3.236-5.909a8.48 8.48 0 0 1 .161-.282c.198-.34.53-.91.793-1.719l4.004-12.35 7.403-22.814c2.507.938 5.223 1.455 8.068 1.458 12.619.013 22.866-10.295 22.861-22.996-.006-12.485-10.306-22.787-22.783-22.786-9.563 0-17.779 5.804-21.245 14.046l-9.757-3.267-25.121-8.407c9.399-3.108 14.618-13.264 11.111-23.093-1.639-4.595-.62-7.984 3.249-10.945a68.47 68.47 0 0 1 17.414-9.699c4.027-1.529 7.454-.667 10.275 2.617 7.7 8.96 20.222 8.96 27.931-.002z" fill="url(#E)"/><g filter="url(#A)"><circle cx="380" cy="221" r="37" fill="#fff"/></g><g fill-rule="evenodd"><path d="M377.606 214.542l-1.915 7.068 10.956-7.108-7.165 26.815 7.276.006 10.583-39.605-19.735 12.824z" fill="#3395ff"/><path d="M365.815 230.052l-3.012 11.272h14.913l6.101-22.932c-.006.003-18.002 11.66-18.002 11.66z" fill="#072654"/></g><g filter="url(#B)"><use xlink:href="#F" fill="#000"/></g><use xlink:href="#F" fill="#fff"/><path fill-rule="evenodd" d="M269.681 158h-3.105a.92.92 0 0 1-.276-.216c-2.316-2.714-4.65-5.413-7.112-8.002-.13-.137-.189-.288-.186-.476l.002-1.581c.001-.412.172-.578.592-.58l1.871-.007c.792-.021 1.571-.131 2.311-.428.833-.335 1.474-.866 1.793-1.717.087-.231.082-.233-.162-.233h-5.81c-.449 0-.594-.144-.595-.586v-1.191c.002-.432.146-.576.584-.576l2.785-.001 2.865-.001c.056 0 .133.031.163-.027s-.033-.107-.064-.154a2.45 2.45 0 0 0-.917-.845c-.714-.387-1.493-.531-2.293-.558-.834-.029-1.671-.015-2.506-.02-.452-.002-.616-.159-.617-.596l-.004-1.62c-.006-.269.08-.466.33-.585h12.302c.158.087.313.177.324.382.028.533.03 1.066-.001 1.599-.009.159-.107.263-.245.33-.11.055-.233.044-.352.044l-3.025.002c-.05 0-.118-.027-.147.025s.032.093.06.133a4.72 4.72 0 0 1 .765 1.701c.029.126.069.197.231.195l2.229-.003c.362.001.523.159.526.512l.001 1.289c-.002.398-.16.55-.571.55l-2.03.001c-.295 0-.292.001-.352.294-.186.904-.567 1.717-1.183 2.416-.967 1.098-2.219 1.706-3.641 2.012-.311.067-.627.116-.965.177l1.341 1.452c1.782 1.973 3.496 4.003 5.2 6.042.3.359.27.588-.116.847z" fill="#002657"/><defs><filter id="A" x="282" y="145" width="196" height="196" filterUnits="userSpaceOnUse" color-interpolation-filters="sRGB"><feFlood flood-opacity="0" result="A"/><feColorMatrix in="SourceAlpha" values="0 0 0 0 0 0 0 0 0 0 0 0 0 0 0 0 0 0 127 0"/><feOffset dy="22"/><feGaussianBlur stdDeviation="30.5"/><feColorMatrix values="0 0 0 0 0.0555285 0 0 0 0 0.0603679 0 0 0 0 0.12984 0 0 0 0.373743 0"/><feBlend in2="A"/><feBlend in="SourceGraphic"/></filter><filter id="B" x="181" y="84" width="168" height="168" filterUnits="userSpaceOnUse" color-interpolation-filters="sRGB"><feFlood flood-opacity="0" result="A"/><feColorMatrix in="SourceAlpha" values="0 0 0 0 0 0 0 0 0 0 0 0 0 0 0 0 0 0 127 0"/><feOffset dy="22"/><feGaussianBlur stdDeviation="30.5"/><feColorMatrix values="0 0 0 0 0.0555285 0 0 0 0 0.0603679 0 0 0 0 0.12984 0 0 0 0.373743 0"/><feBlend in2="A"/><feBlend in="SourceGraphic"/></filter><linearGradient id="C" x1="183.5" y1="-30" x2="57.448" y2="462.08" gradientUnits="userSpaceOnUse"><stop stop-color="#7f6fff"/><stop offset="1" stop-color="#424dff"/></linearGradient><linearGradient id="D" x1="176.265" y1="99.186" x2="155.863" y2="119.5" gradientUnits="userSpaceOnUse"><stop stop-color="#86a3ff"/><stop offset="1" stop-color="#6edbef" stop-opacity="0"/></linearGradient><linearGradient id="E" x1="310.945" y1="131" x2="310.945" y2="278.431" gradientUnits="userSpaceOnUse"><stop stop-color="#edefff"/><stop offset="1" stop-color="#4954ff"/></linearGradient><path id="F" d="M265 169c12.703 0 23-10.297 23-23s-10.297-23-23-23-23 10.297-23 23 10.297 23 23 23z"/></defs></svg>
