<svg xmlns="http://www.w3.org/2000/svg" xmlns:xlink="http://www.w3.org/1999/xlink" width="560" height="370" xmlns:v="https://vecta.io/nano"><defs><linearGradient x1="0%" y1="28.1728316%" x2="100%" y2="71.8271684%" id="A"><stop stop-color="#abdcff" offset="0%"/><stop stop-color="#0396ff" offset="100%"/></linearGradient><linearGradient x1="50%" y1="0%" x2="50%" y2="100%" id="B"><stop stop-color="#fff" offset="0%"/><stop stop-color="#fff" stop-opacity="0" offset="100%"/></linearGradient><linearGradient x1="53.4363247%" y1="-23.8786017%" x2="45.1749417%" y2="113.606725%" id="C"><stop stop-color="#ee9ae5" offset="0%"/><stop stop-color="#5961f9" offset="100%"/></linearGradient><path d="M68 34c0 18.778-15.222 34-34 34S0 52.778 0 34 15.222 0 34 0s34 15.222 34 34z" id="D"/><filter x="-94.1%" y="-60.3%" width="288.2%" height="288.2%" id="E"><feOffset dy="23" in="SourceAlpha"/><feGaussianBlur stdDeviation="17.5"/><feColorMatrix values="0 0 0 0 0   0 0 0 0 0   0 0 0 0 0  0 0 0 0.176190997 0"/></filter><linearGradient x1="50%" y1="0%" x2="50%" y2="100%" id="F"><stop stop-color="#ffe4ab" offset="0%"/><stop stop-color="#ffac39" offset="100%"/></linearGradient><linearGradient x1="50%" y1="0%" x2="50%" y2="100%" id="G"><stop stop-color="#ffe4ab" offset="0%"/><stop stop-color="#ffc473" offset="100%"/></linearGradient><linearGradient x1="50%" y1="-82.6866557%" x2="50%" y2="151.812114%" id="H"><stop stop-color="#81fbb8" offset="0%"/><stop stop-color="#28c76f" offset="100%"/></linearGradient><linearGradient x1="50%" y1="-16.3273211%" x2="50%" y2="62.9818818%" id="I"><stop stop-color="#f4ad00" offset="0%"/><stop stop-color="#ed7272" offset="100%"/></linearGradient><linearGradient x1="0%" y1="0%" x2="98.3797034%" y2="98.3797034%" id="J"><stop stop-color="#6b73ff" offset="0%"/><stop stop-color="#000dff" offset="100%"/></linearGradient><path d="M26.989 54l-4.252-7.081-3.564-5.964c-.211-.359-.445-.469-.851-.467l-12.393.017c-3.407.012-5.927-2.458-5.928-5.869l.006-28.78C.01 2.477 2.528-.002 5.881 0l42.237.003c3.393-.001 5.876 2.428 5.878 5.833l-.006 28.907c-.004 3.313-2.516 5.771-5.82 5.761-4.173-.012-8.346.001-12.519-.018-.42-.002-.631.14-.839.489L27.41 53.328c-.116.194-.24.384-.42.672h0z" id="K"/><filter x="-84.3%" y="-54.6%" width="268.5%" height="268.5%" id="L"><feOffset dy="16" in="SourceAlpha"/><feGaussianBlur stdDeviation="12.5"/><feColorMatrix values="0 0 0 0 0.109136909   0 0 0 0 0   0 0 0 0 0.679008152  0 0 0 0.2 0"/></filter></defs><g fill="none" fill-rule="evenodd"><path fill="url(#A)" d="M0 0h560v370H0z"/><path d="M268.901 105.027v3.959l-.038 80.966c-.004 1.768.531 2.979 1.777 4.215l58.356 58.096c.601.598 1.343 1.053 2.004 1.563-21.09 23-61.417 35.101-98.278 18.404-38.781-17.568-59.47-60.423-49.032-101.115 11.198-43.653 50.819-67.018 85.211-66.089zm100.806 38.054c18.193 37.646 9.094 83.126-22.216 110.919l-14.683-14.873-50.976-51.284c-.952-.963-1.751-2.59-1.755-3.911l-.07-91.485c.001-.746.088-1.492.133-2.214 31.281-2.386 70.525 13.444 89.567 52.848z" fill="url(#B)"/><g transform="translate(311 216)" fill-rule="nonzero"><use fill="#000" filter="url(#E)" xlink:href="#D"/><use fill="url(#C)" xlink:href="#D"/><path fill="url(#F)" d="M29 45h10v11H29z"/><path d="M47.55 28.099C46.984 19.743 39.882 15 34 15s-12.984 4.743-13.55 13.099a3.02 3.02 0 0 0-2.433 3.282l.262 2.428c.178 1.647 1.667 2.849 3.308 2.67l.283-.031C25.231 45.227 30.655 47.487 34 48c3.345-.513 8.769-2.773 12.129-11.55l.283.031c1.641.178 3.13-1.023 3.308-2.67l.262-2.428a3.02 3.02 0 0 0-2.433-3.282h0z" fill="url(#G)"/><path d="M54 61.139C48.663 65.26 41.37 68 33.5 68S18.773 65.311 13 61.139v-3.163C13 53.589 16.553 50 20.902 50h7.337c0 2.992 2.297 5.426 5.261 5.426s5.262-2.434 5.262-5.426h7.336C50.445 50 54 53.589 54 57.976v3.163z" fill="url(#H)"/><path d="M34.281 11c-17.23 0-14.049 16.279-14.049 16.279h0c.15 1.616.53 5.007 1.22 6.72h1.727v-5.217c.398-1.596 1.012-2.865 1.714-3.872 2.202.714 5.236 1.326 9.165 1.326 3.935 0 6.972-.614 9.176-1.329.702 1.007 1.318 2.277 1.716 3.875V34h1.727c.689-1.713 1.071-5.104 1.22-6.72h.001c0 0 2.202-16.279-13.615-16.279h0z" fill="url(#I)"/></g><g transform="translate(172 106)"><use fill="#000" filter="url(#L)" xlink:href="#K"/><use fill="url(#J)" xlink:href="#K"/><path d="M24 35h5v-5h-5zm0-11h5V8h-5z" fill="#fff"/></g></g></svg>