<svg xmlns="http://www.w3.org/2000/svg" xmlns:xlink="http://www.w3.org/1999/xlink" width="620" height="411" xmlns:v="https://vecta.io/nano"><style><![CDATA[.B{mask:url(#N)}]]></style><defs><linearGradient x1="41.7774447%" y1="-10.833541%" x2="41.7774447%" y2="109.735326%" id="A"><stop stop-color="#8d85ff" offset="0%"/><stop stop-color="#3e3fca" offset="100%"/></linearGradient><path id="B" d="M0 0h619.741v410.068H0z"/><linearGradient x1="41.7774447%" y1="-10.833541%" x2="87.3492861%" y2="123.992464%" id="C"><stop stop-color="#8d85ff" stop-opacity="0" offset="0%"/><stop stop-color="#3e3fca" offset="100%"/></linearGradient><circle id="D" cx="147.84" cy="111.84" r="20.84"/><filter x="-359.9%" y="-304.7%" width="815.0%" height="815.0%" id="E"><feOffset dx="-1" dy="22" in="SourceAlpha"/><feGaussianBlur stdDeviation="46"/><feColorMatrix values="0 0 0 0 0   0 0 0 0 0   0 0 0 0 0  0 0 0 0.226534194 0"/></filter><linearGradient x1="25.0491701%" y1="0%" x2="82.9602125%" y2="100%" id="F"><stop stop-color="#8d85ff" stop-opacity="0" offset="0%"/><stop stop-color="#3e3fca" offset="100%"/></linearGradient><circle id="G" cx="426.84" cy="280.84" r="20.84"/><linearGradient x1="50%" y1="-20.2851017%" x2="50%" y2="149.439863%" id="H"><stop stop-color="#fff" offset="0%"/><stop stop-color="#4a4ad2" offset="100%"/></linearGradient><path d="M333.804 178.702v10.508a2.59 2.59 0 0 0 2.589 2.59h0 6.473c22.131 0 40.134 18.008 40.134 40.145 0 15.045-8.314 28.182-20.59 35.055 6.32-6.33 10.233-15.063 10.233-24.696 0-19.28-15.681-34.965-34.955-34.965h0-1.295a2.59 2.59 0 0 0-2.589 2.59h0v10.508l-29.205-20.868 29.205-20.868zm-46.607-17.982v18.13a2.59 2.59 0 0 0 2.589 2.59h0 15.536a2.59 2.59 0 0 0 2.589-2.59h0v-18.13h49.196v28.228c-4.485-1.492-9.262-2.328-14.241-2.328h0-3.884v-12.95c0-.971-.541-1.86-1.403-2.302-.867-.445-1.903-.37-2.69.197h0l-36.25 25.9c-.681.484-1.085 1.269-1.085 2.106a2.59 2.59 0 0 0 1.085 2.108h0l36.25 25.9a2.6 2.6 0 0 0 2.69.197c.862-.445 1.403-1.334 1.403-2.305h0v-12.921c6.908.298 13.213 2.96 18.125 7.198h0v34.214H238v-93.24h49.196zm90.625-17.058v52.022l-15.536-7.77v-28.713l15.536-15.54zM319.785 140l-17.053 19.202v17.058h-10.357v-17.058L311.572 140h8.213zm-15.536 0l-15.536 15.54h-47.053L257.197 140h47.053zm69.911 0l-15.536 15.54h-47.053L327.108 140h47.053z" id="I"/><filter x="-20.7%" y="-33.1%" width="141.4%" height="147.2%" id="J"><feOffset dy="-12" in="SourceAlpha"/><feGaussianBlur stdDeviation="8"/><feColorMatrix values="0 0 0 0 0   0 0 0 0 0   0 0 0 0 0  0 0 0 0.11994646 0"/></filter><circle id="K" cx="26" cy="26" r="26"/><filter x="-197.1%" y="-154.8%" width="494.2%" height="494.2%" id="L"><feOffset dy="22" in="SourceAlpha"/><feGaussianBlur stdDeviation="30.5"/><feColorMatrix values="0 0 0 0 0.527117301   0 0 0 0 0.0543790599   0 0 0 0 0.521683528  0 0 0 0.373743444 0"/></filter><linearGradient x1="50%" y1="-45.6687008%" x2="50%" y2="100%" id="M"><stop stop-color="#88f3e2" offset="0%"/><stop stop-color="#11d5a9" offset="100%"/></linearGradient></defs><g fill="none" fill-rule="evenodd"><mask id="N" fill="#fff"><use xlink:href="#B"/></mask><use fill="url(#A)" xlink:href="#B"/><g fill-rule="nonzero" class="B"><circle fill="#31ff84" opacity=".456" transform="matrix(-.034899 .999391 -.999391 -.034899 653.964533 -1.811922)" cx="327.857" cy="314.857" r="8.857"/><circle fill="#c9ff4a" transform="matrix(-.034899 .999391 -.999391 -.034899 325.198666 -86.704717)" cx="204.464" cy="113.668" r="5.21"/><path fill="#5f3bf4" opacity=".721" transform="matrix(-.034899 .999391 -.999391 -.034899 414.634688 -241.482049)" d="M331.535 66.959l5.926 25.008-27.092-4.84z"/><path fill="#ffc84a" transform="matrix(.999391 .034899 -.034899 .999391 7.229239 -14.916759)" d="M436.473 189.203l4.331 20.84-19.798-4.034z"/><path fill="#aea8ff" opacity=".412" transform="matrix(-.87462 .48481 -.48481 -.87462 473.636763 315.676846)" d="M203.595 206.58l5.95 25.008-27.092-4.864z"/></g><g opacity=".659" class="B"><use fill="#000" filter="url(#E)" xlink:href="#D"/><use fill="url(#C)" xlink:href="#D"/></g><g opacity=".726" class="B"><use fill="#000" filter="url(#E)" xlink:href="#G"/><use fill="url(#F)" xlink:href="#G"/></g><g opacity=".882" class="B"><use fill="#000" filter="url(#J)" xlink:href="#I"/><use fill="url(#H)" xlink:href="#I"/></g><g class="B"><g transform="translate(224 229)"><use fill="#000" filter="url(#L)" xlink:href="#K"/><use fill="#fff" xlink:href="#K"/><g fill="url(#M)"><path d="M28.284 12.149a.82.82 0 0 1 .643-.131c.223.048.416.186.534.382h0l1.439 2.394 2.733-.527a.82.82 0 0 1 .64.144.83.83 0 0 1 .333.567h0l.346 2.775 2.71.636c.222.052.413.194.527.393s.141.436.075.655h0l-.807 2.676 2.218 1.689a.83.83 0 0 1 .126 1.203h0l-1.82 2.115 1.343 2.449c.11.201.133.438.062.656s-.227.397-.434.494h0l-2.519 1.188.236 2.787a.83.83 0 0 1-.209.625c-.153.17-.368.27-.596.274h0l-2.782.056-.912 2.642c-.075.217-.235.392-.444.485a.82.82 0 0 1-.656.007h0l-2.564-1.086-1.903 2.041c-.156.167-.374.262-.602.262s-.446-.095-.602-.262h0l-1.903-2.041-2.564 1.086a.82.82 0 0 1-.656-.007c-.208-.093-.369-.269-.444-.485h0l-.912-2.642-2.782-.056c-.228-.005-.444-.104-.596-.274a.83.83 0 0 1-.209-.625h0l.236-2.787-2.519-1.188a.83.83 0 0 1-.434-.494c-.07-.218-.048-.455.062-.656h0l1.343-2.449-1.82-2.115a.83.83 0 0 1 .126-1.203h0l2.218-1.689-.807-2.677c-.066-.219-.039-.456.075-.655s.305-.341.527-.393h0l2.71-.636.346-2.775a.83.83 0 0 1 .333-.567.82.82 0 0 1 .64-.144h0l2.733.527 1.439-2.394c.118-.196.311-.334.534-.382a.82.82 0 0 1 .643.131h0l2.283 1.598zm-2.283 5.92c-4.351 0-7.89 3.558-7.89 7.931s3.539 7.931 7.89 7.931 7.89-3.558 7.89-7.931-3.54-7.931-7.89-7.931zm0 1.658c3.441 0 6.241 2.814 6.241 6.273s-2.8 6.273-6.241 6.273S19.76 29.459 19.76 26s2.8-6.273 6.241-6.273zm3.233 3.912a.82.82 0 0 0-1.166 0h0l-2.95 2.965-1.183-1.189a.82.82 0 0 0-1.166 0 .83.83 0 0 0 0 1.172h0l1.767 1.776a.82.82 0 0 0 1.166 0h0l3.533-3.551a.83.83 0 0 0 0-1.172z"/></g></g></g></g></svg>