<svg xmlns="http://www.w3.org/2000/svg" xmlns:xlink="http://www.w3.org/1999/xlink" width="619" height="410" xmlns:v="https://vecta.io/nano"><defs><linearGradient x1="50%" y1="0%" x2="50%" y2="100%" id="A"><stop stop-color="#ff9591" offset="0%"/><stop stop-color="#f2557a" offset="100%"/></linearGradient><path id="B" d="M0 0h619v409.578H0z"/><linearGradient x1="50%" y1="0%" x2="50%" y2="100%" id="C"><stop stop-color="#ff9591" offset="0%"/><stop stop-color="#f2557a" stop-opacity="0" offset="100%"/></linearGradient><linearGradient x1="50%" y1="0%" x2="50%" y2="139.909681%" id="D"><stop stop-color="#fff5f5" offset="0%"/><stop stop-color="#fec5d2" offset="100%"/></linearGradient><path d="M37.539 51.939v8.187c0 7.242 5.843 13.131 13.03 13.131s13.029-5.89 13.029-13.131h0v-8.187h28.174v8.187c0 7.242 5.848 13.131 13.03 13.131s13.029-5.89 13.029-13.131h0v-8.187h34.586c1.801 0 2.908 1.425 2.485 3.188h0l-22.79 93.55c-1.384 5.255-6.871 9.52-12.27 9.52h0-84.693c-5.398 0-10.887-4.261-12.265-9.52h0L.091 55.127c-.427-1.759.683-3.188 2.482-3.188h0 34.965zm30.877 61.473c-.305-1.237-1.042-.871-1.763-.708s-1.351.242-1.032 1.417l4.082 15.725c.288 1.071-.04 1.268-.952 1.356-2.722.258-5.403.78-8.046 1.471-4.21 1.102-8.286 2.521-11.773 5.272-1.803 1.422-3.008 3.244-3.717 5.516h0 67.308c-.937-3.281-3.077-5.369-5.77-6.973-3.981-2.371-8.351-3.654-12.848-4.527-6.621-1.285-13.304-1.714-20.034-1.222-.819.059-1.132-.09-1.351-1l-4.104-16.328zm-.041-23.444c-14.544-.502-26.359 10.982-26.372 25.634-.011 1.778.211 3.525.64 5.25.173.694.555 1.124 1.274 1.166.709.043 1.328-.161 1.651-.864.228-.499.42-1.015.605-1.53.433-1.214 1.105-2.243 2.171-2.993 2.939-2.064 6.423-1.917 9.164.395 1.683 1.419 2.75 1.183 3.699-.825.217-.461.419-.93.627-1.395.697-1.558 1.881-2.568 3.454-3.155 2.89-1.078 5.481-.731 7.793 1.462 1.207 1.146 2.44.863 3.235-.604.205-.377.4-.776.499-1.191.95-4.008 7.508-5.822 10.596-3.057a9.56 9.56 0 0 0 1.616 1.16c.614.351 1.291.376 1.857-.127.56-.499.578-1.098.351-1.821-3.099-9.895-12.553-17.149-22.859-17.504zm-7.946-3.237c-.737.087-1.317.515-1.31 1.395.005.55-.129 1.543.645 1.456.756-.085 1.961.115 2.245-.913.25-.895-.677-1.897-1.58-1.937zM77.682 0c18.47 0 33.497 15.316 33.497 34.141h0v25.792c0 3.651-2.906 6.613-6.488 6.613s-6.489-2.962-6.489-6.613h0V34.141c0-11.53-9.207-20.914-20.52-20.914s-20.518 9.384-20.518 20.914h0v25.792c0 3.651-2.906 6.613-6.489 6.613s-6.488-2.962-6.485-6.613h0V34.141C44.189 15.316 59.216 0 77.682 0z" id="E"/><filter x="-21.6%" y="-16.8%" width="143.2%" height="142.4%" id="F"><feOffset dy="7" in="SourceAlpha"/><feGaussianBlur stdDeviation="10"/><feColorMatrix values="0 0 0 0 0   0 0 0 0 0   0 0 0 0 0  0 0 0 0.0731260927 0"/></filter><ellipse id="G" cx="34.335" cy="34.253" rx="34.335" ry="34.253"/><filter x="-151.5%" y="-119.7%" width="402.9%" height="403.6%" id="H"><feOffset dy="22" in="SourceAlpha"/><feGaussianBlur stdDeviation="31"/><feColorMatrix values="0 0 0 0 0.527117301   0 0 0 0 0.0543790599   0 0 0 0 0.521683528  0 0 0 0.373743444 0"/></filter><linearGradient x1="50%" y1="0%" x2="50%" y2="100%" id="I"><stop stop-color="#c2e998" offset="0%"/><stop stop-color="#02cc87" offset="100%"/></linearGradient><linearGradient x1="50%" y1="0%" x2="50%" y2="100%" id="J"><stop stop-color="#ff9591" stop-opacity="0" offset="0%"/><stop stop-color="#f2557a" offset="100%"/></linearGradient></defs><g fill="none" fill-rule="evenodd"><use fill="url(#A)" xlink:href="#B"/><circle fill="url(#C)" opacity=".805" cx="231.051" cy="268.519" r="20.815"/><g transform="translate(234.173 106.159)"><use fill="#000" filter="url(#F)" xlink:href="#E"/><use fill="url(#D)" xlink:href="#E"/><g transform="translate(96.792 108.24)"><use fill="#000" filter="url(#H)" xlink:href="#G"/><use fill="#fff" xlink:href="#G"/><path d="M36.309 49.338c-5.063 0-9.329.006-13.594-.006-.655-.002-1.301.101-1.954.104-1.246.005-1.745-.49-1.671-1.734.036-.615-.07-1.229.038-1.844.199-1.133.705-2.003 1.778-2.536l8.2-4.152c.625-.315 1.072-.843 1.583-1.294.234-.206.16-1.407-.072-1.593-1.629-1.307-2.622-3.027-3.191-5.02-.071-.25-.199-.431-.371-.621-.896-.988-1.224-2.18-1.09-3.491.046-.445.206-.903.776-.978.192-.025.139-.199.163-.314.405-1.952 1.253-3.686 2.572-5.162 1.049-1.174 2.296-2.077 3.882-2.358 1.943-.344 3.739-.008 5.33 1.243 2.021 1.588 3.24 3.672 3.791 6.179.05.228.085.395.393.464.345.077.501.454.537.792.148 1.374-.184 2.617-1.095 3.67-.137.158-.247.302-.306.511-.566 2.009-1.55 3.753-3.196 5.065-.139.111-.177.235-.2.407-.098.753.123 1.306.737 1.811.996.82 2.162 1.302 3.28 1.876 1.859.956 3.739 1.869 5.625 2.769 1.331.634 2.035 1.652 2.026 3.147-.004.659.075 1.322-.041 1.975-.137.775-.501 1.064-1.279 1.097-4.482.192-8.965-.129-12.649-.007" fill="url(#I)"/></g></g><circle fill="url(#J)" opacity=".382" cx="128.015" cy="95.751" r="20.815"/><g fill-rule="nonzero"><circle fill="#651cf3" opacity=".024" cx="516.222" cy="67.65" r="13.53"/><g transform="matrix(-1 0 0 -1 429.838201 314.312679)"><circle fill="#fade6e" opacity=".484" cx="229.49" cy="69.211" r="8.847"/><circle fill="#4a95ff" opacity=".609" cx="82.221" cy="226.888" r="5.204"/><path fill="#ae3bf4" opacity=".994" d="M21.141 134.259l5.919 24.978L0 154.403z"/><path fill="#7840fe" d="M112.403 4.326L133.219 0l-4.029 19.775z"/><path fill="#d321b5" opacity=".9" d="M235.276 167.298l-18.35 17.959-9.773-25.697z"/></g></g></g></svg>