<svg xmlns="http://www.w3.org/2000/svg" xmlns:xlink="http://www.w3.org/1999/xlink" width="620" height="411" xmlns:v="https://vecta.io/nano"><defs><linearGradient x1="41.7774447%" y1="-27.4721425%" x2="41.7774447%" y2="100.12803%" id="A"><stop stop-color="#d9f3d2" offset="0%"/><stop stop-color="#03c98c" offset="100%"/></linearGradient><path id="B" d="M0 0h619.741v410.068H0z"/><linearGradient x1="151.753375%" y1="-62.8733349%" x2="83.7433805%" y2="100%" id="C"><stop stop-color="#d9f3d2" stop-opacity="0" offset="0%"/><stop stop-color="#03c98c" offset="100%"/></linearGradient><linearGradient x1="50%" y1="0%" x2="0%" y2="128.077095%" id="D"><stop stop-color="#d9f3d2" stop-opacity="0" offset="0%"/><stop stop-color="#03c98c" offset="100%"/></linearGradient><linearGradient x1="50%" y1="16.8850124%" x2="54.5304591%" y2="137.081053%" id="E"><stop stop-color="#fffbfb" offset="0%"/><stop stop-color="#c7f6e6" stop-opacity=".508" offset="60.0309305%"/><stop stop-color="#28e6ab" stop-opacity="0" offset="100%"/></linearGradient><path d="M38.059 109.689V94.166a11.47 11.47 0 0 1 5.024-9.492l5.204-3.539c-4.148-4.199-6.712-9.966-6.712-16.321 0-7.84 4.135-15.363 10.69-19.649 1.343-.878 2.528-1.584 4.042-2.102 2.823-.965 5.528-1.49 8.508-1.49 12.814 0 23.24 10.426 23.24 23.24 0 1.863-.222 3.674-.637 5.411a10.36 10.36 0 0 1 .138 1.103h.026v.691 5.917h2.456c4.615 0 8.511 3.126 9.691 7.37 5.027-1.352 10.593-2.538 16.859-3.481l.029-.085 9.963-2.166c1.78-.388 3.05-1.963 3.05-3.785V53.84c0-1.822-1.27-3.397-3.05-3.785l-9.963-2.166c-.866-2.652-1.94-5.24-3.206-7.732l5.515-8.58c.985-1.533.768-3.546-.519-4.833l-15.522-15.521c-1.287-1.288-3.3-1.504-4.833-.519l-8.579 5.516c-2.492-1.267-5.08-2.34-7.732-3.207L79.574 3.05C79.188 1.27 77.611 0 75.79 0H53.84c-1.822 0-3.398 1.27-3.785 3.05l-2.166 9.963a54.22 54.22 0 0 0-7.732 3.207l-8.58-5.516c-1.533-.985-3.545-.768-4.833.519L11.223 26.744c-1.288 1.288-1.504 3.3-.519 4.833l5.516 8.58c-1.267 2.492-2.34 5.079-3.206 7.732L3.05 50.055C1.27 50.443 0 52.018 0 53.84v21.95c0 1.822 1.27 3.397 3.05 3.785l9.963 2.166c.866 2.653 1.939 5.24 3.206 7.732l-5.516 8.58c-.985 1.533-.768 3.546.519 4.833l15.521 15.521c.614.614 1.393.981 2.206 1.094 1.06-6.743 5.874-8.888 9.108-9.812" id="F"/><filter x="-26.6%" y="-33.9%" width="153.2%" height="157.7%" id="G"><feOffset dy="-6" in="SourceAlpha"/><feGaussianBlur stdDeviation="10.5"/><feColorMatrix values="0 0 0 0 0   0 0 0 0 0   0 0 0 0 0  0 0 0 0.11994646 0"/></filter><linearGradient x1="50%" y1="29.5032073%" x2="90.778105%" y2="98.6625579%" id="H"><stop stop-color="#fffbfb" offset="0%"/><stop stop-color="#cff6c7" stop-opacity=".508" offset="53.4301535%"/><stop stop-color="#28e6ab" stop-opacity="0" offset="100%"/></linearGradient><path d="M137.597 86.93a2.28 2.28 0 0 1 2.382 2.581c-1.627 12.053-7.374 26.808-14.192 37.19-.646.985-.664 2.251-.01 3.231h0l3.855 5.778c1.409 2.107-.231 4.91-2.758 4.715h0l-85.724-6.735c-2.332-.183-4.281-1.823-4.876-4.086-.52-1.979-1.015-4.435-1.015-6.611 0-4.475 1.799-5.31 5.478-6.188 32.905-7.852 41.955-26.778 96.859-29.876zM80.739 76.895v6.766h9.904a2.91 2.91 0 0 1 2.91 2.91h0v4.022c-9.105 3.109-16.444 6.766-23.672 10.37-7.931 3.956-15.496 7.716-25.077 10.504h0V92.892c0-1.446.716-2.798 1.911-3.611h0l7.155-4.865a5.14 5.14 0 0 1 2.455-.756h0 11.487v-6.766h12.925zm-3.257-9.938a3.26 3.26 0 0 1 3.257 3.257h0v3.511H67.814v-3.511c0-1.799 1.458-3.257 3.256-3.257h0zM61.404 48.513c2.841 0 5.209 1.927 5.933 4.538.084-.005.164-.025.249-.025a4.65 4.65 0 0 1 4.647 4.647 4.63 4.63 0 0 1-.352 1.766h0a2.88 2.88 0 1 1 .002 5.762 2.88 2.88 0 0 1-2.881-2.881c0-.086.018-.167.025-.251-.456.15-.935.251-1.441.251a4.63 4.63 0 0 1-3.761-1.937c-.744.317-1.562.494-2.421.494-3.414 0-6.182-2.768-6.182-6.182s2.768-6.182 6.182-6.182z" id="I"/><filter x="-32.9%" y="-44.1%" width="165.9%" height="175.1%" id="J"><feOffset dy="-6" in="SourceAlpha"/><feGaussianBlur stdDeviation="10.5"/><feColorMatrix values="0 0 0 0 0   0 0 0 0 0   0 0 0 0 0  0 0 0 0.11994646 0"/></filter></defs><g fill="none" fill-rule="evenodd"><use fill="url(#A)" xlink:href="#B"/><circle fill="url(#C)" cx="218.84" cy="273.84" r="20.84"/><circle fill="url(#D)" cx="127.84" cy="99.84" r="20.84"/><g transform="translate(240 135)"><g opacity=".882"><use fill="#000" filter="url(#G)" xlink:href="#F"/><use fill="url(#E)" xlink:href="#F"/></g><g opacity=".882"><use fill="#000" filter="url(#J)" xlink:href="#I"/><use fill="url(#H)" xlink:href="#I"/></g></g><g transform="matrix(1 0 0 1 174 82)" fill-rule="nonzero"><circle fill="#127cf3" opacity=".778" cx="244.874" cy="78.151" r="8.857"/><circle fill="#ffdd4a" cx="51.899" cy="230.723" r="5.21"/><path fill="#f4523b" opacity=".994" d="M21.166 100.034l5.926 25.008L0 120.202z"/><path fill-opacity=".469" fill="#fd4aff" d="M118.79 4.331L139.63 0l-4.034 19.798z"/><path fill="#7815ff" opacity=".469" d="M171.435 230.541l-18.372 17.98-9.785-25.728z"/></g></g></svg>