<svg xmlns="http://www.w3.org/2000/svg" xmlns:xlink="http://www.w3.org/1999/xlink" width="617" height="410" xmlns:v="https://vecta.io/nano"><defs><linearGradient x1="50%" y1="100%" x2="50%" y2="0%" id="A"><stop stop-color="#f74c75" offset="0%"/><stop stop-color="#fb6987" offset="100%"/></linearGradient><linearGradient x1="109.664412%" y1="0%" x2="19.18551%" y2="86.2548181%" id="B"><stop stop-color="#fa6081" stop-opacity="0" offset="0%"/><stop stop-color="#f93a63" offset="100%"/></linearGradient><linearGradient x1="19.18551%" y1="86.2548181%" x2="109.664412%" y2="0%" id="C"><stop stop-color="#fa6081" stop-opacity="0" offset="0%"/><stop stop-color="#f93a63" offset="100%"/></linearGradient><linearGradient x1="51.2571097%" y1="0%" x2="52.4422694%" y2="128.168799%" id="D"><stop stop-color="#fff" offset="0%"/><stop stop-color="#ffeaef" offset="35.2620818%"/><stop stop-color="#f9a2b6" stop-opacity=".57" offset="99.8897638%"/><stop stop-color="#ed4b70" stop-opacity="0" offset="100%"/></linearGradient><path d="M158.506 171.032c-23.531 0-43.353.027-63.176-.029-3.045-.009-6.046.474-9.08.488-5.791.026-8.107-2.299-7.765-8.146.169-2.891-.327-5.773.176-8.662.926-5.323 3.273-9.413 8.264-11.914l38.109-19.504c2.903-1.482 4.981-3.961 7.354-6.079 1.086-.968.745-6.608-.336-7.484-7.571-6.139-12.185-14.223-14.83-23.584-.332-1.174-.924-2.024-1.722-2.913-4.163-4.641-5.691-10.241-5.067-16.399.212-2.092.958-4.243 3.603-4.594.892-.118.647-.933.758-1.476 1.881-9.167 5.824-17.315 11.951-24.244 4.877-5.516 10.672-9.76 18.042-11.079 9.03-1.616 17.377-.036 24.772 5.838 9.392 7.46 15.058 17.25 17.615 29.025.233 1.074.392 1.856 1.828 2.181 1.604.363 2.325 2.132 2.494 3.722.687 6.457-.857 12.296-5.092 17.242-.634.741-1.148 1.419-1.421 2.399-2.632 9.435-7.202 17.629-14.852 23.794-.647.521-.826 1.104-.929 1.913-.455 3.536.57 6.134 3.424 8.505 4.631 3.85 10.048 6.114 15.241 8.812 8.64 4.488 17.378 8.781 26.144 13.006 6.186 2.982 9.458 7.76 9.417 14.784-.019 3.094.35 6.207-.189 9.278-.638 3.64-2.329 4.996-5.946 5.152-20.832.902-41.662-.609-58.785-.034" id="E"/><filter x="-72.4%" y="-94.1%" width="244.7%" height="243.2%" id="F"><feOffset dy="-33" in="SourceAlpha"/><feGaussianBlur stdDeviation="29.5"/><feColorMatrix values="0 0 0 0 0.785920516   0 0 0 0 0.160508691   0 0 0 0 0.299049285  0 0 0 0.221304087 0"/></filter><linearGradient x1="50%" y1="0%" x2="50%" y2="128.255325%" id="G"><stop stop-color="#fff5f7" offset="0%"/><stop stop-color="#ffd4de" offset="56.1407385%"/><stop stop-color="#f9a2b6" stop-opacity=".57" offset="88.1918322%"/><stop stop-color="#ed4b70" stop-opacity="0" offset="100%"/></linearGradient><path d="M53.295 3.5c-5.018 5.161-5.55 13.762-1.391 21.015.102.178.182.382.321.524 4.735 4.801 4.956 11.945 8.604 17.306.455.669.039 1.177-.255 1.699-1.421 2.527-3.174 4.779-5.31 6.721-1.718 1.563-1.61 4.138-.038 5.907 2.635 2.964 6.289 4.162 9.536 6.07.503.296 1.173.32 1.527.943-.384.646-1.087.759-1.654 1.045L26.594 83.868c-1.409.708-2.763 1.581-3.674 2.848-1.196 1.664-2.701 1.935-4.546 1.898-4.446-.088-8.895-.004-13.342-.038-3.939-.03-5.064-1.23-5.023-5.207l.003-3.306c.116-4.186 1.711-7.322 5.611-9.23l21.705-11.002c1.874-.942 3.234-2.461 4.637-3.927.95-.993.634-3.952-.418-4.864-4.186-3.633-6.898-8.227-8.461-13.556-.245-.834-.701-1.443-1.204-2.097a13.38 13.38 0 0 1-2.835-8.631c.033-1.56.182-3.238 2.153-3.748.906-.235.638-1.139.757-1.739 1.279-6.448 4.356-11.916 9.189-16.128C37.432-.337 44.763-1.702 53.295 3.5" id="H"/><filter x="-150.9%" y="-139.2%" width="401.7%" height="326.3%" id="I"><feOffset dy="-23" in="SourceAlpha"/><feGaussianBlur stdDeviation="29.5"/><feColorMatrix values="0 0 0 0 0.785920516   0 0 0 0 0.160508691   0 0 0 0 0.299049285  0 0 0 0.391499126 0"/></filter><path d="M13.076 3.5c5.018 5.161 5.55 13.762 1.391 21.015-.102.178-.182.382-.321.524-4.735 4.801-4.956 11.945-8.605 17.306-.455.669-.039 1.177.255 1.699 1.421 2.527 3.174 4.779 5.31 6.721 1.718 1.563 1.61 4.138.038 5.907-2.635 2.964-6.289 4.162-9.536 6.07-.503.296-1.172.32-1.527.943.384.646 1.087.759 1.654 1.045l38.042 19.138c1.408.708 2.763 1.581 3.674 2.848 1.196 1.664 2.701 1.935 4.546 1.898 4.446-.088 8.895-.004 13.342-.038 3.94-.03 5.064-1.23 5.023-5.207l-.003-3.306c-.115-4.186-1.711-7.322-5.611-9.23L39.043 59.831c-1.874-.942-3.234-2.461-4.637-3.927-.95-.993-.634-3.952.418-4.864 4.186-3.633 6.898-8.227 8.461-13.556.245-.834.701-1.443 1.204-2.097a13.38 13.38 0 0 0 2.835-8.631c-.033-1.56-.181-3.238-2.153-3.748-.907-.235-.638-1.139-.757-1.739-1.278-6.448-4.356-11.916-9.189-16.128C28.939-.337 21.607-1.702 13.076 3.5" id="J"/></defs><g fill="none" fill-rule="evenodd"><path fill="url(#A)" d="M0 0h616.035v410H0z"/><g transform="translate(154.48 98.288)"><ellipse fill="url(#B)" cx="323.093" cy="170.404" rx="21.326" ry="21.435"/><g fill-rule="nonzero"><ellipse fill="#5a12f3" opacity=".432" cx="271.377" cy="125.969" rx="9.064" ry="9.11"/><ellipse fill="#e9c448" opacity=".866" cx="107.698" cy="10.759" rx="5.332" ry="5.359"/><path fill="#f4983b" opacity=".994" d="M30.656 135.079l5.598 23.578-25.592-4.563z"/><path fill="#9959b6" d="M226.058 20.572l21.326-4.454-4.128 20.363z"/><path fill="#4dbe98" opacity=".9" d="M169.567 205.161l-18.8 18.493-10.013-26.461z"/></g><ellipse fill="url(#C)" opacity=".831" cx="21.326" cy="21.435" rx="21.326" ry="21.435"/><use fill="#000" filter="url(#F)" xlink:href="#E"/><use fill="url(#D)" xlink:href="#E"/><g transform="translate(55.485 54.857)" opacity=".614"><use fill="#000" filter="url(#I)" xlink:href="#H"/><use fill="url(#G)" xlink:href="#H"/></g><g transform="translate(180.517 54.857)" opacity=".614"><use fill="#000" filter="url(#I)" xlink:href="#J"/><use fill="url(#G)" xlink:href="#J"/></g></g></g></svg>