<svg xmlns="http://www.w3.org/2000/svg" xmlns:xlink="http://www.w3.org/1999/xlink" width="620" height="410" xmlns:v="https://vecta.io/nano"><defs><linearGradient x1="50%" y1="71.8907652%" x2="51.7817033%" y2="10.5766749%" id="A"><stop stop-color="#16b3a9" stop-opacity=".99" offset="0%"/><stop stop-color="#3addc1" offset="100%"/></linearGradient><path id="B" d="M0 0h619.638v410H0z"/><linearGradient x1="-9.23913542%" y1="32.4627742%" x2="111.190032%" y2="64.2158831%" id="C"><stop stop-color="#1ec5bb" stop-opacity="0" offset="0%"/><stop stop-color="#4af0d3" offset="100%"/></linearGradient><linearGradient x1="50%" y1="38.3104543%" x2="50%" y2="185.629347%" id="D"><stop stop-color="#e6fffc" offset="0%"/><stop stop-color="#d8faf7" offset="20.5911881%"/><stop stop-color="#25ccbf" offset="100%"/></linearGradient><path d="M216.834 186.751c9.706 0 17.581 7.35 17.581 16.409h0H46.883c0-9.059 7.875-16.409 17.581-16.409h0zm-5.86-70.324v63.292H70.324v-63.292h140.649zm-11.721 11.508h-70.324v40.277h70.324v-40.277zm-82.045 0H82.045v40.277h35.162v-40.277zm94.035-65.423l21.2 28.518c3.594 5.422 2.14 12.758-3.251 16.38-2.003 1.338-4.258 1.984-6.49 1.984-3.789 0-7.508-1.846-9.763-5.26h0l-2.518-3.807c-1.259 5.156-5.654 9.067-11.171 9.067-6.478 0-11.72-5.283-11.72-11.812 0 6.529-5.242 11.812-11.72 11.812s-11.72-5.283-11.72-11.812c0 6.529-5.242 11.812-11.72 11.812s-11.72-5.283-11.72-11.812c0 6.529-5.242 11.812-11.72 11.812s-11.72-5.283-11.72-11.812c0 6.529-5.242 11.812-11.72 11.812s-11.72-5.283-11.72-11.812c0 6.529-5.242 11.812-11.72 11.812-5.505 0-9.912-3.911-11.171-9.067h0l-2.518 3.807a11.69 11.69 0 0 1-9.763 5.26 11.62 11.62 0 0 1-6.49-1.984c-5.38-3.622-6.845-10.959-3.251-16.38h0l21.2-28.518h141.19z" id="E"/><filter x="-24.3%" y="-37.3%" width="148.5%" height="164.7%" id="F"><feOffset dy="-7" in="SourceAlpha"/><feGaussianBlur stdDeviation="14"/><feColorMatrix values="0 0 0 0 0   0 0 0 0 0   0 0 0 0 0  0 0 0 0.0824409965 0"/></filter><circle id="G" cx="214.62" cy="196.909" r="31.255"/><filter x="-161.6%" y="-126.4%" width="423.1%" height="423.1%" id="H"><feOffset dy="22" in="SourceAlpha"/><feGaussianBlur stdDeviation="30"/><feColorMatrix values="0 0 0 0 0   0 0 0 0 0   0 0 0 0 0  0 0 0 0.108186141 0"/></filter><linearGradient x1="75.0677139%" y1="0%" x2="18.549346%" y2="100%" id="I"><stop stop-color="#ffa8e6" offset="0%"/><stop stop-color="#e850ff" offset="100%"/></linearGradient><linearGradient x1="89.5845014%" y1="50%" x2="-9.23913542%" y2="32.4627742%" id="J"><stop stop-color="#1ec5bb" stop-opacity="0" offset="0%"/><stop stop-color="#4af0d3" offset="100%"/></linearGradient></defs><g fill="none" fill-rule="evenodd"><mask id="K" fill="#fff"><use xlink:href="#B"/></mask><use fill="url(#A)" xlink:href="#B"/><g mask="url(#K)"><g transform="translate(169.821 72.929)"><circle fill="url(#C)" transform="matrix(.544639 -.838671 .838671 .544639 37.0915 228.758021)" cx="229.206" cy="80.222" r="20.837"/><use fill="#000" filter="url(#F)" xlink:href="#E"/><use fill="url(#D)" xlink:href="#E"/><use fill="#000" filter="url(#H)" xlink:href="#G"/><use fill="#fff" xlink:href="#G"/><path d="M214.027 197.052a19.76 19.76 0 0 0-2.004.069c-.927.074-1.846.212-2.752.432-.103.025-.255.004-.206.224.358 1.636 1.136 2.953 2.667 3.691.86.414 1.781.517 2.721.481 2.444-.095 4.154-1.577 4.66-4.017.055-.267-.007-.349-.254-.404-1.562-.352-3.142-.492-4.832-.476m4.006-3.397l-.573.151-.567.095c-.128.013-.199.086-.279.177-.243.279-.548.388-.908.289-.376-.104-.65-.439-.68-.824-.032-.407.189-.79.55-.951s.747-.08 1.025.225c.078.086.131.175.279.152.655-.102 1.263-.315 1.8-.724.284-.217.502-.471.611-.828.189-.621.46-1.212.35-1.903-.064-.401-.012-.822-.012-1.269-3.725 1.314-7.426 1.634-11.131-.053-.004.528.052 1.014.138 1.497.293 1.651.868 3.177 1.949 4.464 2.11 2.514 5.452 2.316 7.449-.497m-2.031 16.797h-3.799c-.094-.015-.187-.039-.282-.042-1.784-.055-3.56-.204-5.324-.492-1.383-.226-2.745-.536-4.058-1.054-.312-.123-.428-.28-.422-.636.034-1.947.066-3.893.534-5.796.426-1.735 1.23-3.232 2.643-4.336 1.225-.957 2.624-1.479 4.127-1.748l1.27-.229c-.549-.218-1-.427-1.414-.716-.557-.388-.938-.889-1.042-1.588-.055-.369-.131-.734-.179-1.104-.248-1.883-.322-3.778-.39-5.674-.031-.875-.044-1.751.193-2.605.61-2.198 2.106-3.416 4.2-3.954.425-.109.863-.162 1.295-.241h1.497c.505.105 1.021.147 1.52.294 2.003.593 3.411 1.819 3.983 3.932.232.855.204 1.733.192 2.607-.002.151.013.234.192.279.454.114.731.517.734 1.003l.001.797c.004.228-.046.458-.209.593-.309.256-.384.609-.486.964-.067.234-.153.467-.262.684s-.155.439-.184.674c-.04.321-.097.641-.128.963-.129 1.366-.858 2.25-2.079 2.745l-.452.19-.327.135 1.409.25c1.392.251 2.711.692 3.885 1.528 1.642 1.169 2.536 2.826 2.972 4.778.43 1.921.459 3.877.47 5.835.001.167-.086.215-.205.27-.648.302-1.327.511-2.014.688-1.987.513-4.014.748-6.054.892-.602.042-1.207.017-1.805.112" fill="url(#I)"/><circle fill="url(#J)" transform="matrix(.71934 .694658 -.694658 .71934 34.146231 -24.087934)" cx="46.883" cy="30.213" r="20.837"/><g transform="matrix(-1 0 0 -1 278.17235 251.084406)" fill-rule="nonzero"><circle fill="#129ff3" cx="269.317" cy="154.714" r="8.856"/><circle fill="#0084df" cx="69.804" cy="212.536" r="5.209"/><path fill="#c5f43b" opacity=".994" d="M21.162 110.435l5.925 25.004L0 130.6z"/><path fill="#9b59b6" transform="matrix(0 -1 1 0 115.123763 134.918799)" d="M130.589-.521l4.33 20.837-19.795-4.033z"/><path fill="#f1c10f" opacity=".9" transform="matrix(.882948 -.469472 .469472 .882948 11.240423 127.034589)" d="M267.093 30.036l5.263 21.879-23.962-4.255z"/></g></g></g></g></svg>