<svg width="792" height="582" viewBox="76 42 642 415" fill="none" xmlns="http://www.w3.org/2000/svg">
<g filter="url(#filter0_d_750_19)">
<rect x="84" y="40" width="624" height="414" rx="30" fill="url(#paint0_linear_750_19)"/>
</g>
<path d="M418.16 154.971L439.657 150.503L435.497 170.926L418.16 154.971Z" fill="#E0EB5F"/>
<path opacity="0.899554" d="M392.707 344.556L373.756 363.103L363.663 336.565L392.707 344.556Z" fill="#210FF1" fill-opacity="0.42"/>
<g filter="url(#filter1_d_750_19)">
<path d="M467.578 221.095C470.414 222.214 472.323 224.35 473.74 226.957C475.898 230.927 476.794 235.25 477.19 239.678C477.776 246.226 477.849 252.769 476.532 259.263C475.762 263.062 474.566 266.691 472.189 269.833C468.908 274.17 464.316 275.903 459.033 276.233C456.066 276.418 453.14 275.99 450.217 275.618C449.224 275.491 449.104 275.8 449.108 276.638C449.135 282.235 449.095 287.831 449.145 293.427C449.154 294.48 448.95 294.864 447.779 294.851C442.087 294.786 436.393 294.792 430.701 294.848C429.63 294.858 429.349 294.531 429.353 293.524C429.377 286.717 429.349 279.91 429.343 273.102C429.339 267.965 429.342 262.829 429.342 257.692C429.342 245.873 429.363 234.054 429.311 222.235C429.306 220.992 429.673 220.729 430.865 220.737C434.53 220.762 438.198 220.857 441.865 220.658C444.326 220.524 446.499 221.135 447.64 223.599C448.057 224.498 448.453 223.83 448.779 223.598C451.31 221.797 454.03 220.431 457.147 219.973C460.72 219.448 464.218 219.77 467.578 221.095ZM349.164 205.608C349.121 210.254 349.176 214.902 349.121 219.549C349.109 220.612 349.44 220.895 350.461 220.869C353.12 220.803 355.782 220.877 358.442 220.83C359.282 220.815 359.429 221.109 359.271 221.861C358.519 225.418 357.774 228.977 357.084 232.546C356.957 233.203 356.682 233.344 356.096 233.337C354.184 233.312 352.271 233.358 350.36 233.313C349.592 233.295 349.261 233.46 349.265 234.329C349.294 242.325 349.25 250.322 349.299 258.317C349.315 260.949 350.335 261.844 352.964 261.698C354.828 261.595 356.686 261.363 358.542 261.141C359.154 261.067 359.349 261.24 359.346 261.854C359.329 265.957 359.334 270.06 359.34 274.163C359.341 274.639 359.226 274.932 358.684 275.028L357.873 275.172L356.251 275.462C352.195 276.181 348.133 276.825 343.974 276.585C342.432 276.496 340.91 276.302 339.415 275.94C334.154 274.667 330.818 270.79 330.065 265.154C329.898 263.906 329.807 262.659 329.81 261.4C329.82 257.214 329.813 253.027 329.813 248.84H329.801L329.792 241.807C329.791 239.462 329.797 237.118 329.825 234.773C329.838 233.707 329.623 233.278 328.472 233.355C326.899 233.462 325.313 233.354 323.735 233.394C323.045 233.411 322.794 233.206 322.801 232.478C322.833 228.919 322.832 225.361 322.802 221.802C322.797 221.112 323.06 220.959 323.68 220.972C325.3 221.004 326.924 220.93 328.542 221.002C329.443 221.043 329.856 220.791 330.024 219.849C330.573 216.764 331.258 213.702 331.795 210.615C332.051 209.145 332.745 208.363 334.222 208.028C338.836 206.982 343.429 205.844 348.022 204.704C348.889 204.489 349.173 204.652 349.164 205.608ZM316.975 221.705C318.187 222.088 318.603 222.85 318.591 224.051C318.555 227.589 318.527 231.126 318.567 234.663C318.578 235.647 318.208 235.775 317.378 235.62C314.381 235.059 311.379 234.521 308.373 234.011C307.132 233.801 305.869 233.727 304.646 234.122C303.621 234.453 302.629 234.985 302.405 236.115C302.167 237.311 302.754 238.336 303.658 239.117C304.457 239.807 305.431 240.217 306.363 240.691C308.338 241.696 310.316 242.696 312.277 243.728C318.683 247.096 321.123 252.592 320.577 259.627C320.284 263.408 319.42 267.03 317.09 270.134C314.137 274.07 309.956 275.704 305.302 276.302C298.652 277.157 292.132 276.3 285.704 274.534C284.561 274.219 283.948 273.561 284.003 272.264C284.079 270.456 284.022 268.643 284.022 266.832H284.007C284.007 264.894 284.048 262.956 283.988 261.02C283.96 260.145 284.278 260.047 285.013 260.217C288.065 260.924 291.114 261.648 294.229 262.033C295.691 262.213 297.149 262.235 298.601 261.966C299.956 261.715 301.251 260.508 301.491 259.296C301.712 258.18 301.114 257.121 299.639 256.305C297.334 255.029 295.042 253.711 292.654 252.61C284.619 248.904 281.681 240.997 283.596 232.758C285.228 225.735 289.812 221.967 296.562 220.505C303.471 219.009 310.265 219.586 316.975 221.705ZM514.497 220.423C521.948 222.2 527.413 228.319 528.674 236.186C529.459 241.088 529.639 246.039 529.953 250.979C529.992 251.596 529.901 252.233 530.195 252.819V254.318C521.687 254.327 513.179 254.366 504.672 254.313C503.38 254.305 503.118 254.755 503.161 255.878C503.275 258.821 504.785 260.597 507.77 261.088C511.976 261.78 516.117 261.138 520.252 260.443C522.211 260.114 524.173 259.8 526.12 259.415C526.833 259.274 527.012 259.482 527.005 260.14C526.965 263.97 526.952 267.799 526.925 271.629C526.918 272.703 526.433 273.493 525.369 273.805C515.92 276.579 506.4 277.248 496.91 274.173C491.392 272.384 487.655 268.502 485.766 263.143C482.268 253.225 482.239 243.214 485.705 233.274C488.5 225.26 494.553 221.176 502.887 220.101C506.765 219.6 510.659 219.507 514.497 220.423ZM395.848 220.508C396.617 220.752 396.964 221.391 396.964 222.172C396.97 226.877 396.947 231.583 396.966 236.288C396.969 237.089 396.573 237.023 396.008 236.951C393.926 236.684 391.855 236.298 389.745 236.282C388.349 236.272 386.977 236.47 385.631 236.816C384.14 237.199 383.514 237.914 383.352 239.448C383.247 240.449 383.191 241.459 383.19 242.464C383.178 253.009 383.164 263.554 383.209 274.099C383.213 275.257 382.902 275.573 381.741 275.561C376.147 275.5 370.552 275.517 364.958 275.549C364.049 275.555 363.646 275.43 363.648 274.345C363.687 256.91 363.688 239.475 363.646 222.041C363.643 220.967 364.088 220.77 364.94 220.768C369.231 220.758 373.521 220.741 377.811 220.736C378.794 220.735 379.441 221.223 379.882 222.109C380.492 223.334 381.183 224.518 381.859 225.755C382.752 224.653 383.49 223.627 384.343 222.708C387.696 219.097 391.686 219.182 395.848 220.508ZM402.643 220.743C408.591 220.798 414.54 220.786 420.488 220.752C421.378 220.746 421.69 220.936 421.688 221.85C421.66 239.379 421.66 256.907 421.687 274.435C421.689 275.325 421.432 275.559 420.511 275.553C414.518 275.514 408.525 275.502 402.534 275.561C401.415 275.572 401.27 275.185 401.273 274.268C401.304 265.567 401.292 256.866 401.292 248.164C401.292 239.463 401.312 230.762 401.266 222.061C401.26 221.013 401.539 220.733 402.643 220.743ZM453.02 234.281C452.325 234.439 451.645 234.667 450.971 234.902C449.252 235.501 448.966 235.912 448.964 237.757C448.96 241.557 448.963 245.358 448.963 249.158H448.98C448.98 253.084 448.976 257.009 448.986 260.935C448.987 261.366 448.846 261.829 449.399 262.135C451.993 263.573 455.235 262.459 456.361 259.722C456.795 258.667 456.96 257.552 457.148 256.444C458.256 249.914 458.069 243.383 457.061 236.868C456.716 234.641 455.244 233.775 453.02 234.281ZM506.16 231.6C504.849 232.214 503.996 233.285 503.812 234.666C503.449 237.384 503.255 240.124 502.96 242.853C502.889 243.516 503.115 243.756 503.784 243.739C504.968 243.708 506.153 243.73 507.337 243.73C508.521 243.73 509.706 243.721 510.89 243.734C511.388 243.74 511.706 243.631 511.643 243.042C511.303 239.861 511.239 236.642 510.474 233.519C510 231.586 507.995 230.742 506.16 231.6ZM411.634 192.797C417.179 192.833 421.701 197.186 421.688 202.477C421.675 207.865 417.058 212.178 411.343 212.144C405.703 212.11 401.234 207.783 401.266 202.386C401.298 196.961 405.84 192.76 411.634 192.797Z" fill="url(#paint1_linear_750_19)" shape-rendering="crispEdges"/>
</g>
<path d="M256.005 264.178H218.844C216.335 264.178 214.305 266.209 214.305 268.716C214.305 271.222 216.335 273.255 218.844 273.255H256.005C258.514 273.255 260.544 271.222 260.544 268.716C260.544 266.209 258.514 264.178 256.005 264.178Z" fill="#9A95FF"/>
<path d="M260.545 246.022H232.461C229.952 246.022 227.922 248.055 227.922 250.562C227.922 253.068 229.952 255.101 232.461 255.101H260.545C263.053 255.101 265.083 253.068 265.083 250.562C265.083 248.055 263.053 246.022 260.545 246.022Z" fill="#9A95FF"/>
<path d="M265.082 227.868H246.076C243.567 227.868 241.537 229.9 241.537 232.407C241.537 234.913 243.567 236.946 246.076 236.946H265.082C267.591 236.946 269.621 234.913 269.621 232.407C269.621 229.9 267.591 227.868 265.082 227.868Z" fill="#9A95FF"/>
<g filter="url(#filter2_d_750_19)">
<path d="M339 177.527C339 198.775 321.539 216 300 216C278.461 216 261 198.775 261 177.527C261 156.278 278.461 139.054 300 139.054C321.539 139.054 339 156.278 339 177.527Z" fill="#EFEEFF"/>
</g>
<path d="M299.632 178.277V183.847H297.865V170.093H302.551C303.111 170.081 303.667 170.18 304.187 170.385C304.708 170.589 305.183 170.894 305.586 171.283C305.992 171.649 306.315 172.097 306.534 172.597C306.752 173.098 306.861 173.64 306.853 174.186C306.865 174.735 306.757 175.28 306.539 175.784C306.32 176.288 305.995 176.739 305.586 177.105C304.766 177.887 303.755 178.277 302.551 178.276H299.632V178.277ZM299.632 171.786V176.587H302.595C302.92 176.597 303.243 176.539 303.544 176.416C303.845 176.294 304.117 176.11 304.343 175.876C304.568 175.658 304.747 175.396 304.869 175.108C304.99 174.819 305.053 174.509 305.053 174.195C305.053 173.882 304.99 173.572 304.869 173.283C304.747 172.994 304.568 172.733 304.343 172.515C304.12 172.276 303.849 172.088 303.548 171.962C303.246 171.836 302.922 171.776 302.595 171.785H299.632V171.786Z" fill="#5F6368"/>
<path d="M310.925 174.129C312.231 174.129 313.261 174.478 314.017 175.176C314.773 175.874 315.15 176.831 315.15 178.047V183.846H313.46V182.541H313.383C312.651 183.616 311.678 184.154 310.464 184.154C309.427 184.154 308.56 183.846 307.862 183.232C307.527 182.95 307.259 182.597 307.078 182.198C306.897 181.799 306.807 181.365 306.815 180.927C306.815 179.954 307.183 179.179 307.919 178.604C308.655 178.029 309.637 177.741 310.867 177.739C311.916 177.739 312.78 177.931 313.459 178.316V177.912C313.461 177.613 313.396 177.318 313.27 177.048C313.144 176.777 312.959 176.538 312.729 176.348C312.262 175.926 311.653 175.696 311.024 175.704C310.037 175.704 309.256 176.12 308.681 176.953L307.124 175.973C307.98 174.743 309.247 174.129 310.925 174.129ZM308.639 180.966C308.638 181.191 308.69 181.413 308.792 181.613C308.894 181.813 309.042 181.987 309.225 182.118C309.616 182.425 310.101 182.588 310.598 182.579C311.343 182.578 312.058 182.281 312.585 181.754C313.17 181.203 313.463 180.556 313.463 179.815C312.912 179.376 312.144 179.156 311.158 179.156C310.441 179.156 309.842 179.329 309.363 179.675C308.879 180.026 308.639 180.453 308.639 180.966Z" fill="#5F6368"/>
<path d="M324.851 174.437L318.951 187.995H317.128L319.317 183.251L315.438 174.437H317.358L320.162 181.197H320.2L322.927 174.437H324.851Z" fill="#5F6368"/>
<path d="M292.492 177.077C292.492 176.539 292.447 176.001 292.356 175.471H284.904V178.514H289.172C289.085 179 288.9 179.463 288.629 179.876C288.358 180.288 288.006 180.642 287.594 180.915V182.89H290.141C291.633 181.515 292.492 179.482 292.492 177.077Z" fill="#4285F4"/>
<path d="M284.905 184.798C287.038 184.798 288.833 184.098 290.142 182.891L287.595 180.916C286.886 181.396 285.973 181.671 284.905 181.671C282.844 181.671 281.095 180.281 280.47 178.409H277.846V180.445C278.503 181.754 279.512 182.854 280.758 183.622C282.005 184.391 283.441 184.798 284.905 184.798Z" fill="#34A853"/>
<path d="M280.469 178.409C280.138 177.428 280.138 176.365 280.469 175.384V173.349H277.845C277.292 174.45 277.004 175.664 277.004 176.897C277.004 178.129 277.292 179.344 277.845 180.444L280.469 178.409Z" fill="#FBBC04"/>
<path d="M284.905 172.123C286.032 172.105 287.121 172.531 287.936 173.308L290.192 171.053C288.762 169.71 286.867 168.973 284.905 168.996C283.441 168.996 282.005 169.403 280.758 170.172C279.512 170.94 278.503 172.04 277.846 173.349L280.47 175.385C281.095 173.513 282.844 172.123 284.905 172.123Z" fill="#EA4335"/>
<g filter="url(#filter3_d_750_19)">
<path d="M518 314.5C518 333.554 502.554 349 483.5 349C464.446 349 449 333.554 449 314.5C449 295.446 464.446 280 483.5 280C502.554 280 518 295.446 518 314.5Z" fill="#EFEEFF"/>
</g>
<path d="M470.026 308.687C469.541 309.261 468.764 309.714 467.988 309.649C467.891 308.873 468.271 308.048 468.716 307.538C469.201 306.948 470.05 306.527 470.738 306.495C470.819 307.304 470.503 308.096 470.026 308.687ZM470.73 309.803C469.606 309.738 468.643 310.442 468.109 310.442C467.568 310.442 466.751 309.835 465.861 309.851C464.705 309.868 463.629 310.523 463.038 311.566C461.825 313.653 462.723 316.742 463.896 318.44C464.47 319.282 465.157 320.203 466.063 320.171C466.921 320.139 467.26 319.613 468.295 319.613C469.339 319.613 469.638 320.171 470.544 320.155C471.482 320.139 472.072 319.314 472.646 318.473C473.302 317.518 473.568 316.588 473.585 316.54C473.568 316.524 471.773 315.836 471.757 313.766C471.741 312.035 473.172 311.21 473.237 311.162C472.428 309.965 471.166 309.835 470.73 309.803ZM477.224 307.458V320.066H479.181V315.755H481.891C484.365 315.755 486.104 314.057 486.104 311.598C486.104 309.14 484.398 307.458 481.955 307.458H477.224ZM479.181 309.107H481.438C483.136 309.107 484.107 310.013 484.107 311.606C484.107 313.2 483.136 314.114 481.43 314.114H479.181V309.107ZM489.679 320.163C490.908 320.163 492.048 319.54 492.566 318.554H492.607V320.066H494.418V313.79C494.418 311.97 492.962 310.798 490.722 310.798C488.644 310.798 487.107 311.987 487.05 313.62H488.813C488.959 312.844 489.679 312.334 490.666 312.334C491.862 312.334 492.534 312.892 492.534 313.919V314.615L490.091 314.761C487.819 314.898 486.589 315.828 486.589 317.446C486.589 319.079 487.859 320.163 489.679 320.163ZM490.205 318.667C489.161 318.667 488.498 318.165 488.498 317.397C488.498 316.605 489.137 316.144 490.358 316.071L492.534 315.933V316.645C492.534 317.826 491.531 318.667 490.205 318.667ZM496.836 323.495C498.745 323.495 499.643 322.767 500.427 320.559L503.864 310.919H501.875L499.57 318.368H499.529L497.225 310.919H495.178L498.494 320.098L498.316 320.656C498.017 321.603 497.532 321.967 496.666 321.967C496.513 321.967 496.214 321.95 496.092 321.934V323.447C496.205 323.479 496.691 323.495 496.836 323.495Z" fill="black"/>
<circle cx="540.911" cy="202.08" r="5.15758" fill="white" fill-opacity="0.19"/>
<circle cx="289.22" cy="307.295" r="6.1891" fill="#8CFF64"/>
<circle opacity="0.2" cx="336.155" cy="310.905" r="24.2406" fill="url(#paint2_linear_750_19)" fill-opacity="0.19"/>
<circle opacity="0.2" cx="489.85" cy="176.808" r="15.9885" fill="url(#paint3_linear_750_19)" fill-opacity="0.19"/>
<circle opacity="0.3" cx="238.676" cy="150.504" r="16.5043" fill="url(#paint4_linear_750_19)" fill-opacity="0.19"/>
<defs>
<filter id="filter0_d_750_19" x="0" y="0" width="792" height="582" filterUnits="userSpaceOnUse" color-interpolation-filters="sRGB">
<feFlood flood-opacity="0" result="BackgroundImageFix"/>
<feColorMatrix in="SourceAlpha" type="matrix" values="0 0 0 0 0 0 0 0 0 0 0 0 0 0 0 0 0 0 127 0" result="hardAlpha"/>
<feOffset dy="44"/>
<feGaussianBlur stdDeviation="42"/>
<feComposite in2="hardAlpha" operator="out"/>
<feColorMatrix type="matrix" values="0 0 0 0 0 0 0 0 0 0.0966666 0 0 0 0 0.241667 0 0 0 0.25 0"/>
<feBlend mode="normal" in2="BackgroundImageFix" result="effect1_dropShadow_750_19"/>
<feBlend mode="normal" in="SourceGraphic" in2="effect1_dropShadow_750_19" result="shape"/>
</filter>
<filter id="filter1_d_750_19" x="258.275" y="161.851" width="296.677" height="151.567" filterUnits="userSpaceOnUse" color-interpolation-filters="sRGB">
<feFlood flood-opacity="0" result="BackgroundImageFix"/>
<feColorMatrix in="SourceAlpha" type="matrix" values="0 0 0 0 0 0 0 0 0 0 0 0 0 0 0 0 0 0 127 0" result="hardAlpha"/>
<feOffset dy="-6.1891"/>
<feGaussianBlur stdDeviation="12.3782"/>
<feComposite in2="hardAlpha" operator="out"/>
<feColorMatrix type="matrix" values="0 0 0 0 0 0 0 0 0 0 0 0 0 0 0 0 0 0 0.15 0"/>
<feBlend mode="normal" in2="BackgroundImageFix" result="effect1_dropShadow_750_19"/>
<feBlend mode="normal" in="SourceGraphic" in2="effect1_dropShadow_750_19" result="shape"/>
</filter>
<filter id="filter2_d_750_19" x="210.327" y="115.406" width="179.346" height="178.292" filterUnits="userSpaceOnUse" color-interpolation-filters="sRGB">
<feFlood flood-opacity="0" result="BackgroundImageFix"/>
<feColorMatrix in="SourceAlpha" type="matrix" values="0 0 0 0 0 0 0 0 0 0 0 0 0 0 0 0 0 0 127 0" result="hardAlpha"/>
<feOffset dy="27.0257"/>
<feGaussianBlur stdDeviation="25.3365"/>
<feColorMatrix type="matrix" values="0 0 0 0 0.115036 0 0 0 0 0 0 0 0 0 0.359488 0 0 0 0.27 0"/>
<feBlend mode="normal" in2="BackgroundImageFix" result="effect1_dropShadow_750_19"/>
<feBlend mode="normal" in="SourceGraphic" in2="effect1_dropShadow_750_19" result="shape"/>
</filter>
<filter id="filter3_d_750_19" x="419.611" y="274.258" width="127.778" height="127.778" filterUnits="userSpaceOnUse" color-interpolation-filters="sRGB">
<feFlood flood-opacity="0" result="BackgroundImageFix"/>
<feColorMatrix in="SourceAlpha" type="matrix" values="0 0 0 0 0 0 0 0 0 0 0 0 0 0 0 0 0 0 127 0" result="hardAlpha"/>
<feOffset dy="23.6474"/>
<feGaussianBlur stdDeviation="14.6946"/>
<feColorMatrix type="matrix" values="0 0 0 0 0.115036 0 0 0 0 0 0 0 0 0 0.359488 0 0 0 0.05 0"/>
<feBlend mode="normal" in2="BackgroundImageFix" result="effect1_dropShadow_750_19"/>
<feBlend mode="normal" in="SourceGraphic" in2="effect1_dropShadow_750_19" result="shape"/>
</filter>
<linearGradient id="paint0_linear_750_19" x1="631.51" y1="-505.54" x2="284.604" y2="490.337" gradientUnits="userSpaceOnUse">
<stop stop-color="#B3AFFF"/>
<stop offset="1" stop-color="#635BFF"/>
</linearGradient>
<linearGradient id="paint1_linear_750_19" x1="406.613" y1="192.797" x2="406.613" y2="294.852" gradientUnits="userSpaceOnUse">
<stop stop-color="white"/>
<stop offset="1" stop-color="white" stop-opacity="0"/>
</linearGradient>
<linearGradient id="paint2_linear_750_19" x1="336.155" y1="286.664" x2="336.155" y2="335.145" gradientUnits="userSpaceOnUse">
<stop stop-color="white"/>
<stop offset="1" stop-color="white" stop-opacity="0"/>
</linearGradient>
<linearGradient id="paint3_linear_750_19" x1="489.85" y1="160.819" x2="489.85" y2="192.796" gradientUnits="userSpaceOnUse">
<stop stop-color="white"/>
<stop offset="1" stop-color="white" stop-opacity="0"/>
</linearGradient>
<linearGradient id="paint4_linear_750_19" x1="239.209" y1="167.009" x2="246.13" y2="105.251" gradientUnits="userSpaceOnUse">
<stop stop-color="white"/>
<stop offset="1" stop-color="white" stop-opacity="0"/>
</linearGradient>
</defs>
</svg>
