<svg xmlns="http://www.w3.org/2000/svg" xmlns:xlink="http://www.w3.org/1999/xlink" width="620" height="410" xmlns:v="https://vecta.io/nano"><defs><linearGradient x1="50%" y1="0%" x2="50%" y2="100%" id="A"><stop stop-color="#1da1e8" offset="0%"/><stop stop-color="#157fcb" offset="100%"/></linearGradient><path id="B" d="M0 0h619.162v410H0z"/><linearGradient x1="50%" y1="21.3310656%" x2="50%" y2="172.154766%" id="C"><stop stop-color="#eaf7ff" offset="0%"/><stop stop-color="#3e97d6" stop-opacity="0" offset="90.5148379%"/><stop stop-color="#1681cd" stop-opacity="0" offset="100%"/></linearGradient><path d="M178.667 27.397c2.746 1.083 4.593 3.151 5.965 5.675 2.089 3.844 2.957 8.028 3.34 12.315.567 6.34.638 12.674-.637 18.961-.746 3.678-1.903 7.192-4.204 10.233-3.177 4.199-7.623 5.877-12.737 6.196-2.431.152-4.833-.122-7.229-.428l-1.306-.168h0c-.961-.123-1.078.177-1.074.988l.036 16.254c.009 1.02-.189 1.391-1.323 1.379l-16.534-.003c-1.036.01-1.308-.306-1.305-1.282l-.01-19.771-.001-14.92-.03-34.327c-.005-1.204.35-1.458 1.504-1.45 3.549.024 7.099.116 10.65-.076 2.382-.129 4.486.462 5.591 2.847.403.871.787.224 1.103 0 2.45-1.743 5.083-3.066 8.101-3.51 3.459-.509 6.846-.197 10.099 1.087zm-145.805.59c1.174.371 1.577 1.109 1.565 2.272l-.024 10.274c.011.952-.347 1.077-1.151.926l-8.718-1.557c-1.202-.204-2.424-.275-3.608.107-.992.321-1.952.836-2.17 1.93-.23 1.158.338 2.15 1.213 2.906.774.668 1.717 1.065 2.619 1.524l5.725 2.94c6.202 3.261 8.564 8.582 8.036 15.393-.284 3.661-1.121 7.167-3.376 10.172-2.859 3.81-6.907 5.392-11.412 5.971-6.438.827-12.751-.001-18.974-1.712-1.106-.304-1.699-.942-1.647-2.197.074-1.75.018-3.506.018-5.259H.944L.926 66.05c-.026-.848.281-.943.993-.778 2.954.684 5.907 1.385 8.922 1.758 1.415.175 2.827.195 4.233-.065 1.311-.243 2.566-1.411 2.798-2.584.214-1.081-.364-2.106-1.793-2.896-2.232-1.235-4.451-2.511-6.762-3.577C1.538 54.319-1.307 46.664.547 38.688 2.127 31.889 6.565 28.24 13.1 26.825c6.688-1.448 13.266-.889 19.762 1.162zm31.163-15.584l-.041 13.497c-.012 1.029.309 1.303 1.297 1.279 2.574-.064 5.152.008 7.726-.038.813-.015.956.27.802.998l-2.116 10.345c-.123.636-.389.773-.957.766-1.851-.024-3.703.021-5.554-.023-.743-.018-1.063.142-1.06.984l.034 23.224c.016 2.547 1.002 3.414 3.548 3.273 1.805-.1 3.604-.324 5.401-.54.593-.071.781.096.779.691l-.006 11.916c.001.461-.111.745-.635.838l-2.232.398c-3.968.705-7.941 1.344-12.01 1.109-1.492-.086-2.966-.273-4.414-.624-5.093-1.233-8.323-4.986-9.052-10.443-.161-1.208-.25-2.415-.247-3.634l.003-12.16h-.012l.024-13.619c.012-1.032-.196-1.448-1.31-1.373-1.522.103-3.058-.001-4.586.037-.668.017-.91-.181-.904-.887l.001-10.336c-.006-.668.249-.816.849-.804l.942.009h0l1.884-.01a39.76 39.76 0 0 1 1.882.032c.872.039 1.272-.204 1.434-1.117l1.715-8.94c.248-1.423.919-2.18 2.35-2.504l13.36-3.218c.84-.208 1.114-.051 1.106.875zM224.09 26.746c7.214 1.72 12.505 7.644 13.725 15.261.76 4.746.934 9.538 1.238 14.321.038.598-.05 1.214.235 1.782v1.451c-8.237.009-16.473.046-24.71-.005-1.251-.008-1.505.428-1.463 1.515.11 2.849 1.572 4.569 4.462 5.044 4.072.67 8.082.048 12.085-.624l5.68-.996c.69-.136.864.065.857.703l-.077 11.122c-.007 1.04-.477 1.805-1.506 2.107-9.149 2.685-18.366 3.333-27.553.355-5.342-1.732-8.96-5.49-10.789-10.678-3.386-9.602-3.415-19.294-.059-28.918 2.706-7.759 8.565-11.712 16.634-12.753 3.754-.484 7.524-.574 11.24.312zm-114.868.082c.744.237 1.08.855 1.08 1.611l.002 13.666c.003.775-.381.711-.927.642-2.016-.258-4.021-.632-6.064-.647-1.352-.01-2.68.183-3.983.517-1.443.37-2.049 1.063-2.206 2.549-.102.968-.156 1.946-.157 2.92l.018 30.627c.005 1.121-.297 1.427-1.421 1.415l-16.249-.011c-.879.005-1.27-.115-1.268-1.166l-.003-50.638c-.002-1.039.429-1.23 1.253-1.232l12.461-.031c.952-.001 1.578.472 2.005 1.329.59 1.186 1.259 2.332 1.914 3.53.864-1.067 1.579-2.06 2.405-2.95 3.246-3.496 7.109-3.413 11.139-2.13zm6.578.228l17.276.008c.862-.005 1.163.179 1.162 1.063l-.001 50.91c.001.861-.247 1.087-1.139 1.082-5.801-.037-11.603-.049-17.404.008-1.083.011-1.223-.364-1.22-1.252l.018-25.272.004-12.636-.029-12.636c-.005-1.014.265-1.285 1.333-1.275zm48.772 13.106c-.672.153-1.331.374-1.983.601-1.664.58-1.941.978-1.943 2.764l-.001 11.038h.017l.006 11.402c.001.417-.136.865.4 1.162 2.511 1.392 5.65.313 6.74-2.337.42-1.021.58-2.1.762-3.174 1.073-6.321.892-12.645-.085-18.952-.334-2.156-1.759-2.995-3.912-2.505zm51.447-2.595c-1.268.594-2.095 1.631-2.273 2.968-.351 2.632-.539 5.285-.824 7.926-.069.642.15.874.798.858 1.146-.03 2.293-.008 3.439-.008l3.44.004c.482.006.791-.1.73-.671-.33-3.079-.391-6.196-1.132-9.219-.459-1.871-2.4-2.689-4.177-1.858zM124.505 0c5.369.035 9.746 4.249 9.733 9.371-.013 5.216-4.482 9.392-10.015 9.359-5.46-.033-9.787-4.222-9.756-9.447.031-5.253 4.429-9.32 10.038-9.284z" id="D"/><filter x="-17.8%" y="-47.1%" width="135.5%" height="186.0%" id="E"><feOffset dy="-4" in="SourceAlpha"/><feGaussianBlur stdDeviation="13.5"/><feColorMatrix values="0 0 0 0 0   0 0 0 0 0   0 0 0 0 0  0 0 0 0.16911604 0"/></filter><linearGradient x1="73.7453174%" y1="33.4796563%" x2="-152.78505%" y2="228.639741%" id="F"><stop stop-color="#3cc2ff" stop-opacity="0" offset="0%"/><stop stop-color="#3d69ff" offset="100%"/></linearGradient></defs><g fill="none" fill-rule="evenodd"><mask id="G" fill="#fff"><use xlink:href="#B"/></mask><use fill="url(#A)" xlink:href="#B"/><g mask="url(#G)"><g transform="translate(107.183 82.208)"><g transform="translate(82.208 72.843)"><use fill="#000" filter="url(#E)" xlink:href="#D"/><use fill="url(#C)" xlink:href="#D"/></g><g fill="url(#F)"><circle cx="123.832" cy="193.553" r="20.812"/><circle cx="20.812" cy="20.812" r="20.812"/></g><g transform="translate(64.518 11.447)" fill-rule="nonzero"><circle fill="#12d1f3" cx="260.673" cy="179.505" r="8.845"/><ellipse fill="#e9485e" opacity=".866" cx="8.325" cy="152.449" rx="5.203" ry="5.723"/><path fill="#f33bf4" opacity=".994" d="M21.137 33.299l5.918 24.975L0 53.44z"/><path fill="#afb659" transform="matrix(0 -1 1 0 177.423858 197.195432)" d="M192.87-.52l4.325 20.812-19.772-4.028z"/><path fill-opacity=".675" fill="#0f43f1" opacity=".9" transform="matrix(.515038 .857167 -.857167 .515038 236.369368 -21.676423)" d="M144.927 185.565l5.942 24.975-27.056-4.857z"/></g></g></g></g></svg>