<svg xmlns="http://www.w3.org/2000/svg" xmlns:xlink="http://www.w3.org/1999/xlink" width="619" height="410" xmlns:v="https://vecta.io/nano"><defs><linearGradient x1="47.8988549%" y1="100%" x2="47.8988549%" y2="-96.4161767%" id="A"><stop stop-color="#a75bff" offset="0%"/><stop stop-color="#e2cbff" offset="100%"/></linearGradient><path id="B" d="M0 0h618.904v409.514H0z"/><linearGradient x1="82.7935087%" y1="28.4469797%" x2="-47.2596047%" y2="147.518866%" id="C"><stop stop-color="#a75bff" stop-opacity="0" offset="0%"/><stop stop-color="#e2cbff" offset="100%"/></linearGradient><linearGradient x1="50%" y1="-0.163199551%" x2="48.3315573%" y2="150.668275%" id="D"><stop stop-color="#fcf9ff" offset="0%"/><stop stop-color="#f7efff" stop-opacity=".673" offset="53.1201697%"/><stop stop-color="#9159d1" stop-opacity="0" offset="100%"/></linearGradient><path d="M61.6 38.594l-.038 7.825c.043 1.471-.603 3.01.393 4.387 2.86-.002 5.745.613 8.564-.388.595.855 1.42.419 2.166.423 2.86-.078 5.753.597 8.57-.423.595.855 1.42.419 2.166.423 2.86-.077 5.753.596 8.571-.422.595.854 1.42.418 2.166.422 2.859-.078 5.753.597 8.57-.423.595.855 1.42.419 2.167.423 2.86-.077 5.753.596 8.57-.422.595.854 1.42.418 2.166.422l8.035-.031 2.701.031 12.279.104c1.4.034 1.864-.479 1.834-1.924-.072-3.534-.044-7.07-.013-10.606.011-1.279-.376-1.977-1.718-1.673-.907-.442-1.832-.332-2.762-.103-2.846-.233-5.691-.379-8.53.093-.723-.365-1.46-.324-2.206-.093-2.846-.233-5.691-.378-8.53.09-.723-.36-1.461-.321-2.206-.09-2.846-.233-5.691-.379-8.53.093-.723-.365-1.46-.324-2.206-.093-2.846-.233-5.691-.378-8.53.09-.723-.36-1.461-.321-2.206-.09-2.846-.233-5.691-.378-8.53.09-.723-.36-1.461-.321-2.206-.09-2.667-.249-5.332-.34-7.994.062-1.085-.348-2.176-.341-3.271-.063-2.491-.248-4.98-.344-7.466.066-1.751-.617-2.393.031-1.975 1.889M27.748 19.199c-6.278.975-11.438 5.864-12.774 12.104-.502.982-.393 2.021-.308 3.059-.285 2.289.038 4.483 1.113 6.557l.831 1.554c.766 1.888 2.053 3.376 3.755 4.544.536.737 1.283 1.193 2.138 1.506 1.696 1.263 3.603 1.978 5.754 2.051.627.537 1.375.421 2.112.366 9.815.439 18.303-7.667 17.436-16.651l-.289-2.46c-.225-2.094-1.001-3.974-2.352-5.629-.201-.614-.529-1.135-1.132-1.458-1.051-1.56-2.424-2.768-4.185-3.55-.583-.582-1.295-.919-2.118-1.046-2.135-1.128-4.416-1.565-6.836-1.337-1.082-.123-2.154-.168-3.146.39m42.631-2.413l-7.975.017c-.805-.147-1.098.197-.882 1.027l-.037 7.841.037 3.403c-.312 1.318-.121 2.216 1.461 2.103 2.103-.151 4.23.273 6.318-.28.716.376 1.449.333 2.19.099 2.825.237 5.65.39 8.467-.099.716.376 1.449.333 2.19.099 2.825.237 5.65.39 8.467-.099.716.376 1.449.333 2.19.099 2.825.237 5.649.39 8.467-.096.716.372 1.449.329 2.19.096 2.825.237 5.649.39 8.467-.096.716.372 1.449.329 2.19.096 2.825.237 5.649.39 8.467-.096.716.372 1.449.329 2.19.096 2.825.237 5.649.39 8.467-.096.716.372 1.449.329 2.19.096 2.647.254 5.293.348 7.935-.065.9.346 1.809.315 2.721.065 2.648.254 5.294.348 7.936-.066 3.133.451 3.257.313 2.707-3.002l.031-7.868c-.072-1.211 1.415-3.016-1.126-3.284-3.022-.033-6.06-.443-9.042.437-.389-.759-1.031-.482-1.616-.437-3.021-.033-6.06-.443-9.042.437-.389-.759-1.031-.482-1.616-.437-3.021-.033-6.06-.443-9.042.437-.389-.759-1.031-.482-1.616-.437-3.021-.033-6.06-.443-9.042.437-.389-.759-1.031-.482-1.616-.437-3.021-.03-6.06-.446-9.042.437-.389-.759-1.03-.481-1.615-.437-3.021-.03-6.06-.446-9.042.437-.389-.759-1.03-.481-1.615-.437-3.021-.03-6.06-.446-9.042.437-.389-.759-1.03-.481-1.615-.437l-7.976.03-2.683-.018m100.15 125.726l-.03-2.614.03-7.779-.03-2.614.03-7.779-.03-2.614.03-7.779-.03-2.614.03-7.779-.03-2.614.03-7.779-.03-2.614.03-7.779-.03-2.614.03-7.779c.399-1.729-.29-2.399-2.066-2.011l-7.988.029-2.686-.029-7.988.029-2.686-.029-7.988.029-2.686-.029-7.988.029-2.686-.029-7.988.029-2.686-.029-7.988.029-2.686-.029-7.988.029-2.686-.029-7.988.029-2.686-.029-7.988.029-2.686-.029-7.988.029-2.686-.029-7.988.029-2.686-.029-7.988.029-2.686-.029-7.988.029-2.686-.029-14.134-.098c-1.437-.027-2.073.316-2.035 1.859.113 4.586.088 9.174.117 13.762l.05 2.592-.05 7.802.05 2.592-.05 7.802.05 2.592-.05 7.802.05 2.592-.05 7.802.05 2.592-.05 7.802.05 2.592-.05 7.802.05 2.592c-.495 1.893-.003 2.887 2.259 2.625 1.54-.178 3.111-.097 4.669-.131l2.686.03 7.988-.03 2.686.03 7.988-.03 2.686.03 7.988-.03 2.686.03 7.988-.03 2.686.03 7.988-.03 2.686.03 7.988-.03 2.686.03 7.988-.03 2.686.03 7.988-.03 2.686.03 7.988-.03 2.686.03 7.988-.03 2.686.03 7.988-.03 2.686.03 7.988-.03 2.686.03 7.988-.03 2.686.03c8.86.394 8.86.394 8.455-8.233M0 14.312l.03-7.881L0 3.782c.034-.43.155-.874.087-1.289C-.232.548.556-.228 2.533.086c.42.067.872-.053 1.309-.086l2.692.03L14.541 0l2.692.03L25.24 0l2.692.03L35.938 0l2.692.03L46.637 0l2.692.03L57.336 0l2.692.03L68.034 0l2.692.03L78.733 0l2.692.03L89.432 0l2.692.03L100.13 0l2.692.03 8.007-.03 2.692.03 8.007-.03 2.692.03 8.007-.03 2.692.03 8.007-.03 2.692.03 8.007-.03 2.692.03 8.007-.03 2.692.03 8.007-.03 2.692.03 7.405.227.078 1.428-.051 7.904.05 2.626-.05 7.904.05 2.626-.05 7.904.05 2.626-.05 7.904.05 2.626-.05 7.904.05 2.626-.05 7.904.05 2.626-.05 7.904.05 2.626-.05 7.904.05 2.626-.05 7.904.05 2.626-.05 7.904.05 2.626-.05 7.904.05 2.626-.05 7.904.05 2.626-.05 7.904.05 2.626-.05 7.904.05 2.626-.05 7.904.05 2.626c-.44 1.744.671 3.956-.598 5.203s-3.516.155-5.287.589l-2.668-.05-8.03.05-2.668-.05-8.03.05-2.668-.05-8.03.05-2.668-.05-8.03.05-2.668-.05-8.03.05-2.668-.05-8.03.05-2.668-.05-8.03.05-2.668-.05-8.03.05-2.668-.05-8.03.05-2.668-.05-8.03.05-2.668-.05-8.03.05-2.668-.05-8.03.05-2.668-.05-8.03.05-2.668-.05-8.03.05-2.668-.05-8.03.05-2.668-.05-8.03.05-2.668-.05c-1.754-.632-3.925.936-5.433-.997L0 161.728l.03-7.881-.03-2.649.03-7.881-.03-2.649.03-7.881-.03-2.649.03-7.881-.03-2.649.03-7.881-.03-2.649.03-7.881L0 98.55l.03-7.881L0 88.02l.03-7.881L0 77.49l.03-7.881L0 66.96l.03-7.881L0 56.431.03 48.55 0 45.901.03 38.02 0 35.371.03 27.49 0 24.841.03 16.96 0 14.312" id="E"/><filter x="-26.2%" y="-33.5%" width="152.4%" height="158.6%" id="F"><feOffset dy="-7" in="SourceAlpha"/><feGaussianBlur stdDeviation="15"/><feColorMatrix values="0 0 0 0 0.41221999   0 0 0 0 0.136551298   0 0 0 0 0.732591712  0 0 0 0.147508741 0"/></filter><circle id="G" cx="34.34" cy="34.34" r="34.34"/><filter x="-161.6%" y="-126.7%" width="423.2%" height="423.2%" id="H"><feOffset dy="24" in="SourceAlpha"/><feGaussianBlur stdDeviation="33"/><feColorMatrix values="0 0 0 0 0   0 0 0 0 0   0 0 0 0 0  0 0 0 0.108186141 0"/></filter><linearGradient x1="50%" y1="0%" x2="50%" y2="100%" id="I"><stop stop-color="#c2e998" offset="0%"/><stop stop-color="#02cc87" offset="100%"/></linearGradient><linearGradient x1="-6.57744692%" y1="105.006447%" x2="142.653909%" y2="-38.5896193%" id="J"><stop stop-color="#a75bff" stop-opacity="0" offset="0%"/><stop stop-color="#e2cbff" offset="100%"/></linearGradient></defs><g fill="none" fill-rule="evenodd"><use fill="url(#A)" xlink:href="#B"/><g transform="translate(107.183 74.924)"><circle fill="url(#C)" cx="117.589" cy="207.081" r="20.812"/><g transform="translate(110.305 48.909)"><use fill="#000" filter="url(#F)" xlink:href="#E"/><use fill="url(#D)" xlink:href="#E"/></g><g transform="translate(249.746 165.457)"><use fill="#000" filter="url(#H)" xlink:href="#G"/><use fill="#fff" xlink:href="#G"/><path d="M29.577 45.787c-.95 0-1.849-.348-2.426-.945l-7.802-8.068c-1.015-1.049-.751-2.544.589-3.338s3.249-.587 4.264.462l5.132 5.306L42.24 22.976c.889-1.116 2.765-1.458 4.194-.763s1.863 2.166.974 3.283L32.161 44.664c-.53.666-1.444 1.086-2.445 1.121l-.139.002z" fill="url(#I)"/></g><g fill-rule="nonzero"><circle fill="#d812f3" cx="316.865" cy="154.53" r="8.845"/><ellipse fill="#e9c448" opacity=".866" cx="92.614" cy="81.688" rx="5.203" ry="5.723"/><path fill="#803bf4" opacity=".994" d="M81.492 163.376l5.918 24.975-27.056-4.834z"/><path fill="#afb659" d="M304.898 76.127l20.812-4.325-4.028 19.772z"/><path fill-opacity=".443" fill="#0ff1c8" opacity=".9" d="M217.51 231.423l-18.347 17.956-9.771-25.693z"/></g><circle fill="url(#J)" cx="20.812" cy="20.812" r="20.812"/></g></g></svg>