<svg xmlns="http://www.w3.org/2000/svg" xmlns:xlink="http://www.w3.org/1999/xlink" width="1240" height="822" xmlns:v="https://vecta.io/nano"><defs><linearGradient x1="97.9841324%" y1="28.0279657%" x2="50%" y2="71.9720343%" id="A"><stop stop-color="#ffe763" offset="0%"/><stop stop-color="#ffca32" offset="100%"/></linearGradient><linearGradient x1="50%" y1="38.8378117%" x2="50%" y2="100%" id="B"><stop stop-color="#f7c600" offset="0%"/><stop stop-color="#ffd03d" stop-opacity="0" offset="100%"/></linearGradient><linearGradient x1="50%" y1="0%" x2="50%" y2="100%" id="C"><stop stop-color="#c2e998" offset="0%"/><stop stop-color="#02cc87" offset="100%"/></linearGradient><path id="D" d="M0 0h26.446v23.275H0z"/><linearGradient x1="50%" y1="0%" x2="50%" y2="100%" id="E"><stop stop-color="#ffc000" offset="0%"/><stop stop-color="#ff7100" offset="100%"/></linearGradient><linearGradient x1="50%" y1="0%" x2="50%" y2="100%" id="F"><stop stop-color="#fee5ac" offset="0%"/><stop stop-color="#ffb181" offset="100%"/></linearGradient><ellipse id="G" cx="33.1" cy="33.171" rx="33.1" ry="33.171"/><filter x="-129.9%" y="-96.5%" width="359.8%" height="359.3%" id="H"><feOffset dy="22" in="SourceAlpha"/><feGaussianBlur stdDeviation="25"/><feColorMatrix values="0 0 0 0 0.726166214   0 0 0 0 0.496541539   0 0 0 0 0  0 0 0 1 0"/></filter><linearGradient x1="50%" y1="0%" x2="50%" y2="100%" id="I"><stop stop-color="#c1e3ff" offset="0%"/><stop stop-color="#6f88fc" offset="100%"/></linearGradient><ellipse id="J" cx="482.005" cy="233.682" rx="34.64" ry="34.655"/><filter x="-124.1%" y="-92.3%" width="348.3%" height="348.2%" id="K"><feOffset dy="22" in="SourceAlpha"/><feGaussianBlur stdDeviation="25"/><feColorMatrix values="0 0 0 0 0   0 0 0 0 0.124340032   0 0 0 0 0.359488225  0 0 0 0.248060533 0"/></filter><path id="L" d="M245.571 30.399h6.291c19.018 19.713 39.402 54.811 39.402 54.811-9.894 0-20.785-10.898-20.785-10.898l-24.908-43.912z"/></defs><g fill="none" fill-rule="evenodd"><path fill="url(#A)" d="M0 0h1240v822H0z"/><g transform="translate(273 82)"><path d="M347 500.587c191.643 0 347 38.056 347-153.587S538.643 0 347 0 0 155.357 0 347s155.357 153.587 347 153.587z" fill-opacity=".6" fill="url(#B)"/><g transform="translate(24.304 96.764)"><g transform="translate(0 113.416)"><path fill="#fff" d="M167.424 0h234.46v349.047h-234.46z"/><g transform="translate(192.628 45.907)"><ellipse fill="url(#C)" cx="25.121" cy="25.131" rx="25.121" ry="25.131"/><path d="M30.504 20.264a1.69 1.69 0 0 1 2.32 0c.601.576.638 1.488.113 2.106l-.113.12-8.917 8.554c-.601.576-1.551.612-2.196.108l-.125-.108-4.904-4.704a1.53 1.53 0 0 1 0-2.226c.601-.576 1.551-.612 2.196-.108l.125.108 3.743 3.591 7.757-7.441z" fill="#fff" fill-rule="nonzero"/></g><ellipse fill="url(#C)" cx="217.358" cy="148.916" rx="25.121" ry="25.131"/><g fill="#cfd9e5"><rect x="260.844" y="65.769" width="86.527" height="11.169" rx="5.584"/><rect x="260.844" y="143.331" width="86.527" height="11.169" rx="5.584"/></g><ellipse fill="url(#C)" cx="217.358" cy="235.479" rx="25.121" ry="25.131"/><rect fill="#cfd9e5" x="260.844" y="229.894" width="86.527" height="11.169" rx="5.584"/><g transform="translate(284.346 198.257)"><g transform="translate(308.497 137.888)"><mask id="M" fill="#fff"><use xlink:href="#D"/></mask><path d="M4.012 15.952C4.012 10.177 2.558 4.746 0 0h23.217s7.365 12.273-.152 23.275H2.664c.634-2.581 1.348-4.546 1.348-7.323" fill="#2c2d2c" mask="url(#M)"/></g><path d="M236.908 19.944c14.748 0 54.356 65.266 54.356 65.266s40.451 11.673 40.451 18.859v33.82h-23.217c-5.66-10.497-16.728-17.627-29.457-17.627-18.485 0-33.47 15.032-33.47 33.579a33.72 33.72 0 0 0 .803 7.299h-54.553V19.944h45.087z" fill="#fff2a2"/><use xlink:href="#L" fill="#4093c1"/><path fill="#3f3d3e" d="M212.769 99.095h13.863v-5.442h-13.863z"/><path fill="#f0a92d" d="M0 141.242h192.126V0H0z"/><path fill="#2c2c2c" d="M18.589 153.839h173.232v-12.597H18.589z"/><g fill="#004064"><path d="M240.629 30.399h-41.916v47.68h38.747l3.696 7.13h20.585V71.13z"/><use xlink:href="#L"/></g><g fill="#14567b"><path d="M198.714 78.08h.168l45.543-40.358-3.795-7.322h-.423l-41.493 39.632zm58.863-14.984l-18.584 17.939 2.163 4.174h5.99l13.76-15.691z"/><path d="M248.214 45.032L211.323 78.08h9.983l30.483-26.148zm-49.5 8.054v7.275l30.114-29.962h-7.88z"/></g><path d="M50.581 153.15c-.831-3.241-1.273-6.64-1.273-10.143 0-22.429 18.125-40.613 40.482-40.613s40.481 18.184 40.481 40.613a40.86 40.86 0 0 1-1.272 10.143H50.581z" fill="#2c2d2c"/><path d="M52.709 146.931c0-20.546 16.602-37.202 37.081-37.202s37.08 16.656 37.08 37.202-16.601 37.202-37.08 37.202-37.081-16.656-37.081-37.202" fill="#000"/><path d="M65.044 146.931c0-13.711 11.079-24.826 24.745-24.826s24.745 11.115 24.745 24.826-11.079 24.826-24.745 24.826-24.745-11.115-24.745-24.826" fill="#272828"/><path d="M78.351 146.931c0-6.338 5.121-11.475 11.438-11.475s11.438 5.137 11.438 11.475-5.121 11.475-11.438 11.475-11.438-5.137-11.438-11.475" fill="#c2cacc"/><path d="M91.375 139.777a1.59 1.59 0 1 1-1.585-1.59 1.59 1.59 0 0 1 1.585 1.59m-6.968 2.2c.759.44 1.018 1.413.579 2.173a1.58 1.58 0 0 1-2.164.582c-.759-.44-1.018-1.413-.581-2.174a1.58 1.58 0 0 1 2.165-.581m-1.584 7.154a1.58 1.58 0 0 1 2.165.581c.438.76.178 1.733-.581 2.174a1.58 1.58 0 0 1-2.164-.584 1.59 1.59 0 0 1 .579-2.171m5.383 4.954a1.59 1.59 0 1 1 1.585 1.59 1.59 1.59 0 0 1-1.585-1.59m6.968-2.2a1.59 1.59 0 0 1-.579-2.171 1.58 1.58 0 0 1 2.164-.582c.759.44 1.018 1.412.581 2.173a1.58 1.58 0 0 1-2.165.581m1.584-7.154a1.58 1.58 0 0 1-2.165-.581c-.437-.76-.178-1.734.581-2.174a1.58 1.58 0 0 1 2.164.582c.438.76.179 1.733-.579 2.173" fill="#000"/><path d="M240.265 161.163c-.831-3.241-1.273-6.64-1.273-10.143 0-22.429 18.125-40.613 40.482-40.613s40.481 18.184 40.481 40.613c0 3.503-.443 6.901-1.273 10.143h-78.416z" fill="#2c2d2c"/><path d="M246.304 151.021c0-18.379 14.851-33.277 33.169-33.277s33.169 14.899 33.169 33.277-14.85 33.277-33.169 33.277-33.169-14.899-33.169-33.277" fill="#000"/><path d="M257.338 151.021c0-12.265 9.911-22.207 22.135-22.207s22.135 9.942 22.135 22.207-9.91 22.207-22.135 22.207-22.135-9.943-22.135-22.207" fill="#272828"/><path d="M269.242 151.021c0-5.67 4.581-10.264 10.232-10.264s10.231 4.595 10.231 10.264-4.581 10.264-10.231 10.264-10.232-4.595-10.232-10.264" fill="#c2cacc"/><path d="M280.892 144.622a1.42 1.42 0 0 1-1.418 1.422 1.422 1.422 0 1 1 0-2.844 1.42 1.42 0 0 1 1.418 1.423m-6.233 1.966c.678.394.911 1.263.519 1.944s-1.259.914-1.937.52-.911-1.263-.519-1.943 1.259-.914 1.937-.521m-1.418 6.399c.678-.393 1.546-.16 1.937.521s.159 1.55-.519 1.944-1.546.16-1.937-.521-.159-1.55.519-1.944m4.815 4.431a1.42 1.42 0 0 1 1.418-1.422 1.422 1.422 0 1 1 0 2.844 1.42 1.42 0 0 1-1.418-1.423m6.232-1.966c-.678-.394-.911-1.263-.518-1.944s1.258-.914 1.936-.521.911 1.263.519 1.944-1.259.914-1.937.521m1.418-6.399c-.678.394-1.546.161-1.937-.521s-.159-1.549.519-1.943 1.546-.16 1.937.521.159 1.55-.519 1.943" fill="#000"/><path fill="#fefefe" d="M318.363 128.813h13.351v-14.09h-13.351z"/><path fill="#f96" d="M317.464 128.813h7.575v-15.268h-7.575z"/><path fill="#2c2d2c" d="M191.822 161.139h51.302v-16.516h-51.302z"/><path d="M261.768 65.575c-.291 0-.578.021-.862.056V88.28a7.11 7.11 0 0 0 .862.055c4.91 0 8.891-5.095 8.891-11.379s-3.981-11.38-8.891-11.38" fill="#ffbf00"/></g><ellipse fill="url(#E)" cx="61.406" cy="154.697" rx="61.406" ry="61.432"/><path d="M61.186 182.811v-4.504c2.529-.129 4.823-.633 6.881-1.512s3.816-2.016 5.273-3.41a15.2 15.2 0 0 0 3.408-4.825c.815-1.823 1.222-3.764 1.222-5.822 0-2.488-.514-4.536-1.543-6.144a13.24 13.24 0 0 0-3.955-3.989c-1.608-1.051-3.408-1.909-5.402-2.573l-5.884-1.898V131.47c2.058.043 3.762.44 5.113 1.19s2.476 1.705 3.376 2.863 1.629 2.466 2.187 3.925l1.608 4.375h.9v-12.224h-1.093c-.214.515-.418.869-.611 1.062s-.589.29-1.19.29c-.514 0-1.083-.129-1.704-.386l-2.122-.804a29.81 29.81 0 0 0-2.765-.804c-1.05-.257-2.283-.386-3.698-.386v-3.796h-1.093v3.796c-2.144.129-4.105.579-5.884 1.351s-3.312 1.769-4.598 2.992-2.283 2.606-2.99 4.15-1.061 3.131-1.061 4.761c0 2.316.429 4.246 1.286 5.79s1.972 2.831 3.344 3.86 2.926 1.866 4.662 2.509l5.241 1.737v19.687c-.6 0-1.254-.021-1.961-.064s-1.458-.193-2.251-.45-1.618-.643-2.476-1.158-1.736-1.222-2.637-2.123c-.9-.858-1.661-1.791-2.283-2.799s-1.136-1.994-1.543-2.959a19.38 19.38 0 0 1-.932-2.702l-.45-2.027h-.9v14.283h.965c.214-.6.45-.997.707-1.19s.686-.29 1.286-.29c.429 0 1.072.129 1.929.386l2.99.804 3.666.804a20.11 20.11 0 0 0 3.891.386v4.504h1.093zm-1.093-34.935l-3.826-1.287c-1.179-.472-2.208-1.04-3.087-1.705s-1.565-1.437-2.058-2.316-.74-1.898-.74-3.056c0-.901.214-1.812.643-2.734s1.05-1.759 1.865-2.509 1.833-1.383 3.055-1.898 2.605-.815 4.148-.901v16.406zm1.093 29.53v-19.43l4.212 1.383c1.308.493 2.454 1.104 3.441 1.834a8.47 8.47 0 0 1 2.347 2.606c.579 1.008.868 2.241.868 3.699 0 .772-.161 1.726-.482 2.863s-.89 2.23-1.704 3.281-1.929 1.941-3.344 2.67-3.194 1.094-5.338 1.094z" fill="#fff" fill-rule="nonzero"/></g><path fill="url(#F)" opacity=".272" d="M500.18 483.724l8.655 37.318-40.997-8.395z"/><path fill="#fff" d="M481.581 62.612l36.909 10.036-23.894 24.566z"/><path fill="#fffe00" d="M86.412 51.423l43.344-8.216-6.419 39.039z"/><ellipse fill="#f9c534" cx="618.935" cy="232.012" rx="14.027" ry="14.057"/><g fill-rule="nonzero"><g transform="translate(251.136)"><use fill="#000" filter="url(#H)" xlink:href="#G"/><use fill="#fff" xlink:href="#G"/><path d="M45.964 30.734c-.086-.256-.315-.442-.591-.481l-7.75-1.086-3.466-6.773c-.123-.241-.378-.394-.657-.394s-.533.153-.657.394l-3.466 6.773-7.75 1.086c-.276.039-.505.225-.591.481a.69.69 0 0 0 .185.724l5.608 5.272-1.324 7.444c-.047.265.066.533.291.691a.75.75 0 0 0 .431.135c.117 0 .234-.027.341-.081l6.932-3.515 6.932 3.515c.247.125.546.104.771-.054s.339-.426.291-.691L40.17 36.73l5.608-5.272a.69.69 0 0 0 .185-.724z" fill="#ff9929"/></g><use fill="#000" filter="url(#K)" xlink:href="#J"/><use fill="url(#I)" xlink:href="#J"/></g><path stroke="#fff" stroke-width="3.6" stroke-linecap="round" stroke-linejoin="round" d="M482.005 222.547v11.136l16.228 12.179"/></g></g></g></svg>