<svg xmlns="http://www.w3.org/2000/svg" xmlns:xlink="http://www.w3.org/1999/xlink" width="595" height="394" xmlns:v="https://vecta.io/nano"><defs><linearGradient x1="50%" y1="0%" x2="50%" y2="100%" id="A"><stop stop-color="#fedb4d" offset="0%"/><stop stop-color="#ffb84e" offset="100%"/></linearGradient><linearGradient x1="50%" y1="4.47344783%" x2="51.4657202%" y2="131.522905%" id="B"><stop stop-color="#fff" offset="0%"/><stop stop-color="#fff" stop-opacity=".146" offset="100%"/></linearGradient><linearGradient x1="50%" y1="0%" x2="50%" y2="100%" id="C"><stop stop-color="#ffba67" offset="0%"/><stop stop-color="#ff635e" offset="100%"/></linearGradient><linearGradient x1="50.0896266%" y1="9.74267818%" x2="149.875679%" y2="155.370925%" id="D"><stop stop-color="#fffe46" offset=".0897381757%"/><stop stop-color="#ffbd00" offset="100%"/></linearGradient><linearGradient x1="50%" y1="0%" x2="50%" y2="100%" id="E"><stop stop-color="#c2e998" offset="0%"/><stop stop-color="#02cc87" offset="100%"/></linearGradient><linearGradient x1="50%" y1="-8.07840109%" x2="50%" y2="100%" id="F"><stop stop-color="#a3a8ff" offset="0%"/><stop stop-color="#6870ff" offset="100%"/></linearGradient><circle id="G" cx="216.5" cy="216.5" r="39.5"/><filter x="-62.7%" y="-47.5%" width="225.3%" height="225.3%" id="H"><feOffset dy="12" in="SourceAlpha"/><feGaussianBlur stdDeviation="14.5"/><feColorMatrix values="0 0 0 0 0.724184783   0 0 0 0 0.552344326   0 0 0 0 0  0 0 0 0.248060533 0"/></filter><linearGradient x1="50%" y1="0%" x2="50%" y2="100%" id="I"><stop stop-color="#00eaef" offset="0%"/><stop stop-color="#0093ff" offset="100%"/></linearGradient><path d="M6.534 0h57.304C67.464 0 70.4 2.97 70.4 6.64v22.132c0 3.669-2.936 6.64-6.562 6.64h-20.55l2.821 6.989-12.405-6.989H6.562c-3.626 0-6.562-2.97-6.562-6.64V6.64C-.029 2.999 2.907 0 6.534 0h0z" id="J"/><filter x="-56.1%" y="-69.6%" width="212.2%" height="286.3%" id="K"><feOffset dy="10" in="SourceAlpha"/><feGaussianBlur stdDeviation="11.5"/><feColorMatrix values="0 0 0 0 0.724184783   0 0 0 0 0.552344326   0 0 0 0 0  0 0 0 0.248060533 0"/></filter><linearGradient x1="50%" y1="0%" x2="50%" y2="100%" id="L"><stop stop-color="#ffa8e6" offset="0%"/><stop stop-color="#e850ff" offset="100%"/></linearGradient></defs><g fill="none" fill-rule="evenodd"><path fill="url(#A)" d="M0 0h595v394H0z"/><g transform="translate(157 67)"><path d="M211 34a9 9 0 0 1 9 9v168a9 9 0 0 1-9 9H63a9 9 0 0 1-9-9V43a9 9 0 0 1 9-9h148zm-53 145h-42a2 2 0 1 0 0 4h0 42a2 2 0 1 0 0-4h0zm14-14h-70a2 2 0 1 0 0 4h0 70a2 2 0 1 0 0-4h0zm-14-14h-42a2 2 0 1 0 0 4h0 42a2 2 0 1 0 0-4h0z" fill="url(#B)"/><path d="M138.7 129v-4.592c6.173-.478 11.3-3.955 11.3-10.352 0-5.574-3.767-8.388-10.489-10.033l-.811-.186V91.759c3.531.451 6.042 2.548 6.382 6.132h4.551c-.183-5.866-4.891-9.741-10.934-10.299V83h-3.139v4.619c-6.199.557-10.62 4.327-10.62 10.033 0 5.229 3.505 8.175 10.018 9.768l.602.159v12.661c-4.525-.504-6.539-3.026-7.01-6.344H124c.183 6.185 5.336 9.927 11.561 10.485V129h3.139zm-3.7-26c-4.448-1.113-6-3.054-6-5.591 0-2.511 2.069-4.892 6-5.409v11zm3 17v-12l.163.027c5.372 1.283 6.837 3.154 6.837 6.094 0 3.073-1.953 5.506-7 5.88z" fill="#a67800" fill-rule="nonzero"/><path fill="url(#C)" d="M20.213 178.081l5.409 23.273L0 196.118z"/><path fill="#c98927" d="M123.343 235.003l26.678 7.239-17.271 17.719z"/><path fill="url(#D)" d="M191 3.799L211.085 0l-2.975 18.052z"/><circle fill="url(#E)" cx="256" cy="145" r="9"/><circle fill="url(#F)" cx="29.014" cy="98.5" r="6.5"/><g fill-rule="nonzero"><use fill="#000" filter="url(#H)" xlink:href="#G"/><use fill="#fff" xlink:href="#G"/><path d="M232 210.228v15.85L217.759 234v-15.85l1.581-.882 12.659-7.04zm-31 .085l5.403 2.998v4.035l2.621 1.298v-3.859l6.114 3.393v15.737L201 226.05v-15.737zm23.759-5.636l6.311 3.463-9.181 5.114-5.447 3.026-5.477-3.047-.835-.416 14.629-8.14zM216.441 200l5.477 3.054-14.629 8.14-5.484-3.054 14.636-8.14z" fill="url(#I)"/><g transform="translate(66 18)"><use fill="#000" filter="url(#K)" xlink:href="#J"/><use fill="#fff" xlink:href="#J"/><path d="M8.427 7.476c.347-.486.869-.742 1.564-.793 1.266-.102 1.986.512 2.159 1.842.769 5.346 1.613 9.873 2.507 13.582l5.436-10.666c.496-.972 1.117-1.484 1.862-1.535 1.092-.077 1.762.639 2.035 2.149.621 3.402 1.415 6.292 2.358 8.748.645-6.497 1.737-11.178 3.276-14.068.372-.716.918-1.074 1.638-1.125.571-.051 1.092.128 1.564.512a2.02 2.02 0 0 1 .769 1.458c.025.46-.05.844-.248 1.228-.968 1.842-1.762 4.937-2.408 9.234-.621 4.169-.844 7.418-.695 9.746.05.639-.05 1.202-.298 1.688-.298.563-.745.87-1.315.921-.645.051-1.315-.256-1.961-.946-2.308-2.43-4.145-6.062-5.485-10.897l-3.574 7.367c-1.464 2.89-2.705 4.374-3.748 4.451-.67.051-1.241-.537-1.737-1.765C10.86 25.253 9.495 18.782 8.03 9.19c-.099-.665.05-1.253.397-1.714zm53.57 3.639c-.901-1.609-2.229-2.579-4.007-2.962-.476-.102-.927-.153-1.352-.153-2.404 0-4.357 1.277-5.885 3.83C49.451 14 48.8 16.4 48.8 19.03c0 1.966.401 3.651 1.202 5.055.901 1.609 2.229 2.579 4.007 2.962.476.102.927.153 1.352.153 2.429 0 4.382-1.277 5.885-3.83 1.302-2.196 1.953-4.596 1.953-7.226.025-1.991-.401-3.651-1.202-5.03zm-2.983 7.518c-.372 1.664-1.036 2.899-2.018 3.731-.77.655-1.487.933-2.151.807-.637-.126-1.168-.655-1.567-1.639-.319-.782-.478-1.563-.478-2.294 0-.63.053-1.261.186-1.84.239-1.034.69-2.042 1.407-3 .876-1.235 1.806-1.739 2.762-1.563.637.126 1.168.655 1.567 1.639.319.782.478 1.563.478 2.294 0 .655-.053 1.286-.186 1.866zm-12.216-7.518c-.902-1.609-2.254-2.579-4.007-2.962-.476-.102-.927-.153-1.352-.153-2.404 0-4.358 1.277-5.885 3.83C34.251 14 33.6 16.4 33.6 19.03c0 1.966.401 3.651 1.202 5.055.902 1.609 2.229 2.579 4.007 2.962.476.102.927.153 1.352.153 2.429 0 4.383-1.277 5.885-3.83C47.349 21.174 48 18.774 48 16.145c0-1.991-.401-3.651-1.202-5.03zm-2.989 7.518c-.371 1.664-1.035 2.899-2.017 3.731-.77.655-1.486.933-2.149.807-.637-.126-1.168-.655-1.566-1.639-.318-.782-.478-1.563-.478-2.294 0-.63.053-1.261.186-1.84.239-1.034.69-2.042 1.406-3 .876-1.235 1.804-1.739 2.76-1.563.637.126 1.168.655 1.566 1.639.318.782.478 1.563.478 2.294.027.655-.053 1.286-.186 1.866h0 0z" fill="url(#L)"/></g></g></g></g></svg>