<svg xmlns="http://www.w3.org/2000/svg" xmlns:xlink="http://www.w3.org/1999/xlink" width="595" height="410" xmlns:v="https://vecta.io/nano"><defs><linearGradient x1="53.1281658%" y1="-7.26927245%" x2="53.1281658%" y2="106.768421%" id="A"><stop stop-color="#fd7267" offset="0%"/><stop stop-color="#ff5055" offset="100%"/></linearGradient><path id="B" d="M0 0h594.752v410H0z"/><linearGradient x1="-10.2871644%" y1="78.6083354%" x2="100%" y2="0%" id="C"><stop stop-color="#ff6167" stop-opacity="0" offset="0%"/><stop stop-color="#ff0e27" offset="100%"/></linearGradient><linearGradient x1="68.321171%" y1="79.9757234%" x2="-8.91977645%" y2="0%" id="D"><stop stop-color="#ff6167" stop-opacity="0" offset="0%"/><stop stop-color="#ff0e27" offset="100%"/></linearGradient><linearGradient x1="50.7915755%" y1="0%" x2="50.7915755%" y2="136.977277%" id="E"><stop stop-color="#fff4f3" offset="0%"/><stop stop-color="#fff3f2" stop-opacity=".839" offset="61.6041581%"/><stop stop-color="#ffe7e7" stop-opacity="0" offset="100%"/></linearGradient><path d="M369.7 124l13.073 32.102c2.47 2.822 3.949 6.407 3.949 10.309 0 7.205-5.039 13.329-12.056 15.561l-.001 82.892 7.485.001c3.144 0 5.728 2.39 5.847 5.354l.004.213c0 3.062-2.633 5.567-5.851 5.567H213.851c-3.218 0-5.851-2.505-5.851-5.567s2.633-5.567 5.851-5.567l5.85-.001v-82.929c-6.458-2.49-10.992-8.352-10.992-15.187 0-3.495 1.186-6.736 3.208-9.402L225.73 124H369.7zM244.47 168.389c-.736 6.844-6.036 12.456-13.066 14.234v53.9h78.368l.001-42.838c0-3.062 2.633-5.567 5.851-5.567s5.851 2.505 5.851 5.567l-.001 71.18h41.489l.001-82.881c-6.177-1.952-10.827-6.916-11.87-12.982l-.052-.317-.051.317c-1.352 7.862-8.763 13.874-17.703 13.874s-16.352-6.012-17.704-13.874l-.052-.317-.051.317c-1.351 7.862-8.763 13.874-17.704 13.874-9.059 0-16.549-6.174-17.755-14.19-1.205 8.017-8.695 14.19-17.754 14.19-9.172 0-16.733-6.326-17.797-14.486zM333.5 215c1.375 0 2.5.971 2.5 2.157v17.684c0 1.138-1.033 2.077-2.329 2.154l-.171.005c-1.375 0-2.5-.971-2.5-2.159v-17.684c0-1.186 1.125-2.157 2.5-2.157zm-89.566-21.394l37.357 33.663c.879.792.944 2.085.175 2.949l-.115.12c-.888.859-2.365.884-3.286.055l-37.357-33.663c-.92-.828-.947-2.209-.059-3.07a2.45 2.45 0 0 1 3.285-.055zm33.66 5.97l11.792 11.055a1.89 1.89 0 0 1 .117 2.675l-.117.119c-.819.768-2.16.768-2.98 0l-11.792-11.055c-.819-.768-.819-2.025 0-2.793s2.16-.768 2.98 0z" id="F"/><filter x="-19.7%" y="-30.6%" width="139.4%" height="146.7%" id="G"><feOffset dy="-11" in="SourceAlpha"/><feGaussianBlur stdDeviation="10"/><feColorMatrix values="0 0 0 0 0.682235054   0 0 0 0 0.0680935064   0 0 0 0 0.0753614537  0 0 0 0.16176792 0"/></filter></defs><g fill="none" fill-rule="evenodd"><use fill="url(#A)" xlink:href="#B"/><circle fill="url(#C)" opacity=".487" cx="421" cy="269" r="20"/><circle fill="url(#D)" opacity=".619" cx="186" cy="101" r="20"/><g fill-rule="nonzero"><circle fill="#b7f312" opacity=".749" cx="432.5" cy="213.5" r="8.5"/><ellipse fill="#48e9d6" opacity=".866" cx="272" cy="319.5" rx="5" ry="5.5"/><path fill="#3ba8f4" opacity=".994" d="M162.313 173L168 197l-26-4.645z"/><path fill="#b659b4" d="M352 86.156L372 82l-3.871 19z"/><path fill-opacity=".675" fill="#0f4bf1" opacity=".9" d="M355.022 307.392l-17.631 17.255-9.39-24.69z"/></g><use fill="#000" filter="url(#G)" xlink:href="#F"/><use fill="url(#E)" xlink:href="#F"/></g></svg>