<svg xmlns="http://www.w3.org/2000/svg" xmlns:xlink="http://www.w3.org/1999/xlink" width="595" height="410" xmlns:v="https://vecta.io/nano"><defs><linearGradient x1="50%" y1="0%" x2="50%" y2="100%" id="A"><stop stop-color="#68eb5f" offset="0%"/><stop stop-color="#1eb522" offset="100%"/></linearGradient><path id="B" d="M0 0h594.752v410H0z"/><linearGradient x1="50%" y1="0%" x2="50%" y2="100%" id="C"><stop stop-color="#68eb5f" offset="0%"/><stop stop-color="#1eb522" stop-opacity="0" offset="100%"/></linearGradient><linearGradient x1="50%" y1="0%" x2="50%" y2="100%" id="D"><stop stop-color="#68eb5f" stop-opacity="0" offset="0%"/><stop stop-color="#1eb522" offset="100%"/></linearGradient><linearGradient x1="50%" y1="0%" x2="50%" y2="100%" id="E"><stop stop-color="#fff" offset="0%"/><stop stop-color="#d9ffda" offset="100%"/></linearGradient><path d="M261.871 195.857c0 2.86-2.311 5.175-5.16 5.175s-5.163-2.314-5.163-5.175 2.311-5.175 5.163-5.175 5.16 2.314 5.16 5.175" id="F"/><filter x="-232.5%" y="-173.9%" width="565.0%" height="563.8%" id="G"><feOffset dy="6" in="SourceAlpha"/><feGaussianBlur stdDeviation="7"/><feColorMatrix values="0 0 0 0 0.0553180887   0 0 0 0 0.434074955   0 0 0 0 0.0629440659  0 0 0 0.238472465 0"/></filter><path d="M251.547 230.786c-9.25 0-16.773 7.538-16.773 16.816s7.522 16.819 16.773 16.819 16.776-7.542 16.776-16.819-7.522-16.816-16.776-16.816" id="H"/><filter x="-71.5%" y="-53.5%" width="243.1%" height="242.7%" id="I"><feOffset dy="6" in="SourceAlpha"/><feGaussianBlur stdDeviation="7"/><feColorMatrix values="0 0 0 0 0.0553180887   0 0 0 0 0.434074955   0 0 0 0 0.0629440659  0 0 0 0.238472465 0"/></filter><path d="M296.711 230.786c-9.254 0-16.776 7.538-16.776 16.816s7.522 16.819 16.776 16.819 16.773-7.542 16.773-16.819-7.522-16.816-16.773-16.816" id="J"/><path d="M315.973 264.421c-4.613 5.259-11.212 8.625-18.617 8.625-7.412 0-14.01-3.367-18.623-8.625-4.026 4.597-6.54 10.606-6.54 17.248v4.311c0 2.388 1.871 4.314 4.19 4.314h41.94c2.319 0 4.193-1.927 4.193-4.314v-4.311c0-6.642-2.514-12.65-6.543-17.248" id="K"/><filter x="-47.7%" y="-69.6%" width="195.4%" height="285.5%" id="L"><feOffset dy="6" in="SourceAlpha"/><feGaussianBlur stdDeviation="7"/><feColorMatrix values="0 0 0 0 0.0553180887   0 0 0 0 0.434074955   0 0 0 0 0.0629440659  0 0 0 0.238472465 0"/></filter><path d="M343.16 230.786c-9.254 0-16.773 7.538-16.773 16.816s7.519 16.819 16.773 16.819 16.776-7.542 16.776-16.819-7.522-16.816-16.776-16.816" id="M"/><path d="M362.184 264.421c-4.588 5.259-11.15 8.625-18.517 8.625-6.147 0-11.651-2.445-15.99-6.27 2.199 4.658 3.478 9.687 3.478 14.892v4.311c0 1.526-.304 2.963-.781 4.314h34.424c2.309 0 4.17-1.927 4.17-4.314v-4.311c0-6.642-2.78-12.65-6.783-17.248" id="N"/><filter x="-58.1%" y="-69.6%" width="216.2%" height="285.5%" id="O"><feOffset dy="6" in="SourceAlpha"/><feGaussianBlur stdDeviation="7"/><feColorMatrix values="0 0 0 0 0.0553180887   0 0 0 0 0.434074955   0 0 0 0 0.0629440659  0 0 0 0.238472465 0"/></filter><path d="M263.557 281.668c0-5.204 1.279-10.234 3.475-14.892-4.336 3.828-9.841 6.27-15.988 6.27-7.368 0-13.931-3.367-18.519-8.625-4.007 4.597-6.784 10.606-6.784 17.248v4.311c0 2.388 1.864 4.314 4.17 4.314h34.423c-.471-1.351-.778-2.788-.778-4.314v-4.311z" id="P"/></defs><g fill="none" fill-rule="evenodd"><mask id="Q" fill="#fff"><use xlink:href="#B"/></mask><use fill="url(#A)" xlink:href="#B"/><circle fill="url(#C)" opacity=".639" mask="url(#Q)" cx="222" cy="258" r="20"/><circle fill="url(#D)" opacity=".315" mask="url(#Q)" cx="123" cy="92" r="20"/><g mask="url(#Q)" fill-rule="nonzero"><g transform="matrix(-1 0 0 -1 414 314)"><circle fill="#fe408e" cx="215.5" cy="109.5" r="8.5"/><circle fill="#df7aff" opacity=".894" cx="18" cy="168" r="5"/><path fill="#ffdb4a" opacity=".994" d="M20.313 65L26 89 0 84.355z"/><path fill="#604bff" transform="matrix(0 -1 1 0 166.5 185.5)" d="M181.344-.5l4.156 20-19-3.871z"/><path fill="#19b363" opacity=".9" transform="matrix(.515038 .857167 -.857167 .515038 237.07496 -1.675838)" d="M127.309 196.676l5.71 24-26-4.668z"/></g></g><path d="M372.398 148.223l-14.835-21.442H235.961l-15.031 22.642c-.803.836-1.447 1.828-1.942 2.922l-.233.355h.056a10.95 10.95 0 0 0-.809 4.141c0 5.702 4.279 10.324 9.554 10.324 3.899 0 7.238-2.529 8.726-6.145 1.484 3.616 4.827 6.145 8.723 6.145s7.242-2.529 8.726-6.145c1.488 3.616 4.827 6.145 8.726 6.145s7.238-2.529 8.726-6.145c1.484 3.616 4.824 6.145 8.723 6.145s7.238-2.529 8.726-6.145c1.488 3.616 4.827 6.145 8.726 6.145s7.235-2.529 8.723-6.145c1.488 3.616 4.827 6.145 8.726 6.145s7.235-2.529 8.723-6.145c1.488 3.616 4.83 6.145 8.726 6.145s7.238-2.529 8.723-6.145c1.491 3.616 4.83 6.145 8.726 6.145s7.238-2.529 8.726-6.145c1.484 3.616 4.827 6.145 8.723 6.145 5.281 0 9.56-4.621 9.56-10.324 0-3.607-1.718-6.77-4.313-8.618m-15.046 23.055v54.333h-118.71v-54.333h118.71zm-10.323 9.056h-60.645v37.516h60.645v-37.516zm-69.334.259H247.61v37.195h30.089v-37.195z" fill="#fff"/><use fill="#000" filter="url(#G)" xlink:href="#F"/><use fill="url(#E)" xlink:href="#F"/><use fill="#000" filter="url(#I)" xlink:href="#H"/><use fill="url(#E)" xlink:href="#H"/><use fill="#000" filter="url(#I)" xlink:href="#J"/><use fill="url(#E)" xlink:href="#J"/><use fill="#000" filter="url(#L)" xlink:href="#K"/><use fill="url(#E)" xlink:href="#K"/><use fill="#000" filter="url(#I)" xlink:href="#M"/><use fill="url(#E)" xlink:href="#M"/><use fill="#000" filter="url(#O)" xlink:href="#N"/><use fill="url(#E)" xlink:href="#N"/><use fill="#000" filter="url(#O)" xlink:href="#P"/><use fill="url(#E)" xlink:href="#P"/></g></svg>