<svg xmlns="http://www.w3.org/2000/svg" xmlns:xlink="http://www.w3.org/1999/xlink" width="617" height="410" xmlns:v="https://vecta.io/nano"><defs><linearGradient x1="50%" y1="0%" x2="50%" y2="100%" id="A"><stop stop-color="#68dbfc" offset="0%"/><stop stop-color="#22c1ea" offset="100%"/></linearGradient><filter x="-62.3%" y="-61.9%" width="223.0%" height="217.6%" id="B"><feOffset dy="11" in="SourceAlpha"/><feGaussianBlur stdDeviation="14"/><feColorMatrix values="0 0 0 0 0.0644653924   0 0 0 0 0.275056499   0 0 0 0 0.501132246  0 0 0 0.180124563 0" result="C"/><feMerge><feMergeNode in="C"/><feMergeNode in="SourceGraphic"/></feMerge></filter><filter x="-24.9%" y="-23.4%" width="149.8%" height="146.9%" id="C"><feOffset dy="3" in="SourceAlpha"/><feGaussianBlur stdDeviation="10"/><feColorMatrix values="0 0 0 0 0   0 0 0 0 0   0 0 0 0 0  0 0 0 0.0782099185 0" result="C"/><feMerge><feMergeNode in="C"/><feMergeNode in="SourceGraphic"/></feMerge></filter><linearGradient x1="50%" y1="24.5409981%" x2="50%" y2="135.804304%" id="D"><stop stop-color="#c2e998" offset="0%"/><stop stop-color="#02cc87" offset="100%"/></linearGradient><linearGradient x1="50%" y1="0%" x2="49.9216776%" y2="161.034346%" id="E"><stop stop-color="#fff" offset="0%"/><stop stop-color="#fcfeff" stop-opacity=".754" offset="43.8403747%"/><stop stop-color="#e4f9ff" stop-opacity=".58" offset="77.620913%"/><stop stop-color="#33c4ea" stop-opacity="0" offset="100%"/></linearGradient><path d="M94.035 102.643c20.325 3.535 35.815 20.559 36.123 41.156l.005.625v1.592l-8.308 8.029-4.638-4.485c-7.848-7.595-20.593-7.599-28.439-.004-7.77 7.504-7.859 19.625-.275 27.242l.268.264 3.903 3.774H70.926l4.535-44.153-10.383-10.033-10.381 10.033 4.555 44.153H8.878c-4.809 0-8.733-3.705-8.874-8.327L0 172.251v-27.827c0-20.669 15.267-37.863 35.508-41.67l.615-.111 12.408 24.007 16.553-12.718 16.54 12.718 12.411-24.007zM65.6 0c21.858 0 39.586 14.094 39.586 42.007 0 .621-.091 1.203-.104 1.817.807-.059 1.605-.007 2.35.284 3.888 1.513 5.018 7.481 2.538 13.328-1.71 4.011-4.668 6.894-7.617 7.824a7.28 7.28 0 0 1-2.028.518c-4.063 9.571-10.398 17.819-18.177 24.662h0v6.467c0 .23.048.445.107.656l.122.421-16.792 15.287-.137-.124-.564.515-16.84-15.345c.079-.284.178-.56.214-.855l.014-.226v-6.483c-7.827-6.911-14.215-15.256-18.298-24.945-3.532-.027-7.488-3.255-9.581-8.173-2.488-5.867-1.354-11.856 2.54-13.374a4.39 4.39 0 0 1 1.154-.275c.383-.11.778-.164 1.179-.179l.008.168c-.013-.616-.102-1.2-.102-1.823C25.173 14.143 42.953 0 64.899 0l.35.002z" id="F"/><filter x="-44.9%" y="-37.3%" width="189.9%" height="164.7%" id="G"><feOffset dy="-9" in="SourceAlpha"/><feGaussianBlur stdDeviation="18"/><feColorMatrix values="0 0 0 0 0.2   0 0 0 0 0.780392157   0 0 0 0 0.933333333  0 0 0 0.520569274 0"/></filter><linearGradient x1="60.4204835%" y1="82.3973002%" x2="10.9418741%" y2="13.2890489%" id="H"><stop stop-color="#75e1ff" stop-opacity="0" offset="0%"/><stop stop-color="#93e7ff" offset="100%"/></linearGradient><linearGradient x1="77.9820765%" y1="87.4719878%" x2="10.9418741%" y2="13.2890489%" id="I"><stop stop-color="#75e1ff" stop-opacity="0" offset="0%"/><stop stop-color="#93e7ff" offset="100%"/></linearGradient></defs><g fill="none" fill-rule="evenodd"><path fill="url(#A)" d="M0 0h616.035v410H0z"/><g transform="translate(178.081 90.076)"><g filter="url(#B)" transform="translate(61.604 11.923)"><g filter="url(#C)" transform="translate(0 4.968)"><g transform="translate(93.05 119.564)" fill="url(#D)"><path d="M82.255 3.218C78.318-.718 71.931-.715 67.977 3.215L29.471 41.613 17.646 29.809c-3.941-3.937-10.326-3.933-14.279-.003-3.941 3.934-3.941 10.307 0 14.24l18.965 18.926a10.1 10.1 0 0 0 7.139 2.95c2.676 0 5.247-1.062 7.139-2.947l45.644-45.518c3.942-3.933 3.942-10.307 0-14.24z"/></g></g><use fill="#000" filter="url(#G)" xlink:href="#F"/><use fill="url(#E)" xlink:href="#F"/></g><circle fill="url(#H)" opacity=".619" cx="264.299" cy="186.798" r="19.872"/><circle fill="url(#I)" opacity=".619" cx="30.802" cy="19.872" r="19.872"/><g fill-rule="nonzero"><circle fill="#9c12f3" opacity=".461" cx="244.924" cy="113.768" r="8.446"/><circle fill="#2b96ec" opacity=".866" cx="30.802" cy="222.568" r="4.968"/><path fill="#e43bf4" opacity=".994" d="M20.183 89.425l5.651 23.847L0 108.656z"/><path fill="#da5e27" d="M200.708 20.027l19.872-4.13-3.846 18.879z"/><path fill-opacity=".675" fill="#0f6bf1" opacity=".9" d="M126.984 241.871l-19.674-14.621 22.771-13.053z"/></g></g></g></svg>