<svg xmlns="http://www.w3.org/2000/svg" xmlns:xlink="http://www.w3.org/1999/xlink" width="620" height="411" xmlns:v="https://vecta.io/nano"><defs><linearGradient x1="41.7774447%" y1="-10.833541%" x2="41.7774447%" y2="109.735326%" id="A"><stop stop-color="#8d85ff" offset="0%"/><stop stop-color="#3e3fca" offset="100%"/></linearGradient><path id="B" d="M0 0h619.741v410.068H0z"/><linearGradient x1="25.6767729%" y1="120.954326%" x2="38.7166475%" y2="-23.0550913%" id="C"><stop stop-color="#8d85ff" stop-opacity="0" offset="0%"/><stop stop-color="#3e3fca" offset="100%"/></linearGradient><linearGradient x1="41.7774447%" y1="-10.833541%" x2="0%" y2="154.266335%" id="D"><stop stop-color="#8d85ff" stop-opacity="0" offset="0%"/><stop stop-color="#3e3fca" offset="100%"/></linearGradient><linearGradient x1="50%" y1="-32.3807931%" x2="50%" y2="362.40368%" id="E"><stop stop-color="#fff" offset="0%"/><stop stop-color="#7858ff" offset="100%"/></linearGradient><path d="M78.884 37.296H41.588a2.49 2.49 0 0 1-2.486-2.486V21.134C39.101 9.481 48.582 0 60.236 0S81.37 9.481 81.37 21.134v13.675a2.49 2.49 0 0 1-2.486 2.487zm-34.81-4.973h32.323V21.134c0-8.911-7.25-16.162-16.162-16.162s-16.161 7.251-16.161 16.162v11.189z" id="F"/><filter x="-120.7%" y="-80.4%" width="341.3%" height="373.5%" id="G"><feOffset dy="21" in="SourceAlpha"/><feGaussianBlur stdDeviation="13.5"/><feColorMatrix values="0 0 0 0 0.541176471   0 0 0 0 0.360784314   0 0 0 0 1  0 0 0 0.367160184 0"/></filter><linearGradient x1="50%" y1="-32.3807931%" x2="50%" y2="204.28683%" id="H"><stop stop-color="#fff" offset="0%"/><stop stop-color="#7858ff" offset="100%"/></linearGradient><path id="I" d="M114.937 47.241H5.535l7.459-12.432h94.484z"/><filter x="-46.6%" y="-241.3%" width="193.2%" height="920.5%" id="J"><feOffset dy="21" in="SourceAlpha"/><feGaussianBlur stdDeviation="13.5"/><feColorMatrix values="0 0 0 0 0.541176471   0 0 0 0 0.360784314   0 0 0 0 1  0 0 0 0.367160184 0"/></filter><linearGradient x1="50%" y1="0%" x2="50%" y2="100%" id="K"><stop stop-color="#b9ee31" offset="0%"/><stop stop-color="#83d816" offset="100%"/></linearGradient><linearGradient x1="50%" y1="0%" x2="50%" y2="100%" id="L"><stop stop-color="#ffa8e6" offset="0%"/><stop stop-color="#e850ff" offset="100%"/></linearGradient><linearGradient x1="50%" y1="0%" x2="50%" y2="100%" id="M"><stop stop-color="#f78db7" offset="0%"/><stop stop-color="#ff1e60" offset="100%"/></linearGradient><linearGradient x1="50%" y1="-20.2851017%" x2="50%" y2="149.439863%" id="N"><stop stop-color="#fff" offset="0%"/><stop stop-color="#4a4ad2" offset="100%"/></linearGradient><path id="O" d="M119.91 144.211H.562l4.972-96.97h109.402z"/><filter x="-23.5%" y="-40.2%" width="146.9%" height="157.8%" id="P"><feOffset dy="-11" in="SourceAlpha"/><feGaussianBlur stdDeviation="7.5"/><feColorMatrix values="0 0 0 0 0   0 0 0 0 0   0 0 0 0 0  0 0 0 0.11994646 0"/></filter><linearGradient x1="36.6905424%" y1="35.8439365%" x2="21.9770827%" y2="259.639227%" id="Q"><stop stop-color="#fff" offset="0%"/><stop stop-color="#7858ff" offset="100%"/></linearGradient><circle id="R" cx="32" cy="32" r="32"/><filter x="-160.2%" y="-125.8%" width="420.3%" height="420.3%" id="S"><feOffset dy="22" in="SourceAlpha"/><feGaussianBlur stdDeviation="30.5"/><feColorMatrix values="0 0 0 0 0.527117301   0 0 0 0 0.0543790599   0 0 0 0 0.521683528  0 0 0 0.373743444 0"/></filter><linearGradient x1="50%" y1="-45.6687008%" x2="50%" y2="100%" id="T"><stop stop-color="#88f3e2" offset="0%"/><stop stop-color="#11d5a9" offset="100%"/></linearGradient></defs><g fill="none" fill-rule="evenodd"><use fill="url(#A)" xlink:href="#B"/><circle fill="url(#C)" cx="415" cy="287" r="21"/><circle fill="url(#D)" cx="157" cy="110" r="21"/><circle fill="#651cf3" fill-rule="nonzero" opacity=".024" cx="508" cy="82" r="13"/><g transform="translate(250 121)"><use fill="#000" filter="url(#G)" xlink:href="#F"/><use fill="url(#E)" xlink:href="#F"/><use fill="#000" filter="url(#J)" xlink:href="#I"/><use fill="url(#H)" xlink:href="#I"/><g fill-rule="nonzero"><path fill="url(#K)" transform="matrix(-.97373 -.227707 .227707 -.97373 151.830486 94.574565)" d="M63.967 19.882h34.807v37.293H63.967z"/><path fill="url(#L)" transform="matrix(-.993085 .117398 -.117398 -.993085 81.132782 64.771965)" d="M17.72 12.341h41.877V57.21H17.72z"/><path fill="url(#M)" transform="matrix(-.972286 .233797 -.233797 -.972286 128.397838 89.277543)" d="M38.307 30.569h41.201v43.359H38.307z"/></g><g opacity=".882"><use fill="#000" filter="url(#P)" xlink:href="#O"/><use fill="url(#N)" xlink:href="#O"/></g><g fill-rule="nonzero" fill="#9889f3"><circle cx="78.884" cy="62.16" r="4.973"/><circle cx="41.588" cy="62.16" r="4.973"/></g><path d="M78.884 54.701a7.47 7.47 0 0 1 7.459 7.459c0 3.242-2.078 6.007-4.972 7.033l-.001 9.129c0 11.654-9.481 21.134-21.134 21.134s-21.134-9.481-21.134-21.134v-9.128c-2.895-1.026-4.973-3.791-4.973-7.033a7.47 7.47 0 0 1 7.459-7.459 7.47 7.47 0 0 1 7.459 7.459c0 3.242-2.078 6.007-4.972 7.033l-.001 9.129c0 8.911 7.25 16.162 16.162 16.162s16.162-7.25 16.162-16.162v-9.128c-2.895-1.026-4.973-3.791-4.973-7.033a7.47 7.47 0 0 1 7.459-7.459zm-37.296 4.973a2.49 2.49 0 0 0-2.486 2.486 2.47 2.47 0 0 0 .334 1.244c.43-.744 1.233-1.243 2.152-1.243s1.721.499 2.152 1.241c.213-.364.334-.789.334-1.241a2.49 2.49 0 0 0-2.486-2.486zm37.296 0a2.49 2.49 0 0 0-2.486 2.486 2.47 2.47 0 0 0 .247 1.08 2.48 2.48 0 0 1 2.048-1.079h.192c.919 0 1.721.499 2.152 1.241.213-.364.334-.789.334-1.241a2.49 2.49 0 0 0-2.486-2.486z" fill="url(#Q)"/></g><g transform="matrix(1 0 0 1 183 71)" fill-rule="nonzero"><circle fill="#12f3d4" opacity=".778" cx="244.874" cy="78.151" r="8.857"/><circle fill="#c9ff4a" cx="51.899" cy="230.723" r="5.21"/><path fill="#f4aa3b" opacity=".994" d="M21.166 100.034l5.926 25.008L0 120.202z"/><path fill="#c2ff4a" d="M118.79 4.331L139.63 0l-4.034 19.798z"/><path fill="#15ff64" opacity=".9" d="M171.435 230.541l-18.372 17.98-9.785-25.728z"/></g><g transform="translate(335 213)"><use fill="#000" filter="url(#S)" xlink:href="#R"/><use fill="#fff" xlink:href="#R"/><path d="M38.528 33.826l2.96.759.264.073-1.789 1.795c-.115.115-.203.005-.293-.034-1.894-.827-4.083.112-4.733 2.074-.445 1.342-.155 2.557.823 3.583l1.875 1.877c-.103.072-.205.039-.299.039l-16.425.002c-1.028 0-1.58-.416-1.871-1.406-.007-.025-.027-.047-.041-.07v-.601l.383-2.088.542-2.507a2.68 2.68 0 0 1 1.943-2.024l5.195-1.375c.507-.143.81-.059 1.194.311 2.721 2.623 7.097 2.495 9.756-.258a.45.45 0 0 1 .515-.15zm8.071 5.963c.153.777.339 1.565.386 2.371.059 1.022-.722 1.826-1.746 1.833l-2.845.001 4.204-4.205zm.302-4.212c.211.655.083 1.26-.396 1.745l-5.314 5.314c-.682.673-1.723.652-2.415-.016a53.81 53.81 0 0 1-1.795-1.799c-.516-.548-.626-1.199-.338-1.898.268-.649.91-1.057 1.75-1.052.411.009.843.244 1.212.63.382.398.389.391.78 0l3.596-3.592c.96-.949 2.514-.59 2.92.668zM33.598 16l1.306.264c2.949.83 5.049 3.545 5.085 6.6.003.219.041.379.227.534.358.3.49.735.568 1.181.154.879.142 1.741-.298 2.551-.163.299-.364.566-.624.787-.154.131-.323.284-.519.282-.379-.005-.494.236-.608.52-.07.177-.15.357-.263.507-.436.579-.612 1.248-.709 1.947-.017.12-.057.228-.115.333-1 1.818-2.528 2.833-4.61 2.85-2.093.016-3.645-.98-4.666-2.8-.236-.421-.215-.916-.343-1.37-.035-.124-.065-.244-.139-.352-.305-.444-.553-.919-.775-1.409l-.036-.088c-.026-.057-.063-.102-.16-.098-.343.017-.613-.156-.848-.38-.811-.774-1.03-1.748-.928-2.823.031-.326.081-.65.195-.96.079-.216.157-.455.341-.581.324-.221.315-.521.328-.852.137-3.377 2.818-6.233 6.176-6.596.071-.008.14-.033.21-.049h1.203z" fill="url(#T)"/></g></g></svg>