<svg xmlns="http://www.w3.org/2000/svg" xmlns:xlink="http://www.w3.org/1999/xlink" width="620" height="410" xmlns:v="https://vecta.io/nano"><defs><linearGradient x1="50%" y1="0%" x2="50%" y2="100%" id="A"><stop stop-color="#9db4fa" offset="0%"/><stop stop-color="#5e77eb" offset="100%"/></linearGradient><path id="B" d="M0 0h619.638v410H0z"/><linearGradient x1="53.0244843%" y1="20.9312807%" x2="53.0244843%" y2="177.435416%" id="C"><stop stop-color="#fff5f7" offset="0%"/><stop stop-color="#7189ef" offset="82.3356679%"/><stop stop-color="#f9a2b6" stop-opacity=".57" offset="99.8897638%"/><stop stop-color="#657dec" offset="100%"/></linearGradient><path d="M204.851 68.116c13.201-3.866 26.685 3.52 30.237 16.804 2.744 10.261.705 19.555-7.381 26.744-7.44 6.616-16.133 7.711-25.402 4.031-.281-.112-.559-.238-.85-.313-.738-.19-1.112.062-1.189.801-.04.383-.049.77-.049 1.155l-.003 22.747c0 1.37-.499 2.04-1.719 2.341l-9.019.006c-1.12-.251-1.719-.95-1.759-2.064-.004-.11-.005-.22-.006-.331l.004-.662.001-47.727c.004-10.77 7.182-20.618 17.134-23.532zm-111.082-.47c7.29 1.833 12.772 8.328 13.7 15.769a25.18 25.18 0 0 1 .186 3.131l.002 24.733.057 4.05c0 1.567-.829 2.384-2.414 2.39a832.87 832.87 0 0 1-7.044 0c-1.586-.006-2.4-.823-2.398-2.394l.051-28.702c.016-2.141-.367-4.049-1.871-5.62-2.03-2.121-4.853-2.735-7.506-1.675s-4.34 3.535-4.338 6.445l.044 29.114c0 .221.009.442-.002.662-.064 1.278-.875 2.145-2.147 2.162-2.541.035-5.083.034-7.623 0-1.27-.017-2.106-.907-2.108-2.179l.019-28.702c.027-2.36-.45-4.362-2.127-5.987-2.124-2.057-4.664-2.567-7.409-1.512-2.768 1.063-4.36 3.165-4.576 6.122-.144 1.974-.029 3.967-.027 5.952l.028 23.573c.002 2.041-.697 2.744-2.717 2.745s-4.034-.04-6.049.015c-1.23.034-2.139-.369-2.7-1.479V83.991c.403-1.5.586-3.05 1.141-4.517 2.39-6.316 6.781-10.499 13.426-11.86 4.221-.865 8.468-.457 12.378 1.674.726.395 1.458.788 2.145 1.245 1.601 1.066 3.086.967 4.661-.142 4.632-3.261 9.808-4.106 15.218-2.745zm77.682-.478c5.628.896 9.435 5.444 9.44 11.313l.004 30.44.024 6.368c-.002 1.64-.799 2.425-2.446 2.43h-6.961c-1.649-.005-2.416-.784-2.417-2.441V92.45h0 .029l.003-22.748c0-.355.003-.723.088-1.064.312-1.271.947-1.675 2.235-1.47zm-51.391 8.18c5.335-6.194 12.24-8.807 20.375-8.107 11.7 1.008 20.179 10.25 21.578 21.105 1.138 8.831-1.206 16.565-7.777 22.745-4.489 4.223-9.954 6.19-17.598 6.214-9.767.177-19.866-7.797-22.171-19.765-1.579-8.197.064-15.77 5.594-22.191zm101.921 9.843c-3.268-5.241-9.648-7.203-14.896-4.591-7.153 3.56-9.486 13.064-4.731 19.611 2.887 3.975 6.791 5.949 11.766 4.999 5.802-1.108 9.94-6.523 9.945-12.743.041-2.635-.698-5.052-2.085-7.276zm-75.378-1.321c-3.986-4.572-10.508-5.182-15.219-1.38-3.158 2.549-4.623 5.931-4.736 9.937-.023 2.202.488 4.272 1.549 6.184 2.148 3.87 5.388 6.229 9.876 6.323 4.324.091 7.597-2.033 9.849-5.653 3.058-4.916 2.498-11.034-1.319-15.411zm86.673-53.658c4.63.423 8.425 2.762 12.119 5.304a26.14 26.14 0 0 1 5.623 5.204c1.118 1.396 2.027 2.874 2.15 4.715h0v.993c-.816 3.672-3.346 6.112-6.118 8.334-3.754 3.009-7.89 5.319-12.612 6.469-1.382.337-2.788.407-4.189.239-1.451-.173-2.553-.973-3.371-2.166-1.256-1.829-1.908-3.894-2.292-6.047-1.02-5.721-.803-11.383.891-16.964.296-.976.72-1.904 1.208-2.797.906-1.661 2.183-2.878 4.104-3.285h0zm-58.065 19.029c3.113-.003 6.138 3.029 6.105 6.12-.032 3.076-3.043 6.063-6.097 6.05-3.135-.014-6.101-2.994-6.094-6.126.007-3.074 2.994-6.041 6.086-6.044zm65.946-9.069c-.778-.763-1.654-.741-2.408.01-.739.735-.745 1.625.003 2.399l.58.59 1.173 1.167c1.101 1.104 1.093 1.986-.028 3.109l-1.699 1.694c-.349.343-.585.73-.551 1.24-.042.799.415 1.3 1.064 1.623.669.333 1.293.152 1.812-.364l4.566-4.562c.77-.783.768-1.621-.003-2.405l-4.51-4.501zm-7.876-.043c-.768-.738-1.732-.665-2.423.071-.714.76-.703 1.619.06 2.415.649.676 1.316 1.334 1.988 1.988.377.367.592.788.554 1.307.036.554-.224.959-.589 1.321l-1.93 1.929c-.766.784-.79 1.663-.081 2.4.761.792 1.651.829 2.467.033l4.508-4.495c.736-.749.783-1.613.068-2.355-1.511-1.567-3.053-3.106-4.622-4.615z" id="D"/><filter x="-43.7%" y="-85.5%" width="187.3%" height="262.2%" id="E"><feOffset dy="-5" in="SourceAlpha"/><feGaussianBlur stdDeviation="29.5"/><feColorMatrix values="0 0 0 0 0.287049762   0 0 0 0 0.381813964   0 0 0 0 0.784561821  0 0 0 0.650540865 0"/></filter><linearGradient x1="82.2075708%" y1="24.437421%" x2="33.2595113%" y2="73.1754698%" id="F"><stop stop-color="#4060f8" offset="0%"/><stop stop-color="#6e86ef" stop-opacity="0" offset="100%"/></linearGradient><linearGradient x1="9.3302524%" y1="100%" x2="71.0123933%" y2="35.3414839%" id="G"><stop stop-color="#627aec" offset="0%"/><stop stop-color="#9ab1f9" stop-opacity="0" offset="100%"/></linearGradient></defs><g fill="none" fill-rule="evenodd"><mask id="H" fill="#fff"><use xlink:href="#B"/></mask><use fill="url(#A)" xlink:href="#B"/><g mask="url(#H)"><g transform="translate(160.444 106.268)"><use fill="#000" filter="url(#E)" xlink:href="#D"/><use fill="url(#C)" xlink:href="#D"/><circle fill="url(#F)" opacity=".38" cx="315.679" cy="165.653" r="20.837"/><g transform="translate(4.167 6.251)" fill-rule="nonzero"><circle fill="#12f3a3" opacity=".432" cx="245.354" cy="131.793" r="8.856"/><circle fill="#bae948" opacity=".866" cx="101.059" cy="5.209" r="5.209"/><path fill="#f4643b" opacity=".994" d="M19.535 108.352l5.47 22.921L0 126.836z"/><path fill="#6734da" transform="matrix(0 -1 1 0 159.923055 190.136531)" d="M180.597 4.688l4.33 20.837-19.795-4.033z"/><path fill="#b84dbe" opacity=".9" transform="matrix(.515038 .857167 -.857167 .515038 237.625016 -31.760475)" d="M154.476 181.618l5.949 25.004-27.088-4.863z"/></g><circle fill="url(#G)" opacity=".831" cx="20.837" cy="20.837" r="20.837"/></g></g></g></svg>