<svg xmlns="http://www.w3.org/2000/svg" xmlns:xlink="http://www.w3.org/1999/xlink" width="620" height="411" xmlns:v="https://vecta.io/nano"><defs><linearGradient x1="41.7774447%" y1="-46.4953502%" x2="41.7774447%" y2="100.12803%" id="A"><stop stop-color="#2bbced" offset="0%"/><stop stop-color="#006192" offset="100%"/></linearGradient><path id="B" d="M0 0h619.741v410.068H0z"/><filter x="-95.3%" y="-79.8%" width="290.7%" height="259.5%" id="C"><feOffset dy="29" in="SourceAlpha"/><feGaussianBlur stdDeviation="18.5"/><feColorMatrix values="0 0 0 0 0.541176471   0 0 0 0 0.360784314   0 0 0 0 1  0 0 0 0.367160184 0" result="C"/><feMerge><feMergeNode in="C"/><feMergeNode in="SourceGraphic"/></feMerge></filter><linearGradient x1="50%" y1="-7.93841315%" x2="47.1578861%" y2="383.622854%" id="D"><stop stop-color="#f5fcff" offset="0%"/><stop stop-color="#edf9ff" offset="12.6316755%"/><stop stop-color="#136993" offset="46.5544157%"/><stop stop-color="#036798" offset="100%"/></linearGradient><filter x="-2.3%" y="-2.1%" width="104.7%" height="104.3%" id="E"><feGaussianBlur stdDeviation="1" in="SourceGraphic"/></filter><linearGradient x1="-58.6393549%" y1="184.9267%" x2="100%" y2="0%" id="F"><stop stop-color="#2bbced" stop-opacity="0" offset="0%"/><stop stop-color="#006192" offset="100%"/></linearGradient><linearGradient x1="100%" y1="-46.2203827%" x2="16.1545624%" y2="132.796145%" id="G"><stop stop-color="#2bbced" stop-opacity="0" offset="0%"/><stop stop-color="#006192" offset="100%"/></linearGradient></defs><g fill="none" fill-rule="evenodd"><use fill="url(#A)" xlink:href="#B"/><g transform="translate(127 61.004)"><g transform="matrix(-.034899 .999391 -.999391 -.034899 318.33144 9.14488)" fill-rule="nonzero"><circle fill="#31ff84" opacity=".456" cx="248.659" cy="108.863" r="8.857"/><circle fill="#c9ff4a" cx="51.899" cy="239.202" r="5.21"/><path fill="#f43b3b" opacity=".721" d="M21.166 108.513l5.926 25.008L0 128.681z"/><path fill="#ffc84a" d="M119.479 4.331L140.319 0l-4.034 19.798z"/><path fill="#38fcd9" opacity=".412" d="M172.177 244.054l-18.372 17.98-9.785-25.728z"/></g><g transform="translate(116 64.996)"><g filter="url(#C)" fill="url(#D)"><path d="M133.221 70.017c-.03 10.308-1.315 20.389-6.658 29.439-6.888 11.669-19.082 15.416-30.529 9.674-11.936-5.987-17.195-19.88-12.106-31.946 3.034-7.19 8.721-12.312 13.813-17.922 5.607-6.174 10.786-12.453 11.219-21.553.446-9.337-3.772-15.742-11.682-19.374-20.874-9.585-41.281-8.066-59.902 5.427S10.124 55.899 14.019 78.94c4.738 28.03 21.343 46.123 45.906 50.76 11.19 2.114 22.006.606 32.447-4.65 14.084-7.088 27.432-.978 30.367 13.283 1.87 9.082-3.196 18.227-11.289 20.377-8.888 2.361-22.647-3.388-24.978-10.821-1.52-4.847-1.036-10.076 4.379-12.022 5.645-2.027 7.105 3.026 8.513 7.059.696 1.993.881 4.158 1.4 6.218 1.91 7.587 5.87 8.774 12.063 3.651 5.773-4.773 6.931-14.291 2.61-21.466-3.875-6.438-9.618-7.959-17.972-4.76-31.777 12.164-62.136 5.501-82.259-18.056-22.237-26.03-19.826-65.056 5.525-89.471 25.524-24.582 63.754-25.466 89.459-2.067 15.515 14.124 23.088 31.573 23.03 53.041"/></g><path d="M128 80.242c-.029 9.127-1.263 18.053-6.397 26.066-6.618 10.332-18.334 13.649-29.333 8.565C80.803 109.571 75.75 97.27 80.64 86.587c2.915-6.366 8.38-10.902 13.272-15.868 5.387-5.467 10.363-11.027 10.779-19.083.429-8.267-3.624-13.938-11.224-17.154-20.056-8.487-39.663-7.141-57.555 4.805S9.727 67.741 13.47 88.142c4.553 24.818 20.507 40.838 44.107 44.944 10.752 1.872 21.143.536 31.175-4.117 13.532-6.276 26.356-.866 29.177 11.761 1.797 8.041-3.071 16.138-10.846 18.042-8.54 2.09-21.76-3-23.999-9.581-1.46-4.291-.996-8.921 4.208-10.644 5.424-1.795 6.826 2.68 8.18 6.25.668 1.765.846 3.682 1.345 5.506 1.835 6.717 5.64 7.769 11.59 3.232 5.547-4.226 6.659-12.653 2.508-19.006-3.723-5.7-9.241-7.047-17.267-4.214-30.531 10.77-59.701 4.871-79.035-15.987C-6.754 91.279-4.438 56.726 19.92 35.108c24.524-21.765 61.255-22.548 85.953-1.83C120.78 45.784 128.056 61.233 128 80.242" fill="#fff" opacity=".17" filter="url(#E)"/></g><circle fill="url(#F)" opacity=".589" cx="299.84" cy="219.837" r="20.84"/><circle fill="url(#G)" opacity=".589" cx="20.84" cy="50.837" r="20.84"/></g></g></svg>