<svg width="172" height="126" viewBox="0 0 172 126" fill="none" xmlns="http://www.w3.org/2000/svg">
<path d="M1.69336 0.168945H32.1787C33.0204 0.169059 33.703 0.851726 33.7031 1.69336V32.1787C33.703 33.0204 33.0204 33.703 32.1787 33.7031H1.69336C0.851725 33.703 0.169057 33.0204 0.168945 32.1787V1.69336C0.169081 0.851739 0.851739 0.169078 1.69336 0.168945Z" fill="#F9F9F9" stroke="#E9E9E9" stroke-width="0.338721"/>
<path d="M22.8403 8.16211H9.99709C8.98379 8.16211 8.16235 8.98355 8.16235 9.99685V22.84C8.16235 23.8533 8.98379 24.6748 9.99709 24.6748H22.8403C23.8536 24.6748 24.675 23.8533 24.675 22.84V9.99685C24.675 8.98355 23.8536 8.16211 22.8403 8.16211Z" stroke="#828282" stroke-width="0.677442" stroke-linecap="round" stroke-linejoin="round"/>
<path d="M13.2078 14.5841C13.9678 14.5841 14.5839 13.9681 14.5839 13.2081C14.5839 12.4481 13.9678 11.832 13.2078 11.832C12.4479 11.832 11.8318 12.4481 11.8318 13.2081C11.8318 13.9681 12.4479 14.5841 13.2078 14.5841Z" stroke="#828282" stroke-width="0.677442" stroke-linecap="round" stroke-linejoin="round"/>
<path d="M24.675 19.1708L20.0881 14.584L9.99707 24.6751" stroke="#828282" stroke-width="0.677442" stroke-linecap="round" stroke-linejoin="round"/>
<line x1="42.9998" y1="4.8259" x2="137.705" y2="4.8259" stroke="#E9E9E9" stroke-width="2.20367" stroke-linecap="round"/>
<line x1="42.9998" y1="13.9997" x2="110.113" y2="13.9997" stroke="#E9E9E9" stroke-width="2.20367" stroke-linecap="round"/>
<line x1="46.3053" y1="26.954" x2="53.8792" y2="26.954" stroke="#E9E9E9" stroke-width="8.81466" stroke-linecap="round"/>
<line opacity="0.5" x1="1.83639" y1="54.0367" x2="20.2003" y2="54.0367" stroke="#828282" stroke-width="3.67277" stroke-linecap="round"/>
<line opacity="0.5" x1="29.0149" y1="54.0367" x2="47.3787" y2="54.0367" stroke="#828282" stroke-width="3.67277" stroke-linecap="round"/>
<line x1="57.8205" y1="52.4097" x2="72.9305" y2="52.4097" stroke="#131317" stroke-width="6.92663" stroke-linecap="round"/>
<line opacity="0.5" x1="83.372" y1="54.0367" x2="95.9761" y2="54.0367" stroke="#828282" stroke-width="3.67277" stroke-linecap="round"/>
<line opacity="0.5" x1="104.791" y1="54.0367" x2="117.395" y2="54.0367" stroke="#828282" stroke-width="3.67277" stroke-linecap="round"/>
<line x1="0.734555" y1="71.1385" x2="130.265" y2="71.1385" stroke="#D3D3D3" stroke-width="1.46911" stroke-linecap="round"/>
<line x1="0.734555" y1="81.1385" x2="90.2654" y2="81.1385" stroke="#D3D3D3" stroke-width="1.46911" stroke-linecap="round"/>
<rect y="97.873" width="108" height="28" rx="5" fill="#7047EB"/>
<path d="M28.125 113.748C28.125 114.08 27.9933 114.398 27.7589 114.632C27.5245 114.866 27.2065 114.998 26.875 114.998H19.375L16.875 117.498V107.498C16.875 107.167 17.0067 106.849 17.2411 106.614C17.4755 106.38 17.7935 106.248 18.125 106.248H26.875C27.2065 106.248 27.5245 106.38 27.7589 106.614C27.9933 106.849 28.125 107.167 28.125 107.498V113.748Z" stroke="white" stroke-width="2" stroke-linecap="round" stroke-linejoin="round"/>
<path d="M44.5004 109.984H43.1708C43.1197 109.7 43.0245 109.45 42.8853 109.234C42.7461 109.018 42.5756 108.835 42.3739 108.684C42.1722 108.534 41.9464 108.42 41.6964 108.343C41.4492 108.267 41.1864 108.228 40.908 108.228C40.4052 108.228 39.9549 108.355 39.5572 108.607C39.1623 108.86 38.8498 109.231 38.6197 109.72C38.3924 110.208 38.2788 110.805 38.2788 111.509C38.2788 112.22 38.3924 112.819 38.6197 113.308C38.8498 113.796 39.1637 114.166 39.5614 114.416C39.9592 114.666 40.4066 114.791 40.9038 114.791C41.1793 114.791 41.4407 114.754 41.6879 114.68C41.9379 114.603 42.1637 114.491 42.3654 114.343C42.5671 114.195 42.7376 114.015 42.8768 113.802C43.0188 113.586 43.1168 113.339 43.1708 113.061L44.5004 113.065C44.4293 113.494 44.2915 113.889 44.087 114.249C43.8853 114.607 43.6254 114.917 43.3072 115.178C42.9918 115.437 42.631 115.637 42.2248 115.779C41.8185 115.921 41.3754 115.992 40.8952 115.992C40.1396 115.992 39.4663 115.813 38.8754 115.455C38.2844 115.095 37.8185 114.579 37.4776 113.909C37.1396 113.238 36.9705 112.438 36.9705 111.509C36.9705 110.578 37.141 109.778 37.4819 109.11C37.8228 108.44 38.2887 107.926 38.8796 107.568C39.4705 107.207 40.1424 107.026 40.8952 107.026C41.3583 107.026 41.7901 107.093 42.1907 107.227C42.5941 107.357 42.9563 107.551 43.2773 107.806C43.5984 108.059 43.864 108.369 44.0742 108.735C44.2844 109.099 44.4265 109.515 44.5004 109.984ZM47.2479 111.987V115.873H45.9737V107.146H47.2308V110.393H47.3118C47.4652 110.041 47.6996 109.761 48.0149 109.553C48.3303 109.346 48.7422 109.242 49.2507 109.242C49.6996 109.242 50.0916 109.335 50.4268 109.519C50.7649 109.704 51.0263 109.98 51.2109 110.346C51.3984 110.71 51.4922 111.164 51.4922 111.71V115.873H50.218V111.863C50.218 111.383 50.0945 111.011 49.8473 110.747C49.6001 110.48 49.2564 110.346 48.8161 110.346C48.5149 110.346 48.245 110.41 48.0064 110.538C47.7706 110.666 47.5845 110.853 47.4482 111.1C47.3146 111.345 47.2479 111.64 47.2479 111.987ZM55.0973 116.018C54.6825 116.018 54.3075 115.941 53.9723 115.788C53.6371 115.632 53.3714 115.406 53.1754 115.11C52.9822 114.815 52.8857 114.453 52.8857 114.024C52.8857 113.654 52.9567 113.35 53.0987 113.112C53.2408 112.873 53.4325 112.684 53.674 112.545C53.9155 112.406 54.1854 112.301 54.4837 112.23C54.782 112.159 55.0859 112.105 55.3956 112.068C55.7876 112.022 56.1058 111.985 56.3501 111.957C56.5945 111.926 56.772 111.876 56.8828 111.808C56.9936 111.74 57.049 111.629 57.049 111.475V111.445C57.049 111.073 56.9439 110.785 56.7337 110.58C56.5263 110.376 56.2166 110.274 55.8047 110.274C55.3757 110.274 55.0376 110.369 54.7905 110.559C54.5462 110.747 54.3771 110.955 54.2834 111.186L53.0859 110.913C53.228 110.515 53.4354 110.194 53.7081 109.95C53.9837 109.703 54.3004 109.524 54.6584 109.413C55.0163 109.299 55.3928 109.242 55.7876 109.242C56.049 109.242 56.326 109.274 56.6186 109.336C56.9141 109.396 57.1896 109.507 57.4453 109.669C57.7038 109.83 57.9155 110.062 58.0803 110.363C58.245 110.661 58.3274 111.049 58.3274 111.526V115.873H57.0831V114.978H57.032C56.9496 115.143 56.826 115.305 56.6612 115.464C56.4964 115.623 56.2848 115.755 56.0263 115.86C55.7678 115.965 55.4581 116.018 55.0973 116.018ZM55.3743 114.995C55.7266 114.995 56.0277 114.926 56.2777 114.786C56.5305 114.647 56.7223 114.465 56.853 114.241C56.9865 114.014 57.0533 113.771 57.0533 113.512V112.669C57.0078 112.714 56.9197 112.757 56.7891 112.796C56.6612 112.833 56.5149 112.866 56.3501 112.894C56.1854 112.92 56.0249 112.944 55.8686 112.967C55.7124 112.987 55.5817 113.004 55.4766 113.018C55.2294 113.049 55.0036 113.102 54.799 113.176C54.5973 113.249 54.4354 113.356 54.3132 113.495C54.1939 113.632 54.1342 113.813 54.1342 114.041C54.1342 114.356 54.2507 114.595 54.4837 114.757C54.7166 114.916 55.0135 114.995 55.3743 114.995ZM63.0799 109.328V110.35H59.5046V109.328H63.0799ZM60.4634 107.759H61.7376V113.951C61.7376 114.198 61.7745 114.384 61.8484 114.509C61.9222 114.632 62.0174 114.715 62.1339 114.761C62.2532 114.803 62.3825 114.825 62.5217 114.825C62.6239 114.825 62.7134 114.818 62.7901 114.803C62.8668 114.789 62.9265 114.778 62.9691 114.769L63.1992 115.822C63.1254 115.85 63.0202 115.879 62.8839 115.907C62.7475 115.938 62.5771 115.955 62.3725 115.958C62.0373 115.964 61.7248 115.904 61.435 115.779C61.1452 115.654 60.9109 115.461 60.7319 115.2C60.5529 114.938 60.4634 114.61 60.4634 114.215V107.759ZM74.8114 107.146V115.873H73.6012L69.1651 109.472H69.0842V115.873H67.7674V107.146H68.9862L73.4265 113.555H73.5075V107.146H74.8114ZM79.3871 116.005C78.7734 116.005 78.2379 115.865 77.7805 115.583C77.3232 115.302 76.968 114.909 76.7152 114.403C76.4624 113.897 76.3359 113.306 76.3359 112.63C76.3359 111.951 76.4624 111.357 76.7152 110.849C76.968 110.34 77.3232 109.945 77.7805 109.664C78.2379 109.383 78.7734 109.242 79.3871 109.242C80.0007 109.242 80.5362 109.383 80.9936 109.664C81.451 109.945 81.8061 110.34 82.0589 110.849C82.3118 111.357 82.4382 111.951 82.4382 112.63C82.4382 113.306 82.3118 113.897 82.0589 114.403C81.8061 114.909 81.451 115.302 80.9936 115.583C80.5362 115.865 80.0007 116.005 79.3871 116.005ZM79.3913 114.936C79.7891 114.936 80.1186 114.83 80.38 114.62C80.6413 114.41 80.8345 114.13 80.9595 113.781C81.0874 113.431 81.1513 113.046 81.1513 112.626C81.1513 112.208 81.0874 111.825 80.9595 111.475C80.8345 111.123 80.6413 110.84 80.38 110.627C80.1186 110.414 79.7891 110.308 79.3913 110.308C78.9908 110.308 78.6584 110.414 78.3942 110.627C78.1328 110.84 77.9382 111.123 77.8104 111.475C77.6854 111.825 77.6229 112.208 77.6229 112.626C77.6229 113.046 77.6854 113.431 77.8104 113.781C77.9382 114.13 78.1328 114.41 78.3942 114.62C78.6584 114.83 78.9908 114.936 79.3913 114.936ZM85.0803 115.873L83.1541 109.328H84.4709L85.7536 114.134H85.8175L87.1044 109.328H88.4212L89.6996 114.113H89.7635L91.0376 109.328H92.3544L90.4325 115.873H89.1328L87.8033 111.147H87.7053L86.3757 115.873H85.0803Z" fill="white"/>
</svg>
