<svg width="172" height="138" viewBox="0 0 172 138" fill="none" xmlns="http://www.w3.org/2000/svg">
<path d="M1.69336 0.168945H32.1787C33.0204 0.169059 33.703 0.851726 33.7031 1.69336V32.1787C33.703 33.0204 33.0204 33.703 32.1787 33.7031H1.69336C0.851725 33.703 0.169057 33.0204 0.168945 32.1787V1.69336C0.169081 0.851739 0.851739 0.169078 1.69336 0.168945Z" fill="#F9F9F9" stroke="#E9E9E9" stroke-width="0.338721"/>
<path d="M22.8403 8.16211H9.99709C8.98379 8.16211 8.16235 8.98355 8.16235 9.99685V22.84C8.16235 23.8533 8.98379 24.6748 9.99709 24.6748H22.8403C23.8536 24.6748 24.675 23.8533 24.675 22.84V9.99685C24.675 8.98355 23.8536 8.16211 22.8403 8.16211Z" stroke="#828282" stroke-width="0.677442" stroke-linecap="round" stroke-linejoin="round"/>
<path d="M13.2078 14.5841C13.9678 14.5841 14.5839 13.9681 14.5839 13.2081C14.5839 12.4481 13.9678 11.832 13.2078 11.832C12.4479 11.832 11.8318 12.4481 11.8318 13.2081C11.8318 13.9681 12.4479 14.5841 13.2078 14.5841Z" stroke="#828282" stroke-width="0.677442" stroke-linecap="round" stroke-linejoin="round"/>
<path d="M24.675 19.1708L20.0881 14.584L9.99707 24.6751" stroke="#828282" stroke-width="0.677442" stroke-linecap="round" stroke-linejoin="round"/>
<line x1="42.9998" y1="4.8259" x2="137.705" y2="4.8259" stroke="#E9E9E9" stroke-width="2.20367" stroke-linecap="round"/>
<line x1="42.9998" y1="13.9997" x2="110.113" y2="13.9997" stroke="#E9E9E9" stroke-width="2.20367" stroke-linecap="round"/>
<line x1="46.3053" y1="26.954" x2="53.8792" y2="26.954" stroke="#E9E9E9" stroke-width="8.81466" stroke-linecap="round"/>
<rect y="56.6426" width="108" height="28" rx="5" fill="#7047EB"/>
<path d="M28.125 72.5176C28.125 72.8491 27.9933 73.167 27.7589 73.4015C27.5245 73.6359 27.2065 73.7676 26.875 73.7676H19.375L16.875 76.2676V66.2676C16.875 65.9361 17.0067 65.6181 17.2411 65.3837C17.4755 65.1493 17.7935 65.0176 18.125 65.0176H26.875C27.2065 65.0176 27.5245 65.1493 27.7589 65.3837C27.9933 65.6181 28.125 65.9361 28.125 66.2676V72.5176Z" stroke="white" stroke-width="2" stroke-linecap="round" stroke-linejoin="round"/>
<path d="M44.5004 68.7534H43.1708C43.1197 68.4693 43.0245 68.2193 42.8853 68.0034C42.7461 67.7875 42.5756 67.6042 42.3739 67.4537C42.1722 67.3031 41.9464 67.1895 41.6964 67.1127C41.4492 67.036 41.1864 66.9977 40.908 66.9977C40.4052 66.9977 39.9549 67.1241 39.5572 67.377C39.1623 67.6298 38.8498 68.0005 38.6197 68.4892C38.3924 68.9778 38.2788 69.5744 38.2788 70.2789C38.2788 70.9892 38.3924 71.5886 38.6197 72.0772C38.8498 72.5659 39.1637 72.9352 39.5614 73.1852C39.9592 73.4352 40.4066 73.5602 40.9038 73.5602C41.1793 73.5602 41.4407 73.5233 41.6879 73.4494C41.9379 73.3727 42.1637 73.2605 42.3654 73.1127C42.5671 72.965 42.7376 72.7846 42.8768 72.5716C43.0188 72.3556 43.1168 72.1085 43.1708 71.8301L44.5004 71.8343C44.4293 72.2633 44.2915 72.6582 44.087 73.019C43.8853 73.377 43.6254 73.6866 43.3072 73.948C42.9918 74.2065 42.631 74.4068 42.2248 74.5488C41.8185 74.6909 41.3754 74.7619 40.8952 74.7619C40.1396 74.7619 39.4663 74.5829 38.8754 74.225C38.2844 73.8642 37.8185 73.3485 37.4776 72.6781C37.1396 72.0076 36.9705 71.2079 36.9705 70.2789C36.9705 69.3471 37.141 68.5474 37.4819 67.8798C37.8228 67.2093 38.2887 66.6951 38.8796 66.3372C39.4705 65.9764 40.1424 65.796 40.8952 65.796C41.3583 65.796 41.7901 65.8627 42.1907 65.9963C42.5941 66.127 42.9563 66.3201 43.2773 66.5758C43.5984 66.8287 43.864 67.1383 44.0742 67.5048C44.2844 67.8684 44.4265 68.2846 44.5004 68.7534ZM47.2479 70.7562V74.6426H45.9737V65.9153H47.2308V69.1625H47.3118C47.4652 68.8102 47.6996 68.5304 48.0149 68.323C48.3303 68.1156 48.7422 68.0119 49.2507 68.0119C49.6996 68.0119 50.0916 68.1042 50.4268 68.2889C50.7649 68.4735 51.0263 68.7491 51.2109 69.1156C51.3984 69.4792 51.4922 69.9338 51.4922 70.4792V74.6426H50.218V70.6326C50.218 70.1525 50.0945 69.7804 49.8473 69.5162C49.6001 69.2491 49.2564 69.1156 48.8161 69.1156C48.5149 69.1156 48.245 69.1795 48.0064 69.3074C47.7706 69.4352 47.5845 69.6227 47.4482 69.8699C47.3146 70.1142 47.2479 70.4096 47.2479 70.7562ZM55.0973 74.7875C54.6825 74.7875 54.3075 74.7108 53.9723 74.5574C53.6371 74.4011 53.3714 74.1752 53.1754 73.8798C52.9822 73.5843 52.8857 73.2221 52.8857 72.7931C52.8857 72.4238 52.9567 72.1199 53.0987 71.8812C53.2408 71.6426 53.4325 71.4537 53.674 71.3145C53.9155 71.1752 54.1854 71.0701 54.4837 70.9991C54.782 70.9281 55.0859 70.8741 55.3956 70.8372C55.7876 70.7917 56.1058 70.7548 56.3501 70.7264C56.5945 70.6951 56.772 70.6454 56.8828 70.5772C56.9936 70.5091 57.049 70.3983 57.049 70.2449V70.215C57.049 69.8429 56.9439 69.5545 56.7337 69.35C56.5263 69.1454 56.2166 69.0431 55.8047 69.0431C55.3757 69.0431 55.0376 69.1383 54.7905 69.3287C54.5462 69.5162 54.3771 69.725 54.2834 69.9551L53.0859 69.6824C53.228 69.2846 53.4354 68.9636 53.7081 68.7193C53.9837 68.4721 54.3004 68.2931 54.6584 68.1824C55.0163 68.0687 55.3928 68.0119 55.7876 68.0119C56.049 68.0119 56.326 68.0431 56.6186 68.1056C56.9141 68.1653 57.1896 68.2761 57.4453 68.438C57.7038 68.6 57.9155 68.8315 58.0803 69.1326C58.245 69.4309 58.3274 69.8187 58.3274 70.296V74.6426H57.0831V73.7477H57.032C56.9496 73.9125 56.826 74.0744 56.6612 74.2335C56.4964 74.3926 56.2848 74.5247 56.0263 74.6298C55.7678 74.7349 55.4581 74.7875 55.0973 74.7875ZM55.3743 73.7647C55.7266 73.7647 56.0277 73.6951 56.2777 73.5559C56.5305 73.4167 56.7223 73.2349 56.853 73.0105C56.9865 72.7832 57.0533 72.5403 57.0533 72.2818V71.438C57.0078 71.4835 56.9197 71.5261 56.7891 71.5659C56.6612 71.6028 56.5149 71.6355 56.3501 71.6639C56.1854 71.6895 56.0249 71.7136 55.8686 71.7363C55.7124 71.7562 55.5817 71.7733 55.4766 71.7875C55.2294 71.8187 55.0036 71.8713 54.799 71.9451C54.5973 72.019 54.4354 72.1255 54.3132 72.2647C54.1939 72.4011 54.1342 72.5829 54.1342 72.8102C54.1342 73.1255 54.2507 73.3642 54.4837 73.5261C54.7166 73.6852 55.0135 73.7647 55.3743 73.7647ZM63.0799 68.0971V69.1199H59.5046V68.0971H63.0799ZM60.4634 66.5289H61.7376V72.7207C61.7376 72.9679 61.7745 73.1539 61.8484 73.2789C61.9222 73.4011 62.0174 73.4849 62.1339 73.5304C62.2532 73.573 62.3825 73.5943 62.5217 73.5943C62.6239 73.5943 62.7134 73.5872 62.7901 73.573C62.8668 73.5588 62.9265 73.5474 62.9691 73.5389L63.1992 74.5914C63.1254 74.6199 63.0202 74.6483 62.8839 74.6767C62.7475 74.7079 62.5771 74.725 62.3725 74.7278C62.0373 74.7335 61.7248 74.6738 61.435 74.5488C61.1452 74.4238 60.9109 74.2306 60.7319 73.9693C60.5529 73.7079 60.4634 73.3798 60.4634 72.9849V66.5289ZM74.8114 65.9153V74.6426H73.6012L69.1651 68.242H69.0842V74.6426H67.7674V65.9153H68.9862L73.4265 72.3244H73.5075V65.9153H74.8114ZM79.3871 74.7747C78.7734 74.7747 78.2379 74.6341 77.7805 74.3528C77.3232 74.0716 76.968 73.6781 76.7152 73.1724C76.4624 72.6667 76.3359 72.0758 76.3359 71.3997C76.3359 70.7207 76.4624 70.127 76.7152 69.6184C76.968 69.1099 77.3232 68.715 77.7805 68.4338C78.2379 68.1525 78.7734 68.0119 79.3871 68.0119C80.0007 68.0119 80.5362 68.1525 80.9936 68.4338C81.451 68.715 81.8061 69.1099 82.0589 69.6184C82.3118 70.127 82.4382 70.7207 82.4382 71.3997C82.4382 72.0758 82.3118 72.6667 82.0589 73.1724C81.8061 73.6781 81.451 74.0716 80.9936 74.3528C80.5362 74.6341 80.0007 74.7747 79.3871 74.7747ZM79.3913 73.7051C79.7891 73.7051 80.1186 73.6 80.38 73.3897C80.6413 73.1795 80.8345 72.8997 80.9595 72.5502C81.0874 72.2008 81.1513 71.8159 81.1513 71.3954C81.1513 70.9778 81.0874 70.5943 80.9595 70.2449C80.8345 69.8926 80.6413 69.6099 80.38 69.3968C80.1186 69.1838 79.7891 69.0772 79.3913 69.0772C78.9908 69.0772 78.6584 69.1838 78.3942 69.3968C78.1328 69.6099 77.9382 69.8926 77.8104 70.2449C77.6854 70.5943 77.6229 70.9778 77.6229 71.3954C77.6229 71.8159 77.6854 72.2008 77.8104 72.5502C77.9382 72.8997 78.1328 73.1795 78.3942 73.3897C78.6584 73.6 78.9908 73.7051 79.3913 73.7051ZM85.0803 74.6426L83.1541 68.0971H84.4709L85.7536 72.9039H85.8175L87.1044 68.0971H88.4212L89.6996 72.8826H89.7635L91.0376 68.0971H92.3544L90.4325 74.6426H89.1328L87.8033 69.9167H87.7053L86.3757 74.6426H85.0803Z" fill="white"/>
<line opacity="0.5" x1="1.83639" y1="105.578" x2="20.2003" y2="105.578" stroke="#828282" stroke-width="3.67277" stroke-linecap="round"/>
<line opacity="0.5" x1="29.0149" y1="105.578" x2="47.3787" y2="105.578" stroke="#828282" stroke-width="3.67277" stroke-linecap="round"/>
<line opacity="0.5" x1="56.1936" y1="105.578" x2="74.5574" y2="105.578" stroke="#828282" stroke-width="3.67277" stroke-linecap="round"/>
<line opacity="0.5" x1="83.372" y1="105.578" x2="95.9761" y2="105.578" stroke="#828282" stroke-width="3.67277" stroke-linecap="round"/>
<line opacity="0.5" x1="104.791" y1="105.578" x2="123.155" y2="105.578" stroke="#828282" stroke-width="3.67277" stroke-linecap="round"/>
<line x1="0.734555" y1="116.68" x2="171.265" y2="116.68" stroke="#D3D3D3" stroke-width="1.46911" stroke-linecap="round"/>
<line x1="0.734555" y1="126.68" x2="139.528" y2="126.68" stroke="#D3D3D3" stroke-width="1.46911" stroke-linecap="round"/>
<line x1="0.734555" y1="136.68" x2="139.528" y2="136.68" stroke="#D3D3D3" stroke-width="1.46911" stroke-linecap="round"/>
</svg>
