<svg width="30" height="30" viewBox="0 0 30 30" fill="none" xmlns="http://www.w3.org/2000/svg">
<rect width="30" height="30" rx="5.76923" fill="#E7F3FF"/>
<g clip-path="url(#clip0_1998_34096)">
<mask id="mask0_1998_34096" style="mask-type:luminance" maskUnits="userSpaceOnUse" x="6" y="6" width="18" height="18">
<path d="M6.34692 6.3457H23.6546V23.6482H6.34692V6.3457Z" fill="white"/>
</mask>
<g mask="url(#mask0_1998_34096)">
<path d="M23.6546 6.3457H6.34692V21.6218H23.6546V6.3457Z" fill="black"/>
<path fill-rule="evenodd" clip-rule="evenodd" d="M14.1489 20.1035L17.3769 21.4931L14.1885 23.6474L14.1489 20.1035Z" fill="black"/>
<path fill-rule="evenodd" clip-rule="evenodd" d="M9.22579 8.52759V10.4607H8.55939V8.52759H7.77996V8.02539H10.0052V8.52759H9.22579ZM13.4693 10.4607L13.2549 9.98256H12.1871L11.9845 10.4607H11.2596L12.417 8.02539H13.064L14.2097 10.4607H13.4693ZM12.7288 8.67551L12.3781 9.51131H13.0718L12.7288 8.67551ZM15.963 10.4607V8.02539H16.6332V9.94815H17.701V10.4607H15.963ZM21.2236 10.4607L20.1986 9.33933H20.1908V10.4607H19.5361V8.02539H20.1908V9.01602H20.2025L21.1885 8.02539H22.0225L20.8339 9.14671L22.0926 10.4607H21.2236ZM9.55313 13.8435C9.55313 13.9398 9.54079 14.0407 9.51613 14.1462C9.49143 14.2517 9.44597 14.3486 9.37971 14.4369C9.31348 14.5252 9.22123 14.598 9.10302 14.6553C8.98481 14.7126 8.83218 14.7413 8.64512 14.7413C8.41129 14.7413 8.21646 14.688 8.06055 14.5813C7.90466 14.4747 7.80076 14.3377 7.74878 14.1703L8.33724 13.9949C8.35541 14.0591 8.38859 14.1107 8.43662 14.1497C8.4847 14.1886 8.54381 14.2081 8.61393 14.2081C8.72306 14.2081 8.79514 14.1749 8.83022 14.1084C8.8653 14.0419 8.88284 13.9547 8.88284 13.847V12.2407H9.55313V13.8435ZM13.0874 12.8736C13.0302 12.8094 12.9555 12.7583 12.8633 12.7205C12.771 12.6827 12.682 12.6637 12.5963 12.6637C12.5522 12.6637 12.5073 12.6672 12.4619 12.674C12.4164 12.6809 12.3755 12.6941 12.3391 12.7136C12.3029 12.7329 12.2717 12.7587 12.2475 12.7893C12.2228 12.8202 12.2105 12.8598 12.2105 12.9079C12.2105 12.9492 12.2203 12.9836 12.2397 13.0111C12.2592 13.0386 12.2878 13.0627 12.3255 13.0834C12.3632 13.104 12.408 13.1229 12.4599 13.1401C12.5119 13.1573 12.5703 13.1751 12.6353 13.1934C12.7333 13.2224 12.8307 13.2527 12.9276 13.2846C13.0289 13.3178 13.1211 13.362 13.2042 13.417C13.2874 13.4721 13.3562 13.5403 13.4108 13.6217C13.4654 13.7031 13.4927 13.8046 13.4927 13.9261C13.4927 14.066 13.4634 14.1869 13.405 14.289C13.3465 14.391 13.2679 14.4753 13.1692 14.5418C13.0705 14.6083 12.9574 14.6576 12.8301 14.6897C12.7021 14.7219 12.5697 14.7381 12.4365 14.7379C12.2409 14.7381 12.0468 14.7073 11.8637 14.6467C11.6792 14.5859 11.5259 14.4994 11.4038 14.387L11.8403 13.9949C11.9078 14.0683 11.9968 14.1296 12.1072 14.1789C12.2177 14.2282 12.3274 14.2529 12.4365 14.2529C12.485 14.2529 12.5334 14.2483 12.5807 14.2391C12.6275 14.2299 12.6684 14.215 12.7035 14.1944C12.7386 14.1737 12.7665 14.1462 12.7873 14.1118C12.808 14.0774 12.8185 14.0361 12.8185 13.988C12.8185 13.9421 12.8055 13.9031 12.7795 13.871C12.7535 13.8389 12.7165 13.8097 12.6684 13.7833C12.6203 13.757 12.5606 13.7329 12.4892 13.7111C12.4083 13.6866 12.3271 13.6631 12.2456 13.6406C12.1572 13.6154 12.0707 13.5855 11.9864 13.5512C11.902 13.5168 11.8266 13.4726 11.7604 13.4187C11.6941 13.3649 11.6409 13.2995 11.6006 13.2227C11.5603 13.1459 11.5402 13.0524 11.5402 12.9424C11.5402 12.807 11.5714 12.6913 11.6337 12.5949C11.6961 12.4986 11.7779 12.4195 11.8793 12.3576C11.9806 12.2957 12.0949 12.2504 12.2222 12.2217C12.3482 12.1932 12.4779 12.1788 12.608 12.1787C12.7639 12.1787 12.923 12.204 13.0854 12.2544C13.2478 12.3049 13.39 12.3794 13.5121 12.478L13.0874 12.8736Z" fill="white"/>
<path d="M23.6546 6.3457H6.34692V21.6218H23.6546V6.3457Z" fill="black"/>
<path fill-rule="evenodd" clip-rule="evenodd" d="M14.1489 20.1035L17.3769 21.4931L14.1885 23.6474L14.1489 20.1035Z" fill="black"/>
<path fill-rule="evenodd" clip-rule="evenodd" d="M9.22579 8.52759V10.4607H8.55939V8.52759H7.77996V8.02539H10.0052V8.52759H9.22579ZM13.4693 10.4607L13.2549 9.98256H12.1871L11.9845 10.4607H11.2596L12.417 8.02539H13.064L14.2097 10.4607H13.4693ZM12.7288 8.67551L12.3781 9.51131H13.0718L12.7288 8.67551ZM15.963 10.4607V8.02539H16.6332V9.94815H17.701V10.4607H15.963ZM21.2236 10.4607L20.1986 9.33933H20.1908V10.4607H19.5361V8.02539H20.1908V9.01602H20.2025L21.1885 8.02539H22.0225L20.8339 9.14671L22.0926 10.4607H21.2236ZM9.55313 13.8435C9.55313 13.9398 9.54079 14.0407 9.51613 14.1462C9.49143 14.2517 9.44597 14.3486 9.37971 14.4369C9.31348 14.5252 9.22123 14.598 9.10302 14.6553C8.98481 14.7126 8.83218 14.7413 8.64512 14.7413C8.41129 14.7413 8.21646 14.688 8.06055 14.5813C7.90466 14.4747 7.80076 14.3377 7.74878 14.1703L8.33724 13.9949C8.35541 14.0591 8.38859 14.1107 8.43662 14.1497C8.4847 14.1886 8.54381 14.2081 8.61393 14.2081C8.72306 14.2081 8.79514 14.1749 8.83022 14.1084C8.8653 14.0419 8.88284 13.9547 8.88284 13.847V12.2407H9.55313V13.8435ZM13.0874 12.8736C13.0302 12.8094 12.9555 12.7583 12.8633 12.7205C12.771 12.6827 12.682 12.6637 12.5963 12.6637C12.5522 12.6637 12.5073 12.6672 12.4619 12.674C12.4164 12.6809 12.3755 12.6941 12.3391 12.7136C12.3029 12.7329 12.2717 12.7587 12.2475 12.7893C12.2228 12.8202 12.2105 12.8598 12.2105 12.9079C12.2105 12.9492 12.2203 12.9836 12.2397 13.0111C12.2592 13.0386 12.2878 13.0627 12.3255 13.0834C12.3632 13.104 12.408 13.1229 12.4599 13.1401C12.5119 13.1573 12.5703 13.1751 12.6353 13.1934C12.7333 13.2224 12.8307 13.2527 12.9276 13.2846C13.0289 13.3178 13.1211 13.362 13.2042 13.417C13.2874 13.4721 13.3562 13.5403 13.4108 13.6217C13.4654 13.7031 13.4927 13.8046 13.4927 13.9261C13.4927 14.066 13.4634 14.1869 13.405 14.289C13.3465 14.391 13.2679 14.4753 13.1692 14.5418C13.0705 14.6083 12.9574 14.6576 12.8301 14.6897C12.7021 14.7219 12.5697 14.7381 12.4365 14.7379C12.2409 14.7381 12.0468 14.7073 11.8637 14.6467C11.6792 14.5859 11.5259 14.4994 11.4038 14.387L11.8403 13.9949C11.9078 14.0683 11.9968 14.1296 12.1072 14.1789C12.2177 14.2282 12.3274 14.2529 12.4365 14.2529C12.485 14.2529 12.5334 14.2483 12.5807 14.2391C12.6275 14.2299 12.6684 14.215 12.7035 14.1944C12.7386 14.1737 12.7665 14.1462 12.7873 14.1118C12.808 14.0774 12.8185 14.0361 12.8185 13.988C12.8185 13.9421 12.8055 13.9031 12.7795 13.871C12.7535 13.8389 12.7165 13.8097 12.6684 13.7833C12.6203 13.757 12.5606 13.7329 12.4892 13.7111C12.4083 13.6866 12.3271 13.6631 12.2456 13.6406C12.1572 13.6154 12.0707 13.5855 11.9864 13.5512C11.902 13.5168 11.8266 13.4726 11.7604 13.4187C11.6941 13.3649 11.6409 13.2995 11.6006 13.2227C11.5603 13.1459 11.5402 13.0524 11.5402 12.9424C11.5402 12.807 11.5714 12.6913 11.6337 12.5949C11.6961 12.4986 11.7779 12.4195 11.8793 12.3576C11.9806 12.2957 12.0949 12.2504 12.2222 12.2217C12.3482 12.1932 12.4779 12.1788 12.608 12.1787C12.7639 12.1787 12.923 12.204 13.0854 12.2544C13.2478 12.3049 13.39 12.3794 13.5121 12.478L13.0874 12.8736Z" fill="white"/>
</g>
</g>
<defs>
<clipPath id="clip0_1998_34096">
<rect width="17.3077" height="17.3077" fill="white" transform="translate(6.34619 6.3457)"/>
</clipPath>
</defs>
</svg>
