<svg width="31" height="30" viewBox="0 0 31 30" fill="none" xmlns="http://www.w3.org/2000/svg">
<rect x="0.5" width="30" height="30" rx="5.76923" fill="#D5FFDA"/>
<path d="M8.57568 22.1818L9.56748 18.559C8.95587 17.501 8.63629 16.2971 8.63629 15.0656C8.63629 11.2114 11.7742 8.07617 15.6285 8.07617C17.4991 8.07617 19.2541 8.80625 20.5737 10.1259C21.8934 11.4483 22.6207 13.2032 22.6207 15.0711C22.6179 18.9254 19.4827 22.0606 15.6285 22.0606H15.6257C14.4549 22.0606 13.306 21.7658 12.2839 21.2093L8.57568 22.1818ZM12.4547 19.9447L12.6669 20.0715C13.5595 20.6004 14.5816 20.8814 15.6257 20.8814H15.6285C18.8326 20.8814 21.4388 18.2752 21.4388 15.0711C21.4388 13.5201 20.8354 12.0599 19.739 10.9607C18.6425 9.86141 17.1823 9.25807 15.6312 9.25807C12.4244 9.25807 9.81819 11.8643 9.81819 15.0684C9.81819 16.1649 10.124 17.2338 10.7053 18.1595L10.8431 18.3799L10.2562 20.5233L12.4547 19.9447Z" fill="white"/>
<path d="M8.82153 21.9375L9.78027 18.4414C9.18795 17.4193 8.87663 16.2567 8.87663 15.0693C8.87939 11.3473 11.9071 8.32227 15.6264 8.32227C17.4309 8.32227 19.128 9.02479 20.4008 10.3004C21.6764 11.5759 22.3789 13.2703 22.3762 15.0748C22.3734 18.794 19.3456 21.8218 15.6264 21.8218H15.6236C14.4941 21.8218 13.3838 21.538 12.3975 21.0008L8.82153 21.9375Z" fill="url(#paint0_linear_1998_34106)"/>
<path d="M8.57568 22.1818L9.56748 18.559C8.95587 17.501 8.63629 16.2971 8.63629 15.0656C8.63629 11.2114 11.7742 8.07617 15.6285 8.07617C17.4991 8.07617 19.2541 8.80625 20.5737 10.1259C21.8934 11.4483 22.6207 13.2032 22.6207 15.0711C22.6179 18.9254 19.4827 22.0606 15.6285 22.0606H15.6257C14.4549 22.0606 13.306 21.7658 12.2839 21.2093L8.57568 22.1818ZM12.4547 19.9447L12.6669 20.0715C13.5595 20.6004 14.5816 20.8814 15.6257 20.8814H15.6285C18.8326 20.8814 21.4388 18.2752 21.4388 15.0711C21.4388 13.5201 20.8354 12.0599 19.739 10.9607C18.6425 9.86141 17.1823 9.25807 15.6312 9.25807C12.4244 9.25807 9.81819 11.8643 9.81819 15.0684C9.81819 16.1649 10.124 17.2338 10.7053 18.1595L10.8431 18.3799L10.2562 20.5233L12.4547 19.9447Z" fill="url(#paint1_linear_1998_34106)"/>
<path fill-rule="evenodd" clip-rule="evenodd" d="M13.8795 12.1444C13.7473 11.8524 13.6096 11.8468 13.4856 11.8413C13.3836 11.8358 13.2679 11.8386 13.1495 11.8386C13.0338 11.8386 12.8437 11.8827 12.6839 12.0562C12.5241 12.2298 12.0723 12.6541 12.0723 13.5136C12.0723 14.3732 12.6977 15.2052 12.7858 15.3209C12.874 15.4366 13.9953 17.2577 15.7695 17.9574C17.2462 18.5387 17.5465 18.423 17.866 18.3955C18.1856 18.3679 18.8992 17.974 19.0452 17.5662C19.1912 17.1585 19.1912 16.8086 19.1471 16.737C19.103 16.6653 18.9873 16.6213 18.811 16.5331C18.6374 16.4449 17.7779 16.0234 17.6181 15.9656C17.4583 15.9077 17.3426 15.8774 17.2241 16.0537C17.1084 16.2273 16.7723 16.6213 16.6704 16.737C16.5684 16.8527 16.4665 16.8692 16.2929 16.7811C16.1194 16.6929 15.5546 16.5083 14.8879 15.9132C14.3672 15.4504 14.0173 14.8773 13.9154 14.7038C13.8134 14.5302 13.9043 14.4338 13.9925 14.3484C14.0696 14.2712 14.1661 14.1445 14.2542 14.0426C14.3424 13.9406 14.3699 13.869 14.4278 13.7506C14.4856 13.6348 14.4581 13.5329 14.414 13.4447C14.3754 13.3538 14.0366 12.4915 13.8795 12.1444Z" fill="white"/>
<defs>
<linearGradient id="paint0_linear_1998_34106" x1="15.5988" y1="21.9386" x2="15.5988" y2="8.32133" gradientUnits="userSpaceOnUse">
<stop stop-color="#20B038"/>
<stop offset="1" stop-color="#60D66A"/>
</linearGradient>
<linearGradient id="paint1_linear_1998_34106" x1="15.5982" y1="22.1818" x2="15.5982" y2="8.07617" gradientUnits="userSpaceOnUse">
<stop stop-color="#F9F9F9"/>
<stop offset="1" stop-color="white"/>
</linearGradient>
</defs>
</svg>
