<svg width="66" height="26" viewBox="0 0 66 26" fill="none" xmlns="http://www.w3.org/2000/svg">
<rect x="0.367188" width="64.8398" height="25.6298" rx="2.60497" fill="#FEF8DB"/>
<path fill-rule="evenodd" clip-rule="evenodd" d="M23.9355 11.0736H12.6386C12.4814 11.0736 12.3433 10.9645 12.3004 10.8066C12.2576 10.6486 12.3204 10.4802 12.4543 10.394L18.1028 6.76444C18.2159 6.6918 18.3584 6.6918 18.4714 6.76444L24.1198 10.394C24.2538 10.4801 24.3166 10.6486 24.2738 10.8066C24.231 10.9645 24.0928 11.0736 23.9355 11.0736ZM18.5261 8.86865H18.0481C17.854 8.86865 17.6966 9.03295 17.6966 9.23566C17.6966 9.43838 17.854 9.60268 18.0481 9.60268H18.5261C18.7203 9.60268 18.8777 9.43838 18.8777 9.23566C18.8777 9.03295 18.7203 8.86865 18.5261 8.86865ZM23.1967 11.6194V11.8921C23.1967 12.0428 23.047 12.1649 22.8626 12.1649H13.7125C13.528 12.1649 13.3785 12.0428 13.3785 11.8921V11.6194H23.1967ZM13.3785 13.2556H15.0148V16.5283H13.3785V13.2556ZM17.7424 13.2556H16.106V16.5283H17.7424V13.2556ZM18.832 13.2556H20.4684V16.5283H18.832V13.2556ZM21.5596 13.2556H23.1959V16.5283H21.5596V13.2556ZM23.9355 17.0738H12.6387C12.4445 17.0738 12.2871 17.2308 12.2871 17.4245V18.3595C12.2871 18.5532 12.4445 18.7102 12.6387 18.7102H23.9355C24.1297 18.7102 24.2871 18.5532 24.2871 18.3595V17.4245C24.2871 17.2308 24.1297 17.0738 23.9355 17.0738Z" fill="#AFA056"/>
<path d="M32.4503 16.4199V9.69593H35.0243C35.5103 9.69593 35.9141 9.77253 36.2358 9.92575C36.5598 10.0768 36.8017 10.2836 36.9614 10.5463C37.1234 10.8089 37.2044 11.1066 37.2044 11.4393C37.2044 11.7129 37.1519 11.9471 37.0468 12.1419C36.9417 12.3345 36.8006 12.491 36.6233 12.6114C36.446 12.7318 36.2479 12.8183 36.029 12.8708V12.9364C36.2676 12.9496 36.4963 13.0229 36.7152 13.1564C36.9363 13.2877 37.1168 13.4738 37.2569 13.7146C37.397 13.9553 37.467 14.2464 37.467 14.5879C37.467 14.9359 37.3828 15.2489 37.2142 15.5269C37.0457 15.8027 36.7918 16.0205 36.4525 16.1802C36.1133 16.34 35.6865 16.4199 35.1721 16.4199H32.4503ZM33.6684 15.4021H34.9784C35.4205 15.4021 35.739 15.3179 35.9338 15.1493C36.1308 14.9786 36.2293 14.7597 36.2293 14.4927C36.2293 14.2935 36.18 14.114 36.0815 13.9542C35.983 13.7923 35.843 13.6653 35.6613 13.5734C35.4796 13.4793 35.2629 13.4322 35.0112 13.4322H33.6684V15.4021ZM33.6684 12.5556H34.8733C35.0834 12.5556 35.2728 12.5173 35.4413 12.4407C35.6098 12.3619 35.7423 12.2514 35.8386 12.1091C35.9371 11.9646 35.9863 11.7939 35.9863 11.5969C35.9863 11.3364 35.8944 11.1219 35.7105 10.9534C35.5289 10.7849 35.2585 10.7006 34.8996 10.7006H33.6684V12.5556ZM39.9253 16.5217C39.6058 16.5217 39.318 16.4648 39.0619 16.351C38.808 16.235 38.6066 16.0642 38.4578 15.8388C38.3111 15.6133 38.2378 15.3354 38.2378 15.0049C38.2378 14.7203 38.2903 14.485 38.3954 14.299C38.5004 14.1129 38.6438 13.9641 38.8255 13.8525C39.0071 13.7408 39.2118 13.6566 39.4394 13.5997C39.6693 13.5406 39.9067 13.4979 40.1519 13.4716C40.4474 13.441 40.687 13.4136 40.8709 13.3895C41.0548 13.3633 41.1883 13.3239 41.2715 13.2713C41.3568 13.2166 41.3995 13.1323 41.3995 13.0185V12.9988C41.3995 12.7515 41.3262 12.56 41.1795 12.4243C41.0329 12.2886 40.8217 12.2207 40.5459 12.2207C40.2548 12.2207 40.0238 12.2842 39.8531 12.4111C39.6846 12.5381 39.5708 12.688 39.5117 12.8609L38.4019 12.7033C38.4895 12.3969 38.634 12.1408 38.8353 11.9351C39.0367 11.7271 39.2829 11.5717 39.574 11.4689C39.8652 11.3638 40.1869 11.3113 40.5393 11.3113C40.7823 11.3113 41.0241 11.3397 41.2649 11.3966C41.5057 11.4535 41.7256 11.5477 41.9248 11.679C42.124 11.8081 42.2838 11.9843 42.4042 12.2076C42.5267 12.4308 42.588 12.7099 42.588 13.0448V16.4199H41.4455V15.7272H41.4061C41.3338 15.8672 41.2321 15.9986 41.1007 16.1212C40.9716 16.2415 40.8085 16.3389 40.6115 16.4134C40.4167 16.4856 40.188 16.5217 39.9253 16.5217ZM40.234 15.6484C40.4725 15.6484 40.6794 15.6013 40.8545 15.5072C41.0296 15.4109 41.1642 15.2839 41.2583 15.1263C41.3546 14.9687 41.4028 14.7969 41.4028 14.6109V14.0166C41.3656 14.0473 41.3021 14.0757 41.2124 14.102C41.1248 14.1282 41.0263 14.1512 40.9169 14.1709C40.8074 14.1906 40.6991 14.2081 40.5918 14.2235C40.4846 14.2388 40.3916 14.2519 40.3128 14.2629C40.1355 14.2869 39.9768 14.3263 39.8367 14.3811C39.6966 14.4358 39.5861 14.5124 39.5051 14.6109C39.4241 14.7072 39.3836 14.8319 39.3836 14.9852C39.3836 15.204 39.4635 15.3693 39.6233 15.4809C39.7831 15.5926 39.9866 15.6484 40.234 15.6484ZM44.9716 13.465V16.4199H43.7831V11.3769H44.9191V12.2338H44.9782C45.0942 11.9515 45.2791 11.7271 45.533 11.5608C45.7891 11.3944 46.1054 11.3113 46.4819 11.3113C46.8299 11.3113 47.1331 11.3857 47.3913 11.5345C47.6518 11.6834 47.8532 11.899 47.9954 12.1813C48.1399 12.4637 48.211 12.8062 48.2089 13.209V16.4199H47.0203V13.3928C47.0203 13.0557 46.9328 12.792 46.7577 12.6016C46.5848 12.4111 46.3451 12.3159 46.0387 12.3159C45.8307 12.3159 45.6458 12.3619 45.4838 12.4538C45.324 12.5436 45.1982 12.6738 45.1062 12.8445C45.0165 13.0152 44.9716 13.2221 44.9716 13.465ZM50.5005 14.8374L50.4972 13.4027H50.6877L52.5 11.3769H53.8888L51.6595 13.859H51.4133L50.5005 14.8374ZM49.4171 16.4199V9.69593H50.6056V16.4199H49.4171ZM52.5821 16.4199L50.9405 14.125L51.7416 13.2877L54.0037 16.4199H52.5821Z" fill="#7D723D"/>
</svg>
