<svg width="82" height="26" viewBox="0 0 82 26" fill="none" xmlns="http://www.w3.org/2000/svg">
<g clip-path="url(#clip0_53_6)">
<path d="M78.5093 0.0930176H2.85734C1.27927 0.0930176 0 1.37229 0 2.95036V22.8398C0 24.4178 1.27927 25.6971 2.85734 25.6971H78.5093C80.0873 25.6971 81.3666 24.4178 81.3666 22.8398V2.95036C81.3666 1.37229 80.0873 0.0930176 78.5093 0.0930176Z" fill="#EAF9FF"/>
<mask id="mask0_53_6" style="mask-type:luminance" maskUnits="userSpaceOnUse" x="11" y="5" width="59" height="16">
<path d="M69.9371 5H11.4292V21H69.9371V5Z" fill="white"/>
</mask>
<g mask="url(#mask0_53_6)">
<path fill-rule="evenodd" clip-rule="evenodd" d="M33.8916 8.51697C35.2404 8.51697 36.485 9.24867 36.3147 11.0722C36.1083 13.2395 34.9473 14.4387 33.1155 14.4438H31.5148C31.2847 14.4438 31.1732 14.6316 31.1134 15.0166L30.8038 16.9846C30.7573 17.2819 30.6046 17.4284 30.3796 17.4284H28.8904C28.6531 17.4284 28.5705 17.2767 28.6231 16.9372L29.8523 9.04949C29.9132 8.66145 30.0587 8.51697 30.3239 8.51697H33.8885H33.8916ZM31.4663 12.74H32.6789C33.4375 12.7111 33.9411 12.1858 33.9917 11.2384C34.0226 10.6532 33.6274 10.2342 32.9989 10.2373L31.8575 10.2425L31.4663 12.74ZM40.3633 16.8247C40.4995 16.7008 40.6378 16.6368 40.6182 16.7896L40.5697 17.1549C40.5449 17.3458 40.6203 17.447 40.7978 17.447H42.1208C42.3437 17.447 42.4521 17.3572 42.5068 17.0125L43.3221 11.8958C43.3634 11.6388 43.3004 11.5129 43.1054 11.5129H41.6502C41.5192 11.5129 41.4552 11.5862 41.4211 11.7864L41.3675 12.1011C41.3396 12.2652 41.2643 12.2941 41.1941 12.129C40.9474 11.5449 40.3179 11.2828 39.4397 11.3034C37.3994 11.3457 36.0237 12.8948 35.8761 14.8804C35.7626 16.416 36.8627 17.6224 38.3137 17.6224C39.3664 17.6224 39.837 17.3128 40.3674 16.8278L40.3633 16.8247ZM39.2549 16.0372C38.3767 16.0372 37.7647 15.3365 37.8916 14.4779C38.0186 13.6192 38.8401 12.9185 39.7183 12.9185C40.5965 12.9185 41.2085 13.6192 41.0816 14.4779C40.9547 15.3365 40.1342 16.0372 39.2549 16.0372ZM45.9114 11.4964H44.5698C44.2932 11.4964 44.1807 11.7028 44.2685 11.9567L45.9341 16.834L44.3004 19.155C44.1632 19.349 44.2695 19.5254 44.4625 19.5254H45.9702C46.0581 19.5356 46.1471 19.5203 46.2265 19.4813C46.3059 19.4423 46.3724 19.3814 46.4181 19.3056L51.541 11.9577C51.6989 11.7317 51.6246 11.4943 51.3656 11.4943H49.9383C49.6937 11.4943 49.5957 11.5913 49.4553 11.7946L47.3191 14.8907L46.3645 11.7874C46.3087 11.5996 46.1684 11.4964 45.9114 11.4964Z" fill="#113984"/>
<path fill-rule="evenodd" clip-rule="evenodd" d="M56.871 8.51696C58.2198 8.51696 59.4644 9.24866 59.2942 11.0722C59.0878 13.2395 57.9268 14.4386 56.0949 14.4438H54.4953C54.2652 14.4438 54.1537 14.6316 54.0939 15.0166L53.7842 16.9846C53.7378 17.2818 53.5851 17.4284 53.3601 17.4284H51.8709C51.6335 17.4284 51.551 17.2767 51.6036 16.9372L52.8348 9.04741C52.8957 8.65937 53.0412 8.51489 53.3064 8.51489H56.871V8.51696ZM54.4458 12.74H55.6584C56.4169 12.7111 56.9205 12.1858 56.9711 11.2384C57.0021 10.6532 56.6068 10.2342 55.9783 10.2373L54.8369 10.2425L54.4458 12.74ZM63.3428 16.8247C63.479 16.7008 63.6173 16.6368 63.5977 16.7896L63.5492 17.1549C63.5244 17.3458 63.5997 17.447 63.7772 17.447H65.1003C65.3232 17.447 65.4315 17.3572 65.4862 17.0125L66.3015 11.8958C66.3428 11.6388 66.2799 11.5129 66.0848 11.5129H64.6317C64.5007 11.5129 64.4367 11.5862 64.4026 11.7864L64.349 12.1011C64.3211 12.2652 64.2458 12.2941 64.1756 12.129C63.9289 11.5449 63.2994 11.2828 62.4212 11.3034C60.3809 11.3457 59.0052 12.8948 58.8576 14.8804C58.7441 16.416 59.8442 17.6224 61.2952 17.6224C62.3479 17.6224 62.8185 17.3128 63.3489 16.8278L63.3428 16.8247ZM62.2354 16.0372C61.3572 16.0372 60.7452 15.3365 60.8721 14.4779C60.9991 13.6192 61.8205 12.9185 62.6988 12.9185C63.577 12.9185 64.189 13.6192 64.0621 14.4779C63.9351 15.3365 63.1136 16.0372 62.2354 16.0372ZM68.3377 17.4552H66.8103C66.7837 17.4564 66.7572 17.4517 66.7327 17.4415C66.7082 17.4312 66.6862 17.4157 66.6683 17.396C66.6505 17.3763 66.6372 17.3529 66.6295 17.3274C66.6217 17.302 66.6197 17.2751 66.6235 17.2488L67.9651 8.74916C67.9779 8.69115 68.01 8.63919 68.0561 8.60171C68.1022 8.56424 68.1596 8.54346 68.219 8.54276H69.7464C69.773 8.54157 69.7995 8.54626 69.824 8.5565C69.8485 8.56674 69.8705 8.58228 69.8884 8.60199C69.9062 8.62171 69.9195 8.64513 69.9272 8.67057C69.935 8.69601 69.937 8.72284 69.9332 8.74916L68.5916 17.2488C68.5792 17.3072 68.5473 17.3596 68.5012 17.3975C68.455 17.4354 68.3974 17.4565 68.3377 17.4573V17.4552Z" fill="#009EE3"/>
<path d="M19 20C22.866 20 26 16.866 26 13C26 9.13401 22.866 6 19 6C15.134 6 12 9.13401 12 13C12 16.866 15.134 20 19 20Z" fill="white" stroke="#C8E5F0" stroke-width="0.5"/>
</g>
<path d="M20.5378 12.8866C20.5336 13.922 20.0893 14.9909 19.1713 15.4771C18.5258 15.8208 17 16.0849 17 14.9657C17 14.9657 17 10.8033 17 10.7991C17 10.1788 17.524 9.97337 18.0479 10.0027C18.8276 10.0446 19.5737 10.4093 20.0264 11.08C20.3157 11.5075 20.4749 12.0231 20.5252 12.5429C20.5294 12.6603 20.5378 12.7734 20.5378 12.8866Z" fill="url(#paint0_linear_53_6)"/>
<path d="M21.9838 12.522C21.8958 11.6669 21.3718 10.9501 20.6467 10.5183C20.1646 10.2291 19.561 10.1578 19.2466 10.7363C19.2466 10.7405 17.1298 14.6304 17.1298 14.6304C16.9454 14.9699 16.9873 15.2508 17.155 15.4813C17.4065 15.8251 17.9053 15.9801 18.3119 16.0221C18.6891 16.064 19.0706 16.0221 19.4353 15.9382C20.5377 15.6867 21.5144 14.9364 21.8455 13.8466C21.9754 13.419 22.0299 12.9705 21.9838 12.522Z" fill="url(#paint1_linear_53_6)"/>
<path d="M19.1713 15.4814C20.0893 14.9909 20.5336 13.922 20.5378 12.8909C20.5378 12.7777 20.5336 12.6645 20.521 12.5513C20.4749 12.0316 20.3114 11.516 20.0222 11.0884C19.8629 10.8495 19.6659 10.6525 19.4437 10.489C19.3725 10.5519 19.3054 10.6357 19.2509 10.7405C19.2509 10.7447 17.1341 14.6346 17.1341 14.6346C16.9958 14.8861 16.9874 15.1083 17.0587 15.3011C17.0587 15.3053 17.0628 15.3095 17.0628 15.3137C17.067 15.3221 17.0712 15.3347 17.0754 15.343C17.0796 15.3514 17.0796 15.3556 17.0838 15.364C17.0838 15.3682 17.088 15.3724 17.088 15.3724C17.4191 16.0095 18.618 15.7748 19.1713 15.4814Z" fill="url(#paint2_linear_53_6)"/>
</g>
<defs>
<linearGradient id="paint0_linear_53_6" x1="18.7681" y1="10.3232" x2="18.7681" y2="12.3548" gradientUnits="userSpaceOnUse">
<stop stop-color="#5711CF"/>
<stop offset="1" stop-color="#800BD1"/>
</linearGradient>
<linearGradient id="paint1_linear_53_6" x1="21.2242" y1="10.9288" x2="18.7311" y2="15.7592" gradientUnits="userSpaceOnUse">
<stop stop-color="#FE9879"/>
<stop offset="1" stop-color="#FE7598"/>
</linearGradient>
<linearGradient id="paint2_linear_53_6" x1="20.2133" y1="10.811" x2="18.2812" y2="15.4232" gradientUnits="userSpaceOnUse">
<stop offset="0.0141305" stop-color="#D8476F"/>
<stop offset="0.9955" stop-color="#E93083"/>
</linearGradient>
<clipPath id="clip0_53_6">
<rect width="82" height="26" fill="white"/>
</clipPath>
</defs>
</svg>
