<svg width="82" height="26" viewBox="0 0 82 26" fill="none" xmlns="http://www.w3.org/2000/svg">
<rect y="0.0930176" width="81.3666" height="25.6041" rx="2.85734" fill="#EAF9FF"/>
<g clip-path="url(#clip0_4587_8094)">
<path fill-rule="evenodd" clip-rule="evenodd" d="M33.8916 7.51697C35.2404 7.51697 36.485 8.24867 36.3147 10.0722C36.1083 12.2395 34.9473 13.4387 33.1155 13.4438H31.5148C31.2847 13.4438 31.1732 13.6316 31.1134 14.0166L30.8038 15.9846C30.7573 16.2819 30.6046 16.4284 30.3796 16.4284H28.8904C28.6531 16.4284 28.5705 16.2767 28.6231 15.9372L29.8523 8.04949C29.9132 7.66145 30.0587 7.51697 30.3239 7.51697H33.8885H33.8916ZM31.4663 11.74H32.6789C33.4375 11.7111 33.9411 11.1858 33.9917 10.2384C34.0226 9.65323 33.6274 9.23424 32.9989 9.23733L31.8575 9.24249L31.4663 11.74ZM40.3633 15.8247C40.4995 15.7008 40.6378 15.6368 40.6182 15.7896L40.5697 16.1549C40.5449 16.3458 40.6203 16.447 40.7978 16.447H42.1208C42.3437 16.447 42.4521 16.3572 42.5068 16.0125L43.3221 10.8958C43.3634 10.6388 43.3004 10.5129 43.1054 10.5129H41.6502C41.5192 10.5129 41.4552 10.5862 41.4211 10.7864L41.3675 11.1011C41.3396 11.2652 41.2643 11.2941 41.1941 11.129C40.9474 10.5449 40.3179 10.2828 39.4397 10.3034C37.3994 10.3457 36.0237 11.8948 35.8761 13.8804C35.7626 15.416 36.8627 16.6224 38.3137 16.6224C39.3664 16.6224 39.837 16.3128 40.3674 15.8278L40.3633 15.8247ZM39.2549 15.0372C38.3767 15.0372 37.7647 14.3365 37.8916 13.4779C38.0186 12.6192 38.8401 11.9185 39.7183 11.9185C40.5965 11.9185 41.2085 12.6192 41.0816 13.4779C40.9547 14.3365 40.1342 15.0372 39.2549 15.0372ZM45.9114 10.4964H44.5698C44.2932 10.4964 44.1807 10.7028 44.2685 10.9567L45.9341 15.834L44.3004 18.155C44.1632 18.349 44.2695 18.5254 44.4625 18.5254H45.9702C46.0581 18.5356 46.1471 18.5203 46.2265 18.4813C46.3059 18.4423 46.3724 18.3814 46.4181 18.3056L51.541 10.9577C51.6989 10.7317 51.6246 10.4943 51.3656 10.4943H49.9383C49.6937 10.4943 49.5957 10.5913 49.4553 10.7946L47.3191 13.8907L46.3645 10.7874C46.3087 10.5996 46.1694 10.4964 45.9124 10.4964H45.9114Z" fill="#113984"/>
<path fill-rule="evenodd" clip-rule="evenodd" d="M56.871 7.51696C58.2198 7.51696 59.4644 8.24866 59.2942 10.0722C59.0878 12.2395 57.9268 13.4386 56.0949 13.4438H54.4953C54.2652 13.4438 54.1537 13.6316 54.0939 14.0166L53.7842 15.9846C53.7378 16.2818 53.5851 16.4284 53.3601 16.4284H51.8709C51.6335 16.4284 51.551 16.2767 51.6036 15.9372L52.8348 8.04741C52.8957 7.65937 53.0412 7.51489 53.3064 7.51489H56.871V7.51696ZM54.4458 11.74H55.6584C56.4169 11.7111 56.9205 11.1858 56.9711 10.2384C57.0021 9.65322 56.6068 9.23423 55.9783 9.23732L54.8369 9.24248L54.4458 11.74ZM63.3428 15.8247C63.479 15.7008 63.6173 15.6368 63.5977 15.7896L63.5492 16.1549C63.5244 16.3458 63.5997 16.447 63.7772 16.447H65.1003C65.3232 16.447 65.4315 16.3572 65.4862 16.0125L66.3015 10.8958C66.3428 10.6388 66.2799 10.5129 66.0848 10.5129H64.6317C64.5007 10.5129 64.4367 10.5862 64.4026 10.7864L64.349 11.1011C64.3211 11.2652 64.2458 11.2941 64.1756 11.129C63.9289 10.5449 63.2994 10.2828 62.4212 10.3034C60.3809 10.3457 59.0052 11.8948 58.8576 13.8804C58.7441 15.416 59.8442 16.6224 61.2952 16.6224C62.3479 16.6224 62.8185 16.3128 63.3489 15.8278L63.3428 15.8247ZM62.2354 15.0372C61.3572 15.0372 60.7452 14.3365 60.8721 13.4779C60.9991 12.6192 61.8205 11.9185 62.6988 11.9185C63.577 11.9185 64.189 12.6192 64.0621 13.4779C63.9351 14.3365 63.1136 15.0372 62.2354 15.0372ZM68.3377 16.4552H66.8103C66.7837 16.4564 66.7572 16.4517 66.7327 16.4415C66.7082 16.4312 66.6862 16.4157 66.6683 16.396C66.6505 16.3763 66.6372 16.3529 66.6295 16.3274C66.6217 16.302 66.6197 16.2751 66.6235 16.2488L67.9651 7.74916C67.9779 7.69115 68.01 7.63919 68.0561 7.60171C68.1022 7.56424 68.1596 7.54346 68.219 7.54276H69.7464C69.773 7.54157 69.7995 7.54626 69.824 7.5565C69.8485 7.56674 69.8705 7.58228 69.8884 7.60199C69.9062 7.62171 69.9195 7.64513 69.9272 7.67057C69.935 7.69601 69.937 7.72284 69.9332 7.74916L68.5916 16.2488C68.5792 16.3072 68.5473 16.3596 68.5012 16.3975C68.455 16.4354 68.3974 16.4565 68.3377 16.4573V16.4552Z" fill="#009EE3"/>
<circle cx="18.6715" cy="13.0217" r="7.04403" fill="white" stroke="#C8E5F0" stroke-width="0.5"/>
<path d="M16.1108 9.5918C16.1108 9.5918 19.9236 9.31097 19.9236 12.6021C19.9236 15.8932 18.9159 16.5474 18.033 16.7622C18.033 16.7622 21.7074 17.6469 21.7074 13.0183C21.7074 8.3897 17.0206 9.05681 16.1108 9.5918Z" fill="#F1634C"/>
<path d="M19.2122 15.1886C19.2122 15.1886 18.8439 16.4665 17.7313 16.6281C16.6187 16.7898 16.4114 16.1867 15.638 16.2279C15.638 16.2279 15.5748 15.6281 16.2009 15.5434C16.827 15.4588 18.0008 15.6242 18.7808 15.1305C18.7808 15.1305 19.2425 14.888 19.3326 14.7712L19.2122 15.1886Z" fill="#F1634C"/>
<path d="M16.0532 9.82171V11.4063V15.3489C16.0922 15.3392 16.1316 15.3316 16.1714 15.3261C16.3597 15.3006 16.5894 15.2964 16.8327 15.2918C17.0622 15.2875 17.3135 15.2827 17.5648 15.2594V13.3995C17.5648 12.7817 17.5256 12.1499 17.5648 11.5331C17.5879 11.1717 17.8679 10.8359 18.2022 10.7048C18.4958 10.5902 18.7918 10.6327 19.0546 10.7608C17.796 9.82919 16.3835 9.81181 16.0532 9.82171Z" fill="#F1634C"/>
</g>
<defs>
<clipPath id="clip0_4587_8094">
<rect width="58.5079" height="14.1747" fill="white" transform="translate(11.4292 5.80774)"/>
</clipPath>
</defs>
</svg>
