<svg width="76" height="26" viewBox="0 0 76 26" fill="none" xmlns="http://www.w3.org/2000/svg">
<g clip-path="url(#clip0_53_18)">
<path d="M72.6048 0H2.85734C1.27927 0 0 1.27927 0 2.85734V22.5721C0 24.1501 1.27927 25.4294 2.85734 25.4294H72.6048C74.1828 25.4294 75.4621 24.1501 75.4621 22.5721V2.85734C75.4621 1.27927 74.1828 0 72.6048 0Z" fill="#ECEEFF"/>
<path d="M18.2235 19.5528C22.1138 19.5528 25.2675 16.3991 25.2675 12.5088C25.2675 8.61844 22.1138 5.46472 18.2235 5.46472C14.3332 5.46472 11.1794 8.61844 11.1794 12.5088C11.1794 16.3991 14.3332 19.5528 18.2235 19.5528Z" fill="white" stroke="#E1E3F7" stroke-width="0.5"/>
<mask id="mask0_53_18" style="mask-type:luminance" maskUnits="userSpaceOnUse" x="30" y="5" width="35" height="15">
<path d="M64.0327 5.71472H30.5374V19.7147H64.0327V5.71472Z" fill="white"/>
</mask>
<g mask="url(#mask0_53_18)">
<path d="M32.8913 11.1763C32.8913 10.8135 33.1891 10.6739 33.6822 10.6739C34.3893 10.6739 35.2825 10.8879 35.9896 11.2694V9.08286C35.2174 8.77582 34.4544 8.65487 33.6822 8.65487C31.7934 8.65487 30.5374 9.64112 30.5374 11.288C30.5374 13.8559 34.073 13.4466 34.073 14.5538C34.073 14.9818 33.7008 15.1213 33.1798 15.1213C32.4075 15.1213 31.4213 14.805 30.6397 14.377V16.5914C31.505 16.9636 32.3796 17.1217 33.1798 17.1217C35.115 17.1217 36.4456 16.1634 36.4456 14.4979C36.4363 11.7253 32.8913 12.2184 32.8913 11.1763ZM39.181 6.79402L36.9108 7.27784L36.9015 14.7305C36.9015 16.1076 37.9342 17.1217 39.3113 17.1217C40.0742 17.1217 40.6325 16.9822 40.9395 16.8147V14.9259C40.6418 15.0469 39.1717 15.4749 39.1717 14.0979V10.7948H40.9395V8.81304H39.1717L39.181 6.79402ZM43.8331 9.50155L43.6843 8.81304H41.6746V16.9543H44.0006V11.4368C44.5496 10.7204 45.48 10.8507 45.7684 10.953V8.81304C45.4707 8.70139 44.3821 8.49669 43.8331 9.50155ZM46.336 8.81304H48.6714V16.9543H46.336V8.81304ZM46.336 8.10592L48.6714 7.60349V5.71472L46.336 6.20785V8.10592ZM53.5282 8.65487C52.6164 8.65487 52.0302 9.08286 51.7045 9.3806L51.5836 8.80374H49.5366V19.6525L51.8627 19.1594L51.872 16.5263C52.207 16.7682 52.7001 17.1124 53.5189 17.1124C55.1843 17.1124 56.7009 15.7726 56.7009 12.8232C56.6916 10.1249 55.1564 8.65487 53.5282 8.65487ZM52.9699 15.0655C52.421 15.0655 52.0953 14.8701 51.872 14.6282L51.8627 11.1763C52.1046 10.9065 52.4396 10.7204 52.9699 10.7204C53.8166 10.7204 54.4028 11.6694 54.4028 12.8883C54.4028 14.1351 53.8259 15.0655 52.9699 15.0655ZM64.0327 12.9162C64.0327 10.5343 62.879 8.65487 60.6738 8.65487C58.4594 8.65487 57.1196 10.5343 57.1196 12.8976C57.1196 15.6982 58.7013 17.1124 60.9716 17.1124C62.0788 17.1124 62.9162 16.8612 63.5489 16.5077V14.6468C62.9162 14.9632 62.1904 15.1585 61.2693 15.1585C60.3668 15.1585 59.5666 14.8422 59.4643 13.7443H64.0141C64.0141 13.6233 64.0327 13.1395 64.0327 12.9162ZM59.4364 12.0323C59.4364 10.9809 60.0784 10.5436 60.6645 10.5436C61.2321 10.5436 61.8369 10.9809 61.8369 12.0323H59.4364Z" fill="#6772E5"/>
</g>
<path d="M19.5378 12.8866C19.5336 13.922 19.0893 14.9909 18.1713 15.4771C17.5258 15.8208 16 16.0849 16 14.9657C16 14.9657 16 10.8033 16 10.7991C16 10.1788 16.524 9.97337 17.0479 10.0027C17.8276 10.0446 18.5737 10.4093 19.0264 11.08C19.3157 11.5075 19.4749 12.0231 19.5252 12.5429C19.5294 12.6603 19.5378 12.7734 19.5378 12.8866Z" fill="url(#paint0_linear_53_18)"/>
<path d="M20.9838 12.522C20.8958 11.6669 20.3718 10.9501 19.6467 10.5183C19.1646 10.2291 18.561 10.1578 18.2466 10.7363C18.2466 10.7405 16.1298 14.6304 16.1298 14.6304C15.9454 14.9699 15.9873 15.2508 16.155 15.4813C16.4065 15.8251 16.9053 15.9801 17.3119 16.0221C17.6891 16.064 18.0706 16.0221 18.4353 15.9382C19.5377 15.6867 20.5144 14.9364 20.8455 13.8466C20.9754 13.419 21.0299 12.9705 20.9838 12.522Z" fill="url(#paint1_linear_53_18)"/>
<path d="M18.1713 15.4814C19.0893 14.9909 19.5336 13.922 19.5378 12.8909C19.5378 12.7777 19.5336 12.6645 19.521 12.5513C19.4749 12.0316 19.3114 11.516 19.0222 11.0884C18.8629 10.8495 18.6659 10.6525 18.4437 10.489C18.3725 10.5519 18.3054 10.6357 18.2509 10.7405C18.2509 10.7447 16.1341 14.6346 16.1341 14.6346C15.9958 14.8861 15.9874 15.1083 16.0587 15.3011C16.0587 15.3053 16.0628 15.3095 16.0628 15.3137C16.067 15.3221 16.0712 15.3347 16.0754 15.343C16.0796 15.3514 16.0796 15.3556 16.0838 15.364C16.0838 15.3682 16.088 15.3724 16.088 15.3724C16.4191 16.0095 17.618 15.7748 18.1713 15.4814Z" fill="url(#paint2_linear_53_18)"/>
</g>
<defs>
<linearGradient id="paint0_linear_53_18" x1="17.7681" y1="10.3232" x2="17.7681" y2="12.3548" gradientUnits="userSpaceOnUse">
<stop stop-color="#5711CF"/>
<stop offset="1" stop-color="#800BD1"/>
</linearGradient>
<linearGradient id="paint1_linear_53_18" x1="20.2242" y1="10.9288" x2="17.7311" y2="15.7592" gradientUnits="userSpaceOnUse">
<stop stop-color="#FE9879"/>
<stop offset="1" stop-color="#FE7598"/>
</linearGradient>
<linearGradient id="paint2_linear_53_18" x1="19.2133" y1="10.811" x2="17.2812" y2="15.4232" gradientUnits="userSpaceOnUse">
<stop offset="0.0141305" stop-color="#D8476F"/>
<stop offset="0.9955" stop-color="#E93083"/>
</linearGradient>
<clipPath id="clip0_53_18">
<rect width="76" height="26" fill="white"/>
</clipPath>
</defs>
</svg>
