<svg width="76" height="26" viewBox="0 0 76 26" fill="none" xmlns="http://www.w3.org/2000/svg">
<rect width="75.4621" height="25.4294" rx="2.85734" fill="#ECEEFF"/>
<circle cx="18.2235" cy="12.5088" r="7.04403" fill="white" stroke="#E1E3F7" stroke-width="0.5"/>
<path d="M15.6628 9.07886C15.6628 9.07886 19.4756 8.79803 19.4756 12.0892C19.4756 15.3803 18.4679 16.0345 17.585 16.2492C17.585 16.2492 21.2594 17.1339 21.2594 12.5053C21.2594 7.87676 16.5726 8.54387 15.6628 9.07886Z" fill="#F1634C"/>
<path d="M18.7642 14.6757C18.7642 14.6757 18.3959 15.9536 17.2833 16.1152C16.1707 16.2768 15.9634 15.6737 15.19 15.715C15.19 15.715 15.1268 15.1151 15.7529 15.0305C16.379 14.9458 17.5528 15.1113 18.3328 14.6175C18.3328 14.6175 18.7945 14.3751 18.8846 14.2583L18.7642 14.6757Z" fill="#F1634C"/>
<path d="M15.6052 9.30877V10.8933V14.836C15.6442 14.8263 15.6836 14.8186 15.7234 14.8132C15.9117 14.7877 16.1414 14.7835 16.3847 14.7788C16.6142 14.7746 16.8655 14.7697 17.1168 14.7465V12.8866C17.1168 12.2688 17.0776 11.637 17.1168 11.0202C17.1399 10.6588 17.4199 10.323 17.7543 10.1919C18.0478 10.0773 18.3438 10.1197 18.6066 10.2478C17.348 9.31625 15.9355 9.29887 15.6052 9.30877Z" fill="#F1634C"/>
<g clip-path="url(#clip0_4587_8120)">
<path d="M32.8913 11.1763C32.8913 10.8135 33.1891 10.6739 33.6822 10.6739C34.3893 10.6739 35.2825 10.8879 35.9896 11.2694V9.08286C35.2174 8.77582 34.4544 8.65487 33.6822 8.65487C31.7934 8.65487 30.5374 9.64112 30.5374 11.288C30.5374 13.8559 34.073 13.4466 34.073 14.5538C34.073 14.9818 33.7008 15.1213 33.1798 15.1213C32.4075 15.1213 31.4213 14.805 30.6397 14.377V16.5914C31.505 16.9636 32.3796 17.1217 33.1798 17.1217C35.115 17.1217 36.4456 16.1634 36.4456 14.4979C36.4363 11.7253 32.8913 12.2184 32.8913 11.1763ZM39.181 6.79402L36.9108 7.27784L36.9015 14.7305C36.9015 16.1076 37.9342 17.1217 39.3113 17.1217C40.0742 17.1217 40.6325 16.9822 40.9395 16.8147V14.9259C40.6418 15.0469 39.1717 15.4749 39.1717 14.0979V10.7948H40.9395V8.81304H39.1717L39.181 6.79402ZM43.8331 9.50155L43.6843 8.81304H41.6746V16.9543H44.0006V11.4368C44.5496 10.7204 45.48 10.8507 45.7684 10.953V8.81304C45.4707 8.70139 44.3821 8.49669 43.8331 9.50155ZM46.336 8.81304H48.6714V16.9543H46.336V8.81304ZM46.336 8.10592L48.6714 7.60349V5.71472L46.336 6.20785V8.10592ZM53.5282 8.65487C52.6164 8.65487 52.0302 9.08286 51.7045 9.3806L51.5836 8.80374H49.5366V19.6525L51.8627 19.1594L51.872 16.5263C52.207 16.7682 52.7001 17.1124 53.5189 17.1124C55.1843 17.1124 56.7009 15.7726 56.7009 12.8232C56.6916 10.1249 55.1564 8.65487 53.5282 8.65487ZM52.9699 15.0655C52.421 15.0655 52.0953 14.8701 51.872 14.6282L51.8627 11.1763C52.1046 10.9065 52.4396 10.7204 52.9699 10.7204C53.8166 10.7204 54.4028 11.6694 54.4028 12.8883C54.4028 14.1351 53.8259 15.0655 52.9699 15.0655ZM64.0327 12.9162C64.0327 10.5343 62.879 8.65487 60.6738 8.65487C58.4594 8.65487 57.1196 10.5343 57.1196 12.8976C57.1196 15.6982 58.7013 17.1124 60.9716 17.1124C62.0788 17.1124 62.9162 16.8612 63.5489 16.5077V14.6468C62.9162 14.9632 62.1904 15.1585 61.2693 15.1585C60.3668 15.1585 59.5666 14.8422 59.4643 13.7443H64.0141C64.0141 13.6233 64.0327 13.1395 64.0327 12.9162ZM59.4364 12.0323C59.4364 10.9809 60.0784 10.5436 60.6645 10.5436C61.2321 10.5436 61.8369 10.9809 61.8369 12.0323H59.4364Z" fill="#6772E5"/>
</g>
<defs>
<clipPath id="clip0_4587_8120">
<rect width="33.4953" height="14" fill="white" transform="translate(30.5374 5.71472)"/>
</clipPath>
</defs>
</svg>
