<svg width="99" height="26" viewBox="0 0 99 26" fill="none" xmlns="http://www.w3.org/2000/svg">
<rect x="0.676758" width="97.7003" height="25.5994" rx="2.85734" fill="#FFF0EB"/>
<path d="M33.2614 8.73335L34.858 15.0824H34.9079L36.5045 8.73335H38.7872V17.415H37.0533V14.9078L37.1905 11.5274L35.4567 17.4274H34.3091L32.6127 11.5773L32.7499 14.9078V17.415H31.0161V8.73335H33.2614ZM44.313 15.5439H41.943L41.444 17.415H39.6603L42.1675 8.73335H44.0011L46.5083 17.415H44.7246L44.313 15.5439ZM42.3047 14.2217H43.9512L43.128 11.1657H43.0781L42.3047 14.2217ZM52.9572 17.415H51.3107L48.7037 11.8393L48.6538 11.8892V17.415H47.0073V8.73335H48.6538L51.2608 14.2591H51.3107V8.73335H52.9572V17.415ZM60.4413 16.0429C60.2168 16.4046 59.8426 16.7289 59.3935 17.0033C58.932 17.2778 58.3458 17.415 57.6098 17.415C56.6992 17.415 55.9134 17.1405 55.377 16.5917C54.8282 16.0429 54.5538 15.2695 54.5538 14.2591V11.7021C54.5538 10.6917 54.8282 9.96823 55.377 9.41939C55.9259 8.87055 56.6618 8.59614 57.5225 8.59614C58.483 8.59614 59.2189 8.82066 59.668 9.28218C60.1669 9.74371 60.4039 10.4298 60.4039 11.2904V11.3403H58.8073C58.8073 10.8414 58.6701 10.5171 58.483 10.2925C58.2959 10.068 57.984 9.96823 57.5225 9.96823C57.1109 9.96823 56.7866 10.1054 56.562 10.4298C56.3375 10.7042 56.2003 11.1657 56.2003 11.752V14.3964C56.2003 14.9951 56.3375 15.4441 56.562 15.7186C56.7866 15.993 57.1608 16.1801 57.6098 16.1801C57.9341 16.1801 58.2086 16.1302 58.3458 16.0429C58.5329 15.9556 58.6202 15.8183 58.7574 15.6312V13.9847H57.6098V12.7997H60.4413V16.0429ZM67.5762 14.2217C67.5762 15.2321 67.3018 16.0055 66.753 16.5917C66.2041 17.1405 65.4682 17.4649 64.5576 17.4649C63.647 17.4649 62.9111 17.1904 62.3623 16.5917C61.8134 16.0429 61.539 15.2196 61.539 14.2217V11.8019C61.539 10.7915 61.8134 10.0181 62.3623 9.43187C62.9111 8.83313 63.647 8.55872 64.5576 8.55872C65.4682 8.55872 66.2041 8.83313 66.753 9.43187C67.3018 10.0306 67.5762 10.804 67.5762 11.8019C67.5762 11.7894 67.5762 14.2217 67.5762 14.2217ZM65.8798 11.7894C65.8798 11.1532 65.7426 10.6917 65.5181 10.3674C65.2936 10.0431 64.9692 9.90586 64.5077 9.90586C64.0462 9.90586 63.7344 10.0431 63.4974 10.3674C63.2728 10.6917 63.173 11.1407 63.173 11.7894V14.2093C63.173 14.8454 63.2604 15.3069 63.4974 15.6312C63.7219 15.9556 64.0462 16.0928 64.5077 16.0928C64.9692 16.0928 65.2811 15.9556 65.5181 15.6312C65.7426 15.3069 65.8798 14.8579 65.8798 14.2093C65.8798 14.2217 65.8798 11.7894 65.8798 11.7894ZM70.3578 14.2217V17.3277H68.6614V8.69593H71.68C72.5532 8.69593 73.2392 8.97034 73.7382 9.46929C74.2371 9.96823 74.4741 10.6543 74.4741 11.4775C74.4741 12.3008 74.1997 12.9868 73.7008 13.4858C73.2018 13.9847 72.5158 14.2591 71.6426 14.2591H70.3578V14.2217ZM70.3578 12.8496H71.68C72.0418 12.8496 72.3162 12.7124 72.5033 12.438C72.6904 12.1636 72.7777 11.8393 72.7777 11.4276C72.7777 11.016 72.6904 10.6917 72.5033 10.4173C72.3162 10.1429 72.0418 10.0057 71.68 10.0057H70.3578C70.3578 10.0181 70.3578 12.8496 70.3578 12.8496ZM78.6777 15.4441H76.3951L75.9335 17.2778H74.2371L76.7069 8.64603H78.4906L80.9105 17.2778H79.2266L78.6777 15.4441ZM76.7069 14.1219H78.3035L77.5301 11.0659H77.4803L76.7069 14.1219ZM83.6547 12.3881L85.1141 8.68345H86.9477L84.4779 14.2591V17.3152H82.7815V14.1219L80.3617 8.68345H82.1953L83.6547 12.3881Z" fill="#D85527"/>
<path d="M16.7214 12.7997L14.3015 10.3299L16.7214 7.91003V12.7997Z" fill="#EDC05C"/>
<path d="M16.7214 17.6394L14.3015 15.2196L16.7214 12.7997V17.6394Z" fill="#A9BE68"/>
<path d="M19.1912 15.2196L16.7214 12.7997L19.1912 10.33V15.2196Z" fill="#E7804C"/>
<path d="M19.1912 10.33L21.611 12.7997L19.1912 15.2196V10.33Z" fill="#D43D29"/>
<path d="M21.6111 12.7997L24.031 10.3299L21.6111 7.91003V12.7997Z" fill="#CD302F"/>
<path d="M21.6111 17.6394L24.031 15.2196L21.6111 12.7997V17.6394Z" fill="#D43D29"/>
<path d="M26.2762 12.7998C26.2762 12.6625 26.2263 12.5253 26.139 12.438L24.0808 10.3799V15.2196L26.139 13.2114C26.1764 13.0742 26.2762 12.937 26.2762 12.7998Z" fill="#C22B2B"/>
<path d="M12.2933 12.3382C12.1561 12.4255 12.1062 12.6126 12.1062 12.7498C12.1062 12.887 12.1561 13.0243 12.2434 13.1116L14.3016 15.1697V10.33L12.2933 12.3382Z" fill="#C7CD2C"/>
<path d="M18.7796 19.6976C18.8669 19.7849 19.0041 19.8847 19.1912 19.8847V15.2196L16.7214 17.6894L18.7796 19.6976Z" fill="#ED9B32"/>
<path d="M19.1912 19.8847C19.3284 19.8847 19.4656 19.8348 19.6028 19.7475L21.6609 17.6894L19.1912 15.2196V19.8847Z" fill="#E26550"/>
<path d="M19.1912 5.71472C19.054 5.71472 18.9168 5.76462 18.7796 5.85193L16.7214 7.86018L19.1912 10.33V5.71472Z" fill="#E7804C"/>
<path d="M19.6028 5.90183C19.4656 5.76462 19.3284 5.71472 19.1912 5.71472V10.33L21.6609 7.86018L19.6028 5.90183Z" fill="#ED9B32"/>
</svg>
