<svg width="11" height="13" viewBox="0 0 11 13" fill="none" xmlns="http://www.w3.org/2000/svg">
<path d="M3.58044 2.61599H7.84746L8.76836 1.87927C9.08189 1.62908 9.199 1.22293 9.06645 0.843919C8.93391 0.464912 8.5895 0.220581 8.1892 0.220581H3.2387C2.8384 0.220581 2.49399 0.465445 2.36145 0.843919C2.2289 1.22239 2.34601 1.62908 2.65901 1.87873L3.58044 2.61599Z" fill="#A661A6"/>
<path fill-rule="evenodd" clip-rule="evenodd" d="M3.50723 3.41443H7.9201C9.37384 4.84156 10.5045 7.34556 10.5045 9.40294C10.5045 11.619 9.38289 12.9961 7.57676 12.9961H3.98365C1.8693 12.9961 0.922852 11.191 0.922852 9.40294C0.922852 7.34556 2.05348 4.84156 3.50723 3.41443ZM7.04496 8.93476C7.04496 8.31249 6.53873 7.80626 5.91646 7.80626H5.5119C5.32985 7.80626 5.18187 7.65828 5.18187 7.4709C5.18187 7.28885 5.32985 7.14087 5.5119 7.14087H6.64573C6.86611 7.14087 7.04496 6.96201 7.04496 6.74164C7.04496 6.52126 6.86611 6.3424 6.64573 6.3424H6.11342V5.94317C6.11342 5.72279 5.93456 5.54393 5.71418 5.54393C5.49381 5.54393 5.31495 5.72279 5.31495 5.94317V6.36263C4.78689 6.45632 4.3834 6.91677 4.3834 7.47623C4.3834 8.0985 4.88963 8.60473 5.5119 8.60473H5.91646C6.09851 8.60473 6.2465 8.75271 6.2465 8.94009C6.2465 9.12214 6.09851 9.27012 5.91646 9.27012H4.78264C4.56226 9.27012 4.3834 9.44898 4.3834 9.66936C4.3834 9.88973 4.56226 10.0686 4.78264 10.0686H5.31495V10.4673C5.31495 10.6877 5.49381 10.8665 5.71418 10.8665C5.93456 10.8665 6.11342 10.6877 6.11342 10.4673V10.0484C6.64147 9.95467 7.04496 9.49422 7.04496 8.93476Z" fill="#A661A6"/>
</svg>
