<svg width="82" height="26" viewBox="0 0 82 26" fill="none" xmlns="http://www.w3.org/2000/svg">
<rect width="81.3666" height="25.6041" rx="2.85734" fill="#EAF9FF"/>
<g clip-path="url(#clip0_4587_8083)">
<path fill-rule="evenodd" clip-rule="evenodd" d="M16.5346 9.05127H20.5326C22.6792 9.05127 23.4873 10.138 23.3624 11.7345C23.156 14.3703 21.5626 15.8285 19.449 15.8285H18.3819C18.0919 15.8285 17.8969 16.0205 17.8184 16.5406L17.3654 19.5644C17.3355 19.7605 17.2323 19.874 17.0775 19.8895H14.5655C14.3292 19.8895 14.2456 19.7089 14.3075 19.3177L15.839 9.62404C15.8989 9.236 16.1115 9.05127 16.5346 9.05127Z" fill="#009EE3"/>
<path fill-rule="evenodd" clip-rule="evenodd" d="M33.8916 8.8717C35.2404 8.8717 36.485 9.6034 36.3147 11.427C36.1083 13.5942 34.9473 14.7934 33.1155 14.7986H31.5148C31.2847 14.7986 31.1732 14.9864 31.1134 15.3713L30.8038 17.3394C30.7573 17.6366 30.6046 17.7831 30.3796 17.7831H28.8904C28.6531 17.7831 28.5705 17.6314 28.6231 17.2919L29.8523 9.40422C29.9132 9.01619 30.0587 8.8717 30.3239 8.8717H33.8885H33.8916ZM31.4663 13.0947H32.6789C33.4375 13.0658 33.9411 12.5405 33.9917 11.5931C34.0226 11.008 33.6274 10.589 32.9989 10.5921L31.8575 10.5972L31.4663 13.0947ZM40.3633 17.1794C40.4995 17.0556 40.6378 16.9916 40.6182 17.1443L40.5697 17.5097C40.5449 17.7006 40.6203 17.8017 40.7978 17.8017H42.1208C42.3437 17.8017 42.4521 17.7119 42.5068 17.3672L43.3221 12.2505C43.3634 11.9935 43.3004 11.8676 43.1054 11.8676H41.6502C41.5192 11.8676 41.4552 11.9409 41.4211 12.1411L41.3675 12.4559C41.3396 12.62 41.2643 12.6489 41.1941 12.4837C40.9474 11.8996 40.3179 11.6375 39.4397 11.6581C37.3994 11.7005 36.0237 13.2495 35.8761 15.2351C35.7626 16.7707 36.8627 17.9772 38.3137 17.9772C39.3664 17.9772 39.837 17.6675 40.3674 17.1825L40.3633 17.1794ZM39.2549 16.392C38.3767 16.392 37.7647 15.6912 37.8916 14.8326C38.0186 13.974 38.8401 13.2732 39.7183 13.2732C40.5965 13.2732 41.2085 13.974 41.0816 14.8326C40.9547 15.6912 40.1342 16.392 39.2549 16.392ZM45.9114 11.8511H44.5698C44.2932 11.8511 44.1807 12.0575 44.2685 12.3114L45.9341 17.1887L44.3004 19.5097C44.1632 19.7037 44.2695 19.8802 44.4625 19.8802H45.9702C46.0581 19.8903 46.1471 19.875 46.2265 19.8361C46.3059 19.7971 46.3724 19.7361 46.4181 19.6604L51.541 12.3124C51.6989 12.0864 51.6246 11.8491 51.3656 11.8491H49.9383C49.6937 11.8491 49.5957 11.9461 49.4553 12.1494L47.3191 15.2454L46.3645 12.1422C46.3087 11.9543 46.1694 11.8511 45.9124 11.8511H45.9114Z" fill="#113984"/>
<path fill-rule="evenodd" clip-rule="evenodd" d="M56.8708 8.87169C58.2196 8.87169 59.4642 9.60339 59.2939 11.427C59.0875 13.5942 57.9265 14.7934 56.0947 14.7985H54.4951C54.2649 14.7985 54.1535 14.9864 54.0936 15.3713L53.784 17.3394C53.7376 17.6366 53.5848 17.7831 53.3598 17.7831H51.8706C51.6333 17.7831 51.5507 17.6314 51.6034 17.2919L52.8346 9.40215C52.8954 9.01411 53.041 8.86963 53.3062 8.86963H56.8708V8.87169ZM54.4455 13.0947H55.6581C56.4167 13.0658 56.9203 12.5405 56.9709 11.5931C57.0018 11.008 56.6066 10.589 55.9781 10.5921L54.8367 10.5972L54.4455 13.0947ZM63.3425 17.1794C63.4787 17.0556 63.617 16.9916 63.5974 17.1443L63.5489 17.5096C63.5241 17.7006 63.5995 17.8017 63.777 17.8017H65.1C65.3229 17.8017 65.4313 17.7119 65.486 17.3672L66.3013 12.2505C66.3426 11.9935 66.2796 11.8676 66.0846 11.8676H64.6315C64.5004 11.8676 64.4364 11.9409 64.4024 12.1411L64.3487 12.4559C64.3209 12.62 64.2455 12.6489 64.1753 12.4837C63.9287 11.8996 63.2992 11.6375 62.4209 11.6581C60.3806 11.7004 59.005 13.2495 58.8574 15.2351C58.7439 16.7707 59.844 17.9771 61.295 17.9771C62.3476 17.9771 62.8182 17.6675 63.3487 17.1825L63.3425 17.1794ZM62.2352 16.392C61.3569 16.392 60.7449 15.6912 60.8719 14.8326C60.9988 13.974 61.8203 13.2732 62.6985 13.2732C63.5768 13.2732 64.1888 13.974 64.0618 14.8326C63.9349 15.6912 63.1134 16.392 62.2352 16.392ZM68.3374 17.81H66.8101C66.7835 17.8111 66.757 17.8065 66.7325 17.7962C66.7079 17.786 66.6859 17.7704 66.6681 17.7507C66.6502 17.731 66.637 17.7076 66.6292 17.6821C66.6215 17.6567 66.6194 17.6299 66.6233 17.6036L67.9649 9.1039C67.9777 9.04589 68.0098 8.99392 68.0559 8.95645C68.1019 8.91897 68.1594 8.89819 68.2188 8.8975H69.7461C69.7727 8.89631 69.7992 8.901 69.8238 8.91124C69.8483 8.92148 69.8703 8.93701 69.8881 8.95673C69.906 8.97645 69.9192 8.99986 69.927 9.0253C69.9347 9.05074 69.9368 9.07758 69.9329 9.1039L68.5913 17.6036C68.5789 17.6619 68.547 17.7144 68.5009 17.7523C68.4548 17.7901 68.3971 17.8112 68.3374 17.812V17.81Z" fill="#009EE3"/>
<path fill-rule="evenodd" clip-rule="evenodd" d="M14.0338 5.71472H18.036C19.1629 5.71472 20.5004 5.75084 21.3941 6.54033C21.9917 7.06769 22.3054 7.90672 22.2332 8.81076C21.9875 11.8666 20.1599 13.5787 17.7078 13.5787H15.7346C15.3981 13.5787 15.1763 13.8016 15.0813 14.4043L14.5302 17.9131C14.4941 18.1402 14.3961 18.2743 14.2206 18.2908H11.751C11.4775 18.2908 11.3805 18.0844 11.4517 17.6283L13.2268 6.3814C13.298 5.92938 13.5467 5.71472 14.0338 5.71472Z" fill="#113984"/>
<path fill-rule="evenodd" clip-rule="evenodd" d="M15.1392 14.0482L15.8378 9.62397C15.8987 9.23594 16.1113 9.05017 16.5344 9.05017H20.5325C21.194 9.05017 21.7296 9.15337 22.1486 9.3443C21.7471 12.0647 19.9876 13.5755 17.6841 13.5755H15.714C15.4498 13.5766 15.2558 13.7087 15.1392 14.0482Z" fill="#172C70"/>
</g>
<defs>
<clipPath id="clip0_4587_8083">
<rect width="58.5079" height="14.1747" fill="white" transform="translate(11.4292 5.71472)"/>
</clipPath>
</defs>
</svg>
