<svg width="91" height="27" viewBox="0 0 91 27" fill="none" xmlns="http://www.w3.org/2000/svg">
<rect x="0.191406" y="0.893677" width="90.0587" height="25.4294" rx="2.85734" fill="#E9F3FF"/>
<g clip-path="url(#clip0_4587_8133)">
<path d="M15.9419 10.3003L15.3833 12.3207L18.5806 10.2888L16.4895 17.9558L18.6132 17.9576L21.7024 6.63306" fill="#3395FF"/>
<path d="M12.5004 14.7344L11.6208 17.9576H15.9737L17.7548 11.4006L12.5004 14.7344ZM27.6205 11.8966C27.5141 12.2852 27.3091 12.5707 27.0034 12.7529C26.6984 12.9349 26.2703 13.0262 25.7178 13.0262H23.9622L24.5786 10.7677H26.3342C26.886 10.7677 27.2652 10.8583 27.4709 11.043C27.6766 11.2278 27.7262 11.5101 27.6205 11.9004M29.4382 11.8516C29.6616 11.0361 29.5694 10.4087 29.1609 9.96957C28.753 9.53391 28.0373 9.31433 27.0158 9.31433H23.0978L20.7393 17.9614H22.6428L23.5933 14.4761H24.8417C25.1219 14.4761 25.3425 14.5214 25.5035 14.6085C25.6649 14.6991 25.7596 14.856 25.7887 15.0825L26.1285 17.9614H28.1678L27.8372 15.2777C27.7699 14.6782 27.4907 14.3262 27.0002 14.2217C27.6255 14.0439 28.1494 13.7477 28.5714 13.3364C28.9905 12.9281 29.2899 12.4164 29.4382 11.8551M34.0652 14.8664C33.9056 15.452 33.6609 15.8946 33.33 16.2048C32.9987 16.515 32.6029 16.6684 32.1411 16.6684C31.6708 16.6684 31.352 16.5185 31.1835 16.2153C31.0147 15.912 31.009 15.4729 31.1658 14.8978C31.3225 14.3227 31.5726 13.8731 31.9166 13.549C32.2606 13.2249 32.6628 13.0628 33.1246 13.0628C33.5857 13.0628 33.9013 13.2196 34.0609 13.5309C34.2241 13.8435 34.2276 14.2907 34.068 14.8727L34.0652 14.8664ZM34.8994 11.8063L34.661 12.6811C34.5582 12.3675 34.3585 12.1165 34.0634 11.9283C33.7676 11.7436 33.4016 11.6495 32.965 11.6495C32.4295 11.6495 31.9152 11.7854 31.4222 12.0573C30.9292 12.3291 30.4965 12.7125 30.1277 13.2074C29.7588 13.7023 29.4893 14.2635 29.3155 14.8943C29.1453 15.5287 29.1098 16.0828 29.2126 16.5638C29.319 17.0483 29.5425 17.4177 29.8865 17.6756C30.2341 17.937 30.6774 18.066 31.2201 18.066C31.6512 18.0681 32.0776 17.9765 32.4685 17.7976C32.855 17.6263 33.1987 17.3741 33.4757 17.0587L33.2275 17.9705H35.0682L36.7489 11.8095H34.9047L34.8994 11.8063ZM43.3635 11.8063H38.0105L37.6363 13.1795H40.751L36.6333 16.6753L36.2815 17.9649H41.8072L42.1814 16.5917H38.844L43.0248 13.0436M48.0752 14.856C47.9096 15.4624 47.6638 15.9183 47.3393 16.2153C47.0148 16.515 46.6218 16.6649 46.1604 16.6649C45.1957 16.6649 44.8786 16.0619 45.2077 14.856C45.3709 14.2565 45.6177 13.8059 45.9476 13.5023C46.2774 13.1977 46.6771 13.0457 47.147 13.0457C47.6081 13.0457 47.9195 13.1966 48.0798 13.5005C48.2401 13.8038 48.2387 14.2558 48.0752 14.8553M49.1527 12.0381C48.7289 11.7788 48.188 11.6491 47.5283 11.6491C46.8605 11.6491 46.2423 11.7781 45.6734 12.036C45.1069 12.2923 44.609 12.6749 44.2193 13.1534C43.8185 13.6379 43.5302 14.206 43.3532 14.8542C43.1794 15.5001 43.1581 16.0671 43.2929 16.5526C43.4277 17.0371 43.7114 17.41 44.137 17.6679C44.5661 17.9279 45.1123 18.0573 45.7826 18.0573C46.4423 18.0573 47.0559 17.9269 47.6198 17.6676C48.1837 17.4069 48.6661 17.0368 49.0668 16.5488C49.4676 16.063 49.7549 15.4962 49.9322 14.848C50.1096 14.1997 50.1308 13.6337 49.9961 13.1471C49.8613 12.6627 49.5811 12.2897 49.1591 12.0301M55.7239 13.4521L56.1956 11.7757C56.036 11.6955 55.8268 11.6537 55.5643 11.6537C55.1423 11.6537 54.738 11.7561 54.3478 11.9639C54.0123 12.1402 53.7272 12.3891 53.486 12.7007L53.7307 11.798L53.1962 11.8001H51.884L50.1922 17.9586H52.0588L52.9366 14.7392C53.0643 14.2712 53.2941 13.9028 53.6257 13.6414C53.9556 13.3789 54.367 13.2475 54.8635 13.2475C55.1685 13.2475 55.4523 13.3162 55.7218 13.4531M60.9177 14.8856C60.7581 15.4607 60.5169 15.8998 60.187 16.2031C59.8572 16.5077 59.46 16.6596 58.9989 16.6596C58.5378 16.6596 58.2222 16.5063 58.0555 16.1996C57.8853 15.8911 57.8817 15.4468 58.0413 14.8626C58.2009 14.2788 58.4456 13.831 58.7826 13.5208C59.1195 13.2081 59.5167 13.052 59.9778 13.052C60.4318 13.052 60.7368 13.2123 60.8999 13.5364C61.0631 13.8606 61.0666 14.3102 60.9099 14.8853M62.215 12.0482C61.8692 11.7764 61.4277 11.6404 60.8921 11.6404C60.4229 11.6404 59.9757 11.745 59.5515 11.9562C59.1277 12.1671 58.7836 12.4546 58.5194 12.8185L58.5258 12.7766L58.839 11.7973H57.016L56.5514 13.5016L56.5372 13.5608L54.622 20.5817H56.4911L57.4558 17.0476C57.5515 17.3619 57.7466 17.6087 58.0445 17.7871C58.3424 17.9649 58.7102 18.0531 59.1475 18.0531C59.6902 18.0531 60.208 17.9241 60.6992 17.6662C61.1922 17.4076 61.6178 17.0354 61.9795 16.5544C62.3413 16.0734 62.6098 15.5158 62.7811 14.8849C62.9549 14.253 62.9903 13.6895 62.891 13.1963C62.7899 12.7024 62.5661 12.3201 62.2207 12.0496M68.4149 14.8605C68.2553 15.4426 68.0106 15.8887 67.6808 16.1954C67.3509 16.5042 66.9537 16.6579 66.4927 16.6579C66.0209 16.6579 65.7017 16.508 65.5351 16.2048C65.3648 15.9016 65.3613 15.4624 65.5173 14.8874C65.6734 14.3123 65.9224 13.8627 66.2664 13.5385C66.6104 13.2144 67.013 13.0527 67.4747 13.0527C67.9358 13.0527 68.2479 13.2095 68.411 13.5197C68.5742 13.831 68.5753 14.2781 68.4164 14.8616L68.4149 14.8605ZM69.2484 11.7987L69.0097 12.6735C68.9069 12.3581 68.7083 12.1071 68.4139 11.9207C68.116 11.7345 67.7507 11.6418 67.3144 11.6418C66.7789 11.6418 66.2618 11.7778 65.7681 12.0496C65.2751 12.3215 64.8424 12.7028 64.4735 13.1963C64.1047 13.6898 63.8351 14.2523 63.6614 14.8832C63.4893 15.5165 63.4556 16.0717 63.5585 16.5547C63.6624 17.0357 63.8862 17.4072 64.2324 17.6665C64.5778 17.9245 65.0233 18.0548 65.5659 18.0548C66.0022 18.0548 66.4189 17.9656 66.8143 17.7864C67.1999 17.6143 67.5428 17.3619 67.8191 17.0465L67.5708 17.959H69.4116L71.092 11.8004H69.2512L69.2484 11.7987ZM78.8198 11.8008L78.8208 11.799H77.6895C77.6533 11.799 77.6214 11.8008 77.5884 11.8015H77.0014L76.6999 12.2127L76.6255 12.3103L76.5935 12.3591L74.2084 15.6242L73.7154 11.8008H71.7619L72.7514 17.6108L70.5667 20.5838H72.5138L73.0423 19.8473C73.0572 19.8257 73.0706 19.8076 73.0884 19.7846L73.7055 18.9237L73.7232 18.8993L76.4871 15.048L78.8173 11.8067L78.8208 11.8046H78.8198V11.8008Z" fill="#072654"/>
</g>
<defs>
<clipPath id="clip0_4587_8133">
<rect width="67.2" height="14" fill="white" transform="translate(11.6208 6.6084)"/>
</clipPath>
</defs>
</svg>
