<svg width="58" height="27" viewBox="0 0 58 27" fill="none" xmlns="http://www.w3.org/2000/svg">
<rect x="0.191406" y="0.608398" width="57" height="26" rx="2.85734" fill="#FFEAF3"/>
<path d="M35.0955 10.09C35.8367 10.09 36.4368 9.48983 36.4368 8.7498C36.4368 8.00977 35.8363 7.40845 35.0955 7.40845C34.3547 7.40845 33.7553 8.00938 33.7553 8.7498C33.7553 8.92583 33.7899 9.10014 33.8572 9.26278C33.9245 9.42543 34.0233 9.57321 34.1477 9.6977C34.2722 9.82219 34.4199 9.92094 34.5825 9.98832C34.7452 10.0557 34.9195 10.09 35.0955 10.09ZM24.8218 10.8128C24.7613 10.9691 24.3256 12.196 23.2718 13.4709V8.01798L20.4645 8.5728V18.4581H23.2722V15.4026C24.0857 16.6217 24.4874 18.4581 24.4874 18.4581H27.8503C27.5182 17.0749 26.0628 14.5255 26.0628 14.5255C26.9275 13.4101 27.594 12.1544 28.0332 10.8132L24.8218 10.8128ZM32.2026 10.7097C29.6883 10.7905 28.4114 11.9186 28.4114 14.1613V18.4577H31.1551V14.9545C31.1551 13.612 31.3309 13.0399 32.9242 12.9813V10.7503C32.6562 10.6933 32.2026 10.7112 32.2026 10.7112M15.7563 11.9029C15.4124 11.8807 14.6161 11.8287 14.6161 11.1121C14.6161 10.2474 15.7621 10.2474 16.1923 10.2474C16.9484 10.2474 17.9271 10.4702 18.6265 10.68C18.8647 10.7791 19.1055 10.8718 19.3486 10.9582L19.3798 10.9668V8.59742L19.3376 8.58491C18.5124 8.29578 17.5532 8.01837 15.7742 8.01837C12.7071 8.01837 11.6208 9.80475 11.6208 11.3356C11.6208 12.2179 11.9991 14.2946 15.5113 14.5341C15.809 14.5524 16.5991 14.5978 16.5991 15.339C16.5991 15.9504 15.952 16.3111 14.8642 16.3111C13.6725 16.3111 12.5148 16.0071 11.8127 15.7187V18.158C12.8645 18.4335 14.05 18.5714 15.4398 18.5714C18.4386 18.5714 19.7815 16.8811 19.7815 15.2057C19.7815 13.306 18.2788 12.0721 15.757 11.9029M33.7366 18.4593H36.4576V10.8222H33.7358L33.7366 18.4593ZM41.5815 8.5056V18.4593H44.3033V8.01915L41.5815 8.5056ZM37.6106 8.5056L40.3292 8.01915V18.4593H37.6106V8.50482V8.5056Z" fill="#862565"/>
</svg>
