<svg width="57" height="26" viewBox="0 0 57 26" fill="none" xmlns="http://www.w3.org/2000/svg">
<rect width="56.354" height="25.4294" rx="2.85734" fill="#ECEEFF"/>
<g clip-path="url(#clip0_4587_8137)">
<path d="M13.7834 11.1763C13.7834 10.8135 14.0812 10.6739 14.5743 10.6739C15.2814 10.6739 16.1746 10.8879 16.8817 11.2694V9.08286C16.1095 8.77582 15.3465 8.65487 14.5743 8.65487C12.6855 8.65487 11.4294 9.64112 11.4294 11.288C11.4294 13.8559 14.9651 13.4466 14.9651 14.5538C14.9651 14.9818 14.5929 15.1213 14.0719 15.1213C13.2996 15.1213 12.3133 14.805 11.5318 14.377V16.5914C12.3971 16.9636 13.2717 17.1217 14.0719 17.1217C16.0071 17.1217 17.3376 16.1634 17.3376 14.4979C17.3283 11.7253 13.7834 12.2184 13.7834 11.1763ZM20.0731 6.79402L17.8029 7.27784L17.7936 14.7305C17.7936 16.1076 18.8263 17.1217 20.2034 17.1217C20.9663 17.1217 21.5246 16.9822 21.8316 16.8147V14.9259C21.5339 15.0469 20.0638 15.4749 20.0638 14.0979V10.7948H21.8316V8.81304H20.0638L20.0731 6.79402ZM24.7252 9.50155L24.5764 8.81304H22.5666V16.9543H24.8927V11.4368C25.4417 10.7204 26.3721 10.8507 26.6605 10.953V8.81304C26.3628 8.70139 25.2742 8.49669 24.7252 9.50155ZM27.2281 8.81304H29.5634V16.9543H27.2281V8.81304ZM27.2281 8.10592L29.5634 7.60349V5.71472L27.2281 6.20785V8.10592ZM34.4203 8.65487C33.5084 8.65487 32.9223 9.08286 32.5966 9.3806L32.4757 8.80374H30.4287V19.6525L32.7548 19.1594L32.7641 16.5263C33.0991 16.7682 33.5922 17.1124 34.411 17.1124C36.0764 17.1124 37.593 15.7726 37.593 12.8232C37.5837 10.1249 36.0485 8.65487 34.4203 8.65487ZM33.862 15.0655C33.3131 15.0655 32.9874 14.8701 32.7641 14.6282L32.7548 11.1763C32.9967 10.9065 33.3317 10.7204 33.862 10.7204C34.7087 10.7204 35.2949 11.6694 35.2949 12.8883C35.2949 14.1351 34.718 15.0655 33.862 15.0655ZM44.9248 12.9162C44.9248 10.5343 43.771 8.65487 41.5659 8.65487C39.3515 8.65487 38.0117 10.5343 38.0117 12.8976C38.0117 15.6982 39.5934 17.1124 41.8637 17.1124C42.9709 17.1124 43.8083 16.8612 44.4409 16.5077V14.6468C43.8083 14.9632 43.0825 15.1585 42.1614 15.1585C41.2589 15.1585 40.4587 14.8422 40.3564 13.7443H44.9062C44.9062 13.6233 44.9248 13.1395 44.9248 12.9162ZM40.3285 12.0323C40.3285 10.9809 40.9705 10.5436 41.5566 10.5436C42.1242 10.5436 42.729 10.9809 42.729 12.0323H40.3285Z" fill="#6772E5"/>
</g>
<defs>
<clipPath id="clip0_4587_8137">
<rect width="33.4953" height="14" fill="white" transform="translate(11.4294 5.71472)"/>
</clipPath>
</defs>
</svg>
