<svg width="46" height="46" viewBox="0 0 46 46" fill="none" xmlns="http://www.w3.org/2000/svg">
<circle opacity="0.237002" cx="23.0149" cy="23.415" r="22" fill="white" stroke="#A8A8A8"/>
<path d="M27.3786 24.1426H29.5604V28.5062H27.3786V24.1426Z" fill="#5E5E5E"/>
<path d="M23.7422 24.1426H25.924V28.5062H23.7422V24.1426Z" fill="#5E5E5E"/>
<path d="M20.1058 24.1426H22.2876V28.5062H20.1058V24.1426Z" fill="#5E5E5E"/>
<path d="M16.4695 24.1426H18.6513V28.5062H16.4695V24.1426Z" fill="#5E5E5E"/>
<path d="M29.5604 22.3241V21.9604H16.4695V22.3241C16.4695 22.5249 16.6689 22.6877 16.9149 22.6877H29.1149C29.3609 22.6877 29.5604 22.5249 29.5604 22.3241Z" fill="#5E5E5E"/>
<path d="M30.5462 29.2334H15.4837C15.2248 29.2334 15.0149 29.4427 15.0149 29.7009V30.9477C15.0149 31.2059 15.2248 31.4152 15.4837 31.4152H30.5462C30.8051 31.4152 31.0149 31.2059 31.0149 30.9477V29.7009C31.0149 29.4427 30.8051 29.2334 30.5462 29.2334Z" fill="#5E5E5E"/>
<path d="M15.4836 21.2332H30.5462C30.7559 21.2332 30.9401 21.0878 30.9972 20.8772C31.0542 20.6665 30.9705 20.4418 30.7919 20.3272L23.2606 15.4877C23.11 15.3908 22.9199 15.3908 22.7692 15.4877L15.2379 20.3272C15.0593 20.442 14.9756 20.6665 15.0327 20.8772C15.0898 21.0878 15.274 21.2332 15.4836 21.2332V21.2332ZM22.6963 18.2933H23.3336C23.5925 18.2933 23.8024 18.5124 23.8024 18.7826C23.8024 19.0529 23.5925 19.272 23.3336 19.272H22.6963C22.4374 19.272 22.2275 19.0529 22.2275 18.7826C22.2275 18.5124 22.4374 18.2933 22.6963 18.2933V18.2933Z" fill="#5E5E5E"/>
</svg>
