<svg width="46" height="46" viewBox="0 0 46 46" fill="none" xmlns="http://www.w3.org/2000/svg">
<circle opacity="0.237002" cx="22.5233" cy="22.6875" r="22" fill="white" stroke="#A8A8A8"/>
<path d="M22.633 19.9579C21.9586 19.9139 20.3979 19.8131 20.3979 18.4075C20.3979 16.7119 22.6446 16.7119 23.4884 16.7119C24.9703 16.7119 26.8899 17.1493 28.2606 17.5598C28.2606 17.5598 29.0255 17.8294 29.6766 18.1055L29.737 18.1217V13.4742L29.654 13.4497C28.035 12.8872 26.1542 12.3428 22.6666 12.3428C16.6537 12.3428 14.5233 15.8455 14.5233 18.8465C14.5233 20.576 15.2645 24.648 22.1513 25.1181C22.7348 25.1504 24.284 25.2432 24.284 26.695C24.284 27.8912 23.0158 28.6011 20.8825 28.6011C18.5452 28.6011 16.2757 28.0053 14.8986 27.4399V32.2228C16.9614 32.7623 19.2855 33.0326 22.0104 33.0326C27.8895 33.0326 30.5233 29.7183 30.5233 26.4335C30.5233 22.7093 27.5766 20.2889 22.633 19.9576" fill="#862565"/>
</svg>
