<svg width="46" height="46" viewBox="0 0 46 46" fill="none" xmlns="http://www.w3.org/2000/svg">
<circle opacity="0.237002" cx="22.7664" cy="23.2476" r="22" fill="white" stroke="#A8A8A8"/>
<path fill-rule="evenodd" clip-rule="evenodd" d="M21.6323 20.0124C21.6323 19.3267 22.195 19.0629 23.1268 19.0629C24.4631 19.0629 26.151 19.4673 27.4873 20.1882V16.0563C26.0279 15.4761 24.5862 15.2476 23.1268 15.2476C19.5576 15.2476 17.184 17.1113 17.184 20.2234C17.184 25.0761 23.8653 24.3025 23.8653 26.3948C23.8653 27.2036 23.162 27.4673 22.1774 27.4673C20.7181 27.4673 18.8543 26.8695 17.3774 26.0607V30.2454C19.0126 30.9487 20.6653 31.2476 22.1774 31.2476C25.8345 31.2476 28.3488 29.4366 28.3488 26.2893C28.3312 21.0498 21.6323 21.9816 21.6323 20.0124Z" fill="#635BFF"/>
</svg>
