<svg xmlns="http://www.w3.org/2000/svg" width="44" height="44" fill="none"><rect width="44" height="44" rx="3" fill="#011b33"/><path d="M30.171 11.001H12.123a1.14 1.14 0 0 0-1.122 1.135v2.036a1.13 1.13 0 0 0 1.123 1.137H30.17c.627 0 1.122-.517 1.137-1.136v-2.022c0-.634-.51-1.151-1.136-1.151v.001zm0 11.33H12.123c-.148 0-.294.03-.43.087s-.26.141-.363.246a1.14 1.14 0 0 0-.329.803v2.036a1.13 1.13 0 0 0 1.123 1.136H30.17c.627 0 1.123-.502 1.137-1.136v-2.036a1.13 1.13 0 0 0-1.136-1.136zm-7.887 5.652H12.123c-.298 0-.584.119-.794.332a1.14 1.14 0 0 0-.329.803v2.036a1.13 1.13 0 0 0 1.123 1.136H22.27a1.13 1.13 0 0 0 1.122-1.135v-2.036c.004-.148-.022-.295-.076-.433a1.11 1.11 0 0 0-.601-.617c-.136-.058-.283-.086-.431-.086zm9.023-11.318H12.123c-.298 0-.584.12-.794.332a1.14 1.14 0 0 0-.329.804v2.036a1.13 1.13 0 0 0 1.123 1.136h19.17a1.13 1.13 0 0 0 1.122-1.136v-2.036c.002-.148-.024-.294-.079-.431a1.12 1.12 0 0 0-.6-.616 1.12 1.12 0 0 0-.429-.09z" fill="#00c3f7"/></svg>
