<svg width="46" height="13" viewBox="0 0 46 13" fill="none" xmlns="http://www.w3.org/2000/svg">
<path d="M44.7632 4.72064C44.5298 4.49265 44.2544 4.31203 43.9431 4.1847C43.6319 4.05343 43.2961 3.9873 42.9449 3.9873C42.6193 3.9873 42.3009 4.04455 41.9999 4.15904C41.7019 4.26959 41.4316 4.43047 41.1951 4.63774L41.1173 4.70584L40.5747 4.10081H40.3535V9.05653C40.3535 9.40889 40.6515 9.69611 41.017 9.69611C41.3825 9.69611 41.6804 9.40889 41.6804 9.05653V6.48441C41.6804 6.31958 41.7132 6.16265 41.7787 6.01756C41.8432 5.8705 41.9333 5.73923 42.047 5.62967C42.1606 5.52011 42.2958 5.43326 42.4504 5.37009C42.605 5.30791 42.7708 5.27534 42.9449 5.27534C43.1148 5.27534 43.2776 5.30692 43.4292 5.37009C43.5786 5.43227 43.7128 5.52011 43.8254 5.62868C43.939 5.73824 44.0291 5.86853 44.0947 6.01756C44.1592 6.16265 44.1929 6.31958 44.1929 6.48343V9.05653C44.1929 9.40889 44.4909 9.69611 44.8564 9.69611C45.2219 9.69611 45.5199 9.40889 45.5199 9.05653V6.48441C45.5199 6.14291 45.4513 5.8172 45.3151 5.51814C45.181 5.21217 44.9956 4.94469 44.7632 4.72064Z" fill="white"/>
<path d="M37.5943 4.41879C37.4386 4.31022 37.2718 4.21547 37.0987 4.13454C36.9257 4.05459 36.7455 3.99142 36.5622 3.94602C36.381 3.90161 36.1947 3.87891 36.0093 3.87891C35.6019 3.87891 35.2138 3.95293 34.8534 4.09802C34.4971 4.24015 34.1797 4.44446 33.9094 4.70404C33.6432 4.96362 33.4303 5.28044 33.2757 5.64563C33.12 6.00688 33.0422 6.41155 33.0422 6.84681C33.0422 7.31465 33.1211 7.73709 33.2757 8.10227C33.4303 8.46648 33.6432 8.77936 33.9094 9.03203C34.1777 9.28075 34.4951 9.4742 34.8504 9.60547C35.2107 9.73773 35.6008 9.80485 36.0093 9.80485C36.1936 9.80485 36.3779 9.78215 36.5561 9.73773C36.7394 9.69233 36.9206 9.63114 37.0946 9.55415C37.2677 9.4742 37.4335 9.38044 37.5891 9.27582C37.7499 9.16725 37.9024 9.04979 38.0448 8.92642L38.1297 8.85338L38.7604 9.69628H38.9765V4.11184H38.7563L38.1226 4.84419L38.0437 4.77214C37.9045 4.6458 37.754 4.52638 37.5943 4.41879ZM37.5062 7.47454C37.4233 7.67194 37.3076 7.85059 37.1622 8.00654C37.0158 8.15952 36.8407 8.28487 36.6441 8.38061C36.4465 8.47339 36.2336 8.52076 36.0093 8.52076C35.7882 8.52076 35.5763 8.48424 35.3776 8.41121C35.1811 8.33817 35.007 8.22861 34.8585 8.0855C34.7142 7.94238 34.5985 7.76571 34.5156 7.55943C34.4326 7.35018 34.3906 7.11133 34.3906 6.8478C34.3906 6.58427 34.4326 6.3464 34.5156 6.14111C34.5985 5.93186 34.7132 5.75322 34.8575 5.6101C35.006 5.46699 35.1811 5.35743 35.3766 5.28439C35.5752 5.21135 35.7872 5.17484 36.0083 5.17484C36.2336 5.17484 36.4476 5.22419 36.6441 5.32091C36.8407 5.41172 37.0148 5.53805 37.1622 5.694C37.3076 5.84501 37.4233 6.02464 37.5072 6.22698C37.5932 6.42438 37.6383 6.63362 37.6383 6.8478C37.6373 7.06198 37.5932 7.2732 37.5062 7.47454Z" fill="white"/>
<path d="M30.7888 6.4161L31.9345 5.02838C32.0757 4.85763 32.1024 4.62865 32.0041 4.43125C31.9058 4.23385 31.7031 4.11146 31.4758 4.11146C31.2956 4.11146 31.1277 4.18943 31.0161 4.32662L28.7564 7.08825V3.54393C28.7564 3.18862 28.4564 2.89844 28.0868 2.89844C27.7172 2.89844 27.4172 3.18763 27.4172 3.54393V9.1945C27.4172 9.47185 27.6507 9.69689 27.9384 9.69689C28.096 9.69689 28.2445 9.62878 28.3438 9.51034L28.7779 8.99217L29.9369 7.51068L31.013 9.37019C31.1297 9.57154 31.3509 9.69689 31.5904 9.69689C31.829 9.69689 32.042 9.57845 32.1618 9.38006C32.2815 9.18167 32.2826 8.94381 32.1648 8.74443L30.7888 6.4161Z" fill="white"/>
<path d="M25.4371 4.69417C25.1709 4.43459 24.8545 4.23225 24.4952 4.09407C24.1378 3.95194 23.7488 3.87891 23.3382 3.87891C22.9317 3.87891 22.5427 3.95491 22.1833 4.10394C21.827 4.25298 21.5096 4.46222 21.2393 4.72674C20.9731 4.98731 20.7591 5.30216 20.6045 5.6634C20.4499 6.02464 20.3711 6.42339 20.3711 6.8478C20.3711 7.2653 20.4499 7.6601 20.6045 8.02134C20.7591 8.37962 20.9731 8.69447 21.2403 8.95899C21.5096 9.21857 21.828 9.4288 22.1854 9.5808C22.5437 9.72984 22.9328 9.80485 23.3392 9.80485C23.7498 9.80485 24.1378 9.72885 24.4941 9.57981C24.8545 9.42683 25.1719 9.21758 25.4381 8.95702C25.7043 8.69349 25.9183 8.37863 26.0729 8.02035C26.2275 7.65911 26.3063 7.26431 26.3063 6.84681C26.3063 6.40069 26.2275 5.99108 26.0729 5.62984C25.9163 5.26564 25.7033 4.95079 25.4371 4.69417ZM24.8361 7.52883C24.7532 7.73412 24.6364 7.91277 24.489 8.05885C24.3416 8.20492 24.1655 8.31941 23.9669 8.40035C23.7723 8.48128 23.5604 8.52175 23.3382 8.52175C23.115 8.52175 22.901 8.47931 22.7024 8.39443C22.5068 8.3056 22.3338 8.18518 22.1864 8.03615C22.043 7.88612 21.9284 7.70846 21.8454 7.50711C21.7625 7.30577 21.7205 7.08369 21.7205 6.84879C21.7205 6.59908 21.7625 6.37009 21.8454 6.16874C21.9284 5.96345 22.043 5.7848 22.1864 5.63971C22.3338 5.48969 22.5089 5.37421 22.7044 5.29722C23.1007 5.13634 23.5768 5.13634 23.9679 5.29821C24.1655 5.37421 24.3416 5.48969 24.49 5.63971C24.6364 5.7848 24.7532 5.96345 24.8371 6.16973C24.9231 6.37009 24.9672 6.59908 24.9672 6.84977C24.9672 7.09356 24.9231 7.32255 24.8361 7.52883Z" fill="white"/>
<path d="M18.655 2.89844C18.2864 2.89844 17.9854 3.18763 17.9854 3.54393V4.72044L17.7991 4.45888C17.7243 4.35426 17.6312 4.26444 17.5226 4.19239C17.411 4.11837 17.2892 4.05816 17.1592 4.01473C17.0291 3.96637 16.895 3.93183 16.7568 3.9111C16.6206 3.89037 16.4855 3.87951 16.3575 3.87951C15.951 3.87951 15.562 3.95551 15.2026 4.10455C14.8463 4.25359 14.5289 4.46283 14.2586 4.72735C13.9924 4.99088 13.7784 5.3077 13.6238 5.66894C13.4692 6.0292 13.3904 6.42597 13.3904 6.84742C13.3904 7.27183 13.4692 7.67058 13.6238 8.03182C13.7794 8.3901 13.9924 8.70495 14.2596 8.96947C14.5289 9.22905 14.8473 9.43731 15.2036 9.58634C15.563 9.73143 15.951 9.80546 16.3585 9.80546C16.5438 9.80546 16.7271 9.78276 16.9053 9.73834C17.0895 9.69294 17.2708 9.63175 17.4438 9.55476C17.6168 9.47481 17.7837 9.38105 17.9383 9.27643C18.098 9.16786 18.2516 9.0504 18.3939 8.92703L18.4789 8.85399L19.1096 9.69689H19.3256V3.54393C19.3246 3.18763 19.0246 2.89844 18.655 2.89844ZM17.8554 7.47515C17.7725 7.67255 17.6568 7.8512 17.5114 8.00714C17.365 8.16013 17.1899 8.28548 16.9933 8.38122C16.7957 8.474 16.5827 8.52137 16.3585 8.52137C16.1353 8.52137 15.9203 8.47597 15.7207 8.38813C15.5261 8.30028 15.3531 8.1779 15.2057 8.02491C15.0623 7.87193 14.9487 7.69229 14.8657 7.49094C14.7828 7.28861 14.7408 7.07246 14.7408 6.84841C14.7408 6.59179 14.7828 6.35787 14.8657 6.15257C14.9487 5.94629 15.0644 5.76962 15.2077 5.62749C15.3551 5.48141 15.5292 5.36791 15.7248 5.29092C15.9234 5.21394 16.1363 5.17544 16.3585 5.17544C16.5838 5.17544 16.7977 5.22479 16.9943 5.32152C17.1909 5.41232 17.365 5.53767 17.5124 5.69461C17.6578 5.8466 17.7745 6.02624 17.8574 6.22759C17.9445 6.42499 17.9885 6.63423 17.9885 6.84841C17.9864 7.0616 17.9424 7.27282 17.8554 7.47515Z" fill="white"/>
<path opacity="0.5" d="M7.23584 6.06859C7.22739 8.15242 6.33199 10.3037 4.48207 11.2824C3.18121 11.9742 0.106445 12.5057 0.106445 10.2531C0.106445 10.2531 0.106445 1.87562 0.106445 1.86719C0.106445 0.618575 1.16234 0.205184 2.21823 0.26424C3.7894 0.348606 5.293 1.08259 6.20529 2.43244C6.78814 3.29297 7.10913 4.33066 7.2105 5.37679C7.21895 5.61302 7.23584 5.8408 7.23584 6.06859Z" fill="white"/>
<path d="M10.1502 5.33429C9.97279 3.61323 8.9169 2.17058 7.45554 1.30161C5.62742 0.206116 4.10228 2.72176 3.0832 4.59356C1.87607 6.81076 0.399664 9.52046 0.36887 9.57698C0.367251 9.57995 0.367541 9.57942 0.36593 9.58239C-0.00292155 10.2637 0.0819214 10.8275 0.419063 11.2905C0.925892 11.9823 1.9311 12.2944 2.75047 12.3788C3.51072 12.4632 4.27941 12.3788 5.01431 12.2101C7.23591 11.7039 9.2041 10.1937 9.87142 8.00024C10.1333 7.13971 10.2431 6.237 10.1502 5.33429Z" fill="white"/>
</svg>
