<svg xmlns="http://www.w3.org/2000/svg" xmlns:v="https://vecta.io/nano" width="31" height="10" fill="#fff"><path fill-rule="evenodd" d="M11.679 9.103c1.664 0 2.447-.662 2.447-1.765V5.463c0-1.102-.784-1.764-2.447-1.764s-2.447.661-2.447 1.764v1.875c0 1.103.783 1.765 2.447 1.765zm-.006-4.452c.937 0 1.13.352 1.13.963v1.574c0 .613-.193.963-1.13.963s-1.13-.352-1.13-.963V5.613c0-.611.193-.963 1.13-.963z"/><path d="M17.84 6.076c1.517.532 1.567 1.744 2.188 2.847a5.4 5.4 0 0 1-.753.13c-1.405 0-.61-2.086-2.707-2.426v2.426s-1.323 0-1.323-.652V1.323s1.323 0 1.323.652v3.65c.6-.091.937-.532 1.395-1.384.193-.362.576-.491.977-.491a2.48 2.48 0 0 1 .72.121c-.557.752-.902 1.845-1.819 2.205z"/><path fill-rule="evenodd" d="M22.614 4.672c.783 0 .987.32.987.682-.157.3-.645.416-1.192.546-.898.213-1.953.464-1.952 1.63 0 1.192 1.028 1.574 2.075 1.574.299 0 .58-.048.851-.094.254-.044.5-.086.747-.086a1.72 1.72 0 0 1 .783.16v-3.67c0-1.093-.795-1.714-2.29-1.714-.835 0-2.025.262-2.025 1.134 0 .271.092.581.387.973 0-.844.773-1.134 1.628-1.134zm.201 2.09c.369-.082.717-.16.816-.385v1.636a2.57 2.57 0 0 1-.947.18c-.58 0-.915-.231-.915-.682 0-.516.542-.637 1.046-.749z"/><path d="M29.342 5.504c0-.532-.255-.832-.977-.832a3.62 3.62 0 0 0-.967.142v4.241s-1.323 0-1.323-.652V3.7a2.15 2.15 0 0 0 .915.21c.498 0 .967-.21 1.517-.21 1.048 0 2.159.35 2.159 1.655v3.699s-1.323-.02-1.323-.652l-.002-2.898zM1.232.891s4.72-.343 4.72 3.673-1.247 4.821-2.341 5.075c0 0 4.55 1.079 4.55-4.567S2.359.238 1.232.891z"/><path d="M5.073 7.721s-.455 1.56-1.832 1.757S1.607 8.939.65 8.99a.75.75 0 0 1 .17-.562.77.77 0 0 1 .526-.274c.776-.104 2.229.098 3.195-.503 0 0 .576-.295.684-.438l-.153.508z"/><path d="M1.161 1.172v1.933 4.81a1.36 1.36 0 0 1 .144-.028 7.71 7.71 0 0 1 .819-.041l.907-.04V5.536 3.259c.052-.455.356-.843.789-1.01.345-.126.729-.101 1.055.068-1.082-.763-2.383-1.164-3.713-1.146z"/></svg>