<svg width="62" height="62" viewBox="0 0 62 62" fill="none" xmlns="http://www.w3.org/2000/svg">
<rect x="0.907227" y="0.79541" width="61" height="61" rx="30.5" fill="#F16982"/>
<path d="M19.6885 25.0139V18.8525C21.1473 18.8222 27.4689 18.8826 33.0958 22.5071C32.5114 22.2413 31.8694 22.0852 31.2112 22.0487C30.5531 22.0123 29.8935 22.0964 29.2751 22.2956C27.7815 22.8091 26.531 24.1078 26.4268 25.4972C26.2531 27.8833 26.4268 30.3599 26.4268 32.746V39.9646C25.3153 40.0552 24.1691 40.0854 23.1619 40.0854C22.0851 40.1156 21.0431 40.1156 20.2095 40.2062L19.6885 40.2969V25.0139Z" fill="white"/>
<path d="M17.8476 43.7701C17.8476 43.7701 17.5696 41.4444 20.3483 41.1122C23.127 40.7799 28.4066 41.4142 31.88 39.5114C31.88 39.5114 33.9294 38.5751 34.3462 38.1221L33.7904 39.753C33.7904 39.753 32.1579 44.7064 27.191 45.3406C22.224 45.9447 21.2862 43.5889 17.8476 43.7701Z" fill="white"/>
<path d="M28.5455 45.824C32.5051 44.9783 36.9859 42.4412 36.9859 29.6652C36.9859 16.8891 19.9663 17.9764 19.9663 17.9764C24.0302 15.8924 44.9747 13.2949 44.9747 31.2961C44.9747 49.2671 28.5455 45.824 28.5455 45.824Z" fill="white"/>
</svg>
