<svg width="77" height="77" viewBox="0 0 77 77" fill="none" xmlns="http://www.w3.org/2000/svg">
    <path d="M50.7001 0.5H26.4C11.9854 0.5 0.300049 12.1854 0.300049 26.6V50.9C0.300049 65.3146 11.9854 77 26.4 77H50.7001C65.1147 77 76.8 65.3146 76.8 50.9V26.6C76.8 12.1854 65.1147 0.5 50.7001 0.5Z" fill="url(#paint0_linear)"/>
    <g filter="url(#filter0_d)">
        <path d="M21.3041 47.406C24.8851 47.406 27.5001 45.44 27.5001 42.66C27.5001 40.54 26.1601 39.134 23.9511 38.815V38.606C25.6541 38.189 26.8631 36.926 26.8741 35.003C26.8841 32.685 24.9291 30.74 21.4141 30.74C17.8431 30.74 15.5911 32.707 15.4811 35.63H18.5461C18.6561 34.212 19.6451 33.388 21.2491 33.388C22.7981 33.388 23.7321 34.288 23.7321 35.475C23.7321 36.772 22.7101 37.662 21.2051 37.662H19.2271V40.09H21.2371C23.0171 40.09 24.1171 40.958 24.1171 42.364C24.1171 43.737 22.9411 44.649 21.2601 44.649C19.5571 44.649 18.4141 43.792 18.3151 42.452H15.1401C15.2831 45.451 17.7221 47.406 21.3041 47.406V47.406ZM36.5531 47.406C40.4751 47.406 42.8481 44.297 42.8481 39.056C42.8481 33.794 40.4421 30.74 36.5531 30.74C32.6531 30.74 30.2581 33.794 30.2581 39.046C30.2581 44.308 32.6311 47.406 36.5531 47.406V47.406ZM36.5531 44.704C34.7401 44.704 33.6191 42.804 33.6191 39.046C33.6191 35.322 34.7511 33.454 36.5531 33.454C38.3651 33.454 39.4861 35.311 39.4861 39.046C39.4861 42.803 38.3761 44.704 36.5531 44.704ZM48.6271 38.574C51.0001 38.574 52.3951 37.145 52.3951 34.695C52.3951 32.3 50.9671 30.839 48.6271 30.839C46.2971 30.839 44.8581 32.311 44.8581 34.695C44.8581 37.135 46.2541 38.573 48.6271 38.573V38.574ZM50.2531 47L60.7891 31.147H58.2501L47.7151 47H50.2531ZM48.6271 36.607C47.8251 36.607 47.3631 35.915 47.3631 34.707C47.3631 33.531 47.8361 32.817 48.6271 32.817C49.4071 32.817 49.8791 33.531 49.8791 34.707C49.8791 35.904 49.4291 36.607 48.6271 36.607ZM59.8771 47.187C62.2501 47.187 63.6451 45.759 63.6451 43.309C63.6451 40.914 62.2171 39.463 59.8771 39.463C57.5471 39.463 56.1081 40.925 56.1081 43.309C56.1081 45.759 57.5151 47.187 59.8771 47.187ZM59.8771 45.22C59.0751 45.22 58.6241 44.528 58.6241 43.32C58.6241 42.144 59.0861 41.43 59.8771 41.43C60.6671 41.43 61.1401 42.144 61.1401 43.32C61.1401 44.517 60.6791 45.22 59.8771 45.22Z" fill="black"/>
    </g>
    <path d="M21.3041 47.406C24.8851 47.406 27.5001 45.44 27.5001 42.66C27.5001 40.54 26.1601 39.134 23.9511 38.815V38.606C25.6541 38.189 26.8631 36.926 26.8741 35.003C26.8841 32.685 24.9291 30.74 21.4141 30.74C17.8431 30.74 15.5911 32.707 15.4811 35.63H18.5461C18.6561 34.212 19.6451 33.388 21.2491 33.388C22.7981 33.388 23.7321 34.288 23.7321 35.475C23.7321 36.772 22.7101 37.662 21.2051 37.662H19.2271V40.09H21.2371C23.0171 40.09 24.1171 40.958 24.1171 42.364C24.1171 43.737 22.9411 44.649 21.2601 44.649C19.5571 44.649 18.4141 43.792 18.3151 42.452H15.1401C15.2831 45.451 17.7221 47.406 21.3041 47.406V47.406ZM36.5531 47.406C40.4751 47.406 42.8481 44.297 42.8481 39.056C42.8481 33.794 40.4421 30.74 36.5531 30.74C32.6531 30.74 30.2581 33.794 30.2581 39.046C30.2581 44.308 32.6311 47.406 36.5531 47.406V47.406ZM36.5531 44.704C34.7401 44.704 33.6191 42.804 33.6191 39.046C33.6191 35.322 34.7511 33.454 36.5531 33.454C38.3651 33.454 39.4861 35.311 39.4861 39.046C39.4861 42.803 38.3761 44.704 36.5531 44.704ZM48.6271 38.574C51.0001 38.574 52.3951 37.145 52.3951 34.695C52.3951 32.3 50.9671 30.839 48.6271 30.839C46.2971 30.839 44.8581 32.311 44.8581 34.695C44.8581 37.135 46.2541 38.573 48.6271 38.573V38.574ZM50.2531 47L60.7891 31.147H58.2501L47.7151 47H50.2531ZM48.6271 36.607C47.8251 36.607 47.3631 35.915 47.3631 34.707C47.3631 33.531 47.8361 32.817 48.6271 32.817C49.4071 32.817 49.8791 33.531 49.8791 34.707C49.8791 35.904 49.4291 36.607 48.6271 36.607ZM59.8771 47.187C62.2501 47.187 63.6451 45.759 63.6451 43.309C63.6451 40.914 62.2171 39.463 59.8771 39.463C57.5471 39.463 56.1081 40.925 56.1081 43.309C56.1081 45.759 57.5151 47.187 59.8771 47.187ZM59.8771 45.22C59.0751 45.22 58.6241 44.528 58.6241 43.32C58.6241 42.144 59.0861 41.43 59.8771 41.43C60.6671 41.43 61.1401 42.144 61.1401 43.32C61.1401 44.517 60.6791 45.22 59.8771 45.22Z" fill="white"/>
    <path d="M34.5131 63.894C36.8671 63.894 38.2951 62.209 38.2951 59.575C38.2951 56.93 36.8551 55.262 34.5131 55.262C32.1831 55.262 30.7311 56.925 30.7311 59.575C30.7311 62.215 32.1481 63.895 34.5131 63.895V63.894ZM34.5131 62.946C32.7991 62.946 31.7881 61.621 31.7881 59.576C31.7881 57.513 32.8341 56.21 34.5131 56.21C36.1981 56.21 37.2381 57.513 37.2381 59.575C37.2381 61.621 36.2041 62.945 34.5131 62.945V62.946ZM41.3461 63.7V58.364H42.7561V57.542H41.3461V56.885C41.3461 56.21 41.6431 55.868 42.3511 55.868C42.5281 55.868 42.6941 55.873 42.8141 55.896V55.096C42.5954 55.0557 42.3734 55.0366 42.1511 55.039C40.9811 55.039 40.3631 55.628 40.3631 56.856V57.542H39.3411V58.364H40.3631V63.7H41.3461V63.7ZM45.5791 63.7V58.364H46.9901V57.542H45.5801V56.885C45.5801 56.21 45.8761 55.868 46.5851 55.868C46.7621 55.868 46.9271 55.873 47.0471 55.896V55.096C46.8287 55.0557 46.607 55.0366 46.3851 55.039C45.2131 55.039 44.5961 55.628 44.5961 56.856V57.542H43.5741V58.364H44.5961V63.7H45.5791V63.7ZM33.5671 20.694C35.6761 20.694 37.0691 19.346 37.0691 17.312V16.307H33.7271V17.209H36.0471V17.409C36.0471 18.803 35.0471 19.746 33.5731 19.746C31.9161 19.746 30.8881 18.455 30.8881 16.376C30.8881 14.324 31.9341 13.01 33.5681 13.01C34.7901 13.01 35.6181 13.599 35.9731 14.713H37.0181C36.7211 13.079 35.3961 12.063 33.5681 12.063C31.3111 12.063 29.8311 13.77 29.8311 16.375C29.8311 19.015 31.2881 20.695 33.5671 20.695V20.694ZM41.2281 20.609C42.5771 20.609 43.5361 19.957 43.8221 18.906H42.8401C42.5821 19.449 42.0451 19.74 41.2511 19.74C40.2061 19.74 39.5261 18.969 39.4751 17.752V17.706H43.9021V17.329C43.9021 15.416 42.8911 14.233 41.2281 14.233C39.5381 14.233 38.4521 15.49 38.4521 17.426C38.4521 19.375 39.5201 20.609 41.2281 20.609V20.609ZM42.8681 16.912H39.4751C39.5491 15.822 40.2351 15.102 41.2171 15.102C42.1941 15.102 42.8451 15.822 42.8681 16.912ZM47.6331 20.546C47.8271 20.546 48.0151 20.523 48.2101 20.489V19.66C48.0583 19.6761 47.9057 19.6837 47.7531 19.683C47.1131 19.683 46.8391 19.375 46.8391 18.649V15.164H48.2091V14.342H46.8391V12.748H45.8561V14.342H44.8621V15.164H45.8561V18.9C45.8561 20.077 46.3641 20.546 47.6331 20.546Z" fill="#3C1B91"/>
    <defs>
        <filter id="filter0_d" x="11.1401" y="30.74" width="56.505" height="26.666" filterUnits="userSpaceOnUse" color-interpolation-filters="sRGB">
            <feFlood flood-opacity="0" result="BackgroundImageFix"/>
            <feColorMatrix in="SourceAlpha" type="matrix" values="0 0 0 0 0 0 0 0 0 0 0 0 0 0 0 0 0 0 127 0"/>
            <feOffset dy="6"/>
            <feGaussianBlur stdDeviation="2"/>
            <feColorMatrix type="matrix" values="0 0 0 0 0.192851 0 0 0 0 0.0922663 0 0 0 0 0.512993 0 0 0 0.278409 0"/>
            <feBlend mode="normal" in2="BackgroundImageFix" result="effect1_dropShadow"/>
            <feBlend mode="normal" in="SourceGraphic" in2="effect1_dropShadow" result="shape"/>
        </filter>
        <linearGradient id="paint0_linear" x1="38.55" y1="0.5" x2="38.55" y2="77" gradientUnits="userSpaceOnUse">
            <stop stop-color="#D0CAFD"/>
            <stop offset="1" stop-color="#7463FF"/>
        </linearGradient>
    </defs>
</svg>
