<svg xmlns="http://www.w3.org/2000/svg" xmlns:xlink="http://www.w3.org/1999/xlink" width="888" height="364" viewBox="0 0 888 364"><defs><linearGradient id="a" x1="1.234" y1="0.519" x2="0.289" y2="0.541" gradientUnits="objectBoundingBox"><stop offset="0" stop-color="#ffebeb"/><stop offset="1" stop-color="#ffabab"/></linearGradient><clipPath id="b"><path d="M10,364A10,10,0,0,1,0,354V10A10,10,0,0,1,10,0H878a10,10,0,0,1,10,10V354a10,10,0,0,1-10,10Z" fill="none"/></clipPath></defs><rect width="888" height="364" rx="10" fill="url(#a)"/><rect width="888" height="364" rx="10" fill="none"/><g clip-path="url(#b)"><g transform="translate(748)"><path d="M11.27,0c-.475,1-.909,2-1.309,2.975C1.646,22.309-4.887,45.213,4.913,65.143c5.642,11.6,15.443,21.119,28.806,23.8a36.255,36.255,0,0,0,18.907-.4c15.245-4.66,17.62-10.609,27.717-16.559,10.691-6.544,23.461-12.2,35.34-8.329,7.127,2.677,8.909,11.9,13.364,18.74,4.455,6.544,12.176,7.436,18.412,5.354,9.206-2.677,12.473-12.2,18.412-19.335A27.8,27.8,0,0,1,173,61.893V0Z" fill="#ffafb0" opacity="0.522"/><circle cx="45" cy="45" r="45" transform="translate(68 302)" fill="#ffafb0" opacity="0.522"/></g></g></svg>