<svg xmlns="http://www.w3.org/2000/svg" xmlns:xlink="http://www.w3.org/1999/xlink" width="179.658" height="119.718" viewBox="0 0 179.658 119.718"><defs><linearGradient id="a" x1="0.5" x2="0.5" y2="1" gradientUnits="objectBoundingBox"><stop offset="0" stop-color="#f482e6"/><stop offset="1" stop-color="#ad6fff"/></linearGradient><filter id="b" x="57.624" y="24.906" width="60.522" height="78.129" filterUnits="userSpaceOnUse"><feOffset dy="6" input="SourceAlpha"/><feGaussianBlur stdDeviation="2.5" result="c"/><feFlood flood-opacity="0.173"/><feComposite operator="in" in2="c"/><feComposite in="SourceGraphic"/></filter></defs><g transform="translate(0 0)"><path d="M27.347,108.7q-1.986-1.677-3.86-3.549A61.416,61.416,0,0,1,8.044,44.225L2.219,38.4A7.58,7.58,0,0,1,11.75,26.708L15.8,30.762a4.9,4.9,0,0,0,6.984-6.872l-.057-.059L17,18.1a4.9,4.9,0,0,1,6.71-6.715l8.654,8.659a4.9,4.9,0,0,0,6.984-6.872l-.057-.058L30.111,3.93a2.22,2.22,0,0,1,3.6-2.459l5.451,5.454a61.4,61.4,0,0,1,88.952,59.1l7.174,7.179a4.9,4.9,0,0,1-5.957,7.684L122.9,74.455a2.22,2.22,0,0,0-3.173,3.105l.034.035,8.653,8.656A7.58,7.58,0,0,1,117.6,96.538l-.088-.067-.166.241a61.815,61.815,0,0,1-7.058,8.441q-1.871,1.872-3.86,3.549ZM8.707,10.057,7.095,8.422a4.982,4.982,0,0,1,0-6.977,4.815,4.815,0,0,1,6.879,0L15.585,3.08a4.984,4.984,0,0,1,0,6.978,4.817,4.817,0,0,1-6.879,0Z" transform="translate(19.44 0)" opacity="0.191" fill="url(#a)"/><g transform="matrix(1, 0, 0, 1, 0, 0)" filter="url(#b)"><path d="M6.478,63.129l0,0A22.644,22.644,0,0,1,0,47.223V22.761A22.767,22.767,0,0,1,43.734,13.9a22.631,22.631,0,0,1,1.788,8.86v.729H39.366v-.4a16.605,16.605,0,0,0-33.21,0V59.859a16.722,16.722,0,0,0,.321,3.267Z" transform="translate(65.12 26.41)" fill="#621b61"/></g><rect width="65.61" height="48.276" rx="7.938" transform="translate(55.404 60.426)" fill="url(#a)"/><path d="M4.536,19.2V11.079a5.589,5.589,0,1,1,2.106,0V19.2a1.053,1.053,0,0,1-2.106,0Z" transform="translate(82.62 79.38)" fill="#fff"/><path d="M63.342,11.016a.81.81,0,1,1,0-1.62H96.228a.81.81,0,0,1,0,1.62Zm-5.022-.81a.81.81,0,1,1,.81.81A.81.81,0,0,1,58.32,10.206ZM44.55,6.318a.81.81,0,0,1,0-1.62H63.018a.81.81,0,1,1,0,1.62Zm-4.7-.81a.81.81,0,1,1,.81.81A.81.81,0,0,1,39.852,5.508Zm-21.546.81a.81.81,0,0,1,0-1.62H36.774a.81.81,0,0,1,0,1.62Zm82.458-4.7a.81.81,0,0,1,0-1.62H104a.81.81,0,0,1,0,1.62ZM.81,1.62A.81.81,0,0,1,.81,0H97.524a.81.81,0,0,1,0,1.62Z" transform="translate(32.076 108.702)" fill="#621b61"/><path d="M0,57.186A4.212,4.212,0,1,1,4.212,61.4,4.212,4.212,0,0,1,0,57.186ZM85.212,43.254a2.754,2.754,0,1,1,2.754,2.754A2.754,2.754,0,0,1,85.212,43.254ZM15.066,25.11a2.754,2.754,0,1,1,2.754,2.754A2.754,2.754,0,0,1,15.066,25.11ZM58,4.212a4.212,4.212,0,1,1,4.212,4.212A4.212,4.212,0,0,1,58,4.212Z" transform="translate(35.802 12.636)" fill="#b772fb" opacity="0.209"/><circle cx="3.24" cy="3.24" r="3.24" transform="translate(0 91.53)" fill="#b772fb" opacity="0.209"/><circle cx="4.212" cy="4.212" r="4.212" transform="translate(163.62 45.36)" fill="#b772fb" opacity="0.209"/><circle cx="2.754" cy="2.754" r="2.754" transform="translate(0 46.98)" fill="#b772fb" opacity="0.209"/><circle cx="2.754" cy="2.754" r="2.754" transform="translate(174.15 92.34)" fill="#b772fb" opacity="0.209"/></g></svg>