<svg xmlns="http://www.w3.org/2000/svg" xmlns:xlink="http://www.w3.org/1999/xlink" width="242.707" height="238.5" viewBox="0 0 242.707 238.5"><defs><linearGradient id="a" x1="0.5" x2="0.5" y2="1.249" gradientUnits="objectBoundingBox"><stop offset="0" stop-color="#e7f6ff"/><stop offset="1" stop-color="#fff" stop-opacity="0"/></linearGradient><linearGradient id="b" x1="0.5" x2="0.5" y2="1" gradientUnits="objectBoundingBox"><stop offset="0" stop-color="#ffa9c1"/><stop offset="1" stop-color="#ff3bc3"/></linearGradient><linearGradient id="c" x1="0.5" x2="0.5" y2="1" gradientUnits="objectBoundingBox"><stop offset="0" stop-color="#ad6fff"/><stop offset="1" stop-color="#7131c5"/></linearGradient><linearGradient id="e" x1="0.5" x2="0.5" y2="1" gradientUnits="objectBoundingBox"><stop offset="0" stop-color="#d7cbff"/><stop offset="1" stop-color="#5f58ff"/></linearGradient><linearGradient id="f" x1="0.5" x2="0.5" y2="1" gradientUnits="objectBoundingBox"><stop offset="0" stop-color="#ad6fff"/><stop offset="1" stop-color="#f482e6"/></linearGradient><linearGradient id="g" x1="0.5" x2="0.5" y2="1" gradientUnits="objectBoundingBox"><stop offset="0" stop-color="#265ff9"/><stop offset="1" stop-color="#4339ff"/></linearGradient></defs><circle cx="119.25" cy="119.25" r="119.25" transform="translate(0 0)" fill="url(#a)"/><g transform="translate(32.4 41.4)"><rect width="43.11" height="43.11" rx="8.1" transform="translate(0 10.8)" fill="#e1deff"/><rect width="43.11" height="43.11" rx="8.1" transform="translate(0 63)" fill="#ffe2e2"/><rect width="43.11" height="43.11" rx="8.1" transform="translate(104.4 10.8)" fill="#e1deff"/><rect width="43.11" height="43.11" rx="8.1" transform="translate(104.22 62.91)" fill="#ffe2e2"/><rect width="43.11" height="43.11" rx="8.1" transform="translate(52.2 10.8)" fill="#e1deff"/><rect width="43.11" height="43.11" rx="8.1" transform="translate(52.2 63)" fill="#ffe2e2"/><rect width="8.1" height="8.1" rx="1.8" transform="translate(17.1 81)" fill="#f3abab"/><rect width="8.1" height="8.1" rx="1.8" transform="translate(69.3 81)" fill="#f3abab"/><rect width="8.1" height="8.1" rx="1.8" transform="translate(121.5 81)" fill="#f3abab"/><rect width="43.11" height="43.11" rx="8.1" transform="translate(0 115.2)" fill="#d6fbee"/><rect width="43.11" height="43.11" rx="8.1" transform="translate(104.22 115.02)" fill="#d6fbee"/><rect width="43.11" height="43.11" rx="8.1" transform="translate(52.11 115.02)" fill="#d6fbee"/><rect width="8.1" height="8.1" rx="1.8" transform="translate(17.1 133.2)" fill="#a8e6d0"/><rect width="8.1" height="8.1" rx="1.8" transform="translate(69.3 133.2)" fill="#a8e6d0"/><rect width="8.1" height="8.1" rx="1.8" transform="translate(121.5 133.2)" fill="#a8e6d0"/><rect width="8.1" height="8.1" rx="1.8" transform="translate(17.1 27.9)" fill="#8a81ff"/><g transform="translate(93.6)"><path d="M0,5.935S.567-.05,1.134,0s.63,1.109.586,1.625,0,2.52,0,2.52Z" transform="translate(52.548 57.827)" fill="#ffbe9d"/><path d="M2.11,0,0,23.852H9.022L13,0Z" transform="translate(56.813 160.6)" fill="#ffbe9d"/><path d="M7.169,0S1.09.787,0,1.575l15.945-.2L16.191,0Z" transform="translate(49.644 184.451)" fill="#ffbe9d"/><path d="M0,.227V.863L16.424.687V0L0,.227Z" transform="translate(49.644 185.8)" fill="#e8505b"/><path d="M1.928,1.529c-.082.038-.346-.454-.876-.832S-.012.193,0,.067.63-.04,1.26.407,2.023,1.51,1.928,1.529Z" transform="translate(53.512 184.863)" fill="#e8505b"/><path d="M4.53,0c0,.094-1.1.309-2.337.9S.057,2.192,0,2.117A6.634,6.634,0,0,1,4.53,0Z" transform="translate(61.507 183.96)" fill="#e8505b"/><path d="M0,9.759,18.465,24.406l4.4-6.432L6.344,0,0,9.759Z" transform="translate(92.578 152.794)" fill="#ffbe9d"/><path d="M2.816,7.4S-.019,12.833,0,14.169L9,.989,8.007,0Z" transform="translate(106.924 170.163)" fill="#ffbe9d"/><path d="M0,13.589l.523.365L9.784.4,9.217,0,0,13.589Z" transform="translate(106.924 170.743)" fill="#e8505b"/><path d="M2.283.191c0,.088-.567,0-1.184.239S.078,1.017.009.954.28.368,1,.128A1.386,1.386,0,0,1,2.283.191Z" transform="translate(108.269 179.592)" fill="#e8505b"/><path d="M1.077,0C1.159.044.706,1.077.447,2.438S.29,4.958.2,4.958A5,5,0,0,1,.139,2.407,5.078,5.078,0,0,1,1.077,0Z" transform="translate(113.583 169.722)" fill="#e8505b"/><path d="M6.131,3.774S-.925,50.633.1,52.914,39.093,88.647,39.093,88.647l5.116-8.228s-26.775-33.3-26.536-34.171S28.572,0,28.572,0Z" transform="translate(68.637 86.827)" fill="#e531ac"/><path d="M0,17.275c.069-.5,5.758-13.293,5.758-13.293L3,.1,2.507,0Z" transform="translate(72.261 90.619)" fill="#e8505b"/><path d="M0,17.275c.069-.5,5.758-13.293,5.758-13.293L3,.1,2.507,0Z" transform="translate(72.261 90.619)" opacity="0.4"/><path d="M44.176,0,44.6,1.745a20.462,20.462,0,0,1-2.155,15.12L23.323,50.016a26.6,26.6,0,0,0-2.929,7.56l-9.922,32.64S.757,89.466.108,88.956s1.777-24.7,3.5-35.437C4.915,45.417,15.757,20.273,21,8.4l-3.251-4,5.67-.945Z" transform="translate(57.014 86.184)" fill="url(#b)"/><path d="M5.525,0a17.924,17.924,0,0,1-.8,2.092c-.523,1.26-1.26,3.056-2.01,5.04s-1.43,3.78-1.89,5.04A16.941,16.941,0,0,1,0,14.257a2.211,2.211,0,0,1,.132-.592c.1-.372.271-.907.485-1.569.422-1.317,1.058-3.15,1.827-5.1S3.963,3.263,4.536,2c.29-.63.529-1.134.706-1.48A2.155,2.155,0,0,1,5.525,0Z" transform="translate(72.085 94.5)" fill="#263238"/><path d="M27.518.006l-14.8,1.26s-4.41.1-9.242,11.34L0,23.757l6.256,1.329v.63l1.26,18.169L3.106,56.87,26.416,58.7c4.593.365,9.935-3.345,9.74-7.951,0,0-3.181-16.865-4.164-20.021,1-2.52,5.216-13.356,5.2-18.585C37.2.964,27.525,0,27.525,0" transform="translate(67.271 46.708)" fill="url(#c)"/><path d="M25.332,25.254l-.309,19.706,8-44.894c-2.659-.472-7.617,1.619-9.45,4.278C22.245,5.926,21.508,9.58,17.8,20.58l-2.287,7.465L6.237,17.921,0,23.553S10.754,41.111,15.24,42.082c6.117,1.329,10.08-16.827,10.08-16.827" transform="translate(49.505 47.284)" fill="url(#c)"/><path d="M4.234,0A5.487,5.487,0,0,1,2.155.548,5.374,5.374,0,0,1,0,.548,11.642,11.642,0,0,1,2.11.22,11.6,11.6,0,0,1,4.234,0Z" transform="translate(93.416 73.42)" fill="#fff"/><path d="M.609,0a13.161,13.161,0,0,1-.2,2.318,12.505,12.505,0,0,1-.29,2.306,6.722,6.722,0,0,1,0-2.344A6.476,6.476,0,0,1,.609,0Z" transform="translate(68.363 76.52)" fill="#fff"/><path d="M2.8,5.33A9.847,9.847,0,0,1,1.121,2.81,10.011,10.011,0,0,1,0,0,26.555,26.555,0,0,1,1.4,2.677,29.081,29.081,0,0,1,2.8,5.33Z" transform="translate(54.344 71.032)" fill="#fff"/><path d="M3.673,0A4.939,4.939,0,0,1,1.947,1.084,4.983,4.983,0,0,1,0,1.676,9.9,9.9,0,0,1,1.814.794,10.206,10.206,0,0,1,3.673,0Z" transform="translate(60.234 76.86)" fill="#fff"/><path d="M72.952,94.35h0a3.012,3.012,0,0,1-2.436-1.221L46.847,60.88A32.211,32.211,0,0,1,33.371,64.3c-.355.011-.715.017-1.07.017-.8,0-1.6-.029-2.389-.086A32.275,32.275,0,0,1,8.694,10.007,32.275,32.275,0,0,1,55.856,54.076,32.495,32.495,0,0,1,51.975,57.6L75.4,89.519a3.036,3.036,0,0,1-2.446,4.831ZM32.273,5.822c-.294,0-.592,0-.886.015A26.221,26.221,0,0,0,30.379,58.2c.633.043,1.274.065,1.905.065.3,0,.6,0,.9-.015h-.025a26.011,26.011,0,0,0,18.27-8.3A26.221,26.221,0,0,0,34.222,5.893C33.576,5.846,32.92,5.822,32.273,5.822Z" transform="translate(0 0.23)" fill="url(#e)"/><path d="M2.778,25.579,0,35.086s14.534,5.286,22.409,5.191c7.377-.095,9.494-.926,12.09-6.886s5.538-12.8,6.13-16.771c0,0,4.164-18.138-11.718-16.519l-.4,14.194s-1.764,5.815-1.89,6.155c-1.184,3.15-2.722,7.73-4.208,8.291S2.778,25.579,2.778,25.579Z" transform="translate(63.321 46.814)" fill="url(#f)"/><path d="M.249,2.016A3.875,3.875,0,0,1,4.76.163,5.519,5.519,0,0,1,8.307,3.786,9.834,9.834,0,0,1,8.4,9c-.271,1.26-.63,2.715.189,3.685s2.224.882,3.15,1.663a2.161,2.161,0,1,1-3.049,3.043,8.385,8.385,0,0,0,.75,2.52,2.251,2.251,0,0,1-.365,2.444,1.833,1.833,0,0,1-1.852.176A5.336,5.336,0,0,1,5.648,21.4a4.278,4.278,0,0,1-.038,2.791A2.8,2.8,0,0,1,3.5,25.924,2.986,2.986,0,0,1,.6,24.261,6.3,6.3,0,0,1,.047,20.8c.132-1.84.63-3.641.838-5.468A9.2,9.2,0,0,0,.2,9.928" transform="translate(96.04 21.326)" fill="url(#g)"/><path d="M4.877,11.8a.333.333,0,0,1-.239,0,.781.781,0,0,1-.554-.4.838.838,0,0,1,.258-1.039,1.1,1.1,0,0,1,1.418.082,1.651,1.651,0,0,1,.428,1.688A1.827,1.827,0,0,1,5.67,13a1.6,1.6,0,0,1-1,.41,2.073,2.073,0,0,1-1.1-.239,2.255,2.255,0,0,1-.832-.8,3.541,3.541,0,0,1-.409-2.344c.233-1.619,1.014-2.974,1-4.334A6.3,6.3,0,0,0,.75.516C.284.176-.012.044,0,.012s.082,0,.22.082a3.937,3.937,0,0,1,.6.321A5.909,5.909,0,0,1,2.571,2.167,6.376,6.376,0,0,1,3.623,5.695c0,1.449-.769,2.841-.976,4.372a3.251,3.251,0,0,0,.359,2.142,1.8,1.8,0,0,0,1.651.926,1.38,1.38,0,0,0,1.26-1.058,1.449,1.449,0,0,0-.321-1.455.9.9,0,0,0-1.159-.107.687.687,0,0,0-.258.844.75.75,0,0,0,.454.4C4.795,11.8,4.877,11.78,4.877,11.8Z" transform="translate(102.091 22.284)" fill="url(#g)"/><path d="M13.825,24.992l.844-19.209L7.034,0,.1,3.4S-.13,12.109.1,15.889s4.038,4.183,4.038,4.183-.088,2.211-.176,4.542a4.939,4.939,0,0,0,4.983,5.122h0A4.939,4.939,0,0,0,13.825,24.992Z" transform="translate(78.571 22.258)" fill="#ffbe9d"/><path d="M0,1.695A9.45,9.45,0,0,0,5.008,0,4.885,4.885,0,0,1,.082,2.621Z" transform="translate(82.7 40.635)" fill="#eb996e"/><path d="M27.225,19.166a2.74,2.74,0,0,1-1.367-.309,3.83,3.83,0,0,1-1.493-1.43,15.4,15.4,0,0,1-1.115-2.394c-.706-1.758-1.26-3.389-1.6-4.574l-.158-.529a4.561,4.561,0,0,0-.1-.51A12.086,12.086,0,0,0,11.034.07C9.566.07,7-.742,3.247,3.151A8.518,8.518,0,0,0,1.824,5.117,8.48,8.48,0,0,0,.154,8.676a4.3,4.3,0,0,0-.088,1.89c.069,0,.082-.712.378-1.8a9.072,9.072,0,0,1,.725-1.89,7.176,7.176,0,0,0,.384,4.353l1.342-.372L7.708,9.218a6.947,6.947,0,0,1,.573-4.2V4.984a7.516,7.516,0,0,0,6.363,6.174l.888,12.379c6.4-1.367,6.256-9.929,6.212-11.668.29.983.668,2.1,1.147,3.289A14.572,14.572,0,0,0,24.056,17.6a3.938,3.938,0,0,0,1.663,1.493,2.52,2.52,0,0,0,1.493.22,1,1,0,0,0,.517-.2,4.233,4.233,0,0,0-.5.05Z" transform="translate(77.002 19.743)" fill="url(#g)"/><path d="M.022,3.063a4.687,4.687,0,0,1,.2-1.89A1.764,1.764,0,0,1,1.585,0a1.487,1.487,0,0,1,1.531,1.26,1.821,1.821,0,0,1-.932,1.814,2.4,2.4,0,0,1-2.1.063" transform="translate(93.614 32.658)" fill="#ffbe9d"/><path d="M.007,1.669c0-.038.2.05.472,0a.85.85,0,0,0,.567-.8.63.63,0,0,0-.139-.5A.548.548,0,0,0,.5.245C.215.245.013.34,0,.3S.127.119.461.025a.743.743,0,0,1,.63.12.869.869,0,0,1,.258.743,1.159,1.159,0,0,1-.277.706.882.882,0,0,1-.561.3C.146,1.9-.024,1.694.007,1.669Z" transform="translate(94.732 33.498)" fill="#eb996e"/><path d="M8.222,8.757a1.417,1.417,0,0,1-.491.3A3.78,3.78,0,0,1,6.2,9.368a4.952,4.952,0,0,1-2.255-.561,6.029,6.029,0,0,1-2.1-1.89A11.025,11.025,0,0,1,.171,2.1C.089,1.474.045.932.02.567A2.06,2.06,0,0,1,.02,0,18.484,18.484,0,0,1,.4,2.066,11.762,11.762,0,0,0,2.136,6.709a5.991,5.991,0,0,0,1.978,1.84,4.845,4.845,0,0,0,2.123.592,5.191,5.191,0,0,0,1.984-.384Z" transform="translate(85.434 24.324)" fill="url(#g)"/><path d="M8.635,13.048H6.411c-2.016-.2-3.15-.233-3.717-.769-.75-.724.283-1.43.283-1.43s-1.462-.5-1.323-1.392a.852.852,0,0,1,.787-.674S1.15,8.279.892,7.737c-.346-.731.567-1.121.567-1.121C-.3,5.532-.141,4.461.262,4.354a5.253,5.253,0,0,1,1.783.523C3.2,5.2,6.367,6.137,5.2,4.43S3.778.9,4.048.372a.63.63,0,0,1,1.2.3,8.02,8.02,0,0,0,.825,1.947A4.958,4.958,0,0,0,7.1,3.951c.5.441.932.794,1.317,1.09L10.4,6.931Z" transform="translate(54.995 67.869)" fill="#ffbe9d"/><path d="M1.49.664c.164-.479.554-.819.983-.592h0a.762.762,0,0,1,.145.737L1.244,5.282h0l1.3-3.15c.158-.479.592-.769.895-.51a.787.787,0,0,1,.1.725L2.359,6.057l.964-2.318c.2-.529.441-.668.712-.554s.277.51.208.718l-.819,2.74c.176.523.781,2.18.2,3.112,0,.05.057.2.057.252l.277.315L2.12,11.96S.438,7.708.123,6.435A3.723,3.723,0,0,1,.23,4.2Z" transform="translate(48.28 58.058)" fill="#ffbe9d"/></g><rect width="8.1" height="8.1" rx="1.8" transform="translate(69.3 27.9)" fill="#8a81ff"/><rect width="8.1" height="8.1" rx="1.8" transform="translate(121.5 27.9)" fill="#8a81ff"/></g></svg>