<svg width="20" height="20" viewBox="0 0 20 20" fill="none" xmlns="http://www.w3.org/2000/svg">
<path d="M8.67091 4.01777C8.84169 3.32602 9.82508 3.32602 9.99586 4.01777V4.01777C10.7248 6.97053 13.0303 9.27598 15.9831 10.0049V10.0049C16.6749 10.1757 16.6749 11.1591 15.9831 11.3299V11.3299C13.0303 12.0588 10.7248 14.3642 9.99586 17.317V17.317C9.82508 18.0087 8.84169 18.0087 8.67091 17.317V17.317C7.94194 14.3642 5.63643 12.0588 2.68366 11.3299V11.3299C1.99189 11.1591 1.99189 10.1757 2.68366 10.0049V10.0049C5.63643 9.27598 7.94194 6.97053 8.67091 4.01777V4.01777Z" fill="url(#paint0_linear_231_101)"/>
<path d="M15.9535 1.08615C16.0226 0.806151 16.4207 0.806151 16.4898 1.08615V1.08615C16.7848 2.28131 17.718 3.21447 18.9132 3.50951V3.50951C19.1932 3.57863 19.1932 3.97668 18.9132 4.0458V4.0458C17.718 4.34084 16.7848 5.274 16.4898 6.46916V6.46916C16.4207 6.74916 16.0226 6.74916 15.9535 6.46916V6.46916C15.6584 5.274 14.7253 4.34084 13.5301 4.0458V4.0458C13.2501 3.97668 13.2501 3.57863 13.5301 3.50951V3.50951C14.7253 3.21447 15.6584 2.28131 15.9535 1.08615V1.08615Z" fill="url(#paint1_linear_231_101)"/>
<defs>
<linearGradient id="paint0_linear_231_101" x1="9.33338" y1="1.33435" x2="9.33338" y2="20.0004" gradientUnits="userSpaceOnUse">
<stop stop-color="#A875FF"/>
<stop offset="1" stop-color="#7D60D6"/>
</linearGradient>
<linearGradient id="paint1_linear_231_101" x1="16.2216" y1="0" x2="16.2216" y2="7.55531" gradientUnits="userSpaceOnUse">
<stop stop-color="#A875FF"/>
<stop offset="1" stop-color="#7D60D6"/>
</linearGradient>
</defs>
</svg>
