<svg width="20" height="18" viewBox="0 0 20 18" fill="none" xmlns="http://www.w3.org/2000/svg">
<g id="Group 1000004978">
<path id="Vector" fill-rule="evenodd" clip-rule="evenodd" d="M4.68528 13.9156C4.40605 13.9156 4.17969 13.7062 4.17969 13.4479V11.5773C4.17969 11.319 4.40605 11.1096 4.68528 11.1096H6.20202C6.48127 11.1096 6.70762 11.319 6.70762 11.5773V13.4479C6.70762 13.7062 6.48127 13.9156 6.20202 13.9156H4.68528Z" fill="white"/>
<path id="Vector_2" fill-rule="evenodd" clip-rule="evenodd" d="M8.47576 13.9154C8.19657 13.9154 7.97021 13.706 7.97021 13.4477V9.00489C7.97021 8.74659 8.19657 8.53722 8.47576 8.53722H9.9925C10.2718 8.53722 10.4981 8.74659 10.4981 9.00489V13.4477C10.4981 13.706 10.2718 13.9154 9.9925 13.9154H8.47576Z" fill="white"/>
<path id="Vector_3" fill-rule="evenodd" clip-rule="evenodd" d="M12.2688 13.9156C11.9895 13.9156 11.7632 13.7062 11.7632 13.4479V6.66676C11.7632 6.4085 11.9895 6.19913 12.2688 6.19913H13.7855C14.0648 6.19913 14.2911 6.4085 14.2911 6.66676V13.4479C14.2911 13.7062 14.0648 13.9156 13.7855 13.9156H12.2688Z" fill="white"/>
<path id="Vector_4" fill-rule="evenodd" clip-rule="evenodd" d="M2.66268 3.23201C2.66268 2.84458 3.00223 2.53051 3.42106 2.53051H13.3896C13.4784 2.53051 13.5607 2.48742 13.6064 2.41698L14.8198 0.546323C14.9209 0.390468 14.7995 0.192184 14.603 0.192184H3.42106C1.60609 0.192184 0.134766 1.55316 0.134766 3.23201V14.456C0.134766 16.1348 1.60609 17.4958 3.42106 17.4958H15.0495C16.8645 17.4958 18.3358 16.1348 18.3358 14.456V4.86884H19.5603C19.7526 4.86884 19.8745 4.67827 19.7819 4.52244L17.2934 0.331503C17.1974 0.169819 16.9463 0.169819 16.8503 0.331502L14.3618 4.52244C14.2692 4.67827 14.3911 4.86884 14.5833 4.86884H15.8079V14.456C15.8079 14.8434 15.4683 15.1575 15.0495 15.1575H3.42106C3.00223 15.1575 2.66268 14.8434 2.66268 14.456V3.23201Z" fill="white"/>
</g>
</svg>
