<svg data-name="Group 3" xmlns="http://www.w3.org/2000/svg" xmlns:xlink="http://www.w3.org/1999/xlink" width="247.346" height="122.871"><defs><linearGradient id="f" x1="1.553" y1="-.165" x2="-.466" y2="1.104" gradientUnits="objectBoundingBox"><stop offset="0" stop-color="#80f"/><stop offset=".01" stop-color="#8504ff"/><stop offset=".21" stop-color="#564bff"/><stop offset=".39" stop-color="#3182ff"/><stop offset=".54" stop-color="#16aaff"/><stop offset=".66" stop-color="#06c3ff"/><stop offset=".73" stop-color="#0cf"/><stop offset=".76" stop-color="#00d0ef"/><stop offset=".83" stop-color="#00dcc4"/><stop offset=".92" stop-color="#00ee81"/><stop offset="1" stop-color="#00ff40"/></linearGradient><linearGradient id="c" x1=".044" y1=".943" x2=".589" y2="-.124" gradientUnits="objectBoundingBox"><stop offset="0" stop-color="#70f"/><stop offset=".02" stop-color="#8100f7"/><stop offset=".14" stop-color="#c500c3"/><stop offset=".22" stop-color="#ef00a2"/><stop offset=".27" stop-color="#ff0095"/><stop offset=".35" stop-color="#ff098e"/><stop offset=".47" stop-color="#ff227b"/><stop offset=".63" stop-color="#ff4a5b"/><stop offset=".82" stop-color="#ff8130"/><stop offset="1" stop-color="#ffbf00"/></linearGradient><linearGradient id="g" x1=".132" y1=".294" x2=".868" y2=".72" gradientUnits="objectBoundingBox"><stop offset="0" stop-color="#70f"/><stop offset=".17" stop-color="#9e00e1"/><stop offset=".27" stop-color="#ae00d4"/></linearGradient><linearGradient id="b" x1=".503" y1=".799" x2=".491" y2=".114" gradientUnits="objectBoundingBox"><stop offset="0" stop-color="#9700c9"/><stop offset=".12" stop-color="#c500b2"/><stop offset=".25" stop-color="#ef009d"/><stop offset=".31" stop-color="#ff0095"/><stop offset=".33" stop-color="#ff0f89"/><stop offset=".38" stop-color="#ff3869"/><stop offset=".43" stop-color="#ff5d4d"/><stop offset=".49" stop-color="#ff7b35"/><stop offset=".55" stop-color="#ff9421"/><stop offset=".62" stop-color="#ffa712"/><stop offset=".7" stop-color="#ffb508"/><stop offset=".81" stop-color="#ffbd02"/><stop offset="1" stop-color="#ffbf00"/></linearGradient><linearGradient id="a" x1=".363" y1="-.075" x2=".651" y2="1.029" gradientUnits="objectBoundingBox"><stop offset="0" stop-color="#ffbf00"/><stop offset=".18" stop-color="#ff8130"/><stop offset=".37" stop-color="#ff4a5b"/><stop offset=".53" stop-color="#ff227b"/><stop offset=".65" stop-color="#ff098e"/><stop offset=".73" stop-color="#ff0095"/><stop offset=".78" stop-color="#ef00a2"/><stop offset=".86" stop-color="#c500c3"/><stop offset=".98" stop-color="#8100f7"/><stop offset="1" stop-color="#70f"/></linearGradient><linearGradient id="h" x1=".436" y1="-.308" x2=".588" y2="1.424" xlink:href="#a"/><linearGradient id="e" x1=".441" y1="1.186" x2=".854" y2="-.184" gradientUnits="objectBoundingBox"><stop offset="0" stop-color="#70f"/><stop offset=".04" stop-color="#8100f7"/><stop offset=".36" stop-color="#c500c3"/><stop offset=".58" stop-color="#ef00a2"/><stop offset=".7" stop-color="#ff0095"/><stop offset=".73" stop-color="#ff098e"/><stop offset=".78" stop-color="#ff227b"/><stop offset=".85" stop-color="#ff4a5b"/><stop offset=".92" stop-color="#ff8130"/><stop offset="1" stop-color="#ffbf00"/></linearGradient><linearGradient id="i" x1=".099" y1="1.059" x2="1.128" y2=".07" gradientUnits="objectBoundingBox"><stop offset="0" stop-color="#70f"/><stop offset=".02" stop-color="#8100f7"/><stop offset=".15" stop-color="#c500c3"/><stop offset=".24" stop-color="#ef00a2"/><stop offset=".29" stop-color="#ff0095"/><stop offset=".36" stop-color="#ff098e"/><stop offset=".48" stop-color="#ff227b"/><stop offset=".64" stop-color="#ff4a5b"/><stop offset=".82" stop-color="#ff8130"/><stop offset="1" stop-color="#ffbf00"/></linearGradient><linearGradient id="j" x1="1.379" y1="1.42" x2="-1.272" y2="-1.361" gradientUnits="objectBoundingBox"><stop offset=".27" stop-color="#0cf"/><stop offset=".34" stop-color="#06c3ff"/><stop offset=".46" stop-color="#16aaff"/><stop offset=".61" stop-color="#3182ff"/><stop offset=".79" stop-color="#564bff"/><stop offset=".99" stop-color="#8504ff"/><stop offset="1" stop-color="#80f"/></linearGradient><linearGradient id="k" x1="1.01" y1=".972" x2=".025" y2=".031" gradientUnits="objectBoundingBox"><stop offset=".53" stop-color="#0cf"/><stop offset=".57" stop-color="#06c3ff"/><stop offset=".65" stop-color="#16aaff"/><stop offset=".75" stop-color="#3182ff"/><stop offset=".86" stop-color="#564bff"/><stop offset=".99" stop-color="#8504ff"/><stop offset="1" stop-color="#80f"/></linearGradient><linearGradient id="l" x1="-.431" y1="-.717" x2="1.381" y2="1.624" gradientUnits="objectBoundingBox"><stop offset="0" stop-color="#00ff40"/><stop offset=".08" stop-color="#00ee81"/><stop offset=".17" stop-color="#00dcc4"/><stop offset=".24" stop-color="#00d0ef"/><stop offset=".27" stop-color="#0cf"/><stop offset=".34" stop-color="#06c3ff"/><stop offset=".46" stop-color="#16aaff"/><stop offset=".61" stop-color="#3182ff"/><stop offset=".79" stop-color="#564bff"/><stop offset=".99" stop-color="#8504ff"/><stop offset="1" stop-color="#80f"/></linearGradient><linearGradient id="m" x1="1.24" y1=".643" x2="-.239" y2=".355" gradientUnits="objectBoundingBox"><stop offset="0" stop-color="#70f"/><stop offset=".15" stop-color="#8400ed"/><stop offset=".55" stop-color="#a402c3"/><stop offset=".76" stop-color="#b002b3"/><stop offset=".78" stop-color="#b40baa"/><stop offset=".82" stop-color="#be2493"/><stop offset=".88" stop-color="#cf4c6d"/><stop offset=".94" stop-color="#e68339"/><stop offset="1" stop-color="#ffbf00"/></linearGradient><linearGradient id="n" x1="1.247" y1=".641" x2="-.243" y2=".356" gradientUnits="objectBoundingBox"><stop offset="0" stop-color="#70f"/><stop offset=".05" stop-color="#8100f7"/><stop offset=".39" stop-color="#c500c3"/><stop offset=".63" stop-color="#ef00a2"/><stop offset=".76" stop-color="#ff0095"/><stop offset=".78" stop-color="#ff098e"/><stop offset=".82" stop-color="#ff227b"/><stop offset=".88" stop-color="#ff4a5b"/><stop offset=".94" stop-color="#ff8130"/><stop offset="1" stop-color="#ffbf00"/></linearGradient><linearGradient id="p" x1=".27" y1=".459" x2=".936" y2=".591" xlink:href="#b"/><linearGradient id="q" x1=".687" y1="1.061" x2=".329" y2="-.026" xlink:href="#a"/><linearGradient id="r" x1="-15.037" y1="-19.578" x2="-14.327" y2="-20.823" xlink:href="#a"/><linearGradient id="t" x1=".385" y1="-.217" x2=".642" y2="1.19" gradientUnits="objectBoundingBox"><stop offset="0" stop-color="#ffbf00"/><stop offset=".15" stop-color="#ff8130"/><stop offset=".3" stop-color="#ff4a5b"/><stop offset=".43" stop-color="#ff227b"/><stop offset=".54" stop-color="#ff098e"/><stop offset=".6" stop-color="#ff0095"/><stop offset=".67" stop-color="#ef00a2"/><stop offset=".8" stop-color="#c500c3"/><stop offset=".98" stop-color="#8100f7"/><stop offset="1" stop-color="#70f"/></linearGradient><linearGradient id="u" x1=".288" y1=".516" x2="1.436" y2=".359" gradientUnits="objectBoundingBox"><stop offset="0" stop-color="#ffbf00"/><stop offset=".05" stop-color="#ffaf0d"/><stop offset=".35" stop-color="#ff5155"/><stop offset=".55" stop-color="#ff1783"/><stop offset=".65" stop-color="#ff0095"/><stop offset=".76" stop-color="#ff0293"/><stop offset=".77" stop-color="#f80299"/><stop offset=".85" stop-color="#c101c4"/><stop offset=".92" stop-color="#9900e4"/><stop offset=".97" stop-color="#8000f8"/><stop offset="1" stop-color="#70f"/></linearGradient><linearGradient id="v" x1="1.185" y1="1.398" x2="-.883" y2="-1.317" xlink:href="#c"/><linearGradient id="d" x1="1.64" y1=".567" x2="-1.213" y2=".404" gradientUnits="objectBoundingBox"><stop offset="0" stop-color="#80f"/><stop offset="0" stop-color="#8504ff"/><stop offset=".09" stop-color="#564bff"/><stop offset=".16" stop-color="#3182ff"/><stop offset=".22" stop-color="#16aaff"/><stop offset=".27" stop-color="#06c3ff"/><stop offset=".3" stop-color="#0cf"/><stop offset=".39" stop-color="#00d0ef"/><stop offset=".56" stop-color="#00dcc4"/><stop offset=".79" stop-color="#00ee81"/><stop offset="1" stop-color="#00ff40"/></linearGradient><linearGradient id="w" x1="1.415" y1=".512" x2="-.79" y2=".481" gradientUnits="objectBoundingBox"><stop offset="0" stop-color="#ffbf00"/><stop offset=".19" stop-color="#ff8130"/><stop offset=".38" stop-color="#ff4a5b"/><stop offset=".55" stop-color="#ff227b"/><stop offset=".68" stop-color="#ff098e"/><stop offset=".76" stop-color="#ff0095"/><stop offset=".8" stop-color="#ef00a2"/><stop offset=".88" stop-color="#c500c3"/><stop offset=".99" stop-color="#8100f7"/><stop offset="1" stop-color="#70f"/></linearGradient><linearGradient id="x" x1="1.203" y1=".352" x2="-1.603" y2=".95" xlink:href="#d"/><linearGradient id="y" x1="1" y1=".501" x2=".001" y2=".499" xlink:href="#e"/><linearGradient id="z" x1="4.716" y1="18.468" x2="5.715" y2="18.468" xlink:href="#e"/><radialGradient id="o" cx=".948" cy=".91" r="1.592" gradientUnits="objectBoundingBox"><stop offset=".11" stop-color="#ffbf00"/><stop offset=".25" stop-color="#ff8130"/><stop offset=".39" stop-color="#ff4a5b"/><stop offset=".51" stop-color="#ff227b"/><stop offset=".61" stop-color="#ff098e"/><stop offset=".66" stop-color="#ff0095"/><stop offset=".72" stop-color="#ef00a2"/><stop offset=".83" stop-color="#c500c3"/><stop offset=".98" stop-color="#8100f7"/><stop offset="1" stop-color="#70f"/></radialGradient><radialGradient id="s" cx=".346" cy=".82" r="1.238" gradientUnits="objectBoundingBox"><stop offset="0" stop-color="#ffbf00"/><stop offset=".21" stop-color="#ff8130"/><stop offset=".42" stop-color="#ff4a5b"/><stop offset=".6" stop-color="#ff227b"/><stop offset=".75" stop-color="#ff098e"/><stop offset=".84" stop-color="#ff0095"/><stop offset=".86" stop-color="#ef00a2"/><stop offset=".92" stop-color="#c500c3"/><stop offset=".99" stop-color="#8100f7"/><stop offset="1" stop-color="#70f"/></radialGradient></defs><g data-name="Asset 1"><path d="M135.835 40.418l-1.6-1.869-4.686-1.155 1.813 1.89 4.473 1.134z" fill="#388bb1"/><path data-name="Path" d="M135.832 40.418l1.736-5.2-1.523-2.164-1.813 5.495 1.6 1.869z" fill="#052b27" opacity=".9"/><path data-name="Path" d="M4.683 6.566L6.5 1.071 1.736 0 0 5.411l4.683 1.155z" transform="translate(129.549 31.983)" fill="url(#f)"/><g data-name="Group 2" opacity=".9"><path data-name="Path" d="M239.37 28.84l1.042-.966.577-2.726-1.054 1.086-.565 2.605z" fill="#390734"/><path d="M239.893 26.218l1.193-1.223-.622 2.922-1.187 1.08z" fill="#390734"/><path data-name="Path" d="M.315 3.7l2.3-2.177L2.422 0 0 2.317.315 3.7z" transform="rotate(60 98.073 223.299)" fill="url(#c)"/><path data-name="Path" d="M2.072 4.158l2.422-2.317L2.352 0 0 2.3l2.072 1.858z" transform="rotate(60 100.704 222.425)" fill="url(#g)"/><path data-name="Path" d="M241.917 81.042l-.566 2.072-6.173 2.384.534-2.086 6.205-2.37z" fill="#911283"/><path data-name="Path" d="M235.61 88.709l-.534 2.086-1.976-6.11.515-2.091 1.994 6.115z" fill="#a34198"/><path data-name="Path" d="M237.752 89.55l-.562 2.078-6.958 2.788.514-2.091 7.006-2.775z" fill="#911283"/><path data-name="Path" d="M230.546 97.985l-.522 2.096-1.938-6.511.495-2.097 1.965 6.512z" fill="#a34198"/><path data-name="Path" d="M5.173 16.765L6.293 9.3 0 7.966 1.246.364 2.807 0l-1.05 6.559 6.335 1.3-1.1 7.455 6.671 1.526-1.127 8.47-1.736.3.994-7.294-6.621-1.551z" transform="rotate(60 52.178 247.596)" fill="url(#b)"/><path data-name="Path" d="M232.76 98.865l-.543 2.084-7.841 3.274.485-2.099 7.899-3.259z" fill="#911283"/><path data-name="Path" d="M224.861 102.124l-.485 2.099-1.12-1.35.477-2.102 1.128 1.353z" fill="#911283"/><path data-name="Path" d="M2.478 0l.686 1.4L.707 5.208 0 3.822 2.478 0z" transform="rotate(60 47.224 228.513)" fill="url(#a)"/><path data-name="Path" d="M224.323 80.716l-.548.38-1.026-5.59-4.549-.235.565-.366 4.54.248 1.018 5.563z" fill="#861078"/><path data-name="Path" d="M224.32 80.718l-.896 1.277-.548.38.896-1.276.548-.381z" fill="#720e66"/><path data-name="Path" d="M5.355 1.911l.658 1.414L.686 1.4 0 0l5.355 1.911z" transform="rotate(60 45.985 230.66)" fill="url(#h)"/><path data-name="Path" d="M3.052 0l1.3 11.3L0 11.1 3.052 0z" transform="rotate(60 82.796 195.87)" fill="url(#e)"/><path data-name="Path" d="M5.88 0L0 9.422l2.828 1.708L5.88 0z" transform="rotate(60 84.24 193.438)" fill="url(#i)"/><path data-name="Shape" d="M.455 3.992A2.681 2.681 0 011.1.283 2.681 2.681 0 014.64 1.55 2.687 2.687 0 014 5.26a2.091 2.091 0 01-1.064.283A2.987 2.987 0 01.455 3.992z" transform="rotate(60 75.335 221.371)" fill="url(#j)"/></g><g data-name="Group" opacity=".9" fill="#073933"><path data-name="Path" d="M49.704 37.317l-.665-.5-1.635-.054.735.5 1.565.054z"/><path data-name="Shape" d="M48.129 37.308l-.9-.6 1.827.056.812.609z"/></g><path data-name="Path" d="M.665 2.457L.868.609.21 0 0 1.953l.665.5z" transform="translate(49.035 34.86)" fill="url(#k)"/><path data-name="Path" d="M1.631 1.953L1.841 0H.189L0 1.9l1.631.049z" transform="translate(47.404 34.86)" fill="url(#l)"/><g data-name="Group" opacity=".9"><path data-name="Path" d="M4.634 8.617L2.191 7.7 0 0l2.457.868 2.177 7.749z" transform="translate(27.601 38.115)" fill="url(#m)"/><path data-name="Path" d="M23.681 38.29l-2.457-.882 7.588-1.708 2.457.854-7.588 1.736z" fill="#8f1181"/><path data-name="Path" d="M5.054 9.6L2.6 8.7 0 0l2.471.854L5.054 9.6z" transform="translate(17.381 31.171)" fill="url(#n)"/><path data-name="Path" d="M13.048 31.164l-2.464-.854 8.057-1.631 2.478.826-8.071 1.659z" fill="#8c117e"/><path data-name="Path" d="M12.439 6.867L15 15.652l7.588-1.736 2.5 8.988-1.533 1.19-2.177-7.749-7.623 1.792-2.583-8.75L3.059 11.1 0 1.218 1.75 0l2.618 8.526 8.071-1.659z" transform="translate(8.68 22.638)" fill="url(#o)"/><path data-name="Path" d="M11.739 33.737l-2.45-.875-3.087-9.825 2.478.819 3.059 9.881z" fill="#911283"/><path data-name="Path" d="M8.68 23.856l-2.478-.823 1.75-1.2 2.478.805-1.75 1.218z" fill="#911283"/></g><g data-name="Group" opacity=".9"><path data-name="Path" d="M14.469 102.792l-.868.7-3.311-.886.861-.714 3.318.9z" fill="#911283"/><path data-name="Path" d="M9.492 104.09l-.861.707 1.036-3.164.854-.721-1.029 3.178z" fill="#a34198"/><path data-name="Path" d="M10.136 105.091l-.868.7-3.766-.945.847-.721 3.787.966z" fill="#911283"/><path data-name="Path" d="M4.543 106.435l-.854.721 1.169-3.325.847-.728-1.162 3.332z" fill="#a34198"/><path data-name="Path" d="M4.865 2.191l3.787.987L9.681 0l3.85 1.057.1.826-3.32-.903L9.3 4.179l-3.791-.966-1.148 3.353L.063 5.53 0 4.613l3.7.91 1.165-3.332z" transform="translate(.84 100.912)" fill="url(#p)"/><path data-name="Path" d="M5.201 107.478l-.854.707-4.284-1.015.84-.728 4.3 1.036zM.9 106.442l-.84.728-.06-.903.84-.742.06.917z" fill="#911283"/></g><g data-name="Group"><path data-name="Path" d="M.735 5.264L0 3.885 2.331 0l.756 1.365L.735 5.264z" transform="translate(83.013 26.376)" fill="url(#q)"/><path data-name="Path" d="M78.407 30.569l-.077-.665 5.418 1.737 2.352-3.9.056.665-2.359 3.892-5.39-1.729z" fill="#861078"/><path data-name="Path" d="M78.407 30.569l-.7-1.386-.077-.665.7 1.386.077.665z" fill="#720e66"/><path data-name="Path" d="M.7 1.386L0 0l5.383 1.743.735 1.379L.7 1.386z" transform="translate(77.63 28.518)" fill="url(#r)"/></g><g data-name="Group"><g data-name="Group"><path data-name="Path" d="M160.581 35.122l.819-.973.2-.168.21-.14.22-.11.21-.1-.84.98a1.911 1.911 0 00-.217.1l-.21.112-.21.14z" fill="#730e68"/><path data-name="Path" d="M161.4 34.611l.847-.98h.322l-.847.98h-.322z" fill="#780f6c"/><path data-name="Path" d="M161.743 34.506l.847-.98h.253l-.841.987h-.2z" fill="#7c0f70"/><path data-name="Path" d="M162.002 34.45l.84-.987h.238l-.847.987h-.231z" fill="#811074"/><path data-name="Path" d="M162.233 34.415l.847-1.015h.231l-.847.98h-.231z" fill="#851078"/><path data-name="Path" d="M162.464 34.394l.847-.98h.224l-.84.98z" fill="#8a117c"/><path data-name="Path" d="M162.695 34.387l.84-.98h.245l-.847.98h-.238z" fill="#8e1180"/><path data-name="Path" d="M162.933 34.394l.847-.994h.259l-.84.987h-.266z" fill="#931284"/><path data-name="Path" d="M163.199 34.415l.84-.987h.308l-.847 1.022h-.308z" fill="#971288"/><path data-name="Path" d="M163.5 34.45l.84-.987h.413l-.84.987h-.413z" fill="#9b138c"/><path data-name="Path" d="M163.92 34.52l.84-.987h.16l.96.189h.147l-.826 1.078z" fill="#a01390"/><path data-name="Path" d="M165.201 34.8l.826-.994h.343l-.826.994h-.343z" fill="#9b138c"/><path data-name="Path" d="M165.544 34.8l.826-.994h.245l-.833 1h-.182z" fill="#971288"/><path data-name="Path" d="M165.782 34.855l.833-1h.189l-.822 1z" fill="#931284"/><path data-name="Path" d="M165.978 34.869l.826-1h.2l-.826.994h-.179z" fill="#8e1180"/><path data-name="Path" d="M166.153 34.869l.826-.993h.119l.042-.007-.826 1h-.161z" fill="#8a117c"/><path data-name="Path" d="M166.314 34.87l.826-1h.074l.045-.008h.042l-.826.994-.042.006h-.035l-.042.007z" fill="#851078"/><path data-name="Path" d="M166.475 34.856l.826-.994.042-.007.032-.007.045-.007.042-.007-.826 1-.035.007-.042.007-.042.007z" fill="#811074"/><path data-name="Path" d="M166.636 34.834l.826-1h.174l-.818.966h-.133z" fill="#7c0f70"/><path data-name="Path" d="M166.818 34.8l.819-.994h.168a.133.133 0 00.056 0l-.819 1h-.168z" fill="#780f6c"/><path data-name="Path" d="M167.042 34.723l.819-1 .161-.071a.889.889 0 00.161-.084 1 1 0 00.154-.1l.161-.125.084-.069.077-.077.07-.077a.364.364 0 00.07-.077l-.889 1.057-.068.077-.084.077-.084.07-.156.119-.161.1-.154.084z" fill="#730e68"/></g><g data-name="Group"><path data-name="Path" d="M170.171 29.13l.833-.987-.024.028-.025.028-.021.028-.028.035-.826.987.021-.028.028-.028.021-.035.021-.028z" fill="#730e68"/><path data-name="Path" d="M170.08 29.249l.828-.987-.037.049a.126.126 0 01-.035.051v.054a.175.175 0 000 .046l-.828 1a.21.21 0 010-.056v-.1z" fill="#780f6c"/><path data-name="Path" d="M169.954 29.459l.826-.959v.161l-.91.959v-.084z" fill="#7c0f70"/><path data-name="Path" d="M169.87 29.62l.826-.994-.014.042-.014.035-.014.035-.007.035-.826.994.007-.041.014-.035.014-.035.014-.036z" fill="#811074"/><path data-name="Path" d="M169.821 29.767l.826-.994-.014.035-.007.035-.014.03-.007.04-.826.987.007-.035.007-.028.014-.035.014-.035z" fill="#851078"/><path data-name="Path" d="M169.779 29.9l.826-.987-.007.035-.014.028-.007.037-.007.033-.826.994.007-.035.007-.035.014-.035.007-.035z" fill="#8a117c"/><path data-name="Path" d="M169.744 30.04l.826-.994-.007.035v.035l-.007.03-.007.04-.826.994.007-.034.007-.035v-.036l.007-.035z" fill="#8e1180"/><path data-name="Path" d="M169.723 30.18l.826-.994v.035l-.007.042v.035l-.007.035-.826.994.007-.035v-.042l.007-.035v-.035z" fill="#931284"/><path data-name="Path" d="M169.709 30.327l.826-.994v.042l-.007.042v.084l-.826.994v-.084l.007-.042v-.042z" fill="#971288"/><path data-name="Path" d="M169.702 30.495l.798-.994v.2l-.826.99v-.2z" fill="#9b138c"/><path data-name="Path" d="M169.702 30.691l.798-.994v.245l-.826.994v-.245z" fill="#a01390"/><path data-name="Path" d="M169.716 30.936l.826-.994v.42l-.742.994a.539.539 0 010-.105v-.209a.532.532 0 00-.084-.106z" fill="#a41494"/><path data-name="Path" d="M169.8 31.356l.819-.994s.1.805.112.84l-.819.994z" fill="#a91598"/><path data-name="Path" d="M169.877 32.196l.819-.994v.476l-.77 1.024v-.24a.777.777 0 010-.119.356.356 0 01-.049-.147z" fill="#a41494"/><path data-name="Path" d="M169.925 32.699l.82-1v.077a.315.315 0 010 .077.343.343 0 000 .084v.062l-.82 1v-.075a.259.259 0 000-.077v-.084a.378.378 0 010-.064z" fill="#a01390"/><path data-name="Path" d="M169.94 32.994l.819-.994v.252l-.812 1.008v-.2a.546.546 0 00-.007-.066z" fill="#9b138c"/><path data-name="Path" d="M169.947 33.253l.812-1.008v.224l-.812 1.008z" fill="#971288"/><path data-name="Path" d="M169.933 33.477l.812-1.008v.231l-.812 1.008v-.231z" fill="#931284"/><path data-name="Path" d="M169.912 33.687l.812-.987v.2l-.812 1v-.213z" fill="#8e1180"/><path data-name="Path" d="M169.884 33.882l.812-1v.189l-.861 1.029v-.147z" fill="#8a117c"/><path data-name="Path" d="M169.835 34.1l.812-1.008v.049a.168.168 0 010 .051v.054a.448.448 0 000 .046l-.847.983v-.049-.1z" fill="#851078"/><path data-name="Path" d="M169.8 34.274l.812-1v.2l-.812 1.011v-.211z" fill="#811074"/><path data-name="Path" d="M169.695 34.485l.805-1.008a.14.14 0 010 .056.252.252 0 010 .063.413.413 0 010 .056v.056l-.812 1.008v-.056a.392.392 0 01.035-.056v-.063a.21.21 0 00-.028-.056z" fill="#7c0f70"/><path data-name="Path" d="M169.583 34.716l.812-1.008-.042.07-.052.077-.039.07-.056.07-.805 1.008a.252.252 0 01.049-.07l.042-.077a.252.252 0 00.049-.07z" fill="#780f6c"/><path data-name="Path" d="M169.401 35.003l.812-1.008-.021.021-.014.021-.847 1.05.014-.021.021-.021.014-.021.021-.021z" fill="#730e68"/></g><g data-name="Group"><path data-name="Path" d="M168.862 27.961l.938-1.078.084-.091a1.113 1.113 0 00.091-.091l.1-.084a2.744 2.744 0 01.229-.189l.231-.154.238-.14.245-.112-.84.987-.238.113-.238.132a2.3 2.3 0 00-.231.161 2.625 2.625 0 00-.231.182.6.6 0 00-.1.091l-.1.091-.078.091z" fill="#730e68"/><path data-name="Path" d="M170.164 27.009l.84-.987h.175l.085-.035h.09l-.854.9h-.266z" fill="#780f6c"/><path data-name="Path" d="M170.5 26.883l.833-.98h.28l-.833.987h-.21z" fill="#7c0f70"/><path data-name="Path" d="M170.801 26.813l.833-.987h.267l-.827.987h-.273z" fill="#811074"/><path data-name="Path" d="M171.067 26.771l.833-.987h.252l-.833.987h-.252z" fill="#851078"/><path data-name="Path" d="M171.312 26.743l.833-.987h.252l-.826.987z" fill="#8a117c"/><path data-name="Path" d="M171.571 26.729l.826-.987h.259l-.826.987z" fill="#8e1180"/><path data-name="Path" d="M171.83 26.729l.826-.987h.287l-.826.987z" fill="#931284"/><path data-name="Path" d="M172.117 26.743l.826-.987h.357l-.826.994h-.336z" fill="#971288"/><path data-name="Path" d="M172.453 26.778l.847-.994h.448l-.819.987h-.343z" fill="#9b138c"/><path data-name="Path" d="M172.908 26.834l.819-.987h.175l1.043.182h.163l-.814 1.071h-.168l-1.043-.182z" fill="#a01390"/><path data-name="Path" d="M174.294 27.099l.812-1h.378l-.784 1h-.406z" fill="#9b138c"/><path data-name="Path" d="M174.7 27.1l.812-.994h.259l-.812 1h-.259z" fill="#971288"/><path data-name="Path" d="M174.931 27.155l.812-1h.21l-.8 1z" fill="#931284"/><path data-name="Path" d="M175.148 27.162l.805-1h.189l-.8 1z" fill="#8e1180"/><path data-name="Path" d="M175.337 27.162l.805-1h.182l-.812 1z" fill="#8a117c"/><path data-name="Path" d="M175.512 27.155l.812-1h.175l-.812 1z" fill="#851078"/><path data-name="Path" d="M175.687 27.134l.812-1h.175l-.8.966h-.187z" fill="#811074"/><path data-name="Path" d="M175.869 27.099l.805-1h.195l-.769.959h-.147z" fill="#7c0f70"/><path data-name="Path" d="M176.1 27.057l.805-1h.252l-.805 1h-.252z" fill="#780f6c"/><path data-name="Path" d="M176.317 26.974l.805-1a.994.994 0 00.175-.085 1.155 1.155 0 00.182-.1l.175-.11.175-.14.105-.091.105-.094.084-.1a.525.525 0 00.084-.1l-.8 1-.084.1a.6.6 0 01-.091.1 1.3 1.3 0 01-.1.1l-.105.091-.182.14-.175.119-.175.1z" fill="#730e68"/></g><g data-name="Group"><path data-name="Path" d="M179.95 20.786l.805-.987-.021.021-.847 1.05.014-.021.014-.021.021-.021.014-.021z" fill="#730e68"/><path data-name="Path" d="M179.88 20.87l.805-.987-.042.056-.035.056-.04.063v.056l-.8.987a.245.245 0 01.035-.056.154.154 0 010-.056l.042-.063z" fill="#780f6c"/><path data-name="Path" d="M179.733 21.1l.8-1v.042a.112.112 0 010 .049v.091l-.807.987v-.133z" fill="#7c0f70"/><path data-name="Path" d="M179.635 21.283l.805-.987v.126l-.84 1.022v-.084z" fill="#811074"/><path data-name="Path" d="M179.572 21.444l.805-.987-.014.035-.014.042-.014.035-.012.042-.8.987.007-.041.014-.035.014-.035.014-.043z" fill="#851078"/><path data-name="Path" d="M179.523 21.598l.798-.987-.007.035-.014.035-.007.042-.007.035-.805.994.007-.041.014-.035.007-.042.014-.036z" fill="#8a117c"/><path data-name="Path" d="M179.481 21.752l.805-.994-.007.035-.007.042-.014.042v.035l-.805.994.007-.042.007-.035.007-.042.007-.035z" fill="#8e1180"/><path data-name="Path" d="M179.453 21.906l.805-.994-.007.042-.007.042-.007.042-.005.035-.8.994v-.042l.007-.042.007-.035.007-.042z" fill="#931284"/><path data-name="Path" d="M179.432 22.067l.8-.987v.182l-.8.987z" fill="#971288"/><path data-name="Path" d="M179.418 22.249l.8-.987v.238l-.8.994v-.245z" fill="#9b138c"/><path data-name="Path" d="M179.411 22.466l.798-.966v.273l-.805.994v-.273z" fill="#a01390"/><path data-name="Path" d="M179.411 22.739l.805-.994v.112a.7.7 0 010 .119.6.6 0 010 .112v.119l-.8 1v-.356c.002-.042-.005-.077-.005-.112z" fill="#a41494"/><path data-name="Path" d="M179.446 23.208l.8-1.008c0 .042.082.882.082.917l-.8 1z" fill="#a91598"/><path data-name="Path" d="M179.53 24.124l.77-1v.133a.763.763 0 000 .126v.266l-.7 1v-.258a.805.805 0 000-.133 1.281 1.281 0 00-.07-.134z" fill="#a41494"/><path data-name="Path" d="M179.6 24.649l.8-1v.168a.4.4 0 010 .091.343.343 0 010 .084L179.6 25v-.351z" fill="#a01390"/><path data-name="Path" d="M179.597 24.999l.794-1v.21a.238.238 0 000 .07l-.794 1.001a.217.217 0 010-.07z" fill="#9b138c"/><path data-name="Path" d="M179.6 25.28l.756-.98v.245l-.791 1.008v-.189a.175.175 0 00.035-.084z" fill="#971288"/><path data-name="Path" d="M179.544 25.525l.791-1.008v.231l-.791 1.008v-.231z" fill="#931284"/><path data-name="Path" d="M179.509 25.756l.791-1.008v.217l-.791 1.008v-.217z" fill="#8e1180"/><path data-name="Path" d="M179.467 25.973l.791-.973v.217l-.791 1.008v-.252z" fill="#8a117c"/><path data-name="Path" d="M179.411 26.19l.791-1.008a.168.168 0 000 .056v.161l-.864 1.001v-.049a.133.133 0 010-.056v-.056s.066-.028.073-.049z" fill="#851078"/><path data-name="Path" d="M179.341 26.4l.784-1.008v.231l-.793 1.008a.21.21 0 010-.056v-.112a.252.252 0 00.009-.063z" fill="#811074"/><path data-name="Path" d="M179.243 26.638l.791-1.008-.031.063-.074.126a.217.217 0 01-.035.07l-.791 1.008.042-.067a.287.287 0 01.035-.063v-.07z" fill="#7c0f70"/><path data-name="Path" d="M179.1 26.897l.794-1.008-.049.077-.045.077-.06.084a.308.308 0 00-.056.077l-.784 1.008a.308.308 0 00.056-.077.532.532 0 00.056-.077.525.525 0 00.049-.084.287.287 0 00.039-.077z" fill="#780f6c"/><path data-name="Path" d="M178.893 27.212l.791-1.008-.812 1.036.021-.028z" fill="#730e68"/></g><path data-name="Path" d="M178.55 19.547l.812-.98.105-.119.112-.119.119-.119.126-.112-.812.973c-.042.042-.091.077-.126.119l-.126.119-.11.119a.805.805 0 00-.1.119z" fill="#730e68"/><path data-name="Path" d="M187.657 17.678l.763-.994 1.337 1.358-.749 1.008-1.351-1.372z" fill="#d81ac3"/><g data-name="Group"><path data-name="Path" d="M179.012 19.071l.812-.973c.088-.079.175-.147.259-.21a3 3 0 01.266-.182l.263-.161c.087-.042.178-.091.269-.126l-.812.973-.266.133c-.091.049-.182.094-.266.154l-.266.182z" fill="#730e68"/><path data-name="Path" d="M180.069 18.392l.812-.973.098-.042.098-.042h.2l-.808.973h-.1l-.1.035-.1.042z" fill="#780f6c"/><path data-name="Path" d="M180.468 18.245l.805-.945h.315l-.805.98h-.238z" fill="#7c0f70"/><path data-name="Path" d="M180.783 18.161l.805-.98h.287l-.805.98h-.287z" fill="#811074"/><path data-name="Path" d="M181.07 18.105l.805-.98h.273l-.798.98h-.28z" fill="#851078"/><path data-name="Path" d="M181.35 18.07l.8-.98h.28l-.8.98z" fill="#8a117c"/><path data-name="Path" d="M181.623 18.049l.805-.98h.287l-.8.98h-.292z" fill="#8e1180"/><path data-name="Path" d="M181.917 18.042l.8-.98h.315l-.8.987h-.315z" fill="#931284"/><path data-name="Path" d="M182.232 18.049l.8-.987h.364l-.793.98h-.371z" fill="#971288"/><path data-name="Path" d="M182.603 18.07l.791-.98h.49l-.781 1.036h-.374z" fill="#9b138c"/><path data-name="Path" d="M183.1 18.126l.791-.987h.2l1.13.168h.179l-.784.994h-.179l-1.137-.168z" fill="#a01390"/><path data-name="Path" d="M184.612 18.35l.784-.994h.416l-.787.987h-.313z" fill="#9b138c"/><path data-name="Path" d="M185.025 18.392l.784-.987h.287l-.777.994h-.294z" fill="#971288"/><path data-name="Path" d="M185.319 18.413l.777-.994h.231l-.777 1h-.231z" fill="#931284"/><path data-name="Path" d="M185.55 18.42l.777-.994h.21l-.777.994z" fill="#8e1180"/><path data-name="Path" d="M185.76 18.413l.777-.994h.2l-.777.994z" fill="#8a117c"/><path data-name="Path" d="M185.956 18.399l.777-.994h.2l-.777 1h-.2z" fill="#851078"/><path data-name="Path" d="M186.152 18.377l.777-1h.2l-.777.994h-.151z" fill="#811074"/><path data-name="Path" d="M186.355 18.336l.77-.994h.217l-.742.938h-.161z" fill="#7c0f70"/><path data-name="Path" d="M186.6 18.279l.77-1h.28l-.77.994h-.21z" fill="#780f6c"/><path data-name="Path" d="M186.852 18.175l.77-.991.2-.1a1.883 1.883 0 00.2-.112l.2-.133.198-.155-.763.994-.2.154a1.68 1.68 0 01-.2.133l-.205.119z" fill="#730e68"/></g><path data-name="Path" d="M18.319 1.4A4.137 4.137 0 0119.5.7a4.3 4.3 0 011.234-.28 7.308 7.308 0 011.239 0c.413.042.812.1 1.2.161s.7.112 1.043.147a4.9 4.9 0 00.959 0 3.115 3.115 0 00.9-.2A3.185 3.185 0 0026.964 0l1.344 1.4a4.361 4.361 0 01-2.548 1.029 6.8 6.8 0 01-1.253 0c-.413-.042-.819-.105-1.2-.168s-.7-.112-1.029-.147a5.348 5.348 0 00-.938 0 2.884 2.884 0 00-.875.2 2.8 2.8 0 00-.826.5A2.4 2.4 0 0018.76 4.3a4.767 4.767 0 00-.042.847 8.961 8.961 0 00.077.924c.035.329.07.7.084 1.064a5.6 5.6 0 01-.07 1.085 3.269 3.269 0 01-.371 1.043 3.5 3.5 0 01-.833.861 3.64 3.64 0 01-1.12.637 3.969 3.969 0 01-1.155.224 6.237 6.237 0 01-1.141-.056c-.371-.042-.742-.112-1.1-.175s-.644-.119-.938-.161a4.5 4.5 0 00-.854-.049 2.688 2.688 0 00-.784.154 2.387 2.387 0 00-.7.441 2 2 0 00-.749 1.33 4.018 4.018 0 000 .77 6.255 6.255 0 00.105.84c.042.294.084.644.112.973a4.641 4.641 0 010 .987 2.975 2.975 0 01-.3.945 3.024 3.024 0 01-.7.861 3.164 3.164 0 01-1 .553 3.36 3.36 0 01-1.043.175 5.761 5.761 0 01-1.043-.07c-.343-.049-.7-.126-1.015-.189s-.588-.126-.861-.168a4.382 4.382 0 00-.784-.063 2.464 2.464 0 00-.7.119 2.212 2.212 0 00-.658.385L0 17.43a2.982 2.982 0 01.945-.553 3.318 3.318 0 011.008-.177 5.649 5.649 0 011.029.063c.343.049.7.119 1.008.189s.6.119.875.161a3.948 3.948 0 00.8.063 2.38 2.38 0 00.735-.126 2.191 2.191 0 00.7-.4 1.9 1.9 0 00.5-.6 2.051 2.051 0 00.21-.665 3.346 3.346 0 000-.749 3.629 3.629 0 00-.105-.84c-.042-.315-.091-.644-.112-.98a4.8 4.8 0 010-1 3.031 3.031 0 01.3-.987 3.171 3.171 0 01.745-.929 3.549 3.549 0 011.05-.637 3.885 3.885 0 011.112-.219 6.055 6.055 0 011.127.049c.371.042.742.112 1.1.175s.644.119.952.154a4.613 4.613 0 00.868.049 2.744 2.744 0 00.819-.161 2.674 2.674 0 00.777-.462 2.408 2.408 0 00.574-.7 2.17 2.17 0 00.252-.742 3.927 3.927 0 00.035-.819 8.677 8.677 0 00-.077-.917c-.035-.322-.077-.7-.091-1.078a5.271 5.271 0 01.063-1.1 3.458 3.458 0 01.371-1.1 3.815 3.815 0 01.749-.994z" transform="translate(160.693 17.671)" fill="url(#s)"/></g><g data-name="Group"><path data-name="Path" d="M17.574 10.01L.515 2.016a1.12 1.12 0 01-.224-.147 1 1 0 01-.168-.217 1.127 1.127 0 01-.112-.266 1.1 1.1 0 010-.308A1.4 1.4 0 01.1.665 1.141 1.141 0 01.333.322a1.022 1.022 0 01.7-.322h.343l17.5 6.93H18.4a1.33 1.33 0 00-.525.175 1.659 1.659 0 00-.455.378 2 2 0 00-.336.539 2.142 2.142 0 00-.161.63 1.624 1.624 0 000 .455 1.351 1.351 0 00.119.392 1.085 1.085 0 00.21.308 1.022 1.022 0 00.322.203z" transform="translate(141.2 104.748)" fill="url(#t)"/><path data-name="Path" d="M160.118 111.762a.875.875 0 01.294.21.98.98 0 01.216.308 1.4 1.4 0 01.119.4 1.687 1.687 0 010 .462 2.1 2.1 0 01-.49 1.141 1.6 1.6 0 01-.441.378 1.274 1.274 0 01-.518.182h-.377l-.119-.044a1.064 1.064 0 01-.3-.2 1.12 1.12 0 01-.225-.31 1.4 1.4 0 01-.133-.4 1.729 1.729 0 010-.469 2.142 2.142 0 01.161-.63 2 2 0 01.336-.538 1.659 1.659 0 01.455-.378 1.33 1.33 0 01.525-.175h.378a.406.406 0 01.119.063z" fill="#941286"/></g><g data-name="Group"><path data-name="Path" d="M10.894 1.841L1.633 18.522a.833.833 0 01-.161.217 1.127 1.127 0 01-.21.147.931.931 0 01-.238.07.861.861 0 01-.266 0 1.078 1.078 0 01-.336-.168 1.036 1.036 0 01-.252-.294 1.134 1.134 0 01-.154-.378 1.4 1.4 0 010-.42v-.273a.819.819 0 01.035-.077L8.556 0a.7.7 0 00-.049.1.189.189 0 01-.035.112c-.035.035 0 .084 0 .119a.861.861 0 010 .133 1.652 1.652 0 00.07.581 1.9 1.9 0 00.658.973 1.6 1.6 0 00.518.273 1.505 1.505 0 00.385.056 1.155 1.155 0 00.35-.07.924.924 0 00.5-.441z" transform="translate(115.806 3.213)" fill="url(#u)"/><path data-name="Path" d="M124.375 3.171a1.1 1.1 0 01.225-.28.966.966 0 01.294-.175 1.2 1.2 0 01.357-.07 1.309 1.309 0 01.392.063 1.617 1.617 0 01.5.266 2 2 0 01.658.952 1.778 1.778 0 01.077.574v.145a.9.9 0 010 .133.588.588 0 01-.035.119.124.124 0 01-.049.119 1 1 0 01-.217.287.819.819 0 01-.302.184 1.015 1.015 0 01-.357.077 1.337 1.337 0 01-.4-.056 1.6 1.6 0 01-.512-.273 1.9 1.9 0 01-.658-.973 1.652 1.652 0 01-.073-.581v-.136a.742.742 0 010-.137l.045-.119a.911.911 0 00.055-.119z" fill="#941286"/></g><path data-name="Shape" d="M.17 5.515C-.516 3.45.933 1.091 3.4.279s5.026.21 5.711 2.282-.764 4.417-3.229 5.229a5.48 5.48 0 01-1.715.279A4.049 4.049 0 01.17 5.515z" transform="translate(44.042 15.772)" fill="url(#v)"/><path data-name="Path" d="M3.4 1.7A1.7 1.7 0 111.7 0a1.7 1.7 0 011.7 1.7z" transform="translate(149.744 84.784)" fill="url(#d)"/><path data-name="Path" d="M2.8 1.4A1.4 1.4 0 111.4 0a1.4 1.4 0 011.4 1.4z" transform="translate(24.731 96.964)" fill="url(#w)"/><path data-name="Path" d="M.365 2.744a1.694 1.694 0 111.135.633 1.694 1.694 0 01-1.135-.633z" transform="translate(13.558 56.217)" fill="url(#x)"/><path data-name="Path Copy" d="M.365 2.744a1.694 1.694 0 111.135.633 1.694 1.694 0 01-1.135-.633z" transform="translate(80 96)" fill="url(#x)"/><path data-name="Shape" d="M0 3.612L6.3 0l3.612 6.3-6.307 3.612z" transform="translate(13.293 72.149)" fill="url(#y)"/><path data-name="Shape" d="M0 6.3L3.647 0l6.265 3.64L6.3 9.912z" transform="translate(85.4)" fill="url(#z)"/><g><path data-name="Path" d="M16.716 122.871l-1.141-4.382-2.044-.812 1.232 4.634 1.953.56z" fill="#388bb1"/></g></g><text data-name="Congrats!" transform="translate(40 68)" fill="#fff" font-size="40.48" font-family="Helvetica" letter-spacing=".009em"><tspan x="0" y="0">Congrats!</tspan></text></svg>
