<svg width="21" height="21" viewBox="0 0 21 21" fill="none" xmlns="http://www.w3.org/2000/svg">
<rect x="0.198242" y="0.739746" width="20.18" height="20.18" rx="10.09" fill="#F1634C"/>
<path d="M5.32477 10.1815C5.32045 10.5567 5.55177 10.8945 5.90324 11.0261V9.4179C5.90324 9.39476 5.9148 9.36006 5.9148 9.33691C5.56096 9.46744 5.32563 9.80431 5.32477 10.1815Z" fill="white"/>
<path d="M8.48339 12.1719H6.96777L7.53468 14.2313C7.61864 14.5455 7.90355 14.764 8.22886 14.7635C8.46032 14.7662 8.67931 14.6589 8.81891 14.4742C8.95987 14.2986 9.00334 14.064 8.9346 13.8495L8.48339 12.1719Z" fill="white"/>
<path d="M5.91504 9.32638H5.92746V9.31396C5.92746 9.32638 5.92746 9.32638 5.91504 9.32638Z" fill="white"/>
<path d="M14.2102 9.16406H14.1177V11.2466H14.2102C14.7853 11.2466 15.2515 10.7804 15.2515 10.2053C15.2515 9.63026 14.7853 9.16406 14.2102 9.16406Z" fill="white"/>
<path d="M6.25 9.418V11.0609C6.26251 11.4863 6.61112 11.8247 7.03672 11.8245H9.14239V8.70068H7.03672C6.62022 8.70068 6.25 9.0015 6.25 9.418Z" fill="white"/>
<path d="M9.48975 11.8709L13.7705 13.5832V6.896L9.48975 8.60831V11.8709Z" fill="white"/>
</svg>
