<svg width="21" height="21" viewBox="0 0 21 21" fill="none" xmlns="http://www.w3.org/2000/svg">
<path d="M10.4743 0.794678C4.90252 0.794678 0.384766 5.31244 0.384766 10.8843C0.384766 16.4561 4.90252 20.9747 10.4743 20.9747C16.0462 20.9747 20.5648 16.4561 20.5648 10.8843C20.5648 5.31244 16.0462 0.794678 10.4743 0.794678ZM12.5748 16.4321C12.0554 16.6372 11.642 16.7926 11.3319 16.9002C11.0227 17.0079 10.6631 17.0617 10.254 17.0617C9.62528 17.0617 9.13584 16.9079 8.78733 16.6013C8.43883 16.2946 8.26543 15.906 8.26543 15.4336C8.26543 15.25 8.27824 15.062 8.30387 14.8707C8.33035 14.6794 8.3722 14.4641 8.42943 14.2224L9.07946 11.9263C9.13669 11.706 9.18624 11.4967 9.22553 11.3019C9.26482 11.1055 9.28361 10.9253 9.28361 10.7612C9.28361 10.4691 9.22297 10.2641 9.10253 10.1488C8.98038 10.0335 8.7506 9.97711 8.40808 9.97711C8.24066 9.97711 8.06811 10.0019 7.8913 10.054C7.71619 10.1078 7.56415 10.1565 7.43944 10.2043L7.61113 9.49706C8.03651 9.32366 8.44395 9.17504 8.83261 9.05203C9.22126 8.92732 9.58855 8.86582 9.9345 8.86582C10.5589 8.86582 11.0407 9.01787 11.3798 9.31854C11.7172 9.62006 11.8872 10.0121 11.8872 10.4939C11.8872 10.5938 11.8752 10.7698 11.8521 11.0209C11.8291 11.2729 11.7855 11.5027 11.7223 11.7137L11.0757 14.0029C11.0227 14.1865 10.9757 14.3966 10.933 14.6315C10.8912 14.8664 10.8707 15.0458 10.8707 15.1663C10.8707 15.4703 10.9382 15.6779 11.0748 15.7881C11.2098 15.8983 11.4464 15.9538 11.7812 15.9538C11.9393 15.9538 12.1161 15.9256 12.316 15.871C12.5141 15.8163 12.6576 15.7676 12.7482 15.7257L12.5748 16.4321ZM12.4603 7.14038C12.1588 7.42055 11.7958 7.56064 11.3712 7.56064C10.9476 7.56064 10.582 7.42055 10.2779 7.14038C9.9755 6.86021 9.8226 6.51939 9.8226 6.12134C9.8226 5.72415 9.97635 5.38248 10.2779 5.09974C10.582 4.81616 10.9476 4.67522 11.3712 4.67522C11.7958 4.67522 12.1596 4.81616 12.4603 5.09974C12.7618 5.38248 12.913 5.72415 12.913 6.12134C12.913 6.52025 12.7618 6.86021 12.4603 7.14038Z" fill="#2579B1"/>
</svg>
