<svg width="21" height="21" viewBox="0 0 21 21" fill="none" xmlns="http://www.w3.org/2000/svg">
<rect x="0.383789" y="0.793945" width="20.1818" height="20.1818" rx="10.0909" fill="#FFAA2C"/>
<path d="M8.76562 13.4099C8.79036 13.6078 8.81509 13.7809 8.81509 13.9788H12.1293C12.1293 13.7809 12.1541 13.583 12.1788 13.4099H8.76562Z" fill="white"/>
<path d="M8.81494 14.4736V15.3393C8.81494 15.4877 8.91387 15.5866 9.06227 15.5866H9.13647C9.26014 16.205 9.829 16.6996 10.4721 16.6996C11.1399 16.6996 11.684 16.2297 11.8077 15.5866H11.8819C12.0303 15.5866 12.1292 15.4877 12.1292 15.3393V14.4736H8.81494Z" fill="white"/>
<path d="M10.2742 5.07477C8.5181 5.1737 7.05885 6.55876 6.86098 8.31481C6.76205 9.30414 7.05885 10.2687 7.67718 11.0107C8.14711 11.5796 8.49337 12.2226 8.6665 12.8904H12.2775C12.4507 12.2226 12.7969 11.5549 13.2669 10.986C13.811 10.3429 14.1078 9.52673 14.1078 8.68581C14.1078 6.63296 12.3517 4.97584 10.2742 5.07477V5.07477Z" fill="white"/>
</svg>
