<svg width="44" height="44" viewBox="0 0 44 44" fill="none" xmlns="http://www.w3.org/2000/svg">
  <rect width="44" height="44" rx="3" fill="white" stroke="#E9E9E9"/>
  <g transform="translate(8, 8)">
    <path clipRule="evenodd" d="M17.2601 7.74221C16.7335 7.74221 16.1122 7.865 15.3961 8.11058C14.6799 8.35628 14.1639 8.47919 13.8479 8.47932C13.6022 8.47932 13.1055 8.37046 12.3578 8.15274C11.6101 7.93501 10.9729 7.82615 10.4463 7.82615C9.21066 7.82615 8.18737 8.3458 7.37645 9.3851C6.56555 10.4239 6.16009 11.7683 6.16009 13.4184C6.16328 14.3317 6.29806 15.2398 6.56027 16.1146C6.84885 17.0706 7.24824 17.9895 7.75033 18.8526C8.2839 19.7864 8.821 20.4867 9.36164 20.9536C9.90221 21.4205 10.4463 21.6539 10.994 21.6539C11.359 21.6539 11.8347 21.5328 12.421 21.2905C13.0072 21.0483 13.5215 20.9271 13.9638 20.9272C14.4061 20.9272 14.9485 21.043 15.5909 21.2748C16.2333 21.5067 16.737 21.6226 17.1021 21.6225C17.5655 21.6225 18.0289 21.4469 18.4922 21.0958C18.9556 20.7447 19.419 20.2146 19.8824 19.5054C20.1757 19.0624 20.4412 18.6017 20.6775 18.1259C20.8899 17.6984 21.0678 17.2547 21.2093 16.7988C20.5704 16.6095 20.0017 16.1567 19.5033 15.4404C19.0079 14.7345 18.7464 13.8912 18.7555 13.0289C18.7576 12.444 18.8889 11.8668 19.1399 11.3385C19.3962 10.7873 19.9139 10.1818 20.6933 9.52196C20.1948 8.90406 19.6683 8.4529 19.1136 8.16848C18.539 7.87952 17.9032 7.73328 17.2601 7.74221ZM17.0811 3.67714C15.8243 3.96463 14.9239 4.49821 14.3798 5.27787C13.8357 6.05715 13.5566 6.98031 13.5426 8.04735C14.0902 8.01937 14.529 7.93159 14.859 7.78401C15.2217 7.6135 15.5501 7.37796 15.8279 7.08906C16.2603 6.66848 16.601 6.16287 16.8284 5.6041C17.039 5.07052 17.1443 4.57911 17.1443 4.12987C17.1443 4.05972 17.1408 3.98957 17.1338 3.91903C17.1242 3.83687 17.1065 3.75585 17.0811 3.67714ZM13.895 0C21.569 0 27.79 6.22081 27.79 13.8952C27.79 21.5692 21.569 27.79 13.895 27.79C6.22101 27.79 0 21.5692 0 13.8952C0 6.22083 6.221 0 13.895 0Z" fill="black" fillRule="evenodd"/>
  </g>
</svg>
