<svg width="44" height="44" viewBox="0 0 44 44" fill="none" xmlns="http://www.w3.org/2000/svg">
  <rect width="44" height="44" rx="3" fill="white" stroke="#E9E9E9"/>
  <g transform="translate(8, 8)">
    <path d="M27.79 13.895C27.79 20.8306 22.7086 26.5791 16.0661 27.6212V17.9115H19.3037L19.9198 13.895H16.0661V11.2886C16.0661 10.1895 16.6045 9.11859 18.3305 9.11859H20.0826V5.69912C20.0826 5.69912 18.4923 5.42773 16.972 5.42773C13.7984 5.42773 11.7239 7.35132 11.7239 10.8338V13.895H8.19588V17.9115H11.7239V27.6212C5.08145 26.5791 0 20.8306 0 13.895C0 6.22127 6.22127 0 13.895 0C21.5687 0 27.79 6.22127 27.79 13.895Z" fill="#1877F2"/>
    <path d="M19.3032 17.9115L19.9192 13.895H16.0655V11.2885C16.0655 10.1897 16.6038 9.11859 18.3299 9.11859H20.0821V5.69912C20.0821 5.69912 18.4919 5.42773 16.9717 5.42773C13.7978 5.42773 11.7233 7.35132 11.7233 10.8338V13.895H8.19531V17.9115H11.7233V27.6211C12.4308 27.7321 13.1558 27.79 13.8944 27.79C14.633 27.79 15.3581 27.7321 16.0655 27.6211V17.9115H19.3032Z" fill="white"/>
  </g>
</svg>
