<svg width="44" height="44" viewBox="0 0 44 44" fill="none" xmlns="http://www.w3.org/2000/svg">
  <rect width="44" height="44" rx="3" fill="white" stroke="#E9E9E9"/>
  <g transform="translate(5, 5)" clipPath="url(#clip0_3624_21593)">
    <path d="M27.4611 14.1542C27.4611 13.0156 27.3687 12.1848 27.1688 11.3232H14.168V16.462H21.7991C21.6454 17.739 20.8145 19.6622 18.9682 20.9545L18.9423 21.1266L23.053 24.311L23.3378 24.3394C25.9533 21.9239 27.4611 18.3698 27.4611 14.1542Z" fill="#4285F4"/>
    <path d="M14.1649 27.6943C17.9036 27.6943 21.0422 26.4634 23.3347 24.3403L18.9652 20.9554C17.7959 21.7708 16.2266 22.3401 14.1649 22.3401C10.5032 22.3401 7.39535 19.9246 6.28748 16.5859L6.12509 16.5997L1.85082 19.9076L1.79492 20.063C4.07196 24.5863 8.74918 27.6943 14.1649 27.6943Z" fill="#34A853"/>
    <path d="M6.28971 16.5854C5.99739 15.7238 5.82822 14.8006 5.82822 13.8468C5.82822 12.8928 5.99739 11.9697 6.27433 11.1081L6.26659 10.9246L1.93875 7.5636L1.79715 7.63095C0.858673 9.50802 0.320172 11.6159 0.320172 13.8468C0.320172 16.0777 0.858673 18.1854 1.79715 20.0625L6.28971 16.5854Z" fill="#FBBC05"/>
    <path d="M14.1649 5.35414C16.7651 5.35414 18.519 6.47728 19.5191 7.41586L23.427 3.60022C21.0269 1.36932 17.9036 0 14.1649 0C8.74918 0 4.07196 3.10786 1.79492 7.63118L6.2721 11.1084C7.39535 7.7697 10.5032 5.35414 14.1649 5.35414Z" fill="#EB4335"/>
  </g>
  <defs>
    <clipPath id="clip0_3624_21593">
      <rect fill="white" height="34" width="34"/>
    </clipPath>
  </defs>
</svg>
