<svg width="44" height="44" viewBox="0 0 44 44" fill="none" xmlns="http://www.w3.org/2000/svg">
  <rect width="44" height="44" rx="3" fill="white" stroke="#E9E9E9"/>
  <g transform="translate(8, 8)">
    <path d="M13.895 27.79C21.569 27.79 27.79 21.569 27.79 13.895C27.79 6.221 21.569 0 13.895 0C6.221 0 0 6.221 0 13.895C0 21.569 6.221 27.79 13.895 27.79Z" fill="#0B69C7"/>
    <g>
      <path d="M10.7858 8.8432C10.7861 9.2187 10.6751 9.58587 10.4667 9.89823C10.2583 10.2106 9.96193 10.4541 9.61509 10.598C9.26824 10.7419 8.88651 10.7796 8.51821 10.7064C8.14991 10.6333 7.81159 10.4525 7.54608 10.187C7.28056 9.92144 7.09978 9.58312 7.02661 9.21482C6.95344 8.84652 6.99118 8.46479 7.13504 8.11794C7.27891 7.7711 7.52243 7.47473 7.8348 7.26634C8.14716 7.05795 8.51433 6.9469 8.88983 6.94727C9.39251 6.94775 9.87447 7.14766 10.2299 7.50311C10.5854 7.85856 10.7853 8.34052 10.7858 8.8432Z" fill="white"/>
      <path d="M9.88824 11.5303H7.89175C7.63224 11.5303 7.42188 11.7406 7.42188 12.0001V20.3719C7.42188 20.6314 7.63224 20.8418 7.89175 20.8418H9.88824C10.1477 20.8418 10.3581 20.6314 10.3581 20.3719V12.0001C10.3581 11.7406 10.1477 11.5303 9.88824 11.5303Z" fill="white"/>
      <path d="M20.7975 16.3574V20.4107C20.7975 20.5251 20.752 20.6349 20.6711 20.7158C20.5902 20.7967 20.4805 20.8422 20.366 20.8422H18.2233C18.1088 20.8422 17.9991 20.7967 17.9182 20.7158C17.8372 20.6349 17.7918 20.5251 17.7918 20.4107V16.4835C17.7918 15.8966 17.9618 13.9239 16.2597 13.9239C14.9397 13.9239 14.6709 15.2805 14.6142 15.8893V20.4198C14.6118 20.532 14.5658 20.6389 14.486 20.7178C14.4061 20.7966 14.2986 20.8412 14.1864 20.8422H12.1131C12.0564 20.8424 12.0002 20.8314 11.9477 20.8098C11.8953 20.7882 11.8476 20.7564 11.8075 20.7163C11.7674 20.6762 11.7356 20.6285 11.714 20.5761C11.6924 20.5236 11.6814 20.4674 11.6816 20.4107V11.964C11.6814 11.9072 11.6924 11.8509 11.714 11.7983C11.7355 11.7457 11.7673 11.698 11.8074 11.6577C11.8475 11.6174 11.8951 11.5855 11.9476 11.5637C12 11.5419 12.0563 11.5307 12.1131 11.5307H14.1864C14.2439 11.5297 14.301 11.5402 14.3545 11.5615C14.4079 11.5829 14.4565 11.6146 14.4975 11.655C14.5385 11.6953 14.5711 11.7434 14.5934 11.7965C14.6156 11.8495 14.627 11.9065 14.627 11.964V12.6953C15.117 11.964 15.8447 11.3936 17.3932 11.3936C20.8176 11.3917 20.7975 14.5967 20.7975 16.3574Z" fill="white"/>
    </g>
  </g>
</svg>
