<svg width="44" height="44" viewBox="0 0 44 44" fill="none" xmlns="http://www.w3.org/2000/svg">
  <rect width="44" height="44" rx="3" fill="white" stroke="#E9E9E9"/>
  <g transform="translate(8, 8)">
    <path d="M13.895 0C6.22127 0 0 6.22127 0 13.895C0 21.5687 6.22127 27.79 13.895 27.79C21.5687 27.79 27.79 21.5687 27.79 13.895C27.79 6.22127 21.5687 0 13.895 0Z" fill="black"/>
    <path d="M15.4155 12.637L21.3638 5.72266H19.9542L14.7893 11.7263L10.6642 5.72266H5.90625L12.1443 14.8013L5.90625 22.0521H7.31588L12.7702 15.712L17.1266 22.0521H21.8845L15.4151 12.637H15.4155ZM7.82378 6.78382H9.98889L19.9549 21.0392H17.7898L7.82378 6.78382Z" fill="white"/>
  </g>
</svg>
