<svg xmlns="http://www.w3.org/2000/svg" viewBox="0 0 75 23.56"><defs><style>.cls-1{fill:#4d4d4f;}.cls-2{fill:#f2634d;}</style></defs><title>Dokan_normal</title><g id="Layer_2" data-name="Layer 2"><g id="Layer_1-2" data-name="Layer 1"><path class="cls-1" d="M33.68,17.52c0,2.8-2,4.47-6.13,4.47s-6.13-1.68-6.13-4.47V12.77c0-2.8,2-4.47,6.13-4.47s6.13,1.68,6.13,4.47Zm-3.31-4.37c0-1.55-.48-2.44-2.82-2.44s-2.82.89-2.82,2.44v4c0,1.55.48,2.44,2.82,2.44s2.82-.89,2.82-2.44Z"/><path class="cls-1" d="M43,14.32c3.79,1.35,3.92,4.42,5.47,7.22a13.31,13.31,0,0,1-1.88.33c-3.51,0-1.53-5.29-6.76-6.15v6.15s-3.31,0-3.31-1.65V2.27s3.31,0,3.31,1.65v9.25c1.5-.23,2.34-1.35,3.48-3.51a2.59,2.59,0,0,1,2.44-1.25,6.11,6.11,0,0,1,1.81.31C46.12,10.63,45.25,13.4,43,14.32Z"/><path class="cls-1" d="M57.35,12.49c0-.92-.51-1.73-2.47-1.73-2.14,0-4.07.74-4.07,2.87a4.08,4.08,0,0,1-1-2.47c0-2.21,3-2.87,5.06-2.87,3.74,0,5.72,1.58,5.72,4.35v9.31a4.24,4.24,0,0,0-2-.41c-1.27,0-2.54.46-4,.46-2.62,0-5.19-1-5.19-4C49.5,13.25,56.31,14.5,57.35,12.49Zm.08,2.59c-.59,1.35-4.65.61-4.65,2.87,0,1.14.84,1.73,2.29,1.73a6.34,6.34,0,0,0,2.36-.46Z"/><path class="cls-1" d="M71.69,12.87c0-1.35-.64-2.11-2.44-2.11a8.92,8.92,0,0,0-2.42.36V21.87s-3.31,0-3.31-1.65V8.29a5.31,5.31,0,0,0,2.29.53c1.25,0,2.42-.53,3.79-.53,2.62,0,5.39.89,5.39,4.2v9.38s-3.31-.05-3.31-1.65Z"/><path class="cls-2" d="M1.47,1.17s11.8-.87,11.8,9.31S10.15,22.69,7.42,23.35c0,0,11.37,2.74,11.37-11.58S4.28-.49,1.47,1.17Z"/><path class="cls-2" d="M11.06,18.48s-1.14,4-4.58,4.45S2.4,21.57,0,21.7a1.92,1.92,0,0,1,1.74-2.12c1.94-.26,5.57.25,8-1.28a8.86,8.86,0,0,0,1.71-1.11Z"/><path class="cls-2" d="M1.29,1.88v4.9h0V19l.37-.07a19,19,0,0,1,2-.11c.71,0,1.49,0,2.27-.1V12.95C6,11,5.85,9.08,6,7.18a3.13,3.13,0,0,1,2-2.56,3.23,3.23,0,0,1,2.64.17A15.56,15.56,0,0,0,1.29,1.88Z"/></g></g></svg>