<svg width="131" height="33" viewBox="0 0 131 33" fill="none" xmlns="http://www.w3.org/2000/svg">
<path d="M118.564 22.7179C118.564 23.9783 117.543 25 116.282 25C115.022 25 114 23.9783 114 22.7179V7.34615H115.103L116.608 9.06044C117.344 8.4011 118.174 7.8956 119.099 7.54396C120.036 7.18132 121.011 7 122.025 7C123.117 7 124.148 7.20879 125.118 7.62637C126.088 8.03297 126.935 8.5989 127.659 9.32418C128.384 10.0385 128.952 10.8791 129.365 11.8462C129.788 12.8022 130 13.8242 130 14.9121V22.7179C130 23.9783 128.978 25 127.718 25C126.457 25 125.436 23.9783 125.436 22.7179V14.9121C125.436 14.4505 125.347 14.0165 125.168 13.6099C124.99 13.1923 124.745 12.8297 124.433 12.522C124.121 12.2143 123.758 11.9725 123.346 11.7967C122.933 11.6209 122.493 11.533 122.025 11.533C121.546 11.533 121.094 11.6209 120.671 11.7967C120.247 11.9725 119.879 12.2143 119.567 12.522C119.255 12.8297 119.01 13.1923 118.832 13.6099C118.653 14.0165 118.564 14.4505 118.564 14.9121V22.7179Z" fill="white" stroke="white" stroke-width="0.374337"/>
<path d="M111 24.682H109.914L108.17 22.3445C107.742 22.7155 107.287 23.0654 106.804 23.394C106.333 23.712 105.834 23.9929 105.307 24.2367C104.781 24.47 104.238 24.6555 103.678 24.7933C103.13 24.9311 102.57 25 102 25C100.761 25 99.5923 24.7986 98.4954 24.3958C97.4095 23.9929 96.4552 23.4099 95.6325 22.6466C94.8208 21.8728 94.1792 20.9293 93.7075 19.8163C93.2358 18.7032 93 17.4364 93 16.0159C93 14.6908 93.2358 13.477 93.7075 12.3746C94.1792 11.2615 94.8208 10.3074 95.6325 9.51237C96.4552 8.71731 97.4095 8.10247 98.4954 7.66784C99.5923 7.22261 100.761 7 102 7C102.57 7 103.135 7.0689 103.695 7.20671C104.254 7.34452 104.797 7.53534 105.324 7.77915C105.85 8.02297 106.349 8.30919 106.821 8.63781C107.303 8.96643 107.753 9.32155 108.17 9.70318L109.914 7.68375H111V24.682ZM106.475 16.0159C106.475 15.4223 106.355 14.8498 106.113 14.2986C105.883 13.7367 105.565 13.2438 105.159 12.8198C104.753 12.3852 104.276 12.0406 103.728 11.7862C103.19 11.5212 102.614 11.3887 102 11.3887C101.386 11.3887 100.804 11.4894 100.256 11.6908C99.7185 11.8922 99.2468 12.189 98.841 12.5813C98.4461 12.9735 98.1335 13.4611 97.9031 14.0442C97.6728 14.6166 97.5576 15.2739 97.5576 16.0159C97.5576 16.758 97.6728 17.4205 97.9031 18.0035C98.1335 18.576 98.4461 19.0583 98.841 19.4505C99.2468 19.8428 99.7185 20.1396 100.256 20.341C100.804 20.5424 101.386 20.6431 102 20.6431C102.614 20.6431 103.19 20.5159 103.728 20.2615C104.276 19.9965 104.753 19.6519 105.159 19.2279C105.565 18.7933 105.883 18.3004 106.113 17.7491C106.355 17.1873 106.475 16.6095 106.475 16.0159Z" fill="white" stroke="white" stroke-width="0.374337"/>
<path d="M80.9677 24.3405C80.6563 24.7557 80.1677 25 79.6487 25C78.7382 25 78 24.2618 78 23.3513V6.07078C78 4.92712 78.9271 4 80.0708 4C81.2144 4 82.1416 4.92712 82.1416 6.07078V16.0203L87.7017 8.4197C88.0596 7.93054 88.6293 7.64143 89.2354 7.64143C90.7946 7.64143 91.6902 9.41575 90.7641 10.6702L87.6536 14.8836L91.3833 21.9408C92.1171 23.3294 91.1104 25 89.5399 25C88.7605 25 88.0462 24.5653 87.6881 23.8731L85.003 18.6834L82.1416 22.7754L80.9677 24.3405Z" fill="white" stroke="white" stroke-width="0.374337"/>
<path d="M75 16.0159C75 17.288 74.7642 18.4753 74.2925 19.5777C73.8208 20.6696 73.1792 21.6184 72.3675 22.424C71.5558 23.2191 70.6015 23.8498 69.5046 24.3163C68.4186 24.7721 67.2505 25 66 25C64.7605 25 63.5923 24.7721 62.4954 24.3163C61.4095 23.8498 60.4552 23.2191 59.6325 22.424C58.8208 21.6184 58.1792 20.6696 57.7075 19.5777C57.2358 18.4753 57 17.288 57 16.0159C57 14.7226 57.2358 13.5247 57.7075 12.4223C58.1792 11.3198 58.8208 10.371 59.6325 9.57597C60.4552 8.77032 61.4095 8.13958 62.4954 7.68375C63.5923 7.22791 64.7605 7 66 7C67.2505 7 68.4186 7.21731 69.5046 7.65194C70.6015 8.07597 71.5558 8.68551 72.3675 9.48057C73.1792 10.265 73.8208 11.2138 74.2925 12.3269C74.7642 13.4293 75 14.659 75 16.0159ZM70.4753 16.0159C70.4753 15.3163 70.3547 14.6855 70.1133 14.1237C69.883 13.5512 69.5649 13.0636 69.1591 12.6608C68.7532 12.2473 68.2761 11.9346 67.7276 11.7226C67.1901 11.5 66.6143 11.3887 66 11.3887C65.3857 11.3887 64.8044 11.5 64.2559 11.7226C63.7185 11.9346 63.2468 12.2473 62.841 12.6608C62.4461 13.0636 62.1335 13.5512 61.9031 14.1237C61.6728 14.6855 61.5576 15.3163 61.5576 16.0159C61.5576 16.6731 61.6728 17.2827 61.9031 17.8445C62.1335 18.4064 62.4461 18.894 62.841 19.3074C63.2468 19.7208 63.7185 20.0495 64.2559 20.2933C64.8044 20.5265 65.3857 20.6431 66 20.6431C66.6143 20.6431 67.1901 20.5318 67.7276 20.3092C68.2761 20.0866 68.7532 19.7739 69.1591 19.371C69.5649 18.9682 69.883 18.4806 70.1133 17.9081C70.3547 17.3357 70.4753 16.7049 70.4753 16.0159Z" fill="white" stroke="white" stroke-width="0.374337"/>
<path d="M55 24.6802H53.9141L52.17 22.3295C51.7422 22.7026 51.287 23.0544 50.8044 23.3849C50.3327 23.7047 49.8336 23.9872 49.3071 24.2324C48.7806 24.467 48.2377 24.6535 47.6782 24.7921C47.1298 24.9307 46.5704 25 46 25C44.7605 25 43.5923 24.7761 42.4954 24.3284C41.4095 23.87 40.4552 23.241 39.6325 22.4415C38.8208 21.6313 38.1792 20.6771 37.7075 19.5791C37.2358 18.4704 37 17.2658 37 15.9652C37 14.6752 37.2358 13.4759 37.7075 12.3672C38.1792 11.2585 38.8208 10.2991 39.6325 9.48889C40.4552 8.67868 41.4095 8.04438 42.4954 7.58598C43.5923 7.12757 44.7605 6.89837 46 6.89837C46.3949 6.89837 46.8007 6.93035 47.2176 6.99431C47.6453 7.05828 48.0567 7.16488 48.4516 7.31413C48.8574 7.45272 49.2358 7.63928 49.5868 7.87381C49.9378 8.10834 50.234 8.39618 50.4753 8.73732V6.26234C50.4753 5.01288 51.4882 4 52.7377 4C53.9871 4 55 5.01288 55 6.26234V24.6802ZM50.4753 15.9652C50.4753 15.3682 50.3547 14.7925 50.1133 14.2382C49.883 13.6732 49.5649 13.1774 49.159 12.751C48.7532 12.3139 48.2761 11.9675 47.7276 11.7116C47.1901 11.4451 46.6143 11.3118 46 11.3118C45.3857 11.3118 44.8044 11.4184 44.2559 11.6317C43.7185 11.8449 43.2468 12.154 42.841 12.5591C42.4461 12.9536 42.1335 13.4386 41.9031 14.0143C41.6728 14.59 41.5576 15.2403 41.5576 15.9652C41.5576 16.5941 41.6728 17.1911 41.9031 17.7561C42.1335 18.3212 42.4461 18.8169 42.841 19.2433C43.2468 19.6697 43.7185 20.0055 44.2559 20.2507C44.8044 20.4959 45.3857 20.6185 46 20.6185C46.6143 20.6185 47.1901 20.4906 47.7276 20.2347C48.2761 19.9682 48.7532 19.6217 49.159 19.1953C49.5649 18.7582 49.883 18.2625 50.1133 17.7082C50.3547 17.1432 50.4753 16.5622 50.4753 15.9652Z" fill="white" stroke="white" stroke-width="0.374337"/>
<path d="M18.7807 15.3238C18.7584 20.82 16.3997 26.4943 11.5265 29.0755C8.09973 30.9002 0 32.302 0 26.3608C0 26.3608 0 4.26451 0 4.24226C0 0.948962 2.7815 -0.141387 5.563 0.0143773C9.70187 0.236897 13.6627 2.17282 16.066 5.73315C17.6013 8.00285 18.4469 10.7398 18.7139 13.4991C18.7362 14.1222 18.7807 14.723 18.7807 15.3238Z" fill="url(#paint0_linear_181_76)"/>
<path d="M26.457 13.388C25.9897 8.84855 23.2082 5.04345 19.3586 2.75149C16.7996 1.2161 13.5953 0.837823 11.9264 3.9086C11.9264 3.93085 0.689128 24.5807 0.689128 24.5807C-0.289961 26.3831 -0.0674391 27.874 0.822641 29.0979C2.15776 30.9225 4.80575 31.7459 6.96419 31.9684C8.96687 32.1909 10.9918 31.9684 12.9277 31.5233C18.78 30.1882 23.9647 26.2051 25.7226 20.4196C26.4124 18.1499 26.7017 15.7689 26.457 13.388Z" fill="url(#paint1_linear_181_76)"/>
<path d="M11.5264 29.0982C16.3996 26.4947 18.7584 20.8205 18.7806 15.3465C18.7806 14.7457 18.7584 14.1449 18.6916 13.5441C18.4468 10.7848 17.579 8.04781 16.0436 5.7781C15.198 4.50974 14.1522 3.4639 12.9728 2.59607C12.5945 2.92985 12.2385 3.37489 11.9492 3.93119C11.9492 3.95344 0.711977 24.6033 0.711977 24.6033C-0.0223396 25.9384 -0.0668477 27.1178 0.311436 28.1414C0.311436 28.1636 0.33369 28.1859 0.33369 28.2081C0.355942 28.2526 0.378191 28.3194 0.400443 28.3639C0.422695 28.4084 0.422698 28.4306 0.44495 28.4751C0.44495 28.4974 0.467203 28.5197 0.467203 28.5197C2.22511 31.902 8.58918 30.6558 11.5264 29.0982Z" fill="url(#paint2_linear_181_76)"/>
<defs>
<linearGradient id="paint0_linear_181_76" x1="9.38578" y1="1.71559" x2="9.38578" y2="12.5005" gradientUnits="userSpaceOnUse">
<stop stop-color="#5711CF"/>
<stop offset="1" stop-color="#800BD1"/>
</linearGradient>
<linearGradient id="paint1_linear_181_76" x1="22.4242" y1="4.93057" x2="9.18953" y2="30.5728" gradientUnits="userSpaceOnUse">
<stop stop-color="#FE9879"/>
<stop offset="1" stop-color="#FE7598"/>
</linearGradient>
<linearGradient id="paint2_linear_181_76" x1="17.0583" y1="4.30522" x2="6.80139" y2="28.7894" gradientUnits="userSpaceOnUse">
<stop offset="0.0141305" stop-color="#D8476F"/>
<stop offset="0.9955" stop-color="#E93083"/>
</linearGradient>
</defs>
</svg>
