<?xml version="1.0" encoding="utf-8"?>
<!-- Generator: Adobe Illustrator 21.0.0, SVG Export Plug-In . SVG Version: 6.00 Build 0)  -->
<svg version="1.1" id="Layer_1" xmlns="http://www.w3.org/2000/svg" xmlns:xlink="http://www.w3.org/1999/xlink" x="0px" y="0px"
	 viewBox="0 0 75 23.6" style="enable-background:new 0 0 75 23.6;" xml:space="preserve">
<style type="text/css">
	.st0{fill:#FFFFFF;}
</style>
<title>Dokan_Hovre</title>
<g id="Layer_2">
	<g id="Layer_1-2">
		<path class="st0" d="M33.7,17.5c0,2.8-2,4.5-6.1,4.5s-6.1-1.7-6.1-4.5v-4.8c0-2.8,2-4.5,6.1-4.5s6.1,1.7,6.1,4.5V17.5z M30.4,13.2
			c0-1.6-0.5-2.4-2.8-2.4s-2.8,0.9-2.8,2.4v4c0,1.5,0.5,2.4,2.8,2.4s2.8-0.9,2.8-2.4V13.2z"/>
		<path class="st0" d="M43,14.3c3.8,1.4,3.9,4.4,5.5,7.2c-0.6,0.2-1.2,0.3-1.9,0.3c-3.5,0-1.5-5.3-6.8-6.1v6.1c0,0-3.3,0-3.3-1.6
			V2.3c0,0,3.3,0,3.3,1.7v9.2c1.5-0.2,2.3-1.4,3.5-3.5c0.5-0.8,1.5-1.3,2.4-1.2c0.6,0,1.2,0.1,1.8,0.3C46.1,10.6,45.2,13.4,43,14.3z
			"/>
		<path class="st0" d="M57.3,12.5c0-0.9-0.5-1.7-2.5-1.7c-2.1,0-4.1,0.7-4.1,2.9c-0.6-0.7-1-1.6-1-2.5c0-2.2,3-2.9,5.1-2.9
			c3.7,0,5.7,1.6,5.7,4.3V22c-0.6-0.3-1.3-0.4-2-0.4c-1.3,0-2.5,0.5-4,0.5c-2.6,0-5.2-1-5.2-4C49.5,13.2,56.3,14.5,57.3,12.5z
			 M57.4,15.1c-0.6,1.4-4.7,0.6-4.7,2.9c0,1.1,0.8,1.7,2.3,1.7c0.8,0,1.6-0.2,2.4-0.5V15.1z"/>
		<path class="st0" d="M71.7,12.9c0-1.4-0.6-2.1-2.4-2.1c-0.8,0-1.6,0.1-2.4,0.4v10.8c0,0-3.3,0-3.3-1.6V8.3
			c0.7,0.3,1.5,0.5,2.3,0.5c1.2,0,2.4-0.5,3.8-0.5c2.6,0,5.4,0.9,5.4,4.2v9.4c0,0-3.3,0-3.3-1.6L71.7,12.9z"/>
		<path class="st0" d="M1.5,1.2c0,0,11.8-0.9,11.8,9.3s-3.1,12.2-5.9,12.9c0,0,11.4,2.7,11.4-11.6S4.3-0.5,1.5,1.2z"/>
		<path class="st0" d="M11.1,18.5c0,0-1.1,4-4.6,4.5S2.4,21.6,0,21.7c-0.1-1.1,0.6-2,1.7-2.1c0,0,0,0,0,0c1.9-0.3,5.6,0.2,8-1.3
			c0.6-0.3,1.2-0.7,1.7-1.1L11.1,18.5z"/>
		<path class="st0" d="M1.3,1.9v4.9l0,0V19l0.4-0.1c0.7-0.1,1.3-0.1,2-0.1c0.7,0,1.5,0,2.3-0.1v-5.8C6,11,5.8,9.1,6,7.2
			C6.1,6,6.9,5,8,4.6c0.9-0.3,1.8-0.3,2.6,0.2C7.9,2.8,4.6,1.8,1.3,1.9z"/>
	</g>
</g>
</svg>
