<svg width="328" height="146" viewBox="0 0 328 146" fill="none" xmlns="http://www.w3.org/2000/svg">
<rect width="328" height="97" fill="#F3F3F3"/>
<rect opacity="0.15" x="137.839" y="19.4722" width="57.604" height="57.604" rx="28.802" fill="#DCDCDC" stroke="#828282" stroke-width="0.944328"/>
<g style="mix-blend-mode:luminosity" opacity="0.33">
<path d="M176.555 41.1943V58.7441C176.555 59.5373 175.996 60.0811 175.424 60.0811H157.854C157.282 60.0809 156.724 59.5378 156.724 58.7441V41.1943H176.555Z" fill="white" stroke="#828282" stroke-width="0.944328"/>
<mask id="path-3-inside-1_7715_21576" fill="white">
<path d="M159.376 45.3486L159.371 46.4512C159.371 48.1025 158.039 49.4414 156.395 49.4414C154.752 49.4413 153.42 48.1024 153.42 46.4512V45.3477C154.51 42.9667 155.602 40.5852 156.692 38.2041C157.307 36.8613 158.649 36.0001 160.126 36H161.945C161.089 39.1161 160.232 42.2326 159.376 45.3486Z"/>
</mask>
<path d="M159.376 45.3486L159.371 46.4512C159.371 48.1025 158.039 49.4414 156.395 49.4414C154.752 49.4413 153.42 48.1024 153.42 46.4512V45.3477C154.51 42.9667 155.602 40.5852 156.692 38.2041C157.307 36.8613 158.649 36.0001 160.126 36H161.945C161.089 39.1161 160.232 42.2326 159.376 45.3486Z" fill="#E9E9E9"/>
<path d="M159.376 45.3486L158.465 45.0983L158.432 45.2191L158.431 45.3445L159.376 45.3486ZM159.371 46.4512L158.427 46.447L158.427 46.4511L159.371 46.4512ZM156.395 49.4414L156.395 50.3857H156.395V49.4414ZM153.42 46.4512L152.475 46.4512L152.475 46.4512L153.42 46.4512ZM153.42 45.3477L152.561 44.9544L152.475 45.1416V45.3477H153.42ZM156.692 38.2041L155.834 37.8108L155.834 37.8109L156.692 38.2041ZM160.126 36L160.126 35.0557L160.126 35.0557L160.126 36ZM161.945 36L162.856 36.2502L163.184 35.0557H161.945V36ZM159.376 45.3486L158.431 45.3445L158.427 46.447L159.371 46.4512L160.315 46.4554L160.32 45.3528L159.376 45.3486ZM159.371 46.4512L158.427 46.4511C158.426 47.5853 157.513 48.4971 156.395 48.4971V49.4414V50.3857C158.564 50.3857 160.315 48.6196 160.315 46.4512L159.371 46.4512ZM156.395 49.4414L156.395 48.4971C155.278 48.497 154.364 47.5852 154.364 46.4511L153.42 46.4512L152.475 46.4512C152.475 48.6196 154.226 50.3856 156.395 50.3857L156.395 49.4414ZM153.42 46.4512H154.364V45.3477H153.42H152.475V46.4512H153.42ZM153.42 45.3477L154.278 45.741C155.369 43.3601 156.46 40.9785 157.551 38.5973L156.692 38.2041L155.834 37.8109C154.743 40.1919 153.652 42.5733 152.561 44.9544L153.42 45.3477ZM156.692 38.2041L157.551 38.5974C158.012 37.5902 159.018 36.9444 160.126 36.9443L160.126 36L160.126 35.0557C158.279 35.0558 156.603 36.1323 155.834 37.8108L156.692 38.2041ZM160.126 36V36.9443H161.945V36V35.0557H160.126V36ZM161.945 36L161.034 35.7498C160.178 38.8658 159.322 41.9823 158.465 45.0983L159.376 45.3486L160.286 45.5989C161.143 42.4828 162 39.3663 162.856 36.2502L161.945 36Z" fill="#828282" mask="url(#path-3-inside-1_7715_21576)"/>
<mask id="path-5-inside-2_7715_21576" fill="white">
<path d="M164.471 45.3477H164.473L164.469 46.4512C164.468 48.1025 163.136 49.4414 161.493 49.4414C159.85 49.4413 158.517 48.1024 158.517 46.4512V45.3486H158.515C159.371 42.2326 160.228 39.1161 161.085 36H165.329C165.043 39.1157 164.757 42.2319 164.471 45.3477Z"/>
</mask>
<path d="M164.471 45.3477H164.473L164.469 46.4512C164.468 48.1025 163.136 49.4414 161.493 49.4414C159.85 49.4413 158.517 48.1024 158.517 46.4512V45.3486H158.515C159.371 42.2326 160.228 39.1161 161.085 36H165.329C165.043 39.1157 164.757 42.2319 164.471 45.3477Z" fill="#E9E9E9"/>
<path d="M164.471 45.3477L163.531 45.2616L163.437 46.292H164.471V45.3477ZM164.473 45.3477L165.418 45.3518L165.422 44.4033H164.473V45.3477ZM164.469 46.4512L163.524 46.447L163.524 46.4511L164.469 46.4512ZM161.493 49.4414L161.493 50.3857H161.493V49.4414ZM158.517 46.4512L157.573 46.4512L157.573 46.4512L158.517 46.4512ZM158.517 45.3486H159.462V44.4043H158.517V45.3486ZM158.515 45.3486L157.605 45.0985L157.277 46.293H158.515V45.3486ZM161.085 36V35.0557H160.365L160.174 35.7497L161.085 36ZM165.329 36L166.269 36.0862L166.364 35.0557H165.329V36ZM164.471 45.3477V46.292H164.473V45.3477V44.4033H164.471V45.3477ZM164.473 45.3477L163.529 45.3435L163.524 46.447L164.469 46.4512L165.413 46.4554L165.418 45.3518L164.473 45.3477ZM164.469 46.4512L163.524 46.4511C163.524 47.5853 162.61 48.4971 161.493 48.4971V49.4414V50.3857C163.662 50.3857 165.413 48.6196 165.413 46.4512L164.469 46.4512ZM161.493 49.4414L161.493 48.4971C160.376 48.497 159.462 47.5852 159.462 46.4511L158.517 46.4512L157.573 46.4512C157.573 48.6196 159.324 50.3856 161.493 50.3857L161.493 49.4414ZM158.517 46.4512H159.462V45.3486H158.517H157.573V46.4512H158.517ZM158.517 45.3486V44.4043H158.515V45.3486V46.293H158.517V45.3486ZM158.515 45.3486L159.426 45.5988C160.282 42.4828 161.139 39.3663 161.995 36.2503L161.085 36L160.174 35.7497C159.318 38.8658 158.461 41.9823 157.605 45.0985L158.515 45.3486ZM161.085 36V36.9443H165.329V36V35.0557H161.085V36ZM165.329 36L164.388 35.9138C164.103 39.0291 163.816 42.1458 163.531 45.2616L164.471 45.3477L165.412 45.4337C165.697 42.318 165.984 39.2024 166.269 36.0862L165.329 36Z" fill="#828282" mask="url(#path-5-inside-2_7715_21576)"/>
<mask id="path-7-inside-3_7715_21576" fill="white">
<path d="M169.567 45.3477L169.562 46.4512C169.562 48.1025 168.23 49.4414 166.587 49.4414C164.944 49.4413 163.611 48.1024 163.611 46.4512V45.3477C163.896 42.2319 164.182 39.1157 164.468 36H168.711C168.996 39.1157 169.282 42.2319 169.567 45.3477Z"/>
</mask>
<path d="M169.567 45.3477L169.562 46.4512C169.562 48.1025 168.23 49.4414 166.587 49.4414C164.944 49.4413 163.611 48.1024 163.611 46.4512V45.3477C163.896 42.2319 164.182 39.1157 164.468 36H168.711C168.996 39.1157 169.282 42.2319 169.567 45.3477Z" fill="#E9E9E9"/>
<path d="M169.567 45.3477L170.511 45.3518L170.512 45.3066L170.508 45.2616L169.567 45.3477ZM169.562 46.4512L168.618 46.447L168.618 46.4511L169.562 46.4512ZM166.587 49.4414L166.587 50.3857H166.587V49.4414ZM163.611 46.4512L162.667 46.4512L162.667 46.4512L163.611 46.4512ZM163.611 45.3477L162.671 45.2616L162.667 45.3045V45.3477H163.611ZM164.468 36V35.0557H163.606L163.527 35.9139L164.468 36ZM168.711 36L169.651 35.9138L169.572 35.0557H168.711V36ZM169.567 45.3477L168.623 45.3435L168.618 46.447L169.562 46.4512L170.507 46.4554L170.511 45.3518L169.567 45.3477ZM169.562 46.4512L168.618 46.4511C168.618 47.5855 167.704 48.4971 166.587 48.4971V49.4414V50.3857C168.756 50.3857 170.506 48.6195 170.507 46.4512L169.562 46.4512ZM166.587 49.4414L166.587 48.4971C165.469 48.497 164.555 47.5852 164.555 46.4511L163.611 46.4512L162.667 46.4512C162.667 48.6196 164.418 50.3856 166.587 50.3857L166.587 49.4414ZM163.611 46.4512H164.555V45.3477H163.611H162.667V46.4512H163.611ZM163.611 45.3477L164.551 45.4337C164.694 43.8759 164.837 42.318 164.98 40.76C165.123 39.2021 165.265 37.644 165.408 36.0861L164.468 36L163.527 35.9139C163.385 37.4717 163.242 39.0296 163.099 40.5876C162.956 42.1456 162.813 43.7036 162.671 45.2616L163.611 45.3477ZM164.468 36V36.9443H168.711V36V35.0557H164.468V36ZM168.711 36L167.77 36.0862C168.056 39.2019 168.342 42.3181 168.627 45.4337L169.567 45.3477L170.508 45.2616C170.222 42.1458 169.937 39.0295 169.651 35.9138L168.711 36Z" fill="#828282" mask="url(#path-7-inside-3_7715_21576)"/>
<mask id="path-9-inside-4_7715_21576" fill="white">
<path d="M173.048 36C174.525 36.0002 175.866 36.8613 176.481 38.2041C177.572 40.5852 178.663 42.9667 179.754 45.3477H179.755L179.75 46.4512C179.75 48.1025 178.417 49.4414 176.774 49.4414C175.131 49.4413 173.799 48.1024 173.799 46.4512V45.3486H173.798C172.941 42.2325 172.084 39.1161 171.228 36H173.048Z"/>
</mask>
<path d="M173.048 36C174.525 36.0002 175.866 36.8613 176.481 38.2041C177.572 40.5852 178.663 42.9667 179.754 45.3477H179.755L179.75 46.4512C179.75 48.1025 178.417 49.4414 176.774 49.4414C175.131 49.4413 173.799 48.1024 173.799 46.4512V45.3486H173.798C172.941 42.2325 172.084 39.1161 171.228 36H173.048Z" fill="#E9E9E9"/>
<path d="M173.048 36L173.048 35.0557H173.048V36ZM176.481 38.2041L177.34 37.8109L177.34 37.8108L176.481 38.2041ZM179.754 45.3477L178.895 45.741L179.148 46.292H179.754V45.3477ZM179.755 45.3477L180.699 45.3518L180.703 44.4033H179.755V45.3477ZM179.75 46.4512L178.805 46.447L178.805 46.4511L179.75 46.4512ZM176.774 49.4414L176.774 50.3857H176.774V49.4414ZM173.799 46.4512L172.854 46.4512L172.854 46.4512L173.799 46.4512ZM173.799 45.3486H174.743V44.4043H173.799V45.3486ZM173.798 45.3486L172.887 45.5989L173.078 46.293H173.798V45.3486ZM171.228 36V35.0557H169.99L170.318 36.2502L171.228 36ZM173.048 36L173.048 36.9443C174.155 36.9444 175.161 37.5902 175.623 38.5974L176.481 38.2041L177.34 37.8108C176.571 36.1323 174.894 35.0559 173.048 35.0557L173.048 36ZM176.481 38.2041L175.623 38.5973C176.713 40.9785 177.804 43.3601 178.895 45.741L179.754 45.3477L180.612 44.9544C179.521 42.5732 178.43 40.192 177.34 37.8109L176.481 38.2041ZM179.754 45.3477V46.292H179.755V45.3477V44.4033H179.754V45.3477ZM179.755 45.3477L178.81 45.3435L178.805 46.447L179.75 46.4512L180.694 46.4554L180.699 45.3518L179.755 45.3477ZM179.75 46.4512L178.805 46.4511C178.805 47.5853 177.891 48.4971 176.774 48.4971V49.4414V50.3857C178.943 50.3857 180.694 48.6196 180.694 46.4512L179.75 46.4512ZM176.774 49.4414L176.774 48.4971C175.657 48.497 174.743 47.5852 174.743 46.4511L173.799 46.4512L172.854 46.4512C172.854 48.6196 174.605 50.3856 176.774 50.3857L176.774 49.4414ZM173.799 46.4512H174.743V45.3486H173.799H172.854V46.4512H173.799ZM173.799 45.3486V44.4043H173.798V45.3486V46.293H173.799V45.3486ZM173.798 45.3486L174.708 45.0983C173.852 41.9822 172.995 38.8658 172.139 35.7498L171.228 36L170.318 36.2502C171.174 39.3663 172.03 42.4828 172.887 45.5989L173.798 45.3486ZM171.228 36V36.9443H173.048V36V35.0557H171.228V36Z" fill="#828282" mask="url(#path-9-inside-4_7715_21576)"/>
<mask id="path-11-inside-5_7715_21576" fill="white">
<path d="M174.659 45.3477L174.654 46.4512C174.654 48.1025 173.321 49.4414 171.678 49.4414C170.035 49.4413 168.703 48.1024 168.703 46.4512V45.3486H168.702C168.416 42.2326 168.131 39.116 167.845 36H172.089C172.945 39.1158 173.802 42.2319 174.659 45.3477Z"/>
</mask>
<path d="M174.659 45.3477L174.654 46.4512C174.654 48.1025 173.321 49.4414 171.678 49.4414C170.035 49.4413 168.703 48.1024 168.703 46.4512V45.3486H168.702C168.416 42.2326 168.131 39.116 167.845 36H172.089C172.945 39.1158 173.802 42.2319 174.659 45.3477Z" fill="#E9E9E9"/>
<path d="M174.659 45.3477L175.603 45.3518L175.604 45.2223L175.569 45.0973L174.659 45.3477ZM174.654 46.4512L173.709 46.447L173.709 46.4511L174.654 46.4512ZM171.678 49.4414L171.678 50.3857H171.678V49.4414ZM168.703 46.4512L167.758 46.4512L167.758 46.4512L168.703 46.4512ZM168.703 45.3486H169.647V44.4043H168.703V45.3486ZM168.702 45.3486L167.761 45.4349L167.84 46.293H168.702V45.3486ZM167.845 36V35.0557H166.81L166.905 36.0862L167.845 36ZM172.089 36L173 35.7498L172.809 35.0557H172.089V36ZM174.659 45.3477L173.714 45.3435L173.709 46.447L174.654 46.4512L175.598 46.4554L175.603 45.3518L174.659 45.3477ZM174.654 46.4512L173.709 46.4511C173.709 47.5853 172.796 48.4971 171.678 48.4971V49.4414V50.3857C173.847 50.3857 175.598 48.6196 175.598 46.4512L174.654 46.4512ZM171.678 49.4414L171.678 48.4971C170.561 48.497 169.647 47.5853 169.647 46.4511L168.703 46.4512L167.758 46.4512C167.758 48.6196 169.509 50.3856 171.678 50.3857L171.678 49.4414ZM168.703 46.4512H169.647V45.3486H168.703H167.758V46.4512H168.703ZM168.703 45.3486V44.4043H168.702V45.3486V46.293H168.703V45.3486ZM168.702 45.3486L169.642 45.2624C169.499 43.7045 169.357 42.1464 169.214 40.5882C169.071 39.0301 168.928 37.4719 168.786 35.9138L167.845 36L166.905 36.0862C167.048 37.6442 167.19 39.2023 167.333 40.7604C167.476 42.3186 167.618 43.8768 167.761 45.4349L168.702 45.3486ZM167.845 36V36.9443H172.089V36V35.0557H167.845V36ZM172.089 36L171.179 36.2502C172.035 39.366 172.892 42.4823 173.748 45.598L174.659 45.3477L175.569 45.0973C174.713 41.9815 173.856 38.8655 173 35.7498L172.089 36Z" fill="#828282" mask="url(#path-11-inside-5_7715_21576)"/>
</g>
<g filter="url(#filter0_d_7715_21576)">
<rect x="186.596" y="28.8711" width="22.0343" height="22.0343" rx="3.30515" transform="rotate(-7.96235 186.596 28.8711)" fill="white"/>
</g>
<g filter="url(#filter1_d_7715_21576)">
<rect x="89.9648" y="28.75" width="22.0343" height="22.0343" rx="3.30515" transform="rotate(-7.96235 89.9648 28.75)" fill="white"/>
</g>
<g filter="url(#filter2_d_7715_21576)">
<rect x="212.951" y="28.9883" width="22.0343" height="22.0343" rx="3.30515" transform="rotate(-8.49993 212.951 28.9883)" fill="white"/>
</g>
<g filter="url(#filter3_d_7715_21576)">
<rect x="116.318" y="28.8711" width="22.0343" height="22.0343" rx="3.30515" transform="rotate(-8.49993 116.318 28.8711)" fill="white"/>
</g>
<path d="M130.92 33.2676C131.474 33.2676 131.954 33.6088 132.151 34.1025C132.218 34.092 132.285 34.0859 132.353 34.0859C133.087 34.0859 133.684 34.6834 133.684 35.417C133.684 35.8857 133.44 36.3041 133.063 36.541C133.199 36.7526 133.274 37.0014 133.274 37.2588C133.274 37.2983 133.273 37.3379 133.269 37.377C133.3 37.3872 133.329 37.402 133.356 37.4219C133.443 37.4867 133.489 37.5933 133.477 37.7012L132.921 42.9238C132.871 43.3934 132.478 43.748 132.005 43.748H126.151C125.679 43.748 125.285 43.3939 125.235 42.9248C125.152 42.1489 125.069 41.3673 124.986 40.5859C124.885 39.6371 124.781 38.6558 124.679 37.7012C124.668 37.5935 124.714 37.4878 124.8 37.4229C124.845 37.3898 124.897 37.3693 124.95 37.3633L124.269 36.1846C123.846 35.4515 124.099 34.5111 124.832 34.0879C125.565 33.6648 126.505 33.9164 126.928 34.6494L127.527 35.6875C127.775 35.5073 128.062 35.3873 128.365 35.3389C128.405 34.6416 128.985 34.0862 129.692 34.0859H129.694C129.896 33.5984 130.374 33.2676 130.92 33.2676ZM132.813 38.1377C131.614 38.5734 130.361 38.7939 129.079 38.7939C127.796 38.7939 126.542 38.5734 125.343 38.1377C125.428 38.9321 125.513 39.7381 125.596 40.5215C125.679 41.3026 125.762 42.0837 125.845 42.8594C125.862 43.0157 125.994 43.1338 126.151 43.1338H132.005C132.163 43.1338 132.294 43.0157 132.311 42.8594L132.813 38.1377ZM131.125 39.7559C131.295 39.7561 131.432 39.8941 131.432 40.0635V41.7012C131.432 41.8704 131.295 42.0076 131.125 42.0078H127.031C126.862 42.0076 126.724 41.8704 126.724 41.7012V40.0635C126.724 39.8941 126.861 39.7561 127.031 39.7559H131.125ZM127.338 40.3701V41.3936H130.818V40.3701H127.338ZM128.668 35.9287C128.365 35.9288 128.071 36.0346 127.836 36.2236L128.966 38.1797C129.004 38.1801 129.041 38.1797 129.079 38.1797C129.267 38.1797 129.454 38.1751 129.641 38.165C129.873 37.9185 130 37.6003 130 37.2588C129.999 36.5253 129.402 35.9287 128.668 35.9287ZM126.396 34.9561C126.142 34.5166 125.578 34.3654 125.138 34.6191C124.925 34.7422 124.773 34.9411 124.709 35.1787C124.646 35.4164 124.678 35.6649 124.801 35.8779L125.828 37.6562C126.61 37.9161 127.416 38.0801 128.238 38.1465L127.617 37.0703L126.436 37.1416C126.43 37.142 126.424 37.1426 126.417 37.1426C126.256 37.1426 126.121 37.0165 126.111 36.8535C126.101 36.6843 126.23 36.5385 126.399 36.5283L127.274 36.4766L127.003 36.0068L125.822 36.0781C125.816 36.0785 125.809 36.0781 125.803 36.0781C125.642 36.0781 125.506 35.953 125.497 35.79C125.486 35.6209 125.616 35.4752 125.785 35.4648L126.66 35.4121L126.396 34.9561ZM130.92 33.8818C130.574 33.8819 130.278 34.1302 130.217 34.4727C130.203 34.5551 130.155 34.6283 130.085 34.6748C130.016 34.7213 129.93 34.7369 129.848 34.7188C129.792 34.7063 129.741 34.7002 129.692 34.7002C129.323 34.7004 129.019 34.9812 128.98 35.3398C129.68 35.4529 130.256 35.9405 130.495 36.5898C130.77 35.9213 130.818 35.3981 130.819 35.3906C130.833 35.2218 130.982 35.0974 131.151 35.1113C131.32 35.1257 131.445 35.2736 131.431 35.4424C131.427 35.4919 131.319 36.6534 130.532 37.8105C130.503 37.9071 130.468 38.0019 130.424 38.0928C131.162 37.9963 131.886 37.8201 132.589 37.5654C132.636 37.4693 132.661 37.3648 132.661 37.2588C132.661 37.027 132.546 36.8085 132.354 36.6738C132.252 36.6025 132.204 36.4766 132.231 36.3555C132.258 36.2344 132.356 36.1416 132.478 36.1201C132.821 36.0597 133.07 35.764 133.07 35.417C133.07 35.022 132.748 34.7002 132.353 34.7002C132.254 34.7002 132.155 34.7224 132.059 34.7656C131.97 34.8061 131.866 34.8015 131.781 34.7529C131.695 34.7043 131.638 34.6173 131.627 34.5195C131.587 34.1559 131.283 33.8818 130.92 33.8818Z" fill="black"/>
<g opacity="0.7">
<path d="M202.684 35.1426C203.374 35.1426 203.952 35.6983 203.952 36.4102V41.2393C203.93 41.9289 203.373 42.5068 202.661 42.5068H194.74C194.051 42.5068 193.472 41.9511 193.472 41.2393V36.4102C193.472 35.7205 194.029 35.1426 194.74 35.1426H202.684ZM194.74 36.0322C194.518 36.0322 194.362 36.21 194.362 36.4102V41.2393C194.362 41.4616 194.54 41.6172 194.74 41.6172H202.684C202.906 41.6172 203.062 41.4394 203.062 41.2393V36.4102C203.062 36.1878 202.884 36.0322 202.684 36.0322H194.74ZM197.388 36.5664C198.634 36.5664 199.635 37.5897 199.635 38.8135C199.635 40.0373 198.634 41.083 197.388 41.083C196.142 41.083 195.141 40.0595 195.141 38.8135C195.141 37.5674 196.142 36.5664 197.388 36.5664ZM197.388 37.4336C196.631 37.4336 196.008 38.0569 196.008 38.8135C196.008 39.57 196.631 40.1934 197.388 40.1934C198.144 40.1933 198.768 39.57 198.768 38.8135C198.79 38.057 198.167 37.4336 197.388 37.4336ZM201.683 36.5889C201.927 36.5891 202.127 36.7887 202.127 37.0332C202.127 37.2778 201.927 37.4783 201.683 37.4785H201.438C201.193 37.4785 200.992 37.278 200.992 37.0332C200.993 36.7885 201.193 36.5889 201.438 36.5889H201.683ZM197.188 33.7402C197.432 33.7403 197.633 33.9408 197.633 34.1855C197.633 34.4301 197.432 34.6298 197.188 34.6299H195.564C195.319 34.6299 195.119 34.4302 195.118 34.1855C195.118 33.9408 195.319 33.7402 195.564 33.7402H197.188Z" fill="#828282"/>
</g>
<path d="M98.98 33.2676C98.98 33.8082 99.4199 34.248 99.9604 34.248H100.173C99.9703 33.9736 99.8501 33.6344 99.8501 33.2676H100.521C100.521 33.8081 100.961 34.2479 101.501 34.248H101.727C103.791 34.2481 105.617 35.5871 106.247 37.5322C106.538 37.5875 106.806 37.729 107.02 37.9424C107.302 38.2245 107.458 38.5998 107.458 38.998C107.457 39.3913 107.305 39.7625 107.03 40.043C106.815 40.2621 106.543 40.4067 106.247 40.4629C105.617 42.4081 103.791 43.748 101.727 43.748C99.6633 43.748 97.837 42.4082 97.2075 40.4629C96.9115 40.4068 96.6397 40.2621 96.4243 40.043C96.1488 39.7625 95.9966 39.3913 95.9966 38.998C95.9966 38.5999 96.1516 38.2252 96.4331 37.9434C96.6471 37.7295 96.916 37.5875 97.2075 37.5322C97.5872 36.3593 98.4024 35.4074 99.4419 34.8359C98.7846 34.6178 98.3081 33.9972 98.3081 33.2676H98.98ZM101.727 34.9199C99.8884 34.9199 98.269 36.1573 97.7896 37.9297L97.7241 38.1729L97.4722 38.1777C97.2594 38.1817 97.0585 38.2673 96.9077 38.418C96.7532 38.5728 96.6685 38.7791 96.6685 38.998C96.6686 39.4416 97.029 39.809 97.4722 39.8174L97.7241 39.8223L97.7896 40.0654C98.2689 41.838 99.8883 43.0762 101.727 43.0762C103.566 43.0761 105.184 41.8379 105.664 40.0654L105.73 39.8223L105.982 39.8174C106.425 39.8089 106.786 39.4415 106.786 38.998C106.786 38.7791 106.7 38.5731 106.545 38.418C106.395 38.2676 106.195 38.1818 105.982 38.1777L105.73 38.1738L105.664 37.9297C105.33 36.6973 104.446 35.7231 103.32 35.2441C103.434 35.4786 103.499 35.7424 103.499 36.0205C103.498 36.9974 102.704 37.7919 101.727 37.792C100.75 37.792 99.9548 36.9975 99.9546 36.0205H100.626C100.627 36.6272 101.12 37.1211 101.727 37.1211C102.334 37.121 102.827 36.6272 102.828 36.0205C102.828 35.4137 102.334 34.92 101.727 34.9199ZM103.344 40.8438C103.008 41.4139 102.388 41.7685 101.727 41.7686C101.066 41.7686 100.446 41.414 100.11 40.8438L100.688 40.5029C100.904 40.8694 101.303 41.0967 101.727 41.0967C102.152 41.0966 102.55 40.8694 102.766 40.5029L103.344 40.8438ZM99.8003 38.0254C100.41 38.0254 100.907 38.5219 100.907 39.1318H100.235C100.235 38.8922 100.04 38.6973 99.8003 38.6973C99.5606 38.6973 99.3659 38.8922 99.3657 39.1318H98.6938C98.694 38.5219 99.1903 38.0254 99.8003 38.0254ZM103.654 38.0254C104.264 38.0256 104.76 38.522 104.76 39.1318H104.088C104.088 38.8923 103.893 38.6975 103.654 38.6973C103.414 38.6973 103.218 38.8922 103.218 39.1318H102.547C102.547 38.5219 103.044 38.0254 103.654 38.0254Z" fill="black"/>
<g opacity="0.7">
<path d="M230.557 37.883C230.162 37.2942 229.499 37.3641 229.478 37.3595C229.391 37.3595 229.305 37.3694 229.222 37.388L229.68 35.6155C229.908 34.733 229.495 33.8076 228.686 33.3882C227.796 32.9272 226.855 32.6934 225.887 32.6934C224.919 32.6934 223.978 32.9272 223.088 33.3882C222.279 33.8076 221.866 34.733 222.094 35.6155L222.552 37.388C222.38 37.3497 222.263 37.3619 222.199 37.3595C221.359 37.3595 220.786 38.2116 221.104 38.9881C221.517 39.9992 222.234 40.8461 223.169 41.4227L222.359 42.521C222.224 42.7029 222.263 42.9592 222.445 43.0935C222.628 43.2286 222.884 43.1879 223.017 43.0071L223.908 41.8003C224.529 42.057 225.196 42.1902 225.877 42.1902H225.896C226.578 42.1902 227.245 42.057 227.866 41.8003L228.756 43.0071C228.89 43.1885 229.147 43.2281 229.329 43.0935C229.511 42.9592 229.55 42.7029 229.415 42.521L228.605 41.4227C229.538 40.8469 230.256 40.0006 230.67 38.9881C230.819 38.6234 230.777 38.2103 230.557 37.883V37.883ZM223.465 34.1152C224.237 33.715 225.052 33.5121 225.887 33.5121C226.722 33.5121 227.537 33.715 228.309 34.1152C228.783 34.3607 229.021 34.8934 228.887 35.4107L228.176 38.162C227.618 38.576 226.776 38.8782 225.887 38.8782C224.997 38.8782 224.155 38.5752 223.598 38.162L222.887 35.4107C222.753 34.8934 222.991 34.3607 223.465 34.1152V34.1152ZM229.912 38.6783C229.247 40.3057 227.661 41.3714 225.896 41.3714H225.877C224.109 41.3714 222.526 40.3021 221.862 38.6783C221.764 38.4396 221.939 38.1783 222.199 38.1783C222.244 38.1859 222.44 38.137 222.589 38.3262C223.111 38.9864 224.366 39.6969 225.887 39.6969C227.408 39.6969 228.663 38.9864 229.185 38.3262C229.259 38.2322 229.366 38.1783 229.478 38.1783C229.521 38.1859 229.741 38.1353 229.878 38.3395C229.946 38.4413 229.959 38.5648 229.912 38.6783V38.6783Z" fill="#828282"/>
</g>
<path opacity="0.85" d="M83.6896 83.6719C83.6499 83.2997 83.4822 83.0099 83.1868 82.8026C82.8942 82.5952 82.5135 82.4915 82.0447 82.4915C81.7152 82.4915 81.4325 82.5412 81.1967 82.6406C80.9609 82.7401 80.7805 82.875 80.6555 83.0455C80.5305 83.2159 80.4666 83.4105 80.4638 83.6293C80.4638 83.8111 80.505 83.9687 80.5874 84.1023C80.6726 84.2358 80.7876 84.3494 80.9325 84.4432C81.0774 84.5341 81.2379 84.6108 81.4141 84.6733C81.5902 84.7358 81.7678 84.7884 81.9467 84.831L82.7649 85.0355C83.0945 85.1122 83.4112 85.2159 83.7152 85.3466C84.022 85.4773 84.2962 85.642 84.5376 85.8409C84.782 86.0398 84.9751 86.2798 85.1172 86.5611C85.2592 86.8423 85.3303 87.1719 85.3303 87.5497C85.3303 88.0611 85.1996 88.5114 84.9382 88.9006C84.6768 89.2869 84.299 89.5895 83.8047 89.8082C83.3132 90.0241 82.718 90.1321 82.0192 90.1321C81.3402 90.1321 80.7507 90.027 80.2507 89.8168C79.7536 89.6065 79.3643 89.2997 79.0831 88.8963C78.8047 88.4929 78.6541 88.0014 78.6314 87.4219H80.1868C80.2095 87.7259 80.3033 87.9787 80.468 88.1804C80.6328 88.3821 80.8473 88.5327 81.1115 88.6321C81.3786 88.7315 81.6768 88.7812 82.0064 88.7812C82.3501 88.7812 82.6513 88.7301 82.9098 88.6278C83.1712 88.5227 83.3757 88.3778 83.5234 88.1932C83.6712 88.0057 83.7464 87.7869 83.7493 87.5369C83.7464 87.3097 83.6797 87.1222 83.549 86.9744C83.4183 86.8239 83.2351 86.6989 82.9993 86.5994C82.7663 86.4972 82.4936 86.4062 82.1811 86.3267L81.1882 86.071C80.4695 85.8864 79.9013 85.6065 79.4837 85.2315C79.0689 84.8537 78.8615 84.3523 78.8615 83.7273C78.8615 83.2131 79.0007 82.7628 79.2791 82.3764C79.5604 81.9901 79.9425 81.6903 80.4254 81.4773C80.9084 81.2614 81.4553 81.1534 82.0661 81.1534C82.6854 81.1534 83.228 81.2614 83.6939 81.4773C84.1626 81.6903 84.5305 81.9872 84.7976 82.3679C85.0646 82.7457 85.2024 83.1804 85.2109 83.6719H83.6896ZM89.94 83.4545V84.6477H86.1772V83.4545H89.94ZM87.1062 81.8864H88.6488V88.0312C88.6488 88.2386 88.68 88.3977 88.7425 88.5085C88.8079 88.6165 88.8931 88.6903 88.9982 88.7301C89.1033 88.7699 89.2198 88.7898 89.3477 88.7898C89.4442 88.7898 89.5323 88.7827 89.6119 88.7685C89.6942 88.7543 89.7567 88.7415 89.7994 88.7301L90.0593 89.9361C89.9769 89.9645 89.859 89.9957 89.7056 90.0298C89.555 90.0639 89.3704 90.0838 89.1516 90.0895C88.7653 90.1009 88.4173 90.0426 88.1076 89.9148C87.7979 89.7841 87.5522 89.5824 87.3704 89.3097C87.1914 89.0369 87.1033 88.696 87.1062 88.2869V81.8864ZM94.0149 90.1278C93.3757 90.1278 92.8217 89.9872 92.353 89.706C91.8842 89.4247 91.5206 89.0312 91.2621 88.5256C91.0064 88.0199 90.8786 87.429 90.8786 86.7528C90.8786 86.0767 91.0064 85.4844 91.2621 84.9759C91.5206 84.4673 91.8842 84.0724 92.353 83.7912C92.8217 83.5099 93.3757 83.3693 94.0149 83.3693C94.6541 83.3693 95.2081 83.5099 95.6768 83.7912C96.1456 84.0724 96.5078 84.4673 96.7635 84.9759C97.022 85.4844 97.1513 86.0767 97.1513 86.7528C97.1513 87.429 97.022 88.0199 96.7635 88.5256C96.5078 89.0312 96.1456 89.4247 95.6768 89.706C95.2081 89.9872 94.6541 90.1278 94.0149 90.1278ZM94.0234 88.892C94.37 88.892 94.6598 88.7969 94.8928 88.6065C95.1257 88.4134 95.299 88.1548 95.4126 87.831C95.5291 87.5071 95.5874 87.1463 95.5874 86.7486C95.5874 86.348 95.5291 85.9858 95.4126 85.6619C95.299 85.3352 95.1257 85.0753 94.8928 84.8821C94.6598 84.6889 94.37 84.5923 94.0234 84.5923C93.6683 84.5923 93.3729 84.6889 93.1371 84.8821C92.9041 85.0753 92.7294 85.3352 92.6129 85.6619C92.4993 85.9858 92.4425 86.348 92.4425 86.7486C92.4425 87.1463 92.4993 87.5071 92.6129 87.831C92.7294 88.1548 92.9041 88.4134 93.1371 88.6065C93.3729 88.7969 93.6683 88.892 94.0234 88.892ZM98.4606 90V83.4545H99.9563V84.5455H100.025C100.144 84.1676 100.348 83.8764 100.638 83.6719C100.931 83.4645 101.265 83.3608 101.64 83.3608C101.725 83.3608 101.82 83.3651 101.925 83.3736C102.033 83.3793 102.123 83.3892 102.194 83.4034V84.8224C102.128 84.7997 102.025 84.7798 101.882 84.7628C101.743 84.7429 101.608 84.733 101.478 84.733C101.196 84.733 100.944 84.794 100.719 84.9162C100.498 85.0355 100.323 85.2017 100.195 85.4148C100.067 85.6278 100.003 85.8736 100.003 86.152V90H98.4606ZM105.847 90.1278C105.19 90.1278 104.624 89.9915 104.146 89.7188C103.672 89.4432 103.307 89.054 103.051 88.5511C102.795 88.0455 102.668 87.4503 102.668 86.7656C102.668 86.0923 102.795 85.5014 103.051 84.9929C103.31 84.4815 103.67 84.0838 104.134 83.7997C104.597 83.5128 105.141 83.3693 105.766 83.3693C106.169 83.3693 106.55 83.4347 106.908 83.5653C107.268 83.6932 107.587 83.892 107.862 84.1619C108.141 84.4318 108.359 84.7756 108.518 85.1932C108.678 85.608 108.757 86.1023 108.757 86.6761V87.1491H103.392V86.1094H107.278C107.276 85.8139 107.212 85.5511 107.087 85.321C106.962 85.0881 106.787 84.9048 106.562 84.7713C106.341 84.6378 106.082 84.571 105.787 84.571C105.472 84.571 105.195 84.6477 104.956 84.8011C104.717 84.9517 104.531 85.1506 104.398 85.3977C104.267 85.642 104.2 85.9105 104.197 86.2031V87.1108C104.197 87.4915 104.267 87.8182 104.406 88.0909C104.545 88.3608 104.74 88.5682 104.99 88.7131C105.24 88.8551 105.533 88.9261 105.868 88.9261C106.092 88.9261 106.295 88.8949 106.477 88.8324C106.659 88.767 106.817 88.6719 106.95 88.5469C107.084 88.4219 107.185 88.267 107.253 88.0824L108.693 88.2443C108.602 88.625 108.429 88.9574 108.173 89.2415C107.92 89.5227 107.597 89.7415 107.202 89.8977C106.807 90.0511 106.355 90.1278 105.847 90.1278ZM120.279 81.2727V90H118.873L114.76 84.0554H114.688V90H113.107V81.2727H114.522L118.63 87.2216H118.706V81.2727H120.279ZM123.817 90.1321C123.402 90.1321 123.028 90.0582 122.696 89.9105C122.366 89.7599 122.105 89.5384 121.912 89.2457C121.722 88.9531 121.626 88.5923 121.626 88.1634C121.626 87.794 121.695 87.4886 121.831 87.2472C121.967 87.0057 122.153 86.8125 122.389 86.6676C122.625 86.5227 122.891 86.4134 123.186 86.3395C123.484 86.2628 123.793 86.2074 124.111 86.1733C124.494 86.1335 124.805 86.098 125.044 86.0668C125.283 86.0327 125.456 85.9815 125.564 85.9134C125.675 85.8423 125.73 85.733 125.73 85.5852V85.5597C125.73 85.2386 125.635 84.9901 125.445 84.8139C125.254 84.6378 124.98 84.5497 124.622 84.5497C124.244 84.5497 123.945 84.6321 123.723 84.7969C123.504 84.9616 123.357 85.1562 123.28 85.3807L121.839 85.1761C121.953 84.7784 122.141 84.446 122.402 84.179C122.663 83.9091 122.983 83.7074 123.361 83.5739C123.739 83.4375 124.156 83.3693 124.614 83.3693C124.929 83.3693 125.243 83.4062 125.555 83.4801C125.868 83.554 126.153 83.6761 126.412 83.8466C126.67 84.0142 126.878 84.2429 127.034 84.5327C127.193 84.8224 127.273 85.1847 127.273 85.6193V90H125.79V89.1009H125.739C125.645 89.2827 125.513 89.4531 125.342 89.6122C125.175 89.7685 124.963 89.8949 124.707 89.9915C124.455 90.0852 124.158 90.1321 123.817 90.1321ZM124.217 88.9986C124.527 88.9986 124.795 88.9375 125.023 88.8153C125.25 88.6903 125.425 88.5256 125.547 88.321C125.672 88.1165 125.734 87.8935 125.734 87.652V86.8807C125.686 86.9205 125.604 86.9574 125.487 86.9915C125.374 87.0256 125.246 87.0554 125.104 87.081C124.962 87.1065 124.821 87.1293 124.682 87.1491C124.543 87.169 124.422 87.1861 124.32 87.2003C124.089 87.2315 123.884 87.2827 123.702 87.3537C123.52 87.4247 123.376 87.5241 123.271 87.652C123.166 87.777 123.114 87.9389 123.114 88.1378C123.114 88.4219 123.217 88.6364 123.425 88.7812C123.632 88.9261 123.896 88.9986 124.217 88.9986ZM128.824 90V83.4545H130.298V84.5668H130.375C130.511 84.1918 130.737 83.8991 131.053 83.6889C131.368 83.4759 131.744 83.3693 132.182 83.3693C132.625 83.3693 132.999 83.4773 133.303 83.6932C133.609 83.9062 133.825 84.1974 133.95 84.5668H134.018C134.163 84.2031 134.408 83.9134 134.751 83.6974C135.098 83.4787 135.509 83.3693 135.983 83.3693C136.585 83.3693 137.077 83.5597 137.457 83.9403C137.838 84.321 138.028 84.8764 138.028 85.6065V90H136.482V85.8452C136.482 85.4389 136.374 85.142 136.158 84.9545C135.942 84.7642 135.678 84.669 135.365 84.669C134.993 84.669 134.702 84.7855 134.491 85.0185C134.284 85.2486 134.18 85.5483 134.18 85.9176V90H132.668V85.7812C132.668 85.4432 132.565 85.1733 132.361 84.9716C132.159 84.7699 131.895 84.669 131.568 84.669C131.347 84.669 131.145 84.7259 130.963 84.8395C130.781 84.9503 130.636 85.108 130.528 85.3125C130.42 85.5142 130.366 85.75 130.366 86.0199V90H128.824ZM142.491 90.1278C141.835 90.1278 141.268 89.9915 140.791 89.7188C140.316 89.4432 139.951 89.054 139.696 88.5511C139.44 88.0455 139.312 87.4503 139.312 86.7656C139.312 86.0923 139.44 85.5014 139.696 84.9929C139.954 84.4815 140.315 84.0838 140.778 83.7997C141.241 83.5128 141.785 83.3693 142.41 83.3693C142.814 83.3693 143.194 83.4347 143.552 83.5653C143.913 83.6932 144.231 83.892 144.507 84.1619C144.785 84.4318 145.004 84.7756 145.163 85.1932C145.322 85.608 145.402 86.1023 145.402 86.6761V87.1491H140.037V86.1094H143.923C143.92 85.8139 143.856 85.5511 143.731 85.321C143.606 85.0881 143.431 84.9048 143.207 84.7713C142.985 84.6378 142.727 84.571 142.431 84.571C142.116 84.571 141.839 84.6477 141.6 84.8011C141.362 84.9517 141.176 85.1506 141.042 85.3977C140.912 85.642 140.845 85.9105 140.842 86.2031V87.1108C140.842 87.4915 140.912 87.8182 141.051 88.0909C141.19 88.3608 141.385 88.5682 141.635 88.7131C141.885 88.8551 142.177 88.9261 142.512 88.9261C142.737 88.9261 142.94 88.8949 143.122 88.8324C143.304 88.767 143.461 88.6719 143.595 88.5469C143.728 88.4219 143.829 88.267 143.897 88.0824L145.338 88.2443C145.247 88.625 145.074 88.9574 144.818 89.2415C144.565 89.5227 144.241 89.7415 143.846 89.8977C143.451 90.0511 143 90.1278 142.491 90.1278Z" fill="#686868"/>
<path fill-rule="evenodd" clip-rule="evenodd" d="M277.331 76.1654C277.331 80.6749 273.675 84.3308 269.165 84.3308C264.656 84.3308 261 80.6749 261 76.1654C261 71.6559 264.656 68 269.165 68C273.675 68 277.331 71.6559 277.331 76.1654" fill="#4776E2"/>
<path fill-rule="evenodd" clip-rule="evenodd" d="M269.672 74.6466C269.672 74.4378 269.67 74.2291 269.675 74.0203C269.682 73.7422 269.751 73.657 270.014 73.6185C270.141 73.6002 270.271 73.6064 270.399 73.6046C270.536 73.6028 270.674 73.6042 270.816 73.6042V72.3262C270.259 72.3607 269.706 72.3544 269.167 72.4395C268.589 72.5304 268.241 72.9296 268.167 73.541C268.13 73.8528 268.14 74.1704 268.129 74.4853C268.127 74.5633 268.129 74.6412 268.129 74.7344H267.367V75.9842H268.138V79.6023C268.6 79.6023 269.042 79.596 269.484 79.6054C269.629 79.609 269.675 79.5696 269.674 79.4123C269.668 78.3364 269.671 77.2604 269.671 76.1844V75.9765H270.698C270.743 75.5519 270.787 75.1465 270.832 74.7232H269.681C269.677 74.6878 269.672 74.6672 269.672 74.6466" fill="white"/>
<path fill-rule="evenodd" clip-rule="evenodd" d="M297.745 76.1654C297.745 80.6749 294.089 84.3308 289.579 84.3308C285.07 84.3308 281.414 80.6749 281.414 76.1654C281.414 71.6559 285.07 68 289.579 68C294.089 68 297.745 71.6559 297.745 76.1654" fill="#007AB9"/>
<path d="M293.01 76.9923V79.3174H291.662V77.1481C291.662 76.6034 291.467 76.2314 290.979 76.2314C290.607 76.2314 290.385 76.4819 290.288 76.7244C290.252 76.811 290.243 76.9313 290.243 77.0529V79.3173H288.895C288.895 79.3173 288.913 75.6432 288.895 75.2629H290.243V75.8375C290.24 75.842 290.236 75.8464 290.234 75.8507H290.243V75.8375C290.422 75.5618 290.742 75.1677 291.458 75.1677C292.345 75.1677 293.01 75.7472 293.01 76.9923ZM287.485 73.3086C287.023 73.3086 286.722 73.6113 286.722 74.009C286.722 74.3983 287.015 74.7097 287.467 74.7097H287.476C287.946 74.7097 288.238 74.3983 288.238 74.009C288.229 73.6113 287.946 73.3086 287.485 73.3086ZM286.802 79.3174H288.149V75.2629H286.802V79.3174Z" fill="#F1F2F2"/>
<rect x="301.826" y="68" width="16.3308" height="16.3308" rx="8.16541" fill="url(#paint0_linear_7715_21576)"/>
<path d="M309.993 74.0859C308.845 74.0859 307.915 75.0169 307.915 76.1647C307.915 77.3134 308.846 78.2434 309.993 78.2434C311.142 78.2434 312.072 77.3124 312.072 76.1647C312.072 75.0159 311.141 74.0859 309.993 74.0859V74.0859ZM309.993 77.5139C309.248 77.5139 308.644 76.91 308.644 76.1647C308.644 75.4193 309.248 74.8154 309.993 74.8154C310.739 74.8154 311.343 75.4193 311.343 76.1647C311.343 76.91 310.739 77.5139 309.993 77.5139V77.5139Z" fill="white"/>
<path d="M311.662 72.1407C310.917 72.1059 309.071 72.1076 308.325 72.1407C307.669 72.1714 307.091 72.3297 306.625 72.7959C305.845 73.575 305.945 74.6248 305.945 76.1644C305.945 77.7402 305.857 78.7657 306.625 79.533C307.407 80.3148 308.472 80.2125 309.993 80.2125C311.554 80.2125 312.093 80.2135 312.645 79.9998C313.395 79.7085 313.962 79.0378 314.017 77.833C314.052 77.0873 314.05 75.2415 314.017 74.4955C313.95 73.0734 313.187 72.2109 311.662 72.1407V72.1407ZM312.842 79.0175C312.331 79.5283 311.623 79.4827 309.983 79.4827C308.296 79.4827 307.619 79.5077 307.125 79.0125C306.556 78.4464 306.659 77.5373 306.659 76.159C306.659 74.294 306.468 72.9508 308.339 72.855C308.769 72.8398 308.896 72.8347 309.979 72.8347L309.994 72.8448C311.793 72.8448 313.204 72.6565 313.289 74.5279C313.308 74.955 313.312 75.0832 313.312 76.1641C313.312 77.8323 313.344 78.5132 312.842 79.0175V79.0175Z" fill="white"/>
<path d="M312.154 74.4891C312.422 74.4891 312.64 74.2716 312.64 74.0033C312.64 73.7351 312.422 73.5176 312.154 73.5176C311.886 73.5176 311.668 73.7351 311.668 74.0033C311.668 74.2716 311.886 74.4891 312.154 74.4891Z" fill="white"/>
<rect width="49" height="49" transform="translate(16 72)" fill="#E4E4E4"/>
<path d="M32.819 97.2888C34.4337 97.2888 35.8557 96.4921 36.7337 95.272C37.5796 96.4895 38.9834 97.2888 40.5755 97.2888C42.1634 97.2888 43.566 96.4937 44.4129 95.2816C45.2857 96.4957 46.7082 97.2888 48.3144 97.2888C51.3955 97.2888 53.7256 94.3019 52.9729 91.3121L51.504 85.4781C51.2809 84.5916 50.4862 83.9727 49.5717 83.9727H31.5066C30.5923 83.9727 29.7977 84.5916 29.5745 85.4781L28.1151 91.2775C27.6987 92.9313 28.246 94.3724 29.2125 95.6845V107.122C29.2125 108.22 30.0988 109.114 31.1974 109.114H49.8883C50.9868 109.114 51.8734 108.22 51.8734 107.122V99.7047C51.8734 99.2235 51.4689 98.8334 50.9874 98.8334C50.506 98.8334 50.1014 99.2234 50.1014 99.7047V107.122C50.1014 107.26 50.0256 107.395 49.8883 107.395H44.4094V100.59C44.4094 100.109 44.0184 99.7128 43.537 99.7128H37.5492C37.0677 99.7128 36.6767 100.109 36.6767 100.59V107.395H31.1974C31.0601 107.395 30.9847 107.26 30.9847 107.122V96.923C31.5216 97.1621 32.1712 97.2888 32.819 97.2888ZM45.2685 85.6916H49.5716C49.686 85.6916 49.7853 85.7808 49.8132 85.8916L51.2817 91.7313C51.7593 93.6285 50.2813 95.5434 48.3214 95.5434C46.6335 95.5434 45.2685 94.1729 45.2685 92.4847V85.6916ZM37.6434 85.6916H43.5501V92.4847C43.5501 94.1248 42.2676 95.5463 40.5934 95.5463C38.8919 95.5463 37.6434 94.1089 37.6434 92.4569V85.6916ZM38.4487 101.485H42.6374V107.395H38.4487V101.485ZM29.8042 91.7026L31.2646 85.8916C31.2926 85.7808 31.3924 85.6918 31.5066 85.6918H35.8712V92.4569C35.8712 94.1597 34.4959 95.5451 32.7937 95.5463C30.813 95.5451 29.3209 93.623 29.8042 91.7026Z" fill="#828282"/>
<path d="M90.6666 113.833C90.6666 116.745 87.4355 119.779 86.3505 120.715C86.2494 120.791 86.1264 120.833 85.9999 120.833C85.8735 120.833 85.7504 120.791 85.6493 120.715C84.5643 119.779 81.3333 116.745 81.3333 113.833C81.3333 112.595 81.8249 111.408 82.7001 110.533C83.5753 109.658 84.7622 109.166 85.9999 109.166C87.2376 109.166 88.4246 109.658 89.2998 110.533C90.1749 111.408 90.6666 112.595 90.6666 113.833Z" stroke="#828282" stroke-linecap="round" stroke-linejoin="round"/>
<path d="M85.9999 115.583C86.9664 115.583 87.7499 114.799 87.7499 113.833C87.7499 112.866 86.9664 112.083 85.9999 112.083C85.0334 112.083 84.2499 112.866 84.2499 113.833C84.2499 114.799 85.0334 115.583 85.9999 115.583Z" stroke="#828282" stroke-linecap="round" stroke-linejoin="round"/>
<path opacity="0.5" d="M109 115H158" stroke="#828282" stroke-width="2" stroke-linecap="round"/>
<path d="M91.8333 141.869V143.619C91.834 143.782 91.8007 143.943 91.7356 144.092C91.6705 144.24 91.5751 144.374 91.4554 144.484C91.3357 144.594 91.1943 144.677 91.0404 144.729C90.8865 144.781 90.7235 144.801 90.5617 144.786C88.7667 144.591 87.0424 143.978 85.5275 142.995C84.1181 142.1 82.9231 140.905 82.0275 139.495C81.0417 137.973 80.4281 136.241 80.2367 134.438C80.2221 134.276 80.2413 134.114 80.293 133.96C80.3447 133.807 80.4278 133.666 80.5369 133.546C80.6461 133.427 80.7791 133.331 80.9272 133.266C81.0754 133.2 81.2355 133.166 81.3975 133.166H83.1475C83.4306 133.163 83.705 133.264 83.9197 133.448C84.1343 133.633 84.2745 133.889 84.3142 134.169C84.388 134.729 84.525 135.279 84.7225 135.809C84.801 136.017 84.818 136.244 84.7714 136.462C84.7249 136.681 84.6168 136.881 84.46 137.039L83.7192 137.78C84.5496 139.241 85.7588 140.45 87.2192 141.28L87.96 140.539C88.1186 140.383 88.3188 140.274 88.537 140.228C88.7551 140.181 88.982 140.198 89.1908 140.277C89.7201 140.474 90.27 140.611 90.83 140.685C91.1134 140.725 91.3722 140.868 91.5571 141.086C91.7421 141.305 91.8404 141.583 91.8333 141.869Z" stroke="#828282" stroke-linecap="round" stroke-linejoin="round"/>
<path opacity="0.5" d="M109 139H146" stroke="#828282" stroke-width="2" stroke-linecap="round"/>
<defs>
<filter id="filter0_d_7715_21576" x="182.614" y="24.0407" width="32.8367" height="32.8372" filterUnits="userSpaceOnUse" color-interpolation-filters="sRGB">
<feFlood flood-opacity="0" result="BackgroundImageFix"/>
<feColorMatrix in="SourceAlpha" type="matrix" values="0 0 0 0 0 0 0 0 0 0 0 0 0 0 0 0 0 0 127 0" result="hardAlpha"/>
<feOffset dy="2.20343"/>
<feGaussianBlur stdDeviation="2.20343"/>
<feComposite in2="hardAlpha" operator="out"/>
<feColorMatrix type="matrix" values="0 0 0 0 0 0 0 0 0 0 0 0 0 0 0 0 0 0 0.04 0"/>
<feBlend mode="normal" in2="BackgroundImageFix" result="effect1_dropShadow_7715_21576"/>
<feBlend mode="normal" in="SourceGraphic" in2="effect1_dropShadow_7715_21576" result="shape"/>
</filter>
<filter id="filter1_d_7715_21576" x="85.9835" y="23.9196" width="32.8367" height="32.8372" filterUnits="userSpaceOnUse" color-interpolation-filters="sRGB">
<feFlood flood-opacity="0" result="BackgroundImageFix"/>
<feColorMatrix in="SourceAlpha" type="matrix" values="0 0 0 0 0 0 0 0 0 0 0 0 0 0 0 0 0 0 127 0" result="hardAlpha"/>
<feOffset dy="2.20343"/>
<feGaussianBlur stdDeviation="2.20343"/>
<feComposite in2="hardAlpha" operator="out"/>
<feColorMatrix type="matrix" values="0 0 0 0 0 0 0 0 0 0 0 0 0 0 0 0 0 0 0.04 0"/>
<feBlend mode="normal" in2="BackgroundImageFix" result="effect1_dropShadow_7715_21576"/>
<feBlend mode="normal" in="SourceGraphic" in2="effect1_dropShadow_7715_21576" result="shape"/>
</filter>
<filter id="filter2_d_7715_21576" x="208.996" y="23.9802" width="32.9595" height="32.9583" filterUnits="userSpaceOnUse" color-interpolation-filters="sRGB">
<feFlood flood-opacity="0" result="BackgroundImageFix"/>
<feColorMatrix in="SourceAlpha" type="matrix" values="0 0 0 0 0 0 0 0 0 0 0 0 0 0 0 0 0 0 127 0" result="hardAlpha"/>
<feOffset dy="2.20343"/>
<feGaussianBlur stdDeviation="2.20343"/>
<feComposite in2="hardAlpha" operator="out"/>
<feColorMatrix type="matrix" values="0 0 0 0 0 0 0 0 0 0 0 0 0 0 0 0 0 0 0.04 0"/>
<feBlend mode="normal" in2="BackgroundImageFix" result="effect1_dropShadow_7715_21576"/>
<feBlend mode="normal" in="SourceGraphic" in2="effect1_dropShadow_7715_21576" result="shape"/>
</filter>
<filter id="filter3_d_7715_21576" x="112.363" y="23.863" width="32.9595" height="32.9583" filterUnits="userSpaceOnUse" color-interpolation-filters="sRGB">
<feFlood flood-opacity="0" result="BackgroundImageFix"/>
<feColorMatrix in="SourceAlpha" type="matrix" values="0 0 0 0 0 0 0 0 0 0 0 0 0 0 0 0 0 0 127 0" result="hardAlpha"/>
<feOffset dy="2.20343"/>
<feGaussianBlur stdDeviation="2.20343"/>
<feComposite in2="hardAlpha" operator="out"/>
<feColorMatrix type="matrix" values="0 0 0 0 0 0 0 0 0 0 0 0 0 0 0 0 0 0 0.04 0"/>
<feBlend mode="normal" in2="BackgroundImageFix" result="effect1_dropShadow_7715_21576"/>
<feBlend mode="normal" in="SourceGraphic" in2="effect1_dropShadow_7715_21576" result="shape"/>
</filter>
<linearGradient id="paint0_linear_7715_21576" x1="309.992" y1="68" x2="309.992" y2="84.3308" gradientUnits="userSpaceOnUse">
<stop stop-color="#7024C4"/>
<stop offset="1" stop-color="#DC8D40"/>
</linearGradient>
</defs>
</svg>
