<svg width="328" height="155" viewBox="0 0 328 155" fill="none" xmlns="http://www.w3.org/2000/svg">
<g clip-path="url(#clip0_1998_31359)">
<path d="M0 0H328V150C328 152.761 325.761 155 323 155H5C2.23857 155 0 152.761 0 150V0Z" fill="#F3F3F3"/>
<rect opacity="0.15" x="144.022" y="50.6314" width="77.0325" height="77.0325" rx="38.5163" fill="#DCDCDC" stroke="#828282" stroke-width="1.26283"/>
<g style="mix-blend-mode:luminosity" opacity="0.33">
<path d="M195.795 79.6748V103.144C195.795 104.204 195.048 104.931 194.282 104.931H170.788C170.023 104.931 169.277 104.205 169.276 103.144V79.6748H195.795Z" fill="white" stroke="#828282" stroke-width="1.26283"/>
<mask id="path-4-inside-1_1998_31359" fill="white">
<path d="M172.825 85.2324L172.818 86.7061C172.818 88.9143 171.036 90.705 168.839 90.7051C166.641 90.7051 164.859 88.9144 164.859 86.7061V85.2305H164.86C166.319 82.0467 167.777 78.8627 169.235 75.6787C170.058 73.8826 171.852 72.7306 173.827 72.7305H176.26L172.825 85.2324Z"/>
</mask>
<path d="M172.825 85.2324L172.818 86.7061C172.818 88.9143 171.036 90.705 168.839 90.7051C166.641 90.7051 164.859 88.9144 164.859 86.7061V85.2305H164.86C166.319 82.0467 167.777 78.8627 169.235 75.6787C170.058 73.8826 171.852 72.7306 173.827 72.7305H176.26L172.825 85.2324Z" fill="#E9E9E9"/>
<path d="M172.825 85.2324L171.607 84.8979L171.563 85.0592L171.562 85.2266L172.825 85.2324ZM172.818 86.7061L171.556 86.7002V86.706L172.818 86.7061ZM168.839 90.7051V91.9679H168.839L168.839 90.7051ZM164.859 86.7061H163.597V86.7061L164.859 86.7061ZM164.859 85.2305V83.9676H163.597V85.2305H164.859ZM164.86 85.2305V86.4933H165.671L166.008 85.7564L164.86 85.2305ZM169.235 75.6787L168.087 75.1529L168.087 75.1529L169.235 75.6787ZM173.827 72.7305V71.4676H173.827L173.827 72.7305ZM176.26 72.7305L177.477 73.065L177.916 71.4676H176.26V72.7305ZM172.825 85.2324L171.562 85.2266L171.556 86.7002L172.818 86.7061L174.081 86.7119L174.088 85.2383L172.825 85.2324ZM172.818 86.7061L171.556 86.706C171.556 88.2227 170.333 89.4422 168.839 89.4422L168.839 90.7051L168.839 91.9679C171.74 91.9678 174.081 89.606 174.081 86.7061L172.818 86.7061ZM168.839 90.7051V89.4422C167.345 89.4422 166.122 88.2228 166.122 86.706L164.859 86.7061L163.597 86.7061C163.597 89.606 165.938 91.9679 168.839 91.9679V90.7051ZM164.859 86.7061H166.122V85.2305H164.859H163.597V86.7061H164.859ZM164.859 85.2305V86.4933H164.86V85.2305V83.9676H164.859V85.2305ZM164.86 85.2305L166.008 85.7564C167.467 82.5726 168.925 79.3885 170.384 76.2045L169.235 75.6787L168.087 75.1529C166.629 78.3368 165.171 81.5208 163.712 84.7045L164.86 85.2305ZM169.235 75.6787L170.384 76.2045C171 74.8573 172.346 73.9934 173.827 73.9933L173.827 72.7305L173.827 71.4676C171.357 71.4679 169.115 72.9079 168.087 75.1529L169.235 75.6787ZM173.827 72.7305V73.9933H176.26V72.7305V71.4676H173.827V72.7305ZM176.26 72.7305L175.042 72.3959L171.607 84.8979L172.825 85.2324L174.043 85.567L177.477 73.065L176.26 72.7305Z" fill="#828282" mask="url(#path-4-inside-1_1998_31359)"/>
<mask id="path-6-inside-2_1998_31359" fill="white">
<path d="M179.636 85.2305H179.64L179.633 86.7061C179.633 88.9143 177.851 90.705 175.653 90.7051C173.456 90.7051 171.674 88.9144 171.674 86.7061V85.2324H171.67C172.815 81.0653 173.96 76.8976 175.105 72.7305H180.781C180.399 76.8969 180.017 81.064 179.636 85.2305Z"/>
</mask>
<path d="M179.636 85.2305H179.64L179.633 86.7061C179.633 88.9143 177.851 90.705 175.653 90.7051C173.456 90.7051 171.674 88.9144 171.674 86.7061V85.2324H171.67C172.815 81.0653 173.96 76.8976 175.105 72.7305H180.781C180.399 76.8969 180.017 81.064 179.636 85.2305Z" fill="#E9E9E9"/>
<path d="M179.636 85.2305L178.378 85.1154L178.252 86.4933H179.636V85.2305ZM179.64 85.2305L180.902 85.2363L180.908 83.9676H179.64V85.2305ZM179.633 86.7061L178.37 86.7002V86.706L179.633 86.7061ZM175.653 90.7051V91.9679H175.653L175.653 90.7051ZM171.674 86.7061H170.411V86.7061L171.674 86.7061ZM171.674 85.2324H172.937V83.9696H171.674V85.2324ZM171.67 85.2324L170.452 84.8979L170.013 86.4952H171.67V85.2324ZM175.105 72.7305V71.4676H174.143L173.888 72.3957L175.105 72.7305ZM180.781 72.7305L182.039 72.8458L182.165 71.4676H180.781V72.7305ZM179.636 85.2305V86.4933H179.64V85.2305V83.9676H179.636V85.2305ZM179.64 85.2305L178.377 85.2246L178.37 86.7002L179.633 86.7061L180.896 86.7119L180.902 85.2363L179.64 85.2305ZM179.633 86.7061L178.37 86.706C178.37 88.2227 177.148 89.4422 175.653 89.4422L175.653 90.7051L175.653 91.9679C178.554 91.9678 180.896 89.606 180.896 86.7061L179.633 86.7061ZM175.653 90.7051V89.4422C174.159 89.4422 172.937 88.2228 172.937 86.706L171.674 86.7061L170.411 86.7061C170.411 89.606 172.753 91.9679 175.653 91.9679V90.7051ZM171.674 86.7061H172.937V85.2324H171.674H170.411V86.7061H171.674ZM171.674 85.2324V83.9696H171.67V85.2324V86.4952H171.674V85.2324ZM171.67 85.2324L172.888 85.567C174.032 81.3999 175.178 77.2322 176.323 73.0652L175.105 72.7305L173.888 72.3957C172.742 76.5629 171.597 80.7308 170.452 84.8979L171.67 85.2324ZM175.105 72.7305V73.9933H180.781V72.7305V71.4676H175.105V72.7305ZM180.781 72.7305L179.524 72.6152C179.142 76.7816 178.76 80.9488 178.378 85.1154L179.636 85.2305L180.893 85.3456C181.275 81.1793 181.657 77.0122 182.039 72.8458L180.781 72.7305Z" fill="#828282" mask="url(#path-6-inside-2_1998_31359)"/>
<mask id="path-8-inside-3_1998_31359" fill="white">
<path d="M186.451 85.2305H186.452L186.445 86.7061C186.445 88.9143 184.664 90.705 182.466 90.7051C180.268 90.7051 178.487 88.9144 178.486 86.7061V85.2305C178.868 81.064 179.25 76.8969 179.631 72.7305H185.307C185.689 76.8969 186.07 81.064 186.451 85.2305Z"/>
</mask>
<path d="M186.451 85.2305H186.452L186.445 86.7061C186.445 88.9143 184.664 90.705 182.466 90.7051C180.268 90.7051 178.487 88.9144 178.486 86.7061V85.2305C178.868 81.064 179.25 76.8969 179.631 72.7305H185.307C185.689 76.8969 186.07 81.064 186.451 85.2305Z" fill="#E9E9E9"/>
<path d="M186.451 85.2305L185.194 85.3456L185.299 86.4933H186.451V85.2305ZM186.452 85.2305L187.715 85.2363L187.721 83.9676H186.452V85.2305ZM186.445 86.7061L185.183 86.7002V86.706L186.445 86.7061ZM182.466 90.7051V91.9679H182.466L182.466 90.7051ZM178.486 86.7061H177.224V86.7061L178.486 86.7061ZM178.486 85.2305L177.229 85.1154L177.224 85.1728V85.2305H178.486ZM179.631 72.7305V71.4676H178.478L178.373 72.6154L179.631 72.7305ZM185.307 72.7305L186.564 72.6152L186.459 71.4676H185.307V72.7305ZM186.451 85.2305V86.4933H186.452V85.2305V83.9676H186.451V85.2305ZM186.452 85.2305L185.189 85.2246L185.183 86.7002L186.445 86.7061L187.708 86.7119L187.715 85.2363L186.452 85.2305ZM186.445 86.7061L185.183 86.706C185.183 88.2228 183.961 89.4422 182.466 89.4422L182.466 90.7051L182.466 91.9679C185.367 91.9678 187.708 89.6058 187.708 86.7061L186.445 86.7061ZM182.466 90.7051V89.4422C180.972 89.4422 179.749 88.2228 179.749 86.706L178.486 86.7061L177.224 86.7061C177.224 89.606 179.565 91.9679 182.466 91.9679V90.7051ZM178.486 86.7061H179.749V85.2305H178.486H177.224V86.7061H178.486ZM178.486 85.2305L179.744 85.3456C179.935 83.2624 180.126 81.179 180.316 79.0956C180.507 77.0123 180.698 74.9288 180.889 72.8456L179.631 72.7305L178.373 72.6154C178.183 74.6985 177.992 76.7819 177.801 78.8653C177.61 80.9487 177.42 83.0321 177.229 85.1154L178.486 85.2305ZM179.631 72.7305V73.9933H185.307V72.7305V71.4676H179.631V72.7305ZM185.307 72.7305L184.049 72.8458C184.431 77.0121 184.812 81.179 185.194 85.3456L186.451 85.2305L187.709 85.1154C187.328 80.949 186.946 76.7817 186.564 72.6152L185.307 72.7305Z" fill="#828282" mask="url(#path-8-inside-3_1998_31359)"/>
<mask id="path-10-inside-4_1998_31359" fill="white">
<path d="M191.106 72.7305C193.082 72.7305 194.877 73.8825 195.699 75.6787C197.157 78.8625 198.615 82.0468 200.073 85.2305H200.076L200.07 86.7061C200.07 88.9143 198.288 90.7049 196.091 90.7051C193.893 90.7051 192.111 88.9144 192.111 86.7061V85.2324H192.109C190.964 81.0653 189.819 76.8976 188.674 72.7305H191.106Z"/>
</mask>
<path d="M191.106 72.7305C193.082 72.7305 194.877 73.8825 195.699 75.6787C197.157 78.8625 198.615 82.0468 200.073 85.2305H200.076L200.07 86.7061C200.07 88.9143 198.288 90.7049 196.091 90.7051C193.893 90.7051 192.111 88.9144 192.111 86.7061V85.2324H192.109C190.964 81.0653 189.819 76.8976 188.674 72.7305H191.106Z" fill="#E9E9E9"/>
<path d="M191.106 72.7305L191.106 71.4676H191.106V72.7305ZM195.699 75.6787L196.847 75.1529L195.699 75.6787ZM200.073 85.2305L198.925 85.7564L199.263 86.4933H200.073V85.2305ZM200.076 85.2305L201.339 85.2355L201.344 83.9676H200.076V85.2305ZM200.07 86.7061L198.807 86.701V86.706L200.07 86.7061ZM196.091 90.7051V91.9679H196.091L196.091 90.7051ZM192.111 86.7061H190.848L190.849 86.7061L192.111 86.7061ZM192.111 85.2324H193.374V83.9696H192.111V85.2324ZM192.109 85.2324L190.892 85.5672L191.147 86.4952H192.109V85.2324ZM188.674 72.7305V71.4676H187.017L187.456 73.065L188.674 72.7305ZM191.106 72.7305L191.106 73.9933C192.588 73.9934 193.934 74.8574 194.551 76.2045L195.699 75.6787L196.847 75.1529C195.819 72.9076 193.576 71.4677 191.106 71.4676L191.106 72.7305ZM195.699 75.6787L194.551 76.2045C196.009 79.3881 197.467 82.5727 198.925 85.7564L200.073 85.2305L201.221 84.7045C199.763 81.521 198.306 78.337 196.847 75.1529L195.699 75.6787ZM200.073 85.2305V86.4933H200.076V85.2305V83.9676H200.073V85.2305ZM200.076 85.2305L198.813 85.2255L198.807 86.701L200.07 86.7061L201.333 86.7111L201.339 85.2355L200.076 85.2305ZM200.07 86.7061L198.807 86.706C198.807 88.2226 197.585 89.4422 196.091 89.4422L196.091 90.7051L196.091 91.9679C198.991 91.9677 201.333 89.6059 201.333 86.7061L200.07 86.7061ZM196.091 90.7051V89.4422C194.597 89.4422 193.374 88.2228 193.374 86.706L192.111 86.7061L190.849 86.7061C190.849 89.606 193.19 91.9679 196.091 91.9679V90.7051ZM192.111 86.7061H193.374V85.2324H192.111H190.848V86.7061H192.111ZM192.111 85.2324V83.9696H192.109V85.2324V86.4952H192.111V85.2324ZM192.109 85.2324L193.327 84.8977C192.182 80.7307 191.036 76.563 189.892 72.3959L188.674 72.7305L187.456 73.065C188.601 77.2321 189.746 81.4 190.892 85.5672L192.109 85.2324ZM188.674 72.7305V73.9933H191.106V72.7305V71.4676H188.674V72.7305Z" fill="#828282" mask="url(#path-10-inside-4_1998_31359)"/>
<mask id="path-12-inside-5_1998_31359" fill="white">
<path d="M193.261 85.2305H193.263L193.256 86.7061C193.256 88.9143 191.474 90.705 189.276 90.7051C187.079 90.7051 185.297 88.9144 185.297 86.7061V85.2324H185.296C184.914 81.0653 184.532 76.8976 184.15 72.7305H189.826C190.971 76.8969 192.115 81.064 193.261 85.2305Z"/>
</mask>
<path d="M193.261 85.2305H193.263L193.256 86.7061C193.256 88.9143 191.474 90.705 189.276 90.7051C187.079 90.7051 185.297 88.9144 185.297 86.7061V85.2324H185.296C184.914 81.0653 184.532 76.8976 184.15 72.7305H189.826C190.971 76.8969 192.115 81.064 193.261 85.2305Z" fill="#E9E9E9"/>
<path d="M193.261 85.2305L192.043 85.5652L192.298 86.4933H193.261V85.2305ZM193.263 85.2305L194.526 85.2363L194.531 83.9676H193.263V85.2305ZM193.256 86.7061L191.993 86.7002V86.706L193.256 86.7061ZM189.276 90.7051V91.9679H189.276L189.276 90.7051ZM185.297 86.7061H184.034V86.7061L185.297 86.7061ZM185.297 85.2324H186.56V83.9696H185.297V85.2324ZM185.296 85.2324L184.038 85.3477L184.144 86.4952H185.296V85.2324ZM184.15 72.7305V71.4676H182.766L182.893 72.8458L184.15 72.7305ZM189.826 72.7305L191.044 72.3959L190.789 71.4676H189.826V72.7305ZM193.261 85.2305V86.4933H193.263V85.2305V83.9676H193.261V85.2305ZM193.263 85.2305L192 85.2246L191.993 86.7002L193.256 86.7061L194.519 86.7119L194.526 85.2363L193.263 85.2305ZM193.256 86.7061L191.993 86.706C191.993 88.2227 190.771 89.4422 189.276 89.4422L189.276 90.7051L189.276 91.9679C192.177 91.9678 194.519 89.606 194.519 86.7061L193.256 86.7061ZM189.276 90.7051V89.4422C187.782 89.4422 186.56 88.2228 186.56 86.706L185.297 86.7061L184.034 86.7061C184.034 89.606 186.376 91.9679 189.276 91.9679V90.7051ZM185.297 86.7061H186.56V85.2324H185.297H184.034V86.7061H185.297ZM185.297 85.2324V83.9696H185.296V85.2324V86.4952H185.297V85.2324ZM185.296 85.2324L186.553 85.1171C186.362 83.0336 186.172 80.95 185.981 78.8663C185.79 76.7826 185.599 74.6988 185.408 72.6152L184.15 72.7305L182.893 72.8458C183.084 74.9293 183.275 77.0129 183.466 79.0966C183.656 81.1803 183.847 83.2641 184.038 85.3477L185.296 85.2324ZM184.15 72.7305V73.9933H189.826V72.7305V71.4676H184.15V72.7305ZM189.826 72.7305L188.608 73.065C189.753 77.2313 190.898 81.3986 192.043 85.5652L193.261 85.2305L194.478 84.8957C193.333 80.7294 192.189 76.5625 191.044 72.3959L189.826 72.7305Z" fill="#828282" mask="url(#path-12-inside-5_1998_31359)"/>
</g>
<g filter="url(#filter0_d_1998_31359)">
<rect x="209.223" y="63.1992" width="29.466" height="29.466" rx="4.4199" transform="rotate(-7.96235 209.223 63.1992)" fill="white"/>
</g>
<g filter="url(#filter1_d_1998_31359)">
<rect x="80" y="63.0391" width="29.466" height="29.466" rx="4.4199" transform="rotate(-7.96235 80 63.0391)" fill="white"/>
</g>
<g filter="url(#filter2_d_1998_31359)">
<rect x="244.467" y="63.3555" width="29.466" height="29.466" rx="4.4199" transform="rotate(-8.49993 244.467 63.3555)" fill="white"/>
</g>
<g filter="url(#filter3_d_1998_31359)">
<rect x="115.242" y="63.1953" width="29.466" height="29.466" rx="4.4199" transform="rotate(-8.49993 115.242 63.1953)" fill="white"/>
</g>
<path d="M134.768 69.0801C135.508 69.0801 136.15 69.536 136.413 70.1963C136.503 70.1822 136.593 70.1748 136.684 70.1748C137.665 70.1748 138.463 70.9731 138.463 71.9541C138.463 72.5812 138.138 73.1412 137.633 73.458C137.815 73.7411 137.916 74.0737 137.916 74.418C137.916 74.4708 137.913 74.5238 137.908 74.5762C137.949 74.5898 137.989 74.6101 138.025 74.6367C138.141 74.7234 138.203 74.8646 138.188 75.0088L137.444 81.9932C137.378 82.621 136.851 83.0945 136.22 83.0947H128.389C127.758 83.0945 127.231 82.6216 127.164 81.9941C127.053 80.9565 126.943 79.9112 126.832 78.8662C126.698 77.5975 126.559 76.2853 126.422 75.0088C126.407 74.8648 126.468 74.7235 126.584 74.6367C126.643 74.5925 126.712 74.5657 126.783 74.5576L125.873 72.9814C125.307 72.0011 125.645 70.7428 126.625 70.1768C127.605 69.6109 128.864 69.9475 129.43 70.9277L130.231 72.3154C130.562 72.0746 130.946 71.9143 131.35 71.8496C131.404 70.9171 132.18 70.1748 133.126 70.1748H133.128C133.398 69.5229 134.038 69.0802 134.768 69.0801ZM137.299 75.5928C135.696 76.1755 134.019 76.4707 132.305 76.4707C130.59 76.4707 128.913 76.1755 127.31 75.5928C127.423 76.6551 127.538 77.7327 127.649 78.7803C127.759 79.8249 127.87 80.8698 127.981 81.9072C128.003 82.1161 128.179 82.2732 128.389 82.2734H136.22C136.43 82.2732 136.606 82.1154 136.628 81.9062L137.299 75.5928ZM135.042 77.7578C135.269 77.758 135.452 77.9413 135.452 78.168V80.3574C135.452 80.5841 135.269 80.7684 135.042 80.7686H129.568C129.341 80.7686 129.156 80.5842 129.156 80.3574V78.168C129.156 77.9412 129.341 77.7578 129.568 77.7578H135.042ZM129.978 78.5781V79.9473H134.631V78.5781H129.978ZM131.757 72.6387C131.351 72.6387 130.959 72.7803 130.645 73.0332L132.154 75.6484C132.204 75.649 132.255 75.6494 132.305 75.6494C132.556 75.6494 132.807 75.6424 133.057 75.6289C133.366 75.2992 133.536 74.8746 133.536 74.418C133.536 73.4369 132.738 72.6387 131.757 72.6387ZM128.718 71.3389C128.378 70.7507 127.623 70.5481 127.035 70.8877C126.75 71.0522 126.547 71.3181 126.462 71.6357C126.377 71.9536 126.421 72.2854 126.585 72.5703L127.958 74.9492C129.004 75.2967 130.082 75.5158 131.181 75.6045L130.351 74.166L128.771 74.2607C128.762 74.2612 128.754 74.2617 128.746 74.2617C128.531 74.2617 128.349 74.0938 128.336 73.876C128.322 73.6497 128.495 73.455 128.722 73.4414L129.892 73.3711L129.529 72.7441L127.949 72.8389C127.941 72.8393 127.933 72.8389 127.925 72.8389C127.709 72.8389 127.528 72.6711 127.515 72.4531C127.501 72.2269 127.674 72.0321 127.901 72.0186L129.07 71.9482L128.718 71.3389ZM134.768 69.9014C134.304 69.9015 133.909 70.2338 133.828 70.6914C133.809 70.8017 133.745 70.8997 133.651 70.9619C133.558 71.0241 133.443 71.0458 133.334 71.0215C133.259 71.0048 133.191 70.9961 133.126 70.9961C132.633 70.9961 132.225 71.3709 132.173 71.8506C133.109 72.0018 133.879 72.6543 134.198 73.5225C134.565 72.6345 134.631 71.9391 134.633 71.9199C134.652 71.6941 134.851 71.5263 135.076 71.5449C135.302 71.5641 135.471 71.7633 135.451 71.9893C135.446 72.0565 135.302 73.6094 134.249 75.1562C134.211 75.2854 134.163 75.4116 134.105 75.5332C135.091 75.4043 136.059 75.1687 137 74.8281C137.062 74.6995 137.095 74.5597 137.095 74.418C137.095 74.108 136.942 73.8149 136.686 73.6348C136.55 73.5394 136.485 73.3719 136.521 73.21C136.557 73.0479 136.687 72.9232 136.851 72.8945C137.309 72.8138 137.643 72.4183 137.643 71.9541C137.643 71.4259 137.212 70.9961 136.684 70.9961C136.551 70.9962 136.419 71.0253 136.291 71.083C136.171 71.1373 136.032 71.1315 135.918 71.0664C135.804 71.0014 135.729 70.8854 135.714 70.7549C135.66 70.2685 135.253 69.9014 134.768 69.9014Z" fill="black"/>
<g opacity="0.7">
<path d="M230.736 71.584C231.659 71.5842 232.432 72.3282 232.432 73.2803V79.7373C232.402 80.6597 231.658 81.4336 230.706 81.4336H220.113C219.191 81.4336 218.417 80.6895 218.417 79.7373V73.2803C218.417 72.3579 219.161 71.584 220.113 71.584H230.736ZM220.113 72.7744C219.816 72.7744 219.608 73.0125 219.608 73.2803V79.7373C219.608 80.0348 219.846 80.2432 220.113 80.2432H230.736C231.034 80.243 231.242 80.005 231.242 79.7373V73.2803C231.242 72.9829 231.004 72.7746 230.736 72.7744H220.113ZM223.654 73.4883C225.321 73.4884 226.659 74.8568 226.659 76.4932C226.659 78.1296 225.321 79.5281 223.654 79.5283C221.988 79.5283 220.649 78.1595 220.649 76.4932C220.649 74.8269 221.988 73.4883 223.654 73.4883ZM223.654 74.6484C222.643 74.6484 221.81 75.4815 221.81 76.4932C221.81 77.5049 222.643 78.3379 223.654 78.3379C224.666 78.3377 225.499 77.5048 225.499 76.4932C225.529 75.4816 224.696 74.6486 223.654 74.6484ZM229.397 73.5186C229.724 73.5186 229.992 73.786 229.992 74.1133C229.992 74.4406 229.724 74.708 229.397 74.708H229.069C228.742 74.7078 228.475 74.4405 228.475 74.1133C228.475 73.7861 228.742 73.5187 229.069 73.5186H229.397ZM223.386 69.709C223.713 69.709 223.981 69.9774 223.981 70.3047C223.98 70.6318 223.713 70.8994 223.386 70.8994H221.214C220.887 70.8994 220.618 70.6318 220.618 70.3047C220.618 69.9774 220.887 69.709 221.214 69.709H223.386Z" fill="#828282"/>
</g>
<path d="M92.0552 69.0801C92.0552 69.803 92.6438 70.3916 93.3668 70.3916H93.6509C93.3794 70.0246 93.2183 69.5706 93.2183 69.0801H94.1168C94.1168 69.8029 94.7044 70.3915 95.4273 70.3916H95.7281C98.4879 70.3916 100.93 72.1828 101.772 74.7842C102.162 74.8581 102.521 75.0464 102.807 75.332C103.184 75.7093 103.391 76.2106 103.391 76.7432C103.391 77.2692 103.188 77.7655 102.82 78.1406C102.532 78.4338 102.168 78.6271 101.772 78.7021C100.93 81.3036 98.488 83.0947 95.7281 83.0947C92.9684 83.0946 90.5269 81.3035 89.6851 78.7021C89.2891 78.6271 88.9253 78.4338 88.6373 78.1406C88.2688 77.7655 88.066 77.2692 88.066 76.7432C88.066 76.2106 88.2734 75.71 88.65 75.333C88.9362 75.0471 89.2953 74.8581 89.6851 74.7842C90.1928 73.2154 91.2822 71.9411 92.6724 71.1768C91.7934 70.8851 91.1568 70.0558 91.1568 69.0801H92.0552ZM95.7281 71.2891C93.2693 71.2892 91.1044 72.9452 90.4634 75.3154L90.3755 75.6406L90.0386 75.6465C89.7541 75.6518 89.4864 75.7663 89.2847 75.9678C89.0779 76.1748 88.9634 76.4502 88.9634 76.7432C88.9635 77.3364 89.4459 77.8277 90.0386 77.8389L90.3755 77.8457L90.4634 78.1709C91.1044 80.5412 93.2693 82.1971 95.7281 82.1973C98.187 82.1973 100.353 80.5413 100.994 78.1709L101.082 77.8457L101.419 77.8389C102.011 77.8276 102.494 77.3364 102.494 76.7432C102.494 76.4502 102.38 76.1742 102.172 75.9668C101.971 75.7658 101.703 75.6518 101.419 75.6465L101.082 75.6406L100.994 75.3154C100.548 73.6671 99.365 72.3643 97.8589 71.7236C98.0122 72.0371 98.0981 72.389 98.0982 72.7607C98.0982 74.0675 97.0348 75.1309 95.7281 75.1309C94.4215 75.1307 93.3589 74.0674 93.3589 72.7607H94.2564C94.2564 73.5722 94.9167 74.2332 95.7281 74.2334C96.5397 74.2334 97.2007 73.5723 97.2007 72.7607C97.2005 71.9493 96.5395 71.2891 95.7281 71.2891ZM97.8912 79.2119C97.4412 79.9741 96.6128 80.4472 95.7291 80.4473C94.8452 80.4473 94.016 79.9743 93.566 79.2119L94.3394 78.7549C94.6287 79.245 95.1613 79.5498 95.7291 79.5498C96.2967 79.5497 96.8286 79.2449 97.1177 78.7549L97.8912 79.2119ZM93.1519 75.4434C93.9677 75.4434 94.6314 76.107 94.6314 76.9229H93.7339C93.7339 76.6022 93.4726 76.3408 93.1519 76.3408C92.8314 76.341 92.5709 76.6023 92.5709 76.9229H91.6724C91.6724 76.1071 92.3362 75.4435 93.1519 75.4434ZM98.3052 75.4434C99.121 75.4435 99.7847 76.1071 99.7847 76.9229H98.8863C98.8863 76.6022 98.6258 76.3409 98.3052 76.3408C97.9846 76.3408 97.7232 76.6022 97.7232 76.9229H96.8257C96.8257 76.107 97.4894 75.4434 98.3052 75.4434Z" fill="black"/>
<g opacity="0.7">
<path d="M268.012 75.2486C267.483 74.4613 266.596 74.5547 266.569 74.5485C266.452 74.5485 266.338 74.5617 266.226 74.5866L266.838 72.2164C267.143 71.0361 266.592 69.7987 265.509 69.2378C264.32 68.6213 263.06 68.3086 261.766 68.3086C260.472 68.3086 259.213 68.6213 258.023 69.2378C256.941 69.7987 256.389 71.0361 256.694 72.2163L257.307 74.5866C257.077 74.5354 256.921 74.5517 256.835 74.5485C255.711 74.5485 254.945 75.688 255.37 76.7264C255.923 78.0785 256.882 79.2111 258.132 79.9822L257.048 81.4509C256.868 81.6942 256.92 82.0369 257.163 82.2164C257.408 82.3971 257.751 82.3426 257.929 82.1009L259.12 80.4871C259.95 80.8303 260.842 81.0085 261.754 81.0085H261.779C262.691 81.0085 263.583 80.8303 264.413 80.4871L265.604 82.1009C265.783 82.3435 266.125 82.3964 266.369 82.2164C266.613 82.0369 266.664 81.6942 266.485 81.4509L265.401 79.9822C266.649 79.2122 267.609 78.0804 268.163 76.7264C268.362 76.2387 268.306 75.6862 268.012 75.2486ZM258.527 70.21C259.56 69.6749 260.649 69.4035 261.767 69.4035C262.883 69.4035 263.973 69.6749 265.006 70.2099C265.639 70.5383 265.957 71.2507 265.778 71.9425L264.828 75.6217C264.081 76.1754 262.955 76.5794 261.766 76.5794C260.576 76.5794 259.45 76.1742 258.705 75.6217L257.755 71.9424C257.576 71.2507 257.893 70.5383 258.527 70.21ZM267.149 76.3121C266.259 78.4884 264.139 79.9136 261.779 79.9136H261.754C259.388 79.9136 257.271 78.4836 256.383 76.3121C256.253 75.9929 256.487 75.6434 256.835 75.6434C256.895 75.6536 257.156 75.5883 257.356 75.8413C258.055 76.7241 259.733 77.6743 261.766 77.6743C263.8 77.6743 265.478 76.7241 266.176 75.8412C266.276 75.7155 266.419 75.6434 266.569 75.6434C266.627 75.6536 266.92 75.586 267.103 75.859C267.194 75.9952 267.211 76.1603 267.149 76.3121Z" fill="#828282"/>
</g>
<g opacity="0.49">
<path d="M0 0H114V156.48H5C2.23858 156.48 0 154.241 0 151.48V0Z" fill="black"/>
<circle cx="57.5" cy="29.5" r="15.5" fill="#F8F9F8" stroke="#E9E9E9" stroke-width="0.0807292"/>
<path d="M52.6105 29.9694C53.632 29.9694 54.5317 29.4654 55.0871 28.6935C55.6223 29.4637 56.5104 29.9694 57.5176 29.9694C58.5223 29.9694 59.4096 29.4664 59.9454 28.6995C60.4976 29.4677 61.3975 29.9694 62.4137 29.9694C64.3629 29.9694 65.8371 28.0798 65.3609 26.1883L64.4316 22.4973C64.2904 21.9365 63.7877 21.5449 63.2091 21.5449H51.7802C51.2017 21.5449 50.6991 21.9365 50.5578 22.4973L49.6346 26.1663C49.3711 27.2126 49.7174 28.1244 50.3288 28.9545V36.1907C50.3288 36.8854 50.8896 37.4506 51.5846 37.4506H63.4094C64.1044 37.4506 64.6653 36.8854 64.6653 36.1907V31.4978C64.6653 31.1934 64.4094 30.9466 64.1048 30.9466C63.8002 30.9466 63.5442 31.1933 63.5442 31.4978V36.1907C63.5442 36.2777 63.4963 36.363 63.4094 36.363H59.9432V32.0582C59.9432 31.7538 59.6958 31.5029 59.3912 31.5029H55.603C55.2984 31.5029 55.0511 31.7538 55.0511 32.0582V36.363H51.5846C51.4977 36.363 51.45 36.2776 51.45 36.1907V29.738C51.7897 29.8893 52.2007 29.9694 52.6105 29.9694ZM60.4867 22.6324H63.209C63.2814 22.6324 63.3442 22.6888 63.3619 22.759L64.291 26.4535C64.5931 27.6537 63.6581 28.8652 62.4181 28.8652C61.3503 28.8652 60.4867 27.9981 60.4867 26.9301V22.6324ZM55.6626 22.6324H59.3995V26.9301C59.3995 27.9677 58.5882 28.867 57.529 28.867C56.4525 28.867 55.6626 27.9576 55.6626 26.9125V22.6324ZM56.1722 32.6245H58.8221V36.363H56.1722V32.6245ZM50.7032 26.4353L51.6271 22.759C51.6448 22.6888 51.708 22.6325 51.7802 22.6325H54.5415V26.9125C54.5415 27.9898 53.6714 28.8663 52.5945 28.867C51.3414 28.8663 50.3974 27.6502 50.7032 26.4353Z" fill="#828282"/>
<path d="M24.6667 85.8346C24.6667 88.7472 21.4356 91.7806 20.3506 92.7174C20.2495 92.7934 20.1265 92.8345 20 92.8345C19.8735 92.8345 19.7505 92.7934 19.6494 92.7174C18.5644 91.7806 15.3333 88.7472 15.3333 85.8346C15.3333 84.597 15.825 83.41 16.7002 82.5348C17.5753 81.6596 18.7623 81.168 20 81.168C21.2377 81.168 22.4247 81.6596 23.2998 82.5348C24.175 83.41 24.6667 84.597 24.6667 85.8346Z" stroke="white" stroke-linecap="round" stroke-linejoin="round"/>
<path d="M20 87.5846C20.9665 87.5846 21.75 86.8011 21.75 85.8346C21.75 84.8681 20.9665 84.0846 20 84.0846C19.0335 84.0846 18.25 84.8681 18.25 85.8346C18.25 86.8011 19.0335 87.5846 20 87.5846Z" stroke="white" stroke-linecap="round" stroke-linejoin="round"/>
<path d="M43 87H92" stroke="#E9E9E9" stroke-width="2" stroke-linecap="round"/>
<path d="M25.8332 113.871V115.621C25.8339 115.784 25.8006 115.945 25.7355 116.093C25.6705 116.242 25.575 116.376 25.4553 116.486C25.3356 116.596 25.1942 116.679 25.0403 116.731C24.8865 116.783 24.7234 116.803 24.5616 116.788C22.7666 116.593 21.0423 115.98 19.5274 114.997C18.118 114.102 16.923 112.907 16.0274 111.497C15.0416 109.975 14.4281 108.243 14.2366 106.44C14.222 106.278 14.2412 106.116 14.2929 105.962C14.3446 105.809 14.4277 105.668 14.5369 105.548C14.6461 105.429 14.779 105.333 14.9271 105.267C15.0753 105.202 15.2354 105.168 15.3974 105.168H17.1474C17.4305 105.165 17.705 105.265 17.9196 105.45C18.1343 105.635 18.2745 105.891 18.3141 106.171C18.3879 106.731 18.5249 107.281 18.7224 107.811C18.8009 108.019 18.8179 108.246 18.7714 108.464C18.7248 108.683 18.6167 108.883 18.4599 109.041L17.7191 109.782C18.5495 111.243 19.7587 112.452 21.2191 113.282L21.9599 112.541C22.1185 112.385 22.3188 112.276 22.5369 112.23C22.755 112.183 22.982 112.2 23.1907 112.279C23.72 112.476 24.2699 112.613 24.8299 112.687C25.1133 112.727 25.3721 112.87 25.5571 113.088C25.742 113.307 25.8403 113.585 25.8332 113.871Z" stroke="white" stroke-linecap="round" stroke-linejoin="round"/>
<path d="M43 111H80" stroke="#E9E9E9" stroke-width="2" stroke-linecap="round"/>
<path d="M25.833 132.082L20.6005 135.407C20.4204 135.52 20.2122 135.58 19.9997 135.58C19.7872 135.58 19.5789 135.52 19.3989 135.407L14.1664 132.082M15.333 130.332H24.6664C25.3107 130.332 25.833 130.854 25.833 131.499V138.499C25.833 139.143 25.3107 139.665 24.6664 139.665H15.333C14.6887 139.665 14.1664 139.143 14.1664 138.499V131.499C14.1664 130.854 14.6887 130.332 15.333 130.332Z" stroke="white" stroke-linecap="round" stroke-linejoin="round"/>
<path d="M43 135H101" stroke="#E9E9E9" stroke-width="2" stroke-linecap="round"/>
<path opacity="0.85" d="M28.6896 56.6719C28.6499 56.2997 28.4822 56.0099 28.1868 55.8026C27.8942 55.5952 27.5135 55.4915 27.0447 55.4915C26.7152 55.4915 26.4325 55.5412 26.1967 55.6406C25.9609 55.7401 25.7805 55.875 25.6555 56.0455C25.5305 56.2159 25.4666 56.4105 25.4638 56.6293C25.4638 56.8111 25.505 56.9687 25.5874 57.1023C25.6726 57.2358 25.7876 57.3494 25.9325 57.4432C26.0774 57.5341 26.2379 57.6108 26.4141 57.6733C26.5902 57.7358 26.7678 57.7884 26.9467 57.831L27.7649 58.0355C28.0945 58.1122 28.4112 58.2159 28.7152 58.3466C29.022 58.4773 29.2962 58.642 29.5376 58.8409C29.782 59.0398 29.9751 59.2798 30.1172 59.5611C30.2592 59.8423 30.3303 60.1719 30.3303 60.5497C30.3303 61.0611 30.1996 61.5114 29.9382 61.9006C29.6768 62.2869 29.299 62.5895 28.8047 62.8082C28.3132 63.0241 27.718 63.1321 27.0192 63.1321C26.3402 63.1321 25.7507 63.027 25.2507 62.8168C24.7536 62.6065 24.3643 62.2997 24.0831 61.8963C23.8047 61.4929 23.6541 61.0014 23.6314 60.4219H25.1868C25.2095 60.7259 25.3033 60.9787 25.468 61.1804C25.6328 61.3821 25.8473 61.5327 26.1115 61.6321C26.3786 61.7315 26.6768 61.7812 27.0064 61.7812C27.3501 61.7812 27.6513 61.7301 27.9098 61.6278C28.1712 61.5227 28.3757 61.3778 28.5234 61.1932C28.6712 61.0057 28.7464 60.7869 28.7493 60.5369C28.7464 60.3097 28.6797 60.1222 28.549 59.9744C28.4183 59.8239 28.2351 59.6989 27.9993 59.5994C27.7663 59.4972 27.4936 59.4062 27.1811 59.3267L26.1882 59.071C25.4695 58.8864 24.9013 58.6065 24.4837 58.2315C24.0689 57.8537 23.8615 57.3523 23.8615 56.7273C23.8615 56.2131 24.0007 55.7628 24.2791 55.3764C24.5604 54.9901 24.9425 54.6903 25.4254 54.4773C25.9084 54.2614 26.4553 54.1534 27.0661 54.1534C27.6854 54.1534 28.228 54.2614 28.6939 54.4773C29.1626 54.6903 29.5305 54.9872 29.7976 55.3679C30.0646 55.7457 30.2024 56.1804 30.2109 56.6719H28.6896ZM34.94 56.4545V57.6477H31.1772V56.4545H34.94ZM32.1062 54.8864H33.6488V61.0312C33.6488 61.2386 33.68 61.3977 33.7425 61.5085C33.8079 61.6165 33.8931 61.6903 33.9982 61.7301C34.1033 61.7699 34.2198 61.7898 34.3477 61.7898C34.4442 61.7898 34.5323 61.7827 34.6119 61.7685C34.6942 61.7543 34.7567 61.7415 34.7994 61.7301L35.0593 62.9361C34.9769 62.9645 34.859 62.9957 34.7056 63.0298C34.555 63.0639 34.3704 63.0838 34.1516 63.0895C33.7653 63.1009 33.4173 63.0426 33.1076 62.9148C32.7979 62.7841 32.5522 62.5824 32.3704 62.3097C32.1914 62.0369 32.1033 61.696 32.1062 61.2869V54.8864ZM39.0149 63.1278C38.3757 63.1278 37.8217 62.9872 37.353 62.706C36.8842 62.4247 36.5206 62.0312 36.2621 61.5256C36.0064 61.0199 35.8786 60.429 35.8786 59.7528C35.8786 59.0767 36.0064 58.4844 36.2621 57.9759C36.5206 57.4673 36.8842 57.0724 37.353 56.7912C37.8217 56.5099 38.3757 56.3693 39.0149 56.3693C39.6541 56.3693 40.2081 56.5099 40.6768 56.7912C41.1456 57.0724 41.5078 57.4673 41.7635 57.9759C42.022 58.4844 42.1513 59.0767 42.1513 59.7528C42.1513 60.429 42.022 61.0199 41.7635 61.5256C41.5078 62.0312 41.1456 62.4247 40.6768 62.706C40.2081 62.9872 39.6541 63.1278 39.0149 63.1278ZM39.0234 61.892C39.37 61.892 39.6598 61.7969 39.8928 61.6065C40.1257 61.4134 40.299 61.1548 40.4126 60.831C40.5291 60.5071 40.5874 60.1463 40.5874 59.7486C40.5874 59.348 40.5291 58.9858 40.4126 58.6619C40.299 58.3352 40.1257 58.0753 39.8928 57.8821C39.6598 57.6889 39.37 57.5923 39.0234 57.5923C38.6683 57.5923 38.3729 57.6889 38.1371 57.8821C37.9041 58.0753 37.7294 58.3352 37.6129 58.6619C37.4993 58.9858 37.4425 59.348 37.4425 59.7486C37.4425 60.1463 37.4993 60.5071 37.6129 60.831C37.7294 61.1548 37.9041 61.4134 38.1371 61.6065C38.3729 61.7969 38.6683 61.892 39.0234 61.892ZM43.4606 63V56.4545H44.9563V57.5455H45.0245C45.1438 57.1676 45.3484 56.8764 45.6381 56.6719C45.9308 56.4645 46.2646 56.3608 46.6396 56.3608C46.7248 56.3608 46.82 56.3651 46.9251 56.3736C47.033 56.3793 47.1225 56.3892 47.1935 56.4034V57.8224C47.1282 57.7997 47.0245 57.7798 46.8825 57.7628C46.7433 57.7429 46.6083 57.733 46.4776 57.733C46.1964 57.733 45.9435 57.794 45.7191 57.9162C45.4975 58.0355 45.3228 58.2017 45.195 58.4148C45.0671 58.6278 45.0032 58.8736 45.0032 59.152V63H43.4606ZM50.8466 63.1278C50.1903 63.1278 49.6236 62.9915 49.1463 62.7188C48.6719 62.4432 48.3068 62.054 48.0511 61.5511C47.7955 61.0455 47.6676 60.4503 47.6676 59.7656C47.6676 59.0923 47.7955 58.5014 48.0511 57.9929C48.3097 57.4815 48.6705 57.0838 49.1335 56.7997C49.5966 56.5128 50.1406 56.3693 50.7656 56.3693C51.169 56.3693 51.5497 56.4347 51.9077 56.5653C52.2685 56.6932 52.5866 56.892 52.8622 57.1619C53.1406 57.4318 53.3594 57.7756 53.5185 58.1932C53.6776 58.608 53.7571 59.1023 53.7571 59.6761V60.1491H48.392V59.1094H52.2784C52.2756 58.8139 52.2116 58.5511 52.0866 58.321C51.9616 58.0881 51.7869 57.9048 51.5625 57.7713C51.3409 57.6378 51.0824 57.571 50.7869 57.571C50.4716 57.571 50.1946 57.6477 49.956 57.8011C49.7173 57.9517 49.5313 58.1506 49.3977 58.3977C49.267 58.642 49.2003 58.9105 49.1974 59.2031V60.1108C49.1974 60.4915 49.267 60.8182 49.4062 61.0909C49.5455 61.3608 49.7401 61.5682 49.9901 61.7131C50.2401 61.8551 50.5327 61.9261 50.8679 61.9261C51.0923 61.9261 51.2955 61.8949 51.4773 61.8324C51.6591 61.767 51.8168 61.6719 51.9503 61.5469C52.0838 61.4219 52.1847 61.267 52.2528 61.0824L53.6932 61.2443C53.6023 61.625 53.429 61.9574 53.1733 62.2415C52.9205 62.5227 52.5966 62.7415 52.2017 62.8977C51.8068 63.0511 51.3551 63.1278 50.8466 63.1278ZM65.2788 54.2727V63H63.8725L59.7603 57.0554H59.6879V63H58.1069V54.2727H59.5217L63.6296 60.2216H63.7063V54.2727H65.2788ZM68.8168 63.1321C68.402 63.1321 68.0284 63.0582 67.696 62.9105C67.3665 62.7599 67.1051 62.5384 66.9119 62.2457C66.7216 61.9531 66.6264 61.5923 66.6264 61.1634C66.6264 60.794 66.6946 60.4886 66.831 60.2472C66.9673 60.0057 67.1534 59.8125 67.3892 59.6676C67.625 59.5227 67.8906 59.4134 68.1861 59.3395C68.4844 59.2628 68.7926 59.2074 69.1108 59.1733C69.4943 59.1335 69.8054 59.098 70.044 59.0668C70.2827 59.0327 70.456 58.9815 70.5639 58.9134C70.6747 58.8423 70.7301 58.733 70.7301 58.5852V58.5597C70.7301 58.2386 70.6349 57.9901 70.4446 57.8139C70.2543 57.6378 69.9801 57.5497 69.6222 57.5497C69.2443 57.5497 68.9446 57.6321 68.723 57.7969C68.5043 57.9616 68.3565 58.1562 68.2798 58.3807L66.8395 58.1761C66.9531 57.7784 67.1406 57.446 67.402 57.179C67.6634 56.9091 67.983 56.7074 68.3608 56.5739C68.7386 56.4375 69.1563 56.3693 69.6136 56.3693C69.929 56.3693 70.2429 56.4062 70.5554 56.4801C70.8679 56.554 71.1534 56.6761 71.4119 56.8466C71.6705 57.0142 71.8778 57.2429 72.0341 57.5327C72.1932 57.8224 72.2727 58.1847 72.2727 58.6193V63H70.7898V62.1009H70.7386C70.6449 62.2827 70.5128 62.4531 70.3423 62.6122C70.1747 62.7685 69.9631 62.8949 69.7074 62.9915C69.4545 63.0852 69.1577 63.1321 68.8168 63.1321ZM69.2173 61.9986C69.527 61.9986 69.7955 61.9375 70.0227 61.8153C70.25 61.6903 70.4247 61.5256 70.5469 61.321C70.6719 61.1165 70.7344 60.8935 70.7344 60.652V59.8807C70.6861 59.9205 70.6037 59.9574 70.4872 59.9915C70.3736 60.0256 70.2457 60.0554 70.1037 60.081C69.9616 60.1065 69.821 60.1293 69.6818 60.1491C69.5426 60.169 69.4219 60.1861 69.3196 60.2003C69.0895 60.2315 68.8835 60.2827 68.7017 60.3537C68.5199 60.4247 68.3764 60.5241 68.2713 60.652C68.1662 60.777 68.1136 60.9389 68.1136 61.1378C68.1136 61.4219 68.2173 61.6364 68.4247 61.7812C68.6321 61.9261 68.8963 61.9986 69.2173 61.9986ZM73.8239 63V56.4545H75.2983V57.5668H75.375C75.5114 57.1918 75.7372 56.8991 76.0526 56.6889C76.3679 56.4759 76.7443 56.3693 77.1818 56.3693C77.625 56.3693 77.9986 56.4773 78.3026 56.6932C78.6094 56.9062 78.8253 57.1974 78.9503 57.5668H79.0185C79.1634 57.2031 79.4077 56.9134 79.7514 56.6974C80.098 56.4787 80.5085 56.3693 80.983 56.3693C81.5852 56.3693 82.0767 56.5597 82.4574 56.9403C82.8381 57.321 83.0284 57.8764 83.0284 58.6065V63H81.4815V58.8452C81.4815 58.4389 81.3736 58.142 81.1577 57.9545C80.9418 57.7642 80.6776 57.669 80.3651 57.669C79.9929 57.669 79.7017 57.7855 79.4915 58.0185C79.2841 58.2486 79.1804 58.5483 79.1804 58.9176V63H77.6676V58.7812C77.6676 58.4432 77.5653 58.1733 77.3608 57.9716C77.1591 57.7699 76.8949 57.669 76.5682 57.669C76.3466 57.669 76.1449 57.7259 75.9631 57.8395C75.7813 57.9503 75.6364 58.108 75.5284 58.3125C75.4205 58.5142 75.3665 58.75 75.3665 59.0199V63H73.8239ZM87.4911 63.1278C86.8349 63.1278 86.2681 62.9915 85.7908 62.7188C85.3164 62.4432 84.9513 62.054 84.6957 61.5511C84.44 61.0455 84.3121 60.4503 84.3121 59.7656C84.3121 59.0923 84.44 58.5014 84.6957 57.9929C84.9542 57.4815 85.315 57.0838 85.7781 56.7997C86.2411 56.5128 86.7852 56.3693 87.4102 56.3693C87.8136 56.3693 88.1942 56.4347 88.5522 56.5653C88.913 56.6932 89.2312 56.892 89.5067 57.1619C89.7852 57.4318 90.0039 57.7756 90.163 58.1932C90.3221 58.608 90.4016 59.1023 90.4016 59.6761V60.1491H85.0366V59.1094H88.9229C88.9201 58.8139 88.8562 58.5511 88.7312 58.321C88.6062 58.0881 88.4315 57.9048 88.207 57.7713C87.9854 57.6378 87.7269 57.571 87.4315 57.571C87.1161 57.571 86.8391 57.6477 86.6005 57.8011C86.3619 57.9517 86.1758 58.1506 86.0423 58.3977C85.9116 58.642 85.8448 58.9105 85.842 59.2031V60.1108C85.842 60.4915 85.9116 60.8182 86.0508 61.0909C86.19 61.3608 86.3846 61.5682 86.6346 61.7131C86.8846 61.8551 87.1772 61.9261 87.5124 61.9261C87.7369 61.9261 87.94 61.8949 88.1218 61.8324C88.3036 61.767 88.4613 61.6719 88.5948 61.5469C88.7283 61.4219 88.8292 61.267 88.8974 61.0824L90.3377 61.2443C90.2468 61.625 90.0735 61.9574 89.8178 62.2415C89.565 62.5227 89.2411 62.7415 88.8462 62.8977C88.4513 63.0511 87.9996 63.1278 87.4911 63.1278Z" fill="white"/>
</g>
</g>
<defs>
<filter id="filter0_d_1998_31359" x="203.899" y="56.7409" width="43.9118" height="43.9114" filterUnits="userSpaceOnUse" color-interpolation-filters="sRGB">
<feFlood flood-opacity="0" result="BackgroundImageFix"/>
<feColorMatrix in="SourceAlpha" type="matrix" values="0 0 0 0 0 0 0 0 0 0 0 0 0 0 0 0 0 0 127 0" result="hardAlpha"/>
<feOffset dy="2.9466"/>
<feGaussianBlur stdDeviation="2.9466"/>
<feComposite in2="hardAlpha" operator="out"/>
<feColorMatrix type="matrix" values="0 0 0 0 0 0 0 0 0 0 0 0 0 0 0 0 0 0 0.04 0"/>
<feBlend mode="normal" in2="BackgroundImageFix" result="effect1_dropShadow_1998_31359"/>
<feBlend mode="normal" in="SourceGraphic" in2="effect1_dropShadow_1998_31359" result="shape"/>
</filter>
<filter id="filter1_d_1998_31359" x="74.6759" y="56.5807" width="43.9118" height="43.9114" filterUnits="userSpaceOnUse" color-interpolation-filters="sRGB">
<feFlood flood-opacity="0" result="BackgroundImageFix"/>
<feColorMatrix in="SourceAlpha" type="matrix" values="0 0 0 0 0 0 0 0 0 0 0 0 0 0 0 0 0 0 127 0" result="hardAlpha"/>
<feOffset dy="2.9466"/>
<feGaussianBlur stdDeviation="2.9466"/>
<feComposite in2="hardAlpha" operator="out"/>
<feColorMatrix type="matrix" values="0 0 0 0 0 0 0 0 0 0 0 0 0 0 0 0 0 0 0.04 0"/>
<feBlend mode="normal" in2="BackgroundImageFix" result="effect1_dropShadow_1998_31359"/>
<feBlend mode="normal" in="SourceGraphic" in2="effect1_dropShadow_1998_31359" result="shape"/>
</filter>
<filter id="filter2_d_1998_31359" x="239.178" y="56.6569" width="44.0757" height="44.0774" filterUnits="userSpaceOnUse" color-interpolation-filters="sRGB">
<feFlood flood-opacity="0" result="BackgroundImageFix"/>
<feColorMatrix in="SourceAlpha" type="matrix" values="0 0 0 0 0 0 0 0 0 0 0 0 0 0 0 0 0 0 127 0" result="hardAlpha"/>
<feOffset dy="2.9466"/>
<feGaussianBlur stdDeviation="2.9466"/>
<feComposite in2="hardAlpha" operator="out"/>
<feColorMatrix type="matrix" values="0 0 0 0 0 0 0 0 0 0 0 0 0 0 0 0 0 0 0.04 0"/>
<feBlend mode="normal" in2="BackgroundImageFix" result="effect1_dropShadow_1998_31359"/>
<feBlend mode="normal" in="SourceGraphic" in2="effect1_dropShadow_1998_31359" result="shape"/>
</filter>
<filter id="filter3_d_1998_31359" x="109.953" y="56.4968" width="44.0757" height="44.0774" filterUnits="userSpaceOnUse" color-interpolation-filters="sRGB">
<feFlood flood-opacity="0" result="BackgroundImageFix"/>
<feColorMatrix in="SourceAlpha" type="matrix" values="0 0 0 0 0 0 0 0 0 0 0 0 0 0 0 0 0 0 127 0" result="hardAlpha"/>
<feOffset dy="2.9466"/>
<feGaussianBlur stdDeviation="2.9466"/>
<feComposite in2="hardAlpha" operator="out"/>
<feColorMatrix type="matrix" values="0 0 0 0 0 0 0 0 0 0 0 0 0 0 0 0 0 0 0.04 0"/>
<feBlend mode="normal" in2="BackgroundImageFix" result="effect1_dropShadow_1998_31359"/>
<feBlend mode="normal" in="SourceGraphic" in2="effect1_dropShadow_1998_31359" result="shape"/>
</filter>
<clipPath id="clip0_1998_31359">
<path d="M0 0H328V150C328 152.761 325.761 155 323 155H5C2.23857 155 0 152.761 0 150V0Z" fill="white"/>
</clipPath>
</defs>
</svg>
