<svg width="59" height="58" viewBox="0 0 59 58" fill="none" xmlns="http://www.w3.org/2000/svg">
<rect x="0.614258" y="0.345703" width="57.5632" height="57.5632" rx="28.7816" fill="url(#paint0_linear_8600_4028)"/>
<rect x="0.614258" y="0.345703" width="57.5632" height="57.5632" rx="28.7816" fill="url(#paint1_linear_8600_4028)"/>
<path opacity="0.5" d="M34.9076 28.4227C34.8853 33.9215 32.5255 39.5984 27.6501 42.1808C24.2217 44.0063 16.1182 45.4089 16.1182 39.4648C16.1182 39.4648 16.1182 17.3583 16.1182 17.336C16.1182 14.0412 18.901 12.9503 21.6838 13.1062C25.8246 13.3288 29.7873 15.2656 32.1916 18.8276C33.7277 21.0984 34.5737 23.8366 34.8408 26.5972C34.8631 27.2205 34.9076 27.8216 34.9076 28.4227Z" fill="white"/>
<path d="M42.5881 26.4859C42.1206 21.9443 39.3378 18.1375 35.4864 15.8444C33.5793 14.7002 31.314 14.1983 29.5923 15.2865C28.2991 16.1038 27.6742 17.7017 26.9442 19.0461C24.1151 24.2566 16.8371 37.6308 16.8083 37.6837C16.8073 37.6857 16.8077 37.6849 16.8066 37.6869C15.829 39.4888 16.0518 40.9794 16.9418 42.2031C18.2776 44.0286 20.9268 44.8523 23.0862 45.0749C25.0899 45.2976 27.1157 45.0749 29.0526 44.6297C34.9076 43.2939 40.0947 39.309 41.8534 33.5208C42.5436 31.25 42.833 28.8679 42.5881 26.4859Z" fill="white"/>
<defs>
<linearGradient id="paint0_linear_8600_4028" x1="29.3959" y1="0.345703" x2="29.3959" y2="57.9089" gradientUnits="userSpaceOnUse">
<stop stop-color="#FF7D92"/>
<stop offset="0.229167" stop-color="#E3397D"/>
<stop offset="0.635417" stop-color="#800CD2"/>
<stop offset="1" stop-color="#5812D0"/>
</linearGradient>
<linearGradient id="paint1_linear_8600_4028" x1="29.3959" y1="0.345703" x2="29.3959" y2="57.9089" gradientUnits="userSpaceOnUse">
<stop stop-color="#FF7D92"/>
<stop offset="0.229167" stop-color="#E3397D"/>
<stop offset="0.635417" stop-color="#800CD2"/>
<stop offset="1" stop-color="#5812D0"/>
</linearGradient>
</defs>
</svg>
