<svg xmlns="http://www.w3.org/2000/svg" xmlns:v="https://vecta.io/nano" width="15" height="17" fill="none"><path d="M8.621 13.442c2.621-.62 4.243-3.246 3.624-5.867S8.999 3.332 6.378 3.952 2.135 7.198 2.755 9.818s3.246 4.243 5.867 3.624z" fill="#fabe2c"/><path d="M7.5 3.825v9.754c2.689 0 4.877-2.188 4.877-4.877S10.19 3.825 7.5 3.825h0z" fill="#ff9100"/><path d="M12.803 3.399c-1.161-1.161-2.636-1.894-4.233-2.121L9.038.81c.185-.185.185-.486 0-.671s-.486-.185-.671 0L7.164 1.341c-.185.185-.185.486 0 .671l1.202 1.202c.093.093.214.139.336.139s.243-.046.336-.139c.185-.185.185-.486 0-.671l-.268-.268c3.006.593 5.281 3.249 5.281 6.427A6.56 6.56 0 0 1 7.5 15.253 6.56 6.56 0 0 1 .949 8.702c0-1.378.423-2.697 1.223-3.813a6.53 6.53 0 0 1 3.124-2.358c.247-.088.376-.36.287-.607s-.36-.376-.607-.287c-1.443.515-2.68 1.449-3.577 2.699A7.45 7.45 0 0 0 0 8.702a7.45 7.45 0 0 0 2.197 5.303A7.45 7.45 0 0 0 7.5 16.202a7.45 7.45 0 0 0 5.303-2.197A7.45 7.45 0 0 0 15 8.702a7.45 7.45 0 0 0-2.197-5.303z" fill="#5c7099"/><path d="M8.079 8.231c-.375-.133-.79-.293-1.019-.472-.057-.045-.082-.159-.06-.277.012-.062.066-.269.275-.332.367-.111.618.035.708.103.21.157.507.114.664-.096s.114-.507-.096-.664c-.087-.065-.299-.204-.603-.28v-.127c0-.262-.213-.475-.475-.475s-.475.213-.475.475v.157a1.36 1.36 0 0 0-.932 1.065c-.089.473.067.933.407 1.2s.818.454 1.289.62a.48.48 0 0 1 .356.573c-.044.263-.266.548-.648.551-.399.002-.512-.015-.813-.212-.219-.144-.514-.082-.657.137s-.082.514.137.657c.327.214.573.308.861.345v.142c0 .262.213.475.475.475s.475-.213.475-.475v-.191a1.56 1.56 0 0 0 .604-.346 1.63 1.63 0 0 0 .502-.926c.122-.723-.27-1.376-.976-1.626h0z" fill="#ffe666"/><path d="M8.57 1.278L9.038.81c.185-.185.185-.486 0-.671s-.486-.185-.671 0L7.164 1.341c-.185.185-.185.486 0 .671l1.202 1.202c.093.093.214.139.336.139s.243-.046.336-.139c.185-.185.185-.486 0-.671l-.268-.268c3.006.593 5.281 3.249 5.281 6.427A6.56 6.56 0 0 1 7.5 15.253v.949a7.45 7.45 0 0 0 5.303-2.197A7.45 7.45 0 0 0 15 8.702a7.45 7.45 0 0 0-2.197-5.303c-1.161-1.161-2.636-1.894-4.233-2.121h0z" fill="#404a80"/><path d="M8.08 8.229l-.58-.225v1.025l.263.096a.48.48 0 0 1 .356.573c-.043.257-.255.533-.619.549v1.544c.25-.014.449-.22.449-.473v-.191a1.56 1.56 0 0 0 .604-.346 1.63 1.63 0 0 0 .502-.926c.122-.723-.27-1.377-.976-1.626zM7.5 5.61v1.5c.245-.011.413.089.483.141.21.157.507.114.664-.096s.114-.507-.096-.664c-.087-.065-.299-.204-.603-.28v-.127c0-.253-.199-.46-.449-.473h0z" fill="#fabe2c"/></svg>